<svg width="501" height="45" viewBox="0 0 501 45" fill="none" xmlns="http://www.w3.org/2000/svg">
<rect x="0.8125" y="29.5864" width="500" height="10" rx="5" fill="#C7D3EB"/>
<rect x="0.8125" y="29.5864" width="266.697" height="10" rx="5" fill="#0B1C98"/>
<circle cx="267.51" cy="34.5864" r="10" fill="#0B1C98"/>
<circle cx="267.51" cy="34.5864" r="6" fill="#FFBD59"/>
<rect x="250.812" y="0.753418" width="33" height="23" rx="4" fill="#3174A5"/>
<path d="M255.908 16.7534L259.619 9.40683V9.34717H255.311V8.02614H261.256V9.377L257.548 16.7534H255.908ZM265.669 16.9196C264.968 16.9196 264.365 16.7421 263.863 16.3869C263.363 16.029 262.978 15.5134 262.708 14.8401C262.441 14.1639 262.307 13.35 262.307 12.3983C262.31 11.4466 262.445 10.6369 262.712 9.96933C262.982 9.29887 263.367 8.78751 263.867 8.43524C264.37 8.08296 264.971 7.90683 265.669 7.90683C266.368 7.90683 266.969 8.08296 267.472 8.43524C267.975 8.78751 268.36 9.29887 268.627 9.96933C268.897 10.6398 269.032 11.4494 269.032 12.3983C269.032 13.3528 268.897 14.1682 268.627 14.8443C268.36 15.5176 267.975 16.0318 267.472 16.3869C266.972 16.7421 266.371 16.9196 265.669 16.9196ZM265.669 15.5858C266.215 15.5858 266.645 15.3173 266.961 14.7804C267.279 14.2406 267.438 13.4466 267.438 12.3983C267.438 11.7051 267.365 11.1227 267.221 10.6511C267.076 10.1796 266.871 9.82444 266.607 9.5858C266.343 9.34433 266.03 9.22359 265.669 9.22359C265.127 9.22359 264.698 9.49347 264.382 10.0332C264.067 10.5702 263.908 11.3585 263.905 12.3983C263.902 13.0943 263.972 13.6796 264.114 14.154C264.259 14.6284 264.463 14.9864 264.728 15.2278C264.992 15.4665 265.306 15.5858 265.669 15.5858ZM275.114 15.1171V14.6568C275.114 14.3188 275.185 14.0077 275.327 13.7236C275.472 13.4395 275.682 13.2108 275.957 13.0375C276.233 12.8642 276.567 12.7776 276.959 12.7776C277.362 12.7776 277.7 12.8642 277.973 13.0375C278.246 13.208 278.452 13.4352 278.591 13.7193C278.733 14.0034 278.804 14.3159 278.804 14.6568V15.1171C278.804 15.4551 278.733 15.7662 278.591 16.0503C278.449 16.3344 278.24 16.5631 277.964 16.7364C277.692 16.9097 277.357 16.9963 276.959 16.9963C276.561 16.9963 276.224 16.9097 275.949 16.7364C275.673 16.5631 275.464 16.3344 275.322 16.0503C275.183 15.7662 275.114 15.4551 275.114 15.1171ZM276.226 14.6568V15.1171C276.226 15.3415 276.28 15.5475 276.388 15.735C276.496 15.9225 276.686 16.0162 276.959 16.0162C277.234 16.0162 277.423 15.9239 277.526 15.7392C277.631 15.5517 277.683 15.3443 277.683 15.1171V14.6568C277.683 14.4296 277.634 14.2222 277.534 14.0347C277.435 13.8443 277.243 13.7492 276.959 13.7492C276.692 13.7492 276.503 13.8443 276.392 14.0347C276.281 14.2222 276.226 14.4296 276.226 14.6568ZM270.678 10.1227V9.66251C270.678 9.3216 270.75 9.0091 270.895 8.72501C271.04 8.44092 271.25 8.21364 271.526 8.04319C271.801 7.86989 272.135 7.78325 272.527 7.78325C272.928 7.78325 273.264 7.86989 273.537 8.04319C273.813 8.21364 274.02 8.44092 274.159 8.72501C274.298 9.0091 274.368 9.3216 274.368 9.66251V10.1227C274.368 10.4636 274.297 10.7761 274.155 11.0602C274.016 11.3415 273.808 11.5673 273.533 11.7378C273.257 11.9082 272.922 11.9935 272.527 11.9935C272.126 11.9935 271.788 11.9082 271.513 11.7378C271.24 11.5673 271.033 11.3401 270.891 11.056C270.749 10.7719 270.678 10.4608 270.678 10.1227ZM271.798 9.66251V10.1227C271.798 10.35 271.851 10.5574 271.956 10.7449C272.064 10.9296 272.254 11.0219 272.527 11.0219C272.8 11.0219 272.987 10.9296 273.089 10.7449C273.195 10.5574 273.247 10.35 273.247 10.1227V9.66251C273.247 9.43524 273.197 9.22785 273.098 9.04035C272.999 8.85001 272.808 8.75484 272.527 8.75484C272.257 8.75484 272.068 8.85001 271.96 9.04035C271.852 9.23069 271.798 9.43808 271.798 9.66251ZM271.163 16.7534L277.163 8.02614H278.229L272.229 16.7534H271.163Z" fill="white"/>
<path d="M268.679 28.2534C268.294 28.9201 267.331 28.9201 266.946 28.2534L264.348 23.7534C263.963 23.0868 264.445 22.2534 265.214 22.2534L270.411 22.2534C271.18 22.2534 271.662 23.0868 271.277 23.7534L268.679 28.2534Z" fill="#3174A5"/>
</svg>
