<svg width="501" height="49" viewBox="0 0 501 49" fill="none" xmlns="http://www.w3.org/2000/svg">
<rect x="0.8125" y="33.5864" width="500" height="10" rx="5" fill="#C7D3EB"/>
<rect x="0.8125" y="33.5864" width="416.145" height="10" rx="5" fill="#0B1C98"/>
<circle cx="420.443" cy="38.5864" r="10" fill="#0B1C98"/>
<circle cx="420.443" cy="38.5864" r="6" fill="#FFBD59"/>
<rect x="403.943" y="0.753418" width="34" height="23" rx="4" fill="#3174A5"/>
<path d="M411.749 7.90683C412.166 7.90967 412.573 7.98353 412.968 8.12842C413.365 8.27046 413.723 8.50342 414.041 8.82728C414.36 9.1483 414.612 9.5787 414.8 10.1185C414.987 10.6582 415.081 11.3259 415.081 12.1213C415.084 12.8713 415.004 13.5418 414.843 14.1327C414.683 14.7207 414.455 15.2179 414.156 15.6242C413.858 16.0304 413.499 16.3401 413.078 16.5531C412.658 16.7662 412.185 16.8727 411.659 16.8727C411.108 16.8727 410.619 16.7648 410.193 16.5489C409.77 16.333 409.428 16.0375 409.166 15.6625C408.905 15.2875 408.744 14.8585 408.685 14.3756H410.24C410.32 14.7222 410.482 14.9977 410.726 15.2023C410.973 15.404 411.284 15.5048 411.659 15.5048C412.264 15.5048 412.73 15.2421 413.057 14.7165C413.384 14.1909 413.547 13.4608 413.547 12.5261H413.487C413.348 12.7761 413.168 12.9921 412.946 13.1739C412.725 13.3528 412.473 13.4906 412.192 13.5872C411.914 13.6838 411.618 13.7321 411.306 13.7321C410.794 13.7321 410.334 13.61 409.925 13.3656C409.519 13.1213 409.196 12.7861 408.958 12.36C408.722 11.9338 408.602 11.4466 408.6 10.8983C408.6 10.3301 408.73 9.82018 408.992 9.36847C409.256 8.91393 409.624 8.55597 410.095 8.29461C410.567 8.03041 411.118 7.90114 411.749 7.90683ZM411.753 9.18524C411.446 9.18524 411.169 9.26052 410.922 9.41109C410.678 9.55882 410.485 9.76052 410.343 10.0162C410.203 10.269 410.134 10.5517 410.134 10.8642C410.137 11.1739 410.206 11.4551 410.343 11.708C410.482 11.9608 410.671 12.1611 410.909 12.3088C411.151 12.4565 411.426 12.5304 411.736 12.5304C411.966 12.5304 412.181 12.4864 412.379 12.3983C412.578 12.3102 412.752 12.1881 412.899 12.0318C413.05 11.8727 413.166 11.6923 413.249 11.4906C413.334 11.2889 413.375 11.0759 413.372 10.8514C413.372 10.5531 413.301 10.2776 413.159 10.0247C413.02 9.77188 412.828 9.56876 412.584 9.41535C412.343 9.26194 412.066 9.18524 411.753 9.18524ZM419.726 16.9196C419.024 16.9196 418.422 16.7421 417.919 16.3869C417.419 16.029 417.034 15.5134 416.764 14.8401C416.497 14.1639 416.364 13.35 416.364 12.3983C416.367 11.4466 416.502 10.6369 416.769 9.96933C417.039 9.29887 417.423 8.78751 417.923 8.43524C418.426 8.08296 419.027 7.90683 419.726 7.90683C420.425 7.90683 421.026 8.08296 421.529 8.43524C422.031 8.78751 422.416 9.29887 422.683 9.96933C422.953 10.6398 423.088 11.4494 423.088 12.3983C423.088 13.3528 422.953 14.1682 422.683 14.8443C422.416 15.5176 422.031 16.0318 421.529 16.3869C421.029 16.7421 420.428 16.9196 419.726 16.9196ZM419.726 15.5858C420.271 15.5858 420.702 15.3173 421.017 14.7804C421.335 14.2406 421.494 13.4466 421.494 12.3983C421.494 11.7051 421.422 11.1227 421.277 10.6511C421.132 10.1796 420.928 9.82444 420.664 9.5858C420.399 9.34433 420.087 9.22359 419.726 9.22359C419.183 9.22359 418.754 9.49347 418.439 10.0332C418.124 10.5702 417.965 11.3585 417.962 12.3983C417.959 13.0943 418.029 13.6796 418.171 14.154C418.316 14.6284 418.52 14.9864 418.784 15.2278C419.048 15.4665 419.362 15.5858 419.726 15.5858ZM429.17 15.1171V14.6568C429.17 14.3188 429.241 14.0077 429.383 13.7236C429.528 13.4395 429.738 13.2108 430.014 13.0375C430.29 12.8642 430.623 12.7776 431.015 12.7776C431.419 12.7776 431.757 12.8642 432.03 13.0375C432.302 13.208 432.508 13.4352 432.648 13.7193C432.79 14.0034 432.861 14.3159 432.861 14.6568V15.1171C432.861 15.4551 432.79 15.7662 432.648 16.0503C432.506 16.3344 432.297 16.5631 432.021 16.7364C431.748 16.9097 431.413 16.9963 431.015 16.9963C430.618 16.9963 430.281 16.9097 430.006 16.7364C429.73 16.5631 429.521 16.3344 429.379 16.0503C429.24 15.7662 429.17 15.4551 429.17 15.1171ZM430.282 14.6568V15.1171C430.282 15.3415 430.336 15.5475 430.444 15.735C430.552 15.9225 430.743 16.0162 431.015 16.0162C431.291 16.0162 431.48 15.9239 431.582 15.7392C431.687 15.5517 431.74 15.3443 431.74 15.1171V14.6568C431.74 14.4296 431.69 14.2222 431.591 14.0347C431.491 13.8443 431.3 13.7492 431.015 13.7492C430.748 13.7492 430.559 13.8443 430.449 14.0347C430.338 14.2222 430.282 14.4296 430.282 14.6568ZM424.734 10.1227V9.66251C424.734 9.3216 424.807 9.0091 424.952 8.72501C425.096 8.44092 425.307 8.21364 425.582 8.04319C425.858 7.86989 426.192 7.78325 426.584 7.78325C426.984 7.78325 427.321 7.86989 427.594 8.04319C427.869 8.21364 428.077 8.44092 428.216 8.72501C428.355 9.0091 428.425 9.3216 428.425 9.66251V10.1227C428.425 10.4636 428.354 10.7761 428.211 11.0602C428.072 11.3415 427.865 11.5673 427.589 11.7378C427.314 11.9082 426.979 11.9935 426.584 11.9935C426.183 11.9935 425.845 11.9082 425.569 11.7378C425.297 11.5673 425.089 11.3401 424.947 11.056C424.805 10.7719 424.734 10.4608 424.734 10.1227ZM425.855 9.66251V10.1227C425.855 10.35 425.907 10.5574 426.013 10.7449C426.121 10.9296 426.311 11.0219 426.584 11.0219C426.856 11.0219 427.044 10.9296 427.146 10.7449C427.251 10.5574 427.304 10.35 427.304 10.1227V9.66251C427.304 9.43524 427.254 9.22785 427.155 9.04035C427.055 8.85001 426.865 8.75484 426.584 8.75484C426.314 8.75484 426.125 8.85001 426.017 9.04035C425.909 9.23069 425.855 9.43808 425.855 9.66251ZM425.22 16.7534L431.22 8.02614H432.285L426.285 16.7534H425.22Z" fill="white"/>
<path d="M421.809 28.2534C421.424 28.9201 420.462 28.9201 420.077 28.2534L417.479 23.7534C417.094 23.0868 417.575 22.2534 418.345 22.2534L423.541 22.2534C424.311 22.2534 424.792 23.0868 424.407 23.7534L421.809 28.2534Z" fill="#3174A5"/>
</svg>
