<svg width="501" height="49" viewBox="0 0 501 49" fill="none" xmlns="http://www.w3.org/2000/svg">
<rect x="0.443359" y="33.5864" width="500" height="10" rx="5" fill="#C7D3EB"/>
<rect x="0.443359" y="33.5864" width="340.931" height="10" rx="5" fill="#FFBD59"/>
<circle cx="345.443" cy="38.5864" r="10" fill="#FFBD59"/>
<circle cx="345.443" cy="38.5864" r="6" fill="#0B1C98"/>
<rect x="328.443" y="0.753418" width="34" height="23" rx="4" fill="#3174A5"/>
<path d="M336.321 16.8727C335.688 16.8727 335.125 16.7662 334.634 16.5531C334.145 16.3401 333.762 16.0489 333.483 15.6796C333.208 15.3074 333.071 14.8855 333.074 14.4139C333.071 14.0475 333.151 13.7108 333.313 13.404C333.475 13.0972 333.693 12.8415 333.969 12.6369C334.247 12.4296 334.557 12.2975 334.898 12.2406V12.181C334.449 12.0815 334.085 11.8528 333.807 11.4949C333.531 11.1341 333.395 10.7179 333.398 10.2463C333.395 9.79745 333.52 9.39688 333.773 9.04461C334.026 8.69234 334.372 8.41535 334.813 8.21364C335.253 8.0091 335.756 7.90683 336.321 7.90683C336.881 7.90683 337.379 8.0091 337.817 8.21364C338.257 8.41535 338.604 8.69234 338.857 9.04461C339.112 9.39688 339.24 9.79745 339.24 10.2463C339.24 10.7179 339.1 11.1341 338.818 11.4949C338.54 11.8528 338.181 12.0815 337.74 12.181V12.2406C338.081 12.2975 338.388 12.4296 338.661 12.6369C338.936 12.8415 339.155 13.0972 339.317 13.404C339.482 13.7108 339.564 14.0475 339.564 14.4139C339.564 14.8855 339.425 15.3074 339.146 15.6796C338.868 16.0489 338.485 16.3401 337.996 16.5531C337.51 16.7662 336.952 16.8727 336.321 16.8727ZM336.321 15.654C336.648 15.654 336.932 15.5986 337.173 15.4878C337.415 15.3742 337.602 15.2151 337.736 15.0105C337.869 14.806 337.938 14.5702 337.941 14.3031C337.938 14.0247 337.865 13.779 337.723 13.5659C337.584 13.35 337.392 13.181 337.148 13.0588C336.906 12.9367 336.631 12.8756 336.321 12.8756C336.009 12.8756 335.73 12.9367 335.486 13.0588C335.242 13.181 335.048 13.35 334.906 13.5659C334.767 13.779 334.699 14.0247 334.702 14.3031C334.699 14.5702 334.764 14.806 334.898 15.0105C335.031 15.2122 335.219 15.3699 335.46 15.4835C335.705 15.5972 335.992 15.654 336.321 15.654ZM336.321 11.6781C336.588 11.6781 336.824 11.6242 337.029 11.5162C337.236 11.4082 337.399 11.2577 337.519 11.0645C337.638 10.8713 337.699 10.6483 337.702 10.3955C337.699 10.1455 337.639 9.92671 337.523 9.73921C337.406 9.54887 337.244 9.40257 337.037 9.30029C336.83 9.19518 336.591 9.14262 336.321 9.14262C336.046 9.14262 335.803 9.19518 335.593 9.30029C335.385 9.40257 335.223 9.54887 335.107 9.73921C334.993 9.92671 334.938 10.1455 334.941 10.3955C334.938 10.6483 334.994 10.8713 335.111 11.0645C335.23 11.2548 335.394 11.4054 335.601 11.5162C335.811 11.6242 336.051 11.6781 336.321 11.6781ZM344.191 16.9196C343.489 16.9196 342.887 16.7421 342.384 16.3869C341.884 16.029 341.499 15.5134 341.229 14.8401C340.962 14.1639 340.829 13.35 340.829 12.3983C340.831 11.4466 340.966 10.6369 341.233 9.96933C341.503 9.29887 341.888 8.78751 342.388 8.43524C342.891 8.08296 343.492 7.90683 344.191 7.90683C344.89 7.90683 345.491 8.08296 345.993 8.43524C346.496 8.78751 346.881 9.29887 347.148 9.96933C347.418 10.6398 347.553 11.4494 347.553 12.3983C347.553 13.3528 347.418 14.1682 347.148 14.8443C346.881 15.5176 346.496 16.0318 345.993 16.3869C345.493 16.7421 344.893 16.9196 344.191 16.9196ZM344.191 15.5858C344.736 15.5858 345.167 15.3173 345.482 14.7804C345.8 14.2406 345.959 13.4466 345.959 12.3983C345.959 11.7051 345.887 11.1227 345.742 10.6511C345.597 10.1796 345.393 9.82444 345.128 9.5858C344.864 9.34433 344.552 9.22359 344.191 9.22359C343.648 9.22359 343.219 9.49347 342.904 10.0332C342.589 10.5702 342.43 11.3585 342.427 12.3983C342.424 13.0943 342.493 13.6796 342.635 14.154C342.78 14.6284 342.985 14.9864 343.249 15.2278C343.513 15.4665 343.827 15.5858 344.191 15.5858ZM353.635 15.1171V14.6568C353.635 14.3188 353.706 14.0077 353.848 13.7236C353.993 13.4395 354.203 13.2108 354.479 13.0375C354.754 12.8642 355.088 12.7776 355.48 12.7776C355.884 12.7776 356.222 12.8642 356.494 13.0375C356.767 13.208 356.973 13.4352 357.112 13.7193C357.254 14.0034 357.325 14.3159 357.325 14.6568V15.1171C357.325 15.4551 357.254 15.7662 357.112 16.0503C356.97 16.3344 356.762 16.5631 356.486 16.7364C356.213 16.9097 355.878 16.9963 355.48 16.9963C355.083 16.9963 354.746 16.9097 354.47 16.7364C354.195 16.5631 353.986 16.3344 353.844 16.0503C353.705 15.7662 353.635 15.4551 353.635 15.1171ZM354.747 14.6568V15.1171C354.747 15.3415 354.801 15.5475 354.909 15.735C355.017 15.9225 355.208 16.0162 355.48 16.0162C355.756 16.0162 355.945 15.9239 356.047 15.7392C356.152 15.5517 356.205 15.3443 356.205 15.1171V14.6568C356.205 14.4296 356.155 14.2222 356.056 14.0347C355.956 13.8443 355.764 13.7492 355.48 13.7492C355.213 13.7492 355.024 13.8443 354.914 14.0347C354.803 14.2222 354.747 14.4296 354.747 14.6568ZM349.199 10.1227V9.66251C349.199 9.3216 349.271 9.0091 349.416 8.72501C349.561 8.44092 349.771 8.21364 350.047 8.04319C350.323 7.86989 350.656 7.78325 351.048 7.78325C351.449 7.78325 351.786 7.86989 352.058 8.04319C352.334 8.21364 352.541 8.44092 352.681 8.72501C352.82 9.0091 352.889 9.3216 352.889 9.66251V10.1227C352.889 10.4636 352.818 10.7761 352.676 11.0602C352.537 11.3415 352.33 11.5673 352.054 11.7378C351.779 11.9082 351.443 11.9935 351.048 11.9935C350.648 11.9935 350.31 11.9082 350.034 11.7378C349.762 11.5673 349.554 11.3401 349.412 11.056C349.27 10.7719 349.199 10.4608 349.199 10.1227ZM350.32 9.66251V10.1227C350.32 10.35 350.372 10.5574 350.477 10.7449C350.585 10.9296 350.776 11.0219 351.048 11.0219C351.321 11.0219 351.509 10.9296 351.611 10.7449C351.716 10.5574 351.769 10.35 351.769 10.1227V9.66251C351.769 9.43524 351.719 9.22785 351.619 9.04035C351.52 8.85001 351.33 8.75484 351.048 8.75484C350.779 8.75484 350.59 8.85001 350.482 9.04035C350.374 9.23069 350.32 9.43808 350.32 9.66251ZM349.685 16.7534L355.685 8.02614H356.75L350.75 16.7534H349.685Z" fill="white"/>
<path d="M346.309 28.2534C345.924 28.9201 344.962 28.9201 344.577 28.2534L341.979 23.7534C341.594 23.0868 342.075 22.2534 342.845 22.2534L348.041 22.2534C348.811 22.2534 349.292 23.0868 348.907 23.7534L346.309 28.2534Z" fill="#3174A5"/>
</svg>
