<svg width="501" height="45" viewBox="0 0 501 45" fill="none" xmlns="http://www.w3.org/2000/svg">
<rect x="0.443359" y="29.5864" width="500" height="10" rx="5" fill="#C7D3EB"/>
<rect x="0.443359" y="29.5864" width="227.869" height="10" rx="5" fill="#FFBD59"/>
<circle cx="233.443" cy="34.5864" r="10" fill="#FFBD59"/>
<circle cx="233.443" cy="34.5864" r="6" fill="#0B1C98"/>
<rect x="216.443" y="0.753418" width="34" height="23" rx="4" fill="#3174A5"/>
<path d="M224.253 16.8727C223.685 16.8727 223.176 16.7662 222.727 16.5531C222.279 16.3372 221.922 16.0418 221.658 15.6668C221.396 15.2918 221.257 14.8628 221.24 14.3798H222.774C222.803 14.7378 222.958 15.0304 223.239 15.2577C223.52 15.4821 223.858 15.5943 224.253 15.5943C224.563 15.5943 224.838 15.5233 225.08 15.3813C225.321 15.2392 225.512 15.0418 225.651 14.7889C225.79 14.5361 225.858 14.2477 225.855 13.9239C225.858 13.5943 225.789 13.3017 225.646 13.046C225.504 12.7903 225.31 12.5901 225.063 12.4452C224.816 12.2975 224.531 12.2236 224.21 12.2236C223.949 12.2207 223.692 12.269 223.439 12.3685C223.186 12.4679 222.986 12.5986 222.838 12.7605L221.411 12.5261L221.867 8.02614H226.929V9.34717H223.175L222.923 11.6611H222.975C223.137 11.4707 223.365 11.3131 223.661 11.1881C223.956 11.0602 224.28 10.9963 224.632 10.9963C225.161 10.9963 225.632 11.1213 226.047 11.3713C226.462 11.6185 226.789 11.9594 227.027 12.394C227.266 12.8287 227.385 13.3259 227.385 13.8855C227.385 14.4622 227.252 14.9764 226.985 15.4281C226.72 15.877 226.352 16.2307 225.881 16.4892C225.412 16.7449 224.869 16.8727 224.253 16.8727ZM232.039 16.9196C231.337 16.9196 230.735 16.7421 230.232 16.3869C229.732 16.029 229.347 15.5134 229.077 14.8401C228.81 14.1639 228.676 13.35 228.676 12.3983C228.679 11.4466 228.814 10.6369 229.081 9.96933C229.351 9.29887 229.736 8.78751 230.236 8.43524C230.739 8.08296 231.34 7.90683 232.039 7.90683C232.737 7.90683 233.338 8.08296 233.841 8.43524C234.344 8.78751 234.729 9.29887 234.996 9.96933C235.266 10.6398 235.401 11.4494 235.401 12.3983C235.401 13.3528 235.266 14.1682 234.996 14.8443C234.729 15.5176 234.344 16.0318 233.841 16.3869C233.341 16.7421 232.74 16.9196 232.039 16.9196ZM232.039 15.5858C232.584 15.5858 233.014 15.3173 233.33 14.7804C233.648 14.2406 233.807 13.4466 233.807 12.3983C233.807 11.7051 233.735 11.1227 233.59 10.6511C233.445 10.1796 233.24 9.82444 232.976 9.5858C232.712 9.34433 232.399 9.22359 232.039 9.22359C231.496 9.22359 231.067 9.49347 230.752 10.0332C230.436 10.5702 230.277 11.3585 230.274 12.3983C230.271 13.0943 230.341 13.6796 230.483 14.154C230.628 14.6284 230.833 14.9864 231.097 15.2278C231.361 15.4665 231.675 15.5858 232.039 15.5858ZM241.483 15.1171V14.6568C241.483 14.3188 241.554 14.0077 241.696 13.7236C241.841 13.4395 242.051 13.2108 242.327 13.0375C242.602 12.8642 242.936 12.7776 243.328 12.7776C243.731 12.7776 244.069 12.8642 244.342 13.0375C244.615 13.208 244.821 13.4352 244.96 13.7193C245.102 14.0034 245.173 14.3159 245.173 14.6568V15.1171C245.173 15.4551 245.102 15.7662 244.96 16.0503C244.818 16.3344 244.609 16.5631 244.334 16.7364C244.061 16.9097 243.726 16.9963 243.328 16.9963C242.93 16.9963 242.594 16.9097 242.318 16.7364C242.042 16.5631 241.834 16.3344 241.692 16.0503C241.552 15.7662 241.483 15.4551 241.483 15.1171ZM242.595 14.6568V15.1171C242.595 15.3415 242.649 15.5475 242.757 15.735C242.865 15.9225 243.055 16.0162 243.328 16.0162C243.604 16.0162 243.792 15.9239 243.895 15.7392C244 15.5517 244.052 15.3443 244.052 15.1171V14.6568C244.052 14.4296 244.003 14.2222 243.903 14.0347C243.804 13.8443 243.612 13.7492 243.328 13.7492C243.061 13.7492 242.872 13.8443 242.761 14.0347C242.65 14.2222 242.595 14.4296 242.595 14.6568ZM237.047 10.1227V9.66251C237.047 9.3216 237.119 9.0091 237.264 8.72501C237.409 8.44092 237.619 8.21364 237.895 8.04319C238.17 7.86989 238.504 7.78325 238.896 7.78325C239.297 7.78325 239.633 7.86989 239.906 8.04319C240.182 8.21364 240.389 8.44092 240.528 8.72501C240.667 9.0091 240.737 9.3216 240.737 9.66251V10.1227C240.737 10.4636 240.666 10.7761 240.524 11.0602C240.385 11.3415 240.177 11.5673 239.902 11.7378C239.626 11.9082 239.291 11.9935 238.896 11.9935C238.496 11.9935 238.157 11.9082 237.882 11.7378C237.609 11.5673 237.402 11.3401 237.26 11.056C237.118 10.7719 237.047 10.4608 237.047 10.1227ZM238.167 9.66251V10.1227C238.167 10.35 238.22 10.5574 238.325 10.7449C238.433 10.9296 238.623 11.0219 238.896 11.0219C239.169 11.0219 239.356 10.9296 239.459 10.7449C239.564 10.5574 239.616 10.35 239.616 10.1227V9.66251C239.616 9.43524 239.567 9.22785 239.467 9.04035C239.368 8.85001 239.177 8.75484 238.896 8.75484C238.626 8.75484 238.437 8.85001 238.329 9.04035C238.221 9.23069 238.167 9.43808 238.167 9.66251ZM237.532 16.7534L243.532 8.02614H244.598L238.598 16.7534H237.532Z" fill="white"/>
<path d="M234.309 28.2534C233.924 28.9201 232.962 28.9201 232.577 28.2534L229.979 23.7534C229.594 23.0868 230.075 22.2534 230.845 22.2534L236.041 22.2534C236.811 22.2534 237.292 23.0868 236.907 23.7534L234.309 28.2534Z" fill="#3174A5"/>
</svg>
