<svg width="24" height="25" viewBox="0 0 24 25" fill="none" xmlns="http://www.w3.org/2000/svg">
<path d="M13.2328 0.496594C14.1085 0.493233 14.9842 0.502034 15.8596 0.522993L16.0924 0.531392C16.3611 0.540992 16.6263 0.552992 16.9467 0.567391C18.2235 0.627389 19.0946 0.828983 19.859 1.12537C20.651 1.43016 21.3182 1.84295 21.9854 2.51012C22.5954 3.10963 23.0675 3.83482 23.3689 4.63525C23.6653 5.39963 23.8669 6.272 23.9269 7.54875C23.9413 7.86794 23.9533 8.13433 23.9629 8.40312L23.9701 8.63592C23.9914 9.51092 24.0006 10.3862 23.9977 11.2614L23.9989 12.1566V13.7285C24.0018 14.6042 23.9926 15.4799 23.9713 16.3553L23.9641 16.588C23.9545 16.8568 23.9425 17.122 23.9281 17.4424C23.8681 18.7192 23.6641 19.5903 23.3689 20.3547C23.0685 21.156 22.5962 21.8818 21.9854 22.481C21.3853 23.091 20.6598 23.5631 19.859 23.8646C19.0946 24.161 18.2235 24.3626 16.9467 24.4226C16.6263 24.437 16.3611 24.449 16.0924 24.4586L15.8596 24.4658C14.9842 24.4871 14.1085 24.4963 13.2328 24.4934L12.3377 24.4946H10.7669C9.89128 24.4975 9.01562 24.4883 8.14022 24.467L7.90743 24.4598C7.62257 24.4495 7.33778 24.4375 7.05306 24.4238C5.7763 24.3638 4.90513 24.1598 4.13956 23.8646C3.33881 23.5638 2.61349 23.0916 2.01443 22.481C1.40371 21.8814 0.931136 21.1558 0.629677 20.3547C0.333287 19.5903 0.131694 18.7192 0.0716961 17.4424C0.0583321 17.1577 0.0463324 16.8729 0.0356974 16.588L0.0296977 16.3553C0.0075748 15.4799 -0.00242594 14.6042 -0.000301351 13.7285V11.2614C-0.0036504 10.3862 0.00515024 9.51092 0.0260978 8.63592L0.0344975 8.40312C0.0440972 8.13433 0.0560967 7.86794 0.0704962 7.54875C0.130494 6.2708 0.332087 5.40083 0.628477 4.63525C0.930114 3.83442 1.40361 3.10944 2.01563 2.51133C2.61428 1.90025 3.33914 1.42725 4.13956 1.12537C4.90513 0.828983 5.7751 0.627389 7.05306 0.567391L7.90743 0.531392L8.14022 0.525393C9.01521 0.503281 9.89047 0.49328 10.7657 0.495394L13.2328 0.496594ZM11.9993 6.49639C11.2043 6.48515 10.4151 6.63201 9.67734 6.92846C8.93963 7.2249 8.26819 7.665 7.70205 8.2232C7.13591 8.78139 6.68635 9.44653 6.37951 10.18C6.07266 10.9134 5.91465 11.7005 5.91465 12.4956C5.91465 13.2906 6.07266 14.0777 6.37951 14.8112C6.68635 15.5446 7.13591 16.2098 7.70205 16.768C8.26819 17.3262 8.93963 17.7663 9.67734 18.0627C10.4151 18.3592 11.2043 18.506 11.9993 18.4948C13.5905 18.4948 15.1166 17.8627 16.2418 16.7375C17.367 15.6123 17.9991 14.0862 17.9991 12.495C17.9991 10.9037 17.367 9.37767 16.2418 8.25249C15.1166 7.12731 13.5905 6.49639 11.9993 6.49639ZM11.9993 8.89631C12.4775 8.8875 12.9526 8.97406 13.397 9.15095C13.8414 9.32783 14.246 9.59149 14.5873 9.92653C14.9287 10.2616 15.1998 10.6612 15.3849 11.1022C15.57 11.5432 15.6654 12.0167 15.6655 12.495C15.6656 12.9732 15.5703 13.4467 15.3854 13.8878C15.2004 14.3289 14.9294 14.7286 14.5882 15.0638C14.247 15.3989 13.8424 15.6627 13.3981 15.8398C12.9538 16.0168 12.4787 16.1035 12.0005 16.0949C11.0457 16.0949 10.1301 15.7156 9.45499 15.0405C8.77988 14.3654 8.40061 13.4497 8.40061 12.495C8.40061 11.5402 8.77988 10.6246 9.45499 9.94949C10.1301 9.27438 11.0457 8.89511 12.0005 8.89511L11.9993 8.89631ZM18.2991 4.69645C17.912 4.71194 17.5459 4.87663 17.2774 5.156C17.009 5.43538 16.8591 5.80777 16.8591 6.1952C16.8591 6.58262 17.009 6.95502 17.2774 7.2344C17.5459 7.51377 17.912 7.67845 18.2991 7.69395C18.6969 7.69395 19.0784 7.53592 19.3597 7.25462C19.641 6.97333 19.799 6.59181 19.799 6.194C19.799 5.79619 19.641 5.41467 19.3597 5.13338C19.0784 4.85208 18.6969 4.69405 18.2991 4.69405V4.69645Z" fill="white"/>
</svg>
