<svg width="511" height="497" viewBox="0 0 511 497" fill="none" xmlns="http://www.w3.org/2000/svg">
<ellipse cx="255.104" cy="248.787" rx="254.989" ry="247.917" fill="#0B1C98"/>
<path d="M140.896 249.863H0.114258C0.114258 249.863 6.41862 141.613 73.6571 74.4118C140.896 7.21048 251.21 0.869629 251.21 0.869629V142.701C251.21 142.701 207.001 145.062 179.768 166.865C152.536 188.669 140.896 249.863 140.896 249.863Z" fill="#5563CD"/>
<path d="M369.312 247.711H510.093C510.093 247.711 503.788 355.961 436.55 423.162C369.312 490.364 258.997 496.705 258.997 496.705V354.873C258.997 354.873 303.206 352.512 330.439 330.709C357.671 308.905 369.312 247.711 369.312 247.711Z" fill="#5563CD"/>
<path d="M364.945 247.711H510.093C510.093 247.711 503.593 140.397 434.269 73.7761C364.945 7.15566 251.21 0.869629 251.21 0.869629V141.475C251.21 141.475 296.79 143.815 324.867 165.43C352.944 187.045 364.945 247.711 364.945 247.711Z" fill="#97A3F8"/>
<path d="M145.262 249.863H0.114258C0.114258 249.863 6.61415 357.178 75.938 423.798C145.262 490.419 258.997 496.705 258.997 496.705V356.099C258.997 356.099 213.417 353.759 185.34 332.144C157.263 310.529 145.262 249.863 145.262 249.863Z" fill="#97A3F8"/>
<ellipse cx="258.329" cy="252.032" rx="123.694" ry="120.176" fill="white"/>
<g clip-path="url(#clip0_436_3226)">
<path d="M243.062 252.032H267.145C268.664 252.033 270.165 251.701 271.543 251.058C272.921 250.416 274.144 249.48 275.124 248.314C276.105 247.148 276.821 245.781 277.222 244.309C277.624 242.836 277.7 241.293 277.447 239.788L275.359 227.264C274.544 222.452 272.059 218.086 268.346 214.941C264.632 211.795 259.93 210.074 255.074 210.082C250.218 210.091 245.522 211.828 241.819 214.987C238.116 218.145 235.647 222.52 234.848 227.334L232.76 239.858C231.716 246.225 236.588 252.032 243.062 252.032ZM183.131 245.805C182.226 247.624 181.878 249.793 182.435 251.962C183.548 256.789 187.725 259.168 193.084 258.958H206.658C212.435 258.958 217.168 254.9 217.168 249.933C217.168 248.953 216.959 248.044 216.681 247.134C216.611 246.924 216.611 246.784 216.751 246.575C217.377 245.455 217.725 244.196 217.725 242.866C217.725 240.698 216.751 238.669 215.219 237.129C215.01 236.919 215.01 236.71 215.08 236.43C215.567 235.03 215.567 233.421 215.15 231.882C214.633 230.435 213.704 229.172 212.479 228.251C211.254 227.331 209.786 226.793 208.259 226.705C208.167 226.708 208.076 226.69 207.992 226.654C207.908 226.618 207.832 226.563 207.771 226.495C206.588 225.026 204.43 224.046 201.994 224.046C199.906 224.046 198.027 224.746 196.774 225.865C196.565 226.075 196.356 226.075 196.147 226.005C194.902 225.498 193.556 225.29 192.217 225.397C190.878 225.505 189.582 225.926 188.433 226.626C187.284 227.325 186.313 228.285 185.598 229.428C184.883 230.572 184.443 231.867 184.314 233.211C184.314 233.351 184.244 233.491 184.105 233.631C182.087 235.45 180.903 238.179 181.251 240.977C181.46 242.517 182.087 243.986 182.992 245.175C183.2 245.315 183.2 245.595 183.131 245.805ZM284.617 263.576C276.473 259.938 266.449 257.279 255.104 257.279C243.758 257.279 233.734 260.008 225.591 263.576C221.923 265.238 218.813 267.933 216.639 271.336C214.464 274.739 213.318 278.702 213.34 282.746V287.014C213.34 290.862 216.472 294.01 220.3 294.01H289.907C293.735 294.01 296.867 290.862 296.867 287.014V282.746C296.867 274.49 292.134 266.934 284.617 263.576ZM180.068 270.082C177.546 271.166 175.397 272.97 173.887 275.272C172.377 277.573 171.574 280.269 171.576 283.026V287.014C171.576 290.862 174.708 294.01 178.537 294.01H202.899V282.746C202.899 276.939 204.5 271.482 207.284 266.724C204.709 266.304 202.133 266.025 199.419 266.025C192.528 266.025 185.985 267.494 180.068 270.082ZM330.139 270.082C324.035 267.406 317.448 266.024 310.788 266.025C308.074 266.025 305.498 266.304 302.923 266.724C305.707 271.482 307.308 276.939 307.308 282.746V294.01H331.67C335.499 294.01 338.631 290.862 338.631 287.014V283.026C338.631 277.359 335.29 272.321 330.139 270.082ZM324.71 245.035V241.537C324.71 233.841 318.445 227.544 310.788 227.544H296.867C293.944 227.544 292.343 230.903 294.153 233.211L299.025 237.619C297.702 239.788 296.867 242.307 296.867 245.035C296.867 252.731 303.132 259.028 310.788 259.028C318.445 259.028 324.71 252.731 324.71 245.035Z" fill="#0B1C98"/>
</g>
<path d="M135.65 101.314C134.764 101.314 133.914 100.997 133.287 100.434C132.66 99.8698 132.308 99.1051 132.308 98.3077C132.308 97.5103 132.66 96.7456 133.287 96.1817C133.914 95.6179 134.764 95.3011 135.65 95.3011H149.021C149.908 95.3011 150.758 95.6179 151.385 96.1817C152.012 96.7456 152.364 97.5103 152.364 98.3077V110.334C152.364 111.131 152.012 111.896 151.385 112.46C150.758 113.024 149.908 113.34 149.021 113.34C148.135 113.34 147.285 113.024 146.658 112.46C146.031 111.896 145.679 111.131 145.679 110.334V105.565L126.314 122.982C125.687 123.546 124.837 123.863 123.951 123.863C123.064 123.863 122.214 123.546 121.587 122.982L112.251 114.585L94.5577 130.499C93.9272 131.046 93.0828 131.349 92.2064 131.342C91.3299 131.336 90.4915 131.019 89.8717 130.462C89.2519 129.905 88.9004 129.15 88.8928 128.362C88.8851 127.574 89.2221 126.814 89.831 126.247L109.888 108.208C110.514 107.645 111.365 107.328 112.251 107.328C113.137 107.328 113.987 107.645 114.614 108.208L123.951 116.605L140.952 101.314H135.65ZM95.5371 143.406V152.425C95.5371 153.223 95.1849 153.987 94.558 154.551C93.9311 155.115 93.0809 155.432 92.1943 155.432C91.3078 155.432 90.4575 155.115 89.8306 154.551C89.2037 153.987 88.8516 153.223 88.8516 152.425V143.406C88.8516 142.608 89.2037 141.844 89.8306 141.28C90.4575 140.716 91.3078 140.399 92.1943 140.399C93.0809 140.399 93.9311 140.716 94.558 141.28C95.1849 141.844 95.5371 142.608 95.5371 143.406ZM112.251 131.38C112.251 130.582 111.899 129.817 111.272 129.254C110.645 128.69 109.795 128.373 108.908 128.373C108.022 128.373 107.171 128.69 106.545 129.254C105.918 129.817 105.565 130.582 105.565 131.38V152.425C105.565 153.223 105.918 153.987 106.545 154.551C107.171 155.115 108.022 155.432 108.908 155.432C109.795 155.432 110.645 155.115 111.272 154.551C111.899 153.987 112.251 153.223 112.251 152.425V131.38ZM125.622 134.386C126.509 134.386 127.359 134.703 127.986 135.267C128.613 135.83 128.965 136.595 128.965 137.393V152.425C128.965 153.223 128.613 153.987 127.986 154.551C127.359 155.115 126.509 155.432 125.622 155.432C124.736 155.432 123.885 155.115 123.258 154.551C122.631 153.987 122.279 153.223 122.279 152.425V137.393C122.279 136.595 122.631 135.83 123.258 135.267C123.885 134.703 124.736 134.386 125.622 134.386ZM145.679 122.36C145.679 121.563 145.327 120.798 144.7 120.234C144.073 119.67 143.222 119.353 142.336 119.353C141.449 119.353 140.599 119.67 139.972 120.234C139.345 120.798 138.993 121.563 138.993 122.36V152.425C138.993 153.223 139.345 153.987 139.972 154.551C140.599 155.115 141.449 155.432 142.336 155.432C143.222 155.432 144.073 155.115 144.7 154.551C145.327 153.987 145.679 153.223 145.679 152.425V122.36Z" fill="white"/>
<path d="M378.229 136.741H370.643C370.643 127.432 374.239 118.505 380.642 111.923C387.044 105.341 395.727 101.643 404.781 101.643V109.442C390.102 109.442 378.229 121.649 378.229 136.741ZM404.781 125.041V117.242C394.312 117.242 385.815 125.977 385.815 136.741H393.402C393.402 130.267 398.484 125.041 404.781 125.041ZM363.056 97.7429C363.056 93.4142 359.681 89.9434 355.47 89.9434C351.26 89.9434 347.884 93.4142 347.884 97.7429C347.884 102.072 351.26 105.542 355.47 105.542C359.681 105.542 363.056 102.072 363.056 97.7429ZM379.936 99.6928H372.35C371.915 102.42 370.551 104.898 368.5 106.685C366.45 108.471 363.848 109.449 361.16 109.442H349.781C346.632 109.442 344.091 112.055 344.091 115.292V125.041H366.85V116.228C370.361 115.083 373.47 112.908 375.795 109.97C378.12 107.033 379.56 103.46 379.936 99.6928ZM408.574 148.44C412.784 148.44 416.16 144.969 416.16 140.64C416.16 136.312 412.784 132.841 408.574 132.841C404.364 132.841 400.988 136.312 400.988 140.64C400.988 144.969 404.364 148.44 408.574 148.44ZM414.264 152.34H402.884C397.195 152.34 392.605 148.128 391.695 142.59H384.108C384.867 150.39 390.139 156.825 397.195 159.125V167.939H419.953V158.19C419.953 154.953 417.412 152.34 414.264 152.34Z" fill="white"/>
<path d="M378.2 338.505C375.607 338.505 373.121 339.519 371.287 341.325C369.454 343.131 368.424 345.58 368.424 348.134V359.694C369.935 358.833 371.591 358.245 373.312 357.961V348.134C373.312 346.857 373.827 345.632 374.744 344.73C375.66 343.827 376.904 343.319 378.2 343.319H392.864V355.356C392.864 357.271 393.636 359.108 395.011 360.463C396.386 361.817 398.251 362.578 400.195 362.578H412.415V396.281C412.415 397.558 411.9 398.783 410.983 399.686C410.067 400.588 408.824 401.096 407.527 401.096H395.953C394.97 402.915 393.635 404.526 392.023 405.838L391.935 405.91H407.527C410.12 405.91 412.606 404.896 414.44 403.09C416.273 401.284 417.303 398.835 417.303 396.281V359.757C417.301 357.842 416.528 356.006 415.152 354.653L400.914 340.618C400.233 339.948 399.424 339.416 398.534 339.053C397.645 338.691 396.691 338.504 395.728 338.505H378.2ZM411.403 357.763H400.195C399.547 357.763 398.926 357.51 398.467 357.058C398.009 356.607 397.751 355.995 397.751 355.356V344.316L411.403 357.763ZM385.532 372.208C385.532 374.761 384.502 377.211 382.669 379.017C380.835 380.822 378.349 381.837 375.756 381.837C373.163 381.837 370.677 380.822 368.844 379.017C367.01 377.211 365.98 374.761 365.98 372.208C365.98 369.654 367.01 367.204 368.844 365.399C370.677 363.593 373.163 362.578 375.756 362.578C378.349 362.578 380.835 363.593 382.669 365.399C384.502 367.204 385.532 369.654 385.532 372.208ZM392.864 393.874C392.864 399.868 387.976 405.91 375.756 405.91C363.536 405.91 358.648 399.892 358.648 393.874C358.648 391.958 359.421 390.121 360.796 388.767C362.171 387.413 364.036 386.652 365.98 386.652H385.532C387.476 386.652 389.341 387.413 390.716 388.767C392.091 390.121 392.864 391.958 392.864 393.874Z" fill="white"/>
<g clip-path="url(#clip1_436_3226)">
<path d="M160.778 374.68C156.246 370.255 150.203 367.228 143.908 366.063C141.138 365.364 138.369 364.899 135.599 364.666C142.649 356.98 141.39 345.335 133.081 338.814C124.772 332.292 112.182 333.457 105.132 341.143C98.0817 348.828 99.3407 360.473 107.65 366.995C109.161 368.159 110.671 369.091 112.182 369.557V374.68L108.153 371.187C104.628 367.926 98.8371 367.926 95.0602 371.187C91.5351 374.447 91.2833 379.571 94.8084 382.832L106.391 395.409C106.894 398.669 108.153 401.697 109.916 404.492C111.175 406.588 112.938 408.684 114.7 410.314V414.739C114.7 416.137 115.707 417.068 117.218 417.068H151.462C152.721 417.068 153.98 415.904 153.98 414.739V408.684C158.764 403.327 161.282 396.573 161.282 389.819V376.311C161.534 375.379 161.282 374.913 160.778 374.68ZM105.384 352.788C105.384 345.102 112.182 339.047 120.491 339.279C128.8 339.279 135.347 345.568 135.095 353.254C135.095 357.446 133.081 361.172 129.556 363.734V352.089C129.427 350.071 128.469 348.174 126.877 346.788C125.285 345.403 123.181 344.633 120.995 344.636C116.463 344.403 112.434 347.897 112.434 352.089V364.2C108.153 361.871 105.636 357.446 105.384 352.788ZM156.498 389.586C156.75 395.641 154.483 401.464 150.203 406.122C149.699 406.588 149.196 407.054 149.196 407.752V412.643H119.988V409.383C119.988 408.684 119.484 407.985 118.981 407.519C117.218 406.122 115.707 404.492 114.448 402.396C112.938 400.067 111.93 397.272 111.427 394.477C111.427 394.011 111.175 393.545 110.923 393.08L98.8371 379.804C98.0817 379.105 97.5781 378.174 97.5781 377.009C97.5781 376.078 98.0817 374.913 98.8371 374.215C100.6 372.817 103.118 372.817 104.88 374.215L112.182 380.969V387.956L116.966 385.627V352.089C117.218 350.459 118.729 349.061 120.743 349.294C122.506 349.294 124.268 350.459 124.268 352.089V378.873L129.304 379.804V369.091C129.556 368.858 129.808 368.858 130.059 368.625C131.822 368.625 133.585 368.858 135.347 369.091V380.969L139.376 381.667V369.557L142.397 370.255C143.656 370.488 144.915 370.954 146.174 371.42V383.065L150.203 383.764V373.05C152.469 373.982 154.483 375.379 156.246 377.009L156.498 389.586Z" fill="white"/>
</g>
<defs>
<clipPath id="clip0_436_3226">
<rect width="167.055" height="167.914" fill="white" transform="translate(171.576 168.075)"/>
</clipPath>
<clipPath id="clip1_436_3226">
<rect width="90.6455" height="83.8442" fill="white" transform="translate(84.2334 333.69)"/>
</clipPath>
</defs>
</svg>
