<svg width="81" height="81" viewBox="0 0 81 81" fill="none" xmlns="http://www.w3.org/2000/svg">
<rect opacity="0.2" x="10.2705" y="10.5234" width="70" height="70" rx="10" fill="#7D65B6"/>
<rect x="0.270508" y="0.523438" width="70" height="70" rx="10" fill="url(#paint0_linear_2581_3188)"/>
<path d="M44.8236 49.5043C46.5611 49.5043 47.8297 47.8086 47.4164 46.0531C45.9269 39.7222 40.4322 35.0234 33.8828 35.0234C27.3333 35.0234 21.8369 39.724 20.3491 46.055C19.9358 47.8105 21.2044 49.5062 22.9419 49.5062H44.8236V49.5043Z" fill="white"/>
<path d="M42.7603 52.5234C46.3558 52.5234 49.2705 49.5515 49.2705 45.8855C49.2705 42.2195 46.3558 39.2476 42.7603 39.2476C39.1648 39.2476 36.2501 42.2195 36.2501 45.8855C36.2501 49.5515 39.1648 52.5234 42.7603 52.5234Z" fill="#9747FF"/>
<path d="M33.8665 33.1915C38.1067 33.1915 41.5441 29.6841 41.5441 25.3575C41.5441 21.0309 38.1067 17.5234 33.8665 17.5234C29.6262 17.5234 26.1888 21.0309 26.1888 25.3575C26.1888 29.6841 29.6262 33.1915 33.8665 33.1915Z" fill="white"/>
<rect x="39.8011" y="44.6787" width="6.5102" height="1.81034" rx="0.905172" fill="white"/>
<rect x="42.1685" y="48.9028" width="6.63793" height="1.77551" rx="0.887755" transform="rotate(-90 42.1685 48.9028)" fill="white"/>
<defs>
<linearGradient id="paint0_linear_2581_3188" x1="70.2705" y1="70.5234" x2="-27.8188" y2="41.6494" gradientUnits="userSpaceOnUse">
<stop stop-color="#6D5A9B"/>
<stop offset="1" stop-color="#9D7BEF"/>
</linearGradient>
</defs>
</svg>
