<svg width="26" height="35" viewBox="0 0 26 35" fill="none" xmlns="http://www.w3.org/2000/svg">
<path d="M19.8131 27.643V27.8184C19.8131 30.9749 17.6513 33.7806 14.4087 34.482C10.0851 35.3588 6.30206 32.2024 6.30206 27.9938V27.643H19.8131Z" fill="white"/>
<path d="M25.2175 12.2114C25.2175 15.7186 22.6955 19.7519 21.6146 21.1548C21.4344 21.3301 21.4344 21.5055 21.2543 21.8562L20.3536 24.3112C20.1734 24.6619 19.9933 24.8373 19.4528 24.8373H6.30209C5.94179 24.8373 5.5815 24.6619 5.40135 24.3112L4.50062 21.8562C4.50062 21.6808 4.32047 21.5055 4.14032 21.1548C3.23959 19.7519 0.897676 15.7186 0.717529 12.2114C0.717529 9.05499 1.79841 6.07389 4.14032 3.96958C6.48224 1.68992 9.54474 0.462402 12.9675 0.462402C16.3903 0.462402 19.4528 1.86527 21.7947 3.96958C23.9565 6.24925 25.2175 9.05499 25.2175 12.2114Z" fill="white"/>
</svg>
