<svg width="188" height="59" viewBox="0 0 188 59" fill="none" xmlns="http://www.w3.org/2000/svg">
<rect x="0.681274" y="0.699707" width="187" height="58" rx="29" fill="#443D5E"/>
<path d="M51.3273 23.9197L54.7833 33.7477L58.2033 23.9197H60.8133L55.9713 36.6997H53.5773L48.7173 23.9197H51.3273ZM61.9433 25.9537V23.5597H64.3553V25.9537H61.9433ZM61.9433 36.6997V27.2677H64.3553V36.6997H61.9433ZM70.9052 36.8797C69.8852 36.8797 69.0032 36.6577 68.2592 36.2137C67.5272 35.7697 66.9572 35.1817 66.5492 34.4497C66.1412 33.7057 65.9372 32.9017 65.9372 32.0377C65.9372 31.1497 66.1352 30.3337 66.5312 29.5897C66.9392 28.8337 67.5152 28.2337 68.2592 27.7897C69.0032 27.3337 69.8912 27.1057 70.9232 27.1057C71.9552 27.1057 72.8372 27.3337 73.5692 27.7897C74.3012 28.2337 74.8592 28.8277 75.2432 29.5717C75.6392 30.3037 75.8372 31.0957 75.8372 31.9477C75.8372 32.2597 75.8192 32.5297 75.7832 32.7577H68.4932C68.5532 33.4897 68.8232 34.0657 69.3032 34.4857C69.7952 34.9057 70.3592 35.1157 70.9952 35.1157C71.4752 35.1157 71.9252 35.0017 72.3452 34.7737C72.7772 34.5337 73.0712 34.2217 73.2272 33.8377L75.2972 34.4137C74.9492 35.1337 74.3912 35.7277 73.6232 36.1957C72.8552 36.6517 71.9492 36.8797 70.9052 36.8797ZM68.4392 31.2277H73.3712C73.2992 30.5197 73.0292 29.9497 72.5612 29.5177C72.1052 29.0737 71.5472 28.8517 70.8872 28.8517C70.2392 28.8517 69.6812 29.0737 69.2132 29.5177C68.7572 29.9497 68.4992 30.5197 68.4392 31.2277ZM88.7429 27.2677H91.0289L87.0869 36.6997H85.0709L83.4869 32.6497L81.9389 36.6997H79.9049L75.9809 27.2677H78.2489L81.0569 34.3957L82.1549 31.3177L80.5169 27.2857H82.5149L83.4869 30.1657L84.4769 27.2857H86.4749L84.8369 31.3177L85.9529 34.3957L88.7429 27.2677ZM110.609 36.6997H108.197V31.4077C108.197 30.6637 108.065 30.1177 107.801 29.7697C107.549 29.4097 107.195 29.2297 106.739 29.2297C106.259 29.2297 105.809 29.4157 105.389 29.7877C104.969 30.1477 104.669 30.6217 104.489 31.2097V36.6997H102.077V31.4077C102.077 30.6517 101.945 30.0997 101.681 29.7517C101.429 29.4037 101.075 29.2297 100.619 29.2297C100.151 29.2297 99.701 29.4097 99.269 29.7697C98.849 30.1297 98.549 30.6037 98.369 31.1917V36.6997H95.957V27.2677H98.135V29.0137C98.483 28.4017 98.957 27.9337 99.557 27.6097C100.169 27.2737 100.865 27.1057 101.645 27.1057C102.425 27.1057 103.031 27.2977 103.463 27.6817C103.907 28.0657 104.189 28.5397 104.309 29.1037C104.681 28.4557 105.167 27.9637 105.767 27.6277C106.367 27.2797 107.039 27.1057 107.783 27.1057C108.371 27.1057 108.845 27.2137 109.205 27.4297C109.577 27.6337 109.865 27.9157 110.069 28.2757C110.273 28.6237 110.411 29.0197 110.483 29.4637C110.567 29.9077 110.609 30.3577 110.609 30.8137V36.6997ZM117.065 36.8797C116.033 36.8797 115.145 36.6577 114.401 36.2137C113.669 35.7577 113.105 35.1577 112.709 34.4137C112.313 33.6697 112.115 32.8657 112.115 32.0017C112.115 31.1257 112.313 30.3157 112.709 29.5717C113.117 28.8277 113.687 28.2337 114.419 27.7897C115.163 27.3337 116.045 27.1057 117.065 27.1057C118.085 27.1057 118.961 27.3337 119.693 27.7897C120.437 28.2337 121.007 28.8277 121.403 29.5717C121.799 30.3157 121.997 31.1257 121.997 32.0017C121.997 32.8657 121.799 33.6697 121.403 34.4137C121.007 35.1577 120.437 35.7577 119.693 36.2137C118.961 36.6577 118.085 36.8797 117.065 36.8797ZM114.599 32.0017C114.599 32.5537 114.707 33.0457 114.923 33.4777C115.139 33.8977 115.433 34.2277 115.805 34.4677C116.177 34.7077 116.597 34.8277 117.065 34.8277C117.521 34.8277 117.935 34.7077 118.307 34.4677C118.679 34.2157 118.973 33.8797 119.189 33.4597C119.417 33.0277 119.531 32.5357 119.531 31.9837C119.531 31.4437 119.417 30.9637 119.189 30.5437C118.973 30.1117 118.679 29.7757 118.307 29.5357C117.935 29.2837 117.521 29.1577 117.065 29.1577C116.597 29.1577 116.177 29.2837 115.805 29.5357C115.433 29.7757 115.139 30.1117 114.923 30.5437C114.707 30.9637 114.599 31.4497 114.599 32.0017ZM129.241 29.3557C128.509 29.3557 127.855 29.4997 127.279 29.7877C126.703 30.0637 126.289 30.4657 126.037 30.9937V36.6997H123.625V27.2677H125.839V29.2837C126.163 28.6357 126.583 28.1257 127.099 27.7537C127.627 27.3817 128.179 27.1777 128.755 27.1417C129.007 27.1417 129.169 27.1477 129.241 27.1597V29.3557ZM134.837 36.8797C133.817 36.8797 132.935 36.6577 132.191 36.2137C131.459 35.7697 130.889 35.1817 130.481 34.4497C130.073 33.7057 129.869 32.9017 129.869 32.0377C129.869 31.1497 130.067 30.3337 130.463 29.5897C130.871 28.8337 131.447 28.2337 132.191 27.7897C132.935 27.3337 133.823 27.1057 134.855 27.1057C135.887 27.1057 136.769 27.3337 137.501 27.7897C138.233 28.2337 138.791 28.8277 139.175 29.5717C139.571 30.3037 139.769 31.0957 139.769 31.9477C139.769 32.2597 139.751 32.5297 139.715 32.7577H132.425C132.485 33.4897 132.755 34.0657 133.235 34.4857C133.727 34.9057 134.291 35.1157 134.927 35.1157C135.407 35.1157 135.857 35.0017 136.277 34.7737C136.709 34.5337 137.003 34.2217 137.159 33.8377L139.229 34.4137C138.881 35.1337 138.323 35.7277 137.555 36.1957C136.787 36.6517 135.881 36.8797 134.837 36.8797ZM132.371 31.2277H137.303C137.231 30.5197 136.961 29.9497 136.493 29.5177C136.037 29.0737 135.479 28.8517 134.819 28.8517C134.171 28.8517 133.613 29.0737 133.145 29.5177C132.689 29.9497 132.431 30.5197 132.371 31.2277Z" fill="white"/>
</svg>
