<svg width="109" height="110" viewBox="0 0 109 110" fill="none" xmlns="http://www.w3.org/2000/svg">
<rect x="0.973328" y="109.497" width="108.802" height="107.174" rx="23" transform="rotate(-90 0.973328 109.497)" fill="#0B1C98"/>
<rect x="0.973328" y="109.497" width="108.802" height="107.174" rx="23" transform="rotate(-90 0.973328 109.497)" fill="#0B1C98"/>
<path d="M54.2982 51.1104C58.3868 51.1104 61.7013 47.8523 61.7013 43.8332C61.7013 39.814 58.3868 36.5559 54.2982 36.5559C50.2096 36.5559 46.8951 39.814 46.8951 43.8332C46.8951 47.8523 50.2096 51.1104 54.2982 51.1104Z" fill="#907EFF"/>
<path d="M72.5217 43.8332C72.5217 45.6324 69.0071 46.8455 68.4831 48.4676C67.941 50.1487 70.0552 53.2065 69.0433 54.6059C68.0223 56.0189 64.4671 54.9376 63.0621 55.9644C61.6707 56.9821 61.603 60.7215 59.9315 61.2667C58.3188 61.7937 56.0871 58.8268 54.2982 58.8268C52.5093 58.8268 50.2776 61.7937 48.6649 61.2667C46.9934 60.7215 46.9257 56.9821 45.5343 55.9644C44.1293 54.9376 40.5741 56.0189 39.5531 54.6059C38.5412 53.2065 40.6554 50.1487 40.1133 48.4676C39.5893 46.8455 36.0746 45.6279 36.0746 43.8332C36.0746 42.0385 39.5893 40.8208 40.1133 39.1988C40.6554 37.5177 38.5412 34.4599 39.5531 33.0605C40.5741 31.6474 44.1293 32.7288 45.5343 31.7019C46.9257 30.6842 46.9934 26.9449 48.6649 26.3997C50.2776 25.8726 52.5093 28.8395 54.2982 28.8395C56.0871 28.8395 58.3188 25.8726 59.9315 26.3997C61.603 26.9449 61.6707 30.6842 63.0621 31.7019C64.4671 32.7288 68.0223 31.6474 69.0433 33.0605C70.0552 34.4599 67.941 37.5177 68.4831 39.1988C69.0026 40.8163 72.5217 42.0339 72.5217 43.8332Z" stroke="white" stroke-width="2.5" stroke-miterlimit="10"/>
<path d="M54.5605 61.8865L61.9739 75.7555C62.4693 76.6818 64.0037 76.7859 64.3851 75.9207L65.6082 72.5925C65.845 72.0504 66.6078 71.8386 67.2917 72.1258L71.2855 73.9748C72.3772 74.4307 73.4118 73.6229 72.9208 72.7002L64.3062 56.5837" stroke="white" stroke-width="2.5" stroke-miterlimit="10"/>
<path d="M55.7967 59.5744L47.147 75.7555C46.6516 76.6818 45.1172 76.7859 44.7358 75.9207L43.5127 72.5925C43.2759 72.0504 42.5131 71.8386 41.8292 72.1258L37.8354 73.9748C36.7438 74.4307 35.7091 73.6229 36.2001 72.7002L44.8191 56.5837" stroke="white" stroke-width="2.5" stroke-miterlimit="10"/>
</svg>
