<svg width="291" height="379" viewBox="0 0 291 379" fill="none" xmlns="http://www.w3.org/2000/svg">
<g filter="url(#filter0_d_773_467)">
<rect x="20.589" y="20.4058" width="250" height="337.979" rx="12" fill="white"/>
<rect x="21.089" y="20.9058" width="249" height="336.979" rx="11.5" stroke="black"/>
</g>
<path d="M46.489 192.406C46.049 192.406 45.709 192.292 45.469 192.066C45.2423 191.826 45.129 191.486 45.129 191.046V179.666C45.129 179.226 45.2423 178.892 45.469 178.666C45.709 178.426 46.049 178.306 46.489 178.306H51.289C52.2757 178.306 53.1157 178.452 53.809 178.746C54.5023 179.039 55.029 179.459 55.389 180.006C55.7623 180.552 55.949 181.206 55.949 181.966C55.949 182.819 55.7023 183.539 55.209 184.126C54.7157 184.712 54.0423 185.106 53.189 185.306V185.006C54.1757 185.152 54.9423 185.526 55.489 186.126C56.0357 186.726 56.309 187.506 56.309 188.466C56.309 189.719 55.8823 190.692 55.029 191.386C54.189 192.066 53.0157 192.406 51.509 192.406H46.489ZM47.589 190.466H51.189C52.0957 190.466 52.7623 190.292 53.189 189.946C53.6157 189.586 53.829 189.052 53.829 188.346C53.829 187.626 53.6157 187.092 53.189 186.746C52.7623 186.399 52.0957 186.226 51.189 186.226H47.589V190.466ZM47.589 184.286H50.849C51.729 184.286 52.3823 184.119 52.809 183.786C53.249 183.439 53.469 182.932 53.469 182.266C53.469 181.599 53.249 181.099 52.809 180.766C52.3823 180.419 51.729 180.246 50.849 180.246H47.589V184.286ZM61.8785 192.606C61.1719 192.606 60.5385 192.472 59.9785 192.206C59.4319 191.926 58.9985 191.552 58.6785 191.086C58.3719 190.619 58.2185 190.092 58.2185 189.506C58.2185 188.786 58.4052 188.219 58.7785 187.806C59.1519 187.379 59.7585 187.072 60.5985 186.886C61.4385 186.699 62.5652 186.606 63.9785 186.606H64.9785V188.046H63.9985C63.1719 188.046 62.5119 188.086 62.0185 188.166C61.5252 188.246 61.1719 188.386 60.9585 188.586C60.7585 188.772 60.6585 189.039 60.6585 189.386C60.6585 189.826 60.8119 190.186 61.1185 190.466C61.4252 190.746 61.8519 190.886 62.3985 190.886C62.8385 190.886 63.2252 190.786 63.5585 190.586C63.9052 190.372 64.1785 190.086 64.3785 189.726C64.5785 189.366 64.6785 188.952 64.6785 188.486V186.186C64.6785 185.519 64.5319 185.039 64.2385 184.746C63.9452 184.452 63.4519 184.306 62.7585 184.306C62.3719 184.306 61.9519 184.352 61.4985 184.446C61.0585 184.539 60.5919 184.699 60.0985 184.926C59.8452 185.046 59.6185 185.079 59.4185 185.026C59.2319 184.972 59.0852 184.866 58.9785 184.706C58.8719 184.532 58.8185 184.346 58.8185 184.146C58.8185 183.946 58.8719 183.752 58.9785 183.566C59.0852 183.366 59.2652 183.219 59.5185 183.126C60.1319 182.872 60.7185 182.692 61.2785 182.586C61.8519 182.479 62.3719 182.426 62.8385 182.426C63.7985 182.426 64.5852 182.572 65.1985 182.866C65.8252 183.159 66.2919 183.606 66.5985 184.206C66.9052 184.792 67.0585 185.552 67.0585 186.486V191.286C67.0585 191.699 66.9585 192.019 66.7585 192.246C66.5585 192.459 66.2719 192.566 65.8985 192.566C65.5252 192.566 65.2319 192.459 65.0185 192.246C64.8185 192.019 64.7185 191.699 64.7185 191.286V190.326H64.8785C64.7852 190.792 64.5985 191.199 64.3185 191.546C64.0519 191.879 63.7119 192.139 63.2985 192.326C62.8852 192.512 62.4119 192.606 61.8785 192.606ZM70.836 192.566C70.436 192.566 70.1294 192.459 69.916 192.246C69.7027 192.019 69.596 191.699 69.596 191.286V183.726C69.596 183.312 69.7027 182.999 69.916 182.786C70.1294 182.572 70.4294 182.466 70.816 182.466C71.2027 182.466 71.5027 182.572 71.716 182.786C71.9294 182.999 72.036 183.312 72.036 183.726V185.086L71.816 184.586C72.1094 183.879 72.5627 183.346 73.176 182.986C73.8027 182.612 74.5094 182.426 75.296 182.426C76.0827 182.426 76.7294 182.572 77.236 182.866C77.7427 183.159 78.1227 183.606 78.376 184.206C78.6294 184.792 78.756 185.539 78.756 186.446V191.286C78.756 191.699 78.6494 192.019 78.436 192.246C78.2227 192.459 77.916 192.566 77.516 192.566C77.116 192.566 76.8027 192.459 76.576 192.246C76.3627 192.019 76.256 191.699 76.256 191.286V186.566C76.256 185.806 76.1094 185.252 75.816 184.906C75.536 184.559 75.096 184.386 74.496 184.386C73.7627 184.386 73.176 184.619 72.736 185.086C72.3094 185.539 72.096 186.146 72.096 186.906V191.286C72.096 192.139 71.676 192.566 70.836 192.566ZM82.5352 192.566C82.1352 192.566 81.8286 192.459 81.6152 192.246C81.4019 192.019 81.2952 191.699 81.2952 191.286V179.406C81.2952 178.992 81.4019 178.679 81.6152 178.466C81.8286 178.252 82.1352 178.146 82.5352 178.146C82.9352 178.146 83.2419 178.252 83.4552 178.466C83.6819 178.679 83.7952 178.992 83.7952 179.406V186.786H83.8352L87.1352 183.306C87.4019 183.039 87.6352 182.832 87.8352 182.686C88.0352 182.539 88.3086 182.466 88.6552 182.466C89.0019 182.466 89.2619 182.559 89.4352 182.746C89.6219 182.919 89.7152 183.132 89.7152 183.386C89.7152 183.639 89.5952 183.892 89.3552 184.146L85.8752 187.826V186.786L89.6952 190.906C89.9352 191.159 90.0419 191.419 90.0152 191.686C90.0019 191.939 89.8952 192.152 89.6952 192.326C89.4952 192.486 89.2419 192.566 88.9352 192.566C88.5619 192.566 88.2619 192.492 88.0352 192.346C87.8219 192.199 87.5819 191.979 87.3152 191.686L83.8352 188.046H83.7952V191.286C83.7952 192.139 83.3752 192.566 82.5352 192.566ZM93.2579 192.546C92.8579 192.546 92.5512 192.426 92.3379 192.186C92.1246 191.946 92.0179 191.612 92.0179 191.186V183.846C92.0179 183.406 92.1246 183.072 92.3379 182.846C92.5512 182.606 92.8579 182.486 93.2579 182.486C93.6579 182.486 93.9646 182.606 94.1779 182.846C94.4046 183.072 94.5179 183.406 94.5179 183.846V191.186C94.5179 191.612 94.4112 191.946 94.1979 192.186C93.9846 192.426 93.6712 192.546 93.2579 192.546ZM93.2579 180.626C92.7912 180.626 92.4246 180.512 92.1579 180.286C91.9046 180.046 91.7779 179.719 91.7779 179.306C91.7779 178.879 91.9046 178.552 92.1579 178.326C92.4246 178.099 92.7912 177.986 93.2579 177.986C93.7379 177.986 94.1046 178.099 94.3579 178.326C94.6112 178.552 94.7379 178.879 94.7379 179.306C94.7379 179.719 94.6112 180.046 94.3579 180.286C94.1046 180.512 93.7379 180.626 93.2579 180.626ZM98.3556 192.566C97.9556 192.566 97.6489 192.459 97.4356 192.246C97.2222 192.019 97.1156 191.699 97.1156 191.286V183.726C97.1156 183.312 97.2222 182.999 97.4356 182.786C97.6489 182.572 97.9489 182.466 98.3356 182.466C98.7222 182.466 99.0222 182.572 99.2356 182.786C99.4489 182.999 99.5556 183.312 99.5556 183.726V185.086L99.3356 184.586C99.6289 183.879 100.082 183.346 100.696 182.986C101.322 182.612 102.029 182.426 102.816 182.426C103.602 182.426 104.249 182.572 104.756 182.866C105.262 183.159 105.642 183.606 105.896 184.206C106.149 184.792 106.276 185.539 106.276 186.446V191.286C106.276 191.699 106.169 192.019 105.956 192.246C105.742 192.459 105.436 192.566 105.036 192.566C104.636 192.566 104.322 192.459 104.096 192.246C103.882 192.019 103.776 191.699 103.776 191.286V186.566C103.776 185.806 103.629 185.252 103.336 184.906C103.056 184.559 102.616 184.386 102.016 184.386C101.282 184.386 100.696 184.619 100.256 185.086C99.8289 185.539 99.6156 186.146 99.6156 186.906V191.286C99.6156 192.139 99.1956 192.566 98.3556 192.566ZM113.375 196.206C112.655 196.206 111.955 196.139 111.275 196.006C110.608 195.872 110.001 195.666 109.455 195.386C109.201 195.252 109.028 195.092 108.935 194.906C108.855 194.719 108.828 194.526 108.855 194.326C108.895 194.139 108.975 193.972 109.095 193.826C109.228 193.679 109.388 193.579 109.575 193.526C109.761 193.472 109.955 193.499 110.155 193.606C110.741 193.899 111.295 194.086 111.815 194.166C112.348 194.259 112.801 194.306 113.175 194.306C114.068 194.306 114.735 194.086 115.175 193.646C115.628 193.219 115.855 192.579 115.855 191.726V189.926H116.035C115.835 190.606 115.415 191.152 114.775 191.566C114.148 191.966 113.435 192.166 112.635 192.166C111.755 192.166 110.988 191.966 110.335 191.566C109.681 191.152 109.175 190.579 108.815 189.846C108.455 189.112 108.275 188.259 108.275 187.286C108.275 186.552 108.375 185.892 108.575 185.306C108.788 184.706 109.081 184.192 109.455 183.766C109.841 183.339 110.301 183.012 110.835 182.786C111.381 182.546 111.981 182.426 112.635 182.426C113.461 182.426 114.181 182.632 114.795 183.046C115.421 183.446 115.828 183.979 116.015 184.646L115.815 185.146V183.726C115.815 183.312 115.921 182.999 116.135 182.786C116.361 182.572 116.668 182.466 117.055 182.466C117.455 182.466 117.761 182.572 117.975 182.786C118.188 182.999 118.295 183.312 118.295 183.726V191.426C118.295 193.012 117.875 194.206 117.035 195.006C116.195 195.806 114.975 196.206 113.375 196.206ZM113.315 190.266C113.835 190.266 114.281 190.146 114.655 189.906C115.028 189.666 115.315 189.326 115.515 188.886C115.728 188.432 115.835 187.899 115.835 187.286C115.835 186.366 115.608 185.646 115.155 185.126C114.701 184.592 114.088 184.326 113.315 184.326C112.795 184.326 112.348 184.446 111.975 184.686C111.601 184.926 111.308 185.266 111.095 185.706C110.895 186.146 110.795 186.672 110.795 187.286C110.795 188.206 111.021 188.932 111.475 189.466C111.928 189.999 112.541 190.266 113.315 190.266ZM131.035 192.606C130.035 192.606 129.168 192.446 128.435 192.126C127.701 191.806 127.135 191.366 126.735 190.806C126.348 190.232 126.155 189.566 126.155 188.806C126.155 188.352 126.215 187.932 126.335 187.546C126.468 187.146 126.655 186.779 126.895 186.446C127.148 186.099 127.448 185.779 127.795 185.486C128.155 185.179 128.561 184.892 129.015 184.626L129.695 184.226L129.335 184.766C128.748 184.179 128.321 183.626 128.055 183.106C127.801 182.572 127.675 182.026 127.675 181.466C127.675 180.799 127.835 180.212 128.155 179.706C128.475 179.199 128.928 178.806 129.515 178.526C130.101 178.246 130.788 178.106 131.575 178.106C132.668 178.106 133.535 178.386 134.175 178.946C134.815 179.492 135.135 180.239 135.135 181.186C135.135 181.692 135.035 182.172 134.835 182.626C134.635 183.079 134.315 183.512 133.875 183.926C133.435 184.339 132.848 184.746 132.115 185.146L132.135 184.546L135.535 188.166H134.995C135.168 187.872 135.321 187.552 135.455 187.206C135.588 186.846 135.701 186.466 135.795 186.066C135.901 185.652 135.981 185.226 136.035 184.786C136.088 184.452 136.201 184.206 136.375 184.046C136.548 183.872 136.795 183.786 137.115 183.786C137.461 183.786 137.721 183.886 137.895 184.086C138.068 184.272 138.135 184.546 138.095 184.906C138.028 185.532 137.915 186.132 137.755 186.706C137.608 187.266 137.421 187.792 137.195 188.286C136.968 188.766 136.715 189.212 136.435 189.626L136.415 189.006L138.315 190.926C138.568 191.179 138.695 191.432 138.695 191.686C138.695 191.939 138.595 192.152 138.395 192.326C138.208 192.486 137.948 192.566 137.615 192.566C137.321 192.566 137.081 192.512 136.895 192.406C136.708 192.286 136.501 192.112 136.275 191.886L135.035 190.586H135.615C135.028 191.212 134.335 191.706 133.535 192.066C132.748 192.426 131.915 192.606 131.035 192.606ZM131.175 190.626C131.815 190.626 132.381 190.506 132.875 190.266C133.381 190.012 133.841 189.639 134.255 189.146L134.195 189.786L130.075 185.526L131.115 185.626L130.535 185.966C130.081 186.232 129.715 186.499 129.435 186.766C129.155 187.019 128.948 187.299 128.815 187.606C128.695 187.899 128.635 188.232 128.635 188.606C128.635 189.232 128.855 189.726 129.295 190.086C129.735 190.446 130.361 190.626 131.175 190.626ZM131.575 179.886C131.095 179.886 130.708 180.026 130.415 180.306C130.121 180.572 129.975 180.939 129.975 181.406C129.975 181.659 130.015 181.899 130.095 182.126C130.175 182.339 130.315 182.579 130.515 182.846C130.715 183.099 130.988 183.412 131.335 183.786L130.775 183.746C131.335 183.426 131.775 183.139 132.095 182.886C132.428 182.632 132.668 182.379 132.815 182.126C132.961 181.872 133.035 181.592 133.035 181.286C133.035 180.832 132.901 180.486 132.635 180.246C132.368 180.006 132.015 179.886 131.575 179.886ZM147.816 192.566C147.403 192.566 147.076 192.452 146.836 192.226C146.61 191.986 146.496 191.646 146.496 191.206V179.666C146.496 179.226 146.61 178.892 146.836 178.666C147.076 178.426 147.416 178.306 147.856 178.306H154.836C155.183 178.306 155.443 178.392 155.616 178.566C155.79 178.739 155.876 178.986 155.876 179.306C155.876 179.639 155.79 179.899 155.616 180.086C155.443 180.259 155.183 180.346 154.836 180.346H149.056V184.326H154.416C154.75 184.326 155.003 184.412 155.176 184.586C155.363 184.759 155.456 185.006 155.456 185.326C155.456 185.659 155.363 185.919 155.176 186.106C155.003 186.279 154.75 186.366 154.416 186.366H149.056V191.206C149.056 192.112 148.643 192.566 147.816 192.566ZM159.527 192.546C159.127 192.546 158.821 192.426 158.607 192.186C158.394 191.946 158.287 191.612 158.287 191.186V183.846C158.287 183.406 158.394 183.072 158.607 182.846C158.821 182.606 159.127 182.486 159.527 182.486C159.927 182.486 160.234 182.606 160.447 182.846C160.674 183.072 160.787 183.406 160.787 183.846V191.186C160.787 191.612 160.681 191.946 160.467 192.186C160.254 192.426 159.941 192.546 159.527 192.546ZM159.527 180.626C159.061 180.626 158.694 180.512 158.427 180.286C158.174 180.046 158.047 179.719 158.047 179.306C158.047 178.879 158.174 178.552 158.427 178.326C158.694 178.099 159.061 177.986 159.527 177.986C160.007 177.986 160.374 178.099 160.627 178.326C160.881 178.552 161.007 178.879 161.007 179.306C161.007 179.719 160.881 180.046 160.627 180.286C160.374 180.512 160.007 180.626 159.527 180.626ZM164.625 192.566C164.225 192.566 163.918 192.459 163.705 192.246C163.492 192.019 163.385 191.699 163.385 191.286V183.726C163.385 183.312 163.492 182.999 163.705 182.786C163.918 182.572 164.218 182.466 164.605 182.466C164.992 182.466 165.292 182.572 165.505 182.786C165.718 182.999 165.825 183.312 165.825 183.726V185.086L165.605 184.586C165.898 183.879 166.352 183.346 166.965 182.986C167.592 182.612 168.298 182.426 169.085 182.426C169.872 182.426 170.518 182.572 171.025 182.866C171.532 183.159 171.912 183.606 172.165 184.206C172.418 184.792 172.545 185.539 172.545 186.446V191.286C172.545 191.699 172.438 192.019 172.225 192.246C172.012 192.459 171.705 192.566 171.305 192.566C170.905 192.566 170.592 192.459 170.365 192.246C170.152 192.019 170.045 191.699 170.045 191.286V186.566C170.045 185.806 169.898 185.252 169.605 184.906C169.325 184.559 168.885 184.386 168.285 184.386C167.552 184.386 166.965 184.619 166.525 185.086C166.098 185.539 165.885 186.146 165.885 186.906V191.286C165.885 192.139 165.465 192.566 164.625 192.566ZM178.304 192.606C177.598 192.606 176.964 192.472 176.404 192.206C175.858 191.926 175.424 191.552 175.104 191.086C174.798 190.619 174.644 190.092 174.644 189.506C174.644 188.786 174.831 188.219 175.204 187.806C175.578 187.379 176.184 187.072 177.024 186.886C177.864 186.699 178.991 186.606 180.404 186.606H181.404V188.046H180.424C179.598 188.046 178.938 188.086 178.444 188.166C177.951 188.246 177.598 188.386 177.384 188.586C177.184 188.772 177.084 189.039 177.084 189.386C177.084 189.826 177.238 190.186 177.544 190.466C177.851 190.746 178.278 190.886 178.824 190.886C179.264 190.886 179.651 190.786 179.984 190.586C180.331 190.372 180.604 190.086 180.804 189.726C181.004 189.366 181.104 188.952 181.104 188.486V186.186C181.104 185.519 180.958 185.039 180.664 184.746C180.371 184.452 179.878 184.306 179.184 184.306C178.798 184.306 178.378 184.352 177.924 184.446C177.484 184.539 177.018 184.699 176.524 184.926C176.271 185.046 176.044 185.079 175.844 185.026C175.658 184.972 175.511 184.866 175.404 184.706C175.298 184.532 175.244 184.346 175.244 184.146C175.244 183.946 175.298 183.752 175.404 183.566C175.511 183.366 175.691 183.219 175.944 183.126C176.558 182.872 177.144 182.692 177.704 182.586C178.278 182.479 178.798 182.426 179.264 182.426C180.224 182.426 181.011 182.572 181.624 182.866C182.251 183.159 182.718 183.606 183.024 184.206C183.331 184.792 183.484 185.552 183.484 186.486V191.286C183.484 191.699 183.384 192.019 183.184 192.246C182.984 192.459 182.698 192.566 182.324 192.566C181.951 192.566 181.658 192.459 181.444 192.246C181.244 192.019 181.144 191.699 181.144 191.286V190.326H181.304C181.211 190.792 181.024 191.199 180.744 191.546C180.478 191.879 180.138 192.139 179.724 192.326C179.311 192.512 178.838 192.606 178.304 192.606ZM187.262 192.566C186.862 192.566 186.555 192.459 186.342 192.246C186.128 192.019 186.022 191.699 186.022 191.286V183.726C186.022 183.312 186.128 182.999 186.342 182.786C186.555 182.572 186.855 182.466 187.242 182.466C187.628 182.466 187.928 182.572 188.142 182.786C188.355 182.999 188.462 183.312 188.462 183.726V185.086L188.242 184.586C188.535 183.879 188.988 183.346 189.602 182.986C190.228 182.612 190.935 182.426 191.722 182.426C192.508 182.426 193.155 182.572 193.662 182.866C194.168 183.159 194.548 183.606 194.802 184.206C195.055 184.792 195.182 185.539 195.182 186.446V191.286C195.182 191.699 195.075 192.019 194.862 192.246C194.648 192.459 194.342 192.566 193.942 192.566C193.542 192.566 193.228 192.459 193.002 192.246C192.788 192.019 192.682 191.699 192.682 191.286V186.566C192.682 185.806 192.535 185.252 192.242 184.906C191.962 184.559 191.522 184.386 190.922 184.386C190.188 184.386 189.602 184.619 189.162 185.086C188.735 185.539 188.522 186.146 188.522 186.906V191.286C188.522 192.139 188.102 192.566 187.262 192.566ZM202.241 192.606C201.214 192.606 200.321 192.399 199.561 191.986C198.801 191.559 198.214 190.959 197.801 190.186C197.388 189.412 197.181 188.506 197.181 187.466C197.181 186.679 197.294 185.979 197.521 185.366C197.761 184.739 198.101 184.212 198.541 183.786C198.981 183.346 199.514 183.012 200.141 182.786C200.768 182.546 201.468 182.426 202.241 182.426C202.681 182.426 203.154 182.486 203.661 182.606C204.181 182.726 204.668 182.926 205.121 183.206C205.334 183.339 205.474 183.499 205.541 183.686C205.608 183.872 205.621 184.066 205.581 184.266C205.541 184.452 205.454 184.619 205.321 184.766C205.201 184.899 205.048 184.986 204.861 185.026C204.674 185.052 204.468 185.006 204.241 184.886C203.948 184.712 203.648 184.586 203.341 184.506C203.034 184.412 202.741 184.366 202.461 184.366C202.021 184.366 201.634 184.439 201.301 184.586C200.968 184.719 200.681 184.919 200.441 185.186C200.214 185.439 200.041 185.759 199.921 186.146C199.801 186.532 199.741 186.979 199.741 187.486C199.741 188.472 199.974 189.252 200.441 189.826C200.921 190.386 201.594 190.666 202.461 190.666C202.741 190.666 203.028 190.626 203.321 190.546C203.628 190.466 203.934 190.339 204.241 190.166C204.468 190.046 204.668 190.006 204.841 190.046C205.028 190.086 205.181 190.179 205.301 190.326C205.421 190.459 205.494 190.626 205.521 190.826C205.548 191.012 205.521 191.199 205.441 191.386C205.374 191.572 205.241 191.726 205.041 191.846C204.601 192.112 204.134 192.306 203.641 192.426C203.148 192.546 202.681 192.606 202.241 192.606ZM208.395 192.546C207.995 192.546 207.688 192.426 207.475 192.186C207.261 191.946 207.155 191.612 207.155 191.186V183.846C207.155 183.406 207.261 183.072 207.475 182.846C207.688 182.606 207.995 182.486 208.395 182.486C208.795 182.486 209.101 182.606 209.315 182.846C209.541 183.072 209.655 183.406 209.655 183.846V191.186C209.655 191.612 209.548 191.946 209.335 192.186C209.121 192.426 208.808 192.546 208.395 192.546ZM208.395 180.626C207.928 180.626 207.561 180.512 207.295 180.286C207.041 180.046 206.915 179.719 206.915 179.306C206.915 178.879 207.041 178.552 207.295 178.326C207.561 178.099 207.928 177.986 208.395 177.986C208.875 177.986 209.241 178.099 209.495 178.326C209.748 178.552 209.875 178.879 209.875 179.306C209.875 179.719 209.748 180.046 209.495 180.286C209.241 180.512 208.875 180.626 208.395 180.626ZM215.472 192.606C214.766 192.606 214.132 192.472 213.572 192.206C213.026 191.926 212.592 191.552 212.272 191.086C211.966 190.619 211.812 190.092 211.812 189.506C211.812 188.786 211.999 188.219 212.372 187.806C212.746 187.379 213.352 187.072 214.192 186.886C215.032 186.699 216.159 186.606 217.572 186.606H218.572V188.046H217.592C216.766 188.046 216.106 188.086 215.612 188.166C215.119 188.246 214.766 188.386 214.552 188.586C214.352 188.772 214.252 189.039 214.252 189.386C214.252 189.826 214.406 190.186 214.712 190.466C215.019 190.746 215.446 190.886 215.992 190.886C216.432 190.886 216.819 190.786 217.152 190.586C217.499 190.372 217.772 190.086 217.972 189.726C218.172 189.366 218.272 188.952 218.272 188.486V186.186C218.272 185.519 218.126 185.039 217.832 184.746C217.539 184.452 217.046 184.306 216.352 184.306C215.966 184.306 215.546 184.352 215.092 184.446C214.652 184.539 214.186 184.699 213.692 184.926C213.439 185.046 213.212 185.079 213.012 185.026C212.826 184.972 212.679 184.866 212.572 184.706C212.466 184.532 212.412 184.346 212.412 184.146C212.412 183.946 212.466 183.752 212.572 183.566C212.679 183.366 212.859 183.219 213.112 183.126C213.726 182.872 214.312 182.692 214.872 182.586C215.446 182.479 215.966 182.426 216.432 182.426C217.392 182.426 218.179 182.572 218.792 182.866C219.419 183.159 219.886 183.606 220.192 184.206C220.499 184.792 220.652 185.552 220.652 186.486V191.286C220.652 191.699 220.552 192.019 220.352 192.246C220.152 192.459 219.866 192.566 219.492 192.566C219.119 192.566 218.826 192.459 218.612 192.246C218.412 192.019 218.312 191.699 218.312 191.286V190.326H218.472C218.379 190.792 218.192 191.199 217.912 191.546C217.646 191.879 217.306 192.139 216.892 192.326C216.479 192.512 216.006 192.606 215.472 192.606ZM226.53 192.606C225.423 192.606 224.59 192.292 224.03 191.666C223.47 191.026 223.19 190.092 223.19 188.866V179.406C223.19 178.992 223.296 178.679 223.51 178.466C223.723 178.252 224.03 178.146 224.43 178.146C224.83 178.146 225.136 178.252 225.35 178.466C225.576 178.679 225.69 178.992 225.69 179.406V188.746C225.69 189.359 225.816 189.812 226.07 190.106C226.336 190.399 226.71 190.546 227.19 190.546C227.296 190.546 227.396 190.546 227.49 190.546C227.583 190.532 227.676 190.519 227.77 190.506C227.956 190.479 228.083 190.532 228.15 190.666C228.216 190.786 228.25 191.039 228.25 191.426C228.25 191.759 228.183 192.019 228.05 192.206C227.916 192.392 227.696 192.506 227.39 192.546C227.256 192.559 227.116 192.572 226.97 192.586C226.823 192.599 226.676 192.606 226.53 192.606Z" fill="#212D4D"/>
<path d="M44.779 220.406V210.466H46.039V219.286H51.583V220.406H44.779ZM55.8414 220.546C55.2907 220.546 54.7914 220.448 54.3434 220.252C53.8954 220.046 53.5081 219.771 53.1814 219.426C52.8547 219.071 52.6027 218.665 52.4254 218.208C52.2481 217.75 52.1594 217.27 52.1594 216.766C52.1594 216.252 52.2481 215.767 52.4254 215.31C52.6027 214.852 52.8547 214.451 53.1814 214.106C53.5081 213.751 53.8954 213.476 54.3434 213.28C54.8007 213.074 55.3001 212.972 55.8414 212.972C56.3921 212.972 56.8914 213.074 57.3394 213.28C57.7874 213.476 58.1747 213.751 58.5014 214.106C58.8374 214.451 59.0941 214.852 59.2714 215.31C59.4487 215.767 59.5374 216.252 59.5374 216.766C59.5374 217.27 59.4487 217.75 59.2714 218.208C59.0941 218.665 58.8421 219.071 58.5154 219.426C58.1887 219.771 57.7967 220.046 57.3394 220.252C56.8914 220.448 56.3921 220.546 55.8414 220.546ZM53.4194 216.78C53.4194 217.284 53.5267 217.741 53.7414 218.152C53.9654 218.562 54.2594 218.889 54.6234 219.132C54.9874 219.365 55.3934 219.482 55.8414 219.482C56.2894 219.482 56.6954 219.36 57.0594 219.118C57.4327 218.875 57.7267 218.548 57.9414 218.138C58.1654 217.718 58.2774 217.256 58.2774 216.752C58.2774 216.248 58.1654 215.79 57.9414 215.38C57.7267 214.969 57.4327 214.642 57.0594 214.4C56.6954 214.157 56.2894 214.036 55.8414 214.036C55.3934 214.036 54.9874 214.162 54.6234 214.414C54.2594 214.656 53.9654 214.983 53.7414 215.394C53.5267 215.804 53.4194 216.266 53.4194 216.78ZM64.8943 214.176C64.2783 214.185 63.7323 214.344 63.2563 214.652C62.7896 214.95 62.4583 215.366 62.2623 215.898V220.406H61.0303V213.098H62.1783V214.792C62.4303 214.288 62.7616 213.882 63.1723 213.574C63.5923 213.256 64.0309 213.079 64.4883 213.042C64.5816 213.042 64.6609 213.042 64.7263 213.042C64.7916 213.042 64.8476 213.046 64.8943 213.056V214.176ZM69.1725 220.546C68.6218 220.546 68.1178 220.448 67.6605 220.252C67.2125 220.046 66.8205 219.771 66.4845 219.426C66.1578 219.071 65.9011 218.665 65.7145 218.208C65.5371 217.75 65.4485 217.265 65.4485 216.752C65.4485 216.061 65.6071 215.431 65.9245 214.862C66.2418 214.292 66.6805 213.835 67.2405 213.49C67.8098 213.144 68.4585 212.972 69.1865 212.972C69.9238 212.972 70.5631 213.149 71.1045 213.504C71.6551 213.849 72.0798 214.306 72.3785 214.876C72.6865 215.436 72.8405 216.042 72.8405 216.696C72.8405 216.789 72.8358 216.882 72.8265 216.976C72.8265 217.06 72.8218 217.125 72.8125 217.172H66.7505C66.7878 217.648 66.9185 218.072 67.1425 218.446C67.3758 218.81 67.6745 219.099 68.0385 219.314C68.4025 219.519 68.7945 219.622 69.2145 219.622C69.6625 219.622 70.0825 219.51 70.4745 219.286C70.8758 219.062 71.1511 218.768 71.3005 218.404L72.3645 218.698C72.2058 219.052 71.9678 219.37 71.6505 219.65C71.3425 219.93 70.9738 220.149 70.5445 220.308C70.1245 220.466 69.6671 220.546 69.1725 220.546ZM66.7085 216.318H71.6925C71.6551 215.842 71.5198 215.422 71.2865 215.058C71.0531 214.694 70.7545 214.409 70.3905 214.204C70.0265 213.998 69.6251 213.896 69.1865 213.896C68.7571 213.896 68.3605 213.998 67.9965 214.204C67.6325 214.409 67.3338 214.694 67.1005 215.058C66.8765 215.422 66.7458 215.842 66.7085 216.318ZM85.2279 220.406H83.9959V216.318C83.9959 215.552 83.8699 214.988 83.6179 214.624C83.3753 214.26 83.0113 214.078 82.5259 214.078C82.0313 214.078 81.5833 214.26 81.1819 214.624C80.7806 214.978 80.4959 215.44 80.3279 216.01V220.406H79.0959V216.318C79.0959 215.543 78.9746 214.978 78.7319 214.624C78.4893 214.26 78.1253 214.078 77.6399 214.078C77.1546 214.078 76.7066 214.255 76.2959 214.61C75.8946 214.955 75.6099 215.417 75.4419 215.996V220.406H74.2099V213.098H75.3299V214.666C75.6286 214.124 76.0159 213.709 76.4919 213.42C76.9679 213.121 77.5046 212.972 78.1019 212.972C78.7086 212.972 79.1939 213.14 79.5579 213.476C79.9219 213.802 80.1459 214.227 80.2299 214.75C80.5566 214.171 80.9533 213.732 81.4199 213.434C81.8866 213.126 82.4186 212.972 83.0159 212.972C83.4359 212.972 83.7859 213.051 84.0659 213.21C84.3553 213.359 84.5839 213.574 84.7519 213.854C84.9199 214.124 85.0413 214.446 85.1159 214.82C85.1906 215.193 85.2279 215.599 85.2279 216.038V220.406ZM90.6846 220.406V213.098H91.9166V220.406H90.6846ZM90.6846 211.726V210.186H91.9166V211.726H90.6846ZM97.8451 220.546C97.2478 220.546 96.7158 220.396 96.2491 220.098C95.7824 219.799 95.4138 219.421 95.1431 218.964V223.388H93.9111V213.098H95.0031V214.47C95.2924 214.022 95.6704 213.662 96.1371 213.392C96.6038 213.112 97.1124 212.972 97.6631 212.972C98.1671 212.972 98.6291 213.074 99.0491 213.28C99.4691 213.485 99.8331 213.765 100.141 214.12C100.449 214.474 100.687 214.88 100.855 215.338C101.032 215.786 101.121 216.257 101.121 216.752C101.121 217.442 100.981 218.077 100.701 218.656C100.43 219.234 100.048 219.696 99.5531 220.042C99.0584 220.378 98.4891 220.546 97.8451 220.546ZM97.4671 219.482C97.8311 219.482 98.1578 219.407 98.4471 219.258C98.7458 219.099 98.9978 218.894 99.2031 218.642C99.4178 218.38 99.5811 218.086 99.6931 217.76C99.8051 217.433 99.8611 217.097 99.8611 216.752C99.8611 216.388 99.7958 216.042 99.6651 215.716C99.5438 215.389 99.3664 215.1 99.1331 214.848C98.9091 214.596 98.6431 214.4 98.3351 214.26C98.0364 214.11 97.7098 214.036 97.3551 214.036C97.1311 214.036 96.8978 214.078 96.6551 214.162C96.4218 214.246 96.1978 214.367 95.9831 214.526C95.7684 214.675 95.5864 214.848 95.4371 215.044C95.2878 215.24 95.1898 215.45 95.1431 215.674V217.76C95.2831 218.077 95.4698 218.366 95.7031 218.628C95.9364 218.889 96.2071 219.099 96.5151 219.258C96.8231 219.407 97.1404 219.482 97.4671 219.482ZM105.14 220.546C104.533 220.546 103.964 220.448 103.432 220.252C102.9 220.046 102.442 219.743 102.06 219.342L102.536 218.474C102.956 218.866 103.376 219.146 103.796 219.314C104.216 219.482 104.645 219.566 105.084 219.566C105.588 219.566 105.998 219.472 106.316 219.286C106.633 219.09 106.792 218.805 106.792 218.432C106.792 218.161 106.708 217.96 106.54 217.83C106.381 217.699 106.152 217.592 105.854 217.508C105.555 217.414 105.2 217.312 104.79 217.2C104.286 217.05 103.861 216.892 103.516 216.724C103.17 216.556 102.909 216.346 102.732 216.094C102.554 215.842 102.466 215.524 102.466 215.142C102.466 214.675 102.587 214.283 102.83 213.966C103.072 213.639 103.404 213.392 103.824 213.224C104.253 213.056 104.738 212.972 105.28 212.972C105.821 212.972 106.311 213.056 106.75 213.224C107.188 213.392 107.566 213.639 107.884 213.966L107.324 214.82C107.034 214.521 106.717 214.302 106.372 214.162C106.026 214.012 105.639 213.938 105.21 213.938C104.958 213.938 104.71 213.97 104.468 214.036C104.225 214.092 104.024 214.199 103.866 214.358C103.707 214.507 103.628 214.722 103.628 215.002C103.628 215.235 103.688 215.422 103.81 215.562C103.94 215.692 104.127 215.804 104.37 215.898C104.622 215.991 104.925 216.094 105.28 216.206C105.83 216.364 106.306 216.523 106.708 216.682C107.118 216.84 107.436 217.046 107.66 217.298C107.884 217.55 107.996 217.9 107.996 218.348C107.996 219.038 107.734 219.58 107.212 219.972C106.689 220.354 105.998 220.546 105.14 220.546ZM109.4 217.48V213.098H110.632V217.242C110.632 217.988 110.762 218.548 111.024 218.922C111.285 219.295 111.672 219.482 112.186 219.482C112.522 219.482 112.844 219.412 113.152 219.272C113.469 219.122 113.754 218.912 114.006 218.642C114.258 218.371 114.454 218.049 114.594 217.676V213.098H115.826V219.006C115.826 219.155 115.854 219.267 115.91 219.342C115.975 219.407 116.078 219.444 116.218 219.454V220.406C116.078 220.424 115.966 220.434 115.882 220.434C115.807 220.443 115.732 220.448 115.658 220.448C115.424 220.448 115.224 220.378 115.056 220.238C114.888 220.088 114.799 219.906 114.79 219.692L114.762 218.838C114.444 219.379 114.015 219.799 113.474 220.098C112.942 220.396 112.358 220.546 111.724 220.546C110.958 220.546 110.38 220.289 109.988 219.776C109.596 219.253 109.4 218.488 109.4 217.48ZM128.896 220.406H127.664V216.318C127.664 215.552 127.538 214.988 127.286 214.624C127.043 214.26 126.679 214.078 126.194 214.078C125.699 214.078 125.251 214.26 124.85 214.624C124.449 214.978 124.164 215.44 123.996 216.01V220.406H122.764V216.318C122.764 215.543 122.643 214.978 122.4 214.624C122.157 214.26 121.793 214.078 121.308 214.078C120.823 214.078 120.375 214.255 119.964 214.61C119.563 214.955 119.278 215.417 119.11 215.996V220.406H117.878V213.098H118.998V214.666C119.297 214.124 119.684 213.709 120.16 213.42C120.636 213.121 121.173 212.972 121.77 212.972C122.377 212.972 122.862 213.14 123.226 213.476C123.59 213.802 123.814 214.227 123.898 214.75C124.225 214.171 124.621 213.732 125.088 213.434C125.555 213.126 126.087 212.972 126.684 212.972C127.104 212.972 127.454 213.051 127.734 213.21C128.023 213.359 128.252 213.574 128.42 213.854C128.588 214.124 128.709 214.446 128.784 214.82C128.859 215.193 128.896 215.599 128.896 216.038V220.406ZM133.877 216.766C133.877 216.075 134.017 215.445 134.297 214.876C134.586 214.297 134.978 213.835 135.473 213.49C135.977 213.144 136.551 212.972 137.195 212.972C137.783 212.972 138.31 213.126 138.777 213.434C139.243 213.742 139.607 214.115 139.869 214.554V210.186H141.101V219.006C141.101 219.155 141.129 219.267 141.185 219.342C141.25 219.407 141.353 219.444 141.493 219.454V220.406C141.259 220.443 141.077 220.462 140.947 220.462C140.704 220.462 140.489 220.378 140.303 220.21C140.125 220.042 140.037 219.855 140.037 219.65V219.034C139.747 219.5 139.36 219.869 138.875 220.14C138.389 220.41 137.885 220.546 137.363 220.546C136.859 220.546 136.392 220.448 135.963 220.252C135.543 220.046 135.174 219.766 134.857 219.412C134.549 219.057 134.306 218.656 134.129 218.208C133.961 217.75 133.877 217.27 133.877 216.766ZM139.869 217.844V215.744C139.757 215.426 139.575 215.142 139.323 214.89C139.071 214.628 138.786 214.423 138.469 214.274C138.161 214.115 137.853 214.036 137.545 214.036C137.181 214.036 136.849 214.115 136.551 214.274C136.261 214.423 136.009 214.628 135.795 214.89C135.589 215.142 135.431 215.431 135.319 215.758C135.207 216.084 135.151 216.425 135.151 216.78C135.151 217.144 135.211 217.489 135.333 217.816C135.463 218.142 135.641 218.432 135.865 218.684C136.098 218.936 136.364 219.132 136.663 219.272C136.971 219.412 137.302 219.482 137.657 219.482C137.881 219.482 138.109 219.44 138.343 219.356C138.585 219.272 138.814 219.155 139.029 219.006C139.243 218.856 139.425 218.684 139.575 218.488C139.724 218.282 139.822 218.068 139.869 217.844ZM146.349 220.546C145.799 220.546 145.299 220.448 144.851 220.252C144.403 220.046 144.016 219.771 143.689 219.426C143.363 219.071 143.111 218.665 142.933 218.208C142.756 217.75 142.667 217.27 142.667 216.766C142.667 216.252 142.756 215.767 142.933 215.31C143.111 214.852 143.363 214.451 143.689 214.106C144.016 213.751 144.403 213.476 144.851 213.28C145.309 213.074 145.808 212.972 146.349 212.972C146.9 212.972 147.399 213.074 147.847 213.28C148.295 213.476 148.683 213.751 149.009 214.106C149.345 214.451 149.602 214.852 149.779 215.31C149.957 215.767 150.045 216.252 150.045 216.766C150.045 217.27 149.957 217.75 149.779 218.208C149.602 218.665 149.35 219.071 149.023 219.426C148.697 219.771 148.305 220.046 147.847 220.252C147.399 220.448 146.9 220.546 146.349 220.546ZM143.927 216.78C143.927 217.284 144.035 217.741 144.249 218.152C144.473 218.562 144.767 218.889 145.131 219.132C145.495 219.365 145.901 219.482 146.349 219.482C146.797 219.482 147.203 219.36 147.567 219.118C147.941 218.875 148.235 218.548 148.449 218.138C148.673 217.718 148.785 217.256 148.785 216.752C148.785 216.248 148.673 215.79 148.449 215.38C148.235 214.969 147.941 214.642 147.567 214.4C147.203 214.157 146.797 214.036 146.349 214.036C145.901 214.036 145.495 214.162 145.131 214.414C144.767 214.656 144.473 214.983 144.249 215.394C144.035 215.804 143.927 216.266 143.927 216.78ZM151.566 210.186H152.798V218.516C152.798 218.917 152.854 219.164 152.966 219.258C153.078 219.351 153.213 219.398 153.372 219.398C153.568 219.398 153.755 219.379 153.932 219.342C154.109 219.295 154.259 219.248 154.38 219.202L154.576 220.21C154.371 220.294 154.128 220.364 153.848 220.42C153.568 220.476 153.321 220.504 153.106 220.504C152.63 220.504 152.252 220.368 151.972 220.098C151.701 219.827 151.566 219.449 151.566 218.964V210.186ZM158.736 220.546C158.185 220.546 157.686 220.448 157.238 220.252C156.79 220.046 156.403 219.771 156.076 219.426C155.749 219.071 155.497 218.665 155.32 218.208C155.143 217.75 155.054 217.27 155.054 216.766C155.054 216.252 155.143 215.767 155.32 215.31C155.497 214.852 155.749 214.451 156.076 214.106C156.403 213.751 156.79 213.476 157.238 213.28C157.695 213.074 158.195 212.972 158.736 212.972C159.287 212.972 159.786 213.074 160.234 213.28C160.682 213.476 161.069 213.751 161.396 214.106C161.732 214.451 161.989 214.852 162.166 215.31C162.343 215.767 162.432 216.252 162.432 216.766C162.432 217.27 162.343 217.75 162.166 218.208C161.989 218.665 161.737 219.071 161.41 219.426C161.083 219.771 160.691 220.046 160.234 220.252C159.786 220.448 159.287 220.546 158.736 220.546ZM156.314 216.78C156.314 217.284 156.421 217.741 156.636 218.152C156.86 218.562 157.154 218.889 157.518 219.132C157.882 219.365 158.288 219.482 158.736 219.482C159.184 219.482 159.59 219.36 159.954 219.118C160.327 218.875 160.621 218.548 160.836 218.138C161.06 217.718 161.172 217.256 161.172 216.752C161.172 216.248 161.06 215.79 160.836 215.38C160.621 214.969 160.327 214.642 159.954 214.4C159.59 214.157 159.184 214.036 158.736 214.036C158.288 214.036 157.882 214.162 157.518 214.414C157.154 214.656 156.86 214.983 156.636 215.394C156.421 215.804 156.314 216.266 156.314 216.78ZM167.789 214.176C167.173 214.185 166.627 214.344 166.151 214.652C165.684 214.95 165.353 215.366 165.157 215.898V220.406H163.925V213.098H165.073V214.792C165.325 214.288 165.656 213.882 166.067 213.574C166.487 213.256 166.925 213.079 167.383 213.042C167.476 213.042 167.555 213.042 167.621 213.042C167.686 213.042 167.742 213.046 167.789 213.056V214.176ZM174.73 220.546C174.123 220.546 173.554 220.448 173.022 220.252C172.49 220.046 172.032 219.743 171.65 219.342L172.126 218.474C172.546 218.866 172.966 219.146 173.386 219.314C173.806 219.482 174.235 219.566 174.674 219.566C175.178 219.566 175.588 219.472 175.906 219.286C176.223 219.09 176.382 218.805 176.382 218.432C176.382 218.161 176.298 217.96 176.13 217.83C175.971 217.699 175.742 217.592 175.444 217.508C175.145 217.414 174.79 217.312 174.38 217.2C173.876 217.05 173.451 216.892 173.106 216.724C172.76 216.556 172.499 216.346 172.322 216.094C172.144 215.842 172.056 215.524 172.056 215.142C172.056 214.675 172.177 214.283 172.42 213.966C172.662 213.639 172.994 213.392 173.414 213.224C173.843 213.056 174.328 212.972 174.87 212.972C175.411 212.972 175.901 213.056 176.34 213.224C176.778 213.392 177.156 213.639 177.474 213.966L176.914 214.82C176.624 214.521 176.307 214.302 175.962 214.162C175.616 214.012 175.229 213.938 174.8 213.938C174.548 213.938 174.3 213.97 174.058 214.036C173.815 214.092 173.614 214.199 173.456 214.358C173.297 214.507 173.218 214.722 173.218 215.002C173.218 215.235 173.278 215.422 173.4 215.562C173.53 215.692 173.717 215.804 173.96 215.898C174.212 215.991 174.515 216.094 174.87 216.206C175.42 216.364 175.896 216.523 176.298 216.682C176.708 216.84 177.026 217.046 177.25 217.298C177.474 217.55 177.586 217.9 177.586 218.348C177.586 219.038 177.324 219.58 176.802 219.972C176.279 220.354 175.588 220.546 174.73 220.546ZM179.06 220.406V213.098H180.292V220.406H179.06ZM179.06 211.726V210.186H180.292V211.726H179.06ZM186.066 220.042C185.963 220.088 185.823 220.149 185.646 220.224C185.469 220.298 185.263 220.364 185.03 220.42C184.797 220.476 184.549 220.504 184.288 220.504C183.989 220.504 183.714 220.452 183.462 220.35C183.21 220.238 183.009 220.07 182.86 219.846C182.711 219.612 182.636 219.323 182.636 218.978V214.064H181.642V213.098H182.636V210.662H183.868V213.098H185.506V214.064H183.868V218.6C183.887 218.861 183.975 219.057 184.134 219.188C184.293 219.309 184.479 219.37 184.694 219.37C184.937 219.37 185.161 219.328 185.366 219.244C185.571 219.16 185.707 219.099 185.772 219.062L186.066 220.042ZM190.175 218.292C190.175 217.825 190.306 217.424 190.567 217.088C190.838 216.742 191.206 216.476 191.673 216.29C192.14 216.103 192.681 216.01 193.297 216.01C193.624 216.01 193.969 216.038 194.333 216.094C194.697 216.14 195.019 216.215 195.299 216.318V215.786C195.299 215.226 195.131 214.787 194.795 214.47C194.459 214.143 193.983 213.98 193.367 213.98C192.966 213.98 192.578 214.054 192.205 214.204C191.841 214.344 191.454 214.549 191.043 214.82L190.595 213.952C191.071 213.625 191.547 213.382 192.023 213.224C192.499 213.056 192.994 212.972 193.507 212.972C194.44 212.972 195.178 213.233 195.719 213.756C196.26 214.269 196.531 214.988 196.531 215.912V219.006C196.531 219.155 196.559 219.267 196.615 219.342C196.68 219.407 196.783 219.444 196.923 219.454V220.406C196.802 220.424 196.694 220.438 196.601 220.448C196.517 220.457 196.447 220.462 196.391 220.462C196.102 220.462 195.882 220.382 195.733 220.224C195.593 220.065 195.514 219.897 195.495 219.72L195.467 219.258C195.15 219.668 194.734 219.986 194.221 220.21C193.708 220.434 193.199 220.546 192.695 220.546C192.21 220.546 191.776 220.448 191.393 220.252C191.01 220.046 190.712 219.776 190.497 219.44C190.282 219.094 190.175 218.712 190.175 218.292ZM194.935 218.81C195.047 218.679 195.136 218.548 195.201 218.418C195.266 218.278 195.299 218.161 195.299 218.068V217.158C195.01 217.046 194.706 216.962 194.389 216.906C194.072 216.84 193.759 216.808 193.451 216.808C192.826 216.808 192.317 216.934 191.925 217.186C191.542 217.428 191.351 217.764 191.351 218.194C191.351 218.427 191.412 218.656 191.533 218.88C191.664 219.094 191.85 219.272 192.093 219.412C192.345 219.552 192.653 219.622 193.017 219.622C193.4 219.622 193.764 219.547 194.109 219.398C194.454 219.239 194.73 219.043 194.935 218.81ZM209.519 220.406H208.287V216.318C208.287 215.552 208.161 214.988 207.909 214.624C207.666 214.26 207.302 214.078 206.817 214.078C206.322 214.078 205.874 214.26 205.473 214.624C205.072 214.978 204.787 215.44 204.619 216.01V220.406H203.387V216.318C203.387 215.543 203.266 214.978 203.023 214.624C202.78 214.26 202.416 214.078 201.931 214.078C201.446 214.078 200.998 214.255 200.587 214.61C200.186 214.955 199.901 215.417 199.733 215.996V220.406H198.501V213.098H199.621V214.666C199.92 214.124 200.307 213.709 200.783 213.42C201.259 213.121 201.796 212.972 202.393 212.972C203 212.972 203.485 213.14 203.849 213.476C204.213 213.802 204.437 214.227 204.521 214.75C204.848 214.171 205.244 213.732 205.711 213.434C206.178 213.126 206.71 212.972 207.307 212.972C207.727 212.972 208.077 213.051 208.357 213.21C208.646 213.359 208.875 213.574 209.043 213.854C209.211 214.124 209.332 214.446 209.407 214.82C209.482 215.193 209.519 215.599 209.519 216.038V220.406ZM214.669 220.546C214.118 220.546 213.614 220.448 213.157 220.252C212.709 220.046 212.317 219.771 211.981 219.426C211.654 219.071 211.397 218.665 211.211 218.208C211.033 217.75 210.945 217.265 210.945 216.752C210.945 216.061 211.103 215.431 211.421 214.862C211.738 214.292 212.177 213.835 212.737 213.49C213.306 213.144 213.955 212.972 214.683 212.972C215.42 212.972 216.059 213.149 216.601 213.504C217.151 213.849 217.576 214.306 217.875 214.876C218.183 215.436 218.337 216.042 218.337 216.696C218.337 216.789 218.332 216.882 218.323 216.976C218.323 217.06 218.318 217.125 218.309 217.172H212.247C212.284 217.648 212.415 218.072 212.639 218.446C212.872 218.81 213.171 219.099 213.535 219.314C213.899 219.519 214.291 219.622 214.711 219.622C215.159 219.622 215.579 219.51 215.971 219.286C216.372 219.062 216.647 218.768 216.797 218.404L217.861 218.698C217.702 219.052 217.464 219.37 217.147 219.65C216.839 219.93 216.47 220.149 216.041 220.308C215.621 220.466 215.163 220.546 214.669 220.546ZM212.205 216.318H217.189C217.151 215.842 217.016 215.422 216.783 215.058C216.549 214.694 216.251 214.409 215.887 214.204C215.523 213.998 215.121 213.896 214.683 213.896C214.253 213.896 213.857 213.998 213.493 214.204C213.129 214.409 212.83 214.694 212.597 215.058C212.373 215.422 212.242 215.842 212.205 216.318ZM223.418 220.042C223.315 220.088 223.175 220.149 222.998 220.224C222.82 220.298 222.615 220.364 222.382 220.42C222.148 220.476 221.901 220.504 221.64 220.504C221.341 220.504 221.066 220.452 220.814 220.35C220.562 220.238 220.361 220.07 220.212 219.846C220.062 219.612 219.988 219.323 219.988 218.978V214.064H218.994V213.098H219.988V210.662H221.22V213.098H222.858V214.064H221.22V218.6C221.238 218.861 221.327 219.057 221.486 219.188C221.644 219.309 221.831 219.37 222.046 219.37C222.288 219.37 222.512 219.328 222.718 219.244C222.923 219.16 223.058 219.099 223.124 219.062L223.418 220.042ZM224.602 221.54L224.882 220.294H224.462V218.838H225.624V220.294L225.204 221.54H224.602ZM47.817 241.546C47.2663 241.546 46.7623 241.448 46.305 241.252C45.857 241.046 45.465 240.766 45.129 240.412C44.8023 240.057 44.5457 239.651 44.359 239.194C44.1817 238.736 44.093 238.251 44.093 237.738C44.093 237.047 44.247 236.417 44.555 235.848C44.863 235.278 45.297 234.826 45.857 234.49C46.417 234.144 47.0657 233.972 47.803 233.972C48.5217 233.972 49.147 234.135 49.679 234.462C50.2203 234.779 50.6217 235.208 50.883 235.75L49.679 236.128C49.4923 235.782 49.231 235.516 48.895 235.33C48.559 235.134 48.1857 235.036 47.775 235.036C47.327 235.036 46.9163 235.152 46.543 235.386C46.179 235.619 45.8897 235.941 45.675 236.352C45.4603 236.753 45.353 237.215 45.353 237.738C45.353 238.251 45.4603 238.718 45.675 239.138C45.899 239.548 46.193 239.875 46.557 240.118C46.9303 240.36 47.341 240.482 47.789 240.482C48.0783 240.482 48.3537 240.43 48.615 240.328C48.8857 240.225 49.119 240.09 49.315 239.922C49.5203 239.744 49.6603 239.553 49.735 239.348L50.939 239.712C50.7897 240.066 50.561 240.384 50.253 240.664C49.9543 240.934 49.595 241.149 49.175 241.308C48.7643 241.466 48.3117 241.546 47.817 241.546ZM55.4586 241.546C54.9079 241.546 54.4086 241.448 53.9606 241.252C53.5126 241.046 53.1252 240.771 52.7986 240.426C52.4719 240.071 52.2199 239.665 52.0426 239.208C51.8652 238.75 51.7766 238.27 51.7766 237.766C51.7766 237.252 51.8652 236.767 52.0426 236.31C52.2199 235.852 52.4719 235.451 52.7986 235.106C53.1252 234.751 53.5126 234.476 53.9606 234.28C54.4179 234.074 54.9172 233.972 55.4586 233.972C56.0092 233.972 56.5086 234.074 56.9566 234.28C57.4046 234.476 57.7919 234.751 58.1186 235.106C58.4546 235.451 58.7113 235.852 58.8886 236.31C59.0659 236.767 59.1546 237.252 59.1546 237.766C59.1546 238.27 59.0659 238.75 58.8886 239.208C58.7113 239.665 58.4593 240.071 58.1326 240.426C57.8059 240.771 57.4139 241.046 56.9566 241.252C56.5086 241.448 56.0092 241.546 55.4586 241.546ZM53.0366 237.78C53.0366 238.284 53.1439 238.741 53.3586 239.152C53.5826 239.562 53.8766 239.889 54.2406 240.132C54.6046 240.365 55.0106 240.482 55.4586 240.482C55.9066 240.482 56.3126 240.36 56.6766 240.118C57.0499 239.875 57.3439 239.548 57.5586 239.138C57.7826 238.718 57.8946 238.256 57.8946 237.752C57.8946 237.248 57.7826 236.79 57.5586 236.38C57.3439 235.969 57.0499 235.642 56.6766 235.4C56.3126 235.157 55.9066 235.036 55.4586 235.036C55.0106 235.036 54.6046 235.162 54.2406 235.414C53.8766 235.656 53.5826 235.983 53.3586 236.394C53.1439 236.804 53.0366 237.266 53.0366 237.78ZM66.9894 241.406H65.7574V237.318C65.7574 236.543 65.6361 235.978 65.3934 235.624C65.1601 235.26 64.8008 235.078 64.3154 235.078C63.9794 235.078 63.6434 235.162 63.3074 235.33C62.9808 235.498 62.6868 235.726 62.4254 236.016C62.1734 236.296 61.9914 236.622 61.8794 236.996V241.406H60.6474V234.098H61.7674V235.666C61.9634 235.32 62.2154 235.022 62.5234 234.77C62.8314 234.518 63.1814 234.322 63.5734 234.182C63.9654 234.042 64.3761 233.972 64.8054 233.972C65.2254 233.972 65.5754 234.051 65.8554 234.21C66.1448 234.359 66.3688 234.574 66.5274 234.854C66.6954 235.124 66.8121 235.446 66.8774 235.82C66.9521 236.193 66.9894 236.599 66.9894 237.038V241.406ZM71.4113 241.546C70.8046 241.546 70.2353 241.448 69.7033 241.252C69.1713 241.046 68.7139 240.743 68.3313 240.342L68.8073 239.474C69.2273 239.866 69.6473 240.146 70.0673 240.314C70.4873 240.482 70.9166 240.566 71.3553 240.566C71.8593 240.566 72.2699 240.472 72.5873 240.286C72.9046 240.09 73.0633 239.805 73.0633 239.432C73.0633 239.161 72.9793 238.96 72.8113 238.83C72.6526 238.699 72.4239 238.592 72.1253 238.508C71.8266 238.414 71.4719 238.312 71.0613 238.2C70.5573 238.05 70.1326 237.892 69.7873 237.724C69.4419 237.556 69.1806 237.346 69.0033 237.094C68.8259 236.842 68.7373 236.524 68.7373 236.142C68.7373 235.675 68.8586 235.283 69.1013 234.966C69.3439 234.639 69.6753 234.392 70.0953 234.224C70.5246 234.056 71.0099 233.972 71.5513 233.972C72.0926 233.972 72.5826 234.056 73.0213 234.224C73.4599 234.392 73.8379 234.639 74.1553 234.966L73.5953 235.82C73.3059 235.521 72.9886 235.302 72.6433 235.162C72.2979 235.012 71.9106 234.938 71.4813 234.938C71.2293 234.938 70.9819 234.97 70.7393 235.036C70.4966 235.092 70.2959 235.199 70.1373 235.358C69.9786 235.507 69.8993 235.722 69.8993 236.002C69.8993 236.235 69.9599 236.422 70.0813 236.562C70.2119 236.692 70.3986 236.804 70.6413 236.898C70.8933 236.991 71.1966 237.094 71.5513 237.206C72.1019 237.364 72.5779 237.523 72.9793 237.682C73.3899 237.84 73.7073 238.046 73.9313 238.298C74.1553 238.55 74.2673 238.9 74.2673 239.348C74.2673 240.038 74.0059 240.58 73.4833 240.972C72.9606 241.354 72.2699 241.546 71.4113 241.546ZM78.9752 241.546C78.4245 241.546 77.9205 241.448 77.4632 241.252C77.0152 241.046 76.6232 240.771 76.2872 240.426C75.9605 240.071 75.7039 239.665 75.5172 239.208C75.3399 238.75 75.2512 238.265 75.2512 237.752C75.2512 237.061 75.4099 236.431 75.7272 235.862C76.0445 235.292 76.4832 234.835 77.0432 234.49C77.6125 234.144 78.2612 233.972 78.9892 233.972C79.7265 233.972 80.3659 234.149 80.9072 234.504C81.4579 234.849 81.8825 235.306 82.1812 235.876C82.4892 236.436 82.6432 237.042 82.6432 237.696C82.6432 237.789 82.6385 237.882 82.6292 237.976C82.6292 238.06 82.6245 238.125 82.6152 238.172H76.5532C76.5905 238.648 76.7212 239.072 76.9452 239.446C77.1785 239.81 77.4772 240.099 77.8412 240.314C78.2052 240.519 78.5972 240.622 79.0172 240.622C79.4652 240.622 79.8852 240.51 80.2772 240.286C80.6785 240.062 80.9539 239.768 81.1032 239.404L82.1672 239.698C82.0085 240.052 81.7705 240.37 81.4532 240.65C81.1452 240.93 80.7765 241.149 80.3472 241.308C79.9272 241.466 79.4699 241.546 78.9752 241.546ZM76.5112 237.318H81.4952C81.4579 236.842 81.3225 236.422 81.0892 236.058C80.8559 235.694 80.5572 235.409 80.1932 235.204C79.8292 234.998 79.4279 234.896 78.9892 234.896C78.5599 234.896 78.1632 234.998 77.7992 235.204C77.4352 235.409 77.1365 235.694 76.9032 236.058C76.6792 236.422 76.5485 236.842 76.5112 237.318ZM87.2467 241.546C86.696 241.546 86.192 241.448 85.7347 241.252C85.2867 241.046 84.8947 240.766 84.5587 240.412C84.232 240.057 83.9753 239.651 83.7887 239.194C83.6113 238.736 83.5227 238.251 83.5227 237.738C83.5227 237.047 83.6767 236.417 83.9847 235.848C84.2927 235.278 84.7267 234.826 85.2867 234.49C85.8467 234.144 86.4953 233.972 87.2327 233.972C87.9513 233.972 88.5767 234.135 89.1087 234.462C89.65 234.779 90.0513 235.208 90.3127 235.75L89.1087 236.128C88.922 235.782 88.6607 235.516 88.3247 235.33C87.9887 235.134 87.6153 235.036 87.2047 235.036C86.7567 235.036 86.346 235.152 85.9727 235.386C85.6087 235.619 85.3193 235.941 85.1047 236.352C84.89 236.753 84.7827 237.215 84.7827 237.738C84.7827 238.251 84.89 238.718 85.1047 239.138C85.3287 239.548 85.6227 239.875 85.9867 240.118C86.36 240.36 86.7707 240.482 87.2187 240.482C87.508 240.482 87.7833 240.43 88.0447 240.328C88.3153 240.225 88.5487 240.09 88.7447 239.922C88.95 239.744 89.09 239.553 89.1647 239.348L90.3687 239.712C90.2193 240.066 89.9907 240.384 89.6827 240.664C89.384 240.934 89.0247 241.149 88.6047 241.308C88.194 241.466 87.7413 241.546 87.2467 241.546ZM95.5446 241.042C95.442 241.088 95.302 241.149 95.1246 241.224C94.9473 241.298 94.742 241.364 94.5086 241.42C94.2753 241.476 94.028 241.504 93.7666 241.504C93.468 241.504 93.1926 241.452 92.9406 241.35C92.6886 241.238 92.488 241.07 92.3386 240.846C92.1893 240.612 92.1146 240.323 92.1146 239.978V235.064H91.1206V234.098H92.1146V231.662H93.3466V234.098H94.9846V235.064H93.3466V239.6C93.3653 239.861 93.454 240.057 93.6126 240.188C93.7713 240.309 93.958 240.37 94.1726 240.37C94.4153 240.37 94.6393 240.328 94.8446 240.244C95.05 240.16 95.1853 240.099 95.2506 240.062L95.5446 241.042ZM99.8248 241.546C99.2741 241.546 98.7701 241.448 98.3128 241.252C97.8648 241.046 97.4728 240.771 97.1368 240.426C96.8101 240.071 96.5535 239.665 96.3668 239.208C96.1895 238.75 96.1008 238.265 96.1008 237.752C96.1008 237.061 96.2595 236.431 96.5768 235.862C96.8941 235.292 97.3328 234.835 97.8928 234.49C98.4621 234.144 99.1108 233.972 99.8388 233.972C100.576 233.972 101.215 234.149 101.757 234.504C102.307 234.849 102.732 235.306 103.031 235.876C103.339 236.436 103.493 237.042 103.493 237.696C103.493 237.789 103.488 237.882 103.479 237.976C103.479 238.06 103.474 238.125 103.465 238.172H97.4028C97.4401 238.648 97.5708 239.072 97.7948 239.446C98.0281 239.81 98.3268 240.099 98.6908 240.314C99.0548 240.519 99.4468 240.622 99.8668 240.622C100.315 240.622 100.735 240.51 101.127 240.286C101.528 240.062 101.803 239.768 101.953 239.404L103.017 239.698C102.858 240.052 102.62 240.37 102.303 240.65C101.995 240.93 101.626 241.149 101.197 241.308C100.777 241.466 100.319 241.546 99.8248 241.546ZM97.3608 237.318H102.345C102.307 236.842 102.172 236.422 101.939 236.058C101.705 235.694 101.407 235.409 101.043 235.204C100.679 234.998 100.277 234.896 99.8388 234.896C99.4095 234.896 99.0128 234.998 98.6488 235.204C98.2848 235.409 97.9861 235.694 97.7528 236.058C97.5288 236.422 97.3981 236.842 97.3608 237.318ZM108.574 241.042C108.471 241.088 108.331 241.149 108.154 241.224C107.977 241.298 107.771 241.364 107.538 241.42C107.305 241.476 107.057 241.504 106.796 241.504C106.497 241.504 106.222 241.452 105.97 241.35C105.718 241.238 105.517 241.07 105.368 240.846C105.219 240.612 105.144 240.323 105.144 239.978V235.064H104.15V234.098H105.144V231.662H106.376V234.098H108.014V235.064H106.376V239.6C106.395 239.861 106.483 240.057 106.642 240.188C106.801 240.309 106.987 240.37 107.202 240.37C107.445 240.37 107.669 240.328 107.874 240.244C108.079 240.16 108.215 240.099 108.28 240.062L108.574 241.042ZM109.646 238.48V234.098H110.878V238.242C110.878 238.988 111.008 239.548 111.27 239.922C111.531 240.295 111.918 240.482 112.432 240.482C112.768 240.482 113.09 240.412 113.398 240.272C113.715 240.122 114 239.912 114.252 239.642C114.504 239.371 114.7 239.049 114.84 238.676V234.098H116.072V240.006C116.072 240.155 116.1 240.267 116.156 240.342C116.221 240.407 116.324 240.444 116.464 240.454V241.406C116.324 241.424 116.212 241.434 116.128 241.434C116.053 241.443 115.978 241.448 115.904 241.448C115.67 241.448 115.47 241.378 115.302 241.238C115.134 241.088 115.045 240.906 115.036 240.692L115.008 239.838C114.69 240.379 114.261 240.799 113.72 241.098C113.188 241.396 112.604 241.546 111.97 241.546C111.204 241.546 110.626 241.289 110.234 240.776C109.842 240.253 109.646 239.488 109.646 238.48ZM121.988 235.176C121.372 235.185 120.826 235.344 120.35 235.652C119.883 235.95 119.552 236.366 119.356 236.898V241.406H118.124V234.098H119.272V235.792C119.524 235.288 119.855 234.882 120.266 234.574C120.686 234.256 121.125 234.079 121.582 234.042C121.675 234.042 121.755 234.042 121.82 234.042C121.885 234.042 121.941 234.046 121.988 234.056V235.176ZM125.849 239.292C125.849 238.825 125.979 238.424 126.241 238.088C126.511 237.742 126.88 237.476 127.347 237.29C127.813 237.103 128.355 237.01 128.971 237.01C129.297 237.01 129.643 237.038 130.007 237.094C130.371 237.14 130.693 237.215 130.973 237.318V236.786C130.973 236.226 130.805 235.787 130.469 235.47C130.133 235.143 129.657 234.98 129.041 234.98C128.639 234.98 128.252 235.054 127.879 235.204C127.515 235.344 127.127 235.549 126.717 235.82L126.269 234.952C126.745 234.625 127.221 234.382 127.697 234.224C128.173 234.056 128.667 233.972 129.181 233.972C130.114 233.972 130.852 234.233 131.393 234.756C131.934 235.269 132.205 235.988 132.205 236.912V240.006C132.205 240.155 132.233 240.267 132.289 240.342C132.354 240.407 132.457 240.444 132.597 240.454V241.406C132.475 241.424 132.368 241.438 132.275 241.448C132.191 241.457 132.121 241.462 132.065 241.462C131.776 241.462 131.556 241.382 131.407 241.224C131.267 241.065 131.188 240.897 131.169 240.72L131.141 240.258C130.823 240.668 130.408 240.986 129.895 241.21C129.381 241.434 128.873 241.546 128.369 241.546C127.883 241.546 127.449 241.448 127.067 241.252C126.684 241.046 126.385 240.776 126.171 240.44C125.956 240.094 125.849 239.712 125.849 239.292ZM130.609 239.81C130.721 239.679 130.81 239.548 130.875 239.418C130.94 239.278 130.973 239.161 130.973 239.068V238.158C130.683 238.046 130.38 237.962 130.063 237.906C129.746 237.84 129.433 237.808 129.125 237.808C128.499 237.808 127.991 237.934 127.599 238.186C127.216 238.428 127.025 238.764 127.025 239.194C127.025 239.427 127.085 239.656 127.207 239.88C127.337 240.094 127.524 240.272 127.767 240.412C128.019 240.552 128.327 240.622 128.691 240.622C129.073 240.622 129.437 240.547 129.783 240.398C130.128 240.239 130.403 240.043 130.609 239.81ZM133.699 237.766C133.699 237.075 133.839 236.445 134.119 235.876C134.408 235.297 134.8 234.835 135.295 234.49C135.799 234.144 136.373 233.972 137.017 233.972C137.605 233.972 138.132 234.126 138.599 234.434C139.065 234.742 139.429 235.115 139.691 235.554V231.186H140.923V240.006C140.923 240.155 140.951 240.267 141.007 240.342C141.072 240.407 141.175 240.444 141.315 240.454V241.406C141.081 241.443 140.899 241.462 140.769 241.462C140.526 241.462 140.311 241.378 140.125 241.21C139.947 241.042 139.859 240.855 139.859 240.65V240.034C139.569 240.5 139.182 240.869 138.697 241.14C138.211 241.41 137.707 241.546 137.185 241.546C136.681 241.546 136.214 241.448 135.785 241.252C135.365 241.046 134.996 240.766 134.679 240.412C134.371 240.057 134.128 239.656 133.951 239.208C133.783 238.75 133.699 238.27 133.699 237.766ZM139.691 238.844V236.744C139.579 236.426 139.397 236.142 139.145 235.89C138.893 235.628 138.608 235.423 138.291 235.274C137.983 235.115 137.675 235.036 137.367 235.036C137.003 235.036 136.671 235.115 136.373 235.274C136.083 235.423 135.831 235.628 135.617 235.89C135.411 236.142 135.253 236.431 135.141 236.758C135.029 237.084 134.973 237.425 134.973 237.78C134.973 238.144 135.033 238.489 135.155 238.816C135.285 239.142 135.463 239.432 135.687 239.684C135.92 239.936 136.186 240.132 136.485 240.272C136.793 240.412 137.124 240.482 137.479 240.482C137.703 240.482 137.931 240.44 138.165 240.356C138.407 240.272 138.636 240.155 138.851 240.006C139.065 239.856 139.247 239.684 139.397 239.488C139.546 239.282 139.644 239.068 139.691 238.844ZM142.979 241.406V234.098H144.211V241.406H142.979ZM142.979 232.726V231.186H144.211V232.726H142.979ZM150.14 241.546C149.543 241.546 149.011 241.396 148.544 241.098C148.077 240.799 147.709 240.421 147.438 239.964V244.388H146.206V234.098H147.298V235.47C147.587 235.022 147.965 234.662 148.432 234.392C148.899 234.112 149.407 233.972 149.958 233.972C150.462 233.972 150.924 234.074 151.344 234.28C151.764 234.485 152.128 234.765 152.436 235.12C152.744 235.474 152.982 235.88 153.15 236.338C153.327 236.786 153.416 237.257 153.416 237.752C153.416 238.442 153.276 239.077 152.996 239.656C152.725 240.234 152.343 240.696 151.848 241.042C151.353 241.378 150.784 241.546 150.14 241.546ZM149.762 240.482C150.126 240.482 150.453 240.407 150.742 240.258C151.041 240.099 151.293 239.894 151.498 239.642C151.713 239.38 151.876 239.086 151.988 238.76C152.1 238.433 152.156 238.097 152.156 237.752C152.156 237.388 152.091 237.042 151.96 236.716C151.839 236.389 151.661 236.1 151.428 235.848C151.204 235.596 150.938 235.4 150.63 235.26C150.331 235.11 150.005 235.036 149.65 235.036C149.426 235.036 149.193 235.078 148.95 235.162C148.717 235.246 148.493 235.367 148.278 235.526C148.063 235.675 147.881 235.848 147.732 236.044C147.583 236.24 147.485 236.45 147.438 236.674V238.76C147.578 239.077 147.765 239.366 147.998 239.628C148.231 239.889 148.502 240.099 148.81 240.258C149.118 240.407 149.435 240.482 149.762 240.482ZM154.929 241.406V234.098H156.161V241.406H154.929ZM154.929 232.726V231.186H156.161V232.726H154.929ZM160.661 241.546C160.055 241.546 159.485 241.448 158.953 241.252C158.421 241.046 157.964 240.743 157.581 240.342L158.057 239.474C158.477 239.866 158.897 240.146 159.317 240.314C159.737 240.482 160.167 240.566 160.605 240.566C161.109 240.566 161.52 240.472 161.837 240.286C162.155 240.09 162.313 239.805 162.313 239.432C162.313 239.161 162.229 238.96 162.061 238.83C161.903 238.699 161.674 238.592 161.375 238.508C161.077 238.414 160.722 238.312 160.311 238.2C159.807 238.05 159.383 237.892 159.037 237.724C158.692 237.556 158.431 237.346 158.253 237.094C158.076 236.842 157.987 236.524 157.987 236.142C157.987 235.675 158.109 235.283 158.351 234.966C158.594 234.639 158.925 234.392 159.345 234.224C159.775 234.056 160.26 233.972 160.801 233.972C161.343 233.972 161.833 234.056 162.271 234.224C162.71 234.392 163.088 234.639 163.405 234.966L162.845 235.82C162.556 235.521 162.239 235.302 161.893 235.162C161.548 235.012 161.161 234.938 160.731 234.938C160.479 234.938 160.232 234.97 159.989 235.036C159.747 235.092 159.546 235.199 159.387 235.358C159.229 235.507 159.149 235.722 159.149 236.002C159.149 236.235 159.21 236.422 159.331 236.562C159.462 236.692 159.649 236.804 159.891 236.898C160.143 236.991 160.447 237.094 160.801 237.206C161.352 237.364 161.828 237.523 162.229 237.682C162.64 237.84 162.957 238.046 163.181 238.298C163.405 238.55 163.517 238.9 163.517 239.348C163.517 240.038 163.256 240.58 162.733 240.972C162.211 241.354 161.52 241.546 160.661 241.546ZM168.225 241.546C167.675 241.546 167.171 241.448 166.713 241.252C166.265 241.046 165.873 240.766 165.537 240.412C165.211 240.057 164.954 239.651 164.767 239.194C164.59 238.736 164.501 238.251 164.501 237.738C164.501 237.047 164.655 236.417 164.963 235.848C165.271 235.278 165.705 234.826 166.265 234.49C166.825 234.144 167.474 233.972 168.211 233.972C168.93 233.972 169.555 234.135 170.087 234.462C170.629 234.779 171.03 235.208 171.291 235.75L170.087 236.128C169.901 235.782 169.639 235.516 169.303 235.33C168.967 235.134 168.594 235.036 168.183 235.036C167.735 235.036 167.325 235.152 166.951 235.386C166.587 235.619 166.298 235.941 166.083 236.352C165.869 236.753 165.761 237.215 165.761 237.738C165.761 238.251 165.869 238.718 166.083 239.138C166.307 239.548 166.601 239.875 166.965 240.118C167.339 240.36 167.749 240.482 168.197 240.482C168.487 240.482 168.762 240.43 169.023 240.328C169.294 240.225 169.527 240.09 169.723 239.922C169.929 239.744 170.069 239.553 170.143 239.348L171.347 239.712C171.198 240.066 170.969 240.384 170.661 240.664C170.363 240.934 170.003 241.149 169.583 241.308C169.173 241.466 168.72 241.546 168.225 241.546ZM172.743 241.406V234.098H173.975V241.406H172.743ZM172.743 232.726V231.186H173.975V232.726H172.743ZM182.312 241.406H181.08V237.318C181.08 236.543 180.958 235.978 180.716 235.624C180.482 235.26 180.123 235.078 179.638 235.078C179.302 235.078 178.966 235.162 178.63 235.33C178.303 235.498 178.009 235.726 177.748 236.016C177.496 236.296 177.314 236.622 177.202 236.996V241.406H175.97V234.098H177.09V235.666C177.286 235.32 177.538 235.022 177.846 234.77C178.154 234.518 178.504 234.322 178.896 234.182C179.288 234.042 179.698 233.972 180.128 233.972C180.548 233.972 180.898 234.051 181.178 234.21C181.467 234.359 181.691 234.574 181.85 234.854C182.018 235.124 182.134 235.446 182.2 235.82C182.274 236.193 182.312 236.599 182.312 237.038V241.406ZM187.14 241.49C186.645 241.49 186.188 241.392 185.768 241.196C185.357 240.99 185.002 240.715 184.704 240.37C184.405 240.015 184.172 239.614 184.004 239.166C183.845 238.718 183.766 238.251 183.766 237.766C183.766 237.252 183.845 236.767 184.004 236.31C184.172 235.852 184.405 235.451 184.704 235.106C185.012 234.751 185.371 234.476 185.782 234.28C186.192 234.074 186.65 233.972 187.154 233.972C187.76 233.972 188.288 234.121 188.736 234.42C189.193 234.718 189.576 235.096 189.884 235.554V234.098H190.976V241.322C190.976 242.012 190.808 242.596 190.472 243.072C190.145 243.548 189.697 243.907 189.128 244.15C188.568 244.402 187.942 244.528 187.252 244.528C186.43 244.528 185.758 244.383 185.236 244.094C184.713 243.804 184.279 243.412 183.934 242.918L184.648 242.288C184.937 242.717 185.31 243.039 185.768 243.254C186.234 243.468 186.729 243.576 187.252 243.576C187.7 243.576 188.11 243.492 188.484 243.324C188.866 243.165 189.17 242.918 189.394 242.582C189.627 242.246 189.744 241.826 189.744 241.322V240.034C189.473 240.482 189.1 240.836 188.624 241.098C188.157 241.359 187.662 241.49 187.14 241.49ZM187.518 240.482C187.779 240.482 188.031 240.435 188.274 240.342C188.516 240.248 188.74 240.127 188.946 239.978C189.151 239.819 189.324 239.642 189.464 239.446C189.604 239.25 189.697 239.049 189.744 238.844V236.744C189.613 236.408 189.426 236.114 189.184 235.862C188.941 235.6 188.666 235.4 188.358 235.26C188.05 235.11 187.732 235.036 187.406 235.036C187.032 235.036 186.696 235.115 186.398 235.274C186.108 235.432 185.861 235.647 185.656 235.918C185.45 236.179 185.292 236.473 185.18 236.8C185.068 237.126 185.012 237.458 185.012 237.794C185.012 238.158 185.077 238.503 185.208 238.83C185.338 239.147 185.516 239.432 185.74 239.684C185.964 239.936 186.23 240.132 186.538 240.272C186.846 240.412 187.172 240.482 187.518 240.482ZM199.739 241.546C199.188 241.546 198.684 241.448 198.227 241.252C197.779 241.046 197.387 240.771 197.051 240.426C196.724 240.071 196.468 239.665 196.281 239.208C196.104 238.75 196.015 238.265 196.015 237.752C196.015 237.061 196.174 236.431 196.491 235.862C196.808 235.292 197.247 234.835 197.807 234.49C198.376 234.144 199.025 233.972 199.753 233.972C200.49 233.972 201.13 234.149 201.671 234.504C202.222 234.849 202.646 235.306 202.945 235.876C203.253 236.436 203.407 237.042 203.407 237.696C203.407 237.789 203.402 237.882 203.393 237.976C203.393 238.06 203.388 238.125 203.379 238.172H197.317C197.354 238.648 197.485 239.072 197.709 239.446C197.942 239.81 198.241 240.099 198.605 240.314C198.969 240.519 199.361 240.622 199.781 240.622C200.229 240.622 200.649 240.51 201.041 240.286C201.442 240.062 201.718 239.768 201.867 239.404L202.931 239.698C202.772 240.052 202.534 240.37 202.217 240.65C201.909 240.93 201.54 241.149 201.111 241.308C200.691 241.466 200.234 241.546 199.739 241.546ZM197.275 237.318H202.259C202.222 236.842 202.086 236.422 201.853 236.058C201.62 235.694 201.321 235.409 200.957 235.204C200.593 234.998 200.192 234.896 199.753 234.896C199.324 234.896 198.927 234.998 198.563 235.204C198.199 235.409 197.9 235.694 197.667 236.058C197.443 236.422 197.312 236.842 197.275 237.318ZM204.804 231.186H206.036V239.516C206.036 239.917 206.092 240.164 206.204 240.258C206.316 240.351 206.452 240.398 206.61 240.398C206.806 240.398 206.993 240.379 207.17 240.342C207.348 240.295 207.497 240.248 207.618 240.202L207.814 241.21C207.609 241.294 207.366 241.364 207.086 241.42C206.806 241.476 206.559 241.504 206.344 241.504C205.868 241.504 205.49 241.368 205.21 241.098C204.94 240.827 204.804 240.449 204.804 239.964V231.186ZM208.782 241.406V234.098H210.014V241.406H208.782ZM208.782 232.726V231.186H210.014V232.726H208.782ZM215.789 241.042C215.686 241.088 215.546 241.149 215.369 241.224C215.191 241.298 214.986 241.364 214.753 241.42C214.519 241.476 214.272 241.504 214.011 241.504C213.712 241.504 213.437 241.452 213.185 241.35C212.933 241.238 212.732 241.07 212.583 240.846C212.433 240.612 212.359 240.323 212.359 239.978V235.064H211.365V234.098H212.359V231.662H213.591V234.098H215.229V235.064H213.591V239.6C213.609 239.861 213.698 240.057 213.857 240.188C214.015 240.309 214.202 240.37 214.417 240.37C214.659 240.37 214.883 240.328 215.089 240.244C215.294 240.16 215.429 240.099 215.495 240.062L215.789 241.042ZM216.973 242.54L217.253 241.294H216.833V239.838H217.995V241.294L217.575 242.54H216.973ZM225.931 241.546C225.324 241.546 224.755 241.448 224.223 241.252C223.691 241.046 223.233 240.743 222.851 240.342L223.327 239.474C223.747 239.866 224.167 240.146 224.587 240.314C225.007 240.482 225.436 240.566 225.875 240.566C226.379 240.566 226.789 240.472 227.107 240.286C227.424 240.09 227.583 239.805 227.583 239.432C227.583 239.161 227.499 238.96 227.331 238.83C227.172 238.699 226.943 238.592 226.645 238.508C226.346 238.414 225.991 238.312 225.581 238.2C225.077 238.05 224.652 237.892 224.307 237.724C223.961 237.556 223.7 237.346 223.523 237.094C223.345 236.842 223.257 236.524 223.257 236.142C223.257 235.675 223.378 235.283 223.621 234.966C223.863 234.639 224.195 234.392 224.615 234.224C225.044 234.056 225.529 233.972 226.071 233.972C226.612 233.972 227.102 234.056 227.541 234.224C227.979 234.392 228.357 234.639 228.675 234.966L228.115 235.82C227.825 235.521 227.508 235.302 227.163 235.162C226.817 235.012 226.43 234.938 226.001 234.938C225.749 234.938 225.501 234.97 225.259 235.036C225.016 235.092 224.815 235.199 224.657 235.358C224.498 235.507 224.419 235.722 224.419 236.002C224.419 236.235 224.479 236.422 224.601 236.562C224.731 236.692 224.918 236.804 225.161 236.898C225.413 236.991 225.716 237.094 226.071 237.206C226.621 237.364 227.097 237.523 227.499 237.682C227.909 237.84 228.227 238.046 228.451 238.298C228.675 238.55 228.787 238.9 228.787 239.348C228.787 240.038 228.525 240.58 228.003 240.972C227.48 241.354 226.789 241.546 225.931 241.546ZM233.495 241.546C232.944 241.546 232.44 241.448 231.983 241.252C231.535 241.046 231.143 240.771 230.807 240.426C230.48 240.071 230.223 239.665 230.037 239.208C229.859 238.75 229.771 238.265 229.771 237.752C229.771 237.061 229.929 236.431 230.247 235.862C230.564 235.292 231.003 234.835 231.563 234.49C232.132 234.144 232.781 233.972 233.509 233.972C234.246 233.972 234.885 234.149 235.427 234.504C235.977 234.849 236.402 235.306 236.701 235.876C237.009 236.436 237.163 237.042 237.163 237.696C237.163 237.789 237.158 237.882 237.149 237.976C237.149 238.06 237.144 238.125 237.135 238.172H231.073C231.11 238.648 231.241 239.072 231.465 239.446C231.698 239.81 231.997 240.099 232.361 240.314C232.725 240.519 233.117 240.622 233.537 240.622C233.985 240.622 234.405 240.51 234.797 240.286C235.198 240.062 235.473 239.768 235.623 239.404L236.687 239.698C236.528 240.052 236.29 240.37 235.973 240.65C235.665 240.93 235.296 241.149 234.867 241.308C234.447 241.466 233.989 241.546 233.495 241.546ZM231.031 237.318H236.015C235.977 236.842 235.842 236.422 235.609 236.058C235.375 235.694 235.077 235.409 234.713 235.204C234.349 234.998 233.947 234.896 233.509 234.896C233.079 234.896 232.683 234.998 232.319 235.204C231.955 235.409 231.656 235.694 231.423 236.058C231.199 236.422 231.068 236.842 231.031 237.318ZM238.056 237.766C238.056 237.075 238.196 236.445 238.476 235.876C238.766 235.297 239.158 234.835 239.652 234.49C240.156 234.144 240.73 233.972 241.374 233.972C241.962 233.972 242.49 234.126 242.956 234.434C243.423 234.742 243.787 235.115 244.048 235.554V231.186H245.28V240.006C245.28 240.155 245.308 240.267 245.364 240.342C245.43 240.407 245.532 240.444 245.672 240.454V241.406C245.439 241.443 245.257 241.462 245.126 241.462C244.884 241.462 244.669 241.378 244.482 241.21C244.305 241.042 244.216 240.855 244.216 240.65V240.034C243.927 240.5 243.54 240.869 243.054 241.14C242.569 241.41 242.065 241.546 241.542 241.546C241.038 241.546 240.572 241.448 240.142 241.252C239.722 241.046 239.354 240.766 239.036 240.412C238.728 240.057 238.486 239.656 238.308 239.208C238.14 238.75 238.056 238.27 238.056 237.766ZM244.048 238.844V236.744C243.936 236.426 243.754 236.142 243.502 235.89C243.25 235.628 242.966 235.423 242.648 235.274C242.34 235.115 242.032 235.036 241.724 235.036C241.36 235.036 241.029 235.115 240.73 235.274C240.441 235.423 240.189 235.628 239.974 235.89C239.769 236.142 239.61 236.431 239.498 236.758C239.386 237.084 239.33 237.425 239.33 237.78C239.33 238.144 239.391 238.489 239.512 238.816C239.643 239.142 239.82 239.432 240.044 239.684C240.278 239.936 240.544 240.132 240.842 240.272C241.15 240.412 241.482 240.482 241.836 240.482C242.06 240.482 242.289 240.44 242.522 240.356C242.765 240.272 242.994 240.155 243.208 240.006C243.423 239.856 243.605 239.684 243.754 239.488C243.904 239.282 244.002 239.068 244.048 238.844ZM44.107 258.766C44.107 258.075 44.247 257.445 44.527 256.876C44.8163 256.297 45.2083 255.835 45.703 255.49C46.207 255.144 46.781 254.972 47.425 254.972C48.013 254.972 48.5403 255.126 49.007 255.434C49.4737 255.742 49.8377 256.115 50.099 256.554V252.186H51.331V261.006C51.331 261.155 51.359 261.267 51.415 261.342C51.4803 261.407 51.583 261.444 51.723 261.454V262.406C51.4897 262.443 51.3077 262.462 51.177 262.462C50.9343 262.462 50.7197 262.378 50.533 262.21C50.3557 262.042 50.267 261.855 50.267 261.65V261.034C49.9777 261.5 49.5903 261.869 49.105 262.14C48.6197 262.41 48.1157 262.546 47.593 262.546C47.089 262.546 46.6223 262.448 46.193 262.252C45.773 262.046 45.4043 261.766 45.087 261.412C44.779 261.057 44.5363 260.656 44.359 260.208C44.191 259.75 44.107 259.27 44.107 258.766ZM50.099 259.844V257.744C49.987 257.426 49.805 257.142 49.553 256.89C49.301 256.628 49.0163 256.423 48.699 256.274C48.391 256.115 48.083 256.036 47.775 256.036C47.411 256.036 47.0797 256.115 46.781 256.274C46.4917 256.423 46.2397 256.628 46.025 256.89C45.8197 257.142 45.661 257.431 45.549 257.758C45.437 258.084 45.381 258.425 45.381 258.78C45.381 259.144 45.4417 259.489 45.563 259.816C45.6937 260.142 45.871 260.432 46.095 260.684C46.3283 260.936 46.5943 261.132 46.893 261.272C47.201 261.412 47.5323 261.482 47.887 261.482C48.111 261.482 48.3397 261.44 48.573 261.356C48.8157 261.272 49.0443 261.155 49.259 261.006C49.4737 260.856 49.6557 260.684 49.805 260.488C49.9543 260.282 50.0523 260.068 50.099 259.844ZM56.5797 262.546C56.029 262.546 55.5297 262.448 55.0817 262.252C54.6337 262.046 54.2463 261.771 53.9197 261.426C53.593 261.071 53.341 260.665 53.1637 260.208C52.9863 259.75 52.8977 259.27 52.8977 258.766C52.8977 258.252 52.9863 257.767 53.1637 257.31C53.341 256.852 53.593 256.451 53.9197 256.106C54.2463 255.751 54.6337 255.476 55.0817 255.28C55.539 255.074 56.0383 254.972 56.5797 254.972C57.1303 254.972 57.6297 255.074 58.0777 255.28C58.5257 255.476 58.913 255.751 59.2397 256.106C59.5757 256.451 59.8323 256.852 60.0097 257.31C60.187 257.767 60.2757 258.252 60.2757 258.766C60.2757 259.27 60.187 259.75 60.0097 260.208C59.8323 260.665 59.5803 261.071 59.2537 261.426C58.927 261.771 58.535 262.046 58.0777 262.252C57.6297 262.448 57.1303 262.546 56.5797 262.546ZM54.1577 258.78C54.1577 259.284 54.265 259.741 54.4797 260.152C54.7037 260.562 54.9977 260.889 55.3617 261.132C55.7257 261.365 56.1317 261.482 56.5797 261.482C57.0277 261.482 57.4337 261.36 57.7977 261.118C58.171 260.875 58.465 260.548 58.6797 260.138C58.9037 259.718 59.0157 259.256 59.0157 258.752C59.0157 258.248 58.9037 257.79 58.6797 257.38C58.465 256.969 58.171 256.642 57.7977 256.4C57.4337 256.157 57.0277 256.036 56.5797 256.036C56.1317 256.036 55.7257 256.162 55.3617 256.414C54.9977 256.656 54.7037 256.983 54.4797 257.394C54.265 257.804 54.1577 258.266 54.1577 258.78ZM68.5436 262.546C67.9929 262.546 67.4889 262.448 67.0316 262.252C66.5836 262.046 66.1916 261.771 65.8556 261.426C65.5289 261.071 65.2722 260.665 65.0856 260.208C64.9082 259.75 64.8196 259.265 64.8196 258.752C64.8196 258.061 64.9782 257.431 65.2956 256.862C65.6129 256.292 66.0516 255.835 66.6116 255.49C67.1809 255.144 67.8296 254.972 68.5576 254.972C69.2949 254.972 69.9342 255.149 70.4756 255.504C71.0262 255.849 71.4509 256.306 71.7496 256.876C72.0576 257.436 72.2116 258.042 72.2116 258.696C72.2116 258.789 72.2069 258.882 72.1976 258.976C72.1976 259.06 72.1929 259.125 72.1836 259.172H66.1216C66.1589 259.648 66.2896 260.072 66.5136 260.446C66.7469 260.81 67.0456 261.099 67.4096 261.314C67.7736 261.519 68.1656 261.622 68.5856 261.622C69.0336 261.622 69.4536 261.51 69.8456 261.286C70.2469 261.062 70.5222 260.768 70.6716 260.404L71.7356 260.698C71.5769 261.052 71.3389 261.37 71.0216 261.65C70.7136 261.93 70.3449 262.149 69.9156 262.308C69.4956 262.466 69.0382 262.546 68.5436 262.546ZM66.0796 258.318H71.0636C71.0262 257.842 70.8909 257.422 70.6576 257.058C70.4242 256.694 70.1256 256.409 69.7616 256.204C69.3976 255.998 68.9962 255.896 68.5576 255.896C68.1282 255.896 67.7316 255.998 67.3676 256.204C67.0036 256.409 66.7049 256.694 66.4716 257.058C66.2476 257.422 66.1169 257.842 66.0796 258.318ZM73.581 262.406V255.098H74.813V262.406H73.581ZM73.581 253.726V252.186H74.813V253.726H73.581ZM76.7376 259.48V255.098H77.9696V259.242C77.9696 259.988 78.1003 260.548 78.3616 260.922C78.6229 261.295 79.0103 261.482 79.5236 261.482C79.8596 261.482 80.1816 261.412 80.4896 261.272C80.8069 261.122 81.0916 260.912 81.3436 260.642C81.5956 260.371 81.7916 260.049 81.9316 259.676V255.098H83.1636V261.006C83.1636 261.155 83.1916 261.267 83.2476 261.342C83.3129 261.407 83.4156 261.444 83.5556 261.454V262.406C83.4156 262.424 83.3036 262.434 83.2196 262.434C83.1449 262.443 83.0703 262.448 82.9956 262.448C82.7623 262.448 82.5616 262.378 82.3936 262.238C82.2256 262.088 82.1369 261.906 82.1276 261.692L82.0996 260.838C81.7823 261.379 81.3529 261.799 80.8116 262.098C80.2796 262.396 79.6963 262.546 79.0616 262.546C78.2963 262.546 77.7176 262.289 77.3256 261.776C76.9336 261.253 76.7376 260.488 76.7376 259.48ZM87.7218 262.546C87.1151 262.546 86.5458 262.448 86.0138 262.252C85.4818 262.046 85.0245 261.743 84.6418 261.342L85.1178 260.474C85.5378 260.866 85.9578 261.146 86.3778 261.314C86.7978 261.482 87.2271 261.566 87.6658 261.566C88.1698 261.566 88.5805 261.472 88.8978 261.286C89.2151 261.09 89.3738 260.805 89.3738 260.432C89.3738 260.161 89.2898 259.96 89.1218 259.83C88.9631 259.699 88.7345 259.592 88.4358 259.508C88.1371 259.414 87.7825 259.312 87.3718 259.2C86.8678 259.05 86.4431 258.892 86.0978 258.724C85.7525 258.556 85.4911 258.346 85.3138 258.094C85.1365 257.842 85.0478 257.524 85.0478 257.142C85.0478 256.675 85.1691 256.283 85.4118 255.966C85.6545 255.639 85.9858 255.392 86.4058 255.224C86.8351 255.056 87.3205 254.972 87.8618 254.972C88.4031 254.972 88.8931 255.056 89.3318 255.224C89.7705 255.392 90.1485 255.639 90.4658 255.966L89.9058 256.82C89.6165 256.521 89.2991 256.302 88.9538 256.162C88.6085 256.012 88.2211 255.938 87.7918 255.938C87.5398 255.938 87.2925 255.97 87.0498 256.036C86.8071 256.092 86.6065 256.199 86.4478 256.358C86.2891 256.507 86.2098 256.722 86.2098 257.002C86.2098 257.235 86.2705 257.422 86.3918 257.562C86.5225 257.692 86.7091 257.804 86.9518 257.898C87.2038 257.991 87.5071 258.094 87.8618 258.206C88.4125 258.364 88.8885 258.523 89.2898 258.682C89.7005 258.84 90.0178 259.046 90.2418 259.298C90.4658 259.55 90.5778 259.9 90.5778 260.348C90.5778 261.038 90.3165 261.58 89.7938 261.972C89.2711 262.354 88.5805 262.546 87.7218 262.546ZM103.07 262.406H101.838V258.318C101.838 257.552 101.712 256.988 101.46 256.624C101.217 256.26 100.853 256.078 100.368 256.078C99.8731 256.078 99.4251 256.26 99.0237 256.624C98.6224 256.978 98.3377 257.44 98.1697 258.01V262.406H96.9377V258.318C96.9377 257.543 96.8164 256.978 96.5737 256.624C96.3311 256.26 95.9671 256.078 95.4817 256.078C94.9964 256.078 94.5484 256.255 94.1377 256.61C93.7364 256.955 93.4517 257.417 93.2837 257.996V262.406H92.0517V255.098H93.1717V256.666C93.4704 256.124 93.8577 255.709 94.3337 255.42C94.8097 255.121 95.3464 254.972 95.9437 254.972C96.5504 254.972 97.0357 255.14 97.3997 255.476C97.7637 255.802 97.9877 256.227 98.0717 256.75C98.3984 256.171 98.7951 255.732 99.2617 255.434C99.7284 255.126 100.26 254.972 100.858 254.972C101.278 254.972 101.628 255.051 101.908 255.21C102.197 255.359 102.426 255.574 102.594 255.854C102.762 256.124 102.883 256.446 102.958 256.82C103.032 257.193 103.07 257.599 103.07 258.038V262.406ZM108.177 262.546C107.627 262.546 107.127 262.448 106.679 262.252C106.231 262.046 105.844 261.771 105.517 261.426C105.191 261.071 104.939 260.665 104.761 260.208C104.584 259.75 104.495 259.27 104.495 258.766C104.495 258.252 104.584 257.767 104.761 257.31C104.939 256.852 105.191 256.451 105.517 256.106C105.844 255.751 106.231 255.476 106.679 255.28C107.137 255.074 107.636 254.972 108.177 254.972C108.728 254.972 109.227 255.074 109.675 255.28C110.123 255.476 110.511 255.751 110.837 256.106C111.173 256.451 111.43 256.852 111.607 257.31C111.785 257.767 111.873 258.252 111.873 258.766C111.873 259.27 111.785 259.75 111.607 260.208C111.43 260.665 111.178 261.071 110.851 261.426C110.525 261.771 110.133 262.046 109.675 262.252C109.227 262.448 108.728 262.546 108.177 262.546ZM105.755 258.78C105.755 259.284 105.863 259.741 106.077 260.152C106.301 260.562 106.595 260.889 106.959 261.132C107.323 261.365 107.729 261.482 108.177 261.482C108.625 261.482 109.031 261.36 109.395 261.118C109.769 260.875 110.063 260.548 110.277 260.138C110.501 259.718 110.613 259.256 110.613 258.752C110.613 258.248 110.501 257.79 110.277 257.38C110.063 256.969 109.769 256.642 109.395 256.4C109.031 256.157 108.625 256.036 108.177 256.036C107.729 256.036 107.323 256.162 106.959 256.414C106.595 256.656 106.301 256.983 106.077 257.394C105.863 257.804 105.755 258.266 105.755 258.78ZM112.89 258.766C112.89 258.075 113.03 257.445 113.31 256.876C113.6 256.297 113.992 255.835 114.486 255.49C114.99 255.144 115.564 254.972 116.208 254.972C116.796 254.972 117.324 255.126 117.79 255.434C118.257 255.742 118.621 256.115 118.882 256.554V252.186H120.114V261.006C120.114 261.155 120.142 261.267 120.198 261.342C120.264 261.407 120.366 261.444 120.506 261.454V262.406C120.273 262.443 120.091 262.462 119.96 262.462C119.718 262.462 119.503 262.378 119.316 262.21C119.139 262.042 119.05 261.855 119.05 261.65V261.034C118.761 261.5 118.374 261.869 117.888 262.14C117.403 262.41 116.899 262.546 116.376 262.546C115.872 262.546 115.406 262.448 114.976 262.252C114.556 262.046 114.188 261.766 113.87 261.412C113.562 261.057 113.32 260.656 113.142 260.208C112.974 259.75 112.89 259.27 112.89 258.766ZM118.882 259.844V257.744C118.77 257.426 118.588 257.142 118.336 256.89C118.084 256.628 117.8 256.423 117.482 256.274C117.174 256.115 116.866 256.036 116.558 256.036C116.194 256.036 115.863 256.115 115.564 256.274C115.275 256.423 115.023 256.628 114.808 256.89C114.603 257.142 114.444 257.431 114.332 257.758C114.22 258.084 114.164 258.425 114.164 258.78C114.164 259.144 114.225 259.489 114.346 259.816C114.477 260.142 114.654 260.432 114.878 260.684C115.112 260.936 115.378 261.132 115.676 261.272C115.984 261.412 116.316 261.482 116.67 261.482C116.894 261.482 117.123 261.44 117.356 261.356C117.599 261.272 117.828 261.155 118.042 261.006C118.257 260.856 118.439 260.684 118.588 260.488C118.738 260.282 118.836 260.068 118.882 259.844ZM129.492 262.042C129.389 262.088 129.249 262.149 129.072 262.224C128.895 262.298 128.689 262.364 128.456 262.42C128.223 262.476 127.975 262.504 127.714 262.504C127.415 262.504 127.14 262.452 126.888 262.35C126.636 262.238 126.435 262.07 126.286 261.846C126.137 261.612 126.062 261.323 126.062 260.978V256.064H125.068V255.098H126.062V252.662H127.294V255.098H128.932V256.064H127.294V260.6C127.313 260.861 127.401 261.057 127.56 261.188C127.719 261.309 127.905 261.37 128.12 261.37C128.363 261.37 128.587 261.328 128.792 261.244C128.997 261.16 129.133 261.099 129.198 261.062L129.492 262.042ZM133.772 262.546C133.221 262.546 132.717 262.448 132.26 262.252C131.812 262.046 131.42 261.771 131.084 261.426C130.757 261.071 130.501 260.665 130.314 260.208C130.137 259.75 130.048 259.265 130.048 258.752C130.048 258.061 130.207 257.431 130.524 256.862C130.841 256.292 131.28 255.835 131.84 255.49C132.409 255.144 133.058 254.972 133.786 254.972C134.523 254.972 135.163 255.149 135.704 255.504C136.255 255.849 136.679 256.306 136.978 256.876C137.286 257.436 137.44 258.042 137.44 258.696C137.44 258.789 137.435 258.882 137.426 258.976C137.426 259.06 137.421 259.125 137.412 259.172H131.35C131.387 259.648 131.518 260.072 131.742 260.446C131.975 260.81 132.274 261.099 132.638 261.314C133.002 261.519 133.394 261.622 133.814 261.622C134.262 261.622 134.682 261.51 135.074 261.286C135.475 261.062 135.751 260.768 135.9 260.404L136.964 260.698C136.805 261.052 136.567 261.37 136.25 261.65C135.942 261.93 135.573 262.149 135.144 262.308C134.724 262.466 134.267 262.546 133.772 262.546ZM131.308 258.318H136.292C136.255 257.842 136.119 257.422 135.886 257.058C135.653 256.694 135.354 256.409 134.99 256.204C134.626 255.998 134.225 255.896 133.786 255.896C133.357 255.896 132.96 255.998 132.596 256.204C132.232 256.409 131.933 256.694 131.7 257.058C131.476 257.422 131.345 257.842 131.308 258.318ZM149.828 262.406H148.596V258.318C148.596 257.552 148.47 256.988 148.218 256.624C147.975 256.26 147.611 256.078 147.126 256.078C146.631 256.078 146.183 256.26 145.782 256.624C145.38 256.978 145.096 257.44 144.928 258.01V262.406H143.696V258.318C143.696 257.543 143.574 256.978 143.332 256.624C143.089 256.26 142.725 256.078 142.24 256.078C141.754 256.078 141.306 256.255 140.896 256.61C140.494 256.955 140.21 257.417 140.042 257.996V262.406H138.81V255.098H139.93V256.666C140.228 256.124 140.616 255.709 141.092 255.42C141.568 255.121 142.104 254.972 142.702 254.972C143.308 254.972 143.794 255.14 144.158 255.476C144.522 255.802 144.746 256.227 144.83 256.75C145.156 256.171 145.553 255.732 146.02 255.434C146.486 255.126 147.018 254.972 147.616 254.972C148.036 254.972 148.386 255.051 148.666 255.21C148.955 255.359 149.184 255.574 149.352 255.854C149.52 256.124 149.641 256.446 149.716 256.82C149.79 257.193 149.828 257.599 149.828 258.038V262.406ZM155.677 262.546C155.08 262.546 154.548 262.396 154.081 262.098C153.614 261.799 153.246 261.421 152.975 260.964V265.388H151.743V255.098H152.835V256.47C153.124 256.022 153.502 255.662 153.969 255.392C154.436 255.112 154.944 254.972 155.495 254.972C155.999 254.972 156.461 255.074 156.881 255.28C157.301 255.485 157.665 255.765 157.973 256.12C158.281 256.474 158.519 256.88 158.687 257.338C158.864 257.786 158.953 258.257 158.953 258.752C158.953 259.442 158.813 260.077 158.533 260.656C158.262 261.234 157.88 261.696 157.385 262.042C156.89 262.378 156.321 262.546 155.677 262.546ZM155.299 261.482C155.663 261.482 155.99 261.407 156.279 261.258C156.578 261.099 156.83 260.894 157.035 260.642C157.25 260.38 157.413 260.086 157.525 259.76C157.637 259.433 157.693 259.097 157.693 258.752C157.693 258.388 157.628 258.042 157.497 257.716C157.376 257.389 157.198 257.1 156.965 256.848C156.741 256.596 156.475 256.4 156.167 256.26C155.868 256.11 155.542 256.036 155.187 256.036C154.963 256.036 154.73 256.078 154.487 256.162C154.254 256.246 154.03 256.367 153.815 256.526C153.6 256.675 153.418 256.848 153.269 257.044C153.12 257.24 153.022 257.45 152.975 257.674V259.76C153.115 260.077 153.302 260.366 153.535 260.628C153.768 260.889 154.039 261.099 154.347 261.258C154.655 261.407 154.972 261.482 155.299 261.482ZM163.658 262.546C163.107 262.546 162.608 262.448 162.16 262.252C161.712 262.046 161.324 261.771 160.998 261.426C160.671 261.071 160.419 260.665 160.242 260.208C160.064 259.75 159.976 259.27 159.976 258.766C159.976 258.252 160.064 257.767 160.242 257.31C160.419 256.852 160.671 256.451 160.998 256.106C161.324 255.751 161.712 255.476 162.16 255.28C162.617 255.074 163.116 254.972 163.658 254.972C164.208 254.972 164.708 255.074 165.156 255.28C165.604 255.476 165.991 255.751 166.318 256.106C166.654 256.451 166.91 256.852 167.088 257.31C167.265 257.767 167.354 258.252 167.354 258.766C167.354 259.27 167.265 259.75 167.088 260.208C166.91 260.665 166.658 261.071 166.332 261.426C166.005 261.771 165.613 262.046 165.156 262.252C164.708 262.448 164.208 262.546 163.658 262.546ZM161.236 258.78C161.236 259.284 161.343 259.741 161.558 260.152C161.782 260.562 162.076 260.889 162.44 261.132C162.804 261.365 163.21 261.482 163.658 261.482C164.106 261.482 164.512 261.36 164.876 261.118C165.249 260.875 165.543 260.548 165.758 260.138C165.982 259.718 166.094 259.256 166.094 258.752C166.094 258.248 165.982 257.79 165.758 257.38C165.543 256.969 165.249 256.642 164.876 256.4C164.512 256.157 164.106 256.036 163.658 256.036C163.21 256.036 162.804 256.162 162.44 256.414C162.076 256.656 161.782 256.983 161.558 257.394C161.343 257.804 161.236 258.266 161.236 258.78ZM172.711 256.176C172.095 256.185 171.549 256.344 171.073 256.652C170.606 256.95 170.275 257.366 170.079 257.898V262.406H168.847V255.098H169.995V256.792C170.247 256.288 170.578 255.882 170.989 255.574C171.409 255.256 171.847 255.079 172.305 255.042C172.398 255.042 172.477 255.042 172.543 255.042C172.608 255.042 172.664 255.046 172.711 255.056V256.176ZM172.344 262.406V260.838H173.38V262.406H172.344ZM175.174 262.406V260.838H176.21V262.406H175.174ZM178.005 262.406V260.838H179.041V262.406H178.005Z" fill="#777777"/>
<path d="M47.369 304.436L47.243 301.664L53.849 294.806H56.477L50.987 300.638L49.691 302.06L47.369 304.436ZM45.281 307.406V294.806H47.621V307.406H45.281ZM54.065 307.406L49.241 301.664L50.789 299.954L56.801 307.406H54.065ZM63.4741 297.686C64.2421 297.686 64.9261 297.836 65.5261 298.136C66.1381 298.436 66.6181 298.898 66.9661 299.522C67.3141 300.134 67.4881 300.926 67.4881 301.898V307.406H65.2381V302.186C65.2381 301.334 65.0341 300.698 64.6261 300.278C64.2301 299.858 63.6721 299.648 62.9521 299.648C62.4241 299.648 61.9561 299.756 61.5481 299.972C61.1401 300.188 60.8221 300.512 60.5941 300.944C60.3781 301.364 60.2701 301.898 60.2701 302.546V307.406H58.0201V297.794H60.1621V300.386L59.7841 299.594C60.1201 298.982 60.6061 298.514 61.2421 298.19C61.8901 297.854 62.6341 297.686 63.4741 297.686ZM74.6799 307.532C73.6959 307.532 72.8199 307.322 72.0519 306.902C71.2839 306.47 70.6779 305.882 70.2339 305.138C69.7899 304.394 69.5679 303.548 69.5679 302.6C69.5679 301.64 69.7899 300.794 70.2339 300.062C70.6779 299.318 71.2839 298.736 72.0519 298.316C72.8199 297.896 73.6959 297.686 74.6799 297.686C75.6759 297.686 76.5579 297.896 77.3259 298.316C78.1059 298.736 78.7119 299.312 79.1439 300.044C79.5879 300.776 79.8099 301.628 79.8099 302.6C79.8099 303.548 79.5879 304.394 79.1439 305.138C78.7119 305.882 78.1059 306.47 77.3259 306.902C76.5579 307.322 75.6759 307.532 74.6799 307.532ZM74.6799 305.606C75.2319 305.606 75.7239 305.486 76.1559 305.246C76.5879 305.006 76.9239 304.658 77.1639 304.202C77.4159 303.746 77.5419 303.212 77.5419 302.6C77.5419 301.976 77.4159 301.442 77.1639 300.998C76.9239 300.542 76.5879 300.194 76.1559 299.954C75.7239 299.714 75.2379 299.594 74.6979 299.594C74.1459 299.594 73.6539 299.714 73.2219 299.954C72.8019 300.194 72.4659 300.542 72.2139 300.998C71.9619 301.442 71.8359 301.976 71.8359 302.6C71.8359 303.212 71.9619 303.746 72.2139 304.202C72.4659 304.658 72.8019 305.006 73.2219 305.246C73.6539 305.486 74.1399 305.606 74.6799 305.606ZM83.8218 307.406L80.2938 297.794H82.4178L85.4418 306.272H84.4338L87.6018 297.794H89.4918L92.5698 306.272H91.5798L94.6938 297.794H96.6918L93.1458 307.406H90.9858L88.1778 299.9H88.8438L85.9818 307.406H83.8218ZM103.429 307.406V294.806H105.355L110.863 304.004H109.855L115.273 294.806H117.199L117.217 307.406H115.003L114.985 298.28H115.453L110.845 305.966H109.801L105.121 298.28H105.661V307.406H103.429ZM124.725 307.532C123.741 307.532 122.865 307.322 122.097 306.902C121.329 306.47 120.723 305.882 120.279 305.138C119.835 304.394 119.613 303.548 119.613 302.6C119.613 301.64 119.835 300.794 120.279 300.062C120.723 299.318 121.329 298.736 122.097 298.316C122.865 297.896 123.741 297.686 124.725 297.686C125.721 297.686 126.603 297.896 127.371 298.316C128.151 298.736 128.757 299.312 129.189 300.044C129.633 300.776 129.855 301.628 129.855 302.6C129.855 303.548 129.633 304.394 129.189 305.138C128.757 305.882 128.151 306.47 127.371 306.902C126.603 307.322 125.721 307.532 124.725 307.532ZM124.725 305.606C125.277 305.606 125.769 305.486 126.201 305.246C126.633 305.006 126.969 304.658 127.209 304.202C127.461 303.746 127.587 303.212 127.587 302.6C127.587 301.976 127.461 301.442 127.209 300.998C126.969 300.542 126.633 300.194 126.201 299.954C125.769 299.714 125.283 299.594 124.743 299.594C124.191 299.594 123.699 299.714 123.267 299.954C122.847 300.194 122.511 300.542 122.259 300.998C122.007 301.442 121.881 301.976 121.881 302.6C121.881 303.212 122.007 303.746 122.259 304.202C122.511 304.658 122.847 305.006 123.267 305.246C123.699 305.486 124.185 305.606 124.725 305.606ZM132.006 307.406V297.794H134.148V300.44L133.896 299.666C134.184 299.018 134.634 298.526 135.246 298.19C135.87 297.854 136.644 297.686 137.568 297.686V299.828C137.472 299.804 137.382 299.792 137.298 299.792C137.214 299.78 137.13 299.774 137.046 299.774C136.194 299.774 135.516 300.026 135.012 300.53C134.508 301.022 134.256 301.76 134.256 302.744V307.406H132.006ZM143.907 307.532C142.839 307.532 141.903 307.322 141.099 306.902C140.307 306.47 139.689 305.882 139.245 305.138C138.813 304.394 138.597 303.548 138.597 302.6C138.597 301.64 138.807 300.794 139.227 300.062C139.659 299.318 140.247 298.736 140.991 298.316C141.747 297.896 142.605 297.686 143.565 297.686C144.501 297.686 145.335 297.89 146.067 298.298C146.799 298.706 147.375 299.282 147.795 300.026C148.215 300.77 148.425 301.646 148.425 302.654C148.425 302.75 148.419 302.858 148.407 302.978C148.407 303.098 148.401 303.212 148.389 303.32H140.379V301.826H147.201L146.319 302.294C146.331 301.742 146.217 301.256 145.977 300.836C145.737 300.416 145.407 300.086 144.987 299.846C144.579 299.606 144.105 299.486 143.565 299.486C143.013 299.486 142.527 299.606 142.107 299.846C141.699 300.086 141.375 300.422 141.135 300.854C140.907 301.274 140.793 301.772 140.793 302.348V302.708C140.793 303.284 140.925 303.794 141.189 304.238C141.453 304.682 141.825 305.024 142.305 305.264C142.785 305.504 143.337 305.624 143.961 305.624C144.501 305.624 144.987 305.54 145.419 305.372C145.851 305.204 146.235 304.94 146.571 304.58L147.777 305.966C147.345 306.47 146.799 306.86 146.139 307.136C145.491 307.4 144.747 307.532 143.907 307.532Z" fill="#4A60A1"/>
<path d="M164.979 294.955C164.709 295.222 164.683 295.643 164.905 295.938L164.972 296.016L169.547 300.656L157.839 300.656C157.425 300.656 157.089 300.991 157.089 301.406C157.089 301.788 157.375 302.104 157.745 302.15L157.839 302.156H169.547L164.972 306.796C164.705 307.066 164.686 307.488 164.911 307.78L164.979 307.856C165.249 308.123 165.671 308.142 165.963 307.917L166.04 307.849L171.873 301.932C172.137 301.665 172.159 301.248 171.939 300.956L171.873 300.879L166.04 294.962C165.749 294.667 165.274 294.664 164.979 294.955Z" fill="#00B377"/>
<path d="M70.5138 97.6344C71.3268 97.0912 72.2991 96.7993 73.296 96.7993C74.2929 96.7993 75.2652 97.0912 76.0782 97.6344L97.1816 111.732C99.8033 113.484 98.4906 117.375 95.2775 117.382H51.3253C48.1013 117.382 46.7815 113.488 49.414 111.732L70.5138 97.6344ZM73.2978 110.167C74.095 110.167 74.8595 109.869 75.4232 109.338C75.9869 108.807 76.3035 108.087 76.3035 107.337C76.3035 106.586 75.9869 105.866 75.4232 105.336C74.8595 104.805 74.095 104.507 73.2978 104.507C72.5006 104.507 71.7361 104.805 71.1724 105.336C70.6087 105.866 70.292 106.586 70.292 107.337C70.292 108.087 70.6087 108.807 71.1724 109.338C71.7361 109.869 72.5006 110.167 73.2978 110.167ZM53.4637 120.781V134.363H60.6761V120.781H53.4637ZM48.0545 145.112C48.0545 141.048 51.5525 137.755 55.8655 137.755H90.7265C92.7988 137.755 94.7859 138.531 96.2512 139.911C97.7165 141.29 98.5401 143.161 98.5411 145.112V146.243C98.5411 146.693 98.3511 147.125 98.013 147.444C97.6748 147.762 97.2162 147.941 96.738 147.941H49.8576C49.3793 147.941 48.9207 147.762 48.5826 147.444C48.2444 147.125 48.0545 146.693 48.0545 146.243V145.112ZM93.1318 120.778V134.359H85.9194V120.781H93.1318V120.778ZM82.3133 120.778V134.359H75.1009V120.781H82.3133V120.778ZM71.4947 120.778V134.359H64.2823V120.781H71.4947V120.778Z" fill="#0B1C98"/>
<defs>
<filter id="filter0_d_773_467" x="0.588989" y="0.405762" width="290" height="377.979" filterUnits="userSpaceOnUse" color-interpolation-filters="sRGB">
<feFlood flood-opacity="0" result="BackgroundImageFix"/>
<feColorMatrix in="SourceAlpha" type="matrix" values="0 0 0 0 0 0 0 0 0 0 0 0 0 0 0 0 0 0 127 0" result="hardAlpha"/>
<feOffset/>
<feGaussianBlur stdDeviation="10"/>
<feComposite in2="hardAlpha" operator="out"/>
<feColorMatrix type="matrix" values="0 0 0 0 0.768627 0 0 0 0 0.768627 0 0 0 0 0.768627 0 0 0 0.15 0"/>
<feBlend mode="normal" in2="BackgroundImageFix" result="effect1_dropShadow_773_467"/>
<feBlend mode="normal" in="SourceGraphic" in2="effect1_dropShadow_773_467" result="shape"/>
</filter>
</defs>
</svg>
