<svg width="291" height="378" viewBox="0 0 291 378" fill="none" xmlns="http://www.w3.org/2000/svg">
<g filter="url(#filter0_d_773_471)">
<rect x="20.589" y="20.0083" width="250" height="337.979" rx="12" fill="white"/>
<rect x="21.089" y="20.5083" width="249" height="336.979" rx="11.5" stroke="black"/>
</g>
<path d="M51.909 192.208C50.349 192.208 49.029 191.915 47.949 191.328C46.8823 190.742 46.069 189.908 45.509 188.828C44.949 187.748 44.669 186.468 44.669 184.988C44.669 183.868 44.829 182.862 45.149 181.968C45.4823 181.075 45.9557 180.315 46.569 179.688C47.1957 179.048 47.9557 178.562 48.849 178.228C49.7423 177.882 50.7557 177.708 51.889 177.708C52.6357 177.708 53.3823 177.802 54.129 177.988C54.889 178.162 55.6023 178.462 56.269 178.888C56.4957 179.035 56.6423 179.215 56.709 179.428C56.789 179.642 56.8023 179.862 56.749 180.088C56.6957 180.302 56.5957 180.488 56.449 180.648C56.3023 180.808 56.1157 180.908 55.889 180.948C55.6757 180.988 55.4357 180.935 55.169 180.788C54.6623 180.495 54.149 180.282 53.629 180.148C53.109 180.015 52.529 179.948 51.889 179.948C50.9023 179.948 50.069 180.148 49.389 180.548C48.709 180.935 48.1957 181.502 47.849 182.248C47.5157 182.995 47.349 183.908 47.349 184.988C47.349 186.628 47.7423 187.875 48.529 188.728C49.3157 189.582 50.4823 190.008 52.029 190.008C52.5623 190.008 53.1023 189.955 53.649 189.848C54.1957 189.742 54.729 189.595 55.249 189.408L54.749 190.548V186.288H52.549C52.2157 186.288 51.9557 186.202 51.769 186.028C51.5957 185.855 51.509 185.622 51.509 185.328C51.509 185.022 51.5957 184.788 51.769 184.628C51.9557 184.468 52.2157 184.388 52.549 184.388H55.849C56.1823 184.388 56.4357 184.482 56.609 184.668C56.7957 184.842 56.889 185.095 56.889 185.428V190.288C56.889 190.582 56.829 190.828 56.709 191.028C56.6023 191.228 56.4223 191.375 56.169 191.468C55.5823 191.682 54.909 191.862 54.149 192.008C53.389 192.142 52.6423 192.208 51.909 192.208ZM64.0756 192.208C63.0622 192.208 62.1822 192.002 61.4356 191.588C60.6889 191.175 60.1089 190.588 59.6956 189.828C59.2822 189.055 59.0756 188.148 59.0756 187.108C59.0756 186.322 59.1889 185.622 59.4156 185.008C59.6556 184.382 59.9956 183.848 60.4356 183.408C60.8756 182.955 61.4022 182.615 62.0156 182.388C62.6289 182.148 63.3156 182.028 64.0756 182.028C65.0889 182.028 65.9689 182.235 66.7156 182.648C67.4622 183.062 68.0422 183.648 68.4556 184.408C68.8689 185.168 69.0756 186.068 69.0756 187.108C69.0756 187.895 68.9556 188.602 68.7156 189.228C68.4889 189.855 68.1556 190.395 67.7156 190.848C67.2756 191.288 66.7489 191.628 66.1356 191.868C65.5222 192.095 64.8356 192.208 64.0756 192.208ZM64.0756 190.308C64.5689 190.308 65.0022 190.188 65.3756 189.948C65.7489 189.708 66.0356 189.355 66.2356 188.888C66.4489 188.408 66.5556 187.815 66.5556 187.108C66.5556 186.042 66.3289 185.248 65.8756 184.728C65.4222 184.195 64.8222 183.928 64.0756 183.928C63.5822 183.928 63.1489 184.048 62.7756 184.288C62.4022 184.515 62.1089 184.868 61.8956 185.348C61.6956 185.815 61.5956 186.402 61.5956 187.108C61.5956 188.162 61.8222 188.962 62.2756 189.508C62.7289 190.042 63.3289 190.308 64.0756 190.308ZM74.9037 192.168C74.5703 192.168 74.277 192.082 74.0237 191.908C73.7837 191.735 73.5837 191.468 73.4237 191.108L70.2437 183.728C70.1237 183.435 70.077 183.162 70.1037 182.908C70.1437 182.655 70.2637 182.455 70.4637 182.308C70.677 182.148 70.9637 182.068 71.3237 182.068C71.6303 182.068 71.877 182.142 72.0637 182.288C72.2503 182.422 72.417 182.682 72.5637 183.068L75.2637 189.808H74.6637L77.4437 183.048C77.5903 182.675 77.757 182.422 77.9437 182.288C78.1437 182.142 78.4103 182.068 78.7437 182.068C79.037 182.068 79.2703 182.148 79.4437 182.308C79.617 182.455 79.7237 182.655 79.7637 182.908C79.8037 183.148 79.757 183.415 79.6237 183.708L76.3837 191.108C76.237 191.468 76.037 191.735 75.7837 191.908C75.5437 192.082 75.2503 192.168 74.9037 192.168ZM86.1152 192.208C85.0086 192.208 84.0552 192.002 83.2552 191.588C82.4552 191.175 81.8352 190.588 81.3952 189.828C80.9686 189.068 80.7552 188.168 80.7552 187.128C80.7552 186.115 80.9619 185.228 81.3752 184.468C81.8019 183.708 82.3819 183.115 83.1152 182.688C83.8619 182.248 84.7086 182.028 85.6552 182.028C86.3486 182.028 86.9686 182.142 87.5152 182.368C88.0752 182.595 88.5486 182.922 88.9352 183.348C89.3352 183.775 89.6352 184.295 89.8352 184.908C90.0486 185.508 90.1552 186.188 90.1552 186.948C90.1552 187.188 90.0686 187.375 89.8952 187.508C89.7352 187.628 89.5019 187.688 89.1952 187.688H82.7752V186.248H88.3952L88.0752 186.548C88.0752 185.935 87.9819 185.422 87.7952 185.008C87.6219 184.595 87.3619 184.282 87.0152 184.068C86.6819 183.842 86.2619 183.728 85.7552 183.728C85.1952 183.728 84.7152 183.862 84.3152 184.128C83.9286 184.382 83.6286 184.748 83.4152 185.228C83.2152 185.695 83.1152 186.255 83.1152 186.908V187.048C83.1152 188.142 83.3686 188.962 83.8752 189.508C84.3952 190.042 85.1552 190.308 86.1552 190.308C86.5019 190.308 86.8886 190.268 87.3152 190.188C87.7552 190.095 88.1686 189.942 88.5552 189.728C88.8352 189.568 89.0819 189.502 89.2952 189.528C89.5086 189.542 89.6752 189.615 89.7952 189.748C89.9286 189.882 90.0086 190.048 90.0352 190.248C90.0619 190.435 90.0219 190.628 89.9152 190.828C89.8219 191.028 89.6552 191.202 89.4152 191.348C88.9486 191.642 88.4086 191.862 87.7952 192.008C87.1952 192.142 86.6352 192.208 86.1152 192.208ZM93.4151 192.168C93.0017 192.168 92.6817 192.062 92.4551 191.848C92.2417 191.622 92.1351 191.302 92.1351 190.888V183.328C92.1351 182.915 92.2417 182.602 92.4551 182.388C92.6684 182.175 92.9684 182.068 93.3551 182.068C93.7417 182.068 94.0417 182.175 94.2551 182.388C94.4684 182.602 94.5751 182.915 94.5751 183.328V184.588H94.3751C94.5617 183.788 94.9284 183.182 95.4751 182.768C96.0217 182.355 96.7484 182.108 97.6551 182.028C97.9351 182.002 98.1551 182.075 98.3151 182.248C98.4884 182.408 98.5884 182.662 98.6151 183.008C98.6418 183.342 98.5618 183.615 98.3751 183.828C98.2018 184.028 97.9351 184.148 97.5751 184.188L97.1351 184.228C96.3217 184.308 95.7084 184.562 95.2951 184.988C94.8817 185.402 94.6751 185.988 94.6751 186.748V190.888C94.6751 191.302 94.5684 191.622 94.3551 191.848C94.1417 192.062 93.8284 192.168 93.4151 192.168ZM101.207 192.168C100.807 192.168 100.5 192.062 100.287 191.848C100.074 191.622 99.9671 191.302 99.9671 190.888V183.328C99.9671 182.915 100.074 182.602 100.287 182.388C100.5 182.175 100.8 182.068 101.187 182.068C101.574 182.068 101.874 182.175 102.087 182.388C102.3 182.602 102.407 182.915 102.407 183.328V184.688L102.187 184.188C102.48 183.482 102.934 182.948 103.547 182.588C104.174 182.215 104.88 182.028 105.667 182.028C106.454 182.028 107.1 182.175 107.607 182.468C108.114 182.762 108.494 183.208 108.747 183.808C109 184.395 109.127 185.142 109.127 186.048V190.888C109.127 191.302 109.02 191.622 108.807 191.848C108.594 192.062 108.287 192.168 107.887 192.168C107.487 192.168 107.174 192.062 106.947 191.848C106.734 191.622 106.627 191.302 106.627 190.888V186.168C106.627 185.408 106.48 184.855 106.187 184.508C105.907 184.162 105.467 183.988 104.867 183.988C104.134 183.988 103.547 184.222 103.107 184.688C102.68 185.142 102.467 185.748 102.467 186.508V190.888C102.467 191.742 102.047 192.168 101.207 192.168ZM112.946 192.168C112.546 192.168 112.24 192.062 112.026 191.848C111.813 191.622 111.706 191.302 111.706 190.888V183.328C111.706 182.915 111.813 182.602 112.026 182.388C112.24 182.175 112.54 182.068 112.926 182.068C113.313 182.068 113.613 182.175 113.826 182.388C114.04 182.602 114.146 182.915 114.146 183.328V184.788L113.926 184.188C114.193 183.522 114.606 182.995 115.166 182.608C115.726 182.222 116.393 182.028 117.166 182.028C117.953 182.028 118.6 182.215 119.106 182.588C119.613 182.962 119.966 183.535 120.166 184.308H119.886C120.153 183.602 120.593 183.048 121.206 182.648C121.82 182.235 122.526 182.028 123.326 182.028C124.073 182.028 124.686 182.175 125.166 182.468C125.66 182.762 126.026 183.208 126.266 183.808C126.506 184.395 126.626 185.142 126.626 186.048V190.888C126.626 191.302 126.513 191.622 126.286 191.848C126.073 192.062 125.766 192.168 125.366 192.168C124.966 192.168 124.66 192.062 124.446 191.848C124.233 191.622 124.126 191.302 124.126 190.888V186.148C124.126 185.402 124 184.855 123.746 184.508C123.506 184.162 123.093 183.988 122.506 183.988C121.853 183.988 121.34 184.222 120.966 184.688C120.593 185.142 120.406 185.775 120.406 186.588V190.888C120.406 191.302 120.3 191.622 120.086 191.848C119.873 192.062 119.566 192.168 119.166 192.168C118.766 192.168 118.453 192.062 118.226 191.848C118.013 191.622 117.906 191.302 117.906 190.888V186.148C117.906 185.402 117.78 184.855 117.526 184.508C117.286 184.162 116.88 183.988 116.306 183.988C115.653 183.988 115.14 184.222 114.766 184.688C114.393 185.142 114.206 185.775 114.206 186.588V190.888C114.206 191.742 113.786 192.168 112.946 192.168ZM134.025 192.208C132.919 192.208 131.965 192.002 131.165 191.588C130.365 191.175 129.745 190.588 129.305 189.828C128.879 189.068 128.665 188.168 128.665 187.128C128.665 186.115 128.872 185.228 129.285 184.468C129.712 183.708 130.292 183.115 131.025 182.688C131.772 182.248 132.619 182.028 133.565 182.028C134.259 182.028 134.879 182.142 135.425 182.368C135.985 182.595 136.459 182.922 136.845 183.348C137.245 183.775 137.545 184.295 137.745 184.908C137.959 185.508 138.065 186.188 138.065 186.948C138.065 187.188 137.979 187.375 137.805 187.508C137.645 187.628 137.412 187.688 137.105 187.688H130.685V186.248H136.305L135.985 186.548C135.985 185.935 135.892 185.422 135.705 185.008C135.532 184.595 135.272 184.282 134.925 184.068C134.592 183.842 134.172 183.728 133.665 183.728C133.105 183.728 132.625 183.862 132.225 184.128C131.839 184.382 131.539 184.748 131.325 185.228C131.125 185.695 131.025 186.255 131.025 186.908V187.048C131.025 188.142 131.279 188.962 131.785 189.508C132.305 190.042 133.065 190.308 134.065 190.308C134.412 190.308 134.799 190.268 135.225 190.188C135.665 190.095 136.079 189.942 136.465 189.728C136.745 189.568 136.992 189.502 137.205 189.528C137.419 189.542 137.585 189.615 137.705 189.748C137.839 189.882 137.919 190.048 137.945 190.248C137.972 190.435 137.932 190.628 137.825 190.828C137.732 191.028 137.565 191.202 137.325 191.348C136.859 191.642 136.319 191.862 135.705 192.008C135.105 192.142 134.545 192.208 134.025 192.208ZM141.285 192.168C140.885 192.168 140.579 192.062 140.365 191.848C140.152 191.622 140.045 191.302 140.045 190.888V183.328C140.045 182.915 140.152 182.602 140.365 182.388C140.579 182.175 140.879 182.068 141.265 182.068C141.652 182.068 141.952 182.175 142.165 182.388C142.379 182.602 142.485 182.915 142.485 183.328V184.688L142.265 184.188C142.559 183.482 143.012 182.948 143.625 182.588C144.252 182.215 144.959 182.028 145.745 182.028C146.532 182.028 147.179 182.175 147.685 182.468C148.192 182.762 148.572 183.208 148.825 183.808C149.079 184.395 149.205 185.142 149.205 186.048V190.888C149.205 191.302 149.099 191.622 148.885 191.848C148.672 192.062 148.365 192.168 147.965 192.168C147.565 192.168 147.252 192.062 147.025 191.848C146.812 191.622 146.705 191.302 146.705 190.888V186.168C146.705 185.408 146.559 184.855 146.265 184.508C145.985 184.162 145.545 183.988 144.945 183.988C144.212 183.988 143.625 184.222 143.185 184.688C142.759 185.142 142.545 185.748 142.545 186.508V190.888C142.545 191.742 142.125 192.168 141.285 192.168ZM156.224 192.208C155.358 192.208 154.631 192.062 154.044 191.768C153.471 191.475 153.044 191.048 152.764 190.488C152.484 189.915 152.344 189.208 152.344 188.368V184.108H151.304C150.984 184.108 150.738 184.028 150.564 183.868C150.391 183.695 150.304 183.462 150.304 183.168C150.304 182.862 150.391 182.628 150.564 182.468C150.738 182.308 150.984 182.228 151.304 182.228H152.344V180.408C152.344 179.995 152.451 179.682 152.664 179.468C152.891 179.255 153.204 179.148 153.604 179.148C154.004 179.148 154.311 179.255 154.524 179.468C154.738 179.682 154.844 179.995 154.844 180.408V182.228H156.964C157.284 182.228 157.531 182.308 157.704 182.468C157.878 182.628 157.964 182.862 157.964 183.168C157.964 183.462 157.878 183.695 157.704 183.868C157.531 184.028 157.284 184.108 156.964 184.108H154.844V188.228C154.844 188.868 154.984 189.348 155.264 189.668C155.544 189.988 155.998 190.148 156.624 190.148C156.851 190.148 157.051 190.128 157.224 190.088C157.398 190.048 157.551 190.022 157.684 190.008C157.844 189.995 157.978 190.048 158.084 190.168C158.191 190.275 158.244 190.502 158.244 190.848C158.244 191.115 158.198 191.355 158.104 191.568C158.024 191.768 157.871 191.908 157.644 191.988C157.471 192.042 157.244 192.088 156.964 192.128C156.684 192.182 156.438 192.208 156.224 192.208Z" fill="#212D4D"/>
<path d="M44.779 220.008V210.068H46.039V218.888H51.583V220.008H44.779ZM55.8414 220.148C55.2907 220.148 54.7914 220.05 54.3434 219.854C53.8954 219.649 53.5081 219.374 53.1814 219.028C52.8547 218.674 52.6027 218.268 52.4254 217.81C52.2481 217.353 52.1594 216.872 52.1594 216.368C52.1594 215.855 52.2481 215.37 52.4254 214.912C52.6027 214.455 52.8547 214.054 53.1814 213.708C53.5081 213.354 53.8954 213.078 54.3434 212.882C54.8007 212.677 55.3001 212.574 55.8414 212.574C56.3921 212.574 56.8914 212.677 57.3394 212.882C57.7874 213.078 58.1747 213.354 58.5014 213.708C58.8374 214.054 59.0941 214.455 59.2714 214.912C59.4487 215.37 59.5374 215.855 59.5374 216.368C59.5374 216.872 59.4487 217.353 59.2714 217.81C59.0941 218.268 58.8421 218.674 58.5154 219.028C58.1887 219.374 57.7967 219.649 57.3394 219.854C56.8914 220.05 56.3921 220.148 55.8414 220.148ZM53.4194 216.382C53.4194 216.886 53.5267 217.344 53.7414 217.754C53.9654 218.165 54.2594 218.492 54.6234 218.734C54.9874 218.968 55.3934 219.084 55.8414 219.084C56.2894 219.084 56.6954 218.963 57.0594 218.72C57.4327 218.478 57.7267 218.151 57.9414 217.74C58.1654 217.32 58.2774 216.858 58.2774 216.354C58.2774 215.85 58.1654 215.393 57.9414 214.982C57.7267 214.572 57.4327 214.245 57.0594 214.002C56.6954 213.76 56.2894 213.638 55.8414 213.638C55.3934 213.638 54.9874 213.764 54.6234 214.016C54.2594 214.259 53.9654 214.586 53.7414 214.996C53.5267 215.407 53.4194 215.869 53.4194 216.382ZM64.8943 213.778C64.2783 213.788 63.7323 213.946 63.2563 214.254C62.7896 214.553 62.4583 214.968 62.2623 215.5V220.008H61.0303V212.7H62.1783V214.394C62.4303 213.89 62.7616 213.484 63.1723 213.176C63.5923 212.859 64.0309 212.682 64.4883 212.644C64.5816 212.644 64.6609 212.644 64.7263 212.644C64.7916 212.644 64.8476 212.649 64.8943 212.658V213.778ZM69.1725 220.148C68.6218 220.148 68.1178 220.05 67.6605 219.854C67.2125 219.649 66.8205 219.374 66.4845 219.028C66.1578 218.674 65.9011 218.268 65.7145 217.81C65.5371 217.353 65.4485 216.868 65.4485 216.354C65.4485 215.664 65.6071 215.034 65.9245 214.464C66.2418 213.895 66.6805 213.438 67.2405 213.092C67.8098 212.747 68.4585 212.574 69.1865 212.574C69.9238 212.574 70.5631 212.752 71.1045 213.106C71.6551 213.452 72.0798 213.909 72.3785 214.478C72.6865 215.038 72.8405 215.645 72.8405 216.298C72.8405 216.392 72.8358 216.485 72.8265 216.578C72.8265 216.662 72.8218 216.728 72.8125 216.774H66.7505C66.7878 217.25 66.9185 217.675 67.1425 218.048C67.3758 218.412 67.6745 218.702 68.0385 218.916C68.4025 219.122 68.7945 219.224 69.2145 219.224C69.6625 219.224 70.0825 219.112 70.4745 218.888C70.8758 218.664 71.1511 218.37 71.3005 218.006L72.3645 218.3C72.2058 218.655 71.9678 218.972 71.6505 219.252C71.3425 219.532 70.9738 219.752 70.5445 219.91C70.1245 220.069 69.6671 220.148 69.1725 220.148ZM66.7085 215.92H71.6925C71.6551 215.444 71.5198 215.024 71.2865 214.66C71.0531 214.296 70.7545 214.012 70.3905 213.806C70.0265 213.601 69.6251 213.498 69.1865 213.498C68.7571 213.498 68.3605 213.601 67.9965 213.806C67.6325 214.012 67.3338 214.296 67.1005 214.66C66.8765 215.024 66.7458 215.444 66.7085 215.92ZM85.2279 220.008H83.9959V215.92C83.9959 215.155 83.8699 214.59 83.6179 214.226C83.3753 213.862 83.0113 213.68 82.5259 213.68C82.0313 213.68 81.5833 213.862 81.1819 214.226C80.7806 214.581 80.4959 215.043 80.3279 215.612V220.008H79.0959V215.92C79.0959 215.146 78.9746 214.581 78.7319 214.226C78.4893 213.862 78.1253 213.68 77.6399 213.68C77.1546 213.68 76.7066 213.858 76.2959 214.212C75.8946 214.558 75.6099 215.02 75.4419 215.598V220.008H74.2099V212.7H75.3299V214.268C75.6286 213.727 76.0159 213.312 76.4919 213.022C76.9679 212.724 77.5046 212.574 78.1019 212.574C78.7086 212.574 79.1939 212.742 79.5579 213.078C79.9219 213.405 80.1459 213.83 80.2299 214.352C80.5566 213.774 80.9533 213.335 81.4199 213.036C81.8866 212.728 82.4186 212.574 83.0159 212.574C83.4359 212.574 83.7859 212.654 84.0659 212.812C84.3553 212.962 84.5839 213.176 84.7519 213.456C84.9199 213.727 85.0413 214.049 85.1159 214.422C85.1906 214.796 85.2279 215.202 85.2279 215.64V220.008ZM90.6846 220.008V212.7H91.9166V220.008H90.6846ZM90.6846 211.328V209.788H91.9166V211.328H90.6846ZM97.8451 220.148C97.2478 220.148 96.7158 219.999 96.2491 219.7C95.7824 219.402 95.4138 219.024 95.1431 218.566V222.99H93.9111V212.7H95.0031V214.072C95.2924 213.624 95.6704 213.265 96.1371 212.994C96.6038 212.714 97.1124 212.574 97.6631 212.574C98.1671 212.574 98.6291 212.677 99.0491 212.882C99.4691 213.088 99.8331 213.368 100.141 213.722C100.449 214.077 100.687 214.483 100.855 214.94C101.032 215.388 101.121 215.86 101.121 216.354C101.121 217.045 100.981 217.68 100.701 218.258C100.43 218.837 100.048 219.299 99.5531 219.644C99.0584 219.98 98.4891 220.148 97.8451 220.148ZM97.4671 219.084C97.8311 219.084 98.1578 219.01 98.4471 218.86C98.7458 218.702 98.9978 218.496 99.2031 218.244C99.4178 217.983 99.5811 217.689 99.6931 217.362C99.8051 217.036 99.8611 216.7 99.8611 216.354C99.8611 215.99 99.7958 215.645 99.6651 215.318C99.5438 214.992 99.3664 214.702 99.1331 214.45C98.9091 214.198 98.6431 214.002 98.3351 213.862C98.0364 213.713 97.7098 213.638 97.3551 213.638C97.1311 213.638 96.8978 213.68 96.6551 213.764C96.4218 213.848 96.1978 213.97 95.9831 214.128C95.7684 214.278 95.5864 214.45 95.4371 214.646C95.2878 214.842 95.1898 215.052 95.1431 215.276V217.362C95.2831 217.68 95.4698 217.969 95.7031 218.23C95.9364 218.492 96.2071 218.702 96.5151 218.86C96.8231 219.01 97.1404 219.084 97.4671 219.084ZM105.14 220.148C104.533 220.148 103.964 220.05 103.432 219.854C102.9 219.649 102.442 219.346 102.06 218.944L102.536 218.076C102.956 218.468 103.376 218.748 103.796 218.916C104.216 219.084 104.645 219.168 105.084 219.168C105.588 219.168 105.998 219.075 106.316 218.888C106.633 218.692 106.792 218.408 106.792 218.034C106.792 217.764 106.708 217.563 106.54 217.432C106.381 217.302 106.152 217.194 105.854 217.11C105.555 217.017 105.2 216.914 104.79 216.802C104.286 216.653 103.861 216.494 103.516 216.326C103.17 216.158 102.909 215.948 102.732 215.696C102.554 215.444 102.466 215.127 102.466 214.744C102.466 214.278 102.587 213.886 102.83 213.568C103.072 213.242 103.404 212.994 103.824 212.826C104.253 212.658 104.738 212.574 105.28 212.574C105.821 212.574 106.311 212.658 106.75 212.826C107.188 212.994 107.566 213.242 107.884 213.568L107.324 214.422C107.034 214.124 106.717 213.904 106.372 213.764C106.026 213.615 105.639 213.54 105.21 213.54C104.958 213.54 104.71 213.573 104.468 213.638C104.225 213.694 104.024 213.802 103.866 213.96C103.707 214.11 103.628 214.324 103.628 214.604C103.628 214.838 103.688 215.024 103.81 215.164C103.94 215.295 104.127 215.407 104.37 215.5C104.622 215.594 104.925 215.696 105.28 215.808C105.83 215.967 106.306 216.126 106.708 216.284C107.118 216.443 107.436 216.648 107.66 216.9C107.884 217.152 107.996 217.502 107.996 217.95C107.996 218.641 107.734 219.182 107.212 219.574C106.689 219.957 105.998 220.148 105.14 220.148ZM109.4 217.082V212.7H110.632V216.844C110.632 217.591 110.762 218.151 111.024 218.524C111.285 218.898 111.672 219.084 112.186 219.084C112.522 219.084 112.844 219.014 113.152 218.874C113.469 218.725 113.754 218.515 114.006 218.244C114.258 217.974 114.454 217.652 114.594 217.278V212.7H115.826V218.608C115.826 218.758 115.854 218.87 115.91 218.944C115.975 219.01 116.078 219.047 116.218 219.056V220.008C116.078 220.027 115.966 220.036 115.882 220.036C115.807 220.046 115.732 220.05 115.658 220.05C115.424 220.05 115.224 219.98 115.056 219.84C114.888 219.691 114.799 219.509 114.79 219.294L114.762 218.44C114.444 218.982 114.015 219.402 113.474 219.7C112.942 219.999 112.358 220.148 111.724 220.148C110.958 220.148 110.38 219.892 109.988 219.378C109.596 218.856 109.4 218.09 109.4 217.082ZM128.896 220.008H127.664V215.92C127.664 215.155 127.538 214.59 127.286 214.226C127.043 213.862 126.679 213.68 126.194 213.68C125.699 213.68 125.251 213.862 124.85 214.226C124.449 214.581 124.164 215.043 123.996 215.612V220.008H122.764V215.92C122.764 215.146 122.643 214.581 122.4 214.226C122.157 213.862 121.793 213.68 121.308 213.68C120.823 213.68 120.375 213.858 119.964 214.212C119.563 214.558 119.278 215.02 119.11 215.598V220.008H117.878V212.7H118.998V214.268C119.297 213.727 119.684 213.312 120.16 213.022C120.636 212.724 121.173 212.574 121.77 212.574C122.377 212.574 122.862 212.742 123.226 213.078C123.59 213.405 123.814 213.83 123.898 214.352C124.225 213.774 124.621 213.335 125.088 213.036C125.555 212.728 126.087 212.574 126.684 212.574C127.104 212.574 127.454 212.654 127.734 212.812C128.023 212.962 128.252 213.176 128.42 213.456C128.588 213.727 128.709 214.049 128.784 214.422C128.859 214.796 128.896 215.202 128.896 215.64V220.008ZM133.877 216.368C133.877 215.678 134.017 215.048 134.297 214.478C134.586 213.9 134.978 213.438 135.473 213.092C135.977 212.747 136.551 212.574 137.195 212.574C137.783 212.574 138.31 212.728 138.777 213.036C139.243 213.344 139.607 213.718 139.869 214.156V209.788H141.101V218.608C141.101 218.758 141.129 218.87 141.185 218.944C141.25 219.01 141.353 219.047 141.493 219.056V220.008C141.259 220.046 141.077 220.064 140.947 220.064C140.704 220.064 140.489 219.98 140.303 219.812C140.125 219.644 140.037 219.458 140.037 219.252V218.636C139.747 219.103 139.36 219.472 138.875 219.742C138.389 220.013 137.885 220.148 137.363 220.148C136.859 220.148 136.392 220.05 135.963 219.854C135.543 219.649 135.174 219.369 134.857 219.014C134.549 218.66 134.306 218.258 134.129 217.81C133.961 217.353 133.877 216.872 133.877 216.368ZM139.869 217.446V215.346C139.757 215.029 139.575 214.744 139.323 214.492C139.071 214.231 138.786 214.026 138.469 213.876C138.161 213.718 137.853 213.638 137.545 213.638C137.181 213.638 136.849 213.718 136.551 213.876C136.261 214.026 136.009 214.231 135.795 214.492C135.589 214.744 135.431 215.034 135.319 215.36C135.207 215.687 135.151 216.028 135.151 216.382C135.151 216.746 135.211 217.092 135.333 217.418C135.463 217.745 135.641 218.034 135.865 218.286C136.098 218.538 136.364 218.734 136.663 218.874C136.971 219.014 137.302 219.084 137.657 219.084C137.881 219.084 138.109 219.042 138.343 218.958C138.585 218.874 138.814 218.758 139.029 218.608C139.243 218.459 139.425 218.286 139.575 218.09C139.724 217.885 139.822 217.67 139.869 217.446ZM146.349 220.148C145.799 220.148 145.299 220.05 144.851 219.854C144.403 219.649 144.016 219.374 143.689 219.028C143.363 218.674 143.111 218.268 142.933 217.81C142.756 217.353 142.667 216.872 142.667 216.368C142.667 215.855 142.756 215.37 142.933 214.912C143.111 214.455 143.363 214.054 143.689 213.708C144.016 213.354 144.403 213.078 144.851 212.882C145.309 212.677 145.808 212.574 146.349 212.574C146.9 212.574 147.399 212.677 147.847 212.882C148.295 213.078 148.683 213.354 149.009 213.708C149.345 214.054 149.602 214.455 149.779 214.912C149.957 215.37 150.045 215.855 150.045 216.368C150.045 216.872 149.957 217.353 149.779 217.81C149.602 218.268 149.35 218.674 149.023 219.028C148.697 219.374 148.305 219.649 147.847 219.854C147.399 220.05 146.9 220.148 146.349 220.148ZM143.927 216.382C143.927 216.886 144.035 217.344 144.249 217.754C144.473 218.165 144.767 218.492 145.131 218.734C145.495 218.968 145.901 219.084 146.349 219.084C146.797 219.084 147.203 218.963 147.567 218.72C147.941 218.478 148.235 218.151 148.449 217.74C148.673 217.32 148.785 216.858 148.785 216.354C148.785 215.85 148.673 215.393 148.449 214.982C148.235 214.572 147.941 214.245 147.567 214.002C147.203 213.76 146.797 213.638 146.349 213.638C145.901 213.638 145.495 213.764 145.131 214.016C144.767 214.259 144.473 214.586 144.249 214.996C144.035 215.407 143.927 215.869 143.927 216.382ZM151.566 209.788H152.798V218.118C152.798 218.52 152.854 218.767 152.966 218.86C153.078 218.954 153.213 219 153.372 219C153.568 219 153.755 218.982 153.932 218.944C154.109 218.898 154.259 218.851 154.38 218.804L154.576 219.812C154.371 219.896 154.128 219.966 153.848 220.022C153.568 220.078 153.321 220.106 153.106 220.106C152.63 220.106 152.252 219.971 151.972 219.7C151.701 219.43 151.566 219.052 151.566 218.566V209.788ZM158.736 220.148C158.185 220.148 157.686 220.05 157.238 219.854C156.79 219.649 156.403 219.374 156.076 219.028C155.749 218.674 155.497 218.268 155.32 217.81C155.143 217.353 155.054 216.872 155.054 216.368C155.054 215.855 155.143 215.37 155.32 214.912C155.497 214.455 155.749 214.054 156.076 213.708C156.403 213.354 156.79 213.078 157.238 212.882C157.695 212.677 158.195 212.574 158.736 212.574C159.287 212.574 159.786 212.677 160.234 212.882C160.682 213.078 161.069 213.354 161.396 213.708C161.732 214.054 161.989 214.455 162.166 214.912C162.343 215.37 162.432 215.855 162.432 216.368C162.432 216.872 162.343 217.353 162.166 217.81C161.989 218.268 161.737 218.674 161.41 219.028C161.083 219.374 160.691 219.649 160.234 219.854C159.786 220.05 159.287 220.148 158.736 220.148ZM156.314 216.382C156.314 216.886 156.421 217.344 156.636 217.754C156.86 218.165 157.154 218.492 157.518 218.734C157.882 218.968 158.288 219.084 158.736 219.084C159.184 219.084 159.59 218.963 159.954 218.72C160.327 218.478 160.621 218.151 160.836 217.74C161.06 217.32 161.172 216.858 161.172 216.354C161.172 215.85 161.06 215.393 160.836 214.982C160.621 214.572 160.327 214.245 159.954 214.002C159.59 213.76 159.184 213.638 158.736 213.638C158.288 213.638 157.882 213.764 157.518 214.016C157.154 214.259 156.86 214.586 156.636 214.996C156.421 215.407 156.314 215.869 156.314 216.382ZM167.789 213.778C167.173 213.788 166.627 213.946 166.151 214.254C165.684 214.553 165.353 214.968 165.157 215.5V220.008H163.925V212.7H165.073V214.394C165.325 213.89 165.656 213.484 166.067 213.176C166.487 212.859 166.925 212.682 167.383 212.644C167.476 212.644 167.555 212.644 167.621 212.644C167.686 212.644 167.742 212.649 167.789 212.658V213.778ZM174.73 220.148C174.123 220.148 173.554 220.05 173.022 219.854C172.49 219.649 172.032 219.346 171.65 218.944L172.126 218.076C172.546 218.468 172.966 218.748 173.386 218.916C173.806 219.084 174.235 219.168 174.674 219.168C175.178 219.168 175.588 219.075 175.906 218.888C176.223 218.692 176.382 218.408 176.382 218.034C176.382 217.764 176.298 217.563 176.13 217.432C175.971 217.302 175.742 217.194 175.444 217.11C175.145 217.017 174.79 216.914 174.38 216.802C173.876 216.653 173.451 216.494 173.106 216.326C172.76 216.158 172.499 215.948 172.322 215.696C172.144 215.444 172.056 215.127 172.056 214.744C172.056 214.278 172.177 213.886 172.42 213.568C172.662 213.242 172.994 212.994 173.414 212.826C173.843 212.658 174.328 212.574 174.87 212.574C175.411 212.574 175.901 212.658 176.34 212.826C176.778 212.994 177.156 213.242 177.474 213.568L176.914 214.422C176.624 214.124 176.307 213.904 175.962 213.764C175.616 213.615 175.229 213.54 174.8 213.54C174.548 213.54 174.3 213.573 174.058 213.638C173.815 213.694 173.614 213.802 173.456 213.96C173.297 214.11 173.218 214.324 173.218 214.604C173.218 214.838 173.278 215.024 173.4 215.164C173.53 215.295 173.717 215.407 173.96 215.5C174.212 215.594 174.515 215.696 174.87 215.808C175.42 215.967 175.896 216.126 176.298 216.284C176.708 216.443 177.026 216.648 177.25 216.9C177.474 217.152 177.586 217.502 177.586 217.95C177.586 218.641 177.324 219.182 176.802 219.574C176.279 219.957 175.588 220.148 174.73 220.148ZM179.06 220.008V212.7H180.292V220.008H179.06ZM179.06 211.328V209.788H180.292V211.328H179.06ZM186.066 219.644C185.963 219.691 185.823 219.752 185.646 219.826C185.469 219.901 185.263 219.966 185.03 220.022C184.797 220.078 184.549 220.106 184.288 220.106C183.989 220.106 183.714 220.055 183.462 219.952C183.21 219.84 183.009 219.672 182.86 219.448C182.711 219.215 182.636 218.926 182.636 218.58V213.666H181.642V212.7H182.636V210.264H183.868V212.7H185.506V213.666H183.868V218.202C183.887 218.464 183.975 218.66 184.134 218.79C184.293 218.912 184.479 218.972 184.694 218.972C184.937 218.972 185.161 218.93 185.366 218.846C185.571 218.762 185.707 218.702 185.772 218.664L186.066 219.644ZM190.175 217.894C190.175 217.428 190.306 217.026 190.567 216.69C190.838 216.345 191.206 216.079 191.673 215.892C192.14 215.706 192.681 215.612 193.297 215.612C193.624 215.612 193.969 215.64 194.333 215.696C194.697 215.743 195.019 215.818 195.299 215.92V215.388C195.299 214.828 195.131 214.39 194.795 214.072C194.459 213.746 193.983 213.582 193.367 213.582C192.966 213.582 192.578 213.657 192.205 213.806C191.841 213.946 191.454 214.152 191.043 214.422L190.595 213.554C191.071 213.228 191.547 212.985 192.023 212.826C192.499 212.658 192.994 212.574 193.507 212.574C194.44 212.574 195.178 212.836 195.719 213.358C196.26 213.872 196.531 214.59 196.531 215.514V218.608C196.531 218.758 196.559 218.87 196.615 218.944C196.68 219.01 196.783 219.047 196.923 219.056V220.008C196.802 220.027 196.694 220.041 196.601 220.05C196.517 220.06 196.447 220.064 196.391 220.064C196.102 220.064 195.882 219.985 195.733 219.826C195.593 219.668 195.514 219.5 195.495 219.322L195.467 218.86C195.15 219.271 194.734 219.588 194.221 219.812C193.708 220.036 193.199 220.148 192.695 220.148C192.21 220.148 191.776 220.05 191.393 219.854C191.01 219.649 190.712 219.378 190.497 219.042C190.282 218.697 190.175 218.314 190.175 217.894ZM194.935 218.412C195.047 218.282 195.136 218.151 195.201 218.02C195.266 217.88 195.299 217.764 195.299 217.67V216.76C195.01 216.648 194.706 216.564 194.389 216.508C194.072 216.443 193.759 216.41 193.451 216.41C192.826 216.41 192.317 216.536 191.925 216.788C191.542 217.031 191.351 217.367 191.351 217.796C191.351 218.03 191.412 218.258 191.533 218.482C191.664 218.697 191.85 218.874 192.093 219.014C192.345 219.154 192.653 219.224 193.017 219.224C193.4 219.224 193.764 219.15 194.109 219C194.454 218.842 194.73 218.646 194.935 218.412ZM209.519 220.008H208.287V215.92C208.287 215.155 208.161 214.59 207.909 214.226C207.666 213.862 207.302 213.68 206.817 213.68C206.322 213.68 205.874 213.862 205.473 214.226C205.072 214.581 204.787 215.043 204.619 215.612V220.008H203.387V215.92C203.387 215.146 203.266 214.581 203.023 214.226C202.78 213.862 202.416 213.68 201.931 213.68C201.446 213.68 200.998 213.858 200.587 214.212C200.186 214.558 199.901 215.02 199.733 215.598V220.008H198.501V212.7H199.621V214.268C199.92 213.727 200.307 213.312 200.783 213.022C201.259 212.724 201.796 212.574 202.393 212.574C203 212.574 203.485 212.742 203.849 213.078C204.213 213.405 204.437 213.83 204.521 214.352C204.848 213.774 205.244 213.335 205.711 213.036C206.178 212.728 206.71 212.574 207.307 212.574C207.727 212.574 208.077 212.654 208.357 212.812C208.646 212.962 208.875 213.176 209.043 213.456C209.211 213.727 209.332 214.049 209.407 214.422C209.482 214.796 209.519 215.202 209.519 215.64V220.008ZM214.669 220.148C214.118 220.148 213.614 220.05 213.157 219.854C212.709 219.649 212.317 219.374 211.981 219.028C211.654 218.674 211.397 218.268 211.211 217.81C211.033 217.353 210.945 216.868 210.945 216.354C210.945 215.664 211.103 215.034 211.421 214.464C211.738 213.895 212.177 213.438 212.737 213.092C213.306 212.747 213.955 212.574 214.683 212.574C215.42 212.574 216.059 212.752 216.601 213.106C217.151 213.452 217.576 213.909 217.875 214.478C218.183 215.038 218.337 215.645 218.337 216.298C218.337 216.392 218.332 216.485 218.323 216.578C218.323 216.662 218.318 216.728 218.309 216.774H212.247C212.284 217.25 212.415 217.675 212.639 218.048C212.872 218.412 213.171 218.702 213.535 218.916C213.899 219.122 214.291 219.224 214.711 219.224C215.159 219.224 215.579 219.112 215.971 218.888C216.372 218.664 216.647 218.37 216.797 218.006L217.861 218.3C217.702 218.655 217.464 218.972 217.147 219.252C216.839 219.532 216.47 219.752 216.041 219.91C215.621 220.069 215.163 220.148 214.669 220.148ZM212.205 215.92H217.189C217.151 215.444 217.016 215.024 216.783 214.66C216.549 214.296 216.251 214.012 215.887 213.806C215.523 213.601 215.121 213.498 214.683 213.498C214.253 213.498 213.857 213.601 213.493 213.806C213.129 214.012 212.83 214.296 212.597 214.66C212.373 215.024 212.242 215.444 212.205 215.92ZM223.418 219.644C223.315 219.691 223.175 219.752 222.998 219.826C222.82 219.901 222.615 219.966 222.382 220.022C222.148 220.078 221.901 220.106 221.64 220.106C221.341 220.106 221.066 220.055 220.814 219.952C220.562 219.84 220.361 219.672 220.212 219.448C220.062 219.215 219.988 218.926 219.988 218.58V213.666H218.994V212.7H219.988V210.264H221.22V212.7H222.858V213.666H221.22V218.202C221.238 218.464 221.327 218.66 221.486 218.79C221.644 218.912 221.831 218.972 222.046 218.972C222.288 218.972 222.512 218.93 222.718 218.846C222.923 218.762 223.058 218.702 223.124 218.664L223.418 219.644ZM224.602 221.142L224.882 219.896H224.462V218.44H225.624V219.896L225.204 221.142H224.602ZM47.817 241.148C47.2663 241.148 46.7623 241.05 46.305 240.854C45.857 240.649 45.465 240.369 45.129 240.014C44.8023 239.66 44.5457 239.254 44.359 238.796C44.1817 238.339 44.093 237.854 44.093 237.34C44.093 236.65 44.247 236.02 44.555 235.45C44.863 234.881 45.297 234.428 45.857 234.092C46.417 233.747 47.0657 233.574 47.803 233.574C48.5217 233.574 49.147 233.738 49.679 234.064C50.2203 234.382 50.6217 234.811 50.883 235.352L49.679 235.73C49.4923 235.385 49.231 235.119 48.895 234.932C48.559 234.736 48.1857 234.638 47.775 234.638C47.327 234.638 46.9163 234.755 46.543 234.988C46.179 235.222 45.8897 235.544 45.675 235.954C45.4603 236.356 45.353 236.818 45.353 237.34C45.353 237.854 45.4603 238.32 45.675 238.74C45.899 239.151 46.193 239.478 46.557 239.72C46.9303 239.963 47.341 240.084 47.789 240.084C48.0783 240.084 48.3537 240.033 48.615 239.93C48.8857 239.828 49.119 239.692 49.315 239.524C49.5203 239.347 49.6603 239.156 49.735 238.95L50.939 239.314C50.7897 239.669 50.561 239.986 50.253 240.266C49.9543 240.537 49.595 240.752 49.175 240.91C48.7643 241.069 48.3117 241.148 47.817 241.148ZM55.4586 241.148C54.9079 241.148 54.4086 241.05 53.9606 240.854C53.5126 240.649 53.1252 240.374 52.7986 240.028C52.4719 239.674 52.2199 239.268 52.0426 238.81C51.8652 238.353 51.7766 237.872 51.7766 237.368C51.7766 236.855 51.8652 236.37 52.0426 235.912C52.2199 235.455 52.4719 235.054 52.7986 234.708C53.1252 234.354 53.5126 234.078 53.9606 233.882C54.4179 233.677 54.9172 233.574 55.4586 233.574C56.0092 233.574 56.5086 233.677 56.9566 233.882C57.4046 234.078 57.7919 234.354 58.1186 234.708C58.4546 235.054 58.7113 235.455 58.8886 235.912C59.0659 236.37 59.1546 236.855 59.1546 237.368C59.1546 237.872 59.0659 238.353 58.8886 238.81C58.7113 239.268 58.4593 239.674 58.1326 240.028C57.8059 240.374 57.4139 240.649 56.9566 240.854C56.5086 241.05 56.0092 241.148 55.4586 241.148ZM53.0366 237.382C53.0366 237.886 53.1439 238.344 53.3586 238.754C53.5826 239.165 53.8766 239.492 54.2406 239.734C54.6046 239.968 55.0106 240.084 55.4586 240.084C55.9066 240.084 56.3126 239.963 56.6766 239.72C57.0499 239.478 57.3439 239.151 57.5586 238.74C57.7826 238.32 57.8946 237.858 57.8946 237.354C57.8946 236.85 57.7826 236.393 57.5586 235.982C57.3439 235.572 57.0499 235.245 56.6766 235.002C56.3126 234.76 55.9066 234.638 55.4586 234.638C55.0106 234.638 54.6046 234.764 54.2406 235.016C53.8766 235.259 53.5826 235.586 53.3586 235.996C53.1439 236.407 53.0366 236.869 53.0366 237.382ZM66.9894 241.008H65.7574V236.92C65.7574 236.146 65.6361 235.581 65.3934 235.226C65.1601 234.862 64.8008 234.68 64.3154 234.68C63.9794 234.68 63.6434 234.764 63.3074 234.932C62.9808 235.1 62.6868 235.329 62.4254 235.618C62.1734 235.898 61.9914 236.225 61.8794 236.598V241.008H60.6474V233.7H61.7674V235.268C61.9634 234.923 62.2154 234.624 62.5234 234.372C62.8314 234.12 63.1814 233.924 63.5734 233.784C63.9654 233.644 64.3761 233.574 64.8054 233.574C65.2254 233.574 65.5754 233.654 65.8554 233.812C66.1448 233.962 66.3688 234.176 66.5274 234.456C66.6954 234.727 66.8121 235.049 66.8774 235.422C66.9521 235.796 66.9894 236.202 66.9894 236.64V241.008ZM71.4113 241.148C70.8046 241.148 70.2353 241.05 69.7033 240.854C69.1713 240.649 68.7139 240.346 68.3313 239.944L68.8073 239.076C69.2273 239.468 69.6473 239.748 70.0673 239.916C70.4873 240.084 70.9166 240.168 71.3553 240.168C71.8593 240.168 72.2699 240.075 72.5873 239.888C72.9046 239.692 73.0633 239.408 73.0633 239.034C73.0633 238.764 72.9793 238.563 72.8113 238.432C72.6526 238.302 72.4239 238.194 72.1253 238.11C71.8266 238.017 71.4719 237.914 71.0613 237.802C70.5573 237.653 70.1326 237.494 69.7873 237.326C69.4419 237.158 69.1806 236.948 69.0033 236.696C68.8259 236.444 68.7373 236.127 68.7373 235.744C68.7373 235.278 68.8586 234.886 69.1013 234.568C69.3439 234.242 69.6753 233.994 70.0953 233.826C70.5246 233.658 71.0099 233.574 71.5513 233.574C72.0926 233.574 72.5826 233.658 73.0213 233.826C73.4599 233.994 73.8379 234.242 74.1553 234.568L73.5953 235.422C73.3059 235.124 72.9886 234.904 72.6433 234.764C72.2979 234.615 71.9106 234.54 71.4813 234.54C71.2293 234.54 70.9819 234.573 70.7393 234.638C70.4966 234.694 70.2959 234.802 70.1373 234.96C69.9786 235.11 69.8993 235.324 69.8993 235.604C69.8993 235.838 69.9599 236.024 70.0813 236.164C70.2119 236.295 70.3986 236.407 70.6413 236.5C70.8933 236.594 71.1966 236.696 71.5513 236.808C72.1019 236.967 72.5779 237.126 72.9793 237.284C73.3899 237.443 73.7073 237.648 73.9313 237.9C74.1553 238.152 74.2673 238.502 74.2673 238.95C74.2673 239.641 74.0059 240.182 73.4833 240.574C72.9606 240.957 72.2699 241.148 71.4113 241.148ZM78.9752 241.148C78.4245 241.148 77.9205 241.05 77.4632 240.854C77.0152 240.649 76.6232 240.374 76.2872 240.028C75.9605 239.674 75.7039 239.268 75.5172 238.81C75.3399 238.353 75.2512 237.868 75.2512 237.354C75.2512 236.664 75.4099 236.034 75.7272 235.464C76.0445 234.895 76.4832 234.438 77.0432 234.092C77.6125 233.747 78.2612 233.574 78.9892 233.574C79.7265 233.574 80.3659 233.752 80.9072 234.106C81.4579 234.452 81.8825 234.909 82.1812 235.478C82.4892 236.038 82.6432 236.645 82.6432 237.298C82.6432 237.392 82.6385 237.485 82.6292 237.578C82.6292 237.662 82.6245 237.728 82.6152 237.774H76.5532C76.5905 238.25 76.7212 238.675 76.9452 239.048C77.1785 239.412 77.4772 239.702 77.8412 239.916C78.2052 240.122 78.5972 240.224 79.0172 240.224C79.4652 240.224 79.8852 240.112 80.2772 239.888C80.6785 239.664 80.9539 239.37 81.1032 239.006L82.1672 239.3C82.0085 239.655 81.7705 239.972 81.4532 240.252C81.1452 240.532 80.7765 240.752 80.3472 240.91C79.9272 241.069 79.4699 241.148 78.9752 241.148ZM76.5112 236.92H81.4952C81.4579 236.444 81.3225 236.024 81.0892 235.66C80.8559 235.296 80.5572 235.012 80.1932 234.806C79.8292 234.601 79.4279 234.498 78.9892 234.498C78.5599 234.498 78.1632 234.601 77.7992 234.806C77.4352 235.012 77.1365 235.296 76.9032 235.66C76.6792 236.024 76.5485 236.444 76.5112 236.92ZM87.2467 241.148C86.696 241.148 86.192 241.05 85.7347 240.854C85.2867 240.649 84.8947 240.369 84.5587 240.014C84.232 239.66 83.9753 239.254 83.7887 238.796C83.6113 238.339 83.5227 237.854 83.5227 237.34C83.5227 236.65 83.6767 236.02 83.9847 235.45C84.2927 234.881 84.7267 234.428 85.2867 234.092C85.8467 233.747 86.4953 233.574 87.2327 233.574C87.9513 233.574 88.5767 233.738 89.1087 234.064C89.65 234.382 90.0513 234.811 90.3127 235.352L89.1087 235.73C88.922 235.385 88.6607 235.119 88.3247 234.932C87.9887 234.736 87.6153 234.638 87.2047 234.638C86.7567 234.638 86.346 234.755 85.9727 234.988C85.6087 235.222 85.3193 235.544 85.1047 235.954C84.89 236.356 84.7827 236.818 84.7827 237.34C84.7827 237.854 84.89 238.32 85.1047 238.74C85.3287 239.151 85.6227 239.478 85.9867 239.72C86.36 239.963 86.7707 240.084 87.2187 240.084C87.508 240.084 87.7833 240.033 88.0447 239.93C88.3153 239.828 88.5487 239.692 88.7447 239.524C88.95 239.347 89.09 239.156 89.1647 238.95L90.3687 239.314C90.2193 239.669 89.9907 239.986 89.6827 240.266C89.384 240.537 89.0247 240.752 88.6047 240.91C88.194 241.069 87.7413 241.148 87.2467 241.148ZM95.5446 240.644C95.442 240.691 95.302 240.752 95.1246 240.826C94.9473 240.901 94.742 240.966 94.5086 241.022C94.2753 241.078 94.028 241.106 93.7666 241.106C93.468 241.106 93.1926 241.055 92.9406 240.952C92.6886 240.84 92.488 240.672 92.3386 240.448C92.1893 240.215 92.1146 239.926 92.1146 239.58V234.666H91.1206V233.7H92.1146V231.264H93.3466V233.7H94.9846V234.666H93.3466V239.202C93.3653 239.464 93.454 239.66 93.6126 239.79C93.7713 239.912 93.958 239.972 94.1726 239.972C94.4153 239.972 94.6393 239.93 94.8446 239.846C95.05 239.762 95.1853 239.702 95.2506 239.664L95.5446 240.644ZM99.8248 241.148C99.2741 241.148 98.7701 241.05 98.3128 240.854C97.8648 240.649 97.4728 240.374 97.1368 240.028C96.8101 239.674 96.5535 239.268 96.3668 238.81C96.1895 238.353 96.1008 237.868 96.1008 237.354C96.1008 236.664 96.2595 236.034 96.5768 235.464C96.8941 234.895 97.3328 234.438 97.8928 234.092C98.4621 233.747 99.1108 233.574 99.8388 233.574C100.576 233.574 101.215 233.752 101.757 234.106C102.307 234.452 102.732 234.909 103.031 235.478C103.339 236.038 103.493 236.645 103.493 237.298C103.493 237.392 103.488 237.485 103.479 237.578C103.479 237.662 103.474 237.728 103.465 237.774H97.4028C97.4401 238.25 97.5708 238.675 97.7948 239.048C98.0281 239.412 98.3268 239.702 98.6908 239.916C99.0548 240.122 99.4468 240.224 99.8668 240.224C100.315 240.224 100.735 240.112 101.127 239.888C101.528 239.664 101.803 239.37 101.953 239.006L103.017 239.3C102.858 239.655 102.62 239.972 102.303 240.252C101.995 240.532 101.626 240.752 101.197 240.91C100.777 241.069 100.319 241.148 99.8248 241.148ZM97.3608 236.92H102.345C102.307 236.444 102.172 236.024 101.939 235.66C101.705 235.296 101.407 235.012 101.043 234.806C100.679 234.601 100.277 234.498 99.8388 234.498C99.4095 234.498 99.0128 234.601 98.6488 234.806C98.2848 235.012 97.9861 235.296 97.7528 235.66C97.5288 236.024 97.3981 236.444 97.3608 236.92ZM108.574 240.644C108.471 240.691 108.331 240.752 108.154 240.826C107.977 240.901 107.771 240.966 107.538 241.022C107.305 241.078 107.057 241.106 106.796 241.106C106.497 241.106 106.222 241.055 105.97 240.952C105.718 240.84 105.517 240.672 105.368 240.448C105.219 240.215 105.144 239.926 105.144 239.58V234.666H104.15V233.7H105.144V231.264H106.376V233.7H108.014V234.666H106.376V239.202C106.395 239.464 106.483 239.66 106.642 239.79C106.801 239.912 106.987 239.972 107.202 239.972C107.445 239.972 107.669 239.93 107.874 239.846C108.079 239.762 108.215 239.702 108.28 239.664L108.574 240.644ZM109.646 238.082V233.7H110.878V237.844C110.878 238.591 111.008 239.151 111.27 239.524C111.531 239.898 111.918 240.084 112.432 240.084C112.768 240.084 113.09 240.014 113.398 239.874C113.715 239.725 114 239.515 114.252 239.244C114.504 238.974 114.7 238.652 114.84 238.278V233.7H116.072V239.608C116.072 239.758 116.1 239.87 116.156 239.944C116.221 240.01 116.324 240.047 116.464 240.056V241.008C116.324 241.027 116.212 241.036 116.128 241.036C116.053 241.046 115.978 241.05 115.904 241.05C115.67 241.05 115.47 240.98 115.302 240.84C115.134 240.691 115.045 240.509 115.036 240.294L115.008 239.44C114.69 239.982 114.261 240.402 113.72 240.7C113.188 240.999 112.604 241.148 111.97 241.148C111.204 241.148 110.626 240.892 110.234 240.378C109.842 239.856 109.646 239.09 109.646 238.082ZM121.988 234.778C121.372 234.788 120.826 234.946 120.35 235.254C119.883 235.553 119.552 235.968 119.356 236.5V241.008H118.124V233.7H119.272V235.394C119.524 234.89 119.855 234.484 120.266 234.176C120.686 233.859 121.125 233.682 121.582 233.644C121.675 233.644 121.755 233.644 121.82 233.644C121.885 233.644 121.941 233.649 121.988 233.658V234.778ZM125.849 238.894C125.849 238.428 125.979 238.026 126.241 237.69C126.511 237.345 126.88 237.079 127.347 236.892C127.813 236.706 128.355 236.612 128.971 236.612C129.297 236.612 129.643 236.64 130.007 236.696C130.371 236.743 130.693 236.818 130.973 236.92V236.388C130.973 235.828 130.805 235.39 130.469 235.072C130.133 234.746 129.657 234.582 129.041 234.582C128.639 234.582 128.252 234.657 127.879 234.806C127.515 234.946 127.127 235.152 126.717 235.422L126.269 234.554C126.745 234.228 127.221 233.985 127.697 233.826C128.173 233.658 128.667 233.574 129.181 233.574C130.114 233.574 130.852 233.836 131.393 234.358C131.934 234.872 132.205 235.59 132.205 236.514V239.608C132.205 239.758 132.233 239.87 132.289 239.944C132.354 240.01 132.457 240.047 132.597 240.056V241.008C132.475 241.027 132.368 241.041 132.275 241.05C132.191 241.06 132.121 241.064 132.065 241.064C131.776 241.064 131.556 240.985 131.407 240.826C131.267 240.668 131.188 240.5 131.169 240.322L131.141 239.86C130.823 240.271 130.408 240.588 129.895 240.812C129.381 241.036 128.873 241.148 128.369 241.148C127.883 241.148 127.449 241.05 127.067 240.854C126.684 240.649 126.385 240.378 126.171 240.042C125.956 239.697 125.849 239.314 125.849 238.894ZM130.609 239.412C130.721 239.282 130.81 239.151 130.875 239.02C130.94 238.88 130.973 238.764 130.973 238.67V237.76C130.683 237.648 130.38 237.564 130.063 237.508C129.746 237.443 129.433 237.41 129.125 237.41C128.499 237.41 127.991 237.536 127.599 237.788C127.216 238.031 127.025 238.367 127.025 238.796C127.025 239.03 127.085 239.258 127.207 239.482C127.337 239.697 127.524 239.874 127.767 240.014C128.019 240.154 128.327 240.224 128.691 240.224C129.073 240.224 129.437 240.15 129.783 240C130.128 239.842 130.403 239.646 130.609 239.412ZM133.699 237.368C133.699 236.678 133.839 236.048 134.119 235.478C134.408 234.9 134.8 234.438 135.295 234.092C135.799 233.747 136.373 233.574 137.017 233.574C137.605 233.574 138.132 233.728 138.599 234.036C139.065 234.344 139.429 234.718 139.691 235.156V230.788H140.923V239.608C140.923 239.758 140.951 239.87 141.007 239.944C141.072 240.01 141.175 240.047 141.315 240.056V241.008C141.081 241.046 140.899 241.064 140.769 241.064C140.526 241.064 140.311 240.98 140.125 240.812C139.947 240.644 139.859 240.458 139.859 240.252V239.636C139.569 240.103 139.182 240.472 138.697 240.742C138.211 241.013 137.707 241.148 137.185 241.148C136.681 241.148 136.214 241.05 135.785 240.854C135.365 240.649 134.996 240.369 134.679 240.014C134.371 239.66 134.128 239.258 133.951 238.81C133.783 238.353 133.699 237.872 133.699 237.368ZM139.691 238.446V236.346C139.579 236.029 139.397 235.744 139.145 235.492C138.893 235.231 138.608 235.026 138.291 234.876C137.983 234.718 137.675 234.638 137.367 234.638C137.003 234.638 136.671 234.718 136.373 234.876C136.083 235.026 135.831 235.231 135.617 235.492C135.411 235.744 135.253 236.034 135.141 236.36C135.029 236.687 134.973 237.028 134.973 237.382C134.973 237.746 135.033 238.092 135.155 238.418C135.285 238.745 135.463 239.034 135.687 239.286C135.92 239.538 136.186 239.734 136.485 239.874C136.793 240.014 137.124 240.084 137.479 240.084C137.703 240.084 137.931 240.042 138.165 239.958C138.407 239.874 138.636 239.758 138.851 239.608C139.065 239.459 139.247 239.286 139.397 239.09C139.546 238.885 139.644 238.67 139.691 238.446ZM142.979 241.008V233.7H144.211V241.008H142.979ZM142.979 232.328V230.788H144.211V232.328H142.979ZM150.14 241.148C149.543 241.148 149.011 240.999 148.544 240.7C148.077 240.402 147.709 240.024 147.438 239.566V243.99H146.206V233.7H147.298V235.072C147.587 234.624 147.965 234.265 148.432 233.994C148.899 233.714 149.407 233.574 149.958 233.574C150.462 233.574 150.924 233.677 151.344 233.882C151.764 234.088 152.128 234.368 152.436 234.722C152.744 235.077 152.982 235.483 153.15 235.94C153.327 236.388 153.416 236.86 153.416 237.354C153.416 238.045 153.276 238.68 152.996 239.258C152.725 239.837 152.343 240.299 151.848 240.644C151.353 240.98 150.784 241.148 150.14 241.148ZM149.762 240.084C150.126 240.084 150.453 240.01 150.742 239.86C151.041 239.702 151.293 239.496 151.498 239.244C151.713 238.983 151.876 238.689 151.988 238.362C152.1 238.036 152.156 237.7 152.156 237.354C152.156 236.99 152.091 236.645 151.96 236.318C151.839 235.992 151.661 235.702 151.428 235.45C151.204 235.198 150.938 235.002 150.63 234.862C150.331 234.713 150.005 234.638 149.65 234.638C149.426 234.638 149.193 234.68 148.95 234.764C148.717 234.848 148.493 234.97 148.278 235.128C148.063 235.278 147.881 235.45 147.732 235.646C147.583 235.842 147.485 236.052 147.438 236.276V238.362C147.578 238.68 147.765 238.969 147.998 239.23C148.231 239.492 148.502 239.702 148.81 239.86C149.118 240.01 149.435 240.084 149.762 240.084ZM154.929 241.008V233.7H156.161V241.008H154.929ZM154.929 232.328V230.788H156.161V232.328H154.929ZM160.661 241.148C160.055 241.148 159.485 241.05 158.953 240.854C158.421 240.649 157.964 240.346 157.581 239.944L158.057 239.076C158.477 239.468 158.897 239.748 159.317 239.916C159.737 240.084 160.167 240.168 160.605 240.168C161.109 240.168 161.52 240.075 161.837 239.888C162.155 239.692 162.313 239.408 162.313 239.034C162.313 238.764 162.229 238.563 162.061 238.432C161.903 238.302 161.674 238.194 161.375 238.11C161.077 238.017 160.722 237.914 160.311 237.802C159.807 237.653 159.383 237.494 159.037 237.326C158.692 237.158 158.431 236.948 158.253 236.696C158.076 236.444 157.987 236.127 157.987 235.744C157.987 235.278 158.109 234.886 158.351 234.568C158.594 234.242 158.925 233.994 159.345 233.826C159.775 233.658 160.26 233.574 160.801 233.574C161.343 233.574 161.833 233.658 162.271 233.826C162.71 233.994 163.088 234.242 163.405 234.568L162.845 235.422C162.556 235.124 162.239 234.904 161.893 234.764C161.548 234.615 161.161 234.54 160.731 234.54C160.479 234.54 160.232 234.573 159.989 234.638C159.747 234.694 159.546 234.802 159.387 234.96C159.229 235.11 159.149 235.324 159.149 235.604C159.149 235.838 159.21 236.024 159.331 236.164C159.462 236.295 159.649 236.407 159.891 236.5C160.143 236.594 160.447 236.696 160.801 236.808C161.352 236.967 161.828 237.126 162.229 237.284C162.64 237.443 162.957 237.648 163.181 237.9C163.405 238.152 163.517 238.502 163.517 238.95C163.517 239.641 163.256 240.182 162.733 240.574C162.211 240.957 161.52 241.148 160.661 241.148ZM168.225 241.148C167.675 241.148 167.171 241.05 166.713 240.854C166.265 240.649 165.873 240.369 165.537 240.014C165.211 239.66 164.954 239.254 164.767 238.796C164.59 238.339 164.501 237.854 164.501 237.34C164.501 236.65 164.655 236.02 164.963 235.45C165.271 234.881 165.705 234.428 166.265 234.092C166.825 233.747 167.474 233.574 168.211 233.574C168.93 233.574 169.555 233.738 170.087 234.064C170.629 234.382 171.03 234.811 171.291 235.352L170.087 235.73C169.901 235.385 169.639 235.119 169.303 234.932C168.967 234.736 168.594 234.638 168.183 234.638C167.735 234.638 167.325 234.755 166.951 234.988C166.587 235.222 166.298 235.544 166.083 235.954C165.869 236.356 165.761 236.818 165.761 237.34C165.761 237.854 165.869 238.32 166.083 238.74C166.307 239.151 166.601 239.478 166.965 239.72C167.339 239.963 167.749 240.084 168.197 240.084C168.487 240.084 168.762 240.033 169.023 239.93C169.294 239.828 169.527 239.692 169.723 239.524C169.929 239.347 170.069 239.156 170.143 238.95L171.347 239.314C171.198 239.669 170.969 239.986 170.661 240.266C170.363 240.537 170.003 240.752 169.583 240.91C169.173 241.069 168.72 241.148 168.225 241.148ZM172.743 241.008V233.7H173.975V241.008H172.743ZM172.743 232.328V230.788H173.975V232.328H172.743ZM182.312 241.008H181.08V236.92C181.08 236.146 180.958 235.581 180.716 235.226C180.482 234.862 180.123 234.68 179.638 234.68C179.302 234.68 178.966 234.764 178.63 234.932C178.303 235.1 178.009 235.329 177.748 235.618C177.496 235.898 177.314 236.225 177.202 236.598V241.008H175.97V233.7H177.09V235.268C177.286 234.923 177.538 234.624 177.846 234.372C178.154 234.12 178.504 233.924 178.896 233.784C179.288 233.644 179.698 233.574 180.128 233.574C180.548 233.574 180.898 233.654 181.178 233.812C181.467 233.962 181.691 234.176 181.85 234.456C182.018 234.727 182.134 235.049 182.2 235.422C182.274 235.796 182.312 236.202 182.312 236.64V241.008ZM187.14 241.092C186.645 241.092 186.188 240.994 185.768 240.798C185.357 240.593 185.002 240.318 184.704 239.972C184.405 239.618 184.172 239.216 184.004 238.768C183.845 238.32 183.766 237.854 183.766 237.368C183.766 236.855 183.845 236.37 184.004 235.912C184.172 235.455 184.405 235.054 184.704 234.708C185.012 234.354 185.371 234.078 185.782 233.882C186.192 233.677 186.65 233.574 187.154 233.574C187.76 233.574 188.288 233.724 188.736 234.022C189.193 234.321 189.576 234.699 189.884 235.156V233.7H190.976V240.924C190.976 241.615 190.808 242.198 190.472 242.674C190.145 243.15 189.697 243.51 189.128 243.752C188.568 244.004 187.942 244.13 187.252 244.13C186.43 244.13 185.758 243.986 185.236 243.696C184.713 243.407 184.279 243.015 183.934 242.52L184.648 241.89C184.937 242.32 185.31 242.642 185.768 242.856C186.234 243.071 186.729 243.178 187.252 243.178C187.7 243.178 188.11 243.094 188.484 242.926C188.866 242.768 189.17 242.52 189.394 242.184C189.627 241.848 189.744 241.428 189.744 240.924V239.636C189.473 240.084 189.1 240.439 188.624 240.7C188.157 240.962 187.662 241.092 187.14 241.092ZM187.518 240.084C187.779 240.084 188.031 240.038 188.274 239.944C188.516 239.851 188.74 239.73 188.946 239.58C189.151 239.422 189.324 239.244 189.464 239.048C189.604 238.852 189.697 238.652 189.744 238.446V236.346C189.613 236.01 189.426 235.716 189.184 235.464C188.941 235.203 188.666 235.002 188.358 234.862C188.05 234.713 187.732 234.638 187.406 234.638C187.032 234.638 186.696 234.718 186.398 234.876C186.108 235.035 185.861 235.25 185.656 235.52C185.45 235.782 185.292 236.076 185.18 236.402C185.068 236.729 185.012 237.06 185.012 237.396C185.012 237.76 185.077 238.106 185.208 238.432C185.338 238.75 185.516 239.034 185.74 239.286C185.964 239.538 186.23 239.734 186.538 239.874C186.846 240.014 187.172 240.084 187.518 240.084ZM199.739 241.148C199.188 241.148 198.684 241.05 198.227 240.854C197.779 240.649 197.387 240.374 197.051 240.028C196.724 239.674 196.468 239.268 196.281 238.81C196.104 238.353 196.015 237.868 196.015 237.354C196.015 236.664 196.174 236.034 196.491 235.464C196.808 234.895 197.247 234.438 197.807 234.092C198.376 233.747 199.025 233.574 199.753 233.574C200.49 233.574 201.13 233.752 201.671 234.106C202.222 234.452 202.646 234.909 202.945 235.478C203.253 236.038 203.407 236.645 203.407 237.298C203.407 237.392 203.402 237.485 203.393 237.578C203.393 237.662 203.388 237.728 203.379 237.774H197.317C197.354 238.25 197.485 238.675 197.709 239.048C197.942 239.412 198.241 239.702 198.605 239.916C198.969 240.122 199.361 240.224 199.781 240.224C200.229 240.224 200.649 240.112 201.041 239.888C201.442 239.664 201.718 239.37 201.867 239.006L202.931 239.3C202.772 239.655 202.534 239.972 202.217 240.252C201.909 240.532 201.54 240.752 201.111 240.91C200.691 241.069 200.234 241.148 199.739 241.148ZM197.275 236.92H202.259C202.222 236.444 202.086 236.024 201.853 235.66C201.62 235.296 201.321 235.012 200.957 234.806C200.593 234.601 200.192 234.498 199.753 234.498C199.324 234.498 198.927 234.601 198.563 234.806C198.199 235.012 197.9 235.296 197.667 235.66C197.443 236.024 197.312 236.444 197.275 236.92ZM204.804 230.788H206.036V239.118C206.036 239.52 206.092 239.767 206.204 239.86C206.316 239.954 206.452 240 206.61 240C206.806 240 206.993 239.982 207.17 239.944C207.348 239.898 207.497 239.851 207.618 239.804L207.814 240.812C207.609 240.896 207.366 240.966 207.086 241.022C206.806 241.078 206.559 241.106 206.344 241.106C205.868 241.106 205.49 240.971 205.21 240.7C204.94 240.43 204.804 240.052 204.804 239.566V230.788ZM208.782 241.008V233.7H210.014V241.008H208.782ZM208.782 232.328V230.788H210.014V232.328H208.782ZM215.789 240.644C215.686 240.691 215.546 240.752 215.369 240.826C215.191 240.901 214.986 240.966 214.753 241.022C214.519 241.078 214.272 241.106 214.011 241.106C213.712 241.106 213.437 241.055 213.185 240.952C212.933 240.84 212.732 240.672 212.583 240.448C212.433 240.215 212.359 239.926 212.359 239.58V234.666H211.365V233.7H212.359V231.264H213.591V233.7H215.229V234.666H213.591V239.202C213.609 239.464 213.698 239.66 213.857 239.79C214.015 239.912 214.202 239.972 214.417 239.972C214.659 239.972 214.883 239.93 215.089 239.846C215.294 239.762 215.429 239.702 215.495 239.664L215.789 240.644ZM216.973 242.142L217.253 240.896H216.833V239.44H217.995V240.896L217.575 242.142H216.973ZM225.931 241.148C225.324 241.148 224.755 241.05 224.223 240.854C223.691 240.649 223.233 240.346 222.851 239.944L223.327 239.076C223.747 239.468 224.167 239.748 224.587 239.916C225.007 240.084 225.436 240.168 225.875 240.168C226.379 240.168 226.789 240.075 227.107 239.888C227.424 239.692 227.583 239.408 227.583 239.034C227.583 238.764 227.499 238.563 227.331 238.432C227.172 238.302 226.943 238.194 226.645 238.11C226.346 238.017 225.991 237.914 225.581 237.802C225.077 237.653 224.652 237.494 224.307 237.326C223.961 237.158 223.7 236.948 223.523 236.696C223.345 236.444 223.257 236.127 223.257 235.744C223.257 235.278 223.378 234.886 223.621 234.568C223.863 234.242 224.195 233.994 224.615 233.826C225.044 233.658 225.529 233.574 226.071 233.574C226.612 233.574 227.102 233.658 227.541 233.826C227.979 233.994 228.357 234.242 228.675 234.568L228.115 235.422C227.825 235.124 227.508 234.904 227.163 234.764C226.817 234.615 226.43 234.54 226.001 234.54C225.749 234.54 225.501 234.573 225.259 234.638C225.016 234.694 224.815 234.802 224.657 234.96C224.498 235.11 224.419 235.324 224.419 235.604C224.419 235.838 224.479 236.024 224.601 236.164C224.731 236.295 224.918 236.407 225.161 236.5C225.413 236.594 225.716 236.696 226.071 236.808C226.621 236.967 227.097 237.126 227.499 237.284C227.909 237.443 228.227 237.648 228.451 237.9C228.675 238.152 228.787 238.502 228.787 238.95C228.787 239.641 228.525 240.182 228.003 240.574C227.48 240.957 226.789 241.148 225.931 241.148ZM233.495 241.148C232.944 241.148 232.44 241.05 231.983 240.854C231.535 240.649 231.143 240.374 230.807 240.028C230.48 239.674 230.223 239.268 230.037 238.81C229.859 238.353 229.771 237.868 229.771 237.354C229.771 236.664 229.929 236.034 230.247 235.464C230.564 234.895 231.003 234.438 231.563 234.092C232.132 233.747 232.781 233.574 233.509 233.574C234.246 233.574 234.885 233.752 235.427 234.106C235.977 234.452 236.402 234.909 236.701 235.478C237.009 236.038 237.163 236.645 237.163 237.298C237.163 237.392 237.158 237.485 237.149 237.578C237.149 237.662 237.144 237.728 237.135 237.774H231.073C231.11 238.25 231.241 238.675 231.465 239.048C231.698 239.412 231.997 239.702 232.361 239.916C232.725 240.122 233.117 240.224 233.537 240.224C233.985 240.224 234.405 240.112 234.797 239.888C235.198 239.664 235.473 239.37 235.623 239.006L236.687 239.3C236.528 239.655 236.29 239.972 235.973 240.252C235.665 240.532 235.296 240.752 234.867 240.91C234.447 241.069 233.989 241.148 233.495 241.148ZM231.031 236.92H236.015C235.977 236.444 235.842 236.024 235.609 235.66C235.375 235.296 235.077 235.012 234.713 234.806C234.349 234.601 233.947 234.498 233.509 234.498C233.079 234.498 232.683 234.601 232.319 234.806C231.955 235.012 231.656 235.296 231.423 235.66C231.199 236.024 231.068 236.444 231.031 236.92ZM238.056 237.368C238.056 236.678 238.196 236.048 238.476 235.478C238.766 234.9 239.158 234.438 239.652 234.092C240.156 233.747 240.73 233.574 241.374 233.574C241.962 233.574 242.49 233.728 242.956 234.036C243.423 234.344 243.787 234.718 244.048 235.156V230.788H245.28V239.608C245.28 239.758 245.308 239.87 245.364 239.944C245.43 240.01 245.532 240.047 245.672 240.056V241.008C245.439 241.046 245.257 241.064 245.126 241.064C244.884 241.064 244.669 240.98 244.482 240.812C244.305 240.644 244.216 240.458 244.216 240.252V239.636C243.927 240.103 243.54 240.472 243.054 240.742C242.569 241.013 242.065 241.148 241.542 241.148C241.038 241.148 240.572 241.05 240.142 240.854C239.722 240.649 239.354 240.369 239.036 240.014C238.728 239.66 238.486 239.258 238.308 238.81C238.14 238.353 238.056 237.872 238.056 237.368ZM244.048 238.446V236.346C243.936 236.029 243.754 235.744 243.502 235.492C243.25 235.231 242.966 235.026 242.648 234.876C242.34 234.718 242.032 234.638 241.724 234.638C241.36 234.638 241.029 234.718 240.73 234.876C240.441 235.026 240.189 235.231 239.974 235.492C239.769 235.744 239.61 236.034 239.498 236.36C239.386 236.687 239.33 237.028 239.33 237.382C239.33 237.746 239.391 238.092 239.512 238.418C239.643 238.745 239.82 239.034 240.044 239.286C240.278 239.538 240.544 239.734 240.842 239.874C241.15 240.014 241.482 240.084 241.836 240.084C242.06 240.084 242.289 240.042 242.522 239.958C242.765 239.874 242.994 239.758 243.208 239.608C243.423 239.459 243.605 239.286 243.754 239.09C243.904 238.885 244.002 238.67 244.048 238.446ZM44.107 258.368C44.107 257.678 44.247 257.048 44.527 256.478C44.8163 255.9 45.2083 255.438 45.703 255.092C46.207 254.747 46.781 254.574 47.425 254.574C48.013 254.574 48.5403 254.728 49.007 255.036C49.4737 255.344 49.8377 255.718 50.099 256.156V251.788H51.331V260.608C51.331 260.758 51.359 260.87 51.415 260.944C51.4803 261.01 51.583 261.047 51.723 261.056V262.008C51.4897 262.046 51.3077 262.064 51.177 262.064C50.9343 262.064 50.7197 261.98 50.533 261.812C50.3557 261.644 50.267 261.458 50.267 261.252V260.636C49.9777 261.103 49.5903 261.472 49.105 261.742C48.6197 262.013 48.1157 262.148 47.593 262.148C47.089 262.148 46.6223 262.05 46.193 261.854C45.773 261.649 45.4043 261.369 45.087 261.014C44.779 260.66 44.5363 260.258 44.359 259.81C44.191 259.353 44.107 258.872 44.107 258.368ZM50.099 259.446V257.346C49.987 257.029 49.805 256.744 49.553 256.492C49.301 256.231 49.0163 256.026 48.699 255.876C48.391 255.718 48.083 255.638 47.775 255.638C47.411 255.638 47.0797 255.718 46.781 255.876C46.4917 256.026 46.2397 256.231 46.025 256.492C45.8197 256.744 45.661 257.034 45.549 257.36C45.437 257.687 45.381 258.028 45.381 258.382C45.381 258.746 45.4417 259.092 45.563 259.418C45.6937 259.745 45.871 260.034 46.095 260.286C46.3283 260.538 46.5943 260.734 46.893 260.874C47.201 261.014 47.5323 261.084 47.887 261.084C48.111 261.084 48.3397 261.042 48.573 260.958C48.8157 260.874 49.0443 260.758 49.259 260.608C49.4737 260.459 49.6557 260.286 49.805 260.09C49.9543 259.885 50.0523 259.67 50.099 259.446ZM56.5797 262.148C56.029 262.148 55.5297 262.05 55.0817 261.854C54.6337 261.649 54.2463 261.374 53.9197 261.028C53.593 260.674 53.341 260.268 53.1637 259.81C52.9863 259.353 52.8977 258.872 52.8977 258.368C52.8977 257.855 52.9863 257.37 53.1637 256.912C53.341 256.455 53.593 256.054 53.9197 255.708C54.2463 255.354 54.6337 255.078 55.0817 254.882C55.539 254.677 56.0383 254.574 56.5797 254.574C57.1303 254.574 57.6297 254.677 58.0777 254.882C58.5257 255.078 58.913 255.354 59.2397 255.708C59.5757 256.054 59.8323 256.455 60.0097 256.912C60.187 257.37 60.2757 257.855 60.2757 258.368C60.2757 258.872 60.187 259.353 60.0097 259.81C59.8323 260.268 59.5803 260.674 59.2537 261.028C58.927 261.374 58.535 261.649 58.0777 261.854C57.6297 262.05 57.1303 262.148 56.5797 262.148ZM54.1577 258.382C54.1577 258.886 54.265 259.344 54.4797 259.754C54.7037 260.165 54.9977 260.492 55.3617 260.734C55.7257 260.968 56.1317 261.084 56.5797 261.084C57.0277 261.084 57.4337 260.963 57.7977 260.72C58.171 260.478 58.465 260.151 58.6797 259.74C58.9037 259.32 59.0157 258.858 59.0157 258.354C59.0157 257.85 58.9037 257.393 58.6797 256.982C58.465 256.572 58.171 256.245 57.7977 256.002C57.4337 255.76 57.0277 255.638 56.5797 255.638C56.1317 255.638 55.7257 255.764 55.3617 256.016C54.9977 256.259 54.7037 256.586 54.4797 256.996C54.265 257.407 54.1577 257.869 54.1577 258.382ZM68.5436 262.148C67.9929 262.148 67.4889 262.05 67.0316 261.854C66.5836 261.649 66.1916 261.374 65.8556 261.028C65.5289 260.674 65.2722 260.268 65.0856 259.81C64.9082 259.353 64.8196 258.868 64.8196 258.354C64.8196 257.664 64.9782 257.034 65.2956 256.464C65.6129 255.895 66.0516 255.438 66.6116 255.092C67.1809 254.747 67.8296 254.574 68.5576 254.574C69.2949 254.574 69.9342 254.752 70.4756 255.106C71.0262 255.452 71.4509 255.909 71.7496 256.478C72.0576 257.038 72.2116 257.645 72.2116 258.298C72.2116 258.392 72.2069 258.485 72.1976 258.578C72.1976 258.662 72.1929 258.728 72.1836 258.774H66.1216C66.1589 259.25 66.2896 259.675 66.5136 260.048C66.7469 260.412 67.0456 260.702 67.4096 260.916C67.7736 261.122 68.1656 261.224 68.5856 261.224C69.0336 261.224 69.4536 261.112 69.8456 260.888C70.2469 260.664 70.5222 260.37 70.6716 260.006L71.7356 260.3C71.5769 260.655 71.3389 260.972 71.0216 261.252C70.7136 261.532 70.3449 261.752 69.9156 261.91C69.4956 262.069 69.0382 262.148 68.5436 262.148ZM66.0796 257.92H71.0636C71.0262 257.444 70.8909 257.024 70.6576 256.66C70.4242 256.296 70.1256 256.012 69.7616 255.806C69.3976 255.601 68.9962 255.498 68.5576 255.498C68.1282 255.498 67.7316 255.601 67.3676 255.806C67.0036 256.012 66.7049 256.296 66.4716 256.66C66.2476 257.024 66.1169 257.444 66.0796 257.92ZM73.581 262.008V254.7H74.813V262.008H73.581ZM73.581 253.328V251.788H74.813V253.328H73.581ZM76.7376 259.082V254.7H77.9696V258.844C77.9696 259.591 78.1003 260.151 78.3616 260.524C78.6229 260.898 79.0103 261.084 79.5236 261.084C79.8596 261.084 80.1816 261.014 80.4896 260.874C80.8069 260.725 81.0916 260.515 81.3436 260.244C81.5956 259.974 81.7916 259.652 81.9316 259.278V254.7H83.1636V260.608C83.1636 260.758 83.1916 260.87 83.2476 260.944C83.3129 261.01 83.4156 261.047 83.5556 261.056V262.008C83.4156 262.027 83.3036 262.036 83.2196 262.036C83.1449 262.046 83.0703 262.05 82.9956 262.05C82.7623 262.05 82.5616 261.98 82.3936 261.84C82.2256 261.691 82.1369 261.509 82.1276 261.294L82.0996 260.44C81.7823 260.982 81.3529 261.402 80.8116 261.7C80.2796 261.999 79.6963 262.148 79.0616 262.148C78.2963 262.148 77.7176 261.892 77.3256 261.378C76.9336 260.856 76.7376 260.09 76.7376 259.082ZM87.7218 262.148C87.1151 262.148 86.5458 262.05 86.0138 261.854C85.4818 261.649 85.0245 261.346 84.6418 260.944L85.1178 260.076C85.5378 260.468 85.9578 260.748 86.3778 260.916C86.7978 261.084 87.2271 261.168 87.6658 261.168C88.1698 261.168 88.5805 261.075 88.8978 260.888C89.2151 260.692 89.3738 260.408 89.3738 260.034C89.3738 259.764 89.2898 259.563 89.1218 259.432C88.9631 259.302 88.7345 259.194 88.4358 259.11C88.1371 259.017 87.7825 258.914 87.3718 258.802C86.8678 258.653 86.4431 258.494 86.0978 258.326C85.7525 258.158 85.4911 257.948 85.3138 257.696C85.1365 257.444 85.0478 257.127 85.0478 256.744C85.0478 256.278 85.1691 255.886 85.4118 255.568C85.6545 255.242 85.9858 254.994 86.4058 254.826C86.8351 254.658 87.3205 254.574 87.8618 254.574C88.4031 254.574 88.8931 254.658 89.3318 254.826C89.7705 254.994 90.1485 255.242 90.4658 255.568L89.9058 256.422C89.6165 256.124 89.2991 255.904 88.9538 255.764C88.6085 255.615 88.2211 255.54 87.7918 255.54C87.5398 255.54 87.2925 255.573 87.0498 255.638C86.8071 255.694 86.6065 255.802 86.4478 255.96C86.2891 256.11 86.2098 256.324 86.2098 256.604C86.2098 256.838 86.2705 257.024 86.3918 257.164C86.5225 257.295 86.7091 257.407 86.9518 257.5C87.2038 257.594 87.5071 257.696 87.8618 257.808C88.4125 257.967 88.8885 258.126 89.2898 258.284C89.7005 258.443 90.0178 258.648 90.2418 258.9C90.4658 259.152 90.5778 259.502 90.5778 259.95C90.5778 260.641 90.3165 261.182 89.7938 261.574C89.2711 261.957 88.5805 262.148 87.7218 262.148ZM103.07 262.008H101.838V257.92C101.838 257.155 101.712 256.59 101.46 256.226C101.217 255.862 100.853 255.68 100.368 255.68C99.8731 255.68 99.4251 255.862 99.0237 256.226C98.6224 256.581 98.3377 257.043 98.1697 257.612V262.008H96.9377V257.92C96.9377 257.146 96.8164 256.581 96.5737 256.226C96.3311 255.862 95.9671 255.68 95.4817 255.68C94.9964 255.68 94.5484 255.858 94.1377 256.212C93.7364 256.558 93.4517 257.02 93.2837 257.598V262.008H92.0517V254.7H93.1717V256.268C93.4704 255.727 93.8577 255.312 94.3337 255.022C94.8097 254.724 95.3464 254.574 95.9437 254.574C96.5504 254.574 97.0357 254.742 97.3997 255.078C97.7637 255.405 97.9877 255.83 98.0717 256.352C98.3984 255.774 98.7951 255.335 99.2617 255.036C99.7284 254.728 100.26 254.574 100.858 254.574C101.278 254.574 101.628 254.654 101.908 254.812C102.197 254.962 102.426 255.176 102.594 255.456C102.762 255.727 102.883 256.049 102.958 256.422C103.032 256.796 103.07 257.202 103.07 257.64V262.008ZM108.177 262.148C107.627 262.148 107.127 262.05 106.679 261.854C106.231 261.649 105.844 261.374 105.517 261.028C105.191 260.674 104.939 260.268 104.761 259.81C104.584 259.353 104.495 258.872 104.495 258.368C104.495 257.855 104.584 257.37 104.761 256.912C104.939 256.455 105.191 256.054 105.517 255.708C105.844 255.354 106.231 255.078 106.679 254.882C107.137 254.677 107.636 254.574 108.177 254.574C108.728 254.574 109.227 254.677 109.675 254.882C110.123 255.078 110.511 255.354 110.837 255.708C111.173 256.054 111.43 256.455 111.607 256.912C111.785 257.37 111.873 257.855 111.873 258.368C111.873 258.872 111.785 259.353 111.607 259.81C111.43 260.268 111.178 260.674 110.851 261.028C110.525 261.374 110.133 261.649 109.675 261.854C109.227 262.05 108.728 262.148 108.177 262.148ZM105.755 258.382C105.755 258.886 105.863 259.344 106.077 259.754C106.301 260.165 106.595 260.492 106.959 260.734C107.323 260.968 107.729 261.084 108.177 261.084C108.625 261.084 109.031 260.963 109.395 260.72C109.769 260.478 110.063 260.151 110.277 259.74C110.501 259.32 110.613 258.858 110.613 258.354C110.613 257.85 110.501 257.393 110.277 256.982C110.063 256.572 109.769 256.245 109.395 256.002C109.031 255.76 108.625 255.638 108.177 255.638C107.729 255.638 107.323 255.764 106.959 256.016C106.595 256.259 106.301 256.586 106.077 256.996C105.863 257.407 105.755 257.869 105.755 258.382ZM112.89 258.368C112.89 257.678 113.03 257.048 113.31 256.478C113.6 255.9 113.992 255.438 114.486 255.092C114.99 254.747 115.564 254.574 116.208 254.574C116.796 254.574 117.324 254.728 117.79 255.036C118.257 255.344 118.621 255.718 118.882 256.156V251.788H120.114V260.608C120.114 260.758 120.142 260.87 120.198 260.944C120.264 261.01 120.366 261.047 120.506 261.056V262.008C120.273 262.046 120.091 262.064 119.96 262.064C119.718 262.064 119.503 261.98 119.316 261.812C119.139 261.644 119.05 261.458 119.05 261.252V260.636C118.761 261.103 118.374 261.472 117.888 261.742C117.403 262.013 116.899 262.148 116.376 262.148C115.872 262.148 115.406 262.05 114.976 261.854C114.556 261.649 114.188 261.369 113.87 261.014C113.562 260.66 113.32 260.258 113.142 259.81C112.974 259.353 112.89 258.872 112.89 258.368ZM118.882 259.446V257.346C118.77 257.029 118.588 256.744 118.336 256.492C118.084 256.231 117.8 256.026 117.482 255.876C117.174 255.718 116.866 255.638 116.558 255.638C116.194 255.638 115.863 255.718 115.564 255.876C115.275 256.026 115.023 256.231 114.808 256.492C114.603 256.744 114.444 257.034 114.332 257.36C114.22 257.687 114.164 258.028 114.164 258.382C114.164 258.746 114.225 259.092 114.346 259.418C114.477 259.745 114.654 260.034 114.878 260.286C115.112 260.538 115.378 260.734 115.676 260.874C115.984 261.014 116.316 261.084 116.67 261.084C116.894 261.084 117.123 261.042 117.356 260.958C117.599 260.874 117.828 260.758 118.042 260.608C118.257 260.459 118.439 260.286 118.588 260.09C118.738 259.885 118.836 259.67 118.882 259.446ZM129.492 261.644C129.389 261.691 129.249 261.752 129.072 261.826C128.895 261.901 128.689 261.966 128.456 262.022C128.223 262.078 127.975 262.106 127.714 262.106C127.415 262.106 127.14 262.055 126.888 261.952C126.636 261.84 126.435 261.672 126.286 261.448C126.137 261.215 126.062 260.926 126.062 260.58V255.666H125.068V254.7H126.062V252.264H127.294V254.7H128.932V255.666H127.294V260.202C127.313 260.464 127.401 260.66 127.56 260.79C127.719 260.912 127.905 260.972 128.12 260.972C128.363 260.972 128.587 260.93 128.792 260.846C128.997 260.762 129.133 260.702 129.198 260.664L129.492 261.644ZM133.772 262.148C133.221 262.148 132.717 262.05 132.26 261.854C131.812 261.649 131.42 261.374 131.084 261.028C130.757 260.674 130.501 260.268 130.314 259.81C130.137 259.353 130.048 258.868 130.048 258.354C130.048 257.664 130.207 257.034 130.524 256.464C130.841 255.895 131.28 255.438 131.84 255.092C132.409 254.747 133.058 254.574 133.786 254.574C134.523 254.574 135.163 254.752 135.704 255.106C136.255 255.452 136.679 255.909 136.978 256.478C137.286 257.038 137.44 257.645 137.44 258.298C137.44 258.392 137.435 258.485 137.426 258.578C137.426 258.662 137.421 258.728 137.412 258.774H131.35C131.387 259.25 131.518 259.675 131.742 260.048C131.975 260.412 132.274 260.702 132.638 260.916C133.002 261.122 133.394 261.224 133.814 261.224C134.262 261.224 134.682 261.112 135.074 260.888C135.475 260.664 135.751 260.37 135.9 260.006L136.964 260.3C136.805 260.655 136.567 260.972 136.25 261.252C135.942 261.532 135.573 261.752 135.144 261.91C134.724 262.069 134.267 262.148 133.772 262.148ZM131.308 257.92H136.292C136.255 257.444 136.119 257.024 135.886 256.66C135.653 256.296 135.354 256.012 134.99 255.806C134.626 255.601 134.225 255.498 133.786 255.498C133.357 255.498 132.96 255.601 132.596 255.806C132.232 256.012 131.933 256.296 131.7 256.66C131.476 257.024 131.345 257.444 131.308 257.92ZM149.828 262.008H148.596V257.92C148.596 257.155 148.47 256.59 148.218 256.226C147.975 255.862 147.611 255.68 147.126 255.68C146.631 255.68 146.183 255.862 145.782 256.226C145.38 256.581 145.096 257.043 144.928 257.612V262.008H143.696V257.92C143.696 257.146 143.574 256.581 143.332 256.226C143.089 255.862 142.725 255.68 142.24 255.68C141.754 255.68 141.306 255.858 140.896 256.212C140.494 256.558 140.21 257.02 140.042 257.598V262.008H138.81V254.7H139.93V256.268C140.228 255.727 140.616 255.312 141.092 255.022C141.568 254.724 142.104 254.574 142.702 254.574C143.308 254.574 143.794 254.742 144.158 255.078C144.522 255.405 144.746 255.83 144.83 256.352C145.156 255.774 145.553 255.335 146.02 255.036C146.486 254.728 147.018 254.574 147.616 254.574C148.036 254.574 148.386 254.654 148.666 254.812C148.955 254.962 149.184 255.176 149.352 255.456C149.52 255.727 149.641 256.049 149.716 256.422C149.79 256.796 149.828 257.202 149.828 257.64V262.008ZM155.677 262.148C155.08 262.148 154.548 261.999 154.081 261.7C153.614 261.402 153.246 261.024 152.975 260.566V264.99H151.743V254.7H152.835V256.072C153.124 255.624 153.502 255.265 153.969 254.994C154.436 254.714 154.944 254.574 155.495 254.574C155.999 254.574 156.461 254.677 156.881 254.882C157.301 255.088 157.665 255.368 157.973 255.722C158.281 256.077 158.519 256.483 158.687 256.94C158.864 257.388 158.953 257.86 158.953 258.354C158.953 259.045 158.813 259.68 158.533 260.258C158.262 260.837 157.88 261.299 157.385 261.644C156.89 261.98 156.321 262.148 155.677 262.148ZM155.299 261.084C155.663 261.084 155.99 261.01 156.279 260.86C156.578 260.702 156.83 260.496 157.035 260.244C157.25 259.983 157.413 259.689 157.525 259.362C157.637 259.036 157.693 258.7 157.693 258.354C157.693 257.99 157.628 257.645 157.497 257.318C157.376 256.992 157.198 256.702 156.965 256.45C156.741 256.198 156.475 256.002 156.167 255.862C155.868 255.713 155.542 255.638 155.187 255.638C154.963 255.638 154.73 255.68 154.487 255.764C154.254 255.848 154.03 255.97 153.815 256.128C153.6 256.278 153.418 256.45 153.269 256.646C153.12 256.842 153.022 257.052 152.975 257.276V259.362C153.115 259.68 153.302 259.969 153.535 260.23C153.768 260.492 154.039 260.702 154.347 260.86C154.655 261.01 154.972 261.084 155.299 261.084ZM163.658 262.148C163.107 262.148 162.608 262.05 162.16 261.854C161.712 261.649 161.324 261.374 160.998 261.028C160.671 260.674 160.419 260.268 160.242 259.81C160.064 259.353 159.976 258.872 159.976 258.368C159.976 257.855 160.064 257.37 160.242 256.912C160.419 256.455 160.671 256.054 160.998 255.708C161.324 255.354 161.712 255.078 162.16 254.882C162.617 254.677 163.116 254.574 163.658 254.574C164.208 254.574 164.708 254.677 165.156 254.882C165.604 255.078 165.991 255.354 166.318 255.708C166.654 256.054 166.91 256.455 167.088 256.912C167.265 257.37 167.354 257.855 167.354 258.368C167.354 258.872 167.265 259.353 167.088 259.81C166.91 260.268 166.658 260.674 166.332 261.028C166.005 261.374 165.613 261.649 165.156 261.854C164.708 262.05 164.208 262.148 163.658 262.148ZM161.236 258.382C161.236 258.886 161.343 259.344 161.558 259.754C161.782 260.165 162.076 260.492 162.44 260.734C162.804 260.968 163.21 261.084 163.658 261.084C164.106 261.084 164.512 260.963 164.876 260.72C165.249 260.478 165.543 260.151 165.758 259.74C165.982 259.32 166.094 258.858 166.094 258.354C166.094 257.85 165.982 257.393 165.758 256.982C165.543 256.572 165.249 256.245 164.876 256.002C164.512 255.76 164.106 255.638 163.658 255.638C163.21 255.638 162.804 255.764 162.44 256.016C162.076 256.259 161.782 256.586 161.558 256.996C161.343 257.407 161.236 257.869 161.236 258.382ZM172.711 255.778C172.095 255.788 171.549 255.946 171.073 256.254C170.606 256.553 170.275 256.968 170.079 257.5V262.008H168.847V254.7H169.995V256.394C170.247 255.89 170.578 255.484 170.989 255.176C171.409 254.859 171.847 254.682 172.305 254.644C172.398 254.644 172.477 254.644 172.543 254.644C172.608 254.644 172.664 254.649 172.711 254.658V255.778ZM172.344 262.008V260.44H173.38V262.008H172.344ZM175.174 262.008V260.44H176.21V262.008H175.174ZM178.005 262.008V260.44H179.041V262.008H178.005Z" fill="#777777"/>
<path d="M47.369 304.038L47.243 301.266L53.849 294.408H56.477L50.987 300.24L49.691 301.662L47.369 304.038ZM45.281 307.008V294.408H47.621V307.008H45.281ZM54.065 307.008L49.241 301.266L50.789 299.556L56.801 307.008H54.065ZM63.4741 297.288C64.2421 297.288 64.9261 297.438 65.5261 297.738C66.1381 298.038 66.6181 298.5 66.9661 299.124C67.3141 299.736 67.4881 300.528 67.4881 301.5V307.008H65.2381V301.788C65.2381 300.936 65.0341 300.3 64.6261 299.88C64.2301 299.46 63.6721 299.25 62.9521 299.25C62.4241 299.25 61.9561 299.358 61.5481 299.574C61.1401 299.79 60.8221 300.114 60.5941 300.546C60.3781 300.966 60.2701 301.5 60.2701 302.148V307.008H58.0201V297.396H60.1621V299.988L59.7841 299.196C60.1201 298.584 60.6061 298.116 61.2421 297.792C61.8901 297.456 62.6341 297.288 63.4741 297.288ZM74.6799 307.134C73.6959 307.134 72.8199 306.924 72.0519 306.504C71.2839 306.072 70.6779 305.484 70.2339 304.74C69.7899 303.996 69.5679 303.15 69.5679 302.202C69.5679 301.242 69.7899 300.396 70.2339 299.664C70.6779 298.92 71.2839 298.338 72.0519 297.918C72.8199 297.498 73.6959 297.288 74.6799 297.288C75.6759 297.288 76.5579 297.498 77.3259 297.918C78.1059 298.338 78.7119 298.914 79.1439 299.646C79.5879 300.378 79.8099 301.23 79.8099 302.202C79.8099 303.15 79.5879 303.996 79.1439 304.74C78.7119 305.484 78.1059 306.072 77.3259 306.504C76.5579 306.924 75.6759 307.134 74.6799 307.134ZM74.6799 305.208C75.2319 305.208 75.7239 305.088 76.1559 304.848C76.5879 304.608 76.9239 304.26 77.1639 303.804C77.4159 303.348 77.5419 302.814 77.5419 302.202C77.5419 301.578 77.4159 301.044 77.1639 300.6C76.9239 300.144 76.5879 299.796 76.1559 299.556C75.7239 299.316 75.2379 299.196 74.6979 299.196C74.1459 299.196 73.6539 299.316 73.2219 299.556C72.8019 299.796 72.4659 300.144 72.2139 300.6C71.9619 301.044 71.8359 301.578 71.8359 302.202C71.8359 302.814 71.9619 303.348 72.2139 303.804C72.4659 304.26 72.8019 304.608 73.2219 304.848C73.6539 305.088 74.1399 305.208 74.6799 305.208ZM83.8218 307.008L80.2938 297.396H82.4178L85.4418 305.874H84.4338L87.6018 297.396H89.4918L92.5698 305.874H91.5798L94.6938 297.396H96.6918L93.1458 307.008H90.9858L88.1778 299.502H88.8438L85.9818 307.008H83.8218ZM103.429 307.008V294.408H105.355L110.863 303.606H109.855L115.273 294.408H117.199L117.217 307.008H115.003L114.985 297.882H115.453L110.845 305.568H109.801L105.121 297.882H105.661V307.008H103.429ZM124.725 307.134C123.741 307.134 122.865 306.924 122.097 306.504C121.329 306.072 120.723 305.484 120.279 304.74C119.835 303.996 119.613 303.15 119.613 302.202C119.613 301.242 119.835 300.396 120.279 299.664C120.723 298.92 121.329 298.338 122.097 297.918C122.865 297.498 123.741 297.288 124.725 297.288C125.721 297.288 126.603 297.498 127.371 297.918C128.151 298.338 128.757 298.914 129.189 299.646C129.633 300.378 129.855 301.23 129.855 302.202C129.855 303.15 129.633 303.996 129.189 304.74C128.757 305.484 128.151 306.072 127.371 306.504C126.603 306.924 125.721 307.134 124.725 307.134ZM124.725 305.208C125.277 305.208 125.769 305.088 126.201 304.848C126.633 304.608 126.969 304.26 127.209 303.804C127.461 303.348 127.587 302.814 127.587 302.202C127.587 301.578 127.461 301.044 127.209 300.6C126.969 300.144 126.633 299.796 126.201 299.556C125.769 299.316 125.283 299.196 124.743 299.196C124.191 299.196 123.699 299.316 123.267 299.556C122.847 299.796 122.511 300.144 122.259 300.6C122.007 301.044 121.881 301.578 121.881 302.202C121.881 302.814 122.007 303.348 122.259 303.804C122.511 304.26 122.847 304.608 123.267 304.848C123.699 305.088 124.185 305.208 124.725 305.208ZM132.006 307.008V297.396H134.148V300.042L133.896 299.268C134.184 298.62 134.634 298.128 135.246 297.792C135.87 297.456 136.644 297.288 137.568 297.288V299.43C137.472 299.406 137.382 299.394 137.298 299.394C137.214 299.382 137.13 299.376 137.046 299.376C136.194 299.376 135.516 299.628 135.012 300.132C134.508 300.624 134.256 301.362 134.256 302.346V307.008H132.006ZM143.907 307.134C142.839 307.134 141.903 306.924 141.099 306.504C140.307 306.072 139.689 305.484 139.245 304.74C138.813 303.996 138.597 303.15 138.597 302.202C138.597 301.242 138.807 300.396 139.227 299.664C139.659 298.92 140.247 298.338 140.991 297.918C141.747 297.498 142.605 297.288 143.565 297.288C144.501 297.288 145.335 297.492 146.067 297.9C146.799 298.308 147.375 298.884 147.795 299.628C148.215 300.372 148.425 301.248 148.425 302.256C148.425 302.352 148.419 302.46 148.407 302.58C148.407 302.7 148.401 302.814 148.389 302.922H140.379V301.428H147.201L146.319 301.896C146.331 301.344 146.217 300.858 145.977 300.438C145.737 300.018 145.407 299.688 144.987 299.448C144.579 299.208 144.105 299.088 143.565 299.088C143.013 299.088 142.527 299.208 142.107 299.448C141.699 299.688 141.375 300.024 141.135 300.456C140.907 300.876 140.793 301.374 140.793 301.95V302.31C140.793 302.886 140.925 303.396 141.189 303.84C141.453 304.284 141.825 304.626 142.305 304.866C142.785 305.106 143.337 305.226 143.961 305.226C144.501 305.226 144.987 305.142 145.419 304.974C145.851 304.806 146.235 304.542 146.571 304.182L147.777 305.568C147.345 306.072 146.799 306.462 146.139 306.738C145.491 307.002 144.747 307.134 143.907 307.134Z" fill="#4A60A1"/>
<path d="M164.979 294.557C164.709 294.824 164.683 295.245 164.905 295.541L164.972 295.618L169.547 300.258L157.839 300.258C157.425 300.258 157.089 300.594 157.089 301.008C157.089 301.391 157.375 301.706 157.745 301.752L157.839 301.758H169.547L164.972 306.398C164.705 306.669 164.686 307.09 164.911 307.383L164.979 307.459C165.249 307.726 165.671 307.745 165.963 307.519L166.04 307.451L171.873 301.535C172.137 301.267 172.159 300.851 171.939 300.558L171.873 300.482L166.04 294.565C165.749 294.27 165.274 294.267 164.979 294.557Z" fill="#00B377"/>
<g clip-path="url(#clip0_773_471)">
<path d="M93.9015 117.643C94.5369 117.643 95.1463 117.867 95.5956 118.266C96.0449 118.665 96.2973 119.206 96.2973 119.771C96.2973 120.335 96.0449 120.876 95.5956 121.275C95.1463 121.674 94.5369 121.898 93.9015 121.898V143.171C94.5369 143.171 95.1463 143.395 95.5956 143.794C96.0449 144.193 96.2973 144.734 96.2973 145.298C96.2973 145.863 96.0449 146.404 95.5956 146.803C95.1463 147.202 94.5369 147.426 93.9015 147.426H50.7764C50.141 147.426 49.5316 147.202 49.0823 146.803C48.633 146.404 48.3806 145.863 48.3806 145.298C48.3806 144.734 48.633 144.193 49.0823 143.794C49.5316 143.395 50.141 143.171 50.7764 143.171V121.898C50.141 121.898 49.5316 121.674 49.0823 121.275C48.633 120.876 48.3806 120.335 48.3806 119.771C48.3806 119.206 48.633 118.665 49.0823 118.266C49.5316 117.867 50.141 117.643 50.7764 117.643H93.9015ZM60.3598 126.152C59.7244 126.152 59.115 126.377 58.6657 126.776C58.2164 127.174 57.9639 127.716 57.9639 128.28V143.171H62.7556V128.28C62.7556 127.716 62.5032 127.174 62.0539 126.776C61.6046 126.377 60.9952 126.152 60.3598 126.152ZM72.339 126.152C71.7035 126.152 71.0941 126.377 70.6448 126.776C70.1955 127.174 69.9431 127.716 69.9431 128.28V143.171H74.7348V128.28C74.7348 127.716 74.4824 127.174 74.0331 126.776C73.5838 126.377 72.9744 126.152 72.339 126.152ZM84.3181 126.152C83.6827 126.152 83.0733 126.377 82.624 126.776C82.1747 127.174 81.9223 127.716 81.9223 128.28V143.171H86.714V128.28C86.714 127.716 86.4615 127.174 86.0122 126.776C85.5629 126.377 84.9535 126.152 84.3181 126.152ZM86.714 111.261C87.3494 111.261 87.9588 111.485 88.4081 111.884C88.8574 112.283 89.1098 112.824 89.1098 113.389C89.1098 113.953 88.8574 114.494 88.4081 114.893C87.9588 115.292 87.3494 115.516 86.714 115.516H57.9639C57.3285 115.516 56.7191 115.292 56.2698 114.893C55.8205 114.494 55.5681 113.953 55.5681 113.389C55.5681 112.824 55.8205 112.283 56.2698 111.884C56.7191 111.485 57.3285 111.261 57.9639 111.261H86.714Z" fill="#0B1C98"/>
</g>
<defs>
<filter id="filter0_d_773_471" x="0.588989" y="0.00830078" width="290" height="377.979" filterUnits="userSpaceOnUse" color-interpolation-filters="sRGB">
<feFlood flood-opacity="0" result="BackgroundImageFix"/>
<feColorMatrix in="SourceAlpha" type="matrix" values="0 0 0 0 0 0 0 0 0 0 0 0 0 0 0 0 0 0 127 0" result="hardAlpha"/>
<feOffset/>
<feGaussianBlur stdDeviation="10"/>
<feComposite in2="hardAlpha" operator="out"/>
<feColorMatrix type="matrix" values="0 0 0 0 0.768627 0 0 0 0 0.768627 0 0 0 0 0.768627 0 0 0 0.15 0"/>
<feBlend mode="normal" in2="BackgroundImageFix" result="effect1_dropShadow_773_471"/>
<feBlend mode="normal" in="SourceGraphic" in2="effect1_dropShadow_773_471" result="shape"/>
</filter>
<clipPath id="clip0_773_471">
<rect width="57.5" height="51.0557" fill="white" transform="translate(43.589 102.751)"/>
</clipPath>
</defs>
</svg>
