<svg width="291" height="379" viewBox="0 0 291 379" fill="none" xmlns="http://www.w3.org/2000/svg">
<g filter="url(#filter0_d_773_486)">
<rect x="20.589" y="20.6108" width="250" height="337.979" rx="12" fill="white"/>
<rect x="21.089" y="21.1108" width="249" height="336.979" rx="11.5" stroke="black"/>
</g>
<path d="M46.429 192.611C46.0157 192.611 45.6957 192.498 45.469 192.271C45.2423 192.031 45.129 191.704 45.129 191.291V179.751C45.129 179.324 45.2357 179.004 45.449 178.791C45.6757 178.564 45.9957 178.451 46.409 178.451C46.8223 178.451 47.1357 178.564 47.349 178.791C47.5757 179.004 47.689 179.324 47.689 179.751V190.431H53.489C53.849 190.431 54.1223 190.524 54.309 190.711C54.509 190.898 54.609 191.164 54.609 191.511C54.609 191.858 54.509 192.131 54.309 192.331C54.1223 192.518 53.849 192.611 53.489 192.611H46.429ZM57.3595 192.751C56.9595 192.751 56.6528 192.631 56.4395 192.391C56.2261 192.151 56.1195 191.818 56.1195 191.391V184.051C56.1195 183.611 56.2261 183.278 56.4395 183.051C56.6528 182.811 56.9595 182.691 57.3595 182.691C57.7595 182.691 58.0661 182.811 58.2795 183.051C58.5061 183.278 58.6195 183.611 58.6195 184.051V191.391C58.6195 191.818 58.5128 192.151 58.2995 192.391C58.0861 192.631 57.7728 192.751 57.3595 192.751ZM57.3595 180.831C56.8928 180.831 56.5261 180.718 56.2595 180.491C56.0061 180.251 55.8795 179.924 55.8795 179.511C55.8795 179.084 56.0061 178.758 56.2595 178.531C56.5261 178.304 56.8928 178.191 57.3595 178.191C57.8395 178.191 58.2061 178.304 58.4595 178.531C58.7128 178.758 58.8395 179.084 58.8395 179.511C58.8395 179.924 58.7128 180.251 58.4595 180.491C58.2061 180.718 57.8395 180.831 57.3595 180.831ZM63.1371 192.771C62.7371 192.771 62.4238 192.664 62.1971 192.451C61.9838 192.224 61.8771 191.904 61.8771 191.491V184.711H60.9571C60.6371 184.711 60.3904 184.631 60.2171 184.471C60.0438 184.298 59.9571 184.064 59.9571 183.771C59.9571 183.464 60.0438 183.231 60.2171 183.071C60.3904 182.911 60.6371 182.831 60.9571 182.831H62.5971L61.8771 183.491V182.811C61.8771 181.438 62.2238 180.411 62.9171 179.731C63.6104 179.038 64.6104 178.631 65.9171 178.511L66.5971 178.451C66.8638 178.424 67.0771 178.471 67.2371 178.591C67.3971 178.698 67.5038 178.844 67.5571 179.031C67.6104 179.204 67.6171 179.384 67.5771 179.571C67.5371 179.758 67.4504 179.924 67.3171 180.071C67.1971 180.204 67.0371 180.278 66.8371 180.291L66.5571 180.311C65.7971 180.364 65.2438 180.558 64.8971 180.891C64.5504 181.224 64.3771 181.731 64.3771 182.411V183.151L64.0571 182.831H66.0771C66.3971 182.831 66.6438 182.911 66.8171 183.071C66.9904 183.231 67.0771 183.464 67.0771 183.771C67.0771 184.064 66.9904 184.298 66.8171 184.471C66.6438 184.631 66.3971 184.711 66.0771 184.711H64.3771V191.491C64.3771 192.344 63.9638 192.771 63.1371 192.771ZM73.0684 192.811C71.9617 192.811 71.0084 192.604 70.2084 192.191C69.4084 191.778 68.7884 191.191 68.3484 190.431C67.9217 189.671 67.7084 188.771 67.7084 187.731C67.7084 186.718 67.915 185.831 68.3284 185.071C68.755 184.311 69.335 183.718 70.0684 183.291C70.815 182.851 71.6617 182.631 72.6084 182.631C73.3017 182.631 73.9217 182.744 74.4684 182.971C75.0284 183.198 75.5017 183.524 75.8884 183.951C76.2884 184.378 76.5884 184.898 76.7884 185.511C77.0017 186.111 77.1084 186.791 77.1084 187.551C77.1084 187.791 77.0217 187.978 76.8484 188.111C76.6884 188.231 76.455 188.291 76.1484 188.291H69.7284V186.851H75.3484L75.0284 187.151C75.0284 186.538 74.935 186.024 74.7484 185.611C74.575 185.198 74.315 184.884 73.9684 184.671C73.635 184.444 73.215 184.331 72.7084 184.331C72.1484 184.331 71.6684 184.464 71.2684 184.731C70.8817 184.984 70.5817 185.351 70.3684 185.831C70.1684 186.298 70.0684 186.858 70.0684 187.511V187.651C70.0684 188.744 70.3217 189.564 70.8284 190.111C71.3484 190.644 72.1084 190.911 73.1084 190.911C73.455 190.911 73.8417 190.871 74.2684 190.791C74.7084 190.698 75.1217 190.544 75.5084 190.331C75.7884 190.171 76.035 190.104 76.2484 190.131C76.4617 190.144 76.6284 190.218 76.7484 190.351C76.8817 190.484 76.9617 190.651 76.9884 190.851C77.015 191.038 76.975 191.231 76.8684 191.431C76.775 191.631 76.6084 191.804 76.3684 191.951C75.9017 192.244 75.3617 192.464 74.7484 192.611C74.1484 192.744 73.5884 192.811 73.0684 192.811ZM89.6179 192.811C89.0312 192.811 88.4446 192.764 87.8579 192.671C87.2712 192.591 86.7179 192.464 86.1979 192.291C85.6779 192.104 85.2112 191.878 84.7979 191.611C84.5579 191.451 84.3912 191.258 84.2979 191.031C84.2046 190.804 84.1712 190.584 84.1979 190.371C84.2379 190.144 84.3246 189.951 84.4579 189.791C84.6046 189.618 84.7846 189.511 84.9979 189.471C85.2112 189.431 85.4446 189.491 85.6979 189.651C86.2846 189.998 86.9046 190.251 87.5579 190.411C88.2112 190.571 88.8979 190.651 89.6179 190.651C90.6712 190.651 91.4379 190.478 91.9179 190.131C92.3979 189.771 92.6379 189.311 92.6379 188.751C92.6379 188.284 92.4646 187.918 92.1179 187.651C91.7846 187.384 91.2046 187.164 90.3779 186.991L88.1779 186.531C86.9112 186.264 85.9646 185.818 85.3379 185.191C84.7246 184.551 84.4179 183.711 84.4179 182.671C84.4179 182.018 84.5512 181.424 84.8179 180.891C85.0846 180.358 85.4579 179.898 85.9379 179.511C86.4312 179.124 87.0112 178.831 87.6779 178.631C88.3579 178.418 89.1046 178.311 89.9179 178.311C90.7179 178.311 91.4779 178.411 92.1979 178.611C92.9179 178.811 93.5646 179.104 94.1379 179.491C94.3512 179.638 94.4912 179.818 94.5579 180.031C94.6379 180.244 94.6579 180.458 94.6179 180.671C94.5779 180.871 94.4846 181.044 94.3379 181.191C94.1912 181.338 94.0046 181.424 93.7779 181.451C93.5646 181.478 93.3179 181.411 93.0379 181.251C92.5446 180.971 92.0446 180.771 91.5379 180.651C91.0312 180.531 90.4846 180.471 89.8979 180.471C89.2846 180.471 88.7579 180.558 88.3179 180.731C87.8779 180.904 87.5379 181.151 87.2979 181.471C87.0712 181.778 86.9579 182.144 86.9579 182.571C86.9579 183.051 87.1179 183.438 87.4379 183.731C87.7579 184.011 88.3046 184.231 89.0779 184.391L91.2579 184.851C92.5779 185.131 93.5579 185.571 94.1979 186.171C94.8512 186.771 95.1779 187.571 95.1779 188.571C95.1779 189.211 95.0446 189.791 94.7779 190.311C94.5246 190.831 94.1512 191.278 93.6579 191.651C93.1779 192.024 92.5979 192.311 91.9179 192.511C91.2379 192.711 90.4712 192.811 89.6179 192.811ZM101.655 192.811C100.628 192.811 99.7351 192.604 98.9751 192.191C98.2151 191.764 97.6284 191.164 97.2151 190.391C96.8017 189.618 96.5951 188.711 96.5951 187.671C96.5951 186.884 96.7084 186.184 96.9351 185.571C97.1751 184.944 97.5151 184.418 97.9551 183.991C98.3951 183.551 98.9284 183.218 99.5551 182.991C100.182 182.751 100.882 182.631 101.655 182.631C102.095 182.631 102.568 182.691 103.075 182.811C103.595 182.931 104.082 183.131 104.535 183.411C104.748 183.544 104.888 183.704 104.955 183.891C105.022 184.078 105.035 184.271 104.995 184.471C104.955 184.658 104.868 184.824 104.735 184.971C104.615 185.104 104.462 185.191 104.275 185.231C104.088 185.258 103.882 185.211 103.655 185.091C103.362 184.918 103.062 184.791 102.755 184.711C102.448 184.618 102.155 184.571 101.875 184.571C101.435 184.571 101.048 184.644 100.715 184.791C100.382 184.924 100.095 185.124 99.8551 185.391C99.6284 185.644 99.4551 185.964 99.3351 186.351C99.2151 186.738 99.1551 187.184 99.1551 187.691C99.1551 188.678 99.3884 189.458 99.8551 190.031C100.335 190.591 101.008 190.871 101.875 190.871C102.155 190.871 102.442 190.831 102.735 190.751C103.042 190.671 103.348 190.544 103.655 190.371C103.882 190.251 104.082 190.211 104.255 190.251C104.442 190.291 104.595 190.384 104.715 190.531C104.835 190.664 104.908 190.831 104.935 191.031C104.962 191.218 104.935 191.404 104.855 191.591C104.788 191.778 104.655 191.931 104.455 192.051C104.015 192.318 103.548 192.511 103.055 192.631C102.562 192.751 102.095 192.811 101.655 192.811ZM107.809 192.751C107.409 192.751 107.102 192.631 106.889 192.391C106.675 192.151 106.569 191.818 106.569 191.391V184.051C106.569 183.611 106.675 183.278 106.889 183.051C107.102 182.811 107.409 182.691 107.809 182.691C108.209 182.691 108.515 182.811 108.729 183.051C108.955 183.278 109.069 183.611 109.069 184.051V191.391C109.069 191.818 108.962 192.151 108.749 192.391C108.535 192.631 108.222 192.751 107.809 192.751ZM107.809 180.831C107.342 180.831 106.975 180.718 106.709 180.491C106.455 180.251 106.329 179.924 106.329 179.511C106.329 179.084 106.455 178.758 106.709 178.531C106.975 178.304 107.342 178.191 107.809 178.191C108.289 178.191 108.655 178.304 108.909 178.531C109.162 178.758 109.289 179.084 109.289 179.511C109.289 179.924 109.162 180.251 108.909 180.491C108.655 180.718 108.289 180.831 107.809 180.831ZM116.486 192.811C115.38 192.811 114.426 192.604 113.626 192.191C112.826 191.778 112.206 191.191 111.766 190.431C111.34 189.671 111.126 188.771 111.126 187.731C111.126 186.718 111.333 185.831 111.746 185.071C112.173 184.311 112.753 183.718 113.486 183.291C114.233 182.851 115.08 182.631 116.026 182.631C116.72 182.631 117.34 182.744 117.886 182.971C118.446 183.198 118.92 183.524 119.306 183.951C119.706 184.378 120.006 184.898 120.206 185.511C120.42 186.111 120.526 186.791 120.526 187.551C120.526 187.791 120.44 187.978 120.266 188.111C120.106 188.231 119.873 188.291 119.566 188.291H113.146V186.851H118.766L118.446 187.151C118.446 186.538 118.353 186.024 118.166 185.611C117.993 185.198 117.733 184.884 117.386 184.671C117.053 184.444 116.633 184.331 116.126 184.331C115.566 184.331 115.086 184.464 114.686 184.731C114.3 184.984 114 185.351 113.786 185.831C113.586 186.298 113.486 186.858 113.486 187.511V187.651C113.486 188.744 113.74 189.564 114.246 190.111C114.766 190.644 115.526 190.911 116.526 190.911C116.873 190.911 117.26 190.871 117.686 190.791C118.126 190.698 118.54 190.544 118.926 190.331C119.206 190.171 119.453 190.104 119.666 190.131C119.88 190.144 120.046 190.218 120.166 190.351C120.3 190.484 120.38 190.651 120.406 190.851C120.433 191.038 120.393 191.231 120.286 191.431C120.193 191.631 120.026 191.804 119.786 191.951C119.32 192.244 118.78 192.464 118.166 192.611C117.566 192.744 117.006 192.811 116.486 192.811ZM123.746 192.771C123.346 192.771 123.04 192.664 122.826 192.451C122.613 192.224 122.506 191.904 122.506 191.491V183.931C122.506 183.518 122.613 183.204 122.826 182.991C123.04 182.778 123.34 182.671 123.726 182.671C124.113 182.671 124.413 182.778 124.626 182.991C124.84 183.204 124.946 183.518 124.946 183.931V185.291L124.726 184.791C125.02 184.084 125.473 183.551 126.086 183.191C126.713 182.818 127.42 182.631 128.206 182.631C128.993 182.631 129.64 182.778 130.146 183.071C130.653 183.364 131.033 183.811 131.286 184.411C131.54 184.998 131.666 185.744 131.666 186.651V191.491C131.666 191.904 131.56 192.224 131.346 192.451C131.133 192.664 130.826 192.771 130.426 192.771C130.026 192.771 129.713 192.664 129.486 192.451C129.273 192.224 129.166 191.904 129.166 191.491V186.771C129.166 186.011 129.02 185.458 128.726 185.111C128.446 184.764 128.006 184.591 127.406 184.591C126.673 184.591 126.086 184.824 125.646 185.291C125.22 185.744 125.006 186.351 125.006 187.111V191.491C125.006 192.344 124.586 192.771 123.746 192.771ZM138.725 192.811C137.699 192.811 136.805 192.604 136.045 192.191C135.285 191.764 134.699 191.164 134.285 190.391C133.872 189.618 133.665 188.711 133.665 187.671C133.665 186.884 133.779 186.184 134.005 185.571C134.245 184.944 134.585 184.418 135.025 183.991C135.465 183.551 135.999 183.218 136.625 182.991C137.252 182.751 137.952 182.631 138.725 182.631C139.165 182.631 139.639 182.691 140.145 182.811C140.665 182.931 141.152 183.131 141.605 183.411C141.819 183.544 141.959 183.704 142.025 183.891C142.092 184.078 142.105 184.271 142.065 184.471C142.025 184.658 141.939 184.824 141.805 184.971C141.685 185.104 141.532 185.191 141.345 185.231C141.159 185.258 140.952 185.211 140.725 185.091C140.432 184.918 140.132 184.791 139.825 184.711C139.519 184.618 139.225 184.571 138.945 184.571C138.505 184.571 138.119 184.644 137.785 184.791C137.452 184.924 137.165 185.124 136.925 185.391C136.699 185.644 136.525 185.964 136.405 186.351C136.285 186.738 136.225 187.184 136.225 187.691C136.225 188.678 136.459 189.458 136.925 190.031C137.405 190.591 138.079 190.871 138.945 190.871C139.225 190.871 139.512 190.831 139.805 190.751C140.112 190.671 140.419 190.544 140.725 190.371C140.952 190.251 141.152 190.211 141.325 190.251C141.512 190.291 141.665 190.384 141.785 190.531C141.905 190.664 141.979 190.831 142.005 191.031C142.032 191.218 142.005 191.404 141.925 191.591C141.859 191.778 141.725 191.931 141.525 192.051C141.085 192.318 140.619 192.511 140.125 192.631C139.632 192.751 139.165 192.811 138.725 192.811ZM148.264 192.811C147.157 192.811 146.204 192.604 145.404 192.191C144.604 191.778 143.984 191.191 143.544 190.431C143.117 189.671 142.904 188.771 142.904 187.731C142.904 186.718 143.11 185.831 143.524 185.071C143.95 184.311 144.53 183.718 145.264 183.291C146.01 182.851 146.857 182.631 147.804 182.631C148.497 182.631 149.117 182.744 149.664 182.971C150.224 183.198 150.697 183.524 151.084 183.951C151.484 184.378 151.784 184.898 151.984 185.511C152.197 186.111 152.304 186.791 152.304 187.551C152.304 187.791 152.217 187.978 152.044 188.111C151.884 188.231 151.65 188.291 151.344 188.291H144.924V186.851H150.544L150.224 187.151C150.224 186.538 150.13 186.024 149.944 185.611C149.77 185.198 149.51 184.884 149.164 184.671C148.83 184.444 148.41 184.331 147.904 184.331C147.344 184.331 146.864 184.464 146.464 184.731C146.077 184.984 145.777 185.351 145.564 185.831C145.364 186.298 145.264 186.858 145.264 187.511V187.651C145.264 188.744 145.517 189.564 146.024 190.111C146.544 190.644 147.304 190.911 148.304 190.911C148.65 190.911 149.037 190.871 149.464 190.791C149.904 190.698 150.317 190.544 150.704 190.331C150.984 190.171 151.23 190.104 151.444 190.131C151.657 190.144 151.824 190.218 151.944 190.351C152.077 190.484 152.157 190.651 152.184 190.851C152.21 191.038 152.17 191.231 152.064 191.431C151.97 191.631 151.804 191.804 151.564 191.951C151.097 192.244 150.557 192.464 149.944 192.611C149.344 192.744 148.784 192.811 148.264 192.811ZM166.513 192.811C165.047 192.811 163.787 192.518 162.733 191.931C161.693 191.331 160.893 190.491 160.333 189.411C159.773 188.318 159.493 187.031 159.493 185.551C159.493 184.444 159.653 183.451 159.973 182.571C160.293 181.678 160.753 180.918 161.353 180.291C161.953 179.651 162.687 179.164 163.553 178.831C164.433 178.484 165.42 178.311 166.513 178.311C167.247 178.311 167.967 178.404 168.673 178.591C169.38 178.778 170 179.044 170.533 179.391C170.813 179.564 171 179.778 171.093 180.031C171.187 180.271 171.207 180.511 171.153 180.751C171.1 180.978 170.987 181.171 170.813 181.331C170.653 181.491 170.447 181.584 170.193 181.611C169.953 181.624 169.687 181.538 169.393 181.351C168.98 181.084 168.533 180.891 168.053 180.771C167.573 180.651 167.087 180.591 166.593 180.591C165.647 180.591 164.847 180.784 164.193 181.171C163.54 181.558 163.047 182.118 162.713 182.851C162.38 183.584 162.213 184.484 162.213 185.551C162.213 186.604 162.38 187.504 162.713 188.251C163.047 188.998 163.54 189.564 164.193 189.951C164.847 190.338 165.647 190.531 166.593 190.531C167.1 190.531 167.6 190.471 168.093 190.351C168.587 190.218 169.053 190.018 169.493 189.751C169.787 189.578 170.047 189.504 170.273 189.531C170.513 189.544 170.713 189.624 170.873 189.771C171.033 189.918 171.14 190.104 171.193 190.331C171.247 190.544 171.233 190.771 171.153 191.011C171.073 191.238 170.913 191.438 170.673 191.611C170.14 191.998 169.5 192.298 168.753 192.511C168.02 192.711 167.273 192.811 166.513 192.811ZM176.175 192.811C175.469 192.811 174.835 192.678 174.275 192.411C173.729 192.131 173.295 191.758 172.975 191.291C172.669 190.824 172.515 190.298 172.515 189.711C172.515 188.991 172.702 188.424 173.075 188.011C173.449 187.584 174.055 187.278 174.895 187.091C175.735 186.904 176.862 186.811 178.275 186.811H179.275V188.251H178.295C177.469 188.251 176.809 188.291 176.315 188.371C175.822 188.451 175.469 188.591 175.255 188.791C175.055 188.978 174.955 189.244 174.955 189.591C174.955 190.031 175.109 190.391 175.415 190.671C175.722 190.951 176.149 191.091 176.695 191.091C177.135 191.091 177.522 190.991 177.855 190.791C178.202 190.578 178.475 190.291 178.675 189.931C178.875 189.571 178.975 189.158 178.975 188.691V186.391C178.975 185.724 178.829 185.244 178.535 184.951C178.242 184.658 177.749 184.511 177.055 184.511C176.669 184.511 176.249 184.558 175.795 184.651C175.355 184.744 174.889 184.904 174.395 185.131C174.142 185.251 173.915 185.284 173.715 185.231C173.529 185.178 173.382 185.071 173.275 184.911C173.169 184.738 173.115 184.551 173.115 184.351C173.115 184.151 173.169 183.958 173.275 183.771C173.382 183.571 173.562 183.424 173.815 183.331C174.429 183.078 175.015 182.898 175.575 182.791C176.149 182.684 176.669 182.631 177.135 182.631C178.095 182.631 178.882 182.778 179.495 183.071C180.122 183.364 180.589 183.811 180.895 184.411C181.202 184.998 181.355 185.758 181.355 186.691V191.491C181.355 191.904 181.255 192.224 181.055 192.451C180.855 192.664 180.569 192.771 180.195 192.771C179.822 192.771 179.529 192.664 179.315 192.451C179.115 192.224 179.015 191.904 179.015 191.491V190.531H179.175C179.082 190.998 178.895 191.404 178.615 191.751C178.349 192.084 178.009 192.344 177.595 192.531C177.182 192.718 176.709 192.811 176.175 192.811ZM185.173 192.771C184.76 192.771 184.44 192.664 184.213 192.451C184 192.224 183.893 191.904 183.893 191.491V183.931C183.893 183.518 184 183.204 184.213 182.991C184.426 182.778 184.726 182.671 185.113 182.671C185.5 182.671 185.8 182.778 186.013 182.991C186.226 183.204 186.333 183.518 186.333 183.931V185.191H186.133C186.32 184.391 186.686 183.784 187.233 183.371C187.78 182.958 188.506 182.711 189.413 182.631C189.693 182.604 189.913 182.678 190.073 182.851C190.246 183.011 190.346 183.264 190.373 183.611C190.4 183.944 190.32 184.218 190.133 184.431C189.96 184.631 189.693 184.751 189.333 184.791L188.893 184.831C188.08 184.911 187.466 185.164 187.053 185.591C186.64 186.004 186.433 186.591 186.433 187.351V191.491C186.433 191.904 186.326 192.224 186.113 192.451C185.9 192.664 185.586 192.771 185.173 192.771ZM196.389 192.811C195.282 192.811 194.329 192.604 193.529 192.191C192.729 191.778 192.109 191.191 191.669 190.431C191.242 189.671 191.029 188.771 191.029 187.731C191.029 186.718 191.235 185.831 191.649 185.071C192.075 184.311 192.655 183.718 193.389 183.291C194.135 182.851 194.982 182.631 195.929 182.631C196.622 182.631 197.242 182.744 197.789 182.971C198.349 183.198 198.822 183.524 199.209 183.951C199.609 184.378 199.909 184.898 200.109 185.511C200.322 186.111 200.429 186.791 200.429 187.551C200.429 187.791 200.342 187.978 200.169 188.111C200.009 188.231 199.775 188.291 199.469 188.291H193.049V186.851H198.669L198.349 187.151C198.349 186.538 198.255 186.024 198.069 185.611C197.895 185.198 197.635 184.884 197.289 184.671C196.955 184.444 196.535 184.331 196.029 184.331C195.469 184.331 194.989 184.464 194.589 184.731C194.202 184.984 193.902 185.351 193.689 185.831C193.489 186.298 193.389 186.858 193.389 187.511V187.651C193.389 188.744 193.642 189.564 194.149 190.111C194.669 190.644 195.429 190.911 196.429 190.911C196.775 190.911 197.162 190.871 197.589 190.791C198.029 190.698 198.442 190.544 198.829 190.331C199.109 190.171 199.355 190.104 199.569 190.131C199.782 190.144 199.949 190.218 200.069 190.351C200.202 190.484 200.282 190.651 200.309 190.851C200.335 191.038 200.295 191.231 200.189 191.431C200.095 191.631 199.929 191.804 199.689 191.951C199.222 192.244 198.682 192.464 198.069 192.611C197.469 192.744 196.909 192.811 196.389 192.811Z" fill="#212D4D"/>
<path d="M44.779 220.611V210.671H46.039V219.491H51.583V220.611H44.779ZM55.8414 220.751C55.2907 220.751 54.7914 220.653 54.3434 220.457C53.8954 220.252 53.5081 219.976 53.1814 219.631C52.8547 219.276 52.6027 218.87 52.4254 218.413C52.2481 217.956 52.1594 217.475 52.1594 216.971C52.1594 216.458 52.2481 215.972 52.4254 215.515C52.6027 215.058 52.8547 214.656 53.1814 214.311C53.5081 213.956 53.8954 213.681 54.3434 213.485C54.8007 213.28 55.3001 213.177 55.8414 213.177C56.3921 213.177 56.8914 213.28 57.3394 213.485C57.7874 213.681 58.1747 213.956 58.5014 214.311C58.8374 214.656 59.0941 215.058 59.2714 215.515C59.4487 215.972 59.5374 216.458 59.5374 216.971C59.5374 217.475 59.4487 217.956 59.2714 218.413C59.0941 218.87 58.8421 219.276 58.5154 219.631C58.1887 219.976 57.7967 220.252 57.3394 220.457C56.8914 220.653 56.3921 220.751 55.8414 220.751ZM53.4194 216.985C53.4194 217.489 53.5267 217.946 53.7414 218.357C53.9654 218.768 54.2594 219.094 54.6234 219.337C54.9874 219.57 55.3934 219.687 55.8414 219.687C56.2894 219.687 56.6954 219.566 57.0594 219.323C57.4327 219.08 57.7267 218.754 57.9414 218.343C58.1654 217.923 58.2774 217.461 58.2774 216.957C58.2774 216.453 58.1654 215.996 57.9414 215.585C57.7267 215.174 57.4327 214.848 57.0594 214.605C56.6954 214.362 56.2894 214.241 55.8414 214.241C55.3934 214.241 54.9874 214.367 54.6234 214.619C54.2594 214.862 53.9654 215.188 53.7414 215.599C53.5267 216.01 53.4194 216.472 53.4194 216.985ZM64.8943 214.381C64.2783 214.39 63.7323 214.549 63.2563 214.857C62.7896 215.156 62.4583 215.571 62.2623 216.103V220.611H61.0303V213.303H62.1783V214.997C62.4303 214.493 62.7616 214.087 63.1723 213.779C63.5923 213.462 64.0309 213.284 64.4883 213.247C64.5816 213.247 64.6609 213.247 64.7263 213.247C64.7916 213.247 64.8476 213.252 64.8943 213.261V214.381ZM69.1725 220.751C68.6218 220.751 68.1178 220.653 67.6605 220.457C67.2125 220.252 66.8205 219.976 66.4845 219.631C66.1578 219.276 65.9011 218.87 65.7145 218.413C65.5371 217.956 65.4485 217.47 65.4485 216.957C65.4485 216.266 65.6071 215.636 65.9245 215.067C66.2418 214.498 66.6805 214.04 67.2405 213.695C67.8098 213.35 68.4585 213.177 69.1865 213.177C69.9238 213.177 70.5631 213.354 71.1045 213.709C71.6551 214.054 72.0798 214.512 72.3785 215.081C72.6865 215.641 72.8405 216.248 72.8405 216.901C72.8405 216.994 72.8358 217.088 72.8265 217.181C72.8265 217.265 72.8218 217.33 72.8125 217.377H66.7505C66.7878 217.853 66.9185 218.278 67.1425 218.651C67.3758 219.015 67.6745 219.304 68.0385 219.519C68.4025 219.724 68.7945 219.827 69.2145 219.827C69.6625 219.827 70.0825 219.715 70.4745 219.491C70.8758 219.267 71.1511 218.973 71.3005 218.609L72.3645 218.903C72.2058 219.258 71.9678 219.575 71.6505 219.855C71.3425 220.135 70.9738 220.354 70.5445 220.513C70.1245 220.672 69.6671 220.751 69.1725 220.751ZM66.7085 216.523H71.6925C71.6551 216.047 71.5198 215.627 71.2865 215.263C71.0531 214.899 70.7545 214.614 70.3905 214.409C70.0265 214.204 69.6251 214.101 69.1865 214.101C68.7571 214.101 68.3605 214.204 67.9965 214.409C67.6325 214.614 67.3338 214.899 67.1005 215.263C66.8765 215.627 66.7458 216.047 66.7085 216.523ZM85.2279 220.611H83.9959V216.523C83.9959 215.758 83.8699 215.193 83.6179 214.829C83.3753 214.465 83.0113 214.283 82.5259 214.283C82.0313 214.283 81.5833 214.465 81.1819 214.829C80.7806 215.184 80.4959 215.646 80.3279 216.215V220.611H79.0959V216.523C79.0959 215.748 78.9746 215.184 78.7319 214.829C78.4893 214.465 78.1253 214.283 77.6399 214.283C77.1546 214.283 76.7066 214.46 76.2959 214.815C75.8946 215.16 75.6099 215.622 75.4419 216.201V220.611H74.2099V213.303H75.3299V214.871C75.6286 214.33 76.0159 213.914 76.4919 213.625C76.9679 213.326 77.5046 213.177 78.1019 213.177C78.7086 213.177 79.1939 213.345 79.5579 213.681C79.9219 214.008 80.1459 214.432 80.2299 214.955C80.5566 214.376 80.9533 213.938 81.4199 213.639C81.8866 213.331 82.4186 213.177 83.0159 213.177C83.4359 213.177 83.7859 213.256 84.0659 213.415C84.3553 213.564 84.5839 213.779 84.7519 214.059C84.9199 214.33 85.0413 214.652 85.1159 215.025C85.1906 215.398 85.2279 215.804 85.2279 216.243V220.611ZM90.6846 220.611V213.303H91.9166V220.611H90.6846ZM90.6846 211.931V210.391H91.9166V211.931H90.6846ZM97.8451 220.751C97.2478 220.751 96.7158 220.602 96.2491 220.303C95.7824 220.004 95.4138 219.626 95.1431 219.169V223.593H93.9111V213.303H95.0031V214.675C95.2924 214.227 95.6704 213.868 96.1371 213.597C96.6038 213.317 97.1124 213.177 97.6631 213.177C98.1671 213.177 98.6291 213.28 99.0491 213.485C99.4691 213.69 99.8331 213.97 100.141 214.325C100.449 214.68 100.687 215.086 100.855 215.543C101.032 215.991 101.121 216.462 101.121 216.957C101.121 217.648 100.981 218.282 100.701 218.861C100.43 219.44 100.048 219.902 99.5531 220.247C99.0584 220.583 98.4891 220.751 97.8451 220.751ZM97.4671 219.687C97.8311 219.687 98.1578 219.612 98.4471 219.463C98.7458 219.304 98.9978 219.099 99.2031 218.847C99.4178 218.586 99.5811 218.292 99.6931 217.965C99.8051 217.638 99.8611 217.302 99.8611 216.957C99.8611 216.593 99.7958 216.248 99.6651 215.921C99.5438 215.594 99.3664 215.305 99.1331 215.053C98.9091 214.801 98.6431 214.605 98.3351 214.465C98.0364 214.316 97.7098 214.241 97.3551 214.241C97.1311 214.241 96.8978 214.283 96.6551 214.367C96.4218 214.451 96.1978 214.572 95.9831 214.731C95.7684 214.88 95.5864 215.053 95.4371 215.249C95.2878 215.445 95.1898 215.655 95.1431 215.879V217.965C95.2831 218.282 95.4698 218.572 95.7031 218.833C95.9364 219.094 96.2071 219.304 96.5151 219.463C96.8231 219.612 97.1404 219.687 97.4671 219.687ZM105.14 220.751C104.533 220.751 103.964 220.653 103.432 220.457C102.9 220.252 102.442 219.948 102.06 219.547L102.536 218.679C102.956 219.071 103.376 219.351 103.796 219.519C104.216 219.687 104.645 219.771 105.084 219.771C105.588 219.771 105.998 219.678 106.316 219.491C106.633 219.295 106.792 219.01 106.792 218.637C106.792 218.366 106.708 218.166 106.54 218.035C106.381 217.904 106.152 217.797 105.854 217.713C105.555 217.62 105.2 217.517 104.79 217.405C104.286 217.256 103.861 217.097 103.516 216.929C103.17 216.761 102.909 216.551 102.732 216.299C102.554 216.047 102.466 215.73 102.466 215.347C102.466 214.88 102.587 214.488 102.83 214.171C103.072 213.844 103.404 213.597 103.824 213.429C104.253 213.261 104.738 213.177 105.28 213.177C105.821 213.177 106.311 213.261 106.75 213.429C107.188 213.597 107.566 213.844 107.884 214.171L107.324 215.025C107.034 214.726 106.717 214.507 106.372 214.367C106.026 214.218 105.639 214.143 105.21 214.143C104.958 214.143 104.71 214.176 104.468 214.241C104.225 214.297 104.024 214.404 103.866 214.563C103.707 214.712 103.628 214.927 103.628 215.207C103.628 215.44 103.688 215.627 103.81 215.767C103.94 215.898 104.127 216.01 104.37 216.103C104.622 216.196 104.925 216.299 105.28 216.411C105.83 216.57 106.306 216.728 106.708 216.887C107.118 217.046 107.436 217.251 107.66 217.503C107.884 217.755 107.996 218.105 107.996 218.553C107.996 219.244 107.734 219.785 107.212 220.177C106.689 220.56 105.998 220.751 105.14 220.751ZM109.4 217.685V213.303H110.632V217.447C110.632 218.194 110.762 218.754 111.024 219.127C111.285 219.5 111.672 219.687 112.186 219.687C112.522 219.687 112.844 219.617 113.152 219.477C113.469 219.328 113.754 219.118 114.006 218.847C114.258 218.576 114.454 218.254 114.594 217.881V213.303H115.826V219.211C115.826 219.36 115.854 219.472 115.91 219.547C115.975 219.612 116.078 219.65 116.218 219.659V220.611C116.078 220.63 115.966 220.639 115.882 220.639C115.807 220.648 115.732 220.653 115.658 220.653C115.424 220.653 115.224 220.583 115.056 220.443C114.888 220.294 114.799 220.112 114.79 219.897L114.762 219.043C114.444 219.584 114.015 220.004 113.474 220.303C112.942 220.602 112.358 220.751 111.724 220.751C110.958 220.751 110.38 220.494 109.988 219.981C109.596 219.458 109.4 218.693 109.4 217.685ZM128.896 220.611H127.664V216.523C127.664 215.758 127.538 215.193 127.286 214.829C127.043 214.465 126.679 214.283 126.194 214.283C125.699 214.283 125.251 214.465 124.85 214.829C124.449 215.184 124.164 215.646 123.996 216.215V220.611H122.764V216.523C122.764 215.748 122.643 215.184 122.4 214.829C122.157 214.465 121.793 214.283 121.308 214.283C120.823 214.283 120.375 214.46 119.964 214.815C119.563 215.16 119.278 215.622 119.11 216.201V220.611H117.878V213.303H118.998V214.871C119.297 214.33 119.684 213.914 120.16 213.625C120.636 213.326 121.173 213.177 121.77 213.177C122.377 213.177 122.862 213.345 123.226 213.681C123.59 214.008 123.814 214.432 123.898 214.955C124.225 214.376 124.621 213.938 125.088 213.639C125.555 213.331 126.087 213.177 126.684 213.177C127.104 213.177 127.454 213.256 127.734 213.415C128.023 213.564 128.252 213.779 128.42 214.059C128.588 214.33 128.709 214.652 128.784 215.025C128.859 215.398 128.896 215.804 128.896 216.243V220.611ZM133.877 216.971C133.877 216.28 134.017 215.65 134.297 215.081C134.586 214.502 134.978 214.04 135.473 213.695C135.977 213.35 136.551 213.177 137.195 213.177C137.783 213.177 138.31 213.331 138.777 213.639C139.243 213.947 139.607 214.32 139.869 214.759V210.391H141.101V219.211C141.101 219.36 141.129 219.472 141.185 219.547C141.25 219.612 141.353 219.65 141.493 219.659V220.611C141.259 220.648 141.077 220.667 140.947 220.667C140.704 220.667 140.489 220.583 140.303 220.415C140.125 220.247 140.037 220.06 140.037 219.855V219.239C139.747 219.706 139.36 220.074 138.875 220.345C138.389 220.616 137.885 220.751 137.363 220.751C136.859 220.751 136.392 220.653 135.963 220.457C135.543 220.252 135.174 219.972 134.857 219.617C134.549 219.262 134.306 218.861 134.129 218.413C133.961 217.956 133.877 217.475 133.877 216.971ZM139.869 218.049V215.949C139.757 215.632 139.575 215.347 139.323 215.095C139.071 214.834 138.786 214.628 138.469 214.479C138.161 214.32 137.853 214.241 137.545 214.241C137.181 214.241 136.849 214.32 136.551 214.479C136.261 214.628 136.009 214.834 135.795 215.095C135.589 215.347 135.431 215.636 135.319 215.963C135.207 216.29 135.151 216.63 135.151 216.985C135.151 217.349 135.211 217.694 135.333 218.021C135.463 218.348 135.641 218.637 135.865 218.889C136.098 219.141 136.364 219.337 136.663 219.477C136.971 219.617 137.302 219.687 137.657 219.687C137.881 219.687 138.109 219.645 138.343 219.561C138.585 219.477 138.814 219.36 139.029 219.211C139.243 219.062 139.425 218.889 139.575 218.693C139.724 218.488 139.822 218.273 139.869 218.049ZM146.349 220.751C145.799 220.751 145.299 220.653 144.851 220.457C144.403 220.252 144.016 219.976 143.689 219.631C143.363 219.276 143.111 218.87 142.933 218.413C142.756 217.956 142.667 217.475 142.667 216.971C142.667 216.458 142.756 215.972 142.933 215.515C143.111 215.058 143.363 214.656 143.689 214.311C144.016 213.956 144.403 213.681 144.851 213.485C145.309 213.28 145.808 213.177 146.349 213.177C146.9 213.177 147.399 213.28 147.847 213.485C148.295 213.681 148.683 213.956 149.009 214.311C149.345 214.656 149.602 215.058 149.779 215.515C149.957 215.972 150.045 216.458 150.045 216.971C150.045 217.475 149.957 217.956 149.779 218.413C149.602 218.87 149.35 219.276 149.023 219.631C148.697 219.976 148.305 220.252 147.847 220.457C147.399 220.653 146.9 220.751 146.349 220.751ZM143.927 216.985C143.927 217.489 144.035 217.946 144.249 218.357C144.473 218.768 144.767 219.094 145.131 219.337C145.495 219.57 145.901 219.687 146.349 219.687C146.797 219.687 147.203 219.566 147.567 219.323C147.941 219.08 148.235 218.754 148.449 218.343C148.673 217.923 148.785 217.461 148.785 216.957C148.785 216.453 148.673 215.996 148.449 215.585C148.235 215.174 147.941 214.848 147.567 214.605C147.203 214.362 146.797 214.241 146.349 214.241C145.901 214.241 145.495 214.367 145.131 214.619C144.767 214.862 144.473 215.188 144.249 215.599C144.035 216.01 143.927 216.472 143.927 216.985ZM151.566 210.391H152.798V218.721C152.798 219.122 152.854 219.37 152.966 219.463C153.078 219.556 153.213 219.603 153.372 219.603C153.568 219.603 153.755 219.584 153.932 219.547C154.109 219.5 154.259 219.454 154.38 219.407L154.576 220.415C154.371 220.499 154.128 220.569 153.848 220.625C153.568 220.681 153.321 220.709 153.106 220.709C152.63 220.709 152.252 220.574 151.972 220.303C151.701 220.032 151.566 219.654 151.566 219.169V210.391ZM158.736 220.751C158.185 220.751 157.686 220.653 157.238 220.457C156.79 220.252 156.403 219.976 156.076 219.631C155.749 219.276 155.497 218.87 155.32 218.413C155.143 217.956 155.054 217.475 155.054 216.971C155.054 216.458 155.143 215.972 155.32 215.515C155.497 215.058 155.749 214.656 156.076 214.311C156.403 213.956 156.79 213.681 157.238 213.485C157.695 213.28 158.195 213.177 158.736 213.177C159.287 213.177 159.786 213.28 160.234 213.485C160.682 213.681 161.069 213.956 161.396 214.311C161.732 214.656 161.989 215.058 162.166 215.515C162.343 215.972 162.432 216.458 162.432 216.971C162.432 217.475 162.343 217.956 162.166 218.413C161.989 218.87 161.737 219.276 161.41 219.631C161.083 219.976 160.691 220.252 160.234 220.457C159.786 220.653 159.287 220.751 158.736 220.751ZM156.314 216.985C156.314 217.489 156.421 217.946 156.636 218.357C156.86 218.768 157.154 219.094 157.518 219.337C157.882 219.57 158.288 219.687 158.736 219.687C159.184 219.687 159.59 219.566 159.954 219.323C160.327 219.08 160.621 218.754 160.836 218.343C161.06 217.923 161.172 217.461 161.172 216.957C161.172 216.453 161.06 215.996 160.836 215.585C160.621 215.174 160.327 214.848 159.954 214.605C159.59 214.362 159.184 214.241 158.736 214.241C158.288 214.241 157.882 214.367 157.518 214.619C157.154 214.862 156.86 215.188 156.636 215.599C156.421 216.01 156.314 216.472 156.314 216.985ZM167.789 214.381C167.173 214.39 166.627 214.549 166.151 214.857C165.684 215.156 165.353 215.571 165.157 216.103V220.611H163.925V213.303H165.073V214.997C165.325 214.493 165.656 214.087 166.067 213.779C166.487 213.462 166.925 213.284 167.383 213.247C167.476 213.247 167.555 213.247 167.621 213.247C167.686 213.247 167.742 213.252 167.789 213.261V214.381ZM174.73 220.751C174.123 220.751 173.554 220.653 173.022 220.457C172.49 220.252 172.032 219.948 171.65 219.547L172.126 218.679C172.546 219.071 172.966 219.351 173.386 219.519C173.806 219.687 174.235 219.771 174.674 219.771C175.178 219.771 175.588 219.678 175.906 219.491C176.223 219.295 176.382 219.01 176.382 218.637C176.382 218.366 176.298 218.166 176.13 218.035C175.971 217.904 175.742 217.797 175.444 217.713C175.145 217.62 174.79 217.517 174.38 217.405C173.876 217.256 173.451 217.097 173.106 216.929C172.76 216.761 172.499 216.551 172.322 216.299C172.144 216.047 172.056 215.73 172.056 215.347C172.056 214.88 172.177 214.488 172.42 214.171C172.662 213.844 172.994 213.597 173.414 213.429C173.843 213.261 174.328 213.177 174.87 213.177C175.411 213.177 175.901 213.261 176.34 213.429C176.778 213.597 177.156 213.844 177.474 214.171L176.914 215.025C176.624 214.726 176.307 214.507 175.962 214.367C175.616 214.218 175.229 214.143 174.8 214.143C174.548 214.143 174.3 214.176 174.058 214.241C173.815 214.297 173.614 214.404 173.456 214.563C173.297 214.712 173.218 214.927 173.218 215.207C173.218 215.44 173.278 215.627 173.4 215.767C173.53 215.898 173.717 216.01 173.96 216.103C174.212 216.196 174.515 216.299 174.87 216.411C175.42 216.57 175.896 216.728 176.298 216.887C176.708 217.046 177.026 217.251 177.25 217.503C177.474 217.755 177.586 218.105 177.586 218.553C177.586 219.244 177.324 219.785 176.802 220.177C176.279 220.56 175.588 220.751 174.73 220.751ZM179.06 220.611V213.303H180.292V220.611H179.06ZM179.06 211.931V210.391H180.292V211.931H179.06ZM186.066 220.247C185.963 220.294 185.823 220.354 185.646 220.429C185.469 220.504 185.263 220.569 185.03 220.625C184.797 220.681 184.549 220.709 184.288 220.709C183.989 220.709 183.714 220.658 183.462 220.555C183.21 220.443 183.009 220.275 182.86 220.051C182.711 219.818 182.636 219.528 182.636 219.183V214.269H181.642V213.303H182.636V210.867H183.868V213.303H185.506V214.269H183.868V218.805C183.887 219.066 183.975 219.262 184.134 219.393C184.293 219.514 184.479 219.575 184.694 219.575C184.937 219.575 185.161 219.533 185.366 219.449C185.571 219.365 185.707 219.304 185.772 219.267L186.066 220.247ZM190.175 218.497C190.175 218.03 190.306 217.629 190.567 217.293C190.838 216.948 191.206 216.682 191.673 216.495C192.14 216.308 192.681 216.215 193.297 216.215C193.624 216.215 193.969 216.243 194.333 216.299C194.697 216.346 195.019 216.42 195.299 216.523V215.991C195.299 215.431 195.131 214.992 194.795 214.675C194.459 214.348 193.983 214.185 193.367 214.185C192.966 214.185 192.578 214.26 192.205 214.409C191.841 214.549 191.454 214.754 191.043 215.025L190.595 214.157C191.071 213.83 191.547 213.588 192.023 213.429C192.499 213.261 192.994 213.177 193.507 213.177C194.44 213.177 195.178 213.438 195.719 213.961C196.26 214.474 196.531 215.193 196.531 216.117V219.211C196.531 219.36 196.559 219.472 196.615 219.547C196.68 219.612 196.783 219.65 196.923 219.659V220.611C196.802 220.63 196.694 220.644 196.601 220.653C196.517 220.662 196.447 220.667 196.391 220.667C196.102 220.667 195.882 220.588 195.733 220.429C195.593 220.27 195.514 220.102 195.495 219.925L195.467 219.463C195.15 219.874 194.734 220.191 194.221 220.415C193.708 220.639 193.199 220.751 192.695 220.751C192.21 220.751 191.776 220.653 191.393 220.457C191.01 220.252 190.712 219.981 190.497 219.645C190.282 219.3 190.175 218.917 190.175 218.497ZM194.935 219.015C195.047 218.884 195.136 218.754 195.201 218.623C195.266 218.483 195.299 218.366 195.299 218.273V217.363C195.01 217.251 194.706 217.167 194.389 217.111C194.072 217.046 193.759 217.013 193.451 217.013C192.826 217.013 192.317 217.139 191.925 217.391C191.542 217.634 191.351 217.97 191.351 218.399C191.351 218.632 191.412 218.861 191.533 219.085C191.664 219.3 191.85 219.477 192.093 219.617C192.345 219.757 192.653 219.827 193.017 219.827C193.4 219.827 193.764 219.752 194.109 219.603C194.454 219.444 194.73 219.248 194.935 219.015ZM209.519 220.611H208.287V216.523C208.287 215.758 208.161 215.193 207.909 214.829C207.666 214.465 207.302 214.283 206.817 214.283C206.322 214.283 205.874 214.465 205.473 214.829C205.072 215.184 204.787 215.646 204.619 216.215V220.611H203.387V216.523C203.387 215.748 203.266 215.184 203.023 214.829C202.78 214.465 202.416 214.283 201.931 214.283C201.446 214.283 200.998 214.46 200.587 214.815C200.186 215.16 199.901 215.622 199.733 216.201V220.611H198.501V213.303H199.621V214.871C199.92 214.33 200.307 213.914 200.783 213.625C201.259 213.326 201.796 213.177 202.393 213.177C203 213.177 203.485 213.345 203.849 213.681C204.213 214.008 204.437 214.432 204.521 214.955C204.848 214.376 205.244 213.938 205.711 213.639C206.178 213.331 206.71 213.177 207.307 213.177C207.727 213.177 208.077 213.256 208.357 213.415C208.646 213.564 208.875 213.779 209.043 214.059C209.211 214.33 209.332 214.652 209.407 215.025C209.482 215.398 209.519 215.804 209.519 216.243V220.611ZM214.669 220.751C214.118 220.751 213.614 220.653 213.157 220.457C212.709 220.252 212.317 219.976 211.981 219.631C211.654 219.276 211.397 218.87 211.211 218.413C211.033 217.956 210.945 217.47 210.945 216.957C210.945 216.266 211.103 215.636 211.421 215.067C211.738 214.498 212.177 214.04 212.737 213.695C213.306 213.35 213.955 213.177 214.683 213.177C215.42 213.177 216.059 213.354 216.601 213.709C217.151 214.054 217.576 214.512 217.875 215.081C218.183 215.641 218.337 216.248 218.337 216.901C218.337 216.994 218.332 217.088 218.323 217.181C218.323 217.265 218.318 217.33 218.309 217.377H212.247C212.284 217.853 212.415 218.278 212.639 218.651C212.872 219.015 213.171 219.304 213.535 219.519C213.899 219.724 214.291 219.827 214.711 219.827C215.159 219.827 215.579 219.715 215.971 219.491C216.372 219.267 216.647 218.973 216.797 218.609L217.861 218.903C217.702 219.258 217.464 219.575 217.147 219.855C216.839 220.135 216.47 220.354 216.041 220.513C215.621 220.672 215.163 220.751 214.669 220.751ZM212.205 216.523H217.189C217.151 216.047 217.016 215.627 216.783 215.263C216.549 214.899 216.251 214.614 215.887 214.409C215.523 214.204 215.121 214.101 214.683 214.101C214.253 214.101 213.857 214.204 213.493 214.409C213.129 214.614 212.83 214.899 212.597 215.263C212.373 215.627 212.242 216.047 212.205 216.523ZM223.418 220.247C223.315 220.294 223.175 220.354 222.998 220.429C222.82 220.504 222.615 220.569 222.382 220.625C222.148 220.681 221.901 220.709 221.64 220.709C221.341 220.709 221.066 220.658 220.814 220.555C220.562 220.443 220.361 220.275 220.212 220.051C220.062 219.818 219.988 219.528 219.988 219.183V214.269H218.994V213.303H219.988V210.867H221.22V213.303H222.858V214.269H221.22V218.805C221.238 219.066 221.327 219.262 221.486 219.393C221.644 219.514 221.831 219.575 222.046 219.575C222.288 219.575 222.512 219.533 222.718 219.449C222.923 219.365 223.058 219.304 223.124 219.267L223.418 220.247ZM224.602 221.745L224.882 220.499H224.462V219.043H225.624V220.499L225.204 221.745H224.602ZM47.817 241.751C47.2663 241.751 46.7623 241.653 46.305 241.457C45.857 241.252 45.465 240.972 45.129 240.617C44.8023 240.262 44.5457 239.856 44.359 239.399C44.1817 238.942 44.093 238.456 44.093 237.943C44.093 237.252 44.247 236.622 44.555 236.053C44.863 235.484 45.297 235.031 45.857 234.695C46.417 234.35 47.0657 234.177 47.803 234.177C48.5217 234.177 49.147 234.34 49.679 234.667C50.2203 234.984 50.6217 235.414 50.883 235.955L49.679 236.333C49.4923 235.988 49.231 235.722 48.895 235.535C48.559 235.339 48.1857 235.241 47.775 235.241C47.327 235.241 46.9163 235.358 46.543 235.591C46.179 235.824 45.8897 236.146 45.675 236.557C45.4603 236.958 45.353 237.42 45.353 237.943C45.353 238.456 45.4603 238.923 45.675 239.343C45.899 239.754 46.193 240.08 46.557 240.323C46.9303 240.566 47.341 240.687 47.789 240.687C48.0783 240.687 48.3537 240.636 48.615 240.533C48.8857 240.43 49.119 240.295 49.315 240.127C49.5203 239.95 49.6603 239.758 49.735 239.553L50.939 239.917C50.7897 240.272 50.561 240.589 50.253 240.869C49.9543 241.14 49.595 241.354 49.175 241.513C48.7643 241.672 48.3117 241.751 47.817 241.751ZM55.4586 241.751C54.9079 241.751 54.4086 241.653 53.9606 241.457C53.5126 241.252 53.1252 240.976 52.7986 240.631C52.4719 240.276 52.2199 239.87 52.0426 239.413C51.8652 238.956 51.7766 238.475 51.7766 237.971C51.7766 237.458 51.8652 236.972 52.0426 236.515C52.2199 236.058 52.4719 235.656 52.7986 235.311C53.1252 234.956 53.5126 234.681 53.9606 234.485C54.4179 234.28 54.9172 234.177 55.4586 234.177C56.0092 234.177 56.5086 234.28 56.9566 234.485C57.4046 234.681 57.7919 234.956 58.1186 235.311C58.4546 235.656 58.7113 236.058 58.8886 236.515C59.0659 236.972 59.1546 237.458 59.1546 237.971C59.1546 238.475 59.0659 238.956 58.8886 239.413C58.7113 239.87 58.4593 240.276 58.1326 240.631C57.8059 240.976 57.4139 241.252 56.9566 241.457C56.5086 241.653 56.0092 241.751 55.4586 241.751ZM53.0366 237.985C53.0366 238.489 53.1439 238.946 53.3586 239.357C53.5826 239.768 53.8766 240.094 54.2406 240.337C54.6046 240.57 55.0106 240.687 55.4586 240.687C55.9066 240.687 56.3126 240.566 56.6766 240.323C57.0499 240.08 57.3439 239.754 57.5586 239.343C57.7826 238.923 57.8946 238.461 57.8946 237.957C57.8946 237.453 57.7826 236.996 57.5586 236.585C57.3439 236.174 57.0499 235.848 56.6766 235.605C56.3126 235.362 55.9066 235.241 55.4586 235.241C55.0106 235.241 54.6046 235.367 54.2406 235.619C53.8766 235.862 53.5826 236.188 53.3586 236.599C53.1439 237.01 53.0366 237.472 53.0366 237.985ZM66.9894 241.611H65.7574V237.523C65.7574 236.748 65.6361 236.184 65.3934 235.829C65.1601 235.465 64.8008 235.283 64.3154 235.283C63.9794 235.283 63.6434 235.367 63.3074 235.535C62.9808 235.703 62.6868 235.932 62.4254 236.221C62.1734 236.501 61.9914 236.828 61.8794 237.201V241.611H60.6474V234.303H61.7674V235.871C61.9634 235.526 62.2154 235.227 62.5234 234.975C62.8314 234.723 63.1814 234.527 63.5734 234.387C63.9654 234.247 64.3761 234.177 64.8054 234.177C65.2254 234.177 65.5754 234.256 65.8554 234.415C66.1448 234.564 66.3688 234.779 66.5274 235.059C66.6954 235.33 66.8121 235.652 66.8774 236.025C66.9521 236.398 66.9894 236.804 66.9894 237.243V241.611ZM71.4113 241.751C70.8046 241.751 70.2353 241.653 69.7033 241.457C69.1713 241.252 68.7139 240.948 68.3313 240.547L68.8073 239.679C69.2273 240.071 69.6473 240.351 70.0673 240.519C70.4873 240.687 70.9166 240.771 71.3553 240.771C71.8593 240.771 72.2699 240.678 72.5873 240.491C72.9046 240.295 73.0633 240.01 73.0633 239.637C73.0633 239.366 72.9793 239.166 72.8113 239.035C72.6526 238.904 72.4239 238.797 72.1253 238.713C71.8266 238.62 71.4719 238.517 71.0613 238.405C70.5573 238.256 70.1326 238.097 69.7873 237.929C69.4419 237.761 69.1806 237.551 69.0033 237.299C68.8259 237.047 68.7373 236.73 68.7373 236.347C68.7373 235.88 68.8586 235.488 69.1013 235.171C69.3439 234.844 69.6753 234.597 70.0953 234.429C70.5246 234.261 71.0099 234.177 71.5513 234.177C72.0926 234.177 72.5826 234.261 73.0213 234.429C73.4599 234.597 73.8379 234.844 74.1553 235.171L73.5953 236.025C73.3059 235.726 72.9886 235.507 72.6433 235.367C72.2979 235.218 71.9106 235.143 71.4813 235.143C71.2293 235.143 70.9819 235.176 70.7393 235.241C70.4966 235.297 70.2959 235.404 70.1373 235.563C69.9786 235.712 69.8993 235.927 69.8993 236.207C69.8993 236.44 69.9599 236.627 70.0813 236.767C70.2119 236.898 70.3986 237.01 70.6413 237.103C70.8933 237.196 71.1966 237.299 71.5513 237.411C72.1019 237.57 72.5779 237.728 72.9793 237.887C73.3899 238.046 73.7073 238.251 73.9313 238.503C74.1553 238.755 74.2673 239.105 74.2673 239.553C74.2673 240.244 74.0059 240.785 73.4833 241.177C72.9606 241.56 72.2699 241.751 71.4113 241.751ZM78.9752 241.751C78.4245 241.751 77.9205 241.653 77.4632 241.457C77.0152 241.252 76.6232 240.976 76.2872 240.631C75.9605 240.276 75.7039 239.87 75.5172 239.413C75.3399 238.956 75.2512 238.47 75.2512 237.957C75.2512 237.266 75.4099 236.636 75.7272 236.067C76.0445 235.498 76.4832 235.04 77.0432 234.695C77.6125 234.35 78.2612 234.177 78.9892 234.177C79.7265 234.177 80.3659 234.354 80.9072 234.709C81.4579 235.054 81.8825 235.512 82.1812 236.081C82.4892 236.641 82.6432 237.248 82.6432 237.901C82.6432 237.994 82.6385 238.088 82.6292 238.181C82.6292 238.265 82.6245 238.33 82.6152 238.377H76.5532C76.5905 238.853 76.7212 239.278 76.9452 239.651C77.1785 240.015 77.4772 240.304 77.8412 240.519C78.2052 240.724 78.5972 240.827 79.0172 240.827C79.4652 240.827 79.8852 240.715 80.2772 240.491C80.6785 240.267 80.9539 239.973 81.1032 239.609L82.1672 239.903C82.0085 240.258 81.7705 240.575 81.4532 240.855C81.1452 241.135 80.7765 241.354 80.3472 241.513C79.9272 241.672 79.4699 241.751 78.9752 241.751ZM76.5112 237.523H81.4952C81.4579 237.047 81.3225 236.627 81.0892 236.263C80.8559 235.899 80.5572 235.614 80.1932 235.409C79.8292 235.204 79.4279 235.101 78.9892 235.101C78.5599 235.101 78.1632 235.204 77.7992 235.409C77.4352 235.614 77.1365 235.899 76.9032 236.263C76.6792 236.627 76.5485 237.047 76.5112 237.523ZM87.2467 241.751C86.696 241.751 86.192 241.653 85.7347 241.457C85.2867 241.252 84.8947 240.972 84.5587 240.617C84.232 240.262 83.9753 239.856 83.7887 239.399C83.6113 238.942 83.5227 238.456 83.5227 237.943C83.5227 237.252 83.6767 236.622 83.9847 236.053C84.2927 235.484 84.7267 235.031 85.2867 234.695C85.8467 234.35 86.4953 234.177 87.2327 234.177C87.9513 234.177 88.5767 234.34 89.1087 234.667C89.65 234.984 90.0513 235.414 90.3127 235.955L89.1087 236.333C88.922 235.988 88.6607 235.722 88.3247 235.535C87.9887 235.339 87.6153 235.241 87.2047 235.241C86.7567 235.241 86.346 235.358 85.9727 235.591C85.6087 235.824 85.3193 236.146 85.1047 236.557C84.89 236.958 84.7827 237.42 84.7827 237.943C84.7827 238.456 84.89 238.923 85.1047 239.343C85.3287 239.754 85.6227 240.08 85.9867 240.323C86.36 240.566 86.7707 240.687 87.2187 240.687C87.508 240.687 87.7833 240.636 88.0447 240.533C88.3153 240.43 88.5487 240.295 88.7447 240.127C88.95 239.95 89.09 239.758 89.1647 239.553L90.3687 239.917C90.2193 240.272 89.9907 240.589 89.6827 240.869C89.384 241.14 89.0247 241.354 88.6047 241.513C88.194 241.672 87.7413 241.751 87.2467 241.751ZM95.5446 241.247C95.442 241.294 95.302 241.354 95.1246 241.429C94.9473 241.504 94.742 241.569 94.5086 241.625C94.2753 241.681 94.028 241.709 93.7666 241.709C93.468 241.709 93.1926 241.658 92.9406 241.555C92.6886 241.443 92.488 241.275 92.3386 241.051C92.1893 240.818 92.1146 240.528 92.1146 240.183V235.269H91.1206V234.303H92.1146V231.867H93.3466V234.303H94.9846V235.269H93.3466V239.805C93.3653 240.066 93.454 240.262 93.6126 240.393C93.7713 240.514 93.958 240.575 94.1726 240.575C94.4153 240.575 94.6393 240.533 94.8446 240.449C95.05 240.365 95.1853 240.304 95.2506 240.267L95.5446 241.247ZM99.8248 241.751C99.2741 241.751 98.7701 241.653 98.3128 241.457C97.8648 241.252 97.4728 240.976 97.1368 240.631C96.8101 240.276 96.5535 239.87 96.3668 239.413C96.1895 238.956 96.1008 238.47 96.1008 237.957C96.1008 237.266 96.2595 236.636 96.5768 236.067C96.8941 235.498 97.3328 235.04 97.8928 234.695C98.4621 234.35 99.1108 234.177 99.8388 234.177C100.576 234.177 101.215 234.354 101.757 234.709C102.307 235.054 102.732 235.512 103.031 236.081C103.339 236.641 103.493 237.248 103.493 237.901C103.493 237.994 103.488 238.088 103.479 238.181C103.479 238.265 103.474 238.33 103.465 238.377H97.4028C97.4401 238.853 97.5708 239.278 97.7948 239.651C98.0281 240.015 98.3268 240.304 98.6908 240.519C99.0548 240.724 99.4468 240.827 99.8668 240.827C100.315 240.827 100.735 240.715 101.127 240.491C101.528 240.267 101.803 239.973 101.953 239.609L103.017 239.903C102.858 240.258 102.62 240.575 102.303 240.855C101.995 241.135 101.626 241.354 101.197 241.513C100.777 241.672 100.319 241.751 99.8248 241.751ZM97.3608 237.523H102.345C102.307 237.047 102.172 236.627 101.939 236.263C101.705 235.899 101.407 235.614 101.043 235.409C100.679 235.204 100.277 235.101 99.8388 235.101C99.4095 235.101 99.0128 235.204 98.6488 235.409C98.2848 235.614 97.9861 235.899 97.7528 236.263C97.5288 236.627 97.3981 237.047 97.3608 237.523ZM108.574 241.247C108.471 241.294 108.331 241.354 108.154 241.429C107.977 241.504 107.771 241.569 107.538 241.625C107.305 241.681 107.057 241.709 106.796 241.709C106.497 241.709 106.222 241.658 105.97 241.555C105.718 241.443 105.517 241.275 105.368 241.051C105.219 240.818 105.144 240.528 105.144 240.183V235.269H104.15V234.303H105.144V231.867H106.376V234.303H108.014V235.269H106.376V239.805C106.395 240.066 106.483 240.262 106.642 240.393C106.801 240.514 106.987 240.575 107.202 240.575C107.445 240.575 107.669 240.533 107.874 240.449C108.079 240.365 108.215 240.304 108.28 240.267L108.574 241.247ZM109.646 238.685V234.303H110.878V238.447C110.878 239.194 111.008 239.754 111.27 240.127C111.531 240.5 111.918 240.687 112.432 240.687C112.768 240.687 113.09 240.617 113.398 240.477C113.715 240.328 114 240.118 114.252 239.847C114.504 239.576 114.7 239.254 114.84 238.881V234.303H116.072V240.211C116.072 240.36 116.1 240.472 116.156 240.547C116.221 240.612 116.324 240.65 116.464 240.659V241.611C116.324 241.63 116.212 241.639 116.128 241.639C116.053 241.648 115.978 241.653 115.904 241.653C115.67 241.653 115.47 241.583 115.302 241.443C115.134 241.294 115.045 241.112 115.036 240.897L115.008 240.043C114.69 240.584 114.261 241.004 113.72 241.303C113.188 241.602 112.604 241.751 111.97 241.751C111.204 241.751 110.626 241.494 110.234 240.981C109.842 240.458 109.646 239.693 109.646 238.685ZM121.988 235.381C121.372 235.39 120.826 235.549 120.35 235.857C119.883 236.156 119.552 236.571 119.356 237.103V241.611H118.124V234.303H119.272V235.997C119.524 235.493 119.855 235.087 120.266 234.779C120.686 234.462 121.125 234.284 121.582 234.247C121.675 234.247 121.755 234.247 121.82 234.247C121.885 234.247 121.941 234.252 121.988 234.261V235.381ZM125.849 239.497C125.849 239.03 125.979 238.629 126.241 238.293C126.511 237.948 126.88 237.682 127.347 237.495C127.813 237.308 128.355 237.215 128.971 237.215C129.297 237.215 129.643 237.243 130.007 237.299C130.371 237.346 130.693 237.42 130.973 237.523V236.991C130.973 236.431 130.805 235.992 130.469 235.675C130.133 235.348 129.657 235.185 129.041 235.185C128.639 235.185 128.252 235.26 127.879 235.409C127.515 235.549 127.127 235.754 126.717 236.025L126.269 235.157C126.745 234.83 127.221 234.588 127.697 234.429C128.173 234.261 128.667 234.177 129.181 234.177C130.114 234.177 130.852 234.438 131.393 234.961C131.934 235.474 132.205 236.193 132.205 237.117V240.211C132.205 240.36 132.233 240.472 132.289 240.547C132.354 240.612 132.457 240.65 132.597 240.659V241.611C132.475 241.63 132.368 241.644 132.275 241.653C132.191 241.662 132.121 241.667 132.065 241.667C131.776 241.667 131.556 241.588 131.407 241.429C131.267 241.27 131.188 241.102 131.169 240.925L131.141 240.463C130.823 240.874 130.408 241.191 129.895 241.415C129.381 241.639 128.873 241.751 128.369 241.751C127.883 241.751 127.449 241.653 127.067 241.457C126.684 241.252 126.385 240.981 126.171 240.645C125.956 240.3 125.849 239.917 125.849 239.497ZM130.609 240.015C130.721 239.884 130.81 239.754 130.875 239.623C130.94 239.483 130.973 239.366 130.973 239.273V238.363C130.683 238.251 130.38 238.167 130.063 238.111C129.746 238.046 129.433 238.013 129.125 238.013C128.499 238.013 127.991 238.139 127.599 238.391C127.216 238.634 127.025 238.97 127.025 239.399C127.025 239.632 127.085 239.861 127.207 240.085C127.337 240.3 127.524 240.477 127.767 240.617C128.019 240.757 128.327 240.827 128.691 240.827C129.073 240.827 129.437 240.752 129.783 240.603C130.128 240.444 130.403 240.248 130.609 240.015ZM133.699 237.971C133.699 237.28 133.839 236.65 134.119 236.081C134.408 235.502 134.8 235.04 135.295 234.695C135.799 234.35 136.373 234.177 137.017 234.177C137.605 234.177 138.132 234.331 138.599 234.639C139.065 234.947 139.429 235.32 139.691 235.759V231.391H140.923V240.211C140.923 240.36 140.951 240.472 141.007 240.547C141.072 240.612 141.175 240.65 141.315 240.659V241.611C141.081 241.648 140.899 241.667 140.769 241.667C140.526 241.667 140.311 241.583 140.125 241.415C139.947 241.247 139.859 241.06 139.859 240.855V240.239C139.569 240.706 139.182 241.074 138.697 241.345C138.211 241.616 137.707 241.751 137.185 241.751C136.681 241.751 136.214 241.653 135.785 241.457C135.365 241.252 134.996 240.972 134.679 240.617C134.371 240.262 134.128 239.861 133.951 239.413C133.783 238.956 133.699 238.475 133.699 237.971ZM139.691 239.049V236.949C139.579 236.632 139.397 236.347 139.145 236.095C138.893 235.834 138.608 235.628 138.291 235.479C137.983 235.32 137.675 235.241 137.367 235.241C137.003 235.241 136.671 235.32 136.373 235.479C136.083 235.628 135.831 235.834 135.617 236.095C135.411 236.347 135.253 236.636 135.141 236.963C135.029 237.29 134.973 237.63 134.973 237.985C134.973 238.349 135.033 238.694 135.155 239.021C135.285 239.348 135.463 239.637 135.687 239.889C135.92 240.141 136.186 240.337 136.485 240.477C136.793 240.617 137.124 240.687 137.479 240.687C137.703 240.687 137.931 240.645 138.165 240.561C138.407 240.477 138.636 240.36 138.851 240.211C139.065 240.062 139.247 239.889 139.397 239.693C139.546 239.488 139.644 239.273 139.691 239.049ZM142.979 241.611V234.303H144.211V241.611H142.979ZM142.979 232.931V231.391H144.211V232.931H142.979ZM150.14 241.751C149.543 241.751 149.011 241.602 148.544 241.303C148.077 241.004 147.709 240.626 147.438 240.169V244.593H146.206V234.303H147.298V235.675C147.587 235.227 147.965 234.868 148.432 234.597C148.899 234.317 149.407 234.177 149.958 234.177C150.462 234.177 150.924 234.28 151.344 234.485C151.764 234.69 152.128 234.97 152.436 235.325C152.744 235.68 152.982 236.086 153.15 236.543C153.327 236.991 153.416 237.462 153.416 237.957C153.416 238.648 153.276 239.282 152.996 239.861C152.725 240.44 152.343 240.902 151.848 241.247C151.353 241.583 150.784 241.751 150.14 241.751ZM149.762 240.687C150.126 240.687 150.453 240.612 150.742 240.463C151.041 240.304 151.293 240.099 151.498 239.847C151.713 239.586 151.876 239.292 151.988 238.965C152.1 238.638 152.156 238.302 152.156 237.957C152.156 237.593 152.091 237.248 151.96 236.921C151.839 236.594 151.661 236.305 151.428 236.053C151.204 235.801 150.938 235.605 150.63 235.465C150.331 235.316 150.005 235.241 149.65 235.241C149.426 235.241 149.193 235.283 148.95 235.367C148.717 235.451 148.493 235.572 148.278 235.731C148.063 235.88 147.881 236.053 147.732 236.249C147.583 236.445 147.485 236.655 147.438 236.879V238.965C147.578 239.282 147.765 239.572 147.998 239.833C148.231 240.094 148.502 240.304 148.81 240.463C149.118 240.612 149.435 240.687 149.762 240.687ZM154.929 241.611V234.303H156.161V241.611H154.929ZM154.929 232.931V231.391H156.161V232.931H154.929ZM160.661 241.751C160.055 241.751 159.485 241.653 158.953 241.457C158.421 241.252 157.964 240.948 157.581 240.547L158.057 239.679C158.477 240.071 158.897 240.351 159.317 240.519C159.737 240.687 160.167 240.771 160.605 240.771C161.109 240.771 161.52 240.678 161.837 240.491C162.155 240.295 162.313 240.01 162.313 239.637C162.313 239.366 162.229 239.166 162.061 239.035C161.903 238.904 161.674 238.797 161.375 238.713C161.077 238.62 160.722 238.517 160.311 238.405C159.807 238.256 159.383 238.097 159.037 237.929C158.692 237.761 158.431 237.551 158.253 237.299C158.076 237.047 157.987 236.73 157.987 236.347C157.987 235.88 158.109 235.488 158.351 235.171C158.594 234.844 158.925 234.597 159.345 234.429C159.775 234.261 160.26 234.177 160.801 234.177C161.343 234.177 161.833 234.261 162.271 234.429C162.71 234.597 163.088 234.844 163.405 235.171L162.845 236.025C162.556 235.726 162.239 235.507 161.893 235.367C161.548 235.218 161.161 235.143 160.731 235.143C160.479 235.143 160.232 235.176 159.989 235.241C159.747 235.297 159.546 235.404 159.387 235.563C159.229 235.712 159.149 235.927 159.149 236.207C159.149 236.44 159.21 236.627 159.331 236.767C159.462 236.898 159.649 237.01 159.891 237.103C160.143 237.196 160.447 237.299 160.801 237.411C161.352 237.57 161.828 237.728 162.229 237.887C162.64 238.046 162.957 238.251 163.181 238.503C163.405 238.755 163.517 239.105 163.517 239.553C163.517 240.244 163.256 240.785 162.733 241.177C162.211 241.56 161.52 241.751 160.661 241.751ZM168.225 241.751C167.675 241.751 167.171 241.653 166.713 241.457C166.265 241.252 165.873 240.972 165.537 240.617C165.211 240.262 164.954 239.856 164.767 239.399C164.59 238.942 164.501 238.456 164.501 237.943C164.501 237.252 164.655 236.622 164.963 236.053C165.271 235.484 165.705 235.031 166.265 234.695C166.825 234.35 167.474 234.177 168.211 234.177C168.93 234.177 169.555 234.34 170.087 234.667C170.629 234.984 171.03 235.414 171.291 235.955L170.087 236.333C169.901 235.988 169.639 235.722 169.303 235.535C168.967 235.339 168.594 235.241 168.183 235.241C167.735 235.241 167.325 235.358 166.951 235.591C166.587 235.824 166.298 236.146 166.083 236.557C165.869 236.958 165.761 237.42 165.761 237.943C165.761 238.456 165.869 238.923 166.083 239.343C166.307 239.754 166.601 240.08 166.965 240.323C167.339 240.566 167.749 240.687 168.197 240.687C168.487 240.687 168.762 240.636 169.023 240.533C169.294 240.43 169.527 240.295 169.723 240.127C169.929 239.95 170.069 239.758 170.143 239.553L171.347 239.917C171.198 240.272 170.969 240.589 170.661 240.869C170.363 241.14 170.003 241.354 169.583 241.513C169.173 241.672 168.72 241.751 168.225 241.751ZM172.743 241.611V234.303H173.975V241.611H172.743ZM172.743 232.931V231.391H173.975V232.931H172.743ZM182.312 241.611H181.08V237.523C181.08 236.748 180.958 236.184 180.716 235.829C180.482 235.465 180.123 235.283 179.638 235.283C179.302 235.283 178.966 235.367 178.63 235.535C178.303 235.703 178.009 235.932 177.748 236.221C177.496 236.501 177.314 236.828 177.202 237.201V241.611H175.97V234.303H177.09V235.871C177.286 235.526 177.538 235.227 177.846 234.975C178.154 234.723 178.504 234.527 178.896 234.387C179.288 234.247 179.698 234.177 180.128 234.177C180.548 234.177 180.898 234.256 181.178 234.415C181.467 234.564 181.691 234.779 181.85 235.059C182.018 235.33 182.134 235.652 182.2 236.025C182.274 236.398 182.312 236.804 182.312 237.243V241.611ZM187.14 241.695C186.645 241.695 186.188 241.597 185.768 241.401C185.357 241.196 185.002 240.92 184.704 240.575C184.405 240.22 184.172 239.819 184.004 239.371C183.845 238.923 183.766 238.456 183.766 237.971C183.766 237.458 183.845 236.972 184.004 236.515C184.172 236.058 184.405 235.656 184.704 235.311C185.012 234.956 185.371 234.681 185.782 234.485C186.192 234.28 186.65 234.177 187.154 234.177C187.76 234.177 188.288 234.326 188.736 234.625C189.193 234.924 189.576 235.302 189.884 235.759V234.303H190.976V241.527C190.976 242.218 190.808 242.801 190.472 243.277C190.145 243.753 189.697 244.112 189.128 244.355C188.568 244.607 187.942 244.733 187.252 244.733C186.43 244.733 185.758 244.588 185.236 244.299C184.713 244.01 184.279 243.618 183.934 243.123L184.648 242.493C184.937 242.922 185.31 243.244 185.768 243.459C186.234 243.674 186.729 243.781 187.252 243.781C187.7 243.781 188.11 243.697 188.484 243.529C188.866 243.37 189.17 243.123 189.394 242.787C189.627 242.451 189.744 242.031 189.744 241.527V240.239C189.473 240.687 189.1 241.042 188.624 241.303C188.157 241.564 187.662 241.695 187.14 241.695ZM187.518 240.687C187.779 240.687 188.031 240.64 188.274 240.547C188.516 240.454 188.74 240.332 188.946 240.183C189.151 240.024 189.324 239.847 189.464 239.651C189.604 239.455 189.697 239.254 189.744 239.049V236.949C189.613 236.613 189.426 236.319 189.184 236.067C188.941 235.806 188.666 235.605 188.358 235.465C188.05 235.316 187.732 235.241 187.406 235.241C187.032 235.241 186.696 235.32 186.398 235.479C186.108 235.638 185.861 235.852 185.656 236.123C185.45 236.384 185.292 236.678 185.18 237.005C185.068 237.332 185.012 237.663 185.012 237.999C185.012 238.363 185.077 238.708 185.208 239.035C185.338 239.352 185.516 239.637 185.74 239.889C185.964 240.141 186.23 240.337 186.538 240.477C186.846 240.617 187.172 240.687 187.518 240.687ZM199.739 241.751C199.188 241.751 198.684 241.653 198.227 241.457C197.779 241.252 197.387 240.976 197.051 240.631C196.724 240.276 196.468 239.87 196.281 239.413C196.104 238.956 196.015 238.47 196.015 237.957C196.015 237.266 196.174 236.636 196.491 236.067C196.808 235.498 197.247 235.04 197.807 234.695C198.376 234.35 199.025 234.177 199.753 234.177C200.49 234.177 201.13 234.354 201.671 234.709C202.222 235.054 202.646 235.512 202.945 236.081C203.253 236.641 203.407 237.248 203.407 237.901C203.407 237.994 203.402 238.088 203.393 238.181C203.393 238.265 203.388 238.33 203.379 238.377H197.317C197.354 238.853 197.485 239.278 197.709 239.651C197.942 240.015 198.241 240.304 198.605 240.519C198.969 240.724 199.361 240.827 199.781 240.827C200.229 240.827 200.649 240.715 201.041 240.491C201.442 240.267 201.718 239.973 201.867 239.609L202.931 239.903C202.772 240.258 202.534 240.575 202.217 240.855C201.909 241.135 201.54 241.354 201.111 241.513C200.691 241.672 200.234 241.751 199.739 241.751ZM197.275 237.523H202.259C202.222 237.047 202.086 236.627 201.853 236.263C201.62 235.899 201.321 235.614 200.957 235.409C200.593 235.204 200.192 235.101 199.753 235.101C199.324 235.101 198.927 235.204 198.563 235.409C198.199 235.614 197.9 235.899 197.667 236.263C197.443 236.627 197.312 237.047 197.275 237.523ZM204.804 231.391H206.036V239.721C206.036 240.122 206.092 240.37 206.204 240.463C206.316 240.556 206.452 240.603 206.61 240.603C206.806 240.603 206.993 240.584 207.17 240.547C207.348 240.5 207.497 240.454 207.618 240.407L207.814 241.415C207.609 241.499 207.366 241.569 207.086 241.625C206.806 241.681 206.559 241.709 206.344 241.709C205.868 241.709 205.49 241.574 205.21 241.303C204.94 241.032 204.804 240.654 204.804 240.169V231.391ZM208.782 241.611V234.303H210.014V241.611H208.782ZM208.782 232.931V231.391H210.014V232.931H208.782ZM215.789 241.247C215.686 241.294 215.546 241.354 215.369 241.429C215.191 241.504 214.986 241.569 214.753 241.625C214.519 241.681 214.272 241.709 214.011 241.709C213.712 241.709 213.437 241.658 213.185 241.555C212.933 241.443 212.732 241.275 212.583 241.051C212.433 240.818 212.359 240.528 212.359 240.183V235.269H211.365V234.303H212.359V231.867H213.591V234.303H215.229V235.269H213.591V239.805C213.609 240.066 213.698 240.262 213.857 240.393C214.015 240.514 214.202 240.575 214.417 240.575C214.659 240.575 214.883 240.533 215.089 240.449C215.294 240.365 215.429 240.304 215.495 240.267L215.789 241.247ZM216.973 242.745L217.253 241.499H216.833V240.043H217.995V241.499L217.575 242.745H216.973ZM225.931 241.751C225.324 241.751 224.755 241.653 224.223 241.457C223.691 241.252 223.233 240.948 222.851 240.547L223.327 239.679C223.747 240.071 224.167 240.351 224.587 240.519C225.007 240.687 225.436 240.771 225.875 240.771C226.379 240.771 226.789 240.678 227.107 240.491C227.424 240.295 227.583 240.01 227.583 239.637C227.583 239.366 227.499 239.166 227.331 239.035C227.172 238.904 226.943 238.797 226.645 238.713C226.346 238.62 225.991 238.517 225.581 238.405C225.077 238.256 224.652 238.097 224.307 237.929C223.961 237.761 223.7 237.551 223.523 237.299C223.345 237.047 223.257 236.73 223.257 236.347C223.257 235.88 223.378 235.488 223.621 235.171C223.863 234.844 224.195 234.597 224.615 234.429C225.044 234.261 225.529 234.177 226.071 234.177C226.612 234.177 227.102 234.261 227.541 234.429C227.979 234.597 228.357 234.844 228.675 235.171L228.115 236.025C227.825 235.726 227.508 235.507 227.163 235.367C226.817 235.218 226.43 235.143 226.001 235.143C225.749 235.143 225.501 235.176 225.259 235.241C225.016 235.297 224.815 235.404 224.657 235.563C224.498 235.712 224.419 235.927 224.419 236.207C224.419 236.44 224.479 236.627 224.601 236.767C224.731 236.898 224.918 237.01 225.161 237.103C225.413 237.196 225.716 237.299 226.071 237.411C226.621 237.57 227.097 237.728 227.499 237.887C227.909 238.046 228.227 238.251 228.451 238.503C228.675 238.755 228.787 239.105 228.787 239.553C228.787 240.244 228.525 240.785 228.003 241.177C227.48 241.56 226.789 241.751 225.931 241.751ZM233.495 241.751C232.944 241.751 232.44 241.653 231.983 241.457C231.535 241.252 231.143 240.976 230.807 240.631C230.48 240.276 230.223 239.87 230.037 239.413C229.859 238.956 229.771 238.47 229.771 237.957C229.771 237.266 229.929 236.636 230.247 236.067C230.564 235.498 231.003 235.04 231.563 234.695C232.132 234.35 232.781 234.177 233.509 234.177C234.246 234.177 234.885 234.354 235.427 234.709C235.977 235.054 236.402 235.512 236.701 236.081C237.009 236.641 237.163 237.248 237.163 237.901C237.163 237.994 237.158 238.088 237.149 238.181C237.149 238.265 237.144 238.33 237.135 238.377H231.073C231.11 238.853 231.241 239.278 231.465 239.651C231.698 240.015 231.997 240.304 232.361 240.519C232.725 240.724 233.117 240.827 233.537 240.827C233.985 240.827 234.405 240.715 234.797 240.491C235.198 240.267 235.473 239.973 235.623 239.609L236.687 239.903C236.528 240.258 236.29 240.575 235.973 240.855C235.665 241.135 235.296 241.354 234.867 241.513C234.447 241.672 233.989 241.751 233.495 241.751ZM231.031 237.523H236.015C235.977 237.047 235.842 236.627 235.609 236.263C235.375 235.899 235.077 235.614 234.713 235.409C234.349 235.204 233.947 235.101 233.509 235.101C233.079 235.101 232.683 235.204 232.319 235.409C231.955 235.614 231.656 235.899 231.423 236.263C231.199 236.627 231.068 237.047 231.031 237.523ZM238.056 237.971C238.056 237.28 238.196 236.65 238.476 236.081C238.766 235.502 239.158 235.04 239.652 234.695C240.156 234.35 240.73 234.177 241.374 234.177C241.962 234.177 242.49 234.331 242.956 234.639C243.423 234.947 243.787 235.32 244.048 235.759V231.391H245.28V240.211C245.28 240.36 245.308 240.472 245.364 240.547C245.43 240.612 245.532 240.65 245.672 240.659V241.611C245.439 241.648 245.257 241.667 245.126 241.667C244.884 241.667 244.669 241.583 244.482 241.415C244.305 241.247 244.216 241.06 244.216 240.855V240.239C243.927 240.706 243.54 241.074 243.054 241.345C242.569 241.616 242.065 241.751 241.542 241.751C241.038 241.751 240.572 241.653 240.142 241.457C239.722 241.252 239.354 240.972 239.036 240.617C238.728 240.262 238.486 239.861 238.308 239.413C238.14 238.956 238.056 238.475 238.056 237.971ZM244.048 239.049V236.949C243.936 236.632 243.754 236.347 243.502 236.095C243.25 235.834 242.966 235.628 242.648 235.479C242.34 235.32 242.032 235.241 241.724 235.241C241.36 235.241 241.029 235.32 240.73 235.479C240.441 235.628 240.189 235.834 239.974 236.095C239.769 236.347 239.61 236.636 239.498 236.963C239.386 237.29 239.33 237.63 239.33 237.985C239.33 238.349 239.391 238.694 239.512 239.021C239.643 239.348 239.82 239.637 240.044 239.889C240.278 240.141 240.544 240.337 240.842 240.477C241.15 240.617 241.482 240.687 241.836 240.687C242.06 240.687 242.289 240.645 242.522 240.561C242.765 240.477 242.994 240.36 243.208 240.211C243.423 240.062 243.605 239.889 243.754 239.693C243.904 239.488 244.002 239.273 244.048 239.049ZM44.107 258.971C44.107 258.28 44.247 257.65 44.527 257.081C44.8163 256.502 45.2083 256.04 45.703 255.695C46.207 255.35 46.781 255.177 47.425 255.177C48.013 255.177 48.5403 255.331 49.007 255.639C49.4737 255.947 49.8377 256.32 50.099 256.759V252.391H51.331V261.211C51.331 261.36 51.359 261.472 51.415 261.547C51.4803 261.612 51.583 261.65 51.723 261.659V262.611C51.4897 262.648 51.3077 262.667 51.177 262.667C50.9343 262.667 50.7197 262.583 50.533 262.415C50.3557 262.247 50.267 262.06 50.267 261.855V261.239C49.9777 261.706 49.5903 262.074 49.105 262.345C48.6197 262.616 48.1157 262.751 47.593 262.751C47.089 262.751 46.6223 262.653 46.193 262.457C45.773 262.252 45.4043 261.972 45.087 261.617C44.779 261.262 44.5363 260.861 44.359 260.413C44.191 259.956 44.107 259.475 44.107 258.971ZM50.099 260.049V257.949C49.987 257.632 49.805 257.347 49.553 257.095C49.301 256.834 49.0163 256.628 48.699 256.479C48.391 256.32 48.083 256.241 47.775 256.241C47.411 256.241 47.0797 256.32 46.781 256.479C46.4917 256.628 46.2397 256.834 46.025 257.095C45.8197 257.347 45.661 257.636 45.549 257.963C45.437 258.29 45.381 258.63 45.381 258.985C45.381 259.349 45.4417 259.694 45.563 260.021C45.6937 260.348 45.871 260.637 46.095 260.889C46.3283 261.141 46.5943 261.337 46.893 261.477C47.201 261.617 47.5323 261.687 47.887 261.687C48.111 261.687 48.3397 261.645 48.573 261.561C48.8157 261.477 49.0443 261.36 49.259 261.211C49.4737 261.062 49.6557 260.889 49.805 260.693C49.9543 260.488 50.0523 260.273 50.099 260.049ZM56.5797 262.751C56.029 262.751 55.5297 262.653 55.0817 262.457C54.6337 262.252 54.2463 261.976 53.9197 261.631C53.593 261.276 53.341 260.87 53.1637 260.413C52.9863 259.956 52.8977 259.475 52.8977 258.971C52.8977 258.458 52.9863 257.972 53.1637 257.515C53.341 257.058 53.593 256.656 53.9197 256.311C54.2463 255.956 54.6337 255.681 55.0817 255.485C55.539 255.28 56.0383 255.177 56.5797 255.177C57.1303 255.177 57.6297 255.28 58.0777 255.485C58.5257 255.681 58.913 255.956 59.2397 256.311C59.5757 256.656 59.8323 257.058 60.0097 257.515C60.187 257.972 60.2757 258.458 60.2757 258.971C60.2757 259.475 60.187 259.956 60.0097 260.413C59.8323 260.87 59.5803 261.276 59.2537 261.631C58.927 261.976 58.535 262.252 58.0777 262.457C57.6297 262.653 57.1303 262.751 56.5797 262.751ZM54.1577 258.985C54.1577 259.489 54.265 259.946 54.4797 260.357C54.7037 260.768 54.9977 261.094 55.3617 261.337C55.7257 261.57 56.1317 261.687 56.5797 261.687C57.0277 261.687 57.4337 261.566 57.7977 261.323C58.171 261.08 58.465 260.754 58.6797 260.343C58.9037 259.923 59.0157 259.461 59.0157 258.957C59.0157 258.453 58.9037 257.996 58.6797 257.585C58.465 257.174 58.171 256.848 57.7977 256.605C57.4337 256.362 57.0277 256.241 56.5797 256.241C56.1317 256.241 55.7257 256.367 55.3617 256.619C54.9977 256.862 54.7037 257.188 54.4797 257.599C54.265 258.01 54.1577 258.472 54.1577 258.985ZM68.5436 262.751C67.9929 262.751 67.4889 262.653 67.0316 262.457C66.5836 262.252 66.1916 261.976 65.8556 261.631C65.5289 261.276 65.2722 260.87 65.0856 260.413C64.9082 259.956 64.8196 259.47 64.8196 258.957C64.8196 258.266 64.9782 257.636 65.2956 257.067C65.6129 256.498 66.0516 256.04 66.6116 255.695C67.1809 255.35 67.8296 255.177 68.5576 255.177C69.2949 255.177 69.9342 255.354 70.4756 255.709C71.0262 256.054 71.4509 256.512 71.7496 257.081C72.0576 257.641 72.2116 258.248 72.2116 258.901C72.2116 258.994 72.2069 259.088 72.1976 259.181C72.1976 259.265 72.1929 259.33 72.1836 259.377H66.1216C66.1589 259.853 66.2896 260.278 66.5136 260.651C66.7469 261.015 67.0456 261.304 67.4096 261.519C67.7736 261.724 68.1656 261.827 68.5856 261.827C69.0336 261.827 69.4536 261.715 69.8456 261.491C70.2469 261.267 70.5222 260.973 70.6716 260.609L71.7356 260.903C71.5769 261.258 71.3389 261.575 71.0216 261.855C70.7136 262.135 70.3449 262.354 69.9156 262.513C69.4956 262.672 69.0382 262.751 68.5436 262.751ZM66.0796 258.523H71.0636C71.0262 258.047 70.8909 257.627 70.6576 257.263C70.4242 256.899 70.1256 256.614 69.7616 256.409C69.3976 256.204 68.9962 256.101 68.5576 256.101C68.1282 256.101 67.7316 256.204 67.3676 256.409C67.0036 256.614 66.7049 256.899 66.4716 257.263C66.2476 257.627 66.1169 258.047 66.0796 258.523ZM73.581 262.611V255.303H74.813V262.611H73.581ZM73.581 253.931V252.391H74.813V253.931H73.581ZM76.7376 259.685V255.303H77.9696V259.447C77.9696 260.194 78.1003 260.754 78.3616 261.127C78.6229 261.5 79.0103 261.687 79.5236 261.687C79.8596 261.687 80.1816 261.617 80.4896 261.477C80.8069 261.328 81.0916 261.118 81.3436 260.847C81.5956 260.576 81.7916 260.254 81.9316 259.881V255.303H83.1636V261.211C83.1636 261.36 83.1916 261.472 83.2476 261.547C83.3129 261.612 83.4156 261.65 83.5556 261.659V262.611C83.4156 262.63 83.3036 262.639 83.2196 262.639C83.1449 262.648 83.0703 262.653 82.9956 262.653C82.7623 262.653 82.5616 262.583 82.3936 262.443C82.2256 262.294 82.1369 262.112 82.1276 261.897L82.0996 261.043C81.7823 261.584 81.3529 262.004 80.8116 262.303C80.2796 262.602 79.6963 262.751 79.0616 262.751C78.2963 262.751 77.7176 262.494 77.3256 261.981C76.9336 261.458 76.7376 260.693 76.7376 259.685ZM87.7218 262.751C87.1151 262.751 86.5458 262.653 86.0138 262.457C85.4818 262.252 85.0245 261.948 84.6418 261.547L85.1178 260.679C85.5378 261.071 85.9578 261.351 86.3778 261.519C86.7978 261.687 87.2271 261.771 87.6658 261.771C88.1698 261.771 88.5805 261.678 88.8978 261.491C89.2151 261.295 89.3738 261.01 89.3738 260.637C89.3738 260.366 89.2898 260.166 89.1218 260.035C88.9631 259.904 88.7345 259.797 88.4358 259.713C88.1371 259.62 87.7825 259.517 87.3718 259.405C86.8678 259.256 86.4431 259.097 86.0978 258.929C85.7525 258.761 85.4911 258.551 85.3138 258.299C85.1365 258.047 85.0478 257.73 85.0478 257.347C85.0478 256.88 85.1691 256.488 85.4118 256.171C85.6545 255.844 85.9858 255.597 86.4058 255.429C86.8351 255.261 87.3205 255.177 87.8618 255.177C88.4031 255.177 88.8931 255.261 89.3318 255.429C89.7705 255.597 90.1485 255.844 90.4658 256.171L89.9058 257.025C89.6165 256.726 89.2991 256.507 88.9538 256.367C88.6085 256.218 88.2211 256.143 87.7918 256.143C87.5398 256.143 87.2925 256.176 87.0498 256.241C86.8071 256.297 86.6065 256.404 86.4478 256.563C86.2891 256.712 86.2098 256.927 86.2098 257.207C86.2098 257.44 86.2705 257.627 86.3918 257.767C86.5225 257.898 86.7091 258.01 86.9518 258.103C87.2038 258.196 87.5071 258.299 87.8618 258.411C88.4125 258.57 88.8885 258.728 89.2898 258.887C89.7005 259.046 90.0178 259.251 90.2418 259.503C90.4658 259.755 90.5778 260.105 90.5778 260.553C90.5778 261.244 90.3165 261.785 89.7938 262.177C89.2711 262.56 88.5805 262.751 87.7218 262.751ZM103.07 262.611H101.838V258.523C101.838 257.758 101.712 257.193 101.46 256.829C101.217 256.465 100.853 256.283 100.368 256.283C99.8731 256.283 99.4251 256.465 99.0237 256.829C98.6224 257.184 98.3377 257.646 98.1697 258.215V262.611H96.9377V258.523C96.9377 257.748 96.8164 257.184 96.5737 256.829C96.3311 256.465 95.9671 256.283 95.4817 256.283C94.9964 256.283 94.5484 256.46 94.1377 256.815C93.7364 257.16 93.4517 257.622 93.2837 258.201V262.611H92.0517V255.303H93.1717V256.871C93.4704 256.33 93.8577 255.914 94.3337 255.625C94.8097 255.326 95.3464 255.177 95.9437 255.177C96.5504 255.177 97.0357 255.345 97.3997 255.681C97.7637 256.008 97.9877 256.432 98.0717 256.955C98.3984 256.376 98.7951 255.938 99.2617 255.639C99.7284 255.331 100.26 255.177 100.858 255.177C101.278 255.177 101.628 255.256 101.908 255.415C102.197 255.564 102.426 255.779 102.594 256.059C102.762 256.33 102.883 256.652 102.958 257.025C103.032 257.398 103.07 257.804 103.07 258.243V262.611ZM108.177 262.751C107.627 262.751 107.127 262.653 106.679 262.457C106.231 262.252 105.844 261.976 105.517 261.631C105.191 261.276 104.939 260.87 104.761 260.413C104.584 259.956 104.495 259.475 104.495 258.971C104.495 258.458 104.584 257.972 104.761 257.515C104.939 257.058 105.191 256.656 105.517 256.311C105.844 255.956 106.231 255.681 106.679 255.485C107.137 255.28 107.636 255.177 108.177 255.177C108.728 255.177 109.227 255.28 109.675 255.485C110.123 255.681 110.511 255.956 110.837 256.311C111.173 256.656 111.43 257.058 111.607 257.515C111.785 257.972 111.873 258.458 111.873 258.971C111.873 259.475 111.785 259.956 111.607 260.413C111.43 260.87 111.178 261.276 110.851 261.631C110.525 261.976 110.133 262.252 109.675 262.457C109.227 262.653 108.728 262.751 108.177 262.751ZM105.755 258.985C105.755 259.489 105.863 259.946 106.077 260.357C106.301 260.768 106.595 261.094 106.959 261.337C107.323 261.57 107.729 261.687 108.177 261.687C108.625 261.687 109.031 261.566 109.395 261.323C109.769 261.08 110.063 260.754 110.277 260.343C110.501 259.923 110.613 259.461 110.613 258.957C110.613 258.453 110.501 257.996 110.277 257.585C110.063 257.174 109.769 256.848 109.395 256.605C109.031 256.362 108.625 256.241 108.177 256.241C107.729 256.241 107.323 256.367 106.959 256.619C106.595 256.862 106.301 257.188 106.077 257.599C105.863 258.01 105.755 258.472 105.755 258.985ZM112.89 258.971C112.89 258.28 113.03 257.65 113.31 257.081C113.6 256.502 113.992 256.04 114.486 255.695C114.99 255.35 115.564 255.177 116.208 255.177C116.796 255.177 117.324 255.331 117.79 255.639C118.257 255.947 118.621 256.32 118.882 256.759V252.391H120.114V261.211C120.114 261.36 120.142 261.472 120.198 261.547C120.264 261.612 120.366 261.65 120.506 261.659V262.611C120.273 262.648 120.091 262.667 119.96 262.667C119.718 262.667 119.503 262.583 119.316 262.415C119.139 262.247 119.05 262.06 119.05 261.855V261.239C118.761 261.706 118.374 262.074 117.888 262.345C117.403 262.616 116.899 262.751 116.376 262.751C115.872 262.751 115.406 262.653 114.976 262.457C114.556 262.252 114.188 261.972 113.87 261.617C113.562 261.262 113.32 260.861 113.142 260.413C112.974 259.956 112.89 259.475 112.89 258.971ZM118.882 260.049V257.949C118.77 257.632 118.588 257.347 118.336 257.095C118.084 256.834 117.8 256.628 117.482 256.479C117.174 256.32 116.866 256.241 116.558 256.241C116.194 256.241 115.863 256.32 115.564 256.479C115.275 256.628 115.023 256.834 114.808 257.095C114.603 257.347 114.444 257.636 114.332 257.963C114.22 258.29 114.164 258.63 114.164 258.985C114.164 259.349 114.225 259.694 114.346 260.021C114.477 260.348 114.654 260.637 114.878 260.889C115.112 261.141 115.378 261.337 115.676 261.477C115.984 261.617 116.316 261.687 116.67 261.687C116.894 261.687 117.123 261.645 117.356 261.561C117.599 261.477 117.828 261.36 118.042 261.211C118.257 261.062 118.439 260.889 118.588 260.693C118.738 260.488 118.836 260.273 118.882 260.049ZM129.492 262.247C129.389 262.294 129.249 262.354 129.072 262.429C128.895 262.504 128.689 262.569 128.456 262.625C128.223 262.681 127.975 262.709 127.714 262.709C127.415 262.709 127.14 262.658 126.888 262.555C126.636 262.443 126.435 262.275 126.286 262.051C126.137 261.818 126.062 261.528 126.062 261.183V256.269H125.068V255.303H126.062V252.867H127.294V255.303H128.932V256.269H127.294V260.805C127.313 261.066 127.401 261.262 127.56 261.393C127.719 261.514 127.905 261.575 128.12 261.575C128.363 261.575 128.587 261.533 128.792 261.449C128.997 261.365 129.133 261.304 129.198 261.267L129.492 262.247ZM133.772 262.751C133.221 262.751 132.717 262.653 132.26 262.457C131.812 262.252 131.42 261.976 131.084 261.631C130.757 261.276 130.501 260.87 130.314 260.413C130.137 259.956 130.048 259.47 130.048 258.957C130.048 258.266 130.207 257.636 130.524 257.067C130.841 256.498 131.28 256.04 131.84 255.695C132.409 255.35 133.058 255.177 133.786 255.177C134.523 255.177 135.163 255.354 135.704 255.709C136.255 256.054 136.679 256.512 136.978 257.081C137.286 257.641 137.44 258.248 137.44 258.901C137.44 258.994 137.435 259.088 137.426 259.181C137.426 259.265 137.421 259.33 137.412 259.377H131.35C131.387 259.853 131.518 260.278 131.742 260.651C131.975 261.015 132.274 261.304 132.638 261.519C133.002 261.724 133.394 261.827 133.814 261.827C134.262 261.827 134.682 261.715 135.074 261.491C135.475 261.267 135.751 260.973 135.9 260.609L136.964 260.903C136.805 261.258 136.567 261.575 136.25 261.855C135.942 262.135 135.573 262.354 135.144 262.513C134.724 262.672 134.267 262.751 133.772 262.751ZM131.308 258.523H136.292C136.255 258.047 136.119 257.627 135.886 257.263C135.653 256.899 135.354 256.614 134.99 256.409C134.626 256.204 134.225 256.101 133.786 256.101C133.357 256.101 132.96 256.204 132.596 256.409C132.232 256.614 131.933 256.899 131.7 257.263C131.476 257.627 131.345 258.047 131.308 258.523ZM149.828 262.611H148.596V258.523C148.596 257.758 148.47 257.193 148.218 256.829C147.975 256.465 147.611 256.283 147.126 256.283C146.631 256.283 146.183 256.465 145.782 256.829C145.38 257.184 145.096 257.646 144.928 258.215V262.611H143.696V258.523C143.696 257.748 143.574 257.184 143.332 256.829C143.089 256.465 142.725 256.283 142.24 256.283C141.754 256.283 141.306 256.46 140.896 256.815C140.494 257.16 140.21 257.622 140.042 258.201V262.611H138.81V255.303H139.93V256.871C140.228 256.33 140.616 255.914 141.092 255.625C141.568 255.326 142.104 255.177 142.702 255.177C143.308 255.177 143.794 255.345 144.158 255.681C144.522 256.008 144.746 256.432 144.83 256.955C145.156 256.376 145.553 255.938 146.02 255.639C146.486 255.331 147.018 255.177 147.616 255.177C148.036 255.177 148.386 255.256 148.666 255.415C148.955 255.564 149.184 255.779 149.352 256.059C149.52 256.33 149.641 256.652 149.716 257.025C149.79 257.398 149.828 257.804 149.828 258.243V262.611ZM155.677 262.751C155.08 262.751 154.548 262.602 154.081 262.303C153.614 262.004 153.246 261.626 152.975 261.169V265.593H151.743V255.303H152.835V256.675C153.124 256.227 153.502 255.868 153.969 255.597C154.436 255.317 154.944 255.177 155.495 255.177C155.999 255.177 156.461 255.28 156.881 255.485C157.301 255.69 157.665 255.97 157.973 256.325C158.281 256.68 158.519 257.086 158.687 257.543C158.864 257.991 158.953 258.462 158.953 258.957C158.953 259.648 158.813 260.282 158.533 260.861C158.262 261.44 157.88 261.902 157.385 262.247C156.89 262.583 156.321 262.751 155.677 262.751ZM155.299 261.687C155.663 261.687 155.99 261.612 156.279 261.463C156.578 261.304 156.83 261.099 157.035 260.847C157.25 260.586 157.413 260.292 157.525 259.965C157.637 259.638 157.693 259.302 157.693 258.957C157.693 258.593 157.628 258.248 157.497 257.921C157.376 257.594 157.198 257.305 156.965 257.053C156.741 256.801 156.475 256.605 156.167 256.465C155.868 256.316 155.542 256.241 155.187 256.241C154.963 256.241 154.73 256.283 154.487 256.367C154.254 256.451 154.03 256.572 153.815 256.731C153.6 256.88 153.418 257.053 153.269 257.249C153.12 257.445 153.022 257.655 152.975 257.879V259.965C153.115 260.282 153.302 260.572 153.535 260.833C153.768 261.094 154.039 261.304 154.347 261.463C154.655 261.612 154.972 261.687 155.299 261.687ZM163.658 262.751C163.107 262.751 162.608 262.653 162.16 262.457C161.712 262.252 161.324 261.976 160.998 261.631C160.671 261.276 160.419 260.87 160.242 260.413C160.064 259.956 159.976 259.475 159.976 258.971C159.976 258.458 160.064 257.972 160.242 257.515C160.419 257.058 160.671 256.656 160.998 256.311C161.324 255.956 161.712 255.681 162.16 255.485C162.617 255.28 163.116 255.177 163.658 255.177C164.208 255.177 164.708 255.28 165.156 255.485C165.604 255.681 165.991 255.956 166.318 256.311C166.654 256.656 166.91 257.058 167.088 257.515C167.265 257.972 167.354 258.458 167.354 258.971C167.354 259.475 167.265 259.956 167.088 260.413C166.91 260.87 166.658 261.276 166.332 261.631C166.005 261.976 165.613 262.252 165.156 262.457C164.708 262.653 164.208 262.751 163.658 262.751ZM161.236 258.985C161.236 259.489 161.343 259.946 161.558 260.357C161.782 260.768 162.076 261.094 162.44 261.337C162.804 261.57 163.21 261.687 163.658 261.687C164.106 261.687 164.512 261.566 164.876 261.323C165.249 261.08 165.543 260.754 165.758 260.343C165.982 259.923 166.094 259.461 166.094 258.957C166.094 258.453 165.982 257.996 165.758 257.585C165.543 257.174 165.249 256.848 164.876 256.605C164.512 256.362 164.106 256.241 163.658 256.241C163.21 256.241 162.804 256.367 162.44 256.619C162.076 256.862 161.782 257.188 161.558 257.599C161.343 258.01 161.236 258.472 161.236 258.985ZM172.711 256.381C172.095 256.39 171.549 256.549 171.073 256.857C170.606 257.156 170.275 257.571 170.079 258.103V262.611H168.847V255.303H169.995V256.997C170.247 256.493 170.578 256.087 170.989 255.779C171.409 255.462 171.847 255.284 172.305 255.247C172.398 255.247 172.477 255.247 172.543 255.247C172.608 255.247 172.664 255.252 172.711 255.261V256.381ZM172.344 262.611V261.043H173.38V262.611H172.344ZM175.174 262.611V261.043H176.21V262.611H175.174ZM178.005 262.611V261.043H179.041V262.611H178.005Z" fill="#777777"/>
<path d="M47.369 304.641L47.243 301.869L53.849 295.011H56.477L50.987 300.843L49.691 302.265L47.369 304.641ZM45.281 307.611V295.011H47.621V307.611H45.281ZM54.065 307.611L49.241 301.869L50.789 300.159L56.801 307.611H54.065ZM63.4741 297.891C64.2421 297.891 64.9261 298.041 65.5261 298.341C66.1381 298.641 66.6181 299.103 66.9661 299.727C67.3141 300.339 67.4881 301.131 67.4881 302.103V307.611H65.2381V302.391C65.2381 301.539 65.0341 300.903 64.6261 300.483C64.2301 300.063 63.6721 299.853 62.9521 299.853C62.4241 299.853 61.9561 299.961 61.5481 300.177C61.1401 300.393 60.8221 300.717 60.5941 301.149C60.3781 301.569 60.2701 302.103 60.2701 302.751V307.611H58.0201V297.999H60.1621V300.591L59.7841 299.799C60.1201 299.187 60.6061 298.719 61.2421 298.395C61.8901 298.059 62.6341 297.891 63.4741 297.891ZM74.6799 307.737C73.6959 307.737 72.8199 307.527 72.0519 307.107C71.2839 306.675 70.6779 306.087 70.2339 305.343C69.7899 304.599 69.5679 303.753 69.5679 302.805C69.5679 301.845 69.7899 300.999 70.2339 300.267C70.6779 299.523 71.2839 298.941 72.0519 298.521C72.8199 298.101 73.6959 297.891 74.6799 297.891C75.6759 297.891 76.5579 298.101 77.3259 298.521C78.1059 298.941 78.7119 299.517 79.1439 300.249C79.5879 300.981 79.8099 301.833 79.8099 302.805C79.8099 303.753 79.5879 304.599 79.1439 305.343C78.7119 306.087 78.1059 306.675 77.3259 307.107C76.5579 307.527 75.6759 307.737 74.6799 307.737ZM74.6799 305.811C75.2319 305.811 75.7239 305.691 76.1559 305.451C76.5879 305.211 76.9239 304.863 77.1639 304.407C77.4159 303.951 77.5419 303.417 77.5419 302.805C77.5419 302.181 77.4159 301.647 77.1639 301.203C76.9239 300.747 76.5879 300.399 76.1559 300.159C75.7239 299.919 75.2379 299.799 74.6979 299.799C74.1459 299.799 73.6539 299.919 73.2219 300.159C72.8019 300.399 72.4659 300.747 72.2139 301.203C71.9619 301.647 71.8359 302.181 71.8359 302.805C71.8359 303.417 71.9619 303.951 72.2139 304.407C72.4659 304.863 72.8019 305.211 73.2219 305.451C73.6539 305.691 74.1399 305.811 74.6799 305.811ZM83.8218 307.611L80.2938 297.999H82.4178L85.4418 306.477H84.4338L87.6018 297.999H89.4918L92.5698 306.477H91.5798L94.6938 297.999H96.6918L93.1458 307.611H90.9858L88.1778 300.105H88.8438L85.9818 307.611H83.8218ZM103.429 307.611V295.011H105.355L110.863 304.209H109.855L115.273 295.011H117.199L117.217 307.611H115.003L114.985 298.485H115.453L110.845 306.171H109.801L105.121 298.485H105.661V307.611H103.429ZM124.725 307.737C123.741 307.737 122.865 307.527 122.097 307.107C121.329 306.675 120.723 306.087 120.279 305.343C119.835 304.599 119.613 303.753 119.613 302.805C119.613 301.845 119.835 300.999 120.279 300.267C120.723 299.523 121.329 298.941 122.097 298.521C122.865 298.101 123.741 297.891 124.725 297.891C125.721 297.891 126.603 298.101 127.371 298.521C128.151 298.941 128.757 299.517 129.189 300.249C129.633 300.981 129.855 301.833 129.855 302.805C129.855 303.753 129.633 304.599 129.189 305.343C128.757 306.087 128.151 306.675 127.371 307.107C126.603 307.527 125.721 307.737 124.725 307.737ZM124.725 305.811C125.277 305.811 125.769 305.691 126.201 305.451C126.633 305.211 126.969 304.863 127.209 304.407C127.461 303.951 127.587 303.417 127.587 302.805C127.587 302.181 127.461 301.647 127.209 301.203C126.969 300.747 126.633 300.399 126.201 300.159C125.769 299.919 125.283 299.799 124.743 299.799C124.191 299.799 123.699 299.919 123.267 300.159C122.847 300.399 122.511 300.747 122.259 301.203C122.007 301.647 121.881 302.181 121.881 302.805C121.881 303.417 122.007 303.951 122.259 304.407C122.511 304.863 122.847 305.211 123.267 305.451C123.699 305.691 124.185 305.811 124.725 305.811ZM132.006 307.611V297.999H134.148V300.645L133.896 299.871C134.184 299.223 134.634 298.731 135.246 298.395C135.87 298.059 136.644 297.891 137.568 297.891V300.033C137.472 300.009 137.382 299.997 137.298 299.997C137.214 299.985 137.13 299.979 137.046 299.979C136.194 299.979 135.516 300.231 135.012 300.735C134.508 301.227 134.256 301.965 134.256 302.949V307.611H132.006ZM143.907 307.737C142.839 307.737 141.903 307.527 141.099 307.107C140.307 306.675 139.689 306.087 139.245 305.343C138.813 304.599 138.597 303.753 138.597 302.805C138.597 301.845 138.807 300.999 139.227 300.267C139.659 299.523 140.247 298.941 140.991 298.521C141.747 298.101 142.605 297.891 143.565 297.891C144.501 297.891 145.335 298.095 146.067 298.503C146.799 298.911 147.375 299.487 147.795 300.231C148.215 300.975 148.425 301.851 148.425 302.859C148.425 302.955 148.419 303.063 148.407 303.183C148.407 303.303 148.401 303.417 148.389 303.525H140.379V302.031H147.201L146.319 302.499C146.331 301.947 146.217 301.461 145.977 301.041C145.737 300.621 145.407 300.291 144.987 300.051C144.579 299.811 144.105 299.691 143.565 299.691C143.013 299.691 142.527 299.811 142.107 300.051C141.699 300.291 141.375 300.627 141.135 301.059C140.907 301.479 140.793 301.977 140.793 302.553V302.913C140.793 303.489 140.925 303.999 141.189 304.443C141.453 304.887 141.825 305.229 142.305 305.469C142.785 305.709 143.337 305.829 143.961 305.829C144.501 305.829 144.987 305.745 145.419 305.577C145.851 305.409 146.235 305.145 146.571 304.785L147.777 306.171C147.345 306.675 146.799 307.065 146.139 307.341C145.491 307.605 144.747 307.737 143.907 307.737Z" fill="#4A60A1"/>
<path d="M164.979 295.16C164.709 295.427 164.683 295.848 164.905 296.143L164.972 296.221L169.547 300.861L157.839 300.861C157.425 300.861 157.089 301.197 157.089 301.611C157.089 301.993 157.375 302.309 157.745 302.355L157.839 302.361H169.547L164.972 307.001C164.705 307.271 164.686 307.693 164.911 307.985L164.979 308.062C165.249 308.328 165.671 308.347 165.963 308.122L166.04 308.054L171.873 302.137C172.137 301.87 172.159 301.453 171.939 301.161L171.873 301.084L166.04 295.168C165.749 294.873 165.274 294.869 164.979 295.16Z" fill="#00B377"/>
<path d="M74.073 130.628L61.8794 118.725V116.394H59.8471C59.2713 116.394 58.7883 116.204 58.3981 115.825C58.0079 115.445 57.8135 114.974 57.8149 114.41C57.8149 113.848 58.01 113.377 58.4002 112.996C58.7904 112.615 59.2727 112.425 59.8471 112.426H76.1053C76.6811 112.426 77.1641 112.617 77.5543 112.998C77.9445 113.379 78.1389 113.849 78.1376 114.41C78.1376 114.972 77.9425 115.444 77.5523 115.825C77.1621 116.206 76.6798 116.395 76.1053 116.394H74.073V130.628ZM82.4053 149.921L80.5763 148.136H53.7503C52.0229 148.136 50.7947 147.384 50.0658 145.88C49.3369 144.376 49.5151 142.979 50.6003 141.688L61.1681 129.19L47.8567 116.196C47.4841 115.832 47.2979 115.369 47.2979 114.807C47.2979 114.245 47.4841 113.782 47.8567 113.418C48.2293 113.054 48.7035 112.873 49.2793 112.873C49.8551 112.873 50.3293 113.054 50.7019 113.418L85.2505 147.144C85.6231 147.507 85.8094 147.97 85.8094 148.532C85.8094 149.094 85.6231 149.557 85.2505 149.921C84.8779 150.285 84.4038 150.467 83.8279 150.467C83.2521 150.467 82.7779 150.285 82.4053 149.921Z" fill="#0B1C98"/>
<defs>
<filter id="filter0_d_773_486" x="0.588989" y="0.61084" width="290" height="377.979" filterUnits="userSpaceOnUse" color-interpolation-filters="sRGB">
<feFlood flood-opacity="0" result="BackgroundImageFix"/>
<feColorMatrix in="SourceAlpha" type="matrix" values="0 0 0 0 0 0 0 0 0 0 0 0 0 0 0 0 0 0 127 0" result="hardAlpha"/>
<feOffset/>
<feGaussianBlur stdDeviation="10"/>
<feComposite in2="hardAlpha" operator="out"/>
<feColorMatrix type="matrix" values="0 0 0 0 0.768627 0 0 0 0 0.768627 0 0 0 0 0.768627 0 0 0 0.15 0"/>
<feBlend mode="normal" in2="BackgroundImageFix" result="effect1_dropShadow_773_486"/>
<feBlend mode="normal" in="SourceGraphic" in2="effect1_dropShadow_773_486" result="shape"/>
</filter>
</defs>
</svg>
