<svg width="109" height="111" viewBox="0 0 109 111" fill="none" xmlns="http://www.w3.org/2000/svg">
<rect x="0.973328" y="110.455" width="110.191" height="107.411" rx="23" transform="rotate(-90 0.973328 110.455)" fill="#0B1C98"/>
<path d="M73.6389 48.566C73.6389 38.1981 63.8525 29.8779 52.1067 30.6115C42.2425 31.2243 34.234 38.356 33.5031 47.1916C32.8604 54.9733 37.738 61.7985 44.9949 64.8583C46.0835 65.3179 46.778 66.2976 46.778 67.3748V71.6417V74.864C46.778 77.9748 49.3231 80.7049 52.7753 81.0485C56.8548 81.4524 60.3122 78.6016 60.3122 75.0265V67.3748C60.3122 66.2976 61.0119 65.3179 62.1005 64.8583C68.9168 61.975 73.6389 55.7673 73.6389 48.566Z" stroke="white" stroke-width="2.5" stroke-miterlimit="10"/>
<path d="M61.3365 70.1318H47.2837" stroke="white" stroke-width="2.5" stroke-miterlimit="10"/>
<path d="M53.0109 48.783C49.2926 48.783 46.2651 51.4879 46.2651 54.8099V58.3201C48.2394 59.3706 50.5468 59.979 53.0109 59.979C55.4751 59.979 57.7825 59.375 59.7568 58.3201V54.8099C59.7568 51.4879 56.7292 48.783 53.0109 48.783Z" fill="#907EFF"/>
<path d="M42.9387 54.8097C42.9387 49.8463 47.4555 45.8109 53.0109 45.8109C58.5664 45.8109 63.0832 49.8463 63.0832 54.8097V55.8032C65.033 53.7461 66.2087 51.0893 66.2087 48.1875C66.2087 41.6747 60.3006 36.3962 53.0109 36.3962C45.7213 36.3962 39.8132 41.6747 39.8132 48.1875C39.8132 51.0937 40.9889 53.7505 42.9387 55.8032V54.8097Z" fill="#907EFF"/>
</svg>
