<svg width="291" height="379" viewBox="0 0 291 379" fill="none" xmlns="http://www.w3.org/2000/svg">
<g filter="url(#filter0_d_773_489)">
<rect x="20.7559" y="20.2134" width="250" height="337.979" rx="12" fill="white"/>
<rect x="21.2559" y="20.7134" width="249" height="336.979" rx="11.5" stroke="black"/>
</g>
<path d="M46.5759 192.373C46.1625 192.373 45.8425 192.26 45.6159 192.033C45.4025 191.793 45.2959 191.467 45.2959 191.053V179.413C45.2959 178.987 45.4092 178.667 45.6359 178.453C45.8625 178.227 46.1825 178.113 46.5959 178.113H51.4159C52.9625 178.113 54.1559 178.487 54.9959 179.233C55.8359 179.967 56.2559 181 56.2559 182.333C56.2559 183.2 56.0625 183.947 55.6759 184.573C55.3025 185.2 54.7559 185.68 54.0359 186.013C53.3159 186.347 52.4425 186.513 51.4159 186.513L51.5959 186.213H52.2559C52.8025 186.213 53.2759 186.347 53.6759 186.613C54.0892 186.88 54.4492 187.3 54.7559 187.873L56.2559 190.653C56.4159 190.933 56.4892 191.207 56.4759 191.473C56.4625 191.74 56.3625 191.96 56.1759 192.133C55.9892 192.293 55.7159 192.373 55.3559 192.373C54.9959 192.373 54.7025 192.3 54.4759 192.153C54.2492 191.993 54.0492 191.753 53.8759 191.433L51.8559 187.713C51.6159 187.26 51.3292 186.96 50.9959 186.813C50.6759 186.653 50.2625 186.573 49.7559 186.573H47.8559V191.053C47.8559 191.467 47.7492 191.793 47.5359 192.033C47.3225 192.26 47.0025 192.373 46.5759 192.373ZM47.8559 184.673H50.9759C51.8959 184.673 52.5892 184.487 53.0559 184.113C53.5359 183.727 53.7759 183.153 53.7759 182.393C53.7759 181.647 53.5359 181.087 53.0559 180.713C52.5892 180.327 51.8959 180.133 50.9759 180.133H47.8559V184.673ZM63.3329 192.413C62.2262 192.413 61.2729 192.207 60.4729 191.793C59.6729 191.38 59.0529 190.793 58.6129 190.033C58.1862 189.273 57.9729 188.373 57.9729 187.333C57.9729 186.32 58.1796 185.433 58.5929 184.673C59.0196 183.913 59.5996 183.32 60.3329 182.893C61.0796 182.453 61.9262 182.233 62.8729 182.233C63.5662 182.233 64.1862 182.347 64.7329 182.573C65.2929 182.8 65.7662 183.127 66.1529 183.553C66.5529 183.98 66.8529 184.5 67.0529 185.113C67.2662 185.713 67.3729 186.393 67.3729 187.153C67.3729 187.393 67.2862 187.58 67.1129 187.713C66.9529 187.833 66.7196 187.893 66.4129 187.893H59.9929V186.453H65.6129L65.2929 186.753C65.2929 186.14 65.1996 185.627 65.0129 185.213C64.8396 184.8 64.5796 184.487 64.2329 184.273C63.8996 184.047 63.4796 183.933 62.9729 183.933C62.4129 183.933 61.9329 184.067 61.5329 184.333C61.1462 184.587 60.8462 184.953 60.6329 185.433C60.4329 185.9 60.3329 186.46 60.3329 187.113V187.253C60.3329 188.347 60.5862 189.167 61.0929 189.713C61.6129 190.247 62.3729 190.513 63.3729 190.513C63.7196 190.513 64.1062 190.473 64.5329 190.393C64.9729 190.3 65.3862 190.147 65.7729 189.933C66.0529 189.773 66.2996 189.707 66.5129 189.733C66.7262 189.747 66.8929 189.82 67.0129 189.953C67.1462 190.087 67.2262 190.253 67.2529 190.453C67.2796 190.64 67.2396 190.833 67.1329 191.033C67.0396 191.233 66.8729 191.407 66.6329 191.553C66.1662 191.847 65.6262 192.067 65.0129 192.213C64.4129 192.347 63.8529 192.413 63.3329 192.413ZM73.7937 192.413C72.927 192.413 72.2003 192.267 71.6137 191.973C71.0403 191.68 70.6137 191.253 70.3337 190.693C70.0537 190.12 69.9137 189.413 69.9137 188.573V184.313H68.8737C68.5537 184.313 68.307 184.233 68.1337 184.073C67.9603 183.9 67.8737 183.667 67.8737 183.373C67.8737 183.067 67.9603 182.833 68.1337 182.673C68.307 182.513 68.5537 182.433 68.8737 182.433H69.9137V180.613C69.9137 180.2 70.0203 179.887 70.2337 179.673C70.4603 179.46 70.7737 179.353 71.1737 179.353C71.5737 179.353 71.8803 179.46 72.0937 179.673C72.307 179.887 72.4137 180.2 72.4137 180.613V182.433H74.5337C74.8537 182.433 75.1003 182.513 75.2737 182.673C75.447 182.833 75.5337 183.067 75.5337 183.373C75.5337 183.667 75.447 183.9 75.2737 184.073C75.1003 184.233 74.8537 184.313 74.5337 184.313H72.4137V188.433C72.4137 189.073 72.5537 189.553 72.8337 189.873C73.1137 190.193 73.567 190.353 74.1937 190.353C74.4203 190.353 74.6203 190.333 74.7937 190.293C74.967 190.253 75.1203 190.227 75.2537 190.213C75.4137 190.2 75.547 190.253 75.6537 190.373C75.7603 190.48 75.8137 190.707 75.8137 191.053C75.8137 191.32 75.767 191.56 75.6737 191.773C75.5937 191.973 75.4403 192.113 75.2137 192.193C75.0403 192.247 74.8137 192.293 74.5337 192.333C74.2537 192.387 74.007 192.413 73.7937 192.413ZM80.2095 192.413C79.5028 192.413 78.8695 192.28 78.3095 192.013C77.7628 191.733 77.3295 191.36 77.0095 190.893C76.7028 190.427 76.5495 189.9 76.5495 189.313C76.5495 188.593 76.7361 188.027 77.1095 187.613C77.4828 187.187 78.0895 186.88 78.9295 186.693C79.7695 186.507 80.8961 186.413 82.3095 186.413H83.3095V187.853H82.3295C81.5028 187.853 80.8428 187.893 80.3495 187.973C79.8561 188.053 79.5028 188.193 79.2895 188.393C79.0895 188.58 78.9895 188.847 78.9895 189.193C78.9895 189.633 79.1428 189.993 79.4495 190.273C79.7561 190.553 80.1828 190.693 80.7295 190.693C81.1695 190.693 81.5561 190.593 81.8895 190.393C82.2361 190.18 82.5095 189.893 82.7095 189.533C82.9095 189.173 83.0095 188.76 83.0095 188.293V185.993C83.0095 185.327 82.8628 184.847 82.5695 184.553C82.2761 184.26 81.7828 184.113 81.0895 184.113C80.7028 184.113 80.2828 184.16 79.8295 184.253C79.3895 184.347 78.9228 184.507 78.4295 184.733C78.1761 184.853 77.9495 184.887 77.7495 184.833C77.5628 184.78 77.4161 184.673 77.3095 184.513C77.2028 184.34 77.1495 184.153 77.1495 183.953C77.1495 183.753 77.2028 183.56 77.3095 183.373C77.4161 183.173 77.5961 183.027 77.8495 182.933C78.4628 182.68 79.0495 182.5 79.6095 182.393C80.1828 182.287 80.7028 182.233 81.1695 182.233C82.1295 182.233 82.9161 182.38 83.5295 182.673C84.1561 182.967 84.6228 183.413 84.9295 184.013C85.2361 184.6 85.3895 185.36 85.3895 186.293V191.093C85.3895 191.507 85.2895 191.827 85.0895 192.053C84.8895 192.267 84.6028 192.373 84.2295 192.373C83.8561 192.373 83.5628 192.267 83.3495 192.053C83.1495 191.827 83.0495 191.507 83.0495 191.093V190.133H83.2095C83.1161 190.6 82.9295 191.007 82.6495 191.353C82.3828 191.687 82.0428 191.947 81.6295 192.133C81.2161 192.32 80.7428 192.413 80.2095 192.413ZM89.167 192.353C88.767 192.353 88.4603 192.233 88.247 191.993C88.0336 191.753 87.927 191.42 87.927 190.993V183.653C87.927 183.213 88.0336 182.88 88.247 182.653C88.4603 182.413 88.767 182.293 89.167 182.293C89.567 182.293 89.8736 182.413 90.087 182.653C90.3136 182.88 90.427 183.213 90.427 183.653V190.993C90.427 191.42 90.3203 191.753 90.107 191.993C89.8936 192.233 89.5803 192.353 89.167 192.353ZM89.167 180.433C88.7003 180.433 88.3336 180.32 88.067 180.093C87.8136 179.853 87.687 179.527 87.687 179.113C87.687 178.687 87.8136 178.36 88.067 178.133C88.3336 177.907 88.7003 177.793 89.167 177.793C89.647 177.793 90.0136 177.907 90.267 178.133C90.5203 178.36 90.647 178.687 90.647 179.113C90.647 179.527 90.5203 179.853 90.267 180.093C90.0136 180.32 89.647 180.433 89.167 180.433ZM96.3646 192.413C95.2579 192.413 94.4246 192.1 93.8646 191.473C93.3046 190.833 93.0246 189.9 93.0246 188.673V179.213C93.0246 178.8 93.1313 178.487 93.3446 178.273C93.5579 178.06 93.8646 177.953 94.2646 177.953C94.6646 177.953 94.9713 178.06 95.1846 178.273C95.4113 178.487 95.5246 178.8 95.5246 179.213V188.553C95.5246 189.167 95.6513 189.62 95.9046 189.913C96.1713 190.207 96.5446 190.353 97.0246 190.353C97.1313 190.353 97.2313 190.353 97.3246 190.353C97.4179 190.34 97.5113 190.327 97.6046 190.313C97.7913 190.287 97.9179 190.34 97.9846 190.473C98.0513 190.593 98.0846 190.847 98.0846 191.233C98.0846 191.567 98.0179 191.827 97.8846 192.013C97.7513 192.2 97.5313 192.313 97.2246 192.353C97.0913 192.367 96.9513 192.38 96.8046 192.393C96.6579 192.407 96.5113 192.413 96.3646 192.413Z" fill="#212D4D"/>
<path d="M44.9459 220.213V210.273H46.2059V219.093H51.7499V220.213H44.9459ZM56.0083 220.353C55.4576 220.353 54.9583 220.255 54.5103 220.059C54.0623 219.854 53.6749 219.579 53.3483 219.233C53.0216 218.879 52.7696 218.473 52.5923 218.015C52.4149 217.558 52.3263 217.077 52.3263 216.573C52.3263 216.06 52.4149 215.575 52.5923 215.117C52.7696 214.66 53.0216 214.259 53.3483 213.913C53.6749 213.559 54.0623 213.283 54.5103 213.087C54.9676 212.882 55.4669 212.779 56.0083 212.779C56.5589 212.779 57.0583 212.882 57.5063 213.087C57.9543 213.283 58.3416 213.559 58.6683 213.913C59.0043 214.259 59.2609 214.66 59.4383 215.117C59.6156 215.575 59.7043 216.06 59.7043 216.573C59.7043 217.077 59.6156 217.558 59.4383 218.015C59.2609 218.473 59.0089 218.879 58.6823 219.233C58.3556 219.579 57.9636 219.854 57.5063 220.059C57.0583 220.255 56.5589 220.353 56.0083 220.353ZM53.5863 216.587C53.5863 217.091 53.6936 217.549 53.9083 217.959C54.1323 218.37 54.4263 218.697 54.7903 218.939C55.1543 219.173 55.5603 219.289 56.0083 219.289C56.4563 219.289 56.8623 219.168 57.2263 218.925C57.5996 218.683 57.8936 218.356 58.1083 217.945C58.3323 217.525 58.4443 217.063 58.4443 216.559C58.4443 216.055 58.3323 215.598 58.1083 215.187C57.8936 214.777 57.5996 214.45 57.2263 214.207C56.8623 213.965 56.4563 213.843 56.0083 213.843C55.5603 213.843 55.1543 213.969 54.7903 214.221C54.4263 214.464 54.1323 214.791 53.9083 215.201C53.6936 215.612 53.5863 216.074 53.5863 216.587ZM65.0611 213.983C64.4451 213.993 63.8991 214.151 63.4231 214.459C62.9565 214.758 62.6251 215.173 62.4291 215.705V220.213H61.1971V212.905H62.3451V214.599C62.5971 214.095 62.9285 213.689 63.3391 213.381C63.7591 213.064 64.1978 212.887 64.6551 212.849C64.7485 212.849 64.8278 212.849 64.8931 212.849C64.9585 212.849 65.0145 212.854 65.0611 212.863V213.983ZM69.3393 220.353C68.7887 220.353 68.2847 220.255 67.8273 220.059C67.3793 219.854 66.9873 219.579 66.6513 219.233C66.3247 218.879 66.068 218.473 65.8813 218.015C65.704 217.558 65.6153 217.073 65.6153 216.559C65.6153 215.869 65.774 215.239 66.0913 214.669C66.4087 214.1 66.8473 213.643 67.4073 213.297C67.9767 212.952 68.6253 212.779 69.3533 212.779C70.0907 212.779 70.73 212.957 71.2713 213.311C71.822 213.657 72.2467 214.114 72.5453 214.683C72.8533 215.243 73.0073 215.85 73.0073 216.503C73.0073 216.597 73.0027 216.69 72.9933 216.783C72.9933 216.867 72.9887 216.933 72.9793 216.979H66.9173C66.9547 217.455 67.0853 217.88 67.3093 218.253C67.5427 218.617 67.8413 218.907 68.2053 219.121C68.5693 219.327 68.9613 219.429 69.3813 219.429C69.8293 219.429 70.2493 219.317 70.6413 219.093C71.0427 218.869 71.318 218.575 71.4673 218.211L72.5313 218.505C72.3727 218.86 72.1347 219.177 71.8173 219.457C71.5093 219.737 71.1407 219.957 70.7113 220.115C70.2913 220.274 69.834 220.353 69.3393 220.353ZM66.8753 216.125H71.8593C71.822 215.649 71.6867 215.229 71.4533 214.865C71.22 214.501 70.9213 214.217 70.5573 214.011C70.1933 213.806 69.792 213.703 69.3533 213.703C68.924 213.703 68.5273 213.806 68.1633 214.011C67.7993 214.217 67.5007 214.501 67.2673 214.865C67.0433 215.229 66.9127 215.649 66.8753 216.125ZM85.3948 220.213H84.1628V216.125C84.1628 215.36 84.0368 214.795 83.7848 214.431C83.5421 214.067 83.1781 213.885 82.6928 213.885C82.1981 213.885 81.7501 214.067 81.3488 214.431C80.9475 214.786 80.6628 215.248 80.4948 215.817V220.213H79.2628V216.125C79.2628 215.351 79.1415 214.786 78.8988 214.431C78.6561 214.067 78.2921 213.885 77.8068 213.885C77.3215 213.885 76.8735 214.063 76.4628 214.417C76.0615 214.763 75.7768 215.225 75.6088 215.803V220.213H74.3768V212.905H75.4968V214.473C75.7955 213.932 76.1828 213.517 76.6588 213.227C77.1348 212.929 77.6715 212.779 78.2688 212.779C78.8755 212.779 79.3608 212.947 79.7248 213.283C80.0888 213.61 80.3128 214.035 80.3968 214.557C80.7235 213.979 81.1201 213.54 81.5868 213.241C82.0535 212.933 82.5855 212.779 83.1828 212.779C83.6028 212.779 83.9528 212.859 84.2328 213.017C84.5221 213.167 84.7508 213.381 84.9188 213.661C85.0868 213.932 85.2081 214.254 85.2828 214.627C85.3575 215.001 85.3948 215.407 85.3948 215.845V220.213ZM90.8514 220.213V212.905H92.0834V220.213H90.8514ZM90.8514 211.533V209.993H92.0834V211.533H90.8514ZM98.012 220.353C97.4147 220.353 96.8827 220.204 96.416 219.905C95.9493 219.607 95.5807 219.229 95.31 218.771V223.195H94.078V212.905H95.17V214.277C95.4593 213.829 95.8373 213.47 96.304 213.199C96.7707 212.919 97.2793 212.779 97.83 212.779C98.334 212.779 98.796 212.882 99.216 213.087C99.636 213.293 100 213.573 100.308 213.927C100.616 214.282 100.854 214.688 101.022 215.145C101.199 215.593 101.288 216.065 101.288 216.559C101.288 217.25 101.148 217.885 100.868 218.463C100.597 219.042 100.215 219.504 99.72 219.849C99.2253 220.185 98.656 220.353 98.012 220.353ZM97.634 219.289C97.998 219.289 98.3247 219.215 98.614 219.065C98.9127 218.907 99.1647 218.701 99.37 218.449C99.5847 218.188 99.748 217.894 99.86 217.567C99.972 217.241 100.028 216.905 100.028 216.559C100.028 216.195 99.9627 215.85 99.832 215.523C99.7107 215.197 99.5333 214.907 99.3 214.655C99.076 214.403 98.81 214.207 98.502 214.067C98.2033 213.918 97.8767 213.843 97.522 213.843C97.298 213.843 97.0647 213.885 96.822 213.969C96.5887 214.053 96.3647 214.175 96.15 214.333C95.9353 214.483 95.7533 214.655 95.604 214.851C95.4547 215.047 95.3567 215.257 95.31 215.481V217.567C95.45 217.885 95.6367 218.174 95.87 218.435C96.1033 218.697 96.374 218.907 96.682 219.065C96.99 219.215 97.3073 219.289 97.634 219.289ZM105.307 220.353C104.7 220.353 104.131 220.255 103.599 220.059C103.067 219.854 102.609 219.551 102.227 219.149L102.703 218.281C103.123 218.673 103.543 218.953 103.963 219.121C104.383 219.289 104.812 219.373 105.251 219.373C105.755 219.373 106.165 219.28 106.483 219.093C106.8 218.897 106.959 218.613 106.959 218.239C106.959 217.969 106.875 217.768 106.707 217.637C106.548 217.507 106.319 217.399 106.021 217.315C105.722 217.222 105.367 217.119 104.957 217.007C104.453 216.858 104.028 216.699 103.683 216.531C103.337 216.363 103.076 216.153 102.899 215.901C102.721 215.649 102.633 215.332 102.633 214.949C102.633 214.483 102.754 214.091 102.997 213.773C103.239 213.447 103.571 213.199 103.991 213.031C104.42 212.863 104.905 212.779 105.447 212.779C105.988 212.779 106.478 212.863 106.917 213.031C107.355 213.199 107.733 213.447 108.051 213.773L107.491 214.627C107.201 214.329 106.884 214.109 106.539 213.969C106.193 213.82 105.806 213.745 105.377 213.745C105.125 213.745 104.877 213.778 104.635 213.843C104.392 213.899 104.191 214.007 104.033 214.165C103.874 214.315 103.795 214.529 103.795 214.809C103.795 215.043 103.855 215.229 103.977 215.369C104.107 215.5 104.294 215.612 104.537 215.705C104.789 215.799 105.092 215.901 105.447 216.013C105.997 216.172 106.473 216.331 106.875 216.489C107.285 216.648 107.603 216.853 107.827 217.105C108.051 217.357 108.163 217.707 108.163 218.155C108.163 218.846 107.901 219.387 107.379 219.779C106.856 220.162 106.165 220.353 105.307 220.353ZM109.567 217.287V212.905H110.799V217.049C110.799 217.796 110.929 218.356 111.191 218.729C111.452 219.103 111.839 219.289 112.353 219.289C112.689 219.289 113.011 219.219 113.319 219.079C113.636 218.93 113.921 218.72 114.173 218.449C114.425 218.179 114.621 217.857 114.761 217.483V212.905H115.993V218.813C115.993 218.963 116.021 219.075 116.077 219.149C116.142 219.215 116.245 219.252 116.385 219.261V220.213C116.245 220.232 116.133 220.241 116.049 220.241C115.974 220.251 115.899 220.255 115.825 220.255C115.591 220.255 115.391 220.185 115.223 220.045C115.055 219.896 114.966 219.714 114.957 219.499L114.929 218.645C114.611 219.187 114.182 219.607 113.641 219.905C113.109 220.204 112.525 220.353 111.891 220.353C111.125 220.353 110.547 220.097 110.155 219.583C109.763 219.061 109.567 218.295 109.567 217.287ZM129.063 220.213H127.831V216.125C127.831 215.36 127.705 214.795 127.453 214.431C127.21 214.067 126.846 213.885 126.361 213.885C125.866 213.885 125.418 214.067 125.017 214.431C124.615 214.786 124.331 215.248 124.163 215.817V220.213H122.931V216.125C122.931 215.351 122.809 214.786 122.567 214.431C122.324 214.067 121.96 213.885 121.475 213.885C120.989 213.885 120.541 214.063 120.131 214.417C119.729 214.763 119.445 215.225 119.277 215.803V220.213H118.045V212.905H119.165V214.473C119.463 213.932 119.851 213.517 120.327 213.227C120.803 212.929 121.339 212.779 121.937 212.779C122.543 212.779 123.029 212.947 123.393 213.283C123.757 213.61 123.981 214.035 124.065 214.557C124.391 213.979 124.788 213.54 125.255 213.241C125.721 212.933 126.253 212.779 126.851 212.779C127.271 212.779 127.621 212.859 127.901 213.017C128.19 213.167 128.419 213.381 128.587 213.661C128.755 213.932 128.876 214.254 128.951 214.627C129.025 215.001 129.063 215.407 129.063 215.845V220.213ZM134.043 216.573C134.043 215.883 134.183 215.253 134.463 214.683C134.753 214.105 135.145 213.643 135.639 213.297C136.143 212.952 136.717 212.779 137.361 212.779C137.949 212.779 138.477 212.933 138.943 213.241C139.41 213.549 139.774 213.923 140.035 214.361V209.993H141.267V218.813C141.267 218.963 141.295 219.075 141.351 219.149C141.417 219.215 141.519 219.252 141.659 219.261V220.213C141.426 220.251 141.244 220.269 141.113 220.269C140.871 220.269 140.656 220.185 140.469 220.017C140.292 219.849 140.203 219.663 140.203 219.457V218.841C139.914 219.308 139.527 219.677 139.041 219.947C138.556 220.218 138.052 220.353 137.529 220.353C137.025 220.353 136.559 220.255 136.129 220.059C135.709 219.854 135.341 219.574 135.023 219.219C134.715 218.865 134.473 218.463 134.295 218.015C134.127 217.558 134.043 217.077 134.043 216.573ZM140.035 217.651V215.551C139.923 215.234 139.741 214.949 139.489 214.697C139.237 214.436 138.953 214.231 138.635 214.081C138.327 213.923 138.019 213.843 137.711 213.843C137.347 213.843 137.016 213.923 136.717 214.081C136.428 214.231 136.176 214.436 135.961 214.697C135.756 214.949 135.597 215.239 135.485 215.565C135.373 215.892 135.317 216.233 135.317 216.587C135.317 216.951 135.378 217.297 135.499 217.623C135.63 217.95 135.807 218.239 136.031 218.491C136.265 218.743 136.531 218.939 136.829 219.079C137.137 219.219 137.469 219.289 137.823 219.289C138.047 219.289 138.276 219.247 138.509 219.163C138.752 219.079 138.981 218.963 139.195 218.813C139.41 218.664 139.592 218.491 139.741 218.295C139.891 218.09 139.989 217.875 140.035 217.651ZM146.516 220.353C145.965 220.353 145.466 220.255 145.018 220.059C144.57 219.854 144.183 219.579 143.856 219.233C143.529 218.879 143.277 218.473 143.1 218.015C142.923 217.558 142.834 217.077 142.834 216.573C142.834 216.06 142.923 215.575 143.1 215.117C143.277 214.66 143.529 214.259 143.856 213.913C144.183 213.559 144.57 213.283 145.018 213.087C145.475 212.882 145.975 212.779 146.516 212.779C147.067 212.779 147.566 212.882 148.014 213.087C148.462 213.283 148.849 213.559 149.176 213.913C149.512 214.259 149.769 214.66 149.946 215.117C150.123 215.575 150.212 216.06 150.212 216.573C150.212 217.077 150.123 217.558 149.946 218.015C149.769 218.473 149.517 218.879 149.19 219.233C148.863 219.579 148.471 219.854 148.014 220.059C147.566 220.255 147.067 220.353 146.516 220.353ZM144.094 216.587C144.094 217.091 144.201 217.549 144.416 217.959C144.64 218.37 144.934 218.697 145.298 218.939C145.662 219.173 146.068 219.289 146.516 219.289C146.964 219.289 147.37 219.168 147.734 218.925C148.107 218.683 148.401 218.356 148.616 217.945C148.84 217.525 148.952 217.063 148.952 216.559C148.952 216.055 148.84 215.598 148.616 215.187C148.401 214.777 148.107 214.45 147.734 214.207C147.37 213.965 146.964 213.843 146.516 213.843C146.068 213.843 145.662 213.969 145.298 214.221C144.934 214.464 144.64 214.791 144.416 215.201C144.201 215.612 144.094 216.074 144.094 216.587ZM151.733 209.993H152.965V218.323C152.965 218.725 153.021 218.972 153.133 219.065C153.245 219.159 153.38 219.205 153.539 219.205C153.735 219.205 153.922 219.187 154.099 219.149C154.276 219.103 154.426 219.056 154.547 219.009L154.743 220.017C154.538 220.101 154.295 220.171 154.015 220.227C153.735 220.283 153.488 220.311 153.273 220.311C152.797 220.311 152.419 220.176 152.139 219.905C151.868 219.635 151.733 219.257 151.733 218.771V209.993ZM158.903 220.353C158.352 220.353 157.853 220.255 157.405 220.059C156.957 219.854 156.569 219.579 156.243 219.233C155.916 218.879 155.664 218.473 155.487 218.015C155.309 217.558 155.221 217.077 155.221 216.573C155.221 216.06 155.309 215.575 155.487 215.117C155.664 214.66 155.916 214.259 156.243 213.913C156.569 213.559 156.957 213.283 157.405 213.087C157.862 212.882 158.361 212.779 158.903 212.779C159.453 212.779 159.953 212.882 160.401 213.087C160.849 213.283 161.236 213.559 161.563 213.913C161.899 214.259 162.155 214.66 162.333 215.117C162.51 215.575 162.599 216.06 162.599 216.573C162.599 217.077 162.51 217.558 162.333 218.015C162.155 218.473 161.903 218.879 161.577 219.233C161.25 219.579 160.858 219.854 160.401 220.059C159.953 220.255 159.453 220.353 158.903 220.353ZM156.481 216.587C156.481 217.091 156.588 217.549 156.803 217.959C157.027 218.37 157.321 218.697 157.685 218.939C158.049 219.173 158.455 219.289 158.903 219.289C159.351 219.289 159.757 219.168 160.121 218.925C160.494 218.683 160.788 218.356 161.003 217.945C161.227 217.525 161.339 217.063 161.339 216.559C161.339 216.055 161.227 215.598 161.003 215.187C160.788 214.777 160.494 214.45 160.121 214.207C159.757 213.965 159.351 213.843 158.903 213.843C158.455 213.843 158.049 213.969 157.685 214.221C157.321 214.464 157.027 214.791 156.803 215.201C156.588 215.612 156.481 216.074 156.481 216.587ZM167.956 213.983C167.34 213.993 166.794 214.151 166.318 214.459C165.851 214.758 165.52 215.173 165.324 215.705V220.213H164.092V212.905H165.24V214.599C165.492 214.095 165.823 213.689 166.234 213.381C166.654 213.064 167.092 212.887 167.55 212.849C167.643 212.849 167.722 212.849 167.788 212.849C167.853 212.849 167.909 212.854 167.956 212.863V213.983ZM174.896 220.353C174.29 220.353 173.72 220.255 173.188 220.059C172.656 219.854 172.199 219.551 171.816 219.149L172.292 218.281C172.712 218.673 173.132 218.953 173.552 219.121C173.972 219.289 174.402 219.373 174.84 219.373C175.344 219.373 175.755 219.28 176.072 219.093C176.39 218.897 176.548 218.613 176.548 218.239C176.548 217.969 176.464 217.768 176.296 217.637C176.138 217.507 175.909 217.399 175.61 217.315C175.312 217.222 174.957 217.119 174.546 217.007C174.042 216.858 173.618 216.699 173.272 216.531C172.927 216.363 172.666 216.153 172.488 215.901C172.311 215.649 172.222 215.332 172.222 214.949C172.222 214.483 172.344 214.091 172.586 213.773C172.829 213.447 173.16 213.199 173.58 213.031C174.01 212.863 174.495 212.779 175.036 212.779C175.578 212.779 176.068 212.863 176.506 213.031C176.945 213.199 177.323 213.447 177.64 213.773L177.08 214.627C176.791 214.329 176.474 214.109 176.128 213.969C175.783 213.82 175.396 213.745 174.966 213.745C174.714 213.745 174.467 213.778 174.224 213.843C173.982 213.899 173.781 214.007 173.622 214.165C173.464 214.315 173.384 214.529 173.384 214.809C173.384 215.043 173.445 215.229 173.566 215.369C173.697 215.5 173.884 215.612 174.126 215.705C174.378 215.799 174.682 215.901 175.036 216.013C175.587 216.172 176.063 216.331 176.464 216.489C176.875 216.648 177.192 216.853 177.416 217.105C177.64 217.357 177.752 217.707 177.752 218.155C177.752 218.846 177.491 219.387 176.968 219.779C176.446 220.162 175.755 220.353 174.896 220.353ZM179.226 220.213V212.905H180.458V220.213H179.226ZM179.226 211.533V209.993H180.458V211.533H179.226ZM186.233 219.849C186.13 219.896 185.99 219.957 185.813 220.031C185.636 220.106 185.43 220.171 185.197 220.227C184.964 220.283 184.716 220.311 184.455 220.311C184.156 220.311 183.881 220.26 183.629 220.157C183.377 220.045 183.176 219.877 183.027 219.653C182.878 219.42 182.803 219.131 182.803 218.785V213.871H181.809V212.905H182.803V210.469H184.035V212.905H185.673V213.871H184.035V218.407C184.054 218.669 184.142 218.865 184.301 218.995C184.46 219.117 184.646 219.177 184.861 219.177C185.104 219.177 185.328 219.135 185.533 219.051C185.738 218.967 185.874 218.907 185.939 218.869L186.233 219.849ZM190.342 218.099C190.342 217.633 190.473 217.231 190.734 216.895C191.005 216.55 191.373 216.284 191.84 216.097C192.307 215.911 192.848 215.817 193.464 215.817C193.791 215.817 194.136 215.845 194.5 215.901C194.864 215.948 195.186 216.023 195.466 216.125V215.593C195.466 215.033 195.298 214.595 194.962 214.277C194.626 213.951 194.15 213.787 193.534 213.787C193.133 213.787 192.745 213.862 192.372 214.011C192.008 214.151 191.621 214.357 191.21 214.627L190.762 213.759C191.238 213.433 191.714 213.19 192.19 213.031C192.666 212.863 193.161 212.779 193.674 212.779C194.607 212.779 195.345 213.041 195.886 213.563C196.427 214.077 196.698 214.795 196.698 215.719V218.813C196.698 218.963 196.726 219.075 196.782 219.149C196.847 219.215 196.95 219.252 197.09 219.261V220.213C196.969 220.232 196.861 220.246 196.768 220.255C196.684 220.265 196.614 220.269 196.558 220.269C196.269 220.269 196.049 220.19 195.9 220.031C195.76 219.873 195.681 219.705 195.662 219.527L195.634 219.065C195.317 219.476 194.901 219.793 194.388 220.017C193.875 220.241 193.366 220.353 192.862 220.353C192.377 220.353 191.943 220.255 191.56 220.059C191.177 219.854 190.879 219.583 190.664 219.247C190.449 218.902 190.342 218.519 190.342 218.099ZM195.102 218.617C195.214 218.487 195.303 218.356 195.368 218.225C195.433 218.085 195.466 217.969 195.466 217.875V216.965C195.177 216.853 194.873 216.769 194.556 216.713C194.239 216.648 193.926 216.615 193.618 216.615C192.993 216.615 192.484 216.741 192.092 216.993C191.709 217.236 191.518 217.572 191.518 218.001C191.518 218.235 191.579 218.463 191.7 218.687C191.831 218.902 192.017 219.079 192.26 219.219C192.512 219.359 192.82 219.429 193.184 219.429C193.567 219.429 193.931 219.355 194.276 219.205C194.621 219.047 194.897 218.851 195.102 218.617ZM209.686 220.213H208.454V216.125C208.454 215.36 208.328 214.795 208.076 214.431C207.833 214.067 207.469 213.885 206.984 213.885C206.489 213.885 206.041 214.067 205.64 214.431C205.238 214.786 204.954 215.248 204.786 215.817V220.213H203.554V216.125C203.554 215.351 203.432 214.786 203.19 214.431C202.947 214.067 202.583 213.885 202.098 213.885C201.612 213.885 201.164 214.063 200.754 214.417C200.352 214.763 200.068 215.225 199.9 215.803V220.213H198.668V212.905H199.788V214.473C200.086 213.932 200.474 213.517 200.95 213.227C201.426 212.929 201.962 212.779 202.56 212.779C203.166 212.779 203.652 212.947 204.016 213.283C204.38 213.61 204.604 214.035 204.688 214.557C205.014 213.979 205.411 213.54 205.878 213.241C206.344 212.933 206.876 212.779 207.474 212.779C207.894 212.779 208.244 212.859 208.524 213.017C208.813 213.167 209.042 213.381 209.21 213.661C209.378 213.932 209.499 214.254 209.574 214.627C209.648 215.001 209.686 215.407 209.686 215.845V220.213ZM214.835 220.353C214.285 220.353 213.781 220.255 213.323 220.059C212.875 219.854 212.483 219.579 212.147 219.233C211.821 218.879 211.564 218.473 211.377 218.015C211.2 217.558 211.111 217.073 211.111 216.559C211.111 215.869 211.27 215.239 211.587 214.669C211.905 214.1 212.343 213.643 212.903 213.297C213.473 212.952 214.121 212.779 214.849 212.779C215.587 212.779 216.226 212.957 216.767 213.311C217.318 213.657 217.743 214.114 218.041 214.683C218.349 215.243 218.503 215.85 218.503 216.503C218.503 216.597 218.499 216.69 218.489 216.783C218.489 216.867 218.485 216.933 218.475 216.979H212.413C212.451 217.455 212.581 217.88 212.805 218.253C213.039 218.617 213.337 218.907 213.701 219.121C214.065 219.327 214.457 219.429 214.877 219.429C215.325 219.429 215.745 219.317 216.137 219.093C216.539 218.869 216.814 218.575 216.963 218.211L218.027 218.505C217.869 218.86 217.631 219.177 217.313 219.457C217.005 219.737 216.637 219.957 216.207 220.115C215.787 220.274 215.33 220.353 214.835 220.353ZM212.371 216.125H217.355C217.318 215.649 217.183 215.229 216.949 214.865C216.716 214.501 216.417 214.217 216.053 214.011C215.689 213.806 215.288 213.703 214.849 213.703C214.42 213.703 214.023 213.806 213.659 214.011C213.295 214.217 212.997 214.501 212.763 214.865C212.539 215.229 212.409 215.649 212.371 216.125ZM223.585 219.849C223.482 219.896 223.342 219.957 223.165 220.031C222.987 220.106 222.782 220.171 222.549 220.227C222.315 220.283 222.068 220.311 221.807 220.311C221.508 220.311 221.233 220.26 220.981 220.157C220.729 220.045 220.528 219.877 220.379 219.653C220.229 219.42 220.155 219.131 220.155 218.785V213.871H219.161V212.905H220.155V210.469H221.387V212.905H223.025V213.871H221.387V218.407C221.405 218.669 221.494 218.865 221.653 218.995C221.811 219.117 221.998 219.177 222.213 219.177C222.455 219.177 222.679 219.135 222.885 219.051C223.09 218.967 223.225 218.907 223.291 218.869L223.585 219.849ZM224.768 221.347L225.048 220.101H224.628V218.645H225.79V220.101L225.37 221.347H224.768ZM47.9839 241.353C47.4332 241.353 46.9292 241.255 46.4719 241.059C46.0239 240.854 45.6319 240.574 45.2959 240.219C44.9692 239.865 44.7125 239.459 44.5259 239.001C44.3485 238.544 44.2599 238.059 44.2599 237.545C44.2599 236.855 44.4139 236.225 44.7219 235.655C45.0299 235.086 45.4639 234.633 46.0239 234.297C46.5839 233.952 47.2325 233.779 47.9699 233.779C48.6885 233.779 49.3139 233.943 49.8459 234.269C50.3872 234.587 50.7885 235.016 51.0499 235.557L49.8459 235.935C49.6592 235.59 49.3979 235.324 49.0619 235.137C48.7259 234.941 48.3525 234.843 47.9419 234.843C47.4939 234.843 47.0832 234.96 46.7099 235.193C46.3459 235.427 46.0565 235.749 45.8419 236.159C45.6272 236.561 45.5199 237.023 45.5199 237.545C45.5199 238.059 45.6272 238.525 45.8419 238.945C46.0659 239.356 46.3599 239.683 46.7239 239.925C47.0972 240.168 47.5079 240.289 47.9559 240.289C48.2452 240.289 48.5205 240.238 48.7819 240.135C49.0525 240.033 49.2859 239.897 49.4819 239.729C49.6872 239.552 49.8272 239.361 49.9019 239.155L51.1059 239.519C50.9565 239.874 50.7279 240.191 50.4199 240.471C50.1212 240.742 49.7619 240.957 49.3419 241.115C48.9312 241.274 48.4785 241.353 47.9839 241.353ZM55.6255 241.353C55.0748 241.353 54.5755 241.255 54.1275 241.059C53.6795 240.854 53.2921 240.579 52.9655 240.233C52.6388 239.879 52.3868 239.473 52.2095 239.015C52.0321 238.558 51.9435 238.077 51.9435 237.573C51.9435 237.06 52.0321 236.575 52.2095 236.117C52.3868 235.66 52.6388 235.259 52.9655 234.913C53.2921 234.559 53.6795 234.283 54.1275 234.087C54.5848 233.882 55.0841 233.779 55.6255 233.779C56.1761 233.779 56.6755 233.882 57.1235 234.087C57.5715 234.283 57.9588 234.559 58.2855 234.913C58.6215 235.259 58.8781 235.66 59.0555 236.117C59.2328 236.575 59.3215 237.06 59.3215 237.573C59.3215 238.077 59.2328 238.558 59.0555 239.015C58.8781 239.473 58.6261 239.879 58.2995 240.233C57.9728 240.579 57.5808 240.854 57.1235 241.059C56.6755 241.255 56.1761 241.353 55.6255 241.353ZM53.2035 237.587C53.2035 238.091 53.3108 238.549 53.5255 238.959C53.7495 239.37 54.0435 239.697 54.4075 239.939C54.7715 240.173 55.1775 240.289 55.6255 240.289C56.0735 240.289 56.4795 240.168 56.8435 239.925C57.2168 239.683 57.5108 239.356 57.7255 238.945C57.9495 238.525 58.0615 238.063 58.0615 237.559C58.0615 237.055 57.9495 236.598 57.7255 236.187C57.5108 235.777 57.2168 235.45 56.8435 235.207C56.4795 234.965 56.0735 234.843 55.6255 234.843C55.1775 234.843 54.7715 234.969 54.4075 235.221C54.0435 235.464 53.7495 235.791 53.5255 236.201C53.3108 236.612 53.2035 237.074 53.2035 237.587ZM67.1563 241.213H65.9243V237.125C65.9243 236.351 65.803 235.786 65.5603 235.431C65.327 235.067 64.9676 234.885 64.4823 234.885C64.1463 234.885 63.8103 234.969 63.4743 235.137C63.1476 235.305 62.8536 235.534 62.5923 235.823C62.3403 236.103 62.1583 236.43 62.0463 236.803V241.213H60.8143V233.905H61.9343V235.473C62.1303 235.128 62.3823 234.829 62.6903 234.577C62.9983 234.325 63.3483 234.129 63.7403 233.989C64.1323 233.849 64.543 233.779 64.9723 233.779C65.3923 233.779 65.7423 233.859 66.0223 234.017C66.3116 234.167 66.5356 234.381 66.6943 234.661C66.8623 234.932 66.979 235.254 67.0443 235.627C67.119 236.001 67.1563 236.407 67.1563 236.845V241.213ZM71.5781 241.353C70.9715 241.353 70.4021 241.255 69.8701 241.059C69.3381 240.854 68.8808 240.551 68.4981 240.149L68.9741 239.281C69.3941 239.673 69.8141 239.953 70.2341 240.121C70.6541 240.289 71.0835 240.373 71.5221 240.373C72.0261 240.373 72.4368 240.28 72.7541 240.093C73.0715 239.897 73.2301 239.613 73.2301 239.239C73.2301 238.969 73.1461 238.768 72.9781 238.637C72.8195 238.507 72.5908 238.399 72.2921 238.315C71.9935 238.222 71.6388 238.119 71.2281 238.007C70.7241 237.858 70.2995 237.699 69.9541 237.531C69.6088 237.363 69.3475 237.153 69.1701 236.901C68.9928 236.649 68.9041 236.332 68.9041 235.949C68.9041 235.483 69.0255 235.091 69.2681 234.773C69.5108 234.447 69.8421 234.199 70.2621 234.031C70.6915 233.863 71.1768 233.779 71.7181 233.779C72.2595 233.779 72.7495 233.863 73.1881 234.031C73.6268 234.199 74.0048 234.447 74.3221 234.773L73.7621 235.627C73.4728 235.329 73.1555 235.109 72.8101 234.969C72.4648 234.82 72.0775 234.745 71.6481 234.745C71.3961 234.745 71.1488 234.778 70.9061 234.843C70.6635 234.899 70.4628 235.007 70.3041 235.165C70.1455 235.315 70.0661 235.529 70.0661 235.809C70.0661 236.043 70.1268 236.229 70.2481 236.369C70.3788 236.5 70.5655 236.612 70.8081 236.705C71.0601 236.799 71.3635 236.901 71.7181 237.013C72.2688 237.172 72.7448 237.331 73.1461 237.489C73.5568 237.648 73.8741 237.853 74.0981 238.105C74.3221 238.357 74.4341 238.707 74.4341 239.155C74.4341 239.846 74.1728 240.387 73.6501 240.779C73.1275 241.162 72.4368 241.353 71.5781 241.353ZM79.1421 241.353C78.5914 241.353 78.0874 241.255 77.6301 241.059C77.1821 240.854 76.7901 240.579 76.4541 240.233C76.1274 239.879 75.8707 239.473 75.6841 239.015C75.5067 238.558 75.4181 238.073 75.4181 237.559C75.4181 236.869 75.5767 236.239 75.8941 235.669C76.2114 235.1 76.6501 234.643 77.2101 234.297C77.7794 233.952 78.4281 233.779 79.1561 233.779C79.8934 233.779 80.5327 233.957 81.0741 234.311C81.6247 234.657 82.0494 235.114 82.3481 235.683C82.6561 236.243 82.8101 236.85 82.8101 237.503C82.8101 237.597 82.8054 237.69 82.7961 237.783C82.7961 237.867 82.7914 237.933 82.7821 237.979H76.7201C76.7574 238.455 76.8881 238.88 77.1121 239.253C77.3454 239.617 77.6441 239.907 78.0081 240.121C78.3721 240.327 78.7641 240.429 79.1841 240.429C79.6321 240.429 80.0521 240.317 80.4441 240.093C80.8454 239.869 81.1207 239.575 81.2701 239.211L82.3341 239.505C82.1754 239.86 81.9374 240.177 81.6201 240.457C81.3121 240.737 80.9434 240.957 80.5141 241.115C80.0941 241.274 79.6367 241.353 79.1421 241.353ZM76.6781 237.125H81.6621C81.6247 236.649 81.4894 236.229 81.2561 235.865C81.0227 235.501 80.7241 235.217 80.3601 235.011C79.9961 234.806 79.5947 234.703 79.1561 234.703C78.7267 234.703 78.3301 234.806 77.9661 235.011C77.6021 235.217 77.3034 235.501 77.0701 235.865C76.8461 236.229 76.7154 236.649 76.6781 237.125ZM87.4135 241.353C86.8629 241.353 86.3589 241.255 85.9015 241.059C85.4535 240.854 85.0615 240.574 84.7255 240.219C84.3989 239.865 84.1422 239.459 83.9555 239.001C83.7782 238.544 83.6895 238.059 83.6895 237.545C83.6895 236.855 83.8435 236.225 84.1515 235.655C84.4595 235.086 84.8935 234.633 85.4535 234.297C86.0135 233.952 86.6622 233.779 87.3995 233.779C88.1182 233.779 88.7435 233.943 89.2755 234.269C89.8169 234.587 90.2182 235.016 90.4795 235.557L89.2755 235.935C89.0889 235.59 88.8275 235.324 88.4915 235.137C88.1555 234.941 87.7822 234.843 87.3715 234.843C86.9235 234.843 86.5129 234.96 86.1395 235.193C85.7755 235.427 85.4862 235.749 85.2715 236.159C85.0569 236.561 84.9495 237.023 84.9495 237.545C84.9495 238.059 85.0569 238.525 85.2715 238.945C85.4955 239.356 85.7895 239.683 86.1535 239.925C86.5269 240.168 86.9375 240.289 87.3855 240.289C87.6749 240.289 87.9502 240.238 88.2115 240.135C88.4822 240.033 88.7155 239.897 88.9115 239.729C89.1169 239.552 89.2569 239.361 89.3315 239.155L90.5355 239.519C90.3862 239.874 90.1575 240.191 89.8495 240.471C89.5509 240.742 89.1915 240.957 88.7715 241.115C88.3609 241.274 87.9082 241.353 87.4135 241.353ZM95.7115 240.849C95.6088 240.896 95.4688 240.957 95.2915 241.031C95.1142 241.106 94.9088 241.171 94.6755 241.227C94.4422 241.283 94.1948 241.311 93.9335 241.311C93.6348 241.311 93.3595 241.26 93.1075 241.157C92.8555 241.045 92.6548 240.877 92.5055 240.653C92.3562 240.42 92.2815 240.131 92.2815 239.785V234.871H91.2875V233.905H92.2815V231.469H93.5135V233.905H95.1515V234.871H93.5135V239.407C93.5322 239.669 93.6208 239.865 93.7795 239.995C93.9382 240.117 94.1248 240.177 94.3395 240.177C94.5822 240.177 94.8062 240.135 95.0115 240.051C95.2168 239.967 95.3522 239.907 95.4175 239.869L95.7115 240.849ZM99.9917 241.353C99.441 241.353 98.937 241.255 98.4797 241.059C98.0317 240.854 97.6397 240.579 97.3037 240.233C96.977 239.879 96.7203 239.473 96.5337 239.015C96.3563 238.558 96.2677 238.073 96.2677 237.559C96.2677 236.869 96.4263 236.239 96.7437 235.669C97.061 235.1 97.4997 234.643 98.0597 234.297C98.629 233.952 99.2777 233.779 100.006 233.779C100.743 233.779 101.382 233.957 101.924 234.311C102.474 234.657 102.899 235.114 103.198 235.683C103.506 236.243 103.66 236.85 103.66 237.503C103.66 237.597 103.655 237.69 103.646 237.783C103.646 237.867 103.641 237.933 103.632 237.979H97.5697C97.607 238.455 97.7377 238.88 97.9617 239.253C98.195 239.617 98.4937 239.907 98.8577 240.121C99.2217 240.327 99.6137 240.429 100.034 240.429C100.482 240.429 100.902 240.317 101.294 240.093C101.695 239.869 101.97 239.575 102.12 239.211L103.184 239.505C103.025 239.86 102.787 240.177 102.47 240.457C102.162 240.737 101.793 240.957 101.364 241.115C100.944 241.274 100.486 241.353 99.9917 241.353ZM97.5277 237.125H102.512C102.474 236.649 102.339 236.229 102.106 235.865C101.872 235.501 101.574 235.217 101.21 235.011C100.846 234.806 100.444 234.703 100.006 234.703C99.5763 234.703 99.1797 234.806 98.8157 235.011C98.4517 235.217 98.153 235.501 97.9197 235.865C97.6957 236.229 97.565 236.649 97.5277 237.125ZM108.741 240.849C108.638 240.896 108.498 240.957 108.321 241.031C108.143 241.106 107.938 241.171 107.705 241.227C107.471 241.283 107.224 241.311 106.963 241.311C106.664 241.311 106.389 241.26 106.137 241.157C105.885 241.045 105.684 240.877 105.535 240.653C105.385 240.42 105.311 240.131 105.311 239.785V234.871H104.317V233.905H105.311V231.469H106.543V233.905H108.181V234.871H106.543V239.407C106.561 239.669 106.65 239.865 106.809 239.995C106.967 240.117 107.154 240.177 107.369 240.177C107.611 240.177 107.835 240.135 108.041 240.051C108.246 239.967 108.381 239.907 108.447 239.869L108.741 240.849ZM109.813 238.287V233.905H111.045V238.049C111.045 238.796 111.175 239.356 111.437 239.729C111.698 240.103 112.085 240.289 112.599 240.289C112.935 240.289 113.257 240.219 113.565 240.079C113.882 239.93 114.167 239.72 114.419 239.449C114.671 239.179 114.867 238.857 115.007 238.483V233.905H116.239V239.813C116.239 239.963 116.267 240.075 116.323 240.149C116.388 240.215 116.491 240.252 116.631 240.261V241.213C116.491 241.232 116.379 241.241 116.295 241.241C116.22 241.251 116.145 241.255 116.071 241.255C115.837 241.255 115.637 241.185 115.469 241.045C115.301 240.896 115.212 240.714 115.203 240.499L115.175 239.645C114.857 240.187 114.428 240.607 113.887 240.905C113.355 241.204 112.771 241.353 112.137 241.353C111.371 241.353 110.793 241.097 110.401 240.583C110.009 240.061 109.813 239.295 109.813 238.287ZM122.155 234.983C121.539 234.993 120.993 235.151 120.517 235.459C120.05 235.758 119.719 236.173 119.523 236.705V241.213H118.291V233.905H119.439V235.599C119.691 235.095 120.022 234.689 120.433 234.381C120.853 234.064 121.292 233.887 121.749 233.849C121.842 233.849 121.922 233.849 121.987 233.849C122.052 233.849 122.108 233.854 122.155 233.863V234.983ZM126.016 239.099C126.016 238.633 126.146 238.231 126.408 237.895C126.678 237.55 127.047 237.284 127.514 237.097C127.98 236.911 128.522 236.817 129.138 236.817C129.464 236.817 129.81 236.845 130.174 236.901C130.538 236.948 130.86 237.023 131.14 237.125V236.593C131.14 236.033 130.972 235.595 130.636 235.277C130.3 234.951 129.824 234.787 129.208 234.787C128.806 234.787 128.419 234.862 128.046 235.011C127.682 235.151 127.294 235.357 126.884 235.627L126.436 234.759C126.912 234.433 127.388 234.19 127.864 234.031C128.34 233.863 128.834 233.779 129.348 233.779C130.281 233.779 131.018 234.041 131.56 234.563C132.101 235.077 132.372 235.795 132.372 236.719V239.813C132.372 239.963 132.4 240.075 132.456 240.149C132.521 240.215 132.624 240.252 132.764 240.261V241.213C132.642 241.232 132.535 241.246 132.442 241.255C132.358 241.265 132.288 241.269 132.232 241.269C131.942 241.269 131.723 241.19 131.574 241.031C131.434 240.873 131.354 240.705 131.336 240.527L131.308 240.065C130.99 240.476 130.575 240.793 130.062 241.017C129.548 241.241 129.04 241.353 128.536 241.353C128.05 241.353 127.616 241.255 127.234 241.059C126.851 240.854 126.552 240.583 126.338 240.247C126.123 239.902 126.016 239.519 126.016 239.099ZM130.776 239.617C130.888 239.487 130.976 239.356 131.042 239.225C131.107 239.085 131.14 238.969 131.14 238.875V237.965C130.85 237.853 130.547 237.769 130.23 237.713C129.912 237.648 129.6 237.615 129.292 237.615C128.666 237.615 128.158 237.741 127.766 237.993C127.383 238.236 127.192 238.572 127.192 239.001C127.192 239.235 127.252 239.463 127.374 239.687C127.504 239.902 127.691 240.079 127.934 240.219C128.186 240.359 128.494 240.429 128.858 240.429C129.24 240.429 129.604 240.355 129.95 240.205C130.295 240.047 130.57 239.851 130.776 239.617ZM133.866 237.573C133.866 236.883 134.006 236.253 134.286 235.683C134.575 235.105 134.967 234.643 135.462 234.297C135.966 233.952 136.54 233.779 137.184 233.779C137.772 233.779 138.299 233.933 138.766 234.241C139.232 234.549 139.596 234.923 139.858 235.361V230.993H141.09V239.813C141.09 239.963 141.118 240.075 141.174 240.149C141.239 240.215 141.342 240.252 141.482 240.261V241.213C141.248 241.251 141.066 241.269 140.936 241.269C140.693 241.269 140.478 241.185 140.292 241.017C140.114 240.849 140.026 240.663 140.026 240.457V239.841C139.736 240.308 139.349 240.677 138.864 240.947C138.378 241.218 137.874 241.353 137.352 241.353C136.848 241.353 136.381 241.255 135.952 241.059C135.532 240.854 135.163 240.574 134.846 240.219C134.538 239.865 134.295 239.463 134.118 239.015C133.95 238.558 133.866 238.077 133.866 237.573ZM139.858 238.651V236.551C139.746 236.234 139.564 235.949 139.312 235.697C139.06 235.436 138.775 235.231 138.458 235.081C138.15 234.923 137.842 234.843 137.534 234.843C137.17 234.843 136.838 234.923 136.54 235.081C136.25 235.231 135.998 235.436 135.784 235.697C135.578 235.949 135.42 236.239 135.308 236.565C135.196 236.892 135.14 237.233 135.14 237.587C135.14 237.951 135.2 238.297 135.322 238.623C135.452 238.95 135.63 239.239 135.854 239.491C136.087 239.743 136.353 239.939 136.652 240.079C136.96 240.219 137.291 240.289 137.646 240.289C137.87 240.289 138.098 240.247 138.332 240.163C138.574 240.079 138.803 239.963 139.018 239.813C139.232 239.664 139.414 239.491 139.564 239.295C139.713 239.09 139.811 238.875 139.858 238.651ZM143.146 241.213V233.905H144.378V241.213H143.146ZM143.146 232.533V230.993H144.378V232.533H143.146ZM150.307 241.353C149.71 241.353 149.178 241.204 148.711 240.905C148.244 240.607 147.876 240.229 147.605 239.771V244.195H146.373V233.905H147.465V235.277C147.754 234.829 148.132 234.47 148.599 234.199C149.066 233.919 149.574 233.779 150.125 233.779C150.629 233.779 151.091 233.882 151.511 234.087C151.931 234.293 152.295 234.573 152.603 234.927C152.911 235.282 153.149 235.688 153.317 236.145C153.494 236.593 153.583 237.065 153.583 237.559C153.583 238.25 153.443 238.885 153.163 239.463C152.892 240.042 152.51 240.504 152.015 240.849C151.52 241.185 150.951 241.353 150.307 241.353ZM149.929 240.289C150.293 240.289 150.62 240.215 150.909 240.065C151.208 239.907 151.46 239.701 151.665 239.449C151.88 239.188 152.043 238.894 152.155 238.567C152.267 238.241 152.323 237.905 152.323 237.559C152.323 237.195 152.258 236.85 152.127 236.523C152.006 236.197 151.828 235.907 151.595 235.655C151.371 235.403 151.105 235.207 150.797 235.067C150.498 234.918 150.172 234.843 149.817 234.843C149.593 234.843 149.36 234.885 149.117 234.969C148.884 235.053 148.66 235.175 148.445 235.333C148.23 235.483 148.048 235.655 147.899 235.851C147.75 236.047 147.652 236.257 147.605 236.481V238.567C147.745 238.885 147.932 239.174 148.165 239.435C148.398 239.697 148.669 239.907 148.977 240.065C149.285 240.215 149.602 240.289 149.929 240.289ZM155.096 241.213V233.905H156.328V241.213H155.096ZM155.096 232.533V230.993H156.328V232.533H155.096ZM160.828 241.353C160.221 241.353 159.652 241.255 159.12 241.059C158.588 240.854 158.131 240.551 157.748 240.149L158.224 239.281C158.644 239.673 159.064 239.953 159.484 240.121C159.904 240.289 160.333 240.373 160.772 240.373C161.276 240.373 161.687 240.28 162.004 240.093C162.321 239.897 162.48 239.613 162.48 239.239C162.48 238.969 162.396 238.768 162.228 238.637C162.069 238.507 161.841 238.399 161.542 238.315C161.243 238.222 160.889 238.119 160.478 238.007C159.974 237.858 159.549 237.699 159.204 237.531C158.859 237.363 158.597 237.153 158.42 236.901C158.243 236.649 158.154 236.332 158.154 235.949C158.154 235.483 158.275 235.091 158.518 234.773C158.761 234.447 159.092 234.199 159.512 234.031C159.941 233.863 160.427 233.779 160.968 233.779C161.509 233.779 161.999 233.863 162.438 234.031C162.877 234.199 163.255 234.447 163.572 234.773L163.012 235.627C162.723 235.329 162.405 235.109 162.06 234.969C161.715 234.82 161.327 234.745 160.898 234.745C160.646 234.745 160.399 234.778 160.156 234.843C159.913 234.899 159.713 235.007 159.554 235.165C159.395 235.315 159.316 235.529 159.316 235.809C159.316 236.043 159.377 236.229 159.498 236.369C159.629 236.5 159.815 236.612 160.058 236.705C160.31 236.799 160.613 236.901 160.968 237.013C161.519 237.172 161.995 237.331 162.396 237.489C162.807 237.648 163.124 237.853 163.348 238.105C163.572 238.357 163.684 238.707 163.684 239.155C163.684 239.846 163.423 240.387 162.9 240.779C162.377 241.162 161.687 241.353 160.828 241.353ZM168.392 241.353C167.841 241.353 167.337 241.255 166.88 241.059C166.432 240.854 166.04 240.574 165.704 240.219C165.377 239.865 165.121 239.459 164.934 239.001C164.757 238.544 164.668 238.059 164.668 237.545C164.668 236.855 164.822 236.225 165.13 235.655C165.438 235.086 165.872 234.633 166.432 234.297C166.992 233.952 167.641 233.779 168.378 233.779C169.097 233.779 169.722 233.943 170.254 234.269C170.795 234.587 171.197 235.016 171.458 235.557L170.254 235.935C170.067 235.59 169.806 235.324 169.47 235.137C169.134 234.941 168.761 234.843 168.35 234.843C167.902 234.843 167.491 234.96 167.118 235.193C166.754 235.427 166.465 235.749 166.25 236.159C166.035 236.561 165.928 237.023 165.928 237.545C165.928 238.059 166.035 238.525 166.25 238.945C166.474 239.356 166.768 239.683 167.132 239.925C167.505 240.168 167.916 240.289 168.364 240.289C168.653 240.289 168.929 240.238 169.19 240.135C169.461 240.033 169.694 239.897 169.89 239.729C170.095 239.552 170.235 239.361 170.31 239.155L171.514 239.519C171.365 239.874 171.136 240.191 170.828 240.471C170.529 240.742 170.17 240.957 169.75 241.115C169.339 241.274 168.887 241.353 168.392 241.353ZM172.91 241.213V233.905H174.142V241.213H172.91ZM172.91 232.533V230.993H174.142V232.533H172.91ZM182.479 241.213H181.247V237.125C181.247 236.351 181.125 235.786 180.883 235.431C180.649 235.067 180.29 234.885 179.805 234.885C179.469 234.885 179.133 234.969 178.797 235.137C178.47 235.305 178.176 235.534 177.915 235.823C177.663 236.103 177.481 236.43 177.369 236.803V241.213H176.137V233.905H177.257V235.473C177.453 235.128 177.705 234.829 178.013 234.577C178.321 234.325 178.671 234.129 179.063 233.989C179.455 233.849 179.865 233.779 180.295 233.779C180.715 233.779 181.065 233.859 181.345 234.017C181.634 234.167 181.858 234.381 182.017 234.661C182.185 234.932 182.301 235.254 182.367 235.627C182.441 236.001 182.479 236.407 182.479 236.845V241.213ZM187.306 241.297C186.812 241.297 186.354 241.199 185.934 241.003C185.524 240.798 185.169 240.523 184.87 240.177C184.572 239.823 184.338 239.421 184.17 238.973C184.012 238.525 183.932 238.059 183.932 237.573C183.932 237.06 184.012 236.575 184.17 236.117C184.338 235.66 184.572 235.259 184.87 234.913C185.178 234.559 185.538 234.283 185.948 234.087C186.359 233.882 186.816 233.779 187.32 233.779C187.927 233.779 188.454 233.929 188.902 234.227C189.36 234.526 189.742 234.904 190.05 235.361V233.905H191.142V241.129C191.142 241.82 190.974 242.403 190.638 242.879C190.312 243.355 189.864 243.715 189.294 243.957C188.734 244.209 188.109 244.335 187.418 244.335C186.597 244.335 185.925 244.191 185.402 243.901C184.88 243.612 184.446 243.22 184.1 242.725L184.814 242.095C185.104 242.525 185.477 242.847 185.934 243.061C186.401 243.276 186.896 243.383 187.418 243.383C187.866 243.383 188.277 243.299 188.65 243.131C189.033 242.973 189.336 242.725 189.56 242.389C189.794 242.053 189.91 241.633 189.91 241.129V239.841C189.64 240.289 189.266 240.644 188.79 240.905C188.324 241.167 187.829 241.297 187.306 241.297ZM187.684 240.289C187.946 240.289 188.198 240.243 188.44 240.149C188.683 240.056 188.907 239.935 189.112 239.785C189.318 239.627 189.49 239.449 189.63 239.253C189.77 239.057 189.864 238.857 189.91 238.651V236.551C189.78 236.215 189.593 235.921 189.35 235.669C189.108 235.408 188.832 235.207 188.524 235.067C188.216 234.918 187.899 234.843 187.572 234.843C187.199 234.843 186.863 234.923 186.564 235.081C186.275 235.24 186.028 235.455 185.822 235.725C185.617 235.987 185.458 236.281 185.346 236.607C185.234 236.934 185.178 237.265 185.178 237.601C185.178 237.965 185.244 238.311 185.374 238.637C185.505 238.955 185.682 239.239 185.906 239.491C186.13 239.743 186.396 239.939 186.704 240.079C187.012 240.219 187.339 240.289 187.684 240.289ZM199.906 241.353C199.355 241.353 198.851 241.255 198.394 241.059C197.946 240.854 197.554 240.579 197.218 240.233C196.891 239.879 196.634 239.473 196.448 239.015C196.27 238.558 196.182 238.073 196.182 237.559C196.182 236.869 196.34 236.239 196.658 235.669C196.975 235.1 197.414 234.643 197.974 234.297C198.543 233.952 199.192 233.779 199.92 233.779C200.657 233.779 201.296 233.957 201.838 234.311C202.388 234.657 202.813 235.114 203.112 235.683C203.42 236.243 203.574 236.85 203.574 237.503C203.574 237.597 203.569 237.69 203.56 237.783C203.56 237.867 203.555 237.933 203.546 237.979H197.484C197.521 238.455 197.652 238.88 197.876 239.253C198.109 239.617 198.408 239.907 198.772 240.121C199.136 240.327 199.528 240.429 199.948 240.429C200.396 240.429 200.816 240.317 201.208 240.093C201.609 239.869 201.884 239.575 202.034 239.211L203.098 239.505C202.939 239.86 202.701 240.177 202.384 240.457C202.076 240.737 201.707 240.957 201.278 241.115C200.858 241.274 200.4 241.353 199.906 241.353ZM197.442 237.125H202.426C202.388 236.649 202.253 236.229 202.02 235.865C201.786 235.501 201.488 235.217 201.124 235.011C200.76 234.806 200.358 234.703 199.92 234.703C199.49 234.703 199.094 234.806 198.73 235.011C198.366 235.217 198.067 235.501 197.834 235.865C197.61 236.229 197.479 236.649 197.442 237.125ZM204.971 230.993H206.203V239.323C206.203 239.725 206.259 239.972 206.371 240.065C206.483 240.159 206.619 240.205 206.777 240.205C206.973 240.205 207.16 240.187 207.337 240.149C207.515 240.103 207.664 240.056 207.785 240.009L207.981 241.017C207.776 241.101 207.533 241.171 207.253 241.227C206.973 241.283 206.726 241.311 206.511 241.311C206.035 241.311 205.657 241.176 205.377 240.905C205.107 240.635 204.971 240.257 204.971 239.771V230.993ZM208.949 241.213V233.905H210.181V241.213H208.949ZM208.949 232.533V230.993H210.181V232.533H208.949ZM215.956 240.849C215.853 240.896 215.713 240.957 215.536 241.031C215.358 241.106 215.153 241.171 214.92 241.227C214.686 241.283 214.439 241.311 214.178 241.311C213.879 241.311 213.604 241.26 213.352 241.157C213.1 241.045 212.899 240.877 212.75 240.653C212.6 240.42 212.526 240.131 212.526 239.785V234.871H211.532V233.905H212.526V231.469H213.758V233.905H215.396V234.871H213.758V239.407C213.776 239.669 213.865 239.865 214.024 239.995C214.182 240.117 214.369 240.177 214.584 240.177C214.826 240.177 215.05 240.135 215.256 240.051C215.461 239.967 215.596 239.907 215.662 239.869L215.956 240.849ZM217.14 242.347L217.42 241.101H217V239.645H218.162V241.101L217.742 242.347H217.14ZM226.098 241.353C225.491 241.353 224.922 241.255 224.39 241.059C223.858 240.854 223.4 240.551 223.018 240.149L223.494 239.281C223.914 239.673 224.334 239.953 224.754 240.121C225.174 240.289 225.603 240.373 226.042 240.373C226.546 240.373 226.956 240.28 227.274 240.093C227.591 239.897 227.75 239.613 227.75 239.239C227.75 238.969 227.666 238.768 227.498 238.637C227.339 238.507 227.11 238.399 226.812 238.315C226.513 238.222 226.158 238.119 225.748 238.007C225.244 237.858 224.819 237.699 224.474 237.531C224.128 237.363 223.867 237.153 223.69 236.901C223.512 236.649 223.424 236.332 223.424 235.949C223.424 235.483 223.545 235.091 223.788 234.773C224.03 234.447 224.362 234.199 224.782 234.031C225.211 233.863 225.696 233.779 226.238 233.779C226.779 233.779 227.269 233.863 227.708 234.031C228.146 234.199 228.524 234.447 228.842 234.773L228.282 235.627C227.992 235.329 227.675 235.109 227.33 234.969C226.984 234.82 226.597 234.745 226.168 234.745C225.916 234.745 225.668 234.778 225.426 234.843C225.183 234.899 224.982 235.007 224.824 235.165C224.665 235.315 224.586 235.529 224.586 235.809C224.586 236.043 224.646 236.229 224.768 236.369C224.898 236.5 225.085 236.612 225.328 236.705C225.58 236.799 225.883 236.901 226.238 237.013C226.788 237.172 227.264 237.331 227.666 237.489C228.076 237.648 228.394 237.853 228.618 238.105C228.842 238.357 228.954 238.707 228.954 239.155C228.954 239.846 228.692 240.387 228.17 240.779C227.647 241.162 226.956 241.353 226.098 241.353ZM233.662 241.353C233.111 241.353 232.607 241.255 232.15 241.059C231.702 240.854 231.31 240.579 230.974 240.233C230.647 239.879 230.39 239.473 230.204 239.015C230.026 238.558 229.938 238.073 229.938 237.559C229.938 236.869 230.096 236.239 230.414 235.669C230.731 235.1 231.17 234.643 231.73 234.297C232.299 233.952 232.948 233.779 233.676 233.779C234.413 233.779 235.052 233.957 235.594 234.311C236.144 234.657 236.569 235.114 236.868 235.683C237.176 236.243 237.33 236.85 237.33 237.503C237.33 237.597 237.325 237.69 237.316 237.783C237.316 237.867 237.311 237.933 237.302 237.979H231.24C231.277 238.455 231.408 238.88 231.632 239.253C231.865 239.617 232.164 239.907 232.528 240.121C232.892 240.327 233.284 240.429 233.704 240.429C234.152 240.429 234.572 240.317 234.964 240.093C235.365 239.869 235.64 239.575 235.79 239.211L236.854 239.505C236.695 239.86 236.457 240.177 236.14 240.457C235.832 240.737 235.463 240.957 235.034 241.115C234.614 241.274 234.156 241.353 233.662 241.353ZM231.198 237.125H236.182C236.144 236.649 236.009 236.229 235.776 235.865C235.542 235.501 235.244 235.217 234.88 235.011C234.516 234.806 234.114 234.703 233.676 234.703C233.246 234.703 232.85 234.806 232.486 235.011C232.122 235.217 231.823 235.501 231.59 235.865C231.366 236.229 231.235 236.649 231.198 237.125ZM238.223 237.573C238.223 236.883 238.363 236.253 238.643 235.683C238.932 235.105 239.324 234.643 239.819 234.297C240.323 233.952 240.897 233.779 241.541 233.779C242.129 233.779 242.656 233.933 243.123 234.241C243.59 234.549 243.954 234.923 244.215 235.361V230.993H245.447V239.813C245.447 239.963 245.475 240.075 245.531 240.149C245.596 240.215 245.699 240.252 245.839 240.261V241.213C245.606 241.251 245.424 241.269 245.293 241.269C245.05 241.269 244.836 241.185 244.649 241.017C244.472 240.849 244.383 240.663 244.383 240.457V239.841C244.094 240.308 243.706 240.677 243.221 240.947C242.736 241.218 242.232 241.353 241.709 241.353C241.205 241.353 240.738 241.255 240.309 241.059C239.889 240.854 239.52 240.574 239.203 240.219C238.895 239.865 238.652 239.463 238.475 239.015C238.307 238.558 238.223 238.077 238.223 237.573ZM244.215 238.651V236.551C244.103 236.234 243.921 235.949 243.669 235.697C243.417 235.436 243.132 235.231 242.815 235.081C242.507 234.923 242.199 234.843 241.891 234.843C241.527 234.843 241.196 234.923 240.897 235.081C240.608 235.231 240.356 235.436 240.141 235.697C239.936 235.949 239.777 236.239 239.665 236.565C239.553 236.892 239.497 237.233 239.497 237.587C239.497 237.951 239.558 238.297 239.679 238.623C239.81 238.95 239.987 239.239 240.211 239.491C240.444 239.743 240.71 239.939 241.009 240.079C241.317 240.219 241.648 240.289 242.003 240.289C242.227 240.289 242.456 240.247 242.689 240.163C242.932 240.079 243.16 239.963 243.375 239.813C243.59 239.664 243.772 239.491 243.921 239.295C244.07 239.09 244.168 238.875 244.215 238.651ZM44.2739 258.573C44.2739 257.883 44.4139 257.253 44.6939 256.683C44.9832 256.105 45.3752 255.643 45.8699 255.297C46.3739 254.952 46.9479 254.779 47.5919 254.779C48.1799 254.779 48.7072 254.933 49.1739 255.241C49.6405 255.549 50.0045 255.923 50.2659 256.361V251.993H51.4979V260.813C51.4979 260.963 51.5259 261.075 51.5819 261.149C51.6472 261.215 51.7499 261.252 51.8899 261.261V262.213C51.6565 262.251 51.4745 262.269 51.3439 262.269C51.1012 262.269 50.8865 262.185 50.6999 262.017C50.5225 261.849 50.4339 261.663 50.4339 261.457V260.841C50.1445 261.308 49.7572 261.677 49.2719 261.947C48.7865 262.218 48.2825 262.353 47.7599 262.353C47.2559 262.353 46.7892 262.255 46.3599 262.059C45.9399 261.854 45.5712 261.574 45.2539 261.219C44.9459 260.865 44.7032 260.463 44.5259 260.015C44.3579 259.558 44.2739 259.077 44.2739 258.573ZM50.2659 259.651V257.551C50.1539 257.234 49.9719 256.949 49.7199 256.697C49.4679 256.436 49.1832 256.231 48.8659 256.081C48.5579 255.923 48.2499 255.843 47.9419 255.843C47.5779 255.843 47.2465 255.923 46.9479 256.081C46.6585 256.231 46.4065 256.436 46.1919 256.697C45.9865 256.949 45.8279 257.239 45.7159 257.565C45.6039 257.892 45.5479 258.233 45.5479 258.587C45.5479 258.951 45.6085 259.297 45.7299 259.623C45.8605 259.95 46.0379 260.239 46.2619 260.491C46.4952 260.743 46.7612 260.939 47.0599 261.079C47.3679 261.219 47.6992 261.289 48.0539 261.289C48.2779 261.289 48.5065 261.247 48.7399 261.163C48.9825 261.079 49.2112 260.963 49.4259 260.813C49.6405 260.664 49.8225 260.491 49.9719 260.295C50.1212 260.09 50.2192 259.875 50.2659 259.651ZM56.7465 262.353C56.1959 262.353 55.6965 262.255 55.2485 262.059C54.8005 261.854 54.4132 261.579 54.0865 261.233C53.7599 260.879 53.5079 260.473 53.3305 260.015C53.1532 259.558 53.0645 259.077 53.0645 258.573C53.0645 258.06 53.1532 257.575 53.3305 257.117C53.5079 256.66 53.7599 256.259 54.0865 255.913C54.4132 255.559 54.8005 255.283 55.2485 255.087C55.7059 254.882 56.2052 254.779 56.7465 254.779C57.2972 254.779 57.7965 254.882 58.2445 255.087C58.6925 255.283 59.0799 255.559 59.4065 255.913C59.7425 256.259 59.9992 256.66 60.1765 257.117C60.3539 257.575 60.4425 258.06 60.4425 258.573C60.4425 259.077 60.3539 259.558 60.1765 260.015C59.9992 260.473 59.7472 260.879 59.4205 261.233C59.0939 261.579 58.7019 261.854 58.2445 262.059C57.7965 262.255 57.2972 262.353 56.7465 262.353ZM54.3245 258.587C54.3245 259.091 54.4319 259.549 54.6465 259.959C54.8705 260.37 55.1645 260.697 55.5285 260.939C55.8925 261.173 56.2985 261.289 56.7465 261.289C57.1945 261.289 57.6005 261.168 57.9645 260.925C58.3379 260.683 58.6319 260.356 58.8465 259.945C59.0705 259.525 59.1825 259.063 59.1825 258.559C59.1825 258.055 59.0705 257.598 58.8465 257.187C58.6319 256.777 58.3379 256.45 57.9645 256.207C57.6005 255.965 57.1945 255.843 56.7465 255.843C56.2985 255.843 55.8925 255.969 55.5285 256.221C55.1645 256.464 54.8705 256.791 54.6465 257.201C54.4319 257.612 54.3245 258.074 54.3245 258.587ZM68.7104 262.353C68.1598 262.353 67.6558 262.255 67.1984 262.059C66.7504 261.854 66.3584 261.579 66.0224 261.233C65.6958 260.879 65.4391 260.473 65.2524 260.015C65.0751 259.558 64.9864 259.073 64.9864 258.559C64.9864 257.869 65.1451 257.239 65.4624 256.669C65.7798 256.1 66.2184 255.643 66.7784 255.297C67.3478 254.952 67.9964 254.779 68.7244 254.779C69.4618 254.779 70.1011 254.957 70.6424 255.311C71.1931 255.657 71.6178 256.114 71.9164 256.683C72.2244 257.243 72.3784 257.85 72.3784 258.503C72.3784 258.597 72.3738 258.69 72.3644 258.783C72.3644 258.867 72.3598 258.933 72.3504 258.979H66.2884C66.3258 259.455 66.4564 259.88 66.6804 260.253C66.9138 260.617 67.2124 260.907 67.5764 261.121C67.9404 261.327 68.3324 261.429 68.7524 261.429C69.2004 261.429 69.6204 261.317 70.0124 261.093C70.4138 260.869 70.6891 260.575 70.8384 260.211L71.9024 260.505C71.7438 260.86 71.5058 261.177 71.1884 261.457C70.8804 261.737 70.5118 261.957 70.0824 262.115C69.6624 262.274 69.2051 262.353 68.7104 262.353ZM66.2464 258.125H71.2304C71.1931 257.649 71.0578 257.229 70.8244 256.865C70.5911 256.501 70.2924 256.217 69.9284 256.011C69.5644 255.806 69.1631 255.703 68.7244 255.703C68.2951 255.703 67.8984 255.806 67.5344 256.011C67.1704 256.217 66.8718 256.501 66.6384 256.865C66.4144 257.229 66.2838 257.649 66.2464 258.125ZM73.7479 262.213V254.905H74.9799V262.213H73.7479ZM73.7479 253.533V251.993H74.9799V253.533H73.7479ZM76.9045 259.287V254.905H78.1365V259.049C78.1365 259.796 78.2671 260.356 78.5285 260.729C78.7898 261.103 79.1771 261.289 79.6905 261.289C80.0265 261.289 80.3485 261.219 80.6565 261.079C80.9738 260.93 81.2585 260.72 81.5105 260.449C81.7625 260.179 81.9585 259.857 82.0985 259.483V254.905H83.3305V260.813C83.3305 260.963 83.3585 261.075 83.4145 261.149C83.4798 261.215 83.5825 261.252 83.7225 261.261V262.213C83.5825 262.232 83.4705 262.241 83.3865 262.241C83.3118 262.251 83.2371 262.255 83.1625 262.255C82.9291 262.255 82.7285 262.185 82.5605 262.045C82.3925 261.896 82.3038 261.714 82.2945 261.499L82.2665 260.645C81.9491 261.187 81.5198 261.607 80.9785 261.905C80.4465 262.204 79.8631 262.353 79.2285 262.353C78.4631 262.353 77.8845 262.097 77.4925 261.583C77.1005 261.061 76.9045 260.295 76.9045 259.287ZM87.8887 262.353C87.282 262.353 86.7127 262.255 86.1807 262.059C85.6487 261.854 85.1913 261.551 84.8087 261.149L85.2847 260.281C85.7047 260.673 86.1247 260.953 86.5447 261.121C86.9647 261.289 87.394 261.373 87.8327 261.373C88.3367 261.373 88.7473 261.28 89.0647 261.093C89.382 260.897 89.5407 260.613 89.5407 260.239C89.5407 259.969 89.4567 259.768 89.2887 259.637C89.13 259.507 88.9013 259.399 88.6027 259.315C88.304 259.222 87.9493 259.119 87.5387 259.007C87.0347 258.858 86.61 258.699 86.2647 258.531C85.9193 258.363 85.658 258.153 85.4807 257.901C85.3033 257.649 85.2147 257.332 85.2147 256.949C85.2147 256.483 85.336 256.091 85.5787 255.773C85.8213 255.447 86.1527 255.199 86.5727 255.031C87.002 254.863 87.4873 254.779 88.0287 254.779C88.57 254.779 89.06 254.863 89.4987 255.031C89.9373 255.199 90.3153 255.447 90.6327 255.773L90.0727 256.627C89.7833 256.329 89.466 256.109 89.1207 255.969C88.7753 255.82 88.388 255.745 87.9587 255.745C87.7067 255.745 87.4593 255.778 87.2167 255.843C86.974 255.899 86.7733 256.007 86.6147 256.165C86.456 256.315 86.3767 256.529 86.3767 256.809C86.3767 257.043 86.4373 257.229 86.5587 257.369C86.6893 257.5 86.876 257.612 87.1187 257.705C87.3707 257.799 87.674 257.901 88.0287 258.013C88.5793 258.172 89.0553 258.331 89.4567 258.489C89.8673 258.648 90.1847 258.853 90.4087 259.105C90.6327 259.357 90.7447 259.707 90.7447 260.155C90.7447 260.846 90.4833 261.387 89.9607 261.779C89.438 262.162 88.7473 262.353 87.8887 262.353ZM103.237 262.213H102.005V258.125C102.005 257.36 101.879 256.795 101.627 256.431C101.384 256.067 101.02 255.885 100.535 255.885C100.04 255.885 99.5919 256.067 99.1906 256.431C98.7893 256.786 98.5046 257.248 98.3366 257.817V262.213H97.1046V258.125C97.1046 257.351 96.9833 256.786 96.7406 256.431C96.4979 256.067 96.1339 255.885 95.6486 255.885C95.1633 255.885 94.7153 256.063 94.3046 256.417C93.9033 256.763 93.6186 257.225 93.4506 257.803V262.213H92.2186V254.905H93.3386V256.473C93.6373 255.932 94.0246 255.517 94.5006 255.227C94.9766 254.929 95.5133 254.779 96.1106 254.779C96.7173 254.779 97.2026 254.947 97.5666 255.283C97.9306 255.61 98.1546 256.035 98.2386 256.557C98.5653 255.979 98.9619 255.54 99.4286 255.241C99.8953 254.933 100.427 254.779 101.025 254.779C101.445 254.779 101.795 254.859 102.075 255.017C102.364 255.167 102.593 255.381 102.761 255.661C102.929 255.932 103.05 256.254 103.125 256.627C103.199 257.001 103.237 257.407 103.237 257.845V262.213ZM108.344 262.353C107.794 262.353 107.294 262.255 106.846 262.059C106.398 261.854 106.011 261.579 105.684 261.233C105.358 260.879 105.106 260.473 104.928 260.015C104.751 259.558 104.662 259.077 104.662 258.573C104.662 258.06 104.751 257.575 104.928 257.117C105.106 256.66 105.358 256.259 105.684 255.913C106.011 255.559 106.398 255.283 106.846 255.087C107.304 254.882 107.803 254.779 108.344 254.779C108.895 254.779 109.394 254.882 109.842 255.087C110.29 255.283 110.678 255.559 111.004 255.913C111.34 256.259 111.597 256.66 111.774 257.117C111.952 257.575 112.04 258.06 112.04 258.573C112.04 259.077 111.952 259.558 111.774 260.015C111.597 260.473 111.345 260.879 111.018 261.233C110.692 261.579 110.3 261.854 109.842 262.059C109.394 262.255 108.895 262.353 108.344 262.353ZM105.922 258.587C105.922 259.091 106.03 259.549 106.244 259.959C106.468 260.37 106.762 260.697 107.126 260.939C107.49 261.173 107.896 261.289 108.344 261.289C108.792 261.289 109.198 261.168 109.562 260.925C109.936 260.683 110.23 260.356 110.444 259.945C110.668 259.525 110.78 259.063 110.78 258.559C110.78 258.055 110.668 257.598 110.444 257.187C110.23 256.777 109.936 256.45 109.562 256.207C109.198 255.965 108.792 255.843 108.344 255.843C107.896 255.843 107.49 255.969 107.126 256.221C106.762 256.464 106.468 256.791 106.244 257.201C106.03 257.612 105.922 258.074 105.922 258.587ZM113.057 258.573C113.057 257.883 113.197 257.253 113.477 256.683C113.766 256.105 114.158 255.643 114.653 255.297C115.157 254.952 115.731 254.779 116.375 254.779C116.963 254.779 117.49 254.933 117.957 255.241C118.424 255.549 118.788 255.923 119.049 256.361V251.993H120.281V260.813C120.281 260.963 120.309 261.075 120.365 261.149C120.43 261.215 120.533 261.252 120.673 261.261V262.213C120.44 262.251 120.258 262.269 120.127 262.269C119.884 262.269 119.67 262.185 119.483 262.017C119.306 261.849 119.217 261.663 119.217 261.457V260.841C118.928 261.308 118.54 261.677 118.055 261.947C117.57 262.218 117.066 262.353 116.543 262.353C116.039 262.353 115.572 262.255 115.143 262.059C114.723 261.854 114.354 261.574 114.037 261.219C113.729 260.865 113.486 260.463 113.309 260.015C113.141 259.558 113.057 259.077 113.057 258.573ZM119.049 259.651V257.551C118.937 257.234 118.755 256.949 118.503 256.697C118.251 256.436 117.966 256.231 117.649 256.081C117.341 255.923 117.033 255.843 116.725 255.843C116.361 255.843 116.03 255.923 115.731 256.081C115.442 256.231 115.19 256.436 114.975 256.697C114.77 256.949 114.611 257.239 114.499 257.565C114.387 257.892 114.331 258.233 114.331 258.587C114.331 258.951 114.392 259.297 114.513 259.623C114.644 259.95 114.821 260.239 115.045 260.491C115.278 260.743 115.544 260.939 115.843 261.079C116.151 261.219 116.482 261.289 116.837 261.289C117.061 261.289 117.29 261.247 117.523 261.163C117.766 261.079 117.994 260.963 118.209 260.813C118.424 260.664 118.606 260.491 118.755 260.295C118.904 260.09 119.002 259.875 119.049 259.651ZM129.659 261.849C129.556 261.896 129.416 261.957 129.239 262.031C129.061 262.106 128.856 262.171 128.623 262.227C128.389 262.283 128.142 262.311 127.881 262.311C127.582 262.311 127.307 262.26 127.055 262.157C126.803 262.045 126.602 261.877 126.453 261.653C126.303 261.42 126.229 261.131 126.229 260.785V255.871H125.235V254.905H126.229V252.469H127.461V254.905H129.099V255.871H127.461V260.407C127.479 260.669 127.568 260.865 127.727 260.995C127.885 261.117 128.072 261.177 128.287 261.177C128.529 261.177 128.753 261.135 128.959 261.051C129.164 260.967 129.299 260.907 129.365 260.869L129.659 261.849ZM133.939 262.353C133.388 262.353 132.884 262.255 132.427 262.059C131.979 261.854 131.587 261.579 131.251 261.233C130.924 260.879 130.668 260.473 130.481 260.015C130.304 259.558 130.215 259.073 130.215 258.559C130.215 257.869 130.374 257.239 130.691 256.669C131.008 256.1 131.447 255.643 132.007 255.297C132.576 254.952 133.225 254.779 133.953 254.779C134.69 254.779 135.33 254.957 135.871 255.311C136.422 255.657 136.846 256.114 137.145 256.683C137.453 257.243 137.607 257.85 137.607 258.503C137.607 258.597 137.602 258.69 137.593 258.783C137.593 258.867 137.588 258.933 137.579 258.979H131.517C131.554 259.455 131.685 259.88 131.909 260.253C132.142 260.617 132.441 260.907 132.805 261.121C133.169 261.327 133.561 261.429 133.981 261.429C134.429 261.429 134.849 261.317 135.241 261.093C135.642 260.869 135.918 260.575 136.067 260.211L137.131 260.505C136.972 260.86 136.734 261.177 136.417 261.457C136.109 261.737 135.74 261.957 135.311 262.115C134.891 262.274 134.434 262.353 133.939 262.353ZM131.475 258.125H136.459C136.422 257.649 136.286 257.229 136.053 256.865C135.82 256.501 135.521 256.217 135.157 256.011C134.793 255.806 134.392 255.703 133.953 255.703C133.524 255.703 133.127 255.806 132.763 256.011C132.399 256.217 132.1 256.501 131.867 256.865C131.643 257.229 131.512 257.649 131.475 258.125ZM149.994 262.213H148.762V258.125C148.762 257.36 148.636 256.795 148.384 256.431C148.142 256.067 147.778 255.885 147.292 255.885C146.798 255.885 146.35 256.067 145.948 256.431C145.547 256.786 145.262 257.248 145.094 257.817V262.213H143.862V258.125C143.862 257.351 143.741 256.786 143.498 256.431C143.256 256.067 142.892 255.885 142.406 255.885C141.921 255.885 141.473 256.063 141.062 256.417C140.661 256.763 140.376 257.225 140.208 257.803V262.213H138.976V254.905H140.096V256.473C140.395 255.932 140.782 255.517 141.258 255.227C141.734 254.929 142.271 254.779 142.868 254.779C143.475 254.779 143.96 254.947 144.324 255.283C144.688 255.61 144.912 256.035 144.996 256.557C145.323 255.979 145.72 255.54 146.186 255.241C146.653 254.933 147.185 254.779 147.782 254.779C148.202 254.779 148.552 254.859 148.832 255.017C149.122 255.167 149.35 255.381 149.518 255.661C149.686 255.932 149.808 256.254 149.882 256.627C149.957 257.001 149.994 257.407 149.994 257.845V262.213ZM155.844 262.353C155.247 262.353 154.715 262.204 154.248 261.905C153.781 261.607 153.413 261.229 153.142 260.771V265.195H151.91V254.905H153.002V256.277C153.291 255.829 153.669 255.47 154.136 255.199C154.603 254.919 155.111 254.779 155.662 254.779C156.166 254.779 156.628 254.882 157.048 255.087C157.468 255.293 157.832 255.573 158.14 255.927C158.448 256.282 158.686 256.688 158.854 257.145C159.031 257.593 159.12 258.065 159.12 258.559C159.12 259.25 158.98 259.885 158.7 260.463C158.429 261.042 158.047 261.504 157.552 261.849C157.057 262.185 156.488 262.353 155.844 262.353ZM155.466 261.289C155.83 261.289 156.157 261.215 156.446 261.065C156.745 260.907 156.997 260.701 157.202 260.449C157.417 260.188 157.58 259.894 157.692 259.567C157.804 259.241 157.86 258.905 157.86 258.559C157.86 258.195 157.795 257.85 157.664 257.523C157.543 257.197 157.365 256.907 157.132 256.655C156.908 256.403 156.642 256.207 156.334 256.067C156.035 255.918 155.709 255.843 155.354 255.843C155.13 255.843 154.897 255.885 154.654 255.969C154.421 256.053 154.197 256.175 153.982 256.333C153.767 256.483 153.585 256.655 153.436 256.851C153.287 257.047 153.189 257.257 153.142 257.481V259.567C153.282 259.885 153.469 260.174 153.702 260.435C153.935 260.697 154.206 260.907 154.514 261.065C154.822 261.215 155.139 261.289 155.466 261.289ZM163.825 262.353C163.274 262.353 162.775 262.255 162.327 262.059C161.879 261.854 161.491 261.579 161.165 261.233C160.838 260.879 160.586 260.473 160.409 260.015C160.231 259.558 160.143 259.077 160.143 258.573C160.143 258.06 160.231 257.575 160.409 257.117C160.586 256.66 160.838 256.259 161.165 255.913C161.491 255.559 161.879 255.283 162.327 255.087C162.784 254.882 163.283 254.779 163.825 254.779C164.375 254.779 164.875 254.882 165.323 255.087C165.771 255.283 166.158 255.559 166.485 255.913C166.821 256.259 167.077 256.66 167.255 257.117C167.432 257.575 167.521 258.06 167.521 258.573C167.521 259.077 167.432 259.558 167.255 260.015C167.077 260.473 166.825 260.879 166.499 261.233C166.172 261.579 165.78 261.854 165.323 262.059C164.875 262.255 164.375 262.353 163.825 262.353ZM161.403 258.587C161.403 259.091 161.51 259.549 161.725 259.959C161.949 260.37 162.243 260.697 162.607 260.939C162.971 261.173 163.377 261.289 163.825 261.289C164.273 261.289 164.679 261.168 165.043 260.925C165.416 260.683 165.71 260.356 165.925 259.945C166.149 259.525 166.261 259.063 166.261 258.559C166.261 258.055 166.149 257.598 165.925 257.187C165.71 256.777 165.416 256.45 165.043 256.207C164.679 255.965 164.273 255.843 163.825 255.843C163.377 255.843 162.971 255.969 162.607 256.221C162.243 256.464 161.949 256.791 161.725 257.201C161.51 257.612 161.403 258.074 161.403 258.587ZM172.878 255.983C172.262 255.993 171.716 256.151 171.24 256.459C170.773 256.758 170.442 257.173 170.246 257.705V262.213H169.014V254.905H170.162V256.599C170.414 256.095 170.745 255.689 171.156 255.381C171.576 255.064 172.014 254.887 172.472 254.849C172.565 254.849 172.644 254.849 172.71 254.849C172.775 254.849 172.831 254.854 172.878 254.863V255.983ZM172.511 262.213V260.645H173.547V262.213H172.511ZM175.341 262.213V260.645H176.377V262.213H175.341ZM178.171 262.213V260.645H179.207V262.213H178.171Z" fill="#777777"/>
<path d="M47.5359 304.243L47.4099 301.471L54.0159 294.613H56.6439L51.1539 300.445L49.8579 301.867L47.5359 304.243ZM45.4479 307.213V294.613H47.7879V307.213H45.4479ZM54.2319 307.213L49.4079 301.471L50.9559 299.761L56.9679 307.213H54.2319ZM63.6409 297.493C64.4089 297.493 65.0929 297.643 65.6929 297.943C66.3049 298.243 66.7849 298.705 67.1329 299.329C67.4809 299.941 67.6549 300.733 67.6549 301.705V307.213H65.4049V301.993C65.4049 301.141 65.2009 300.505 64.7929 300.085C64.3969 299.665 63.8389 299.455 63.1189 299.455C62.5909 299.455 62.1229 299.563 61.7149 299.779C61.3069 299.995 60.9889 300.319 60.7609 300.751C60.5449 301.171 60.4369 301.705 60.4369 302.353V307.213H58.1869V297.601H60.3289V300.193L59.9509 299.401C60.2869 298.789 60.7729 298.321 61.4089 297.997C62.0569 297.661 62.8009 297.493 63.6409 297.493ZM74.8468 307.339C73.8628 307.339 72.9868 307.129 72.2188 306.709C71.4508 306.277 70.8448 305.689 70.4008 304.945C69.9568 304.201 69.7348 303.355 69.7348 302.407C69.7348 301.447 69.9568 300.601 70.4008 299.869C70.8448 299.125 71.4508 298.543 72.2188 298.123C72.9868 297.703 73.8628 297.493 74.8468 297.493C75.8428 297.493 76.7248 297.703 77.4928 298.123C78.2728 298.543 78.8788 299.119 79.3108 299.851C79.7548 300.583 79.9768 301.435 79.9768 302.407C79.9768 303.355 79.7548 304.201 79.3108 304.945C78.8788 305.689 78.2728 306.277 77.4928 306.709C76.7248 307.129 75.8428 307.339 74.8468 307.339ZM74.8468 305.413C75.3988 305.413 75.8908 305.293 76.3228 305.053C76.7548 304.813 77.0908 304.465 77.3308 304.009C77.5828 303.553 77.7088 303.019 77.7088 302.407C77.7088 301.783 77.5828 301.249 77.3308 300.805C77.0908 300.349 76.7548 300.001 76.3228 299.761C75.8908 299.521 75.4048 299.401 74.8648 299.401C74.3128 299.401 73.8208 299.521 73.3888 299.761C72.9688 300.001 72.6328 300.349 72.3808 300.805C72.1288 301.249 72.0028 301.783 72.0028 302.407C72.0028 303.019 72.1288 303.553 72.3808 304.009C72.6328 304.465 72.9688 304.813 73.3888 305.053C73.8208 305.293 74.3068 305.413 74.8468 305.413ZM83.9887 307.213L80.4607 297.601H82.5847L85.6087 306.079H84.6007L87.7687 297.601H89.6587L92.7367 306.079H91.7467L94.8607 297.601H96.8587L93.3127 307.213H91.1527L88.3447 299.707H89.0107L86.1487 307.213H83.9887ZM103.596 307.213V294.613H105.522L111.03 303.811H110.022L115.44 294.613H117.366L117.384 307.213H115.17L115.152 298.087H115.62L111.012 305.773H109.968L105.288 298.087H105.828V307.213H103.596ZM124.892 307.339C123.908 307.339 123.032 307.129 122.264 306.709C121.496 306.277 120.89 305.689 120.446 304.945C120.002 304.201 119.78 303.355 119.78 302.407C119.78 301.447 120.002 300.601 120.446 299.869C120.89 299.125 121.496 298.543 122.264 298.123C123.032 297.703 123.908 297.493 124.892 297.493C125.888 297.493 126.77 297.703 127.538 298.123C128.318 298.543 128.924 299.119 129.356 299.851C129.8 300.583 130.022 301.435 130.022 302.407C130.022 303.355 129.8 304.201 129.356 304.945C128.924 305.689 128.318 306.277 127.538 306.709C126.77 307.129 125.888 307.339 124.892 307.339ZM124.892 305.413C125.444 305.413 125.936 305.293 126.368 305.053C126.8 304.813 127.136 304.465 127.376 304.009C127.628 303.553 127.754 303.019 127.754 302.407C127.754 301.783 127.628 301.249 127.376 300.805C127.136 300.349 126.8 300.001 126.368 299.761C125.936 299.521 125.45 299.401 124.91 299.401C124.358 299.401 123.866 299.521 123.434 299.761C123.014 300.001 122.678 300.349 122.426 300.805C122.174 301.249 122.048 301.783 122.048 302.407C122.048 303.019 122.174 303.553 122.426 304.009C122.678 304.465 123.014 304.813 123.434 305.053C123.866 305.293 124.352 305.413 124.892 305.413ZM132.173 307.213V297.601H134.315V300.247L134.063 299.473C134.351 298.825 134.801 298.333 135.413 297.997C136.037 297.661 136.811 297.493 137.735 297.493V299.635C137.639 299.611 137.549 299.599 137.465 299.599C137.381 299.587 137.297 299.581 137.213 299.581C136.361 299.581 135.683 299.833 135.179 300.337C134.675 300.829 134.423 301.567 134.423 302.551V307.213H132.173ZM144.074 307.339C143.006 307.339 142.07 307.129 141.266 306.709C140.474 306.277 139.856 305.689 139.412 304.945C138.98 304.201 138.764 303.355 138.764 302.407C138.764 301.447 138.974 300.601 139.394 299.869C139.826 299.125 140.414 298.543 141.158 298.123C141.914 297.703 142.772 297.493 143.732 297.493C144.668 297.493 145.502 297.697 146.234 298.105C146.966 298.513 147.542 299.089 147.962 299.833C148.382 300.577 148.592 301.453 148.592 302.461C148.592 302.557 148.586 302.665 148.574 302.785C148.574 302.905 148.568 303.019 148.556 303.127H140.546V301.633H147.368L146.486 302.101C146.498 301.549 146.384 301.063 146.144 300.643C145.904 300.223 145.574 299.893 145.154 299.653C144.746 299.413 144.272 299.293 143.732 299.293C143.18 299.293 142.694 299.413 142.274 299.653C141.866 299.893 141.542 300.229 141.302 300.661C141.074 301.081 140.96 301.579 140.96 302.155V302.515C140.96 303.091 141.092 303.601 141.356 304.045C141.62 304.489 141.992 304.831 142.472 305.071C142.952 305.311 143.504 305.431 144.128 305.431C144.668 305.431 145.154 305.347 145.586 305.179C146.018 305.011 146.402 304.747 146.738 304.387L147.944 305.773C147.512 306.277 146.966 306.667 146.306 306.943C145.658 307.207 144.914 307.339 144.074 307.339Z" fill="#4A60A1"/>
<path d="M165.146 294.763C164.876 295.029 164.85 295.451 165.072 295.746L165.138 295.823L169.714 300.464L158.006 300.464C157.592 300.464 157.256 300.799 157.256 301.214C157.256 301.596 157.542 301.911 157.912 301.958L158.006 301.964H169.714L165.138 306.604C164.872 306.874 164.852 307.296 165.078 307.588L165.146 307.664C165.416 307.931 165.838 307.95 166.13 307.724L166.207 307.657L172.04 301.74C172.304 301.472 172.326 301.056 172.106 300.763L172.04 300.687L166.207 294.77C165.916 294.475 165.441 294.472 165.146 294.763Z" fill="#00B377"/>
<path d="M60.9433 128.161V123.815H81.5683V126.455C80.6138 127.122 79.5894 127.694 78.5112 128.161H60.9433ZM85.0058 122.184V124.83C85.8537 124.83 86.7016 125.106 87.38 125.655C88.7292 126.754 90.2469 127.652 91.8808 128.318V117.798C92.7545 117.32 93.4374 116.581 93.8234 115.697C94.2095 114.813 94.2772 113.833 94.0161 112.909C93.755 111.985 93.1796 111.168 92.3792 110.585C91.5788 110.003 90.5981 109.687 89.5892 109.687H52.9225C51.9136 109.687 50.9329 110.003 50.1325 110.585C49.332 111.168 48.7567 111.985 48.4955 112.909C48.2344 113.833 48.3021 114.813 48.6882 115.697C49.0743 116.581 49.7571 117.32 50.6308 117.798V147.179C50.6308 148.079 51.4008 148.809 52.3496 148.809H57.5058V137.399C57.5058 136.966 57.6869 136.552 58.0092 136.246C58.3316 135.94 58.7687 135.769 59.2246 135.769H68.3912C68.8471 135.769 69.2842 135.94 69.6066 136.246C69.9289 136.552 70.11 136.966 70.11 137.399V148.809H74.2694C72.5346 146.623 71.2581 143.763 71.2581 140.115V132.508C71.2581 132.121 71.3269 131.756 71.4483 131.422H59.2246C58.7687 131.422 58.3316 131.25 58.0092 130.944C57.6869 130.638 57.5058 130.224 57.5058 129.792V122.184C57.5058 121.752 57.6869 121.337 58.0092 121.032C58.3316 120.726 58.7687 120.554 59.2246 120.554H83.2871C83.7429 120.554 84.1801 120.726 84.5024 121.032C84.8247 121.337 85.0058 121.752 85.0058 122.184ZM51.7767 114.034C51.7767 113.746 51.8974 113.469 52.1123 113.266C52.3271 113.062 52.6186 112.947 52.9225 112.947H89.5892C89.893 112.947 90.1845 113.062 90.3994 113.266C90.6143 113.469 90.735 113.746 90.735 114.034C90.735 114.322 90.6143 114.599 90.3994 114.802C90.1845 115.006 89.893 115.121 89.5892 115.121H52.9225C52.6186 115.121 52.3271 115.006 52.1123 114.802C51.8974 114.599 51.7767 114.322 51.7767 114.034ZM66.6725 139.029V148.809H60.9433V139.029H66.6725ZM95.3183 131.372C90.9504 130.998 87.451 128.574 85.8881 127.307C85.6405 127.111 85.3283 127.004 85.0058 127.004C84.6834 127.004 84.3711 127.111 84.1235 127.307C82.5652 128.574 79.0612 130.998 74.6933 131.372C74.3875 131.392 74.1007 131.52 73.8888 131.73C73.677 131.94 73.5553 132.218 73.5475 132.508V140.115C73.5475 149.294 82.9296 152.539 84.7148 153.074C84.9049 153.131 85.1091 153.131 85.2992 153.074C87.0844 152.539 96.4641 149.292 96.4641 140.115V132.508C96.4564 132.218 96.3347 131.94 96.1228 131.73C95.911 131.52 95.6241 131.392 95.3183 131.372Z" fill="#0B1C98"/>
<defs>
<filter id="filter0_d_773_489" x="0.755859" y="0.213379" width="290" height="377.979" filterUnits="userSpaceOnUse" color-interpolation-filters="sRGB">
<feFlood flood-opacity="0" result="BackgroundImageFix"/>
<feColorMatrix in="SourceAlpha" type="matrix" values="0 0 0 0 0 0 0 0 0 0 0 0 0 0 0 0 0 0 127 0" result="hardAlpha"/>
<feOffset/>
<feGaussianBlur stdDeviation="10"/>
<feComposite in2="hardAlpha" operator="out"/>
<feColorMatrix type="matrix" values="0 0 0 0 0.768627 0 0 0 0 0.768627 0 0 0 0 0.768627 0 0 0 0.15 0"/>
<feBlend mode="normal" in2="BackgroundImageFix" result="effect1_dropShadow_773_489"/>
<feBlend mode="normal" in="SourceGraphic" in2="effect1_dropShadow_773_489" result="shape"/>
</filter>
</defs>
</svg>
