<svg width="291" height="379" viewBox="0 0 291 379" fill="none" xmlns="http://www.w3.org/2000/svg">
<g filter="url(#filter0_d_773_491)">
<rect x="20.4317" y="20.2134" width="250" height="337.979" rx="12" fill="white"/>
<rect x="20.9317" y="20.7134" width="249" height="336.979" rx="11.5" stroke="black"/>
</g>
<path d="M49.8317 192.413C49.245 192.413 48.6584 192.367 48.0717 192.273C47.485 192.193 46.9317 192.067 46.4117 191.893C45.8917 191.707 45.425 191.48 45.0117 191.213C44.7717 191.053 44.605 190.86 44.5117 190.633C44.4184 190.407 44.385 190.187 44.4117 189.973C44.4517 189.747 44.5384 189.553 44.6717 189.393C44.8184 189.22 44.9984 189.113 45.2117 189.073C45.425 189.033 45.6584 189.093 45.9117 189.253C46.4984 189.6 47.1184 189.853 47.7717 190.013C48.425 190.173 49.1117 190.253 49.8317 190.253C50.885 190.253 51.6517 190.08 52.1317 189.733C52.6117 189.373 52.8517 188.913 52.8517 188.353C52.8517 187.887 52.6784 187.52 52.3317 187.253C51.9984 186.987 51.4184 186.767 50.5917 186.593L48.3917 186.133C47.125 185.867 46.1784 185.42 45.5517 184.793C44.9384 184.153 44.6317 183.313 44.6317 182.273C44.6317 181.62 44.765 181.027 45.0317 180.493C45.2984 179.96 45.6717 179.5 46.1517 179.113C46.645 178.727 47.225 178.433 47.8917 178.233C48.5717 178.02 49.3184 177.913 50.1317 177.913C50.9317 177.913 51.6917 178.013 52.4117 178.213C53.1317 178.413 53.7784 178.707 54.3517 179.093C54.565 179.24 54.705 179.42 54.7717 179.633C54.8517 179.847 54.8717 180.06 54.8317 180.273C54.7917 180.473 54.6984 180.647 54.5517 180.793C54.405 180.94 54.2184 181.027 53.9917 181.053C53.7784 181.08 53.5317 181.013 53.2517 180.853C52.7584 180.573 52.2584 180.373 51.7517 180.253C51.245 180.133 50.6984 180.073 50.1117 180.073C49.4984 180.073 48.9717 180.16 48.5317 180.333C48.0917 180.507 47.7517 180.753 47.5117 181.073C47.285 181.38 47.1717 181.747 47.1717 182.173C47.1717 182.653 47.3317 183.04 47.6517 183.333C47.9717 183.613 48.5184 183.833 49.2917 183.993L51.4717 184.453C52.7917 184.733 53.7717 185.173 54.4117 185.773C55.065 186.373 55.3917 187.173 55.3917 188.173C55.3917 188.813 55.2584 189.393 54.9917 189.913C54.7384 190.433 54.365 190.88 53.8717 191.253C53.3917 191.627 52.8117 191.913 52.1317 192.113C51.4517 192.313 50.685 192.413 49.8317 192.413ZM61.8089 192.413C60.7956 192.413 59.9156 192.207 59.1689 191.793C58.4222 191.38 57.8422 190.793 57.4289 190.033C57.0156 189.26 56.8089 188.353 56.8089 187.313C56.8089 186.527 56.9222 185.827 57.1489 185.213C57.3889 184.587 57.7289 184.053 58.1689 183.613C58.6089 183.16 59.1356 182.82 59.7489 182.593C60.3622 182.353 61.0489 182.233 61.8089 182.233C62.8222 182.233 63.7022 182.44 64.4489 182.853C65.1956 183.267 65.7756 183.853 66.1889 184.613C66.6022 185.373 66.8089 186.273 66.8089 187.313C66.8089 188.1 66.6889 188.807 66.4489 189.433C66.2222 190.06 65.8889 190.6 65.4489 191.053C65.0089 191.493 64.4822 191.833 63.8689 192.073C63.2556 192.3 62.5689 192.413 61.8089 192.413ZM61.8089 190.513C62.3022 190.513 62.7356 190.393 63.1089 190.153C63.4822 189.913 63.7689 189.56 63.9689 189.093C64.1822 188.613 64.2889 188.02 64.2889 187.313C64.2889 186.247 64.0622 185.453 63.6089 184.933C63.1556 184.4 62.5556 184.133 61.8089 184.133C61.3156 184.133 60.8822 184.253 60.5089 184.493C60.1356 184.72 59.8422 185.073 59.6289 185.553C59.4289 186.02 59.3289 186.607 59.3289 187.313C59.3289 188.367 59.5556 189.167 60.0089 189.713C60.4622 190.247 61.0622 190.513 61.8089 190.513ZM73.3923 192.413C72.3657 192.413 71.4723 192.207 70.7123 191.793C69.9523 191.367 69.3657 190.767 68.9523 189.993C68.539 189.22 68.3323 188.313 68.3323 187.273C68.3323 186.487 68.4457 185.787 68.6723 185.173C68.9123 184.547 69.2523 184.02 69.6923 183.593C70.1323 183.153 70.6657 182.82 71.2923 182.593C71.919 182.353 72.619 182.233 73.3923 182.233C73.8323 182.233 74.3057 182.293 74.8123 182.413C75.3323 182.533 75.819 182.733 76.2723 183.013C76.4857 183.147 76.6257 183.307 76.6923 183.493C76.759 183.68 76.7723 183.873 76.7323 184.073C76.6923 184.26 76.6057 184.427 76.4723 184.573C76.3523 184.707 76.199 184.793 76.0123 184.833C75.8257 184.86 75.619 184.813 75.3923 184.693C75.099 184.52 74.799 184.393 74.4923 184.313C74.1857 184.22 73.8923 184.173 73.6123 184.173C73.1723 184.173 72.7857 184.247 72.4523 184.393C72.119 184.527 71.8323 184.727 71.5923 184.993C71.3657 185.247 71.1923 185.567 71.0723 185.953C70.9523 186.34 70.8923 186.787 70.8923 187.293C70.8923 188.28 71.1257 189.06 71.5923 189.633C72.0723 190.193 72.7457 190.473 73.6123 190.473C73.8923 190.473 74.179 190.433 74.4723 190.353C74.779 190.273 75.0857 190.147 75.3923 189.973C75.619 189.853 75.819 189.813 75.9923 189.853C76.179 189.893 76.3323 189.987 76.4523 190.133C76.5723 190.267 76.6457 190.433 76.6723 190.633C76.699 190.82 76.6723 191.007 76.5923 191.193C76.5257 191.38 76.3923 191.533 76.1923 191.653C75.7523 191.92 75.2857 192.113 74.7923 192.233C74.299 192.353 73.8323 192.413 73.3923 192.413ZM79.5459 192.353C79.1459 192.353 78.8393 192.233 78.6259 191.993C78.4126 191.753 78.3059 191.42 78.3059 190.993V183.653C78.3059 183.213 78.4126 182.88 78.6259 182.653C78.8393 182.413 79.1459 182.293 79.5459 182.293C79.9459 182.293 80.2526 182.413 80.4659 182.653C80.6926 182.88 80.8059 183.213 80.8059 183.653V190.993C80.8059 191.42 80.6993 191.753 80.4859 191.993C80.2726 192.233 79.9593 192.353 79.5459 192.353ZM79.5459 180.433C79.0793 180.433 78.7126 180.32 78.4459 180.093C78.1926 179.853 78.0659 179.527 78.0659 179.113C78.0659 178.687 78.1926 178.36 78.4459 178.133C78.7126 177.907 79.0793 177.793 79.5459 177.793C80.0259 177.793 80.3926 177.907 80.6459 178.133C80.8993 178.36 81.0259 178.687 81.0259 179.113C81.0259 179.527 80.8993 179.853 80.6459 180.093C80.3926 180.32 80.0259 180.433 79.5459 180.433ZM86.6236 192.413C85.9169 192.413 85.2836 192.28 84.7236 192.013C84.1769 191.733 83.7436 191.36 83.4236 190.893C83.1169 190.427 82.9636 189.9 82.9636 189.313C82.9636 188.593 83.1502 188.027 83.5236 187.613C83.8969 187.187 84.5036 186.88 85.3436 186.693C86.1836 186.507 87.3102 186.413 88.7236 186.413H89.7236V187.853H88.7436C87.9169 187.853 87.2569 187.893 86.7636 187.973C86.2702 188.053 85.9169 188.193 85.7036 188.393C85.5036 188.58 85.4036 188.847 85.4036 189.193C85.4036 189.633 85.5569 189.993 85.8636 190.273C86.1702 190.553 86.5969 190.693 87.1436 190.693C87.5836 190.693 87.9702 190.593 88.3036 190.393C88.6502 190.18 88.9236 189.893 89.1236 189.533C89.3236 189.173 89.4236 188.76 89.4236 188.293V185.993C89.4236 185.327 89.2769 184.847 88.9836 184.553C88.6902 184.26 88.1969 184.113 87.5036 184.113C87.1169 184.113 86.6969 184.16 86.2436 184.253C85.8036 184.347 85.3369 184.507 84.8436 184.733C84.5902 184.853 84.3636 184.887 84.1636 184.833C83.9769 184.78 83.8302 184.673 83.7236 184.513C83.6169 184.34 83.5636 184.153 83.5636 183.953C83.5636 183.753 83.6169 183.56 83.7236 183.373C83.8302 183.173 84.0102 183.027 84.2636 182.933C84.8769 182.68 85.4636 182.5 86.0236 182.393C86.5969 182.287 87.1169 182.233 87.5836 182.233C88.5436 182.233 89.3302 182.38 89.9436 182.673C90.5702 182.967 91.0369 183.413 91.3436 184.013C91.6502 184.6 91.8036 185.36 91.8036 186.293V191.093C91.8036 191.507 91.7036 191.827 91.5036 192.053C91.3036 192.267 91.0169 192.373 90.6436 192.373C90.2702 192.373 89.9769 192.267 89.7636 192.053C89.5636 191.827 89.4636 191.507 89.4636 191.093V190.133H89.6236C89.5302 190.6 89.3436 191.007 89.0636 191.353C88.7969 191.687 88.4569 191.947 88.0436 192.133C87.6302 192.32 87.1569 192.413 86.6236 192.413ZM97.6811 192.413C96.5744 192.413 95.7411 192.1 95.1811 191.473C94.6211 190.833 94.3411 189.9 94.3411 188.673V179.213C94.3411 178.8 94.4477 178.487 94.6611 178.273C94.8744 178.06 95.1811 177.953 95.5811 177.953C95.9811 177.953 96.2877 178.06 96.5011 178.273C96.7277 178.487 96.8411 178.8 96.8411 179.213V188.553C96.8411 189.167 96.9677 189.62 97.2211 189.913C97.4877 190.207 97.8611 190.353 98.3411 190.353C98.4477 190.353 98.5477 190.353 98.6411 190.353C98.7344 190.34 98.8277 190.327 98.9211 190.313C99.1077 190.287 99.2344 190.34 99.3011 190.473C99.3677 190.593 99.4011 190.847 99.4011 191.233C99.4011 191.567 99.3344 191.827 99.2011 192.013C99.0677 192.2 98.8477 192.313 98.5411 192.353C98.4077 192.367 98.2677 192.38 98.1211 192.393C97.9744 192.407 97.8277 192.413 97.6811 192.413ZM112.957 192.413C111.491 192.413 110.231 192.12 109.177 191.533C108.137 190.933 107.337 190.093 106.777 189.013C106.217 187.92 105.937 186.633 105.937 185.153C105.937 184.047 106.097 183.053 106.417 182.173C106.737 181.28 107.197 180.52 107.797 179.893C108.397 179.253 109.131 178.767 109.997 178.433C110.877 178.087 111.864 177.913 112.957 177.913C113.691 177.913 114.411 178.007 115.117 178.193C115.824 178.38 116.444 178.647 116.977 178.993C117.257 179.167 117.444 179.38 117.537 179.633C117.631 179.873 117.651 180.113 117.597 180.353C117.544 180.58 117.431 180.773 117.257 180.933C117.097 181.093 116.891 181.187 116.637 181.213C116.397 181.227 116.131 181.14 115.837 180.953C115.424 180.687 114.977 180.493 114.497 180.373C114.017 180.253 113.531 180.193 113.037 180.193C112.091 180.193 111.291 180.387 110.637 180.773C109.984 181.16 109.491 181.72 109.157 182.453C108.824 183.187 108.657 184.087 108.657 185.153C108.657 186.207 108.824 187.107 109.157 187.853C109.491 188.6 109.984 189.167 110.637 189.553C111.291 189.94 112.091 190.133 113.037 190.133C113.544 190.133 114.044 190.073 114.537 189.953C115.031 189.82 115.497 189.62 115.937 189.353C116.231 189.18 116.491 189.107 116.717 189.133C116.957 189.147 117.157 189.227 117.317 189.373C117.477 189.52 117.584 189.707 117.637 189.933C117.691 190.147 117.677 190.373 117.597 190.613C117.517 190.84 117.357 191.04 117.117 191.213C116.584 191.6 115.944 191.9 115.197 192.113C114.464 192.313 113.717 192.413 112.957 192.413ZM123.508 192.413C122.495 192.413 121.615 192.207 120.868 191.793C120.121 191.38 119.541 190.793 119.128 190.033C118.715 189.26 118.508 188.353 118.508 187.313C118.508 186.527 118.621 185.827 118.848 185.213C119.088 184.587 119.428 184.053 119.868 183.613C120.308 183.16 120.835 182.82 121.448 182.593C122.061 182.353 122.748 182.233 123.508 182.233C124.521 182.233 125.401 182.44 126.148 182.853C126.895 183.267 127.475 183.853 127.888 184.613C128.301 185.373 128.508 186.273 128.508 187.313C128.508 188.1 128.388 188.807 128.148 189.433C127.921 190.06 127.588 190.6 127.148 191.053C126.708 191.493 126.181 191.833 125.568 192.073C124.955 192.3 124.268 192.413 123.508 192.413ZM123.508 190.513C124.001 190.513 124.435 190.393 124.808 190.153C125.181 189.913 125.468 189.56 125.668 189.093C125.881 188.613 125.988 188.02 125.988 187.313C125.988 186.247 125.761 185.453 125.308 184.933C124.855 184.4 124.255 184.133 123.508 184.133C123.015 184.133 122.581 184.253 122.208 184.493C121.835 184.72 121.541 185.073 121.328 185.553C121.128 186.02 121.028 186.607 121.028 187.313C121.028 188.367 121.255 189.167 121.708 189.713C122.161 190.247 122.761 190.513 123.508 190.513ZM131.852 192.373C131.452 192.373 131.145 192.267 130.932 192.053C130.718 191.827 130.612 191.507 130.612 191.093V183.533C130.612 183.12 130.718 182.807 130.932 182.593C131.145 182.38 131.445 182.273 131.832 182.273C132.218 182.273 132.518 182.38 132.732 182.593C132.945 182.807 133.052 183.12 133.052 183.533V184.993L132.832 184.393C133.098 183.727 133.512 183.2 134.072 182.813C134.632 182.427 135.298 182.233 136.072 182.233C136.858 182.233 137.505 182.42 138.012 182.793C138.518 183.167 138.872 183.74 139.072 184.513H138.792C139.058 183.807 139.498 183.253 140.112 182.853C140.725 182.44 141.432 182.233 142.232 182.233C142.978 182.233 143.592 182.38 144.072 182.673C144.565 182.967 144.932 183.413 145.172 184.013C145.412 184.6 145.532 185.347 145.532 186.253V191.093C145.532 191.507 145.418 191.827 145.192 192.053C144.978 192.267 144.672 192.373 144.272 192.373C143.872 192.373 143.565 192.267 143.352 192.053C143.138 191.827 143.032 191.507 143.032 191.093V186.353C143.032 185.607 142.905 185.06 142.652 184.713C142.412 184.367 141.998 184.193 141.412 184.193C140.758 184.193 140.245 184.427 139.872 184.893C139.498 185.347 139.312 185.98 139.312 186.793V191.093C139.312 191.507 139.205 191.827 138.992 192.053C138.778 192.267 138.472 192.373 138.072 192.373C137.672 192.373 137.358 192.267 137.132 192.053C136.918 191.827 136.812 191.507 136.812 191.093V186.353C136.812 185.607 136.685 185.06 136.432 184.713C136.192 184.367 135.785 184.193 135.212 184.193C134.558 184.193 134.045 184.427 133.672 184.893C133.298 185.347 133.112 185.98 133.112 186.793V191.093C133.112 191.947 132.692 192.373 131.852 192.373ZM149.351 195.973C148.951 195.973 148.644 195.867 148.431 195.653C148.217 195.44 148.111 195.127 148.111 194.713V183.533C148.111 183.12 148.217 182.807 148.431 182.593C148.644 182.38 148.944 182.273 149.331 182.273C149.731 182.273 150.037 182.38 150.251 182.593C150.464 182.807 150.571 183.12 150.571 183.533V185.093L150.351 184.493C150.551 183.813 150.957 183.267 151.571 182.853C152.197 182.44 152.924 182.233 153.751 182.233C154.604 182.233 155.351 182.44 155.991 182.853C156.644 183.267 157.151 183.853 157.511 184.613C157.871 185.36 158.051 186.26 158.051 187.313C158.051 188.353 157.871 189.26 157.511 190.033C157.151 190.793 156.651 191.38 156.011 191.793C155.371 192.207 154.617 192.413 153.751 192.413C152.937 192.413 152.224 192.213 151.611 191.813C150.997 191.4 150.584 190.867 150.371 190.213H150.611V194.713C150.611 195.127 150.497 195.44 150.271 195.653C150.057 195.867 149.751 195.973 149.351 195.973ZM153.051 190.513C153.544 190.513 153.977 190.393 154.351 190.153C154.724 189.913 155.011 189.56 155.211 189.093C155.424 188.613 155.531 188.02 155.531 187.313C155.531 186.247 155.304 185.453 154.851 184.933C154.397 184.4 153.797 184.133 153.051 184.133C152.557 184.133 152.124 184.253 151.751 184.493C151.377 184.72 151.084 185.073 150.871 185.553C150.671 186.02 150.571 186.607 150.571 187.313C150.571 188.367 150.797 189.167 151.251 189.713C151.704 190.247 152.304 190.513 153.051 190.513ZM163.643 192.413C162.829 192.413 162.156 192.267 161.623 191.973C161.089 191.667 160.689 191.213 160.423 190.613C160.169 190.013 160.043 189.267 160.043 188.373V183.533C160.043 183.107 160.149 182.793 160.363 182.593C160.576 182.38 160.883 182.273 161.283 182.273C161.683 182.273 161.989 182.38 162.203 182.593C162.429 182.793 162.543 183.107 162.543 183.533V188.413C162.543 189.107 162.683 189.62 162.963 189.953C163.243 190.287 163.689 190.453 164.303 190.453C164.969 190.453 165.516 190.227 165.943 189.773C166.369 189.307 166.583 188.693 166.583 187.933V183.533C166.583 183.107 166.689 182.793 166.903 182.593C167.116 182.38 167.423 182.273 167.823 182.273C168.223 182.273 168.529 182.38 168.743 182.593C168.969 182.793 169.083 183.107 169.083 183.533V191.093C169.083 191.947 168.676 192.373 167.863 192.373C167.476 192.373 167.176 192.267 166.963 192.053C166.749 191.827 166.643 191.507 166.643 191.093V189.573L166.923 190.173C166.643 190.893 166.216 191.447 165.643 191.833C165.083 192.22 164.416 192.413 163.643 192.413ZM176.165 192.413C175.298 192.413 174.571 192.267 173.985 191.973C173.411 191.68 172.985 191.253 172.705 190.693C172.425 190.12 172.285 189.413 172.285 188.573V184.313H171.245C170.925 184.313 170.678 184.233 170.505 184.073C170.331 183.9 170.245 183.667 170.245 183.373C170.245 183.067 170.331 182.833 170.505 182.673C170.678 182.513 170.925 182.433 171.245 182.433H172.285V180.613C172.285 180.2 172.391 179.887 172.605 179.673C172.831 179.46 173.145 179.353 173.545 179.353C173.945 179.353 174.251 179.46 174.465 179.673C174.678 179.887 174.785 180.2 174.785 180.613V182.433H176.905C177.225 182.433 177.471 182.513 177.645 182.673C177.818 182.833 177.905 183.067 177.905 183.373C177.905 183.667 177.818 183.9 177.645 184.073C177.471 184.233 177.225 184.313 176.905 184.313H174.785V188.433C174.785 189.073 174.925 189.553 175.205 189.873C175.485 190.193 175.938 190.353 176.565 190.353C176.791 190.353 176.991 190.333 177.165 190.293C177.338 190.253 177.491 190.227 177.625 190.213C177.785 190.2 177.918 190.253 178.025 190.373C178.131 190.48 178.185 190.707 178.185 191.053C178.185 191.32 178.138 191.56 178.045 191.773C177.965 191.973 177.811 192.113 177.585 192.193C177.411 192.247 177.185 192.293 176.905 192.333C176.625 192.387 176.378 192.413 176.165 192.413ZM180.855 192.353C180.455 192.353 180.148 192.233 179.935 191.993C179.721 191.753 179.615 191.42 179.615 190.993V183.653C179.615 183.213 179.721 182.88 179.935 182.653C180.148 182.413 180.455 182.293 180.855 182.293C181.255 182.293 181.561 182.413 181.775 182.653C182.001 182.88 182.115 183.213 182.115 183.653V190.993C182.115 191.42 182.008 191.753 181.795 191.993C181.581 192.233 181.268 192.353 180.855 192.353ZM180.855 180.433C180.388 180.433 180.021 180.32 179.755 180.093C179.501 179.853 179.375 179.527 179.375 179.113C179.375 178.687 179.501 178.36 179.755 178.133C180.021 177.907 180.388 177.793 180.855 177.793C181.335 177.793 181.701 177.907 181.955 178.133C182.208 178.36 182.335 178.687 182.335 179.113C182.335 179.527 182.208 179.853 181.955 180.093C181.701 180.32 181.335 180.433 180.855 180.433ZM185.952 192.373C185.552 192.373 185.246 192.267 185.032 192.053C184.819 191.827 184.712 191.507 184.712 191.093V183.533C184.712 183.12 184.819 182.807 185.032 182.593C185.246 182.38 185.546 182.273 185.932 182.273C186.319 182.273 186.619 182.38 186.832 182.593C187.046 182.807 187.152 183.12 187.152 183.533V184.893L186.932 184.393C187.226 183.687 187.679 183.153 188.292 182.793C188.919 182.42 189.626 182.233 190.412 182.233C191.199 182.233 191.846 182.38 192.352 182.673C192.859 182.967 193.239 183.413 193.492 184.013C193.746 184.6 193.872 185.347 193.872 186.253V191.093C193.872 191.507 193.766 191.827 193.552 192.053C193.339 192.267 193.032 192.373 192.632 192.373C192.232 192.373 191.919 192.267 191.692 192.053C191.479 191.827 191.372 191.507 191.372 191.093V186.373C191.372 185.613 191.226 185.06 190.932 184.713C190.652 184.367 190.212 184.193 189.612 184.193C188.879 184.193 188.292 184.427 187.852 184.893C187.426 185.347 187.212 185.953 187.212 186.713V191.093C187.212 191.947 186.792 192.373 185.952 192.373ZM200.971 196.013C200.251 196.013 199.551 195.947 198.871 195.813C198.205 195.68 197.598 195.473 197.051 195.193C196.798 195.06 196.625 194.9 196.531 194.713C196.451 194.527 196.425 194.333 196.451 194.133C196.491 193.947 196.571 193.78 196.691 193.633C196.825 193.487 196.985 193.387 197.171 193.333C197.358 193.28 197.551 193.307 197.751 193.413C198.338 193.707 198.891 193.893 199.411 193.973C199.945 194.067 200.398 194.113 200.771 194.113C201.665 194.113 202.331 193.893 202.771 193.453C203.225 193.027 203.451 192.387 203.451 191.533V189.733H203.631C203.431 190.413 203.011 190.96 202.371 191.373C201.745 191.773 201.031 191.973 200.231 191.973C199.351 191.973 198.585 191.773 197.931 191.373C197.278 190.96 196.771 190.387 196.411 189.653C196.051 188.92 195.871 188.067 195.871 187.093C195.871 186.36 195.971 185.7 196.171 185.113C196.385 184.513 196.678 184 197.051 183.573C197.438 183.147 197.898 182.82 198.431 182.593C198.978 182.353 199.578 182.233 200.231 182.233C201.058 182.233 201.778 182.44 202.391 182.853C203.018 183.253 203.425 183.787 203.611 184.453L203.411 184.953V183.533C203.411 183.12 203.518 182.807 203.731 182.593C203.958 182.38 204.265 182.273 204.651 182.273C205.051 182.273 205.358 182.38 205.571 182.593C205.785 182.807 205.891 183.12 205.891 183.533V191.233C205.891 192.82 205.471 194.013 204.631 194.813C203.791 195.613 202.571 196.013 200.971 196.013ZM200.911 190.073C201.431 190.073 201.878 189.953 202.251 189.713C202.625 189.473 202.911 189.133 203.111 188.693C203.325 188.24 203.431 187.707 203.431 187.093C203.431 186.173 203.205 185.453 202.751 184.933C202.298 184.4 201.685 184.133 200.911 184.133C200.391 184.133 199.945 184.253 199.571 184.493C199.198 184.733 198.905 185.073 198.691 185.513C198.491 185.953 198.391 186.48 198.391 187.093C198.391 188.013 198.618 188.74 199.071 189.273C199.525 189.807 200.138 190.073 200.911 190.073Z" fill="#212D4D"/>
<path d="M44.6217 220.213V210.273H45.8817V219.093H51.4257V220.213H44.6217ZM55.6841 220.353C55.1334 220.353 54.6341 220.255 54.1861 220.059C53.7381 219.854 53.3508 219.579 53.0241 219.233C52.6974 218.879 52.4454 218.473 52.2681 218.015C52.0908 217.558 52.0021 217.077 52.0021 216.573C52.0021 216.06 52.0908 215.575 52.2681 215.117C52.4454 214.66 52.6974 214.259 53.0241 213.913C53.3508 213.559 53.7381 213.283 54.1861 213.087C54.6434 212.882 55.1428 212.779 55.6841 212.779C56.2348 212.779 56.7341 212.882 57.1821 213.087C57.6301 213.283 58.0174 213.559 58.3441 213.913C58.6801 214.259 58.9368 214.66 59.1141 215.117C59.2914 215.575 59.3801 216.06 59.3801 216.573C59.3801 217.077 59.2914 217.558 59.1141 218.015C58.9368 218.473 58.6848 218.879 58.3581 219.233C58.0314 219.579 57.6394 219.854 57.1821 220.059C56.7341 220.255 56.2348 220.353 55.6841 220.353ZM53.2621 216.587C53.2621 217.091 53.3694 217.549 53.5841 217.959C53.8081 218.37 54.1021 218.697 54.4661 218.939C54.8301 219.173 55.2361 219.289 55.6841 219.289C56.1321 219.289 56.5381 219.168 56.9021 218.925C57.2754 218.683 57.5694 218.356 57.7841 217.945C58.0081 217.525 58.1201 217.063 58.1201 216.559C58.1201 216.055 58.0081 215.598 57.7841 215.187C57.5694 214.777 57.2754 214.45 56.9021 214.207C56.5381 213.965 56.1321 213.843 55.6841 213.843C55.2361 213.843 54.8301 213.969 54.4661 214.221C54.1021 214.464 53.8081 214.791 53.5841 215.201C53.3694 215.612 53.2621 216.074 53.2621 216.587ZM64.737 213.983C64.121 213.993 63.575 214.151 63.099 214.459C62.6323 214.758 62.301 215.173 62.105 215.705V220.213H60.873V212.905H62.021V214.599C62.273 214.095 62.6043 213.689 63.015 213.381C63.435 213.064 63.8736 212.887 64.331 212.849C64.4243 212.849 64.5036 212.849 64.569 212.849C64.6343 212.849 64.6903 212.854 64.737 212.863V213.983ZM69.0152 220.353C68.4645 220.353 67.9605 220.255 67.5032 220.059C67.0552 219.854 66.6632 219.579 66.3272 219.233C66.0005 218.879 65.7438 218.473 65.5572 218.015C65.3798 217.558 65.2912 217.073 65.2912 216.559C65.2912 215.869 65.4498 215.239 65.7672 214.669C66.0845 214.1 66.5232 213.643 67.0832 213.297C67.6525 212.952 68.3012 212.779 69.0292 212.779C69.7665 212.779 70.4058 212.957 70.9472 213.311C71.4978 213.657 71.9225 214.114 72.2212 214.683C72.5292 215.243 72.6832 215.85 72.6832 216.503C72.6832 216.597 72.6785 216.69 72.6692 216.783C72.6692 216.867 72.6645 216.933 72.6552 216.979H66.5932C66.6305 217.455 66.7612 217.88 66.9852 218.253C67.2185 218.617 67.5172 218.907 67.8812 219.121C68.2452 219.327 68.6372 219.429 69.0572 219.429C69.5052 219.429 69.9252 219.317 70.3172 219.093C70.7185 218.869 70.9938 218.575 71.1432 218.211L72.2072 218.505C72.0485 218.86 71.8105 219.177 71.4932 219.457C71.1852 219.737 70.8165 219.957 70.3872 220.115C69.9672 220.274 69.5098 220.353 69.0152 220.353ZM66.5512 216.125H71.5352C71.4978 215.649 71.3625 215.229 71.1292 214.865C70.8958 214.501 70.5972 214.217 70.2332 214.011C69.8692 213.806 69.4678 213.703 69.0292 213.703C68.5998 213.703 68.2032 213.806 67.8392 214.011C67.4752 214.217 67.1765 214.501 66.9432 214.865C66.7192 215.229 66.5885 215.649 66.5512 216.125ZM85.0707 220.213H83.8387V216.125C83.8387 215.36 83.7127 214.795 83.4607 214.431C83.218 214.067 82.854 213.885 82.3687 213.885C81.874 213.885 81.426 214.067 81.0247 214.431C80.6233 214.786 80.3387 215.248 80.1707 215.817V220.213H78.9387V216.125C78.9387 215.351 78.8173 214.786 78.5747 214.431C78.332 214.067 77.968 213.885 77.4827 213.885C76.9973 213.885 76.5493 214.063 76.1387 214.417C75.7373 214.763 75.4527 215.225 75.2847 215.803V220.213H74.0527V212.905H75.1727V214.473C75.4713 213.932 75.8587 213.517 76.3347 213.227C76.8107 212.929 77.3473 212.779 77.9447 212.779C78.5513 212.779 79.0367 212.947 79.4007 213.283C79.7647 213.61 79.9887 214.035 80.0727 214.557C80.3993 213.979 80.796 213.54 81.2627 213.241C81.7293 212.933 82.2613 212.779 82.8587 212.779C83.2787 212.779 83.6287 212.859 83.9087 213.017C84.198 213.167 84.4267 213.381 84.5947 213.661C84.7627 213.932 84.884 214.254 84.9587 214.627C85.0333 215.001 85.0707 215.407 85.0707 215.845V220.213ZM90.5273 220.213V212.905H91.7593V220.213H90.5273ZM90.5273 211.533V209.993H91.7593V211.533H90.5273ZM97.6878 220.353C97.0905 220.353 96.5585 220.204 96.0918 219.905C95.6252 219.607 95.2565 219.229 94.9858 218.771V223.195H93.7538V212.905H94.8458V214.277C95.1352 213.829 95.5132 213.47 95.9798 213.199C96.4465 212.919 96.9552 212.779 97.5058 212.779C98.0098 212.779 98.4718 212.882 98.8918 213.087C99.3118 213.293 99.6758 213.573 99.9838 213.927C100.292 214.282 100.53 214.688 100.698 215.145C100.875 215.593 100.964 216.065 100.964 216.559C100.964 217.25 100.824 217.885 100.544 218.463C100.273 219.042 99.8905 219.504 99.3958 219.849C98.9012 220.185 98.3318 220.353 97.6878 220.353ZM97.3098 219.289C97.6738 219.289 98.0005 219.215 98.2898 219.065C98.5885 218.907 98.8405 218.701 99.0458 218.449C99.2605 218.188 99.4238 217.894 99.5358 217.567C99.6478 217.241 99.7038 216.905 99.7038 216.559C99.7038 216.195 99.6385 215.85 99.5078 215.523C99.3865 215.197 99.2092 214.907 98.9758 214.655C98.7518 214.403 98.4858 214.207 98.1778 214.067C97.8792 213.918 97.5525 213.843 97.1978 213.843C96.9738 213.843 96.7405 213.885 96.4978 213.969C96.2645 214.053 96.0405 214.175 95.8258 214.333C95.6112 214.483 95.4292 214.655 95.2798 214.851C95.1305 215.047 95.0325 215.257 94.9858 215.481V217.567C95.1258 217.885 95.3125 218.174 95.5458 218.435C95.7792 218.697 96.0498 218.907 96.3578 219.065C96.6658 219.215 96.9832 219.289 97.3098 219.289ZM104.982 220.353C104.376 220.353 103.806 220.255 103.274 220.059C102.742 219.854 102.285 219.551 101.902 219.149L102.378 218.281C102.798 218.673 103.218 218.953 103.638 219.121C104.058 219.289 104.488 219.373 104.926 219.373C105.43 219.373 105.841 219.28 106.158 219.093C106.476 218.897 106.634 218.613 106.634 218.239C106.634 217.969 106.55 217.768 106.382 217.637C106.224 217.507 105.995 217.399 105.696 217.315C105.398 217.222 105.043 217.119 104.632 217.007C104.128 216.858 103.704 216.699 103.358 216.531C103.013 216.363 102.752 216.153 102.574 215.901C102.397 215.649 102.308 215.332 102.308 214.949C102.308 214.483 102.43 214.091 102.672 213.773C102.915 213.447 103.246 213.199 103.666 213.031C104.096 212.863 104.581 212.779 105.122 212.779C105.664 212.779 106.154 212.863 106.592 213.031C107.031 213.199 107.409 213.447 107.726 213.773L107.166 214.627C106.877 214.329 106.56 214.109 106.214 213.969C105.869 213.82 105.482 213.745 105.052 213.745C104.8 213.745 104.553 213.778 104.31 213.843C104.068 213.899 103.867 214.007 103.708 214.165C103.55 214.315 103.47 214.529 103.47 214.809C103.47 215.043 103.531 215.229 103.652 215.369C103.783 215.5 103.97 215.612 104.212 215.705C104.464 215.799 104.768 215.901 105.122 216.013C105.673 216.172 106.149 216.331 106.55 216.489C106.961 216.648 107.278 216.853 107.502 217.105C107.726 217.357 107.838 217.707 107.838 218.155C107.838 218.846 107.577 219.387 107.054 219.779C106.532 220.162 105.841 220.353 104.982 220.353ZM109.242 217.287V212.905H110.474V217.049C110.474 217.796 110.605 218.356 110.866 218.729C111.128 219.103 111.515 219.289 112.028 219.289C112.364 219.289 112.686 219.219 112.994 219.079C113.312 218.93 113.596 218.72 113.848 218.449C114.1 218.179 114.296 217.857 114.436 217.483V212.905H115.668V218.813C115.668 218.963 115.696 219.075 115.752 219.149C115.818 219.215 115.92 219.252 116.06 219.261V220.213C115.92 220.232 115.808 220.241 115.724 220.241C115.65 220.251 115.575 220.255 115.5 220.255C115.267 220.255 115.066 220.185 114.898 220.045C114.73 219.896 114.642 219.714 114.632 219.499L114.604 218.645C114.287 219.187 113.858 219.607 113.316 219.905C112.784 220.204 112.201 220.353 111.566 220.353C110.801 220.353 110.222 220.097 109.83 219.583C109.438 219.061 109.242 218.295 109.242 217.287ZM128.739 220.213H127.507V216.125C127.507 215.36 127.381 214.795 127.129 214.431C126.886 214.067 126.522 213.885 126.037 213.885C125.542 213.885 125.094 214.067 124.693 214.431C124.291 214.786 124.007 215.248 123.839 215.817V220.213H122.607V216.125C122.607 215.351 122.485 214.786 122.243 214.431C122 214.067 121.636 213.885 121.151 213.885C120.665 213.885 120.217 214.063 119.807 214.417C119.405 214.763 119.121 215.225 118.953 215.803V220.213H117.721V212.905H118.841V214.473C119.139 213.932 119.527 213.517 120.003 213.227C120.479 212.929 121.015 212.779 121.613 212.779C122.219 212.779 122.705 212.947 123.069 213.283C123.433 213.61 123.657 214.035 123.741 214.557C124.067 213.979 124.464 213.54 124.931 213.241C125.397 212.933 125.929 212.779 126.527 212.779C126.947 212.779 127.297 212.859 127.577 213.017C127.866 213.167 128.095 213.381 128.263 213.661C128.431 213.932 128.552 214.254 128.627 214.627C128.701 215.001 128.739 215.407 128.739 215.845V220.213ZM133.719 216.573C133.719 215.883 133.859 215.253 134.139 214.683C134.429 214.105 134.821 213.643 135.315 213.297C135.819 212.952 136.393 212.779 137.037 212.779C137.625 212.779 138.153 212.933 138.619 213.241C139.086 213.549 139.45 213.923 139.711 214.361V209.993H140.943V218.813C140.943 218.963 140.971 219.075 141.027 219.149C141.093 219.215 141.195 219.252 141.335 219.261V220.213C141.102 220.251 140.92 220.269 140.789 220.269C140.547 220.269 140.332 220.185 140.145 220.017C139.968 219.849 139.879 219.663 139.879 219.457V218.841C139.59 219.308 139.203 219.677 138.717 219.947C138.232 220.218 137.728 220.353 137.205 220.353C136.701 220.353 136.235 220.255 135.805 220.059C135.385 219.854 135.017 219.574 134.699 219.219C134.391 218.865 134.149 218.463 133.971 218.015C133.803 217.558 133.719 217.077 133.719 216.573ZM139.711 217.651V215.551C139.599 215.234 139.417 214.949 139.165 214.697C138.913 214.436 138.629 214.231 138.311 214.081C138.003 213.923 137.695 213.843 137.387 213.843C137.023 213.843 136.692 213.923 136.393 214.081C136.104 214.231 135.852 214.436 135.637 214.697C135.432 214.949 135.273 215.239 135.161 215.565C135.049 215.892 134.993 216.233 134.993 216.587C134.993 216.951 135.054 217.297 135.175 217.623C135.306 217.95 135.483 218.239 135.707 218.491C135.941 218.743 136.207 218.939 136.505 219.079C136.813 219.219 137.145 219.289 137.499 219.289C137.723 219.289 137.952 219.247 138.185 219.163C138.428 219.079 138.657 218.963 138.871 218.813C139.086 218.664 139.268 218.491 139.417 218.295C139.567 218.09 139.665 217.875 139.711 217.651ZM146.192 220.353C145.641 220.353 145.142 220.255 144.694 220.059C144.246 219.854 143.859 219.579 143.532 219.233C143.205 218.879 142.953 218.473 142.776 218.015C142.599 217.558 142.51 217.077 142.51 216.573C142.51 216.06 142.599 215.575 142.776 215.117C142.953 214.66 143.205 214.259 143.532 213.913C143.859 213.559 144.246 213.283 144.694 213.087C145.151 212.882 145.651 212.779 146.192 212.779C146.743 212.779 147.242 212.882 147.69 213.087C148.138 213.283 148.525 213.559 148.852 213.913C149.188 214.259 149.445 214.66 149.622 215.117C149.799 215.575 149.888 216.06 149.888 216.573C149.888 217.077 149.799 217.558 149.622 218.015C149.445 218.473 149.193 218.879 148.866 219.233C148.539 219.579 148.147 219.854 147.69 220.059C147.242 220.255 146.743 220.353 146.192 220.353ZM143.77 216.587C143.77 217.091 143.877 217.549 144.092 217.959C144.316 218.37 144.61 218.697 144.974 218.939C145.338 219.173 145.744 219.289 146.192 219.289C146.64 219.289 147.046 219.168 147.41 218.925C147.783 218.683 148.077 218.356 148.292 217.945C148.516 217.525 148.628 217.063 148.628 216.559C148.628 216.055 148.516 215.598 148.292 215.187C148.077 214.777 147.783 214.45 147.41 214.207C147.046 213.965 146.64 213.843 146.192 213.843C145.744 213.843 145.338 213.969 144.974 214.221C144.61 214.464 144.316 214.791 144.092 215.201C143.877 215.612 143.77 216.074 143.77 216.587ZM151.409 209.993H152.641V218.323C152.641 218.725 152.697 218.972 152.809 219.065C152.921 219.159 153.056 219.205 153.215 219.205C153.411 219.205 153.597 219.187 153.775 219.149C153.952 219.103 154.101 219.056 154.223 219.009L154.419 220.017C154.213 220.101 153.971 220.171 153.691 220.227C153.411 220.283 153.163 220.311 152.949 220.311C152.473 220.311 152.095 220.176 151.815 219.905C151.544 219.635 151.409 219.257 151.409 218.771V209.993ZM158.579 220.353C158.028 220.353 157.529 220.255 157.081 220.059C156.633 219.854 156.245 219.579 155.919 219.233C155.592 218.879 155.34 218.473 155.163 218.015C154.985 217.558 154.897 217.077 154.897 216.573C154.897 216.06 154.985 215.575 155.163 215.117C155.34 214.66 155.592 214.259 155.919 213.913C156.245 213.559 156.633 213.283 157.081 213.087C157.538 212.882 158.037 212.779 158.579 212.779C159.129 212.779 159.629 212.882 160.077 213.087C160.525 213.283 160.912 213.559 161.239 213.913C161.575 214.259 161.831 214.66 162.009 215.117C162.186 215.575 162.275 216.06 162.275 216.573C162.275 217.077 162.186 217.558 162.009 218.015C161.831 218.473 161.579 218.879 161.253 219.233C160.926 219.579 160.534 219.854 160.077 220.059C159.629 220.255 159.129 220.353 158.579 220.353ZM156.157 216.587C156.157 217.091 156.264 217.549 156.479 217.959C156.703 218.37 156.997 218.697 157.361 218.939C157.725 219.173 158.131 219.289 158.579 219.289C159.027 219.289 159.433 219.168 159.797 218.925C160.17 218.683 160.464 218.356 160.679 217.945C160.903 217.525 161.015 217.063 161.015 216.559C161.015 216.055 160.903 215.598 160.679 215.187C160.464 214.777 160.17 214.45 159.797 214.207C159.433 213.965 159.027 213.843 158.579 213.843C158.131 213.843 157.725 213.969 157.361 214.221C156.997 214.464 156.703 214.791 156.479 215.201C156.264 215.612 156.157 216.074 156.157 216.587ZM167.631 213.983C167.015 213.993 166.469 214.151 165.993 214.459C165.527 214.758 165.195 215.173 164.999 215.705V220.213H163.767V212.905H164.915V214.599C165.167 214.095 165.499 213.689 165.909 213.381C166.329 213.064 166.768 212.887 167.225 212.849C167.319 212.849 167.398 212.849 167.463 212.849C167.529 212.849 167.585 212.854 167.631 212.863V213.983ZM174.572 220.353C173.966 220.353 173.396 220.255 172.864 220.059C172.332 219.854 171.875 219.551 171.492 219.149L171.968 218.281C172.388 218.673 172.808 218.953 173.228 219.121C173.648 219.289 174.078 219.373 174.516 219.373C175.02 219.373 175.431 219.28 175.748 219.093C176.066 218.897 176.224 218.613 176.224 218.239C176.224 217.969 176.14 217.768 175.972 217.637C175.814 217.507 175.585 217.399 175.286 217.315C174.988 217.222 174.633 217.119 174.222 217.007C173.718 216.858 173.294 216.699 172.948 216.531C172.603 216.363 172.342 216.153 172.164 215.901C171.987 215.649 171.898 215.332 171.898 214.949C171.898 214.483 172.02 214.091 172.262 213.773C172.505 213.447 172.836 213.199 173.256 213.031C173.686 212.863 174.171 212.779 174.712 212.779C175.254 212.779 175.744 212.863 176.182 213.031C176.621 213.199 176.999 213.447 177.316 213.773L176.756 214.627C176.467 214.329 176.15 214.109 175.804 213.969C175.459 213.82 175.072 213.745 174.642 213.745C174.39 213.745 174.143 213.778 173.9 213.843C173.658 213.899 173.457 214.007 173.298 214.165C173.14 214.315 173.06 214.529 173.06 214.809C173.06 215.043 173.121 215.229 173.242 215.369C173.373 215.5 173.56 215.612 173.802 215.705C174.054 215.799 174.358 215.901 174.712 216.013C175.263 216.172 175.739 216.331 176.14 216.489C176.551 216.648 176.868 216.853 177.092 217.105C177.316 217.357 177.428 217.707 177.428 218.155C177.428 218.846 177.167 219.387 176.644 219.779C176.122 220.162 175.431 220.353 174.572 220.353ZM178.902 220.213V212.905H180.134V220.213H178.902ZM178.902 211.533V209.993H180.134V211.533H178.902ZM185.909 219.849C185.806 219.896 185.666 219.957 185.489 220.031C185.311 220.106 185.106 220.171 184.873 220.227C184.639 220.283 184.392 220.311 184.131 220.311C183.832 220.311 183.557 220.26 183.305 220.157C183.053 220.045 182.852 219.877 182.703 219.653C182.553 219.42 182.479 219.131 182.479 218.785V213.871H181.485V212.905H182.479V210.469H183.711V212.905H185.349V213.871H183.711V218.407C183.729 218.669 183.818 218.865 183.977 218.995C184.135 219.117 184.322 219.177 184.537 219.177C184.779 219.177 185.003 219.135 185.209 219.051C185.414 218.967 185.549 218.907 185.615 218.869L185.909 219.849ZM190.018 218.099C190.018 217.633 190.148 217.231 190.41 216.895C190.68 216.55 191.049 216.284 191.516 216.097C191.982 215.911 192.524 215.817 193.14 215.817C193.466 215.817 193.812 215.845 194.176 215.901C194.54 215.948 194.862 216.023 195.142 216.125V215.593C195.142 215.033 194.974 214.595 194.638 214.277C194.302 213.951 193.826 213.787 193.21 213.787C192.808 213.787 192.421 213.862 192.048 214.011C191.684 214.151 191.296 214.357 190.886 214.627L190.438 213.759C190.914 213.433 191.39 213.19 191.866 213.031C192.342 212.863 192.836 212.779 193.35 212.779C194.283 212.779 195.02 213.041 195.562 213.563C196.103 214.077 196.374 214.795 196.374 215.719V218.813C196.374 218.963 196.402 219.075 196.458 219.149C196.523 219.215 196.626 219.252 196.766 219.261V220.213C196.644 220.232 196.537 220.246 196.444 220.255C196.36 220.265 196.29 220.269 196.234 220.269C195.944 220.269 195.725 220.19 195.576 220.031C195.436 219.873 195.356 219.705 195.338 219.527L195.31 219.065C194.992 219.476 194.577 219.793 194.064 220.017C193.55 220.241 193.042 220.353 192.538 220.353C192.052 220.353 191.618 220.255 191.236 220.059C190.853 219.854 190.554 219.583 190.34 219.247C190.125 218.902 190.018 218.519 190.018 218.099ZM194.778 218.617C194.89 218.487 194.978 218.356 195.044 218.225C195.109 218.085 195.142 217.969 195.142 217.875V216.965C194.852 216.853 194.549 216.769 194.232 216.713C193.914 216.648 193.602 216.615 193.294 216.615C192.668 216.615 192.16 216.741 191.768 216.993C191.385 217.236 191.194 217.572 191.194 218.001C191.194 218.235 191.254 218.463 191.376 218.687C191.506 218.902 191.693 219.079 191.936 219.219C192.188 219.359 192.496 219.429 192.86 219.429C193.242 219.429 193.606 219.355 193.952 219.205C194.297 219.047 194.572 218.851 194.778 218.617ZM209.362 220.213H208.13V216.125C208.13 215.36 208.004 214.795 207.752 214.431C207.509 214.067 207.145 213.885 206.66 213.885C206.165 213.885 205.717 214.067 205.316 214.431C204.914 214.786 204.63 215.248 204.462 215.817V220.213H203.23V216.125C203.23 215.351 203.108 214.786 202.866 214.431C202.623 214.067 202.259 213.885 201.774 213.885C201.288 213.885 200.84 214.063 200.43 214.417C200.028 214.763 199.744 215.225 199.576 215.803V220.213H198.344V212.905H199.464V214.473C199.762 213.932 200.15 213.517 200.626 213.227C201.102 212.929 201.638 212.779 202.236 212.779C202.842 212.779 203.328 212.947 203.692 213.283C204.056 213.61 204.28 214.035 204.364 214.557C204.69 213.979 205.087 213.54 205.554 213.241C206.02 212.933 206.552 212.779 207.15 212.779C207.57 212.779 207.92 212.859 208.2 213.017C208.489 213.167 208.718 213.381 208.886 213.661C209.054 213.932 209.175 214.254 209.25 214.627C209.324 215.001 209.362 215.407 209.362 215.845V220.213ZM214.511 220.353C213.961 220.353 213.457 220.255 212.999 220.059C212.551 219.854 212.159 219.579 211.823 219.233C211.497 218.879 211.24 218.473 211.053 218.015C210.876 217.558 210.787 217.073 210.787 216.559C210.787 215.869 210.946 215.239 211.263 214.669C211.581 214.1 212.019 213.643 212.579 213.297C213.149 212.952 213.797 212.779 214.525 212.779C215.263 212.779 215.902 212.957 216.443 213.311C216.994 213.657 217.419 214.114 217.717 214.683C218.025 215.243 218.179 215.85 218.179 216.503C218.179 216.597 218.175 216.69 218.165 216.783C218.165 216.867 218.161 216.933 218.151 216.979H212.089C212.127 217.455 212.257 217.88 212.481 218.253C212.715 218.617 213.013 218.907 213.377 219.121C213.741 219.327 214.133 219.429 214.553 219.429C215.001 219.429 215.421 219.317 215.813 219.093C216.215 218.869 216.49 218.575 216.639 218.211L217.703 218.505C217.545 218.86 217.307 219.177 216.989 219.457C216.681 219.737 216.313 219.957 215.883 220.115C215.463 220.274 215.006 220.353 214.511 220.353ZM212.047 216.125H217.031C216.994 215.649 216.859 215.229 216.625 214.865C216.392 214.501 216.093 214.217 215.729 214.011C215.365 213.806 214.964 213.703 214.525 213.703C214.096 213.703 213.699 213.806 213.335 214.011C212.971 214.217 212.673 214.501 212.439 214.865C212.215 215.229 212.085 215.649 212.047 216.125ZM223.26 219.849C223.158 219.896 223.018 219.957 222.84 220.031C222.663 220.106 222.458 220.171 222.224 220.227C221.991 220.283 221.744 220.311 221.482 220.311C221.184 220.311 220.908 220.26 220.656 220.157C220.404 220.045 220.204 219.877 220.054 219.653C219.905 219.42 219.83 219.131 219.83 218.785V213.871H218.836V212.905H219.83V210.469H221.062V212.905H222.7V213.871H221.062V218.407C221.081 218.669 221.17 218.865 221.328 218.995C221.487 219.117 221.674 219.177 221.888 219.177C222.131 219.177 222.355 219.135 222.56 219.051C222.766 218.967 222.901 218.907 222.966 218.869L223.26 219.849ZM224.444 221.347L224.724 220.101H224.304V218.645H225.466V220.101L225.046 221.347H224.444ZM47.6597 241.353C47.109 241.353 46.605 241.255 46.1477 241.059C45.6997 240.854 45.3077 240.574 44.9717 240.219C44.645 239.865 44.3884 239.459 44.2017 239.001C44.0244 238.544 43.9357 238.059 43.9357 237.545C43.9357 236.855 44.0897 236.225 44.3977 235.655C44.7057 235.086 45.1397 234.633 45.6997 234.297C46.2597 233.952 46.9084 233.779 47.6457 233.779C48.3644 233.779 48.9897 233.943 49.5217 234.269C50.063 234.587 50.4644 235.016 50.7257 235.557L49.5217 235.935C49.335 235.59 49.0737 235.324 48.7377 235.137C48.4017 234.941 48.0284 234.843 47.6177 234.843C47.1697 234.843 46.759 234.96 46.3857 235.193C46.0217 235.427 45.7324 235.749 45.5177 236.159C45.303 236.561 45.1957 237.023 45.1957 237.545C45.1957 238.059 45.303 238.525 45.5177 238.945C45.7417 239.356 46.0357 239.683 46.3997 239.925C46.773 240.168 47.1837 240.289 47.6317 240.289C47.921 240.289 48.1964 240.238 48.4577 240.135C48.7284 240.033 48.9617 239.897 49.1577 239.729C49.363 239.552 49.503 239.361 49.5777 239.155L50.7817 239.519C50.6324 239.874 50.4037 240.191 50.0957 240.471C49.797 240.742 49.4377 240.957 49.0177 241.115C48.607 241.274 48.1544 241.353 47.6597 241.353ZM55.3013 241.353C54.7506 241.353 54.2513 241.255 53.8033 241.059C53.3553 240.854 52.968 240.579 52.6413 240.233C52.3146 239.879 52.0626 239.473 51.8853 239.015C51.708 238.558 51.6193 238.077 51.6193 237.573C51.6193 237.06 51.708 236.575 51.8853 236.117C52.0626 235.66 52.3146 235.259 52.6413 234.913C52.968 234.559 53.3553 234.283 53.8033 234.087C54.2606 233.882 54.76 233.779 55.3013 233.779C55.852 233.779 56.3513 233.882 56.7993 234.087C57.2473 234.283 57.6346 234.559 57.9613 234.913C58.2973 235.259 58.554 235.66 58.7313 236.117C58.9086 236.575 58.9973 237.06 58.9973 237.573C58.9973 238.077 58.9086 238.558 58.7313 239.015C58.554 239.473 58.302 239.879 57.9753 240.233C57.6486 240.579 57.2566 240.854 56.7993 241.059C56.3513 241.255 55.852 241.353 55.3013 241.353ZM52.8793 237.587C52.8793 238.091 52.9866 238.549 53.2013 238.959C53.4253 239.37 53.7193 239.697 54.0833 239.939C54.4473 240.173 54.8533 240.289 55.3013 240.289C55.7493 240.289 56.1553 240.168 56.5193 239.925C56.8926 239.683 57.1866 239.356 57.4013 238.945C57.6253 238.525 57.7373 238.063 57.7373 237.559C57.7373 237.055 57.6253 236.598 57.4013 236.187C57.1866 235.777 56.8926 235.45 56.5193 235.207C56.1553 234.965 55.7493 234.843 55.3013 234.843C54.8533 234.843 54.4473 234.969 54.0833 235.221C53.7193 235.464 53.4253 235.791 53.2013 236.201C52.9866 236.612 52.8793 237.074 52.8793 237.587ZM66.8322 241.213H65.6002V237.125C65.6002 236.351 65.4788 235.786 65.2362 235.431C65.0028 235.067 64.6435 234.885 64.1582 234.885C63.8222 234.885 63.4862 234.969 63.1502 235.137C62.8235 235.305 62.5295 235.534 62.2682 235.823C62.0162 236.103 61.8342 236.43 61.7222 236.803V241.213H60.4902V233.905H61.6102V235.473C61.8062 235.128 62.0582 234.829 62.3662 234.577C62.6742 234.325 63.0242 234.129 63.4162 233.989C63.8082 233.849 64.2188 233.779 64.6482 233.779C65.0682 233.779 65.4182 233.859 65.6982 234.017C65.9875 234.167 66.2115 234.381 66.3702 234.661C66.5382 234.932 66.6548 235.254 66.7202 235.627C66.7948 236.001 66.8322 236.407 66.8322 236.845V241.213ZM71.254 241.353C70.6473 241.353 70.078 241.255 69.546 241.059C69.014 240.854 68.5566 240.551 68.174 240.149L68.65 239.281C69.07 239.673 69.49 239.953 69.91 240.121C70.33 240.289 70.7593 240.373 71.198 240.373C71.702 240.373 72.1126 240.28 72.43 240.093C72.7473 239.897 72.906 239.613 72.906 239.239C72.906 238.969 72.822 238.768 72.654 238.637C72.4953 238.507 72.2666 238.399 71.968 238.315C71.6693 238.222 71.3146 238.119 70.904 238.007C70.4 237.858 69.9753 237.699 69.63 237.531C69.2846 237.363 69.0233 237.153 68.846 236.901C68.6686 236.649 68.58 236.332 68.58 235.949C68.58 235.483 68.7013 235.091 68.944 234.773C69.1866 234.447 69.518 234.199 69.938 234.031C70.3673 233.863 70.8526 233.779 71.394 233.779C71.9353 233.779 72.4253 233.863 72.864 234.031C73.3026 234.199 73.6806 234.447 73.998 234.773L73.438 235.627C73.1486 235.329 72.8313 235.109 72.486 234.969C72.1406 234.82 71.7533 234.745 71.324 234.745C71.072 234.745 70.8246 234.778 70.582 234.843C70.3393 234.899 70.1386 235.007 69.98 235.165C69.8213 235.315 69.742 235.529 69.742 235.809C69.742 236.043 69.8026 236.229 69.924 236.369C70.0546 236.5 70.2413 236.612 70.484 236.705C70.736 236.799 71.0393 236.901 71.394 237.013C71.9446 237.172 72.4206 237.331 72.822 237.489C73.2326 237.648 73.55 237.853 73.774 238.105C73.998 238.357 74.11 238.707 74.11 239.155C74.11 239.846 73.8486 240.387 73.326 240.779C72.8033 241.162 72.1126 241.353 71.254 241.353ZM78.8179 241.353C78.2672 241.353 77.7632 241.255 77.3059 241.059C76.8579 240.854 76.4659 240.579 76.1299 240.233C75.8032 239.879 75.5466 239.473 75.3599 239.015C75.1826 238.558 75.0939 238.073 75.0939 237.559C75.0939 236.869 75.2526 236.239 75.5699 235.669C75.8872 235.1 76.3259 234.643 76.8859 234.297C77.4552 233.952 78.1039 233.779 78.8319 233.779C79.5692 233.779 80.2086 233.957 80.7499 234.311C81.3006 234.657 81.7252 235.114 82.0239 235.683C82.3319 236.243 82.4859 236.85 82.4859 237.503C82.4859 237.597 82.4812 237.69 82.4719 237.783C82.4719 237.867 82.4672 237.933 82.4579 237.979H76.3959C76.4332 238.455 76.5639 238.88 76.7879 239.253C77.0212 239.617 77.3199 239.907 77.6839 240.121C78.0479 240.327 78.4399 240.429 78.8599 240.429C79.3079 240.429 79.7279 240.317 80.1199 240.093C80.5212 239.869 80.7966 239.575 80.9459 239.211L82.0099 239.505C81.8512 239.86 81.6132 240.177 81.2959 240.457C80.9879 240.737 80.6192 240.957 80.1899 241.115C79.7699 241.274 79.3126 241.353 78.8179 241.353ZM76.3539 237.125H81.3379C81.3006 236.649 81.1652 236.229 80.9319 235.865C80.6986 235.501 80.3999 235.217 80.0359 235.011C79.6719 234.806 79.2706 234.703 78.8319 234.703C78.4026 234.703 78.0059 234.806 77.6419 235.011C77.2779 235.217 76.9792 235.501 76.7459 235.865C76.5219 236.229 76.3912 236.649 76.3539 237.125ZM87.0894 241.353C86.5387 241.353 86.0347 241.255 85.5774 241.059C85.1294 240.854 84.7374 240.574 84.4014 240.219C84.0747 239.865 83.8181 239.459 83.6314 239.001C83.4541 238.544 83.3654 238.059 83.3654 237.545C83.3654 236.855 83.5194 236.225 83.8274 235.655C84.1354 235.086 84.5694 234.633 85.1294 234.297C85.6894 233.952 86.3381 233.779 87.0754 233.779C87.7941 233.779 88.4194 233.943 88.9514 234.269C89.4927 234.587 89.8941 235.016 90.1554 235.557L88.9514 235.935C88.7647 235.59 88.5034 235.324 88.1674 235.137C87.8314 234.941 87.4581 234.843 87.0474 234.843C86.5994 234.843 86.1887 234.96 85.8154 235.193C85.4514 235.427 85.1621 235.749 84.9474 236.159C84.7327 236.561 84.6254 237.023 84.6254 237.545C84.6254 238.059 84.7327 238.525 84.9474 238.945C85.1714 239.356 85.4654 239.683 85.8294 239.925C86.2027 240.168 86.6134 240.289 87.0614 240.289C87.3507 240.289 87.6261 240.238 87.8874 240.135C88.1581 240.033 88.3914 239.897 88.5874 239.729C88.7927 239.552 88.9327 239.361 89.0074 239.155L90.2114 239.519C90.0621 239.874 89.8334 240.191 89.5254 240.471C89.2267 240.742 88.8674 240.957 88.4474 241.115C88.0367 241.274 87.5841 241.353 87.0894 241.353ZM95.3873 240.849C95.2847 240.896 95.1447 240.957 94.9673 241.031C94.79 241.106 94.5847 241.171 94.3513 241.227C94.118 241.283 93.8707 241.311 93.6093 241.311C93.3107 241.311 93.0353 241.26 92.7833 241.157C92.5313 241.045 92.3307 240.877 92.1813 240.653C92.032 240.42 91.9573 240.131 91.9573 239.785V234.871H90.9633V233.905H91.9573V231.469H93.1893V233.905H94.8273V234.871H93.1893V239.407C93.208 239.669 93.2967 239.865 93.4553 239.995C93.614 240.117 93.8007 240.177 94.0153 240.177C94.258 240.177 94.482 240.135 94.6873 240.051C94.8927 239.967 95.028 239.907 95.0933 239.869L95.3873 240.849ZM99.6675 241.353C99.1168 241.353 98.6128 241.255 98.1555 241.059C97.7075 240.854 97.3155 240.579 96.9795 240.233C96.6528 239.879 96.3962 239.473 96.2095 239.015C96.0322 238.558 95.9435 238.073 95.9435 237.559C95.9435 236.869 96.1022 236.239 96.4195 235.669C96.7368 235.1 97.1755 234.643 97.7355 234.297C98.3048 233.952 98.9535 233.779 99.6815 233.779C100.419 233.779 101.058 233.957 101.6 234.311C102.15 234.657 102.575 235.114 102.874 235.683C103.182 236.243 103.336 236.85 103.336 237.503C103.336 237.597 103.331 237.69 103.322 237.783C103.322 237.867 103.317 237.933 103.308 237.979H97.2455C97.2828 238.455 97.4135 238.88 97.6375 239.253C97.8708 239.617 98.1695 239.907 98.5335 240.121C98.8975 240.327 99.2895 240.429 99.7095 240.429C100.158 240.429 100.578 240.317 100.97 240.093C101.371 239.869 101.646 239.575 101.796 239.211L102.86 239.505C102.701 239.86 102.463 240.177 102.146 240.457C101.838 240.737 101.469 240.957 101.04 241.115C100.62 241.274 100.162 241.353 99.6675 241.353ZM97.2035 237.125H102.188C102.15 236.649 102.015 236.229 101.782 235.865C101.548 235.501 101.25 235.217 100.886 235.011C100.522 234.806 100.12 234.703 99.6815 234.703C99.2522 234.703 98.8555 234.806 98.4915 235.011C98.1275 235.217 97.8288 235.501 97.5955 235.865C97.3715 236.229 97.2408 236.649 97.2035 237.125ZM108.417 240.849C108.314 240.896 108.174 240.957 107.997 241.031C107.819 241.106 107.614 241.171 107.381 241.227C107.147 241.283 106.9 241.311 106.639 241.311C106.34 241.311 106.065 241.26 105.813 241.157C105.561 241.045 105.36 240.877 105.211 240.653C105.061 240.42 104.987 240.131 104.987 239.785V234.871H103.993V233.905H104.987V231.469H106.219V233.905H107.857V234.871H106.219V239.407C106.237 239.669 106.326 239.865 106.485 239.995C106.643 240.117 106.83 240.177 107.045 240.177C107.287 240.177 107.511 240.135 107.717 240.051C107.922 239.967 108.057 239.907 108.123 239.869L108.417 240.849ZM109.489 238.287V233.905H110.721V238.049C110.721 238.796 110.851 239.356 111.113 239.729C111.374 240.103 111.761 240.289 112.275 240.289C112.611 240.289 112.933 240.219 113.241 240.079C113.558 239.93 113.843 239.72 114.095 239.449C114.347 239.179 114.543 238.857 114.683 238.483V233.905H115.915V239.813C115.915 239.963 115.943 240.075 115.999 240.149C116.064 240.215 116.167 240.252 116.307 240.261V241.213C116.167 241.232 116.055 241.241 115.971 241.241C115.896 241.251 115.821 241.255 115.747 241.255C115.513 241.255 115.313 241.185 115.145 241.045C114.977 240.896 114.888 240.714 114.879 240.499L114.851 239.645C114.533 240.187 114.104 240.607 113.563 240.905C113.031 241.204 112.447 241.353 111.813 241.353C111.047 241.353 110.469 241.097 110.077 240.583C109.685 240.061 109.489 239.295 109.489 238.287ZM121.831 234.983C121.215 234.993 120.669 235.151 120.193 235.459C119.726 235.758 119.395 236.173 119.199 236.705V241.213H117.967V233.905H119.115V235.599C119.367 235.095 119.698 234.689 120.109 234.381C120.529 234.064 120.967 233.887 121.425 233.849C121.518 233.849 121.597 233.849 121.663 233.849C121.728 233.849 121.784 233.854 121.831 233.863V234.983ZM125.692 239.099C125.692 238.633 125.822 238.231 126.084 237.895C126.354 237.55 126.723 237.284 127.19 237.097C127.656 236.911 128.198 236.817 128.814 236.817C129.14 236.817 129.486 236.845 129.85 236.901C130.214 236.948 130.536 237.023 130.816 237.125V236.593C130.816 236.033 130.648 235.595 130.312 235.277C129.976 234.951 129.5 234.787 128.884 234.787C128.482 234.787 128.095 234.862 127.722 235.011C127.358 235.151 126.97 235.357 126.56 235.627L126.112 234.759C126.588 234.433 127.064 234.19 127.54 234.031C128.016 233.863 128.51 233.779 129.024 233.779C129.957 233.779 130.694 234.041 131.236 234.563C131.777 235.077 132.048 235.795 132.048 236.719V239.813C132.048 239.963 132.076 240.075 132.132 240.149C132.197 240.215 132.3 240.252 132.44 240.261V241.213C132.318 241.232 132.211 241.246 132.118 241.255C132.034 241.265 131.964 241.269 131.908 241.269C131.618 241.269 131.399 241.19 131.25 241.031C131.11 240.873 131.03 240.705 131.012 240.527L130.984 240.065C130.666 240.476 130.251 240.793 129.738 241.017C129.224 241.241 128.716 241.353 128.212 241.353C127.726 241.353 127.292 241.255 126.91 241.059C126.527 240.854 126.228 240.583 126.014 240.247C125.799 239.902 125.692 239.519 125.692 239.099ZM130.452 239.617C130.564 239.487 130.652 239.356 130.718 239.225C130.783 239.085 130.816 238.969 130.816 238.875V237.965C130.526 237.853 130.223 237.769 129.906 237.713C129.588 237.648 129.276 237.615 128.968 237.615C128.342 237.615 127.834 237.741 127.442 237.993C127.059 238.236 126.868 238.572 126.868 239.001C126.868 239.235 126.928 239.463 127.05 239.687C127.18 239.902 127.367 240.079 127.61 240.219C127.862 240.359 128.17 240.429 128.534 240.429C128.916 240.429 129.28 240.355 129.626 240.205C129.971 240.047 130.246 239.851 130.452 239.617ZM133.541 237.573C133.541 236.883 133.681 236.253 133.961 235.683C134.251 235.105 134.643 234.643 135.137 234.297C135.641 233.952 136.215 233.779 136.859 233.779C137.447 233.779 137.975 233.933 138.441 234.241C138.908 234.549 139.272 234.923 139.533 235.361V230.993H140.765V239.813C140.765 239.963 140.793 240.075 140.849 240.149C140.915 240.215 141.017 240.252 141.157 240.261V241.213C140.924 241.251 140.742 241.269 140.611 241.269C140.369 241.269 140.154 241.185 139.967 241.017C139.79 240.849 139.701 240.663 139.701 240.457V239.841C139.412 240.308 139.025 240.677 138.539 240.947C138.054 241.218 137.55 241.353 137.027 241.353C136.523 241.353 136.057 241.255 135.627 241.059C135.207 240.854 134.839 240.574 134.521 240.219C134.213 239.865 133.971 239.463 133.793 239.015C133.625 238.558 133.541 238.077 133.541 237.573ZM139.533 238.651V236.551C139.421 236.234 139.239 235.949 138.987 235.697C138.735 235.436 138.451 235.231 138.133 235.081C137.825 234.923 137.517 234.843 137.209 234.843C136.845 234.843 136.514 234.923 136.215 235.081C135.926 235.231 135.674 235.436 135.459 235.697C135.254 235.949 135.095 236.239 134.983 236.565C134.871 236.892 134.815 237.233 134.815 237.587C134.815 237.951 134.876 238.297 134.997 238.623C135.128 238.95 135.305 239.239 135.529 239.491C135.763 239.743 136.029 239.939 136.327 240.079C136.635 240.219 136.967 240.289 137.321 240.289C137.545 240.289 137.774 240.247 138.007 240.163C138.25 240.079 138.479 239.963 138.693 239.813C138.908 239.664 139.09 239.491 139.239 239.295C139.389 239.09 139.487 238.875 139.533 238.651ZM142.822 241.213V233.905H144.054V241.213H142.822ZM142.822 232.533V230.993H144.054V232.533H142.822ZM149.983 241.353C149.385 241.353 148.853 241.204 148.387 240.905C147.92 240.607 147.551 240.229 147.281 239.771V244.195H146.049V233.905H147.141V235.277C147.43 234.829 147.808 234.47 148.275 234.199C148.741 233.919 149.25 233.779 149.801 233.779C150.305 233.779 150.767 233.882 151.187 234.087C151.607 234.293 151.971 234.573 152.279 234.927C152.587 235.282 152.825 235.688 152.993 236.145C153.17 236.593 153.259 237.065 153.259 237.559C153.259 238.25 153.119 238.885 152.839 239.463C152.568 240.042 152.185 240.504 151.691 240.849C151.196 241.185 150.627 241.353 149.983 241.353ZM149.605 240.289C149.969 240.289 150.295 240.215 150.585 240.065C150.883 239.907 151.135 239.701 151.341 239.449C151.555 239.188 151.719 238.894 151.831 238.567C151.943 238.241 151.999 237.905 151.999 237.559C151.999 237.195 151.933 236.85 151.803 236.523C151.681 236.197 151.504 235.907 151.271 235.655C151.047 235.403 150.781 235.207 150.473 235.067C150.174 234.918 149.847 234.843 149.493 234.843C149.269 234.843 149.035 234.885 148.793 234.969C148.559 235.053 148.335 235.175 148.121 235.333C147.906 235.483 147.724 235.655 147.575 235.851C147.425 236.047 147.327 236.257 147.281 236.481V238.567C147.421 238.885 147.607 239.174 147.841 239.435C148.074 239.697 148.345 239.907 148.653 240.065C148.961 240.215 149.278 240.289 149.605 240.289ZM154.771 241.213V233.905H156.003V241.213H154.771ZM154.771 232.533V230.993H156.003V232.533H154.771ZM160.504 241.353C159.897 241.353 159.328 241.255 158.796 241.059C158.264 240.854 157.807 240.551 157.424 240.149L157.9 239.281C158.32 239.673 158.74 239.953 159.16 240.121C159.58 240.289 160.009 240.373 160.448 240.373C160.952 240.373 161.363 240.28 161.68 240.093C161.997 239.897 162.156 239.613 162.156 239.239C162.156 238.969 162.072 238.768 161.904 238.637C161.745 238.507 161.517 238.399 161.218 238.315C160.919 238.222 160.565 238.119 160.154 238.007C159.65 237.858 159.225 237.699 158.88 237.531C158.535 237.363 158.273 237.153 158.096 236.901C157.919 236.649 157.83 236.332 157.83 235.949C157.83 235.483 157.951 235.091 158.194 234.773C158.437 234.447 158.768 234.199 159.188 234.031C159.617 233.863 160.103 233.779 160.644 233.779C161.185 233.779 161.675 233.863 162.114 234.031C162.553 234.199 162.931 234.447 163.248 234.773L162.688 235.627C162.399 235.329 162.081 235.109 161.736 234.969C161.391 234.82 161.003 234.745 160.574 234.745C160.322 234.745 160.075 234.778 159.832 234.843C159.589 234.899 159.389 235.007 159.23 235.165C159.071 235.315 158.992 235.529 158.992 235.809C158.992 236.043 159.053 236.229 159.174 236.369C159.305 236.5 159.491 236.612 159.734 236.705C159.986 236.799 160.289 236.901 160.644 237.013C161.195 237.172 161.671 237.331 162.072 237.489C162.483 237.648 162.8 237.853 163.024 238.105C163.248 238.357 163.36 238.707 163.36 239.155C163.36 239.846 163.099 240.387 162.576 240.779C162.053 241.162 161.363 241.353 160.504 241.353ZM168.068 241.353C167.517 241.353 167.013 241.255 166.556 241.059C166.108 240.854 165.716 240.574 165.38 240.219C165.053 239.865 164.797 239.459 164.61 239.001C164.433 238.544 164.344 238.059 164.344 237.545C164.344 236.855 164.498 236.225 164.806 235.655C165.114 235.086 165.548 234.633 166.108 234.297C166.668 233.952 167.317 233.779 168.054 233.779C168.773 233.779 169.398 233.943 169.93 234.269C170.471 234.587 170.873 235.016 171.134 235.557L169.93 235.935C169.743 235.59 169.482 235.324 169.146 235.137C168.81 234.941 168.437 234.843 168.026 234.843C167.578 234.843 167.167 234.96 166.794 235.193C166.43 235.427 166.141 235.749 165.926 236.159C165.711 236.561 165.604 237.023 165.604 237.545C165.604 238.059 165.711 238.525 165.926 238.945C166.15 239.356 166.444 239.683 166.808 239.925C167.181 240.168 167.592 240.289 168.04 240.289C168.329 240.289 168.605 240.238 168.866 240.135C169.137 240.033 169.37 239.897 169.566 239.729C169.771 239.552 169.911 239.361 169.986 239.155L171.19 239.519C171.041 239.874 170.812 240.191 170.504 240.471C170.205 240.742 169.846 240.957 169.426 241.115C169.015 241.274 168.563 241.353 168.068 241.353ZM172.586 241.213V233.905H173.818V241.213H172.586ZM172.586 232.533V230.993H173.818V232.533H172.586ZM182.154 241.213H180.922V237.125C180.922 236.351 180.801 235.786 180.558 235.431C180.325 235.067 179.966 234.885 179.48 234.885C179.144 234.885 178.808 234.969 178.472 235.137C178.146 235.305 177.852 235.534 177.59 235.823C177.338 236.103 177.156 236.43 177.044 236.803V241.213H175.812V233.905H176.932V235.473C177.128 235.128 177.38 234.829 177.688 234.577C177.996 234.325 178.346 234.129 178.738 233.989C179.13 233.849 179.541 233.779 179.97 233.779C180.39 233.779 180.74 233.859 181.02 234.017C181.31 234.167 181.534 234.381 181.692 234.661C181.86 234.932 181.977 235.254 182.042 235.627C182.117 236.001 182.154 236.407 182.154 236.845V241.213ZM186.982 241.297C186.488 241.297 186.03 241.199 185.61 241.003C185.2 240.798 184.845 240.523 184.546 240.177C184.248 239.823 184.014 239.421 183.846 238.973C183.688 238.525 183.608 238.059 183.608 237.573C183.608 237.06 183.688 236.575 183.846 236.117C184.014 235.66 184.248 235.259 184.546 234.913C184.854 234.559 185.214 234.283 185.624 234.087C186.035 233.882 186.492 233.779 186.996 233.779C187.603 233.779 188.13 233.929 188.578 234.227C189.036 234.526 189.418 234.904 189.726 235.361V233.905H190.818V241.129C190.818 241.82 190.65 242.403 190.314 242.879C189.988 243.355 189.54 243.715 188.97 243.957C188.41 244.209 187.785 244.335 187.094 244.335C186.273 244.335 185.601 244.191 185.078 243.901C184.556 243.612 184.122 243.22 183.776 242.725L184.49 242.095C184.78 242.525 185.153 242.847 185.61 243.061C186.077 243.276 186.572 243.383 187.094 243.383C187.542 243.383 187.953 243.299 188.326 243.131C188.709 242.973 189.012 242.725 189.236 242.389C189.47 242.053 189.586 241.633 189.586 241.129V239.841C189.316 240.289 188.942 240.644 188.466 240.905C188 241.167 187.505 241.297 186.982 241.297ZM187.36 240.289C187.622 240.289 187.874 240.243 188.116 240.149C188.359 240.056 188.583 239.935 188.788 239.785C188.994 239.627 189.166 239.449 189.306 239.253C189.446 239.057 189.54 238.857 189.586 238.651V236.551C189.456 236.215 189.269 235.921 189.026 235.669C188.784 235.408 188.508 235.207 188.2 235.067C187.892 234.918 187.575 234.843 187.248 234.843C186.875 234.843 186.539 234.923 186.24 235.081C185.951 235.24 185.704 235.455 185.498 235.725C185.293 235.987 185.134 236.281 185.022 236.607C184.91 236.934 184.854 237.265 184.854 237.601C184.854 237.965 184.92 238.311 185.05 238.637C185.181 238.955 185.358 239.239 185.582 239.491C185.806 239.743 186.072 239.939 186.38 240.079C186.688 240.219 187.015 240.289 187.36 240.289ZM199.582 241.353C199.031 241.353 198.527 241.255 198.07 241.059C197.622 240.854 197.23 240.579 196.894 240.233C196.567 239.879 196.31 239.473 196.124 239.015C195.946 238.558 195.858 238.073 195.858 237.559C195.858 236.869 196.016 236.239 196.334 235.669C196.651 235.1 197.09 234.643 197.65 234.297C198.219 233.952 198.868 233.779 199.596 233.779C200.333 233.779 200.972 233.957 201.514 234.311C202.064 234.657 202.489 235.114 202.788 235.683C203.096 236.243 203.25 236.85 203.25 237.503C203.25 237.597 203.245 237.69 203.236 237.783C203.236 237.867 203.231 237.933 203.222 237.979H197.16C197.197 238.455 197.328 238.88 197.552 239.253C197.785 239.617 198.084 239.907 198.448 240.121C198.812 240.327 199.204 240.429 199.624 240.429C200.072 240.429 200.492 240.317 200.884 240.093C201.285 239.869 201.56 239.575 201.71 239.211L202.774 239.505C202.615 239.86 202.377 240.177 202.06 240.457C201.752 240.737 201.383 240.957 200.954 241.115C200.534 241.274 200.076 241.353 199.582 241.353ZM197.118 237.125H202.102C202.064 236.649 201.929 236.229 201.696 235.865C201.462 235.501 201.164 235.217 200.8 235.011C200.436 234.806 200.034 234.703 199.596 234.703C199.166 234.703 198.77 234.806 198.406 235.011C198.042 235.217 197.743 235.501 197.51 235.865C197.286 236.229 197.155 236.649 197.118 237.125ZM204.647 230.993H205.879V239.323C205.879 239.725 205.935 239.972 206.047 240.065C206.159 240.159 206.294 240.205 206.453 240.205C206.649 240.205 206.836 240.187 207.013 240.149C207.19 240.103 207.34 240.056 207.461 240.009L207.657 241.017C207.452 241.101 207.209 241.171 206.929 241.227C206.649 241.283 206.402 241.311 206.187 241.311C205.711 241.311 205.333 241.176 205.053 240.905C204.782 240.635 204.647 240.257 204.647 239.771V230.993ZM208.625 241.213V233.905H209.857V241.213H208.625ZM208.625 232.533V230.993H209.857V232.533H208.625ZM215.631 240.849C215.529 240.896 215.389 240.957 215.211 241.031C215.034 241.106 214.829 241.171 214.595 241.227C214.362 241.283 214.115 241.311 213.853 241.311C213.555 241.311 213.279 241.26 213.027 241.157C212.775 241.045 212.575 240.877 212.425 240.653C212.276 240.42 212.201 240.131 212.201 239.785V234.871H211.207V233.905H212.201V231.469H213.433V233.905H215.071V234.871H213.433V239.407C213.452 239.669 213.541 239.865 213.699 239.995C213.858 240.117 214.045 240.177 214.259 240.177C214.502 240.177 214.726 240.135 214.931 240.051C215.137 239.967 215.272 239.907 215.337 239.869L215.631 240.849ZM216.815 242.347L217.095 241.101H216.675V239.645H217.837V241.101L217.417 242.347H216.815ZM225.773 241.353C225.167 241.353 224.597 241.255 224.065 241.059C223.533 240.854 223.076 240.551 222.693 240.149L223.169 239.281C223.589 239.673 224.009 239.953 224.429 240.121C224.849 240.289 225.279 240.373 225.717 240.373C226.221 240.373 226.632 240.28 226.949 240.093C227.267 239.897 227.425 239.613 227.425 239.239C227.425 238.969 227.341 238.768 227.173 238.637C227.015 238.507 226.786 238.399 226.487 238.315C226.189 238.222 225.834 238.119 225.423 238.007C224.919 237.858 224.495 237.699 224.149 237.531C223.804 237.363 223.543 237.153 223.365 236.901C223.188 236.649 223.099 236.332 223.099 235.949C223.099 235.483 223.221 235.091 223.463 234.773C223.706 234.447 224.037 234.199 224.457 234.031C224.887 233.863 225.372 233.779 225.913 233.779C226.455 233.779 226.945 233.863 227.383 234.031C227.822 234.199 228.2 234.447 228.517 234.773L227.957 235.627C227.668 235.329 227.351 235.109 227.005 234.969C226.66 234.82 226.273 234.745 225.843 234.745C225.591 234.745 225.344 234.778 225.101 234.843C224.859 234.899 224.658 235.007 224.499 235.165C224.341 235.315 224.261 235.529 224.261 235.809C224.261 236.043 224.322 236.229 224.443 236.369C224.574 236.5 224.761 236.612 225.003 236.705C225.255 236.799 225.559 236.901 225.913 237.013C226.464 237.172 226.94 237.331 227.341 237.489C227.752 237.648 228.069 237.853 228.293 238.105C228.517 238.357 228.629 238.707 228.629 239.155C228.629 239.846 228.368 240.387 227.845 240.779C227.323 241.162 226.632 241.353 225.773 241.353ZM233.337 241.353C232.787 241.353 232.283 241.255 231.825 241.059C231.377 240.854 230.985 240.579 230.649 240.233C230.323 239.879 230.066 239.473 229.879 239.015C229.702 238.558 229.613 238.073 229.613 237.559C229.613 236.869 229.772 236.239 230.089 235.669C230.407 235.1 230.845 234.643 231.405 234.297C231.975 233.952 232.623 233.779 233.351 233.779C234.089 233.779 234.728 233.957 235.269 234.311C235.82 234.657 236.245 235.114 236.543 235.683C236.851 236.243 237.005 236.85 237.005 237.503C237.005 237.597 237.001 237.69 236.991 237.783C236.991 237.867 236.987 237.933 236.977 237.979H230.915C230.953 238.455 231.083 238.88 231.307 239.253C231.541 239.617 231.839 239.907 232.203 240.121C232.567 240.327 232.959 240.429 233.379 240.429C233.827 240.429 234.247 240.317 234.639 240.093C235.041 239.869 235.316 239.575 235.465 239.211L236.529 239.505C236.371 239.86 236.133 240.177 235.815 240.457C235.507 240.737 235.139 240.957 234.709 241.115C234.289 241.274 233.832 241.353 233.337 241.353ZM230.873 237.125H235.857C235.82 236.649 235.685 236.229 235.451 235.865C235.218 235.501 234.919 235.217 234.555 235.011C234.191 234.806 233.79 234.703 233.351 234.703C232.922 234.703 232.525 234.806 232.161 235.011C231.797 235.217 231.499 235.501 231.265 235.865C231.041 236.229 230.911 236.649 230.873 237.125ZM237.899 237.573C237.899 236.883 238.039 236.253 238.319 235.683C238.608 235.105 239 234.643 239.495 234.297C239.999 233.952 240.573 233.779 241.217 233.779C241.805 233.779 242.332 233.933 242.799 234.241C243.266 234.549 243.63 234.923 243.891 235.361V230.993H245.123V239.813C245.123 239.963 245.151 240.075 245.207 240.149C245.272 240.215 245.375 240.252 245.515 240.261V241.213C245.282 241.251 245.1 241.269 244.969 241.269C244.726 241.269 244.512 241.185 244.325 241.017C244.148 240.849 244.059 240.663 244.059 240.457V239.841C243.77 240.308 243.382 240.677 242.897 240.947C242.412 241.218 241.908 241.353 241.385 241.353C240.881 241.353 240.414 241.255 239.985 241.059C239.565 240.854 239.196 240.574 238.879 240.219C238.571 239.865 238.328 239.463 238.151 239.015C237.983 238.558 237.899 238.077 237.899 237.573ZM243.891 238.651V236.551C243.779 236.234 243.597 235.949 243.345 235.697C243.093 235.436 242.808 235.231 242.491 235.081C242.183 234.923 241.875 234.843 241.567 234.843C241.203 234.843 240.872 234.923 240.573 235.081C240.284 235.231 240.032 235.436 239.817 235.697C239.612 235.949 239.453 236.239 239.341 236.565C239.229 236.892 239.173 237.233 239.173 237.587C239.173 237.951 239.234 238.297 239.355 238.623C239.486 238.95 239.663 239.239 239.887 239.491C240.12 239.743 240.386 239.939 240.685 240.079C240.993 240.219 241.324 240.289 241.679 240.289C241.903 240.289 242.132 240.247 242.365 240.163C242.608 240.079 242.836 239.963 243.051 239.813C243.266 239.664 243.448 239.491 243.597 239.295C243.746 239.09 243.844 238.875 243.891 238.651ZM43.9497 258.573C43.9497 257.883 44.0897 257.253 44.3697 256.683C44.659 256.105 45.051 255.643 45.5457 255.297C46.0497 254.952 46.6237 254.779 47.2677 254.779C47.8557 254.779 48.383 254.933 48.8497 255.241C49.3164 255.549 49.6804 255.923 49.9417 256.361V251.993H51.1737V260.813C51.1737 260.963 51.2017 261.075 51.2577 261.149C51.323 261.215 51.4257 261.252 51.5657 261.261V262.213C51.3324 262.251 51.1504 262.269 51.0197 262.269C50.777 262.269 50.5624 262.185 50.3757 262.017C50.1984 261.849 50.1097 261.663 50.1097 261.457V260.841C49.8204 261.308 49.433 261.677 48.9477 261.947C48.4624 262.218 47.9584 262.353 47.4357 262.353C46.9317 262.353 46.465 262.255 46.0357 262.059C45.6157 261.854 45.247 261.574 44.9297 261.219C44.6217 260.865 44.379 260.463 44.2017 260.015C44.0337 259.558 43.9497 259.077 43.9497 258.573ZM49.9417 259.651V257.551C49.8297 257.234 49.6477 256.949 49.3957 256.697C49.1437 256.436 48.859 256.231 48.5417 256.081C48.2337 255.923 47.9257 255.843 47.6177 255.843C47.2537 255.843 46.9224 255.923 46.6237 256.081C46.3344 256.231 46.0824 256.436 45.8677 256.697C45.6624 256.949 45.5037 257.239 45.3917 257.565C45.2797 257.892 45.2237 258.233 45.2237 258.587C45.2237 258.951 45.2844 259.297 45.4057 259.623C45.5364 259.95 45.7137 260.239 45.9377 260.491C46.171 260.743 46.437 260.939 46.7357 261.079C47.0437 261.219 47.375 261.289 47.7297 261.289C47.9537 261.289 48.1824 261.247 48.4157 261.163C48.6584 261.079 48.887 260.963 49.1017 260.813C49.3164 260.664 49.4984 260.491 49.6477 260.295C49.797 260.09 49.895 259.875 49.9417 259.651ZM56.4224 262.353C55.8717 262.353 55.3724 262.255 54.9244 262.059C54.4764 261.854 54.0891 261.579 53.7624 261.233C53.4357 260.879 53.1837 260.473 53.0064 260.015C52.8291 259.558 52.7404 259.077 52.7404 258.573C52.7404 258.06 52.8291 257.575 53.0064 257.117C53.1837 256.66 53.4357 256.259 53.7624 255.913C54.0891 255.559 54.4764 255.283 54.9244 255.087C55.3817 254.882 55.8811 254.779 56.4224 254.779C56.9731 254.779 57.4724 254.882 57.9204 255.087C58.3684 255.283 58.7557 255.559 59.0824 255.913C59.4184 256.259 59.6751 256.66 59.8524 257.117C60.0297 257.575 60.1184 258.06 60.1184 258.573C60.1184 259.077 60.0297 259.558 59.8524 260.015C59.6751 260.473 59.4231 260.879 59.0964 261.233C58.7697 261.579 58.3777 261.854 57.9204 262.059C57.4724 262.255 56.9731 262.353 56.4224 262.353ZM54.0004 258.587C54.0004 259.091 54.1077 259.549 54.3224 259.959C54.5464 260.37 54.8404 260.697 55.2044 260.939C55.5684 261.173 55.9744 261.289 56.4224 261.289C56.8704 261.289 57.2764 261.168 57.6404 260.925C58.0137 260.683 58.3077 260.356 58.5224 259.945C58.7464 259.525 58.8584 259.063 58.8584 258.559C58.8584 258.055 58.7464 257.598 58.5224 257.187C58.3077 256.777 58.0137 256.45 57.6404 256.207C57.2764 255.965 56.8704 255.843 56.4224 255.843C55.9744 255.843 55.5684 255.969 55.2044 256.221C54.8404 256.464 54.5464 256.791 54.3224 257.201C54.1077 257.612 54.0004 258.074 54.0004 258.587ZM68.3863 262.353C67.8356 262.353 67.3316 262.255 66.8743 262.059C66.4263 261.854 66.0343 261.579 65.6983 261.233C65.3716 260.879 65.1149 260.473 64.9283 260.015C64.7509 259.558 64.6623 259.073 64.6623 258.559C64.6623 257.869 64.8209 257.239 65.1383 256.669C65.4556 256.1 65.8943 255.643 66.4543 255.297C67.0236 254.952 67.6723 254.779 68.4003 254.779C69.1376 254.779 69.7769 254.957 70.3183 255.311C70.8689 255.657 71.2936 256.114 71.5923 256.683C71.9003 257.243 72.0543 257.85 72.0543 258.503C72.0543 258.597 72.0496 258.69 72.0403 258.783C72.0403 258.867 72.0356 258.933 72.0263 258.979H65.9643C66.0016 259.455 66.1323 259.88 66.3563 260.253C66.5896 260.617 66.8883 260.907 67.2523 261.121C67.6163 261.327 68.0083 261.429 68.4283 261.429C68.8763 261.429 69.2963 261.317 69.6883 261.093C70.0896 260.869 70.3649 260.575 70.5143 260.211L71.5783 260.505C71.4196 260.86 71.1816 261.177 70.8643 261.457C70.5563 261.737 70.1876 261.957 69.7583 262.115C69.3383 262.274 68.8809 262.353 68.3863 262.353ZM65.9223 258.125H70.9063C70.8689 257.649 70.7336 257.229 70.5003 256.865C70.2669 256.501 69.9683 256.217 69.6043 256.011C69.2403 255.806 68.8389 255.703 68.4003 255.703C67.9709 255.703 67.5743 255.806 67.2103 256.011C66.8463 256.217 66.5476 256.501 66.3143 256.865C66.0903 257.229 65.9596 257.649 65.9223 258.125ZM73.4237 262.213V254.905H74.6557V262.213H73.4237ZM73.4237 253.533V251.993H74.6557V253.533H73.4237ZM76.5803 259.287V254.905H77.8123V259.049C77.8123 259.796 77.943 260.356 78.2043 260.729C78.4656 261.103 78.853 261.289 79.3663 261.289C79.7023 261.289 80.0243 261.219 80.3323 261.079C80.6496 260.93 80.9343 260.72 81.1863 260.449C81.4383 260.179 81.6343 259.857 81.7743 259.483V254.905H83.0063V260.813C83.0063 260.963 83.0343 261.075 83.0903 261.149C83.1556 261.215 83.2583 261.252 83.3983 261.261V262.213C83.2583 262.232 83.1463 262.241 83.0623 262.241C82.9876 262.251 82.913 262.255 82.8383 262.255C82.605 262.255 82.4043 262.185 82.2363 262.045C82.0683 261.896 81.9796 261.714 81.9703 261.499L81.9423 260.645C81.625 261.187 81.1956 261.607 80.6543 261.905C80.1223 262.204 79.539 262.353 78.9043 262.353C78.139 262.353 77.5603 262.097 77.1683 261.583C76.7763 261.061 76.5803 260.295 76.5803 259.287ZM87.5645 262.353C86.9578 262.353 86.3885 262.255 85.8565 262.059C85.3245 261.854 84.8672 261.551 84.4845 261.149L84.9605 260.281C85.3805 260.673 85.8005 260.953 86.2205 261.121C86.6405 261.289 87.0698 261.373 87.5085 261.373C88.0125 261.373 88.4232 261.28 88.7405 261.093C89.0578 260.897 89.2165 260.613 89.2165 260.239C89.2165 259.969 89.1325 259.768 88.9645 259.637C88.8058 259.507 88.5772 259.399 88.2785 259.315C87.9798 259.222 87.6252 259.119 87.2145 259.007C86.7105 258.858 86.2858 258.699 85.9405 258.531C85.5952 258.363 85.3338 258.153 85.1565 257.901C84.9792 257.649 84.8905 257.332 84.8905 256.949C84.8905 256.483 85.0118 256.091 85.2545 255.773C85.4972 255.447 85.8285 255.199 86.2485 255.031C86.6778 254.863 87.1632 254.779 87.7045 254.779C88.2458 254.779 88.7358 254.863 89.1745 255.031C89.6132 255.199 89.9912 255.447 90.3085 255.773L89.7485 256.627C89.4592 256.329 89.1418 256.109 88.7965 255.969C88.4512 255.82 88.0638 255.745 87.6345 255.745C87.3825 255.745 87.1352 255.778 86.8925 255.843C86.6498 255.899 86.4492 256.007 86.2905 256.165C86.1318 256.315 86.0525 256.529 86.0525 256.809C86.0525 257.043 86.1132 257.229 86.2345 257.369C86.3652 257.5 86.5518 257.612 86.7945 257.705C87.0465 257.799 87.3498 257.901 87.7045 258.013C88.2552 258.172 88.7312 258.331 89.1325 258.489C89.5432 258.648 89.8605 258.853 90.0845 259.105C90.3085 259.357 90.4205 259.707 90.4205 260.155C90.4205 260.846 90.1592 261.387 89.6365 261.779C89.1138 262.162 88.4232 262.353 87.5645 262.353ZM102.912 262.213H101.68V258.125C101.68 257.36 101.554 256.795 101.302 256.431C101.06 256.067 100.696 255.885 100.21 255.885C99.7158 255.885 99.2678 256.067 98.8665 256.431C98.4651 256.786 98.1805 257.248 98.0125 257.817V262.213H96.7805V258.125C96.7805 257.351 96.6591 256.786 96.4165 256.431C96.1738 256.067 95.8098 255.885 95.3245 255.885C94.8391 255.885 94.3911 256.063 93.9805 256.417C93.5791 256.763 93.2945 257.225 93.1265 257.803V262.213H91.8945V254.905H93.0145V256.473C93.3131 255.932 93.7005 255.517 94.1765 255.227C94.6525 254.929 95.1891 254.779 95.7865 254.779C96.3931 254.779 96.8785 254.947 97.2425 255.283C97.6065 255.61 97.8305 256.035 97.9145 256.557C98.2411 255.979 98.6378 255.54 99.1045 255.241C99.5711 254.933 100.103 254.779 100.7 254.779C101.12 254.779 101.47 254.859 101.75 255.017C102.04 255.167 102.268 255.381 102.436 255.661C102.604 255.932 102.726 256.254 102.8 256.627C102.875 257.001 102.912 257.407 102.912 257.845V262.213ZM108.02 262.353C107.469 262.353 106.97 262.255 106.522 262.059C106.074 261.854 105.687 261.579 105.36 261.233C105.033 260.879 104.781 260.473 104.604 260.015C104.427 259.558 104.338 259.077 104.338 258.573C104.338 258.06 104.427 257.575 104.604 257.117C104.781 256.66 105.033 256.259 105.36 255.913C105.687 255.559 106.074 255.283 106.522 255.087C106.979 254.882 107.479 254.779 108.02 254.779C108.571 254.779 109.07 254.882 109.518 255.087C109.966 255.283 110.353 255.559 110.68 255.913C111.016 256.259 111.273 256.66 111.45 257.117C111.627 257.575 111.716 258.06 111.716 258.573C111.716 259.077 111.627 259.558 111.45 260.015C111.273 260.473 111.021 260.879 110.694 261.233C110.367 261.579 109.975 261.854 109.518 262.059C109.07 262.255 108.571 262.353 108.02 262.353ZM105.598 258.587C105.598 259.091 105.705 259.549 105.92 259.959C106.144 260.37 106.438 260.697 106.802 260.939C107.166 261.173 107.572 261.289 108.02 261.289C108.468 261.289 108.874 261.168 109.238 260.925C109.611 260.683 109.905 260.356 110.12 259.945C110.344 259.525 110.456 259.063 110.456 258.559C110.456 258.055 110.344 257.598 110.12 257.187C109.905 256.777 109.611 256.45 109.238 256.207C108.874 255.965 108.468 255.843 108.02 255.843C107.572 255.843 107.166 255.969 106.802 256.221C106.438 256.464 106.144 256.791 105.92 257.201C105.705 257.612 105.598 258.074 105.598 258.587ZM112.733 258.573C112.733 257.883 112.873 257.253 113.153 256.683C113.442 256.105 113.834 255.643 114.329 255.297C114.833 254.952 115.407 254.779 116.051 254.779C116.639 254.779 117.166 254.933 117.633 255.241C118.1 255.549 118.464 255.923 118.725 256.361V251.993H119.957V260.813C119.957 260.963 119.985 261.075 120.041 261.149C120.106 261.215 120.209 261.252 120.349 261.261V262.213C120.116 262.251 119.934 262.269 119.803 262.269C119.56 262.269 119.346 262.185 119.159 262.017C118.982 261.849 118.893 261.663 118.893 261.457V260.841C118.604 261.308 118.216 261.677 117.731 261.947C117.246 262.218 116.742 262.353 116.219 262.353C115.715 262.353 115.248 262.255 114.819 262.059C114.399 261.854 114.03 261.574 113.713 261.219C113.405 260.865 113.162 260.463 112.985 260.015C112.817 259.558 112.733 259.077 112.733 258.573ZM118.725 259.651V257.551C118.613 257.234 118.431 256.949 118.179 256.697C117.927 256.436 117.642 256.231 117.325 256.081C117.017 255.923 116.709 255.843 116.401 255.843C116.037 255.843 115.706 255.923 115.407 256.081C115.118 256.231 114.866 256.436 114.651 256.697C114.446 256.949 114.287 257.239 114.175 257.565C114.063 257.892 114.007 258.233 114.007 258.587C114.007 258.951 114.068 259.297 114.189 259.623C114.32 259.95 114.497 260.239 114.721 260.491C114.954 260.743 115.22 260.939 115.519 261.079C115.827 261.219 116.158 261.289 116.513 261.289C116.737 261.289 116.966 261.247 117.199 261.163C117.442 261.079 117.67 260.963 117.885 260.813C118.1 260.664 118.282 260.491 118.431 260.295C118.58 260.09 118.678 259.875 118.725 259.651ZM129.335 261.849C129.232 261.896 129.092 261.957 128.915 262.031C128.737 262.106 128.532 262.171 128.299 262.227C128.065 262.283 127.818 262.311 127.557 262.311C127.258 262.311 126.983 262.26 126.731 262.157C126.479 262.045 126.278 261.877 126.129 261.653C125.979 261.42 125.905 261.131 125.905 260.785V255.871H124.911V254.905H125.905V252.469H127.137V254.905H128.775V255.871H127.137V260.407C127.155 260.669 127.244 260.865 127.403 260.995C127.561 261.117 127.748 261.177 127.963 261.177C128.205 261.177 128.429 261.135 128.635 261.051C128.84 260.967 128.975 260.907 129.041 260.869L129.335 261.849ZM133.615 262.353C133.064 262.353 132.56 262.255 132.103 262.059C131.655 261.854 131.263 261.579 130.927 261.233C130.6 260.879 130.343 260.473 130.157 260.015C129.979 259.558 129.891 259.073 129.891 258.559C129.891 257.869 130.049 257.239 130.367 256.669C130.684 256.1 131.123 255.643 131.683 255.297C132.252 254.952 132.901 254.779 133.629 254.779C134.366 254.779 135.005 254.957 135.547 255.311C136.097 255.657 136.522 256.114 136.821 256.683C137.129 257.243 137.283 257.85 137.283 258.503C137.283 258.597 137.278 258.69 137.269 258.783C137.269 258.867 137.264 258.933 137.255 258.979H131.193C131.23 259.455 131.361 259.88 131.585 260.253C131.818 260.617 132.117 260.907 132.481 261.121C132.845 261.327 133.237 261.429 133.657 261.429C134.105 261.429 134.525 261.317 134.917 261.093C135.318 260.869 135.593 260.575 135.743 260.211L136.807 260.505C136.648 260.86 136.41 261.177 136.093 261.457C135.785 261.737 135.416 261.957 134.987 262.115C134.567 262.274 134.109 262.353 133.615 262.353ZM131.151 258.125H136.135C136.097 257.649 135.962 257.229 135.729 256.865C135.495 256.501 135.197 256.217 134.833 256.011C134.469 255.806 134.067 255.703 133.629 255.703C133.199 255.703 132.803 255.806 132.439 256.011C132.075 256.217 131.776 256.501 131.543 256.865C131.319 257.229 131.188 257.649 131.151 258.125ZM149.67 262.213H148.438V258.125C148.438 257.36 148.312 256.795 148.06 256.431C147.818 256.067 147.454 255.885 146.968 255.885C146.474 255.885 146.026 256.067 145.624 256.431C145.223 256.786 144.938 257.248 144.77 257.817V262.213H143.538V258.125C143.538 257.351 143.417 256.786 143.174 256.431C142.932 256.067 142.568 255.885 142.082 255.885C141.597 255.885 141.149 256.063 140.738 256.417C140.337 256.763 140.052 257.225 139.884 257.803V262.213H138.652V254.905H139.772V256.473C140.071 255.932 140.458 255.517 140.934 255.227C141.41 254.929 141.947 254.779 142.544 254.779C143.151 254.779 143.636 254.947 144 255.283C144.364 255.61 144.588 256.035 144.672 256.557C144.999 255.979 145.396 255.54 145.862 255.241C146.329 254.933 146.861 254.779 147.458 254.779C147.878 254.779 148.228 254.859 148.508 255.017C148.798 255.167 149.026 255.381 149.194 255.661C149.362 255.932 149.484 256.254 149.558 256.627C149.633 257.001 149.67 257.407 149.67 257.845V262.213ZM155.52 262.353C154.923 262.353 154.391 262.204 153.924 261.905C153.457 261.607 153.089 261.229 152.818 260.771V265.195H151.586V254.905H152.678V256.277C152.967 255.829 153.345 255.47 153.812 255.199C154.279 254.919 154.787 254.779 155.338 254.779C155.842 254.779 156.304 254.882 156.724 255.087C157.144 255.293 157.508 255.573 157.816 255.927C158.124 256.282 158.362 256.688 158.53 257.145C158.707 257.593 158.796 258.065 158.796 258.559C158.796 259.25 158.656 259.885 158.376 260.463C158.105 261.042 157.723 261.504 157.228 261.849C156.733 262.185 156.164 262.353 155.52 262.353ZM155.142 261.289C155.506 261.289 155.833 261.215 156.122 261.065C156.421 260.907 156.673 260.701 156.878 260.449C157.093 260.188 157.256 259.894 157.368 259.567C157.48 259.241 157.536 258.905 157.536 258.559C157.536 258.195 157.471 257.85 157.34 257.523C157.219 257.197 157.041 256.907 156.808 256.655C156.584 256.403 156.318 256.207 156.01 256.067C155.711 255.918 155.385 255.843 155.03 255.843C154.806 255.843 154.573 255.885 154.33 255.969C154.097 256.053 153.873 256.175 153.658 256.333C153.443 256.483 153.261 256.655 153.112 256.851C152.963 257.047 152.865 257.257 152.818 257.481V259.567C152.958 259.885 153.145 260.174 153.378 260.435C153.611 260.697 153.882 260.907 154.19 261.065C154.498 261.215 154.815 261.289 155.142 261.289ZM163.501 262.353C162.95 262.353 162.451 262.255 162.003 262.059C161.555 261.854 161.167 261.579 160.841 261.233C160.514 260.879 160.262 260.473 160.085 260.015C159.907 259.558 159.819 259.077 159.819 258.573C159.819 258.06 159.907 257.575 160.085 257.117C160.262 256.66 160.514 256.259 160.841 255.913C161.167 255.559 161.555 255.283 162.003 255.087C162.46 254.882 162.959 254.779 163.501 254.779C164.051 254.779 164.551 254.882 164.999 255.087C165.447 255.283 165.834 255.559 166.161 255.913C166.497 256.259 166.753 256.66 166.931 257.117C167.108 257.575 167.197 258.06 167.197 258.573C167.197 259.077 167.108 259.558 166.931 260.015C166.753 260.473 166.501 260.879 166.175 261.233C165.848 261.579 165.456 261.854 164.999 262.059C164.551 262.255 164.051 262.353 163.501 262.353ZM161.079 258.587C161.079 259.091 161.186 259.549 161.401 259.959C161.625 260.37 161.919 260.697 162.283 260.939C162.647 261.173 163.053 261.289 163.501 261.289C163.949 261.289 164.355 261.168 164.719 260.925C165.092 260.683 165.386 260.356 165.601 259.945C165.825 259.525 165.937 259.063 165.937 258.559C165.937 258.055 165.825 257.598 165.601 257.187C165.386 256.777 165.092 256.45 164.719 256.207C164.355 255.965 163.949 255.843 163.501 255.843C163.053 255.843 162.647 255.969 162.283 256.221C161.919 256.464 161.625 256.791 161.401 257.201C161.186 257.612 161.079 258.074 161.079 258.587ZM172.553 255.983C171.937 255.993 171.391 256.151 170.915 256.459C170.449 256.758 170.117 257.173 169.921 257.705V262.213H168.689V254.905H169.837V256.599C170.089 256.095 170.421 255.689 170.831 255.381C171.251 255.064 171.69 254.887 172.147 254.849C172.241 254.849 172.32 254.849 172.385 254.849C172.451 254.849 172.507 254.854 172.553 254.863V255.983ZM172.187 262.213V260.645H173.223V262.213H172.187ZM175.017 262.213V260.645H176.053V262.213H175.017ZM177.847 262.213V260.645H178.883V262.213H177.847Z" fill="#777777"/>
<path d="M47.2117 304.243L47.0857 301.471L53.6917 294.613H56.3197L50.8297 300.445L49.5337 301.867L47.2117 304.243ZM45.1237 307.213V294.613H47.4637V307.213H45.1237ZM53.9077 307.213L49.0837 301.471L50.6317 299.761L56.6437 307.213H53.9077ZM63.3168 297.493C64.0848 297.493 64.7688 297.643 65.3688 297.943C65.9808 298.243 66.4608 298.705 66.8088 299.329C67.1568 299.941 67.3308 300.733 67.3308 301.705V307.213H65.0808V301.993C65.0808 301.141 64.8768 300.505 64.4688 300.085C64.0728 299.665 63.5148 299.455 62.7948 299.455C62.2668 299.455 61.7988 299.563 61.3908 299.779C60.9828 299.995 60.6648 300.319 60.4368 300.751C60.2208 301.171 60.1128 301.705 60.1128 302.353V307.213H57.8628V297.601H60.0048V300.193L59.6268 299.401C59.9628 298.789 60.4488 298.321 61.0848 297.997C61.7328 297.661 62.4768 297.493 63.3168 297.493ZM74.5226 307.339C73.5386 307.339 72.6626 307.129 71.8946 306.709C71.1266 306.277 70.5206 305.689 70.0766 304.945C69.6326 304.201 69.4106 303.355 69.4106 302.407C69.4106 301.447 69.6326 300.601 70.0766 299.869C70.5206 299.125 71.1266 298.543 71.8946 298.123C72.6626 297.703 73.5386 297.493 74.5226 297.493C75.5186 297.493 76.4006 297.703 77.1686 298.123C77.9486 298.543 78.5546 299.119 78.9866 299.851C79.4306 300.583 79.6526 301.435 79.6526 302.407C79.6526 303.355 79.4306 304.201 78.9866 304.945C78.5546 305.689 77.9486 306.277 77.1686 306.709C76.4006 307.129 75.5186 307.339 74.5226 307.339ZM74.5226 305.413C75.0746 305.413 75.5666 305.293 75.9986 305.053C76.4306 304.813 76.7666 304.465 77.0066 304.009C77.2586 303.553 77.3846 303.019 77.3846 302.407C77.3846 301.783 77.2586 301.249 77.0066 300.805C76.7666 300.349 76.4306 300.001 75.9986 299.761C75.5666 299.521 75.0806 299.401 74.5406 299.401C73.9886 299.401 73.4966 299.521 73.0646 299.761C72.6446 300.001 72.3086 300.349 72.0566 300.805C71.8046 301.249 71.6786 301.783 71.6786 302.407C71.6786 303.019 71.8046 303.553 72.0566 304.009C72.3086 304.465 72.6446 304.813 73.0646 305.053C73.4966 305.293 73.9826 305.413 74.5226 305.413ZM83.6645 307.213L80.1365 297.601H82.2605L85.2845 306.079H84.2765L87.4445 297.601H89.3345L92.4125 306.079H91.4225L94.5365 297.601H96.5345L92.9885 307.213H90.8285L88.0205 299.707H88.6865L85.8245 307.213H83.6645ZM103.272 307.213V294.613H105.198L110.706 303.811H109.698L115.116 294.613H117.042L117.06 307.213H114.846L114.828 298.087H115.296L110.688 305.773H109.644L104.964 298.087H105.504V307.213H103.272ZM124.568 307.339C123.584 307.339 122.708 307.129 121.94 306.709C121.172 306.277 120.566 305.689 120.122 304.945C119.678 304.201 119.456 303.355 119.456 302.407C119.456 301.447 119.678 300.601 120.122 299.869C120.566 299.125 121.172 298.543 121.94 298.123C122.708 297.703 123.584 297.493 124.568 297.493C125.564 297.493 126.446 297.703 127.214 298.123C127.994 298.543 128.6 299.119 129.032 299.851C129.476 300.583 129.698 301.435 129.698 302.407C129.698 303.355 129.476 304.201 129.032 304.945C128.6 305.689 127.994 306.277 127.214 306.709C126.446 307.129 125.564 307.339 124.568 307.339ZM124.568 305.413C125.12 305.413 125.612 305.293 126.044 305.053C126.476 304.813 126.812 304.465 127.052 304.009C127.304 303.553 127.43 303.019 127.43 302.407C127.43 301.783 127.304 301.249 127.052 300.805C126.812 300.349 126.476 300.001 126.044 299.761C125.612 299.521 125.126 299.401 124.586 299.401C124.034 299.401 123.542 299.521 123.11 299.761C122.69 300.001 122.354 300.349 122.102 300.805C121.85 301.249 121.724 301.783 121.724 302.407C121.724 303.019 121.85 303.553 122.102 304.009C122.354 304.465 122.69 304.813 123.11 305.053C123.542 305.293 124.028 305.413 124.568 305.413ZM131.849 307.213V297.601H133.991V300.247L133.739 299.473C134.027 298.825 134.477 298.333 135.089 297.997C135.713 297.661 136.487 297.493 137.411 297.493V299.635C137.315 299.611 137.225 299.599 137.141 299.599C137.057 299.587 136.973 299.581 136.889 299.581C136.037 299.581 135.359 299.833 134.855 300.337C134.351 300.829 134.099 301.567 134.099 302.551V307.213H131.849ZM143.75 307.339C142.682 307.339 141.746 307.129 140.942 306.709C140.15 306.277 139.532 305.689 139.088 304.945C138.656 304.201 138.44 303.355 138.44 302.407C138.44 301.447 138.65 300.601 139.07 299.869C139.502 299.125 140.09 298.543 140.834 298.123C141.59 297.703 142.448 297.493 143.408 297.493C144.344 297.493 145.178 297.697 145.91 298.105C146.642 298.513 147.218 299.089 147.638 299.833C148.058 300.577 148.268 301.453 148.268 302.461C148.268 302.557 148.262 302.665 148.25 302.785C148.25 302.905 148.244 303.019 148.232 303.127H140.222V301.633H147.044L146.162 302.101C146.174 301.549 146.06 301.063 145.82 300.643C145.58 300.223 145.25 299.893 144.83 299.653C144.422 299.413 143.948 299.293 143.408 299.293C142.856 299.293 142.37 299.413 141.95 299.653C141.542 299.893 141.218 300.229 140.978 300.661C140.75 301.081 140.636 301.579 140.636 302.155V302.515C140.636 303.091 140.768 303.601 141.032 304.045C141.296 304.489 141.668 304.831 142.148 305.071C142.628 305.311 143.18 305.431 143.804 305.431C144.344 305.431 144.83 305.347 145.262 305.179C145.694 305.011 146.078 304.747 146.414 304.387L147.62 305.773C147.188 306.277 146.642 306.667 145.982 306.943C145.334 307.207 144.59 307.339 143.75 307.339Z" fill="#4A60A1"/>
<path d="M164.822 294.763C164.551 295.029 164.526 295.451 164.748 295.746L164.814 295.823L169.39 300.464L157.682 300.464C157.267 300.464 156.932 300.799 156.932 301.214C156.932 301.596 157.218 301.911 157.588 301.958L157.682 301.964H169.39L164.814 306.604C164.548 306.874 164.528 307.296 164.754 307.588L164.822 307.664C165.092 307.931 165.514 307.95 165.806 307.724L165.882 307.657L171.716 301.74C171.98 301.472 172.002 301.056 171.782 300.763L171.716 300.687L165.882 294.77C165.592 294.475 165.117 294.472 164.822 294.763Z" fill="#00B377"/>
<path d="M61.5478 129.193L57.8095 125.465V118.972H55.7556V110.78H61.9175V118.972H59.8635V124.625L63.3964 128.148C64.8712 127.497 66.4666 127.162 68.0794 127.165C68.7683 127.165 69.4557 127.226 70.1334 127.35V118.788C69.4482 118.547 68.8707 118.071 68.5029 117.446C68.1352 116.821 68.0009 116.086 68.1238 115.372C68.2467 114.658 68.6189 114.01 69.1745 113.543C69.7302 113.076 70.4336 112.819 71.1604 112.819C71.8872 112.819 72.5906 113.076 73.1462 113.543C73.7019 114.01 74.0741 114.658 74.197 115.372C74.3199 116.086 74.1856 116.821 73.8179 117.446C73.4501 118.071 72.8726 118.547 72.1874 118.788V127.923C74.0212 128.606 75.643 129.758 76.891 131.262H82.6421C82.8844 130.578 83.3611 130.002 83.988 129.636C84.6149 129.269 85.3516 129.135 86.0679 129.258C86.7842 129.38 87.434 129.751 87.9025 130.305C88.3709 130.86 88.6279 131.561 88.6279 132.286C88.6279 133.01 88.3709 133.712 87.9025 134.266C87.434 134.82 86.7842 135.191 86.0679 135.314C85.3516 135.436 84.6149 135.302 83.988 134.936C83.3611 134.569 82.8844 133.993 82.6421 133.31H78.2877C78.8148 134.292 79.1888 135.349 79.3969 136.443C81.378 136.588 83.226 137.492 84.5529 138.966C85.8798 140.441 86.5824 142.37 86.5133 144.35C86.4442 146.329 85.6088 148.205 84.1823 149.584C82.7558 150.962 80.8493 151.736 78.8628 151.743H58.8365C56.8474 151.744 54.9113 151.104 53.3158 149.92C51.7204 148.735 50.5508 147.069 49.9809 145.169C49.4111 143.268 49.4713 141.235 50.1528 139.372C50.8342 137.508 52.1004 135.914 53.7632 134.825L49.8812 130.954C49.2177 131.273 48.4627 131.346 47.7498 131.163C47.037 130.979 46.4123 130.55 45.9864 129.951C45.5605 129.352 45.3608 128.622 45.4228 127.891C45.4848 127.159 45.8044 126.473 46.325 125.954C46.8456 125.435 47.5336 125.116 48.2673 125.054C49.0009 124.993 49.7328 125.192 50.3333 125.616C50.9339 126.041 51.3644 126.664 51.5485 127.375C51.7327 128.086 51.6586 128.839 51.3395 129.5L55.7145 133.863C56.3974 133.615 57.1077 133.45 57.8301 133.371C58.7024 131.692 59.98 130.256 61.5478 129.193Z" fill="#0B1C98"/>
<defs>
<filter id="filter0_d_773_491" x="0.431702" y="0.213379" width="290" height="377.979" filterUnits="userSpaceOnUse" color-interpolation-filters="sRGB">
<feFlood flood-opacity="0" result="BackgroundImageFix"/>
<feColorMatrix in="SourceAlpha" type="matrix" values="0 0 0 0 0 0 0 0 0 0 0 0 0 0 0 0 0 0 127 0" result="hardAlpha"/>
<feOffset/>
<feGaussianBlur stdDeviation="10"/>
<feComposite in2="hardAlpha" operator="out"/>
<feColorMatrix type="matrix" values="0 0 0 0 0.768627 0 0 0 0 0.768627 0 0 0 0 0.768627 0 0 0 0.15 0"/>
<feBlend mode="normal" in2="BackgroundImageFix" result="effect1_dropShadow_773_491"/>
<feBlend mode="normal" in="SourceGraphic" in2="effect1_dropShadow_773_491" result="shape"/>
</filter>
</defs>
</svg>
