<svg width="106" height="109" viewBox="0 0 106 109" fill="none" xmlns="http://www.w3.org/2000/svg">
<rect x="0.380127" y="108.31" width="107.901" height="105.462" rx="23" transform="rotate(-90 0.380127 108.31)" fill="#0B1C98"/>
<path d="M71.4202 76.8809C73.704 76.8809 75.3693 74.8778 74.8269 72.8076C72.8693 65.3484 65.6491 59.8093 57.0433 59.8093C48.4376 59.8093 41.2131 65.3484 39.2598 72.8115C38.7174 74.8818 40.3826 76.8809 42.6665 76.8809H71.4202Z" stroke="white" stroke-width="2.5" stroke-miterlimit="10"/>
<path d="M57.0433 56.0798C62.5215 56.0798 66.9626 51.939 66.9626 46.8309C66.9626 41.7229 62.5215 37.582 57.0433 37.582C51.565 37.582 47.124 41.7229 47.124 46.8309C47.124 51.939 51.565 56.0798 57.0433 56.0798Z" stroke="white" stroke-width="2.5" stroke-miterlimit="10"/>
<path d="M36.0436 71.508C37.6792 65.2736 41.891 60.3785 49.2849 58.1028C40.9546 58.3635 33.3064 63.3218 31.3954 70.6032C30.853 72.6735 32.5183 74.6726 34.8021 74.6726H36.658C36.014 73.7876 35.7428 72.6577 36.0436 71.508Z" fill="#907EFF"/>
<path d="M44.1536 44.9902C44.1536 39.2694 49.1281 34.6311 55.2636 34.6311C57.433 34.6311 59.4584 35.2119 61.166 36.2154C59.2804 33.5802 56.0601 31.8379 52.4034 31.8379C46.5985 31.8379 41.8909 36.2273 41.8909 41.6439C41.8909 44.2475 42.9841 46.614 44.7595 48.3721C44.3697 47.3094 44.1536 46.1755 44.1536 44.9902Z" fill="#907EFF"/>
</svg>
