<svg width="291" height="378" viewBox="0 0 291 378" fill="none" xmlns="http://www.w3.org/2000/svg">
<g filter="url(#filter0_d_773_470)">
<rect x="20.7559" y="20.0083" width="250" height="337.979" rx="12" fill="white"/>
<rect x="21.2559" y="20.5083" width="249" height="336.979" rx="11.5" stroke="black"/>
</g>
<path d="M46.6559 192.008C46.2159 192.008 45.8759 191.895 45.6359 191.668C45.4092 191.428 45.2959 191.088 45.2959 190.648V179.268C45.2959 178.828 45.4092 178.495 45.6359 178.268C45.8759 178.028 46.2159 177.908 46.6559 177.908H53.7959C54.1292 177.908 54.3825 177.995 54.5559 178.168C54.7425 178.342 54.8359 178.588 54.8359 178.908C54.8359 179.242 54.7425 179.502 54.5559 179.688C54.3825 179.862 54.1292 179.948 53.7959 179.948H47.7559V183.828H53.3559C53.7025 183.828 53.9625 183.915 54.1359 184.088C54.3092 184.262 54.3959 184.515 54.3959 184.848C54.3959 185.182 54.3092 185.435 54.1359 185.608C53.9625 185.782 53.7025 185.868 53.3559 185.868H47.7559V189.968H53.7959C54.1292 189.968 54.3825 190.055 54.5559 190.228C54.7425 190.402 54.8359 190.655 54.8359 190.988C54.8359 191.322 54.7425 191.575 54.5559 191.748C54.3825 191.922 54.1292 192.008 53.7959 192.008H46.6559ZM60.6909 192.208C59.8375 192.208 59.0842 192.002 58.4309 191.588C57.7909 191.175 57.2909 190.588 56.9309 189.828C56.5709 189.055 56.3909 188.148 56.3909 187.108C56.3909 186.055 56.5709 185.155 56.9309 184.408C57.2909 183.648 57.7909 183.062 58.4309 182.648C59.0842 182.235 59.8375 182.028 60.6909 182.028C61.5042 182.028 62.2109 182.228 62.8109 182.628C63.4242 183.028 63.8375 183.555 64.0509 184.208H63.8309V179.008C63.8309 178.595 63.9375 178.282 64.1509 178.068C64.3642 177.855 64.6709 177.748 65.0709 177.748C65.4709 177.748 65.7775 177.855 65.9909 178.068C66.2175 178.282 66.3309 178.595 66.3309 179.008V190.888C66.3309 191.302 66.2242 191.622 66.0109 191.848C65.7975 192.062 65.4909 192.168 65.0909 192.168C64.6909 192.168 64.3842 192.062 64.1709 191.848C63.9575 191.622 63.8509 191.302 63.8509 190.888V189.328L64.0709 189.928C63.8709 190.622 63.4642 191.175 62.8509 191.588C62.2375 192.002 61.5175 192.208 60.6909 192.208ZM61.3909 190.308C61.8842 190.308 62.3175 190.188 62.6909 189.948C63.0642 189.708 63.3509 189.355 63.5509 188.888C63.7642 188.408 63.8709 187.815 63.8709 187.108C63.8709 186.042 63.6442 185.248 63.1909 184.728C62.7375 184.195 62.1375 183.928 61.3909 183.928C60.8975 183.928 60.4642 184.048 60.0909 184.288C59.7175 184.515 59.4242 184.868 59.2109 185.348C59.0109 185.815 58.9109 186.402 58.9109 187.108C58.9109 188.162 59.1375 188.962 59.5909 189.508C60.0442 190.042 60.6442 190.308 61.3909 190.308ZM72.463 192.208C71.6497 192.208 70.9764 192.062 70.443 191.768C69.9097 191.462 69.5097 191.008 69.243 190.408C68.9897 189.808 68.863 189.062 68.863 188.168V183.328C68.863 182.902 68.9697 182.588 69.183 182.388C69.3964 182.175 69.703 182.068 70.103 182.068C70.503 182.068 70.8097 182.175 71.023 182.388C71.2497 182.588 71.363 182.902 71.363 183.328V188.208C71.363 188.902 71.503 189.415 71.783 189.748C72.063 190.082 72.5097 190.248 73.123 190.248C73.7897 190.248 74.3364 190.022 74.763 189.568C75.1897 189.102 75.403 188.488 75.403 187.728V183.328C75.403 182.902 75.5097 182.588 75.723 182.388C75.9364 182.175 76.243 182.068 76.643 182.068C77.043 182.068 77.3497 182.175 77.563 182.388C77.7897 182.588 77.903 182.902 77.903 183.328V190.888C77.903 191.742 77.4964 192.168 76.683 192.168C76.2964 192.168 75.9964 192.062 75.783 191.848C75.5697 191.622 75.463 191.302 75.463 190.888V189.368L75.743 189.968C75.463 190.688 75.0364 191.242 74.463 191.628C73.903 192.015 73.2364 192.208 72.463 192.208ZM85.0251 192.208C83.9984 192.208 83.1051 192.002 82.3451 191.588C81.5851 191.162 80.9984 190.562 80.5851 189.788C80.1717 189.015 79.9651 188.108 79.9651 187.068C79.9651 186.282 80.0784 185.582 80.3051 184.968C80.5451 184.342 80.8851 183.815 81.3251 183.388C81.7651 182.948 82.2984 182.615 82.9251 182.388C83.5517 182.148 84.2517 182.028 85.0251 182.028C85.4651 182.028 85.9384 182.088 86.4451 182.208C86.9651 182.328 87.4517 182.528 87.9051 182.808C88.1184 182.942 88.2584 183.102 88.3251 183.288C88.3917 183.475 88.4051 183.668 88.3651 183.868C88.3251 184.055 88.2384 184.222 88.1051 184.368C87.9851 184.502 87.8317 184.588 87.6451 184.628C87.4584 184.655 87.2517 184.608 87.0251 184.488C86.7317 184.315 86.4317 184.188 86.1251 184.108C85.8184 184.015 85.5251 183.968 85.2451 183.968C84.8051 183.968 84.4184 184.042 84.0851 184.188C83.7517 184.322 83.4651 184.522 83.2251 184.788C82.9984 185.042 82.8251 185.362 82.7051 185.748C82.5851 186.135 82.5251 186.582 82.5251 187.088C82.5251 188.075 82.7584 188.855 83.2251 189.428C83.7051 189.988 84.3784 190.268 85.2451 190.268C85.5251 190.268 85.8117 190.228 86.1051 190.148C86.4117 190.068 86.7184 189.942 87.0251 189.768C87.2517 189.648 87.4517 189.608 87.6251 189.648C87.8117 189.688 87.9651 189.782 88.0851 189.928C88.2051 190.062 88.2784 190.228 88.3051 190.428C88.3317 190.615 88.3051 190.802 88.2251 190.988C88.1584 191.175 88.0251 191.328 87.8251 191.448C87.3851 191.715 86.9184 191.908 86.4251 192.028C85.9317 192.148 85.4651 192.208 85.0251 192.208ZM93.1001 192.208C92.3934 192.208 91.7601 192.075 91.2001 191.808C90.6534 191.528 90.2201 191.155 89.9001 190.688C89.5934 190.222 89.4401 189.695 89.4401 189.108C89.4401 188.388 89.6267 187.822 90.0001 187.408C90.3734 186.982 90.9801 186.675 91.8201 186.488C92.6601 186.302 93.7867 186.208 95.2001 186.208H96.2001V187.648H95.2201C94.3934 187.648 93.7334 187.688 93.2401 187.768C92.7467 187.848 92.3934 187.988 92.1801 188.188C91.9801 188.375 91.8801 188.642 91.8801 188.988C91.8801 189.428 92.0334 189.788 92.3401 190.068C92.6467 190.348 93.0734 190.488 93.6201 190.488C94.0601 190.488 94.4467 190.388 94.7801 190.188C95.1267 189.975 95.4001 189.688 95.6001 189.328C95.8001 188.968 95.9001 188.555 95.9001 188.088V185.788C95.9001 185.122 95.7534 184.642 95.4601 184.348C95.1667 184.055 94.6734 183.908 93.9801 183.908C93.5934 183.908 93.1734 183.955 92.7201 184.048C92.2801 184.142 91.8134 184.302 91.3201 184.528C91.0667 184.648 90.8401 184.682 90.6401 184.628C90.4534 184.575 90.3067 184.468 90.2001 184.308C90.0934 184.135 90.0401 183.948 90.0401 183.748C90.0401 183.548 90.0934 183.355 90.2001 183.168C90.3067 182.968 90.4867 182.822 90.7401 182.728C91.3534 182.475 91.9401 182.295 92.5001 182.188C93.0734 182.082 93.5934 182.028 94.0601 182.028C95.0201 182.028 95.8067 182.175 96.4201 182.468C97.0467 182.762 97.5134 183.208 97.8201 183.808C98.1267 184.395 98.2801 185.155 98.2801 186.088V190.888C98.2801 191.302 98.1801 191.622 97.9801 191.848C97.7801 192.062 97.4934 192.168 97.1201 192.168C96.7467 192.168 96.4534 192.062 96.2401 191.848C96.0401 191.622 95.9401 191.302 95.9401 190.888V189.928H96.1001C96.0067 190.395 95.8201 190.802 95.5401 191.148C95.2734 191.482 94.9334 191.742 94.5201 191.928C94.1067 192.115 93.6334 192.208 93.1001 192.208ZM105.298 192.208C104.431 192.208 103.704 192.062 103.118 191.768C102.544 191.475 102.118 191.048 101.838 190.488C101.558 189.915 101.418 189.208 101.418 188.368V184.108H100.378C100.058 184.108 99.8109 184.028 99.6376 183.868C99.4642 183.695 99.3776 183.462 99.3776 183.168C99.3776 182.862 99.4642 182.628 99.6376 182.468C99.8109 182.308 100.058 182.228 100.378 182.228H101.418V180.408C101.418 179.995 101.524 179.682 101.738 179.468C101.964 179.255 102.278 179.148 102.678 179.148C103.078 179.148 103.384 179.255 103.598 179.468C103.811 179.682 103.918 179.995 103.918 180.408V182.228H106.038C106.358 182.228 106.604 182.308 106.778 182.468C106.951 182.628 107.038 182.862 107.038 183.168C107.038 183.462 106.951 183.695 106.778 183.868C106.604 184.028 106.358 184.108 106.038 184.108H103.918V188.228C103.918 188.868 104.058 189.348 104.338 189.668C104.618 189.988 105.071 190.148 105.698 190.148C105.924 190.148 106.124 190.128 106.298 190.088C106.471 190.048 106.624 190.022 106.758 190.008C106.918 189.995 107.051 190.048 107.158 190.168C107.264 190.275 107.318 190.502 107.318 190.848C107.318 191.115 107.271 191.355 107.178 191.568C107.098 191.768 106.944 191.908 106.718 191.988C106.544 192.042 106.318 192.088 106.038 192.128C105.758 192.182 105.511 192.208 105.298 192.208ZM109.987 192.148C109.587 192.148 109.281 192.028 109.067 191.788C108.854 191.548 108.747 191.215 108.747 190.788V183.448C108.747 183.008 108.854 182.675 109.067 182.448C109.281 182.208 109.587 182.088 109.987 182.088C110.387 182.088 110.694 182.208 110.907 182.448C111.134 182.675 111.247 183.008 111.247 183.448V190.788C111.247 191.215 111.141 191.548 110.927 191.788C110.714 192.028 110.401 192.148 109.987 192.148ZM109.987 180.228C109.521 180.228 109.154 180.115 108.887 179.888C108.634 179.648 108.507 179.322 108.507 178.908C108.507 178.482 108.634 178.155 108.887 177.928C109.154 177.702 109.521 177.588 109.987 177.588C110.467 177.588 110.834 177.702 111.087 177.928C111.341 178.155 111.467 178.482 111.467 178.908C111.467 179.322 111.341 179.648 111.087 179.888C110.834 180.115 110.467 180.228 109.987 180.228ZM118.305 192.208C117.292 192.208 116.412 192.002 115.665 191.588C114.918 191.175 114.338 190.588 113.925 189.828C113.512 189.055 113.305 188.148 113.305 187.108C113.305 186.322 113.418 185.622 113.645 185.008C113.885 184.382 114.225 183.848 114.665 183.408C115.105 182.955 115.632 182.615 116.245 182.388C116.858 182.148 117.545 182.028 118.305 182.028C119.318 182.028 120.198 182.235 120.945 182.648C121.692 183.062 122.272 183.648 122.685 184.408C123.098 185.168 123.305 186.068 123.305 187.108C123.305 187.895 123.185 188.602 122.945 189.228C122.718 189.855 122.385 190.395 121.945 190.848C121.505 191.288 120.978 191.628 120.365 191.868C119.752 192.095 119.065 192.208 118.305 192.208ZM118.305 190.308C118.798 190.308 119.232 190.188 119.605 189.948C119.978 189.708 120.265 189.355 120.465 188.888C120.678 188.408 120.785 187.815 120.785 187.108C120.785 186.042 120.558 185.248 120.105 184.728C119.652 184.195 119.052 183.928 118.305 183.928C117.812 183.928 117.378 184.048 117.005 184.288C116.632 184.515 116.338 184.868 116.125 185.348C115.925 185.815 115.825 186.402 115.825 187.108C115.825 188.162 116.052 188.962 116.505 189.508C116.958 190.042 117.558 190.308 118.305 190.308ZM126.608 192.168C126.208 192.168 125.902 192.062 125.688 191.848C125.475 191.622 125.368 191.302 125.368 190.888V183.328C125.368 182.915 125.475 182.602 125.688 182.388C125.902 182.175 126.202 182.068 126.588 182.068C126.975 182.068 127.275 182.175 127.488 182.388C127.702 182.602 127.808 182.915 127.808 183.328V184.688L127.588 184.188C127.882 183.482 128.335 182.948 128.948 182.588C129.575 182.215 130.282 182.028 131.068 182.028C131.855 182.028 132.502 182.175 133.008 182.468C133.515 182.762 133.895 183.208 134.148 183.808C134.402 184.395 134.528 185.142 134.528 186.048V190.888C134.528 191.302 134.422 191.622 134.208 191.848C133.995 192.062 133.688 192.168 133.288 192.168C132.888 192.168 132.575 192.062 132.348 191.848C132.135 191.622 132.028 191.302 132.028 190.888V186.168C132.028 185.408 131.882 184.855 131.588 184.508C131.308 184.162 130.868 183.988 130.268 183.988C129.535 183.988 128.948 184.222 128.508 184.688C128.082 185.142 127.868 185.748 127.868 186.508V190.888C127.868 191.742 127.448 192.168 126.608 192.168Z" fill="#212D4D"/>
<path d="M44.9459 220.008V210.068H46.2059V218.888H51.7499V220.008H44.9459ZM56.0083 220.148C55.4576 220.148 54.9583 220.05 54.5103 219.854C54.0623 219.649 53.6749 219.374 53.3483 219.028C53.0216 218.674 52.7696 218.268 52.5923 217.81C52.4149 217.353 52.3263 216.872 52.3263 216.368C52.3263 215.855 52.4149 215.37 52.5923 214.912C52.7696 214.455 53.0216 214.054 53.3483 213.708C53.6749 213.354 54.0623 213.078 54.5103 212.882C54.9676 212.677 55.4669 212.574 56.0083 212.574C56.5589 212.574 57.0583 212.677 57.5063 212.882C57.9543 213.078 58.3416 213.354 58.6683 213.708C59.0043 214.054 59.2609 214.455 59.4383 214.912C59.6156 215.37 59.7043 215.855 59.7043 216.368C59.7043 216.872 59.6156 217.353 59.4383 217.81C59.2609 218.268 59.0089 218.674 58.6823 219.028C58.3556 219.374 57.9636 219.649 57.5063 219.854C57.0583 220.05 56.5589 220.148 56.0083 220.148ZM53.5863 216.382C53.5863 216.886 53.6936 217.344 53.9083 217.754C54.1323 218.165 54.4263 218.492 54.7903 218.734C55.1543 218.968 55.5603 219.084 56.0083 219.084C56.4563 219.084 56.8623 218.963 57.2263 218.72C57.5996 218.478 57.8936 218.151 58.1083 217.74C58.3323 217.32 58.4443 216.858 58.4443 216.354C58.4443 215.85 58.3323 215.393 58.1083 214.982C57.8936 214.572 57.5996 214.245 57.2263 214.002C56.8623 213.76 56.4563 213.638 56.0083 213.638C55.5603 213.638 55.1543 213.764 54.7903 214.016C54.4263 214.259 54.1323 214.586 53.9083 214.996C53.6936 215.407 53.5863 215.869 53.5863 216.382ZM65.0611 213.778C64.4451 213.788 63.8991 213.946 63.4231 214.254C62.9565 214.553 62.6251 214.968 62.4291 215.5V220.008H61.1971V212.7H62.3451V214.394C62.5971 213.89 62.9285 213.484 63.3391 213.176C63.7591 212.859 64.1978 212.682 64.6551 212.644C64.7485 212.644 64.8278 212.644 64.8931 212.644C64.9585 212.644 65.0145 212.649 65.0611 212.658V213.778ZM69.3393 220.148C68.7887 220.148 68.2847 220.05 67.8273 219.854C67.3793 219.649 66.9873 219.374 66.6513 219.028C66.3247 218.674 66.068 218.268 65.8813 217.81C65.704 217.353 65.6153 216.868 65.6153 216.354C65.6153 215.664 65.774 215.034 66.0913 214.464C66.4087 213.895 66.8473 213.438 67.4073 213.092C67.9767 212.747 68.6253 212.574 69.3533 212.574C70.0907 212.574 70.73 212.752 71.2713 213.106C71.822 213.452 72.2467 213.909 72.5453 214.478C72.8533 215.038 73.0073 215.645 73.0073 216.298C73.0073 216.392 73.0027 216.485 72.9933 216.578C72.9933 216.662 72.9887 216.728 72.9793 216.774H66.9173C66.9547 217.25 67.0853 217.675 67.3093 218.048C67.5427 218.412 67.8413 218.702 68.2053 218.916C68.5693 219.122 68.9613 219.224 69.3813 219.224C69.8293 219.224 70.2493 219.112 70.6413 218.888C71.0427 218.664 71.318 218.37 71.4673 218.006L72.5313 218.3C72.3727 218.655 72.1347 218.972 71.8173 219.252C71.5093 219.532 71.1407 219.752 70.7113 219.91C70.2913 220.069 69.834 220.148 69.3393 220.148ZM66.8753 215.92H71.8593C71.822 215.444 71.6867 215.024 71.4533 214.66C71.22 214.296 70.9213 214.012 70.5573 213.806C70.1933 213.601 69.792 213.498 69.3533 213.498C68.924 213.498 68.5273 213.601 68.1633 213.806C67.7993 214.012 67.5007 214.296 67.2673 214.66C67.0433 215.024 66.9127 215.444 66.8753 215.92ZM85.3948 220.008H84.1628V215.92C84.1628 215.155 84.0368 214.59 83.7848 214.226C83.5421 213.862 83.1781 213.68 82.6928 213.68C82.1981 213.68 81.7501 213.862 81.3488 214.226C80.9475 214.581 80.6628 215.043 80.4948 215.612V220.008H79.2628V215.92C79.2628 215.146 79.1415 214.581 78.8988 214.226C78.6561 213.862 78.2921 213.68 77.8068 213.68C77.3215 213.68 76.8735 213.858 76.4628 214.212C76.0615 214.558 75.7768 215.02 75.6088 215.598V220.008H74.3768V212.7H75.4968V214.268C75.7955 213.727 76.1828 213.312 76.6588 213.022C77.1348 212.724 77.6715 212.574 78.2688 212.574C78.8755 212.574 79.3608 212.742 79.7248 213.078C80.0888 213.405 80.3128 213.83 80.3968 214.352C80.7235 213.774 81.1201 213.335 81.5868 213.036C82.0535 212.728 82.5855 212.574 83.1828 212.574C83.6028 212.574 83.9528 212.654 84.2328 212.812C84.5221 212.962 84.7508 213.176 84.9188 213.456C85.0868 213.727 85.2081 214.049 85.2828 214.422C85.3575 214.796 85.3948 215.202 85.3948 215.64V220.008ZM90.8514 220.008V212.7H92.0834V220.008H90.8514ZM90.8514 211.328V209.788H92.0834V211.328H90.8514ZM98.012 220.148C97.4147 220.148 96.8827 219.999 96.416 219.7C95.9493 219.402 95.5807 219.024 95.31 218.566V222.99H94.078V212.7H95.17V214.072C95.4593 213.624 95.8373 213.265 96.304 212.994C96.7707 212.714 97.2793 212.574 97.83 212.574C98.334 212.574 98.796 212.677 99.216 212.882C99.636 213.088 100 213.368 100.308 213.722C100.616 214.077 100.854 214.483 101.022 214.94C101.199 215.388 101.288 215.86 101.288 216.354C101.288 217.045 101.148 217.68 100.868 218.258C100.597 218.837 100.215 219.299 99.72 219.644C99.2253 219.98 98.656 220.148 98.012 220.148ZM97.634 219.084C97.998 219.084 98.3247 219.01 98.614 218.86C98.9127 218.702 99.1647 218.496 99.37 218.244C99.5847 217.983 99.748 217.689 99.86 217.362C99.972 217.036 100.028 216.7 100.028 216.354C100.028 215.99 99.9627 215.645 99.832 215.318C99.7107 214.992 99.5333 214.702 99.3 214.45C99.076 214.198 98.81 214.002 98.502 213.862C98.2033 213.713 97.8767 213.638 97.522 213.638C97.298 213.638 97.0647 213.68 96.822 213.764C96.5887 213.848 96.3647 213.97 96.15 214.128C95.9353 214.278 95.7533 214.45 95.604 214.646C95.4547 214.842 95.3567 215.052 95.31 215.276V217.362C95.45 217.68 95.6367 217.969 95.87 218.23C96.1033 218.492 96.374 218.702 96.682 218.86C96.99 219.01 97.3073 219.084 97.634 219.084ZM105.307 220.148C104.7 220.148 104.131 220.05 103.599 219.854C103.067 219.649 102.609 219.346 102.227 218.944L102.703 218.076C103.123 218.468 103.543 218.748 103.963 218.916C104.383 219.084 104.812 219.168 105.251 219.168C105.755 219.168 106.165 219.075 106.483 218.888C106.8 218.692 106.959 218.408 106.959 218.034C106.959 217.764 106.875 217.563 106.707 217.432C106.548 217.302 106.319 217.194 106.021 217.11C105.722 217.017 105.367 216.914 104.957 216.802C104.453 216.653 104.028 216.494 103.683 216.326C103.337 216.158 103.076 215.948 102.899 215.696C102.721 215.444 102.633 215.127 102.633 214.744C102.633 214.278 102.754 213.886 102.997 213.568C103.239 213.242 103.571 212.994 103.991 212.826C104.42 212.658 104.905 212.574 105.447 212.574C105.988 212.574 106.478 212.658 106.917 212.826C107.355 212.994 107.733 213.242 108.051 213.568L107.491 214.422C107.201 214.124 106.884 213.904 106.539 213.764C106.193 213.615 105.806 213.54 105.377 213.54C105.125 213.54 104.877 213.573 104.635 213.638C104.392 213.694 104.191 213.802 104.033 213.96C103.874 214.11 103.795 214.324 103.795 214.604C103.795 214.838 103.855 215.024 103.977 215.164C104.107 215.295 104.294 215.407 104.537 215.5C104.789 215.594 105.092 215.696 105.447 215.808C105.997 215.967 106.473 216.126 106.875 216.284C107.285 216.443 107.603 216.648 107.827 216.9C108.051 217.152 108.163 217.502 108.163 217.95C108.163 218.641 107.901 219.182 107.379 219.574C106.856 219.957 106.165 220.148 105.307 220.148ZM109.567 217.082V212.7H110.799V216.844C110.799 217.591 110.929 218.151 111.191 218.524C111.452 218.898 111.839 219.084 112.353 219.084C112.689 219.084 113.011 219.014 113.319 218.874C113.636 218.725 113.921 218.515 114.173 218.244C114.425 217.974 114.621 217.652 114.761 217.278V212.7H115.993V218.608C115.993 218.758 116.021 218.87 116.077 218.944C116.142 219.01 116.245 219.047 116.385 219.056V220.008C116.245 220.027 116.133 220.036 116.049 220.036C115.974 220.046 115.899 220.05 115.825 220.05C115.591 220.05 115.391 219.98 115.223 219.84C115.055 219.691 114.966 219.509 114.957 219.294L114.929 218.44C114.611 218.982 114.182 219.402 113.641 219.7C113.109 219.999 112.525 220.148 111.891 220.148C111.125 220.148 110.547 219.892 110.155 219.378C109.763 218.856 109.567 218.09 109.567 217.082ZM129.063 220.008H127.831V215.92C127.831 215.155 127.705 214.59 127.453 214.226C127.21 213.862 126.846 213.68 126.361 213.68C125.866 213.68 125.418 213.862 125.017 214.226C124.615 214.581 124.331 215.043 124.163 215.612V220.008H122.931V215.92C122.931 215.146 122.809 214.581 122.567 214.226C122.324 213.862 121.96 213.68 121.475 213.68C120.989 213.68 120.541 213.858 120.131 214.212C119.729 214.558 119.445 215.02 119.277 215.598V220.008H118.045V212.7H119.165V214.268C119.463 213.727 119.851 213.312 120.327 213.022C120.803 212.724 121.339 212.574 121.937 212.574C122.543 212.574 123.029 212.742 123.393 213.078C123.757 213.405 123.981 213.83 124.065 214.352C124.391 213.774 124.788 213.335 125.255 213.036C125.721 212.728 126.253 212.574 126.851 212.574C127.271 212.574 127.621 212.654 127.901 212.812C128.19 212.962 128.419 213.176 128.587 213.456C128.755 213.727 128.876 214.049 128.951 214.422C129.025 214.796 129.063 215.202 129.063 215.64V220.008ZM134.043 216.368C134.043 215.678 134.183 215.048 134.463 214.478C134.753 213.9 135.145 213.438 135.639 213.092C136.143 212.747 136.717 212.574 137.361 212.574C137.949 212.574 138.477 212.728 138.943 213.036C139.41 213.344 139.774 213.718 140.035 214.156V209.788H141.267V218.608C141.267 218.758 141.295 218.87 141.351 218.944C141.417 219.01 141.519 219.047 141.659 219.056V220.008C141.426 220.046 141.244 220.064 141.113 220.064C140.871 220.064 140.656 219.98 140.469 219.812C140.292 219.644 140.203 219.458 140.203 219.252V218.636C139.914 219.103 139.527 219.472 139.041 219.742C138.556 220.013 138.052 220.148 137.529 220.148C137.025 220.148 136.559 220.05 136.129 219.854C135.709 219.649 135.341 219.369 135.023 219.014C134.715 218.66 134.473 218.258 134.295 217.81C134.127 217.353 134.043 216.872 134.043 216.368ZM140.035 217.446V215.346C139.923 215.029 139.741 214.744 139.489 214.492C139.237 214.231 138.953 214.026 138.635 213.876C138.327 213.718 138.019 213.638 137.711 213.638C137.347 213.638 137.016 213.718 136.717 213.876C136.428 214.026 136.176 214.231 135.961 214.492C135.756 214.744 135.597 215.034 135.485 215.36C135.373 215.687 135.317 216.028 135.317 216.382C135.317 216.746 135.378 217.092 135.499 217.418C135.63 217.745 135.807 218.034 136.031 218.286C136.265 218.538 136.531 218.734 136.829 218.874C137.137 219.014 137.469 219.084 137.823 219.084C138.047 219.084 138.276 219.042 138.509 218.958C138.752 218.874 138.981 218.758 139.195 218.608C139.41 218.459 139.592 218.286 139.741 218.09C139.891 217.885 139.989 217.67 140.035 217.446ZM146.516 220.148C145.965 220.148 145.466 220.05 145.018 219.854C144.57 219.649 144.183 219.374 143.856 219.028C143.529 218.674 143.277 218.268 143.1 217.81C142.923 217.353 142.834 216.872 142.834 216.368C142.834 215.855 142.923 215.37 143.1 214.912C143.277 214.455 143.529 214.054 143.856 213.708C144.183 213.354 144.57 213.078 145.018 212.882C145.475 212.677 145.975 212.574 146.516 212.574C147.067 212.574 147.566 212.677 148.014 212.882C148.462 213.078 148.849 213.354 149.176 213.708C149.512 214.054 149.769 214.455 149.946 214.912C150.123 215.37 150.212 215.855 150.212 216.368C150.212 216.872 150.123 217.353 149.946 217.81C149.769 218.268 149.517 218.674 149.19 219.028C148.863 219.374 148.471 219.649 148.014 219.854C147.566 220.05 147.067 220.148 146.516 220.148ZM144.094 216.382C144.094 216.886 144.201 217.344 144.416 217.754C144.64 218.165 144.934 218.492 145.298 218.734C145.662 218.968 146.068 219.084 146.516 219.084C146.964 219.084 147.37 218.963 147.734 218.72C148.107 218.478 148.401 218.151 148.616 217.74C148.84 217.32 148.952 216.858 148.952 216.354C148.952 215.85 148.84 215.393 148.616 214.982C148.401 214.572 148.107 214.245 147.734 214.002C147.37 213.76 146.964 213.638 146.516 213.638C146.068 213.638 145.662 213.764 145.298 214.016C144.934 214.259 144.64 214.586 144.416 214.996C144.201 215.407 144.094 215.869 144.094 216.382ZM151.733 209.788H152.965V218.118C152.965 218.52 153.021 218.767 153.133 218.86C153.245 218.954 153.38 219 153.539 219C153.735 219 153.922 218.982 154.099 218.944C154.276 218.898 154.426 218.851 154.547 218.804L154.743 219.812C154.538 219.896 154.295 219.966 154.015 220.022C153.735 220.078 153.488 220.106 153.273 220.106C152.797 220.106 152.419 219.971 152.139 219.7C151.868 219.43 151.733 219.052 151.733 218.566V209.788ZM158.903 220.148C158.352 220.148 157.853 220.05 157.405 219.854C156.957 219.649 156.569 219.374 156.243 219.028C155.916 218.674 155.664 218.268 155.487 217.81C155.309 217.353 155.221 216.872 155.221 216.368C155.221 215.855 155.309 215.37 155.487 214.912C155.664 214.455 155.916 214.054 156.243 213.708C156.569 213.354 156.957 213.078 157.405 212.882C157.862 212.677 158.361 212.574 158.903 212.574C159.453 212.574 159.953 212.677 160.401 212.882C160.849 213.078 161.236 213.354 161.563 213.708C161.899 214.054 162.155 214.455 162.333 214.912C162.51 215.37 162.599 215.855 162.599 216.368C162.599 216.872 162.51 217.353 162.333 217.81C162.155 218.268 161.903 218.674 161.577 219.028C161.25 219.374 160.858 219.649 160.401 219.854C159.953 220.05 159.453 220.148 158.903 220.148ZM156.481 216.382C156.481 216.886 156.588 217.344 156.803 217.754C157.027 218.165 157.321 218.492 157.685 218.734C158.049 218.968 158.455 219.084 158.903 219.084C159.351 219.084 159.757 218.963 160.121 218.72C160.494 218.478 160.788 218.151 161.003 217.74C161.227 217.32 161.339 216.858 161.339 216.354C161.339 215.85 161.227 215.393 161.003 214.982C160.788 214.572 160.494 214.245 160.121 214.002C159.757 213.76 159.351 213.638 158.903 213.638C158.455 213.638 158.049 213.764 157.685 214.016C157.321 214.259 157.027 214.586 156.803 214.996C156.588 215.407 156.481 215.869 156.481 216.382ZM167.956 213.778C167.34 213.788 166.794 213.946 166.318 214.254C165.851 214.553 165.52 214.968 165.324 215.5V220.008H164.092V212.7H165.24V214.394C165.492 213.89 165.823 213.484 166.234 213.176C166.654 212.859 167.092 212.682 167.55 212.644C167.643 212.644 167.722 212.644 167.788 212.644C167.853 212.644 167.909 212.649 167.956 212.658V213.778ZM174.896 220.148C174.29 220.148 173.72 220.05 173.188 219.854C172.656 219.649 172.199 219.346 171.816 218.944L172.292 218.076C172.712 218.468 173.132 218.748 173.552 218.916C173.972 219.084 174.402 219.168 174.84 219.168C175.344 219.168 175.755 219.075 176.072 218.888C176.39 218.692 176.548 218.408 176.548 218.034C176.548 217.764 176.464 217.563 176.296 217.432C176.138 217.302 175.909 217.194 175.61 217.11C175.312 217.017 174.957 216.914 174.546 216.802C174.042 216.653 173.618 216.494 173.272 216.326C172.927 216.158 172.666 215.948 172.488 215.696C172.311 215.444 172.222 215.127 172.222 214.744C172.222 214.278 172.344 213.886 172.586 213.568C172.829 213.242 173.16 212.994 173.58 212.826C174.01 212.658 174.495 212.574 175.036 212.574C175.578 212.574 176.068 212.658 176.506 212.826C176.945 212.994 177.323 213.242 177.64 213.568L177.08 214.422C176.791 214.124 176.474 213.904 176.128 213.764C175.783 213.615 175.396 213.54 174.966 213.54C174.714 213.54 174.467 213.573 174.224 213.638C173.982 213.694 173.781 213.802 173.622 213.96C173.464 214.11 173.384 214.324 173.384 214.604C173.384 214.838 173.445 215.024 173.566 215.164C173.697 215.295 173.884 215.407 174.126 215.5C174.378 215.594 174.682 215.696 175.036 215.808C175.587 215.967 176.063 216.126 176.464 216.284C176.875 216.443 177.192 216.648 177.416 216.9C177.64 217.152 177.752 217.502 177.752 217.95C177.752 218.641 177.491 219.182 176.968 219.574C176.446 219.957 175.755 220.148 174.896 220.148ZM179.226 220.008V212.7H180.458V220.008H179.226ZM179.226 211.328V209.788H180.458V211.328H179.226ZM186.233 219.644C186.13 219.691 185.99 219.752 185.813 219.826C185.636 219.901 185.43 219.966 185.197 220.022C184.964 220.078 184.716 220.106 184.455 220.106C184.156 220.106 183.881 220.055 183.629 219.952C183.377 219.84 183.176 219.672 183.027 219.448C182.878 219.215 182.803 218.926 182.803 218.58V213.666H181.809V212.7H182.803V210.264H184.035V212.7H185.673V213.666H184.035V218.202C184.054 218.464 184.142 218.66 184.301 218.79C184.46 218.912 184.646 218.972 184.861 218.972C185.104 218.972 185.328 218.93 185.533 218.846C185.738 218.762 185.874 218.702 185.939 218.664L186.233 219.644ZM190.342 217.894C190.342 217.428 190.473 217.026 190.734 216.69C191.005 216.345 191.373 216.079 191.84 215.892C192.307 215.706 192.848 215.612 193.464 215.612C193.791 215.612 194.136 215.64 194.5 215.696C194.864 215.743 195.186 215.818 195.466 215.92V215.388C195.466 214.828 195.298 214.39 194.962 214.072C194.626 213.746 194.15 213.582 193.534 213.582C193.133 213.582 192.745 213.657 192.372 213.806C192.008 213.946 191.621 214.152 191.21 214.422L190.762 213.554C191.238 213.228 191.714 212.985 192.19 212.826C192.666 212.658 193.161 212.574 193.674 212.574C194.607 212.574 195.345 212.836 195.886 213.358C196.427 213.872 196.698 214.59 196.698 215.514V218.608C196.698 218.758 196.726 218.87 196.782 218.944C196.847 219.01 196.95 219.047 197.09 219.056V220.008C196.969 220.027 196.861 220.041 196.768 220.05C196.684 220.06 196.614 220.064 196.558 220.064C196.269 220.064 196.049 219.985 195.9 219.826C195.76 219.668 195.681 219.5 195.662 219.322L195.634 218.86C195.317 219.271 194.901 219.588 194.388 219.812C193.875 220.036 193.366 220.148 192.862 220.148C192.377 220.148 191.943 220.05 191.56 219.854C191.177 219.649 190.879 219.378 190.664 219.042C190.449 218.697 190.342 218.314 190.342 217.894ZM195.102 218.412C195.214 218.282 195.303 218.151 195.368 218.02C195.433 217.88 195.466 217.764 195.466 217.67V216.76C195.177 216.648 194.873 216.564 194.556 216.508C194.239 216.443 193.926 216.41 193.618 216.41C192.993 216.41 192.484 216.536 192.092 216.788C191.709 217.031 191.518 217.367 191.518 217.796C191.518 218.03 191.579 218.258 191.7 218.482C191.831 218.697 192.017 218.874 192.26 219.014C192.512 219.154 192.82 219.224 193.184 219.224C193.567 219.224 193.931 219.15 194.276 219C194.621 218.842 194.897 218.646 195.102 218.412ZM209.686 220.008H208.454V215.92C208.454 215.155 208.328 214.59 208.076 214.226C207.833 213.862 207.469 213.68 206.984 213.68C206.489 213.68 206.041 213.862 205.64 214.226C205.238 214.581 204.954 215.043 204.786 215.612V220.008H203.554V215.92C203.554 215.146 203.432 214.581 203.19 214.226C202.947 213.862 202.583 213.68 202.098 213.68C201.612 213.68 201.164 213.858 200.754 214.212C200.352 214.558 200.068 215.02 199.9 215.598V220.008H198.668V212.7H199.788V214.268C200.086 213.727 200.474 213.312 200.95 213.022C201.426 212.724 201.962 212.574 202.56 212.574C203.166 212.574 203.652 212.742 204.016 213.078C204.38 213.405 204.604 213.83 204.688 214.352C205.014 213.774 205.411 213.335 205.878 213.036C206.344 212.728 206.876 212.574 207.474 212.574C207.894 212.574 208.244 212.654 208.524 212.812C208.813 212.962 209.042 213.176 209.21 213.456C209.378 213.727 209.499 214.049 209.574 214.422C209.648 214.796 209.686 215.202 209.686 215.64V220.008ZM214.835 220.148C214.285 220.148 213.781 220.05 213.323 219.854C212.875 219.649 212.483 219.374 212.147 219.028C211.821 218.674 211.564 218.268 211.377 217.81C211.2 217.353 211.111 216.868 211.111 216.354C211.111 215.664 211.27 215.034 211.587 214.464C211.905 213.895 212.343 213.438 212.903 213.092C213.473 212.747 214.121 212.574 214.849 212.574C215.587 212.574 216.226 212.752 216.767 213.106C217.318 213.452 217.743 213.909 218.041 214.478C218.349 215.038 218.503 215.645 218.503 216.298C218.503 216.392 218.499 216.485 218.489 216.578C218.489 216.662 218.485 216.728 218.475 216.774H212.413C212.451 217.25 212.581 217.675 212.805 218.048C213.039 218.412 213.337 218.702 213.701 218.916C214.065 219.122 214.457 219.224 214.877 219.224C215.325 219.224 215.745 219.112 216.137 218.888C216.539 218.664 216.814 218.37 216.963 218.006L218.027 218.3C217.869 218.655 217.631 218.972 217.313 219.252C217.005 219.532 216.637 219.752 216.207 219.91C215.787 220.069 215.33 220.148 214.835 220.148ZM212.371 215.92H217.355C217.318 215.444 217.183 215.024 216.949 214.66C216.716 214.296 216.417 214.012 216.053 213.806C215.689 213.601 215.288 213.498 214.849 213.498C214.42 213.498 214.023 213.601 213.659 213.806C213.295 214.012 212.997 214.296 212.763 214.66C212.539 215.024 212.409 215.444 212.371 215.92ZM223.585 219.644C223.482 219.691 223.342 219.752 223.165 219.826C222.987 219.901 222.782 219.966 222.549 220.022C222.315 220.078 222.068 220.106 221.807 220.106C221.508 220.106 221.233 220.055 220.981 219.952C220.729 219.84 220.528 219.672 220.379 219.448C220.229 219.215 220.155 218.926 220.155 218.58V213.666H219.161V212.7H220.155V210.264H221.387V212.7H223.025V213.666H221.387V218.202C221.405 218.464 221.494 218.66 221.653 218.79C221.811 218.912 221.998 218.972 222.213 218.972C222.455 218.972 222.679 218.93 222.885 218.846C223.09 218.762 223.225 218.702 223.291 218.664L223.585 219.644ZM224.768 221.142L225.048 219.896H224.628V218.44H225.79V219.896L225.37 221.142H224.768ZM47.9839 241.148C47.4332 241.148 46.9292 241.05 46.4719 240.854C46.0239 240.649 45.6319 240.369 45.2959 240.014C44.9692 239.66 44.7125 239.254 44.5259 238.796C44.3485 238.339 44.2599 237.854 44.2599 237.34C44.2599 236.65 44.4139 236.02 44.7219 235.45C45.0299 234.881 45.4639 234.428 46.0239 234.092C46.5839 233.747 47.2325 233.574 47.9699 233.574C48.6885 233.574 49.3139 233.738 49.8459 234.064C50.3872 234.382 50.7885 234.811 51.0499 235.352L49.8459 235.73C49.6592 235.385 49.3979 235.119 49.0619 234.932C48.7259 234.736 48.3525 234.638 47.9419 234.638C47.4939 234.638 47.0832 234.755 46.7099 234.988C46.3459 235.222 46.0565 235.544 45.8419 235.954C45.6272 236.356 45.5199 236.818 45.5199 237.34C45.5199 237.854 45.6272 238.32 45.8419 238.74C46.0659 239.151 46.3599 239.478 46.7239 239.72C47.0972 239.963 47.5079 240.084 47.9559 240.084C48.2452 240.084 48.5205 240.033 48.7819 239.93C49.0525 239.828 49.2859 239.692 49.4819 239.524C49.6872 239.347 49.8272 239.156 49.9019 238.95L51.1059 239.314C50.9565 239.669 50.7279 239.986 50.4199 240.266C50.1212 240.537 49.7619 240.752 49.3419 240.91C48.9312 241.069 48.4785 241.148 47.9839 241.148ZM55.6255 241.148C55.0748 241.148 54.5755 241.05 54.1275 240.854C53.6795 240.649 53.2921 240.374 52.9655 240.028C52.6388 239.674 52.3868 239.268 52.2095 238.81C52.0321 238.353 51.9435 237.872 51.9435 237.368C51.9435 236.855 52.0321 236.37 52.2095 235.912C52.3868 235.455 52.6388 235.054 52.9655 234.708C53.2921 234.354 53.6795 234.078 54.1275 233.882C54.5848 233.677 55.0841 233.574 55.6255 233.574C56.1761 233.574 56.6755 233.677 57.1235 233.882C57.5715 234.078 57.9588 234.354 58.2855 234.708C58.6215 235.054 58.8781 235.455 59.0555 235.912C59.2328 236.37 59.3215 236.855 59.3215 237.368C59.3215 237.872 59.2328 238.353 59.0555 238.81C58.8781 239.268 58.6261 239.674 58.2995 240.028C57.9728 240.374 57.5808 240.649 57.1235 240.854C56.6755 241.05 56.1761 241.148 55.6255 241.148ZM53.2035 237.382C53.2035 237.886 53.3108 238.344 53.5255 238.754C53.7495 239.165 54.0435 239.492 54.4075 239.734C54.7715 239.968 55.1775 240.084 55.6255 240.084C56.0735 240.084 56.4795 239.963 56.8435 239.72C57.2168 239.478 57.5108 239.151 57.7255 238.74C57.9495 238.32 58.0615 237.858 58.0615 237.354C58.0615 236.85 57.9495 236.393 57.7255 235.982C57.5108 235.572 57.2168 235.245 56.8435 235.002C56.4795 234.76 56.0735 234.638 55.6255 234.638C55.1775 234.638 54.7715 234.764 54.4075 235.016C54.0435 235.259 53.7495 235.586 53.5255 235.996C53.3108 236.407 53.2035 236.869 53.2035 237.382ZM67.1563 241.008H65.9243V236.92C65.9243 236.146 65.803 235.581 65.5603 235.226C65.327 234.862 64.9676 234.68 64.4823 234.68C64.1463 234.68 63.8103 234.764 63.4743 234.932C63.1476 235.1 62.8536 235.329 62.5923 235.618C62.3403 235.898 62.1583 236.225 62.0463 236.598V241.008H60.8143V233.7H61.9343V235.268C62.1303 234.923 62.3823 234.624 62.6903 234.372C62.9983 234.12 63.3483 233.924 63.7403 233.784C64.1323 233.644 64.543 233.574 64.9723 233.574C65.3923 233.574 65.7423 233.654 66.0223 233.812C66.3116 233.962 66.5356 234.176 66.6943 234.456C66.8623 234.727 66.979 235.049 67.0443 235.422C67.119 235.796 67.1563 236.202 67.1563 236.64V241.008ZM71.5781 241.148C70.9715 241.148 70.4021 241.05 69.8701 240.854C69.3381 240.649 68.8808 240.346 68.4981 239.944L68.9741 239.076C69.3941 239.468 69.8141 239.748 70.2341 239.916C70.6541 240.084 71.0835 240.168 71.5221 240.168C72.0261 240.168 72.4368 240.075 72.7541 239.888C73.0715 239.692 73.2301 239.408 73.2301 239.034C73.2301 238.764 73.1461 238.563 72.9781 238.432C72.8195 238.302 72.5908 238.194 72.2921 238.11C71.9935 238.017 71.6388 237.914 71.2281 237.802C70.7241 237.653 70.2995 237.494 69.9541 237.326C69.6088 237.158 69.3475 236.948 69.1701 236.696C68.9928 236.444 68.9041 236.127 68.9041 235.744C68.9041 235.278 69.0255 234.886 69.2681 234.568C69.5108 234.242 69.8421 233.994 70.2621 233.826C70.6915 233.658 71.1768 233.574 71.7181 233.574C72.2595 233.574 72.7495 233.658 73.1881 233.826C73.6268 233.994 74.0048 234.242 74.3221 234.568L73.7621 235.422C73.4728 235.124 73.1555 234.904 72.8101 234.764C72.4648 234.615 72.0775 234.54 71.6481 234.54C71.3961 234.54 71.1488 234.573 70.9061 234.638C70.6635 234.694 70.4628 234.802 70.3041 234.96C70.1455 235.11 70.0661 235.324 70.0661 235.604C70.0661 235.838 70.1268 236.024 70.2481 236.164C70.3788 236.295 70.5655 236.407 70.8081 236.5C71.0601 236.594 71.3635 236.696 71.7181 236.808C72.2688 236.967 72.7448 237.126 73.1461 237.284C73.5568 237.443 73.8741 237.648 74.0981 237.9C74.3221 238.152 74.4341 238.502 74.4341 238.95C74.4341 239.641 74.1728 240.182 73.6501 240.574C73.1275 240.957 72.4368 241.148 71.5781 241.148ZM79.1421 241.148C78.5914 241.148 78.0874 241.05 77.6301 240.854C77.1821 240.649 76.7901 240.374 76.4541 240.028C76.1274 239.674 75.8707 239.268 75.6841 238.81C75.5067 238.353 75.4181 237.868 75.4181 237.354C75.4181 236.664 75.5767 236.034 75.8941 235.464C76.2114 234.895 76.6501 234.438 77.2101 234.092C77.7794 233.747 78.4281 233.574 79.1561 233.574C79.8934 233.574 80.5327 233.752 81.0741 234.106C81.6247 234.452 82.0494 234.909 82.3481 235.478C82.6561 236.038 82.8101 236.645 82.8101 237.298C82.8101 237.392 82.8054 237.485 82.7961 237.578C82.7961 237.662 82.7914 237.728 82.7821 237.774H76.7201C76.7574 238.25 76.8881 238.675 77.1121 239.048C77.3454 239.412 77.6441 239.702 78.0081 239.916C78.3721 240.122 78.7641 240.224 79.1841 240.224C79.6321 240.224 80.0521 240.112 80.4441 239.888C80.8454 239.664 81.1207 239.37 81.2701 239.006L82.3341 239.3C82.1754 239.655 81.9374 239.972 81.6201 240.252C81.3121 240.532 80.9434 240.752 80.5141 240.91C80.0941 241.069 79.6367 241.148 79.1421 241.148ZM76.6781 236.92H81.6621C81.6247 236.444 81.4894 236.024 81.2561 235.66C81.0227 235.296 80.7241 235.012 80.3601 234.806C79.9961 234.601 79.5947 234.498 79.1561 234.498C78.7267 234.498 78.3301 234.601 77.9661 234.806C77.6021 235.012 77.3034 235.296 77.0701 235.66C76.8461 236.024 76.7154 236.444 76.6781 236.92ZM87.4135 241.148C86.8629 241.148 86.3589 241.05 85.9015 240.854C85.4535 240.649 85.0615 240.369 84.7255 240.014C84.3989 239.66 84.1422 239.254 83.9555 238.796C83.7782 238.339 83.6895 237.854 83.6895 237.34C83.6895 236.65 83.8435 236.02 84.1515 235.45C84.4595 234.881 84.8935 234.428 85.4535 234.092C86.0135 233.747 86.6622 233.574 87.3995 233.574C88.1182 233.574 88.7435 233.738 89.2755 234.064C89.8169 234.382 90.2182 234.811 90.4795 235.352L89.2755 235.73C89.0889 235.385 88.8275 235.119 88.4915 234.932C88.1555 234.736 87.7822 234.638 87.3715 234.638C86.9235 234.638 86.5129 234.755 86.1395 234.988C85.7755 235.222 85.4862 235.544 85.2715 235.954C85.0569 236.356 84.9495 236.818 84.9495 237.34C84.9495 237.854 85.0569 238.32 85.2715 238.74C85.4955 239.151 85.7895 239.478 86.1535 239.72C86.5269 239.963 86.9375 240.084 87.3855 240.084C87.6749 240.084 87.9502 240.033 88.2115 239.93C88.4822 239.828 88.7155 239.692 88.9115 239.524C89.1169 239.347 89.2569 239.156 89.3315 238.95L90.5355 239.314C90.3862 239.669 90.1575 239.986 89.8495 240.266C89.5509 240.537 89.1915 240.752 88.7715 240.91C88.3609 241.069 87.9082 241.148 87.4135 241.148ZM95.7115 240.644C95.6088 240.691 95.4688 240.752 95.2915 240.826C95.1142 240.901 94.9088 240.966 94.6755 241.022C94.4422 241.078 94.1948 241.106 93.9335 241.106C93.6348 241.106 93.3595 241.055 93.1075 240.952C92.8555 240.84 92.6548 240.672 92.5055 240.448C92.3562 240.215 92.2815 239.926 92.2815 239.58V234.666H91.2875V233.7H92.2815V231.264H93.5135V233.7H95.1515V234.666H93.5135V239.202C93.5322 239.464 93.6208 239.66 93.7795 239.79C93.9382 239.912 94.1248 239.972 94.3395 239.972C94.5822 239.972 94.8062 239.93 95.0115 239.846C95.2168 239.762 95.3522 239.702 95.4175 239.664L95.7115 240.644ZM99.9917 241.148C99.441 241.148 98.937 241.05 98.4797 240.854C98.0317 240.649 97.6397 240.374 97.3037 240.028C96.977 239.674 96.7203 239.268 96.5337 238.81C96.3563 238.353 96.2677 237.868 96.2677 237.354C96.2677 236.664 96.4263 236.034 96.7437 235.464C97.061 234.895 97.4997 234.438 98.0597 234.092C98.629 233.747 99.2777 233.574 100.006 233.574C100.743 233.574 101.382 233.752 101.924 234.106C102.474 234.452 102.899 234.909 103.198 235.478C103.506 236.038 103.66 236.645 103.66 237.298C103.66 237.392 103.655 237.485 103.646 237.578C103.646 237.662 103.641 237.728 103.632 237.774H97.5697C97.607 238.25 97.7377 238.675 97.9617 239.048C98.195 239.412 98.4937 239.702 98.8577 239.916C99.2217 240.122 99.6137 240.224 100.034 240.224C100.482 240.224 100.902 240.112 101.294 239.888C101.695 239.664 101.97 239.37 102.12 239.006L103.184 239.3C103.025 239.655 102.787 239.972 102.47 240.252C102.162 240.532 101.793 240.752 101.364 240.91C100.944 241.069 100.486 241.148 99.9917 241.148ZM97.5277 236.92H102.512C102.474 236.444 102.339 236.024 102.106 235.66C101.872 235.296 101.574 235.012 101.21 234.806C100.846 234.601 100.444 234.498 100.006 234.498C99.5763 234.498 99.1797 234.601 98.8157 234.806C98.4517 235.012 98.153 235.296 97.9197 235.66C97.6957 236.024 97.565 236.444 97.5277 236.92ZM108.741 240.644C108.638 240.691 108.498 240.752 108.321 240.826C108.143 240.901 107.938 240.966 107.705 241.022C107.471 241.078 107.224 241.106 106.963 241.106C106.664 241.106 106.389 241.055 106.137 240.952C105.885 240.84 105.684 240.672 105.535 240.448C105.385 240.215 105.311 239.926 105.311 239.58V234.666H104.317V233.7H105.311V231.264H106.543V233.7H108.181V234.666H106.543V239.202C106.561 239.464 106.65 239.66 106.809 239.79C106.967 239.912 107.154 239.972 107.369 239.972C107.611 239.972 107.835 239.93 108.041 239.846C108.246 239.762 108.381 239.702 108.447 239.664L108.741 240.644ZM109.813 238.082V233.7H111.045V237.844C111.045 238.591 111.175 239.151 111.437 239.524C111.698 239.898 112.085 240.084 112.599 240.084C112.935 240.084 113.257 240.014 113.565 239.874C113.882 239.725 114.167 239.515 114.419 239.244C114.671 238.974 114.867 238.652 115.007 238.278V233.7H116.239V239.608C116.239 239.758 116.267 239.87 116.323 239.944C116.388 240.01 116.491 240.047 116.631 240.056V241.008C116.491 241.027 116.379 241.036 116.295 241.036C116.22 241.046 116.145 241.05 116.071 241.05C115.837 241.05 115.637 240.98 115.469 240.84C115.301 240.691 115.212 240.509 115.203 240.294L115.175 239.44C114.857 239.982 114.428 240.402 113.887 240.7C113.355 240.999 112.771 241.148 112.137 241.148C111.371 241.148 110.793 240.892 110.401 240.378C110.009 239.856 109.813 239.09 109.813 238.082ZM122.155 234.778C121.539 234.788 120.993 234.946 120.517 235.254C120.05 235.553 119.719 235.968 119.523 236.5V241.008H118.291V233.7H119.439V235.394C119.691 234.89 120.022 234.484 120.433 234.176C120.853 233.859 121.292 233.682 121.749 233.644C121.842 233.644 121.922 233.644 121.987 233.644C122.052 233.644 122.108 233.649 122.155 233.658V234.778ZM126.016 238.894C126.016 238.428 126.146 238.026 126.408 237.69C126.678 237.345 127.047 237.079 127.514 236.892C127.98 236.706 128.522 236.612 129.138 236.612C129.464 236.612 129.81 236.64 130.174 236.696C130.538 236.743 130.86 236.818 131.14 236.92V236.388C131.14 235.828 130.972 235.39 130.636 235.072C130.3 234.746 129.824 234.582 129.208 234.582C128.806 234.582 128.419 234.657 128.046 234.806C127.682 234.946 127.294 235.152 126.884 235.422L126.436 234.554C126.912 234.228 127.388 233.985 127.864 233.826C128.34 233.658 128.834 233.574 129.348 233.574C130.281 233.574 131.018 233.836 131.56 234.358C132.101 234.872 132.372 235.59 132.372 236.514V239.608C132.372 239.758 132.4 239.87 132.456 239.944C132.521 240.01 132.624 240.047 132.764 240.056V241.008C132.642 241.027 132.535 241.041 132.442 241.05C132.358 241.06 132.288 241.064 132.232 241.064C131.942 241.064 131.723 240.985 131.574 240.826C131.434 240.668 131.354 240.5 131.336 240.322L131.308 239.86C130.99 240.271 130.575 240.588 130.062 240.812C129.548 241.036 129.04 241.148 128.536 241.148C128.05 241.148 127.616 241.05 127.234 240.854C126.851 240.649 126.552 240.378 126.338 240.042C126.123 239.697 126.016 239.314 126.016 238.894ZM130.776 239.412C130.888 239.282 130.976 239.151 131.042 239.02C131.107 238.88 131.14 238.764 131.14 238.67V237.76C130.85 237.648 130.547 237.564 130.23 237.508C129.912 237.443 129.6 237.41 129.292 237.41C128.666 237.41 128.158 237.536 127.766 237.788C127.383 238.031 127.192 238.367 127.192 238.796C127.192 239.03 127.252 239.258 127.374 239.482C127.504 239.697 127.691 239.874 127.934 240.014C128.186 240.154 128.494 240.224 128.858 240.224C129.24 240.224 129.604 240.15 129.95 240C130.295 239.842 130.57 239.646 130.776 239.412ZM133.866 237.368C133.866 236.678 134.006 236.048 134.286 235.478C134.575 234.9 134.967 234.438 135.462 234.092C135.966 233.747 136.54 233.574 137.184 233.574C137.772 233.574 138.299 233.728 138.766 234.036C139.232 234.344 139.596 234.718 139.858 235.156V230.788H141.09V239.608C141.09 239.758 141.118 239.87 141.174 239.944C141.239 240.01 141.342 240.047 141.482 240.056V241.008C141.248 241.046 141.066 241.064 140.936 241.064C140.693 241.064 140.478 240.98 140.292 240.812C140.114 240.644 140.026 240.458 140.026 240.252V239.636C139.736 240.103 139.349 240.472 138.864 240.742C138.378 241.013 137.874 241.148 137.352 241.148C136.848 241.148 136.381 241.05 135.952 240.854C135.532 240.649 135.163 240.369 134.846 240.014C134.538 239.66 134.295 239.258 134.118 238.81C133.95 238.353 133.866 237.872 133.866 237.368ZM139.858 238.446V236.346C139.746 236.029 139.564 235.744 139.312 235.492C139.06 235.231 138.775 235.026 138.458 234.876C138.15 234.718 137.842 234.638 137.534 234.638C137.17 234.638 136.838 234.718 136.54 234.876C136.25 235.026 135.998 235.231 135.784 235.492C135.578 235.744 135.42 236.034 135.308 236.36C135.196 236.687 135.14 237.028 135.14 237.382C135.14 237.746 135.2 238.092 135.322 238.418C135.452 238.745 135.63 239.034 135.854 239.286C136.087 239.538 136.353 239.734 136.652 239.874C136.96 240.014 137.291 240.084 137.646 240.084C137.87 240.084 138.098 240.042 138.332 239.958C138.574 239.874 138.803 239.758 139.018 239.608C139.232 239.459 139.414 239.286 139.564 239.09C139.713 238.885 139.811 238.67 139.858 238.446ZM143.146 241.008V233.7H144.378V241.008H143.146ZM143.146 232.328V230.788H144.378V232.328H143.146ZM150.307 241.148C149.71 241.148 149.178 240.999 148.711 240.7C148.244 240.402 147.876 240.024 147.605 239.566V243.99H146.373V233.7H147.465V235.072C147.754 234.624 148.132 234.265 148.599 233.994C149.066 233.714 149.574 233.574 150.125 233.574C150.629 233.574 151.091 233.677 151.511 233.882C151.931 234.088 152.295 234.368 152.603 234.722C152.911 235.077 153.149 235.483 153.317 235.94C153.494 236.388 153.583 236.86 153.583 237.354C153.583 238.045 153.443 238.68 153.163 239.258C152.892 239.837 152.51 240.299 152.015 240.644C151.52 240.98 150.951 241.148 150.307 241.148ZM149.929 240.084C150.293 240.084 150.62 240.01 150.909 239.86C151.208 239.702 151.46 239.496 151.665 239.244C151.88 238.983 152.043 238.689 152.155 238.362C152.267 238.036 152.323 237.7 152.323 237.354C152.323 236.99 152.258 236.645 152.127 236.318C152.006 235.992 151.828 235.702 151.595 235.45C151.371 235.198 151.105 235.002 150.797 234.862C150.498 234.713 150.172 234.638 149.817 234.638C149.593 234.638 149.36 234.68 149.117 234.764C148.884 234.848 148.66 234.97 148.445 235.128C148.23 235.278 148.048 235.45 147.899 235.646C147.75 235.842 147.652 236.052 147.605 236.276V238.362C147.745 238.68 147.932 238.969 148.165 239.23C148.398 239.492 148.669 239.702 148.977 239.86C149.285 240.01 149.602 240.084 149.929 240.084ZM155.096 241.008V233.7H156.328V241.008H155.096ZM155.096 232.328V230.788H156.328V232.328H155.096ZM160.828 241.148C160.221 241.148 159.652 241.05 159.12 240.854C158.588 240.649 158.131 240.346 157.748 239.944L158.224 239.076C158.644 239.468 159.064 239.748 159.484 239.916C159.904 240.084 160.333 240.168 160.772 240.168C161.276 240.168 161.687 240.075 162.004 239.888C162.321 239.692 162.48 239.408 162.48 239.034C162.48 238.764 162.396 238.563 162.228 238.432C162.069 238.302 161.841 238.194 161.542 238.11C161.243 238.017 160.889 237.914 160.478 237.802C159.974 237.653 159.549 237.494 159.204 237.326C158.859 237.158 158.597 236.948 158.42 236.696C158.243 236.444 158.154 236.127 158.154 235.744C158.154 235.278 158.275 234.886 158.518 234.568C158.761 234.242 159.092 233.994 159.512 233.826C159.941 233.658 160.427 233.574 160.968 233.574C161.509 233.574 161.999 233.658 162.438 233.826C162.877 233.994 163.255 234.242 163.572 234.568L163.012 235.422C162.723 235.124 162.405 234.904 162.06 234.764C161.715 234.615 161.327 234.54 160.898 234.54C160.646 234.54 160.399 234.573 160.156 234.638C159.913 234.694 159.713 234.802 159.554 234.96C159.395 235.11 159.316 235.324 159.316 235.604C159.316 235.838 159.377 236.024 159.498 236.164C159.629 236.295 159.815 236.407 160.058 236.5C160.31 236.594 160.613 236.696 160.968 236.808C161.519 236.967 161.995 237.126 162.396 237.284C162.807 237.443 163.124 237.648 163.348 237.9C163.572 238.152 163.684 238.502 163.684 238.95C163.684 239.641 163.423 240.182 162.9 240.574C162.377 240.957 161.687 241.148 160.828 241.148ZM168.392 241.148C167.841 241.148 167.337 241.05 166.88 240.854C166.432 240.649 166.04 240.369 165.704 240.014C165.377 239.66 165.121 239.254 164.934 238.796C164.757 238.339 164.668 237.854 164.668 237.34C164.668 236.65 164.822 236.02 165.13 235.45C165.438 234.881 165.872 234.428 166.432 234.092C166.992 233.747 167.641 233.574 168.378 233.574C169.097 233.574 169.722 233.738 170.254 234.064C170.795 234.382 171.197 234.811 171.458 235.352L170.254 235.73C170.067 235.385 169.806 235.119 169.47 234.932C169.134 234.736 168.761 234.638 168.35 234.638C167.902 234.638 167.491 234.755 167.118 234.988C166.754 235.222 166.465 235.544 166.25 235.954C166.035 236.356 165.928 236.818 165.928 237.34C165.928 237.854 166.035 238.32 166.25 238.74C166.474 239.151 166.768 239.478 167.132 239.72C167.505 239.963 167.916 240.084 168.364 240.084C168.653 240.084 168.929 240.033 169.19 239.93C169.461 239.828 169.694 239.692 169.89 239.524C170.095 239.347 170.235 239.156 170.31 238.95L171.514 239.314C171.365 239.669 171.136 239.986 170.828 240.266C170.529 240.537 170.17 240.752 169.75 240.91C169.339 241.069 168.887 241.148 168.392 241.148ZM172.91 241.008V233.7H174.142V241.008H172.91ZM172.91 232.328V230.788H174.142V232.328H172.91ZM182.479 241.008H181.247V236.92C181.247 236.146 181.125 235.581 180.883 235.226C180.649 234.862 180.29 234.68 179.805 234.68C179.469 234.68 179.133 234.764 178.797 234.932C178.47 235.1 178.176 235.329 177.915 235.618C177.663 235.898 177.481 236.225 177.369 236.598V241.008H176.137V233.7H177.257V235.268C177.453 234.923 177.705 234.624 178.013 234.372C178.321 234.12 178.671 233.924 179.063 233.784C179.455 233.644 179.865 233.574 180.295 233.574C180.715 233.574 181.065 233.654 181.345 233.812C181.634 233.962 181.858 234.176 182.017 234.456C182.185 234.727 182.301 235.049 182.367 235.422C182.441 235.796 182.479 236.202 182.479 236.64V241.008ZM187.306 241.092C186.812 241.092 186.354 240.994 185.934 240.798C185.524 240.593 185.169 240.318 184.87 239.972C184.572 239.618 184.338 239.216 184.17 238.768C184.012 238.32 183.932 237.854 183.932 237.368C183.932 236.855 184.012 236.37 184.17 235.912C184.338 235.455 184.572 235.054 184.87 234.708C185.178 234.354 185.538 234.078 185.948 233.882C186.359 233.677 186.816 233.574 187.32 233.574C187.927 233.574 188.454 233.724 188.902 234.022C189.36 234.321 189.742 234.699 190.05 235.156V233.7H191.142V240.924C191.142 241.615 190.974 242.198 190.638 242.674C190.312 243.15 189.864 243.51 189.294 243.752C188.734 244.004 188.109 244.13 187.418 244.13C186.597 244.13 185.925 243.986 185.402 243.696C184.88 243.407 184.446 243.015 184.1 242.52L184.814 241.89C185.104 242.32 185.477 242.642 185.934 242.856C186.401 243.071 186.896 243.178 187.418 243.178C187.866 243.178 188.277 243.094 188.65 242.926C189.033 242.768 189.336 242.52 189.56 242.184C189.794 241.848 189.91 241.428 189.91 240.924V239.636C189.64 240.084 189.266 240.439 188.79 240.7C188.324 240.962 187.829 241.092 187.306 241.092ZM187.684 240.084C187.946 240.084 188.198 240.038 188.44 239.944C188.683 239.851 188.907 239.73 189.112 239.58C189.318 239.422 189.49 239.244 189.63 239.048C189.77 238.852 189.864 238.652 189.91 238.446V236.346C189.78 236.01 189.593 235.716 189.35 235.464C189.108 235.203 188.832 235.002 188.524 234.862C188.216 234.713 187.899 234.638 187.572 234.638C187.199 234.638 186.863 234.718 186.564 234.876C186.275 235.035 186.028 235.25 185.822 235.52C185.617 235.782 185.458 236.076 185.346 236.402C185.234 236.729 185.178 237.06 185.178 237.396C185.178 237.76 185.244 238.106 185.374 238.432C185.505 238.75 185.682 239.034 185.906 239.286C186.13 239.538 186.396 239.734 186.704 239.874C187.012 240.014 187.339 240.084 187.684 240.084ZM199.906 241.148C199.355 241.148 198.851 241.05 198.394 240.854C197.946 240.649 197.554 240.374 197.218 240.028C196.891 239.674 196.634 239.268 196.448 238.81C196.27 238.353 196.182 237.868 196.182 237.354C196.182 236.664 196.34 236.034 196.658 235.464C196.975 234.895 197.414 234.438 197.974 234.092C198.543 233.747 199.192 233.574 199.92 233.574C200.657 233.574 201.296 233.752 201.838 234.106C202.388 234.452 202.813 234.909 203.112 235.478C203.42 236.038 203.574 236.645 203.574 237.298C203.574 237.392 203.569 237.485 203.56 237.578C203.56 237.662 203.555 237.728 203.546 237.774H197.484C197.521 238.25 197.652 238.675 197.876 239.048C198.109 239.412 198.408 239.702 198.772 239.916C199.136 240.122 199.528 240.224 199.948 240.224C200.396 240.224 200.816 240.112 201.208 239.888C201.609 239.664 201.884 239.37 202.034 239.006L203.098 239.3C202.939 239.655 202.701 239.972 202.384 240.252C202.076 240.532 201.707 240.752 201.278 240.91C200.858 241.069 200.4 241.148 199.906 241.148ZM197.442 236.92H202.426C202.388 236.444 202.253 236.024 202.02 235.66C201.786 235.296 201.488 235.012 201.124 234.806C200.76 234.601 200.358 234.498 199.92 234.498C199.49 234.498 199.094 234.601 198.73 234.806C198.366 235.012 198.067 235.296 197.834 235.66C197.61 236.024 197.479 236.444 197.442 236.92ZM204.971 230.788H206.203V239.118C206.203 239.52 206.259 239.767 206.371 239.86C206.483 239.954 206.619 240 206.777 240C206.973 240 207.16 239.982 207.337 239.944C207.515 239.898 207.664 239.851 207.785 239.804L207.981 240.812C207.776 240.896 207.533 240.966 207.253 241.022C206.973 241.078 206.726 241.106 206.511 241.106C206.035 241.106 205.657 240.971 205.377 240.7C205.107 240.43 204.971 240.052 204.971 239.566V230.788ZM208.949 241.008V233.7H210.181V241.008H208.949ZM208.949 232.328V230.788H210.181V232.328H208.949ZM215.956 240.644C215.853 240.691 215.713 240.752 215.536 240.826C215.358 240.901 215.153 240.966 214.92 241.022C214.686 241.078 214.439 241.106 214.178 241.106C213.879 241.106 213.604 241.055 213.352 240.952C213.1 240.84 212.899 240.672 212.75 240.448C212.6 240.215 212.526 239.926 212.526 239.58V234.666H211.532V233.7H212.526V231.264H213.758V233.7H215.396V234.666H213.758V239.202C213.776 239.464 213.865 239.66 214.024 239.79C214.182 239.912 214.369 239.972 214.584 239.972C214.826 239.972 215.05 239.93 215.256 239.846C215.461 239.762 215.596 239.702 215.662 239.664L215.956 240.644ZM217.14 242.142L217.42 240.896H217V239.44H218.162V240.896L217.742 242.142H217.14ZM226.098 241.148C225.491 241.148 224.922 241.05 224.39 240.854C223.858 240.649 223.4 240.346 223.018 239.944L223.494 239.076C223.914 239.468 224.334 239.748 224.754 239.916C225.174 240.084 225.603 240.168 226.042 240.168C226.546 240.168 226.956 240.075 227.274 239.888C227.591 239.692 227.75 239.408 227.75 239.034C227.75 238.764 227.666 238.563 227.498 238.432C227.339 238.302 227.11 238.194 226.812 238.11C226.513 238.017 226.158 237.914 225.748 237.802C225.244 237.653 224.819 237.494 224.474 237.326C224.128 237.158 223.867 236.948 223.69 236.696C223.512 236.444 223.424 236.127 223.424 235.744C223.424 235.278 223.545 234.886 223.788 234.568C224.03 234.242 224.362 233.994 224.782 233.826C225.211 233.658 225.696 233.574 226.238 233.574C226.779 233.574 227.269 233.658 227.708 233.826C228.146 233.994 228.524 234.242 228.842 234.568L228.282 235.422C227.992 235.124 227.675 234.904 227.33 234.764C226.984 234.615 226.597 234.54 226.168 234.54C225.916 234.54 225.668 234.573 225.426 234.638C225.183 234.694 224.982 234.802 224.824 234.96C224.665 235.11 224.586 235.324 224.586 235.604C224.586 235.838 224.646 236.024 224.768 236.164C224.898 236.295 225.085 236.407 225.328 236.5C225.58 236.594 225.883 236.696 226.238 236.808C226.788 236.967 227.264 237.126 227.666 237.284C228.076 237.443 228.394 237.648 228.618 237.9C228.842 238.152 228.954 238.502 228.954 238.95C228.954 239.641 228.692 240.182 228.17 240.574C227.647 240.957 226.956 241.148 226.098 241.148ZM233.662 241.148C233.111 241.148 232.607 241.05 232.15 240.854C231.702 240.649 231.31 240.374 230.974 240.028C230.647 239.674 230.39 239.268 230.204 238.81C230.026 238.353 229.938 237.868 229.938 237.354C229.938 236.664 230.096 236.034 230.414 235.464C230.731 234.895 231.17 234.438 231.73 234.092C232.299 233.747 232.948 233.574 233.676 233.574C234.413 233.574 235.052 233.752 235.594 234.106C236.144 234.452 236.569 234.909 236.868 235.478C237.176 236.038 237.33 236.645 237.33 237.298C237.33 237.392 237.325 237.485 237.316 237.578C237.316 237.662 237.311 237.728 237.302 237.774H231.24C231.277 238.25 231.408 238.675 231.632 239.048C231.865 239.412 232.164 239.702 232.528 239.916C232.892 240.122 233.284 240.224 233.704 240.224C234.152 240.224 234.572 240.112 234.964 239.888C235.365 239.664 235.64 239.37 235.79 239.006L236.854 239.3C236.695 239.655 236.457 239.972 236.14 240.252C235.832 240.532 235.463 240.752 235.034 240.91C234.614 241.069 234.156 241.148 233.662 241.148ZM231.198 236.92H236.182C236.144 236.444 236.009 236.024 235.776 235.66C235.542 235.296 235.244 235.012 234.88 234.806C234.516 234.601 234.114 234.498 233.676 234.498C233.246 234.498 232.85 234.601 232.486 234.806C232.122 235.012 231.823 235.296 231.59 235.66C231.366 236.024 231.235 236.444 231.198 236.92ZM238.223 237.368C238.223 236.678 238.363 236.048 238.643 235.478C238.932 234.9 239.324 234.438 239.819 234.092C240.323 233.747 240.897 233.574 241.541 233.574C242.129 233.574 242.656 233.728 243.123 234.036C243.59 234.344 243.954 234.718 244.215 235.156V230.788H245.447V239.608C245.447 239.758 245.475 239.87 245.531 239.944C245.596 240.01 245.699 240.047 245.839 240.056V241.008C245.606 241.046 245.424 241.064 245.293 241.064C245.05 241.064 244.836 240.98 244.649 240.812C244.472 240.644 244.383 240.458 244.383 240.252V239.636C244.094 240.103 243.706 240.472 243.221 240.742C242.736 241.013 242.232 241.148 241.709 241.148C241.205 241.148 240.738 241.05 240.309 240.854C239.889 240.649 239.52 240.369 239.203 240.014C238.895 239.66 238.652 239.258 238.475 238.81C238.307 238.353 238.223 237.872 238.223 237.368ZM244.215 238.446V236.346C244.103 236.029 243.921 235.744 243.669 235.492C243.417 235.231 243.132 235.026 242.815 234.876C242.507 234.718 242.199 234.638 241.891 234.638C241.527 234.638 241.196 234.718 240.897 234.876C240.608 235.026 240.356 235.231 240.141 235.492C239.936 235.744 239.777 236.034 239.665 236.36C239.553 236.687 239.497 237.028 239.497 237.382C239.497 237.746 239.558 238.092 239.679 238.418C239.81 238.745 239.987 239.034 240.211 239.286C240.444 239.538 240.71 239.734 241.009 239.874C241.317 240.014 241.648 240.084 242.003 240.084C242.227 240.084 242.456 240.042 242.689 239.958C242.932 239.874 243.16 239.758 243.375 239.608C243.59 239.459 243.772 239.286 243.921 239.09C244.07 238.885 244.168 238.67 244.215 238.446ZM44.2739 258.368C44.2739 257.678 44.4139 257.048 44.6939 256.478C44.9832 255.9 45.3752 255.438 45.8699 255.092C46.3739 254.747 46.9479 254.574 47.5919 254.574C48.1799 254.574 48.7072 254.728 49.1739 255.036C49.6405 255.344 50.0045 255.718 50.2659 256.156V251.788H51.4979V260.608C51.4979 260.758 51.5259 260.87 51.5819 260.944C51.6472 261.01 51.7499 261.047 51.8899 261.056V262.008C51.6565 262.046 51.4745 262.064 51.3439 262.064C51.1012 262.064 50.8865 261.98 50.6999 261.812C50.5225 261.644 50.4339 261.458 50.4339 261.252V260.636C50.1445 261.103 49.7572 261.472 49.2719 261.742C48.7865 262.013 48.2825 262.148 47.7599 262.148C47.2559 262.148 46.7892 262.05 46.3599 261.854C45.9399 261.649 45.5712 261.369 45.2539 261.014C44.9459 260.66 44.7032 260.258 44.5259 259.81C44.3579 259.353 44.2739 258.872 44.2739 258.368ZM50.2659 259.446V257.346C50.1539 257.029 49.9719 256.744 49.7199 256.492C49.4679 256.231 49.1832 256.026 48.8659 255.876C48.5579 255.718 48.2499 255.638 47.9419 255.638C47.5779 255.638 47.2465 255.718 46.9479 255.876C46.6585 256.026 46.4065 256.231 46.1919 256.492C45.9865 256.744 45.8279 257.034 45.7159 257.36C45.6039 257.687 45.5479 258.028 45.5479 258.382C45.5479 258.746 45.6085 259.092 45.7299 259.418C45.8605 259.745 46.0379 260.034 46.2619 260.286C46.4952 260.538 46.7612 260.734 47.0599 260.874C47.3679 261.014 47.6992 261.084 48.0539 261.084C48.2779 261.084 48.5065 261.042 48.7399 260.958C48.9825 260.874 49.2112 260.758 49.4259 260.608C49.6405 260.459 49.8225 260.286 49.9719 260.09C50.1212 259.885 50.2192 259.67 50.2659 259.446ZM56.7465 262.148C56.1959 262.148 55.6965 262.05 55.2485 261.854C54.8005 261.649 54.4132 261.374 54.0865 261.028C53.7599 260.674 53.5079 260.268 53.3305 259.81C53.1532 259.353 53.0645 258.872 53.0645 258.368C53.0645 257.855 53.1532 257.37 53.3305 256.912C53.5079 256.455 53.7599 256.054 54.0865 255.708C54.4132 255.354 54.8005 255.078 55.2485 254.882C55.7059 254.677 56.2052 254.574 56.7465 254.574C57.2972 254.574 57.7965 254.677 58.2445 254.882C58.6925 255.078 59.0799 255.354 59.4065 255.708C59.7425 256.054 59.9992 256.455 60.1765 256.912C60.3539 257.37 60.4425 257.855 60.4425 258.368C60.4425 258.872 60.3539 259.353 60.1765 259.81C59.9992 260.268 59.7472 260.674 59.4205 261.028C59.0939 261.374 58.7019 261.649 58.2445 261.854C57.7965 262.05 57.2972 262.148 56.7465 262.148ZM54.3245 258.382C54.3245 258.886 54.4319 259.344 54.6465 259.754C54.8705 260.165 55.1645 260.492 55.5285 260.734C55.8925 260.968 56.2985 261.084 56.7465 261.084C57.1945 261.084 57.6005 260.963 57.9645 260.72C58.3379 260.478 58.6319 260.151 58.8465 259.74C59.0705 259.32 59.1825 258.858 59.1825 258.354C59.1825 257.85 59.0705 257.393 58.8465 256.982C58.6319 256.572 58.3379 256.245 57.9645 256.002C57.6005 255.76 57.1945 255.638 56.7465 255.638C56.2985 255.638 55.8925 255.764 55.5285 256.016C55.1645 256.259 54.8705 256.586 54.6465 256.996C54.4319 257.407 54.3245 257.869 54.3245 258.382ZM68.7104 262.148C68.1598 262.148 67.6558 262.05 67.1984 261.854C66.7504 261.649 66.3584 261.374 66.0224 261.028C65.6958 260.674 65.4391 260.268 65.2524 259.81C65.0751 259.353 64.9864 258.868 64.9864 258.354C64.9864 257.664 65.1451 257.034 65.4624 256.464C65.7798 255.895 66.2184 255.438 66.7784 255.092C67.3478 254.747 67.9964 254.574 68.7244 254.574C69.4618 254.574 70.1011 254.752 70.6424 255.106C71.1931 255.452 71.6178 255.909 71.9164 256.478C72.2244 257.038 72.3784 257.645 72.3784 258.298C72.3784 258.392 72.3738 258.485 72.3644 258.578C72.3644 258.662 72.3598 258.728 72.3504 258.774H66.2884C66.3258 259.25 66.4564 259.675 66.6804 260.048C66.9138 260.412 67.2124 260.702 67.5764 260.916C67.9404 261.122 68.3324 261.224 68.7524 261.224C69.2004 261.224 69.6204 261.112 70.0124 260.888C70.4138 260.664 70.6891 260.37 70.8384 260.006L71.9024 260.3C71.7438 260.655 71.5058 260.972 71.1884 261.252C70.8804 261.532 70.5118 261.752 70.0824 261.91C69.6624 262.069 69.2051 262.148 68.7104 262.148ZM66.2464 257.92H71.2304C71.1931 257.444 71.0578 257.024 70.8244 256.66C70.5911 256.296 70.2924 256.012 69.9284 255.806C69.5644 255.601 69.1631 255.498 68.7244 255.498C68.2951 255.498 67.8984 255.601 67.5344 255.806C67.1704 256.012 66.8718 256.296 66.6384 256.66C66.4144 257.024 66.2838 257.444 66.2464 257.92ZM73.7479 262.008V254.7H74.9799V262.008H73.7479ZM73.7479 253.328V251.788H74.9799V253.328H73.7479ZM76.9045 259.082V254.7H78.1365V258.844C78.1365 259.591 78.2671 260.151 78.5285 260.524C78.7898 260.898 79.1771 261.084 79.6905 261.084C80.0265 261.084 80.3485 261.014 80.6565 260.874C80.9738 260.725 81.2585 260.515 81.5105 260.244C81.7625 259.974 81.9585 259.652 82.0985 259.278V254.7H83.3305V260.608C83.3305 260.758 83.3585 260.87 83.4145 260.944C83.4798 261.01 83.5825 261.047 83.7225 261.056V262.008C83.5825 262.027 83.4705 262.036 83.3865 262.036C83.3118 262.046 83.2371 262.05 83.1625 262.05C82.9291 262.05 82.7285 261.98 82.5605 261.84C82.3925 261.691 82.3038 261.509 82.2945 261.294L82.2665 260.44C81.9491 260.982 81.5198 261.402 80.9785 261.7C80.4465 261.999 79.8631 262.148 79.2285 262.148C78.4631 262.148 77.8845 261.892 77.4925 261.378C77.1005 260.856 76.9045 260.09 76.9045 259.082ZM87.8887 262.148C87.282 262.148 86.7127 262.05 86.1807 261.854C85.6487 261.649 85.1913 261.346 84.8087 260.944L85.2847 260.076C85.7047 260.468 86.1247 260.748 86.5447 260.916C86.9647 261.084 87.394 261.168 87.8327 261.168C88.3367 261.168 88.7473 261.075 89.0647 260.888C89.382 260.692 89.5407 260.408 89.5407 260.034C89.5407 259.764 89.4567 259.563 89.2887 259.432C89.13 259.302 88.9013 259.194 88.6027 259.11C88.304 259.017 87.9493 258.914 87.5387 258.802C87.0347 258.653 86.61 258.494 86.2647 258.326C85.9193 258.158 85.658 257.948 85.4807 257.696C85.3033 257.444 85.2147 257.127 85.2147 256.744C85.2147 256.278 85.336 255.886 85.5787 255.568C85.8213 255.242 86.1527 254.994 86.5727 254.826C87.002 254.658 87.4873 254.574 88.0287 254.574C88.57 254.574 89.06 254.658 89.4987 254.826C89.9373 254.994 90.3153 255.242 90.6327 255.568L90.0727 256.422C89.7833 256.124 89.466 255.904 89.1207 255.764C88.7753 255.615 88.388 255.54 87.9587 255.54C87.7067 255.54 87.4593 255.573 87.2167 255.638C86.974 255.694 86.7733 255.802 86.6147 255.96C86.456 256.11 86.3767 256.324 86.3767 256.604C86.3767 256.838 86.4373 257.024 86.5587 257.164C86.6893 257.295 86.876 257.407 87.1187 257.5C87.3707 257.594 87.674 257.696 88.0287 257.808C88.5793 257.967 89.0553 258.126 89.4567 258.284C89.8673 258.443 90.1847 258.648 90.4087 258.9C90.6327 259.152 90.7447 259.502 90.7447 259.95C90.7447 260.641 90.4833 261.182 89.9607 261.574C89.438 261.957 88.7473 262.148 87.8887 262.148ZM103.237 262.008H102.005V257.92C102.005 257.155 101.879 256.59 101.627 256.226C101.384 255.862 101.02 255.68 100.535 255.68C100.04 255.68 99.5919 255.862 99.1906 256.226C98.7893 256.581 98.5046 257.043 98.3366 257.612V262.008H97.1046V257.92C97.1046 257.146 96.9833 256.581 96.7406 256.226C96.4979 255.862 96.1339 255.68 95.6486 255.68C95.1633 255.68 94.7153 255.858 94.3046 256.212C93.9033 256.558 93.6186 257.02 93.4506 257.598V262.008H92.2186V254.7H93.3386V256.268C93.6373 255.727 94.0246 255.312 94.5006 255.022C94.9766 254.724 95.5133 254.574 96.1106 254.574C96.7173 254.574 97.2026 254.742 97.5666 255.078C97.9306 255.405 98.1546 255.83 98.2386 256.352C98.5653 255.774 98.9619 255.335 99.4286 255.036C99.8953 254.728 100.427 254.574 101.025 254.574C101.445 254.574 101.795 254.654 102.075 254.812C102.364 254.962 102.593 255.176 102.761 255.456C102.929 255.727 103.05 256.049 103.125 256.422C103.199 256.796 103.237 257.202 103.237 257.64V262.008ZM108.344 262.148C107.794 262.148 107.294 262.05 106.846 261.854C106.398 261.649 106.011 261.374 105.684 261.028C105.358 260.674 105.106 260.268 104.928 259.81C104.751 259.353 104.662 258.872 104.662 258.368C104.662 257.855 104.751 257.37 104.928 256.912C105.106 256.455 105.358 256.054 105.684 255.708C106.011 255.354 106.398 255.078 106.846 254.882C107.304 254.677 107.803 254.574 108.344 254.574C108.895 254.574 109.394 254.677 109.842 254.882C110.29 255.078 110.678 255.354 111.004 255.708C111.34 256.054 111.597 256.455 111.774 256.912C111.952 257.37 112.04 257.855 112.04 258.368C112.04 258.872 111.952 259.353 111.774 259.81C111.597 260.268 111.345 260.674 111.018 261.028C110.692 261.374 110.3 261.649 109.842 261.854C109.394 262.05 108.895 262.148 108.344 262.148ZM105.922 258.382C105.922 258.886 106.03 259.344 106.244 259.754C106.468 260.165 106.762 260.492 107.126 260.734C107.49 260.968 107.896 261.084 108.344 261.084C108.792 261.084 109.198 260.963 109.562 260.72C109.936 260.478 110.23 260.151 110.444 259.74C110.668 259.32 110.78 258.858 110.78 258.354C110.78 257.85 110.668 257.393 110.444 256.982C110.23 256.572 109.936 256.245 109.562 256.002C109.198 255.76 108.792 255.638 108.344 255.638C107.896 255.638 107.49 255.764 107.126 256.016C106.762 256.259 106.468 256.586 106.244 256.996C106.03 257.407 105.922 257.869 105.922 258.382ZM113.057 258.368C113.057 257.678 113.197 257.048 113.477 256.478C113.766 255.9 114.158 255.438 114.653 255.092C115.157 254.747 115.731 254.574 116.375 254.574C116.963 254.574 117.49 254.728 117.957 255.036C118.424 255.344 118.788 255.718 119.049 256.156V251.788H120.281V260.608C120.281 260.758 120.309 260.87 120.365 260.944C120.43 261.01 120.533 261.047 120.673 261.056V262.008C120.44 262.046 120.258 262.064 120.127 262.064C119.884 262.064 119.67 261.98 119.483 261.812C119.306 261.644 119.217 261.458 119.217 261.252V260.636C118.928 261.103 118.54 261.472 118.055 261.742C117.57 262.013 117.066 262.148 116.543 262.148C116.039 262.148 115.572 262.05 115.143 261.854C114.723 261.649 114.354 261.369 114.037 261.014C113.729 260.66 113.486 260.258 113.309 259.81C113.141 259.353 113.057 258.872 113.057 258.368ZM119.049 259.446V257.346C118.937 257.029 118.755 256.744 118.503 256.492C118.251 256.231 117.966 256.026 117.649 255.876C117.341 255.718 117.033 255.638 116.725 255.638C116.361 255.638 116.03 255.718 115.731 255.876C115.442 256.026 115.19 256.231 114.975 256.492C114.77 256.744 114.611 257.034 114.499 257.36C114.387 257.687 114.331 258.028 114.331 258.382C114.331 258.746 114.392 259.092 114.513 259.418C114.644 259.745 114.821 260.034 115.045 260.286C115.278 260.538 115.544 260.734 115.843 260.874C116.151 261.014 116.482 261.084 116.837 261.084C117.061 261.084 117.29 261.042 117.523 260.958C117.766 260.874 117.994 260.758 118.209 260.608C118.424 260.459 118.606 260.286 118.755 260.09C118.904 259.885 119.002 259.67 119.049 259.446ZM129.659 261.644C129.556 261.691 129.416 261.752 129.239 261.826C129.061 261.901 128.856 261.966 128.623 262.022C128.389 262.078 128.142 262.106 127.881 262.106C127.582 262.106 127.307 262.055 127.055 261.952C126.803 261.84 126.602 261.672 126.453 261.448C126.303 261.215 126.229 260.926 126.229 260.58V255.666H125.235V254.7H126.229V252.264H127.461V254.7H129.099V255.666H127.461V260.202C127.479 260.464 127.568 260.66 127.727 260.79C127.885 260.912 128.072 260.972 128.287 260.972C128.529 260.972 128.753 260.93 128.959 260.846C129.164 260.762 129.299 260.702 129.365 260.664L129.659 261.644ZM133.939 262.148C133.388 262.148 132.884 262.05 132.427 261.854C131.979 261.649 131.587 261.374 131.251 261.028C130.924 260.674 130.668 260.268 130.481 259.81C130.304 259.353 130.215 258.868 130.215 258.354C130.215 257.664 130.374 257.034 130.691 256.464C131.008 255.895 131.447 255.438 132.007 255.092C132.576 254.747 133.225 254.574 133.953 254.574C134.69 254.574 135.33 254.752 135.871 255.106C136.422 255.452 136.846 255.909 137.145 256.478C137.453 257.038 137.607 257.645 137.607 258.298C137.607 258.392 137.602 258.485 137.593 258.578C137.593 258.662 137.588 258.728 137.579 258.774H131.517C131.554 259.25 131.685 259.675 131.909 260.048C132.142 260.412 132.441 260.702 132.805 260.916C133.169 261.122 133.561 261.224 133.981 261.224C134.429 261.224 134.849 261.112 135.241 260.888C135.642 260.664 135.918 260.37 136.067 260.006L137.131 260.3C136.972 260.655 136.734 260.972 136.417 261.252C136.109 261.532 135.74 261.752 135.311 261.91C134.891 262.069 134.434 262.148 133.939 262.148ZM131.475 257.92H136.459C136.422 257.444 136.286 257.024 136.053 256.66C135.82 256.296 135.521 256.012 135.157 255.806C134.793 255.601 134.392 255.498 133.953 255.498C133.524 255.498 133.127 255.601 132.763 255.806C132.399 256.012 132.1 256.296 131.867 256.66C131.643 257.024 131.512 257.444 131.475 257.92ZM149.994 262.008H148.762V257.92C148.762 257.155 148.636 256.59 148.384 256.226C148.142 255.862 147.778 255.68 147.292 255.68C146.798 255.68 146.35 255.862 145.948 256.226C145.547 256.581 145.262 257.043 145.094 257.612V262.008H143.862V257.92C143.862 257.146 143.741 256.581 143.498 256.226C143.256 255.862 142.892 255.68 142.406 255.68C141.921 255.68 141.473 255.858 141.062 256.212C140.661 256.558 140.376 257.02 140.208 257.598V262.008H138.976V254.7H140.096V256.268C140.395 255.727 140.782 255.312 141.258 255.022C141.734 254.724 142.271 254.574 142.868 254.574C143.475 254.574 143.96 254.742 144.324 255.078C144.688 255.405 144.912 255.83 144.996 256.352C145.323 255.774 145.72 255.335 146.186 255.036C146.653 254.728 147.185 254.574 147.782 254.574C148.202 254.574 148.552 254.654 148.832 254.812C149.122 254.962 149.35 255.176 149.518 255.456C149.686 255.727 149.808 256.049 149.882 256.422C149.957 256.796 149.994 257.202 149.994 257.64V262.008ZM155.844 262.148C155.247 262.148 154.715 261.999 154.248 261.7C153.781 261.402 153.413 261.024 153.142 260.566V264.99H151.91V254.7H153.002V256.072C153.291 255.624 153.669 255.265 154.136 254.994C154.603 254.714 155.111 254.574 155.662 254.574C156.166 254.574 156.628 254.677 157.048 254.882C157.468 255.088 157.832 255.368 158.14 255.722C158.448 256.077 158.686 256.483 158.854 256.94C159.031 257.388 159.12 257.86 159.12 258.354C159.12 259.045 158.98 259.68 158.7 260.258C158.429 260.837 158.047 261.299 157.552 261.644C157.057 261.98 156.488 262.148 155.844 262.148ZM155.466 261.084C155.83 261.084 156.157 261.01 156.446 260.86C156.745 260.702 156.997 260.496 157.202 260.244C157.417 259.983 157.58 259.689 157.692 259.362C157.804 259.036 157.86 258.7 157.86 258.354C157.86 257.99 157.795 257.645 157.664 257.318C157.543 256.992 157.365 256.702 157.132 256.45C156.908 256.198 156.642 256.002 156.334 255.862C156.035 255.713 155.709 255.638 155.354 255.638C155.13 255.638 154.897 255.68 154.654 255.764C154.421 255.848 154.197 255.97 153.982 256.128C153.767 256.278 153.585 256.45 153.436 256.646C153.287 256.842 153.189 257.052 153.142 257.276V259.362C153.282 259.68 153.469 259.969 153.702 260.23C153.935 260.492 154.206 260.702 154.514 260.86C154.822 261.01 155.139 261.084 155.466 261.084ZM163.825 262.148C163.274 262.148 162.775 262.05 162.327 261.854C161.879 261.649 161.491 261.374 161.165 261.028C160.838 260.674 160.586 260.268 160.409 259.81C160.231 259.353 160.143 258.872 160.143 258.368C160.143 257.855 160.231 257.37 160.409 256.912C160.586 256.455 160.838 256.054 161.165 255.708C161.491 255.354 161.879 255.078 162.327 254.882C162.784 254.677 163.283 254.574 163.825 254.574C164.375 254.574 164.875 254.677 165.323 254.882C165.771 255.078 166.158 255.354 166.485 255.708C166.821 256.054 167.077 256.455 167.255 256.912C167.432 257.37 167.521 257.855 167.521 258.368C167.521 258.872 167.432 259.353 167.255 259.81C167.077 260.268 166.825 260.674 166.499 261.028C166.172 261.374 165.78 261.649 165.323 261.854C164.875 262.05 164.375 262.148 163.825 262.148ZM161.403 258.382C161.403 258.886 161.51 259.344 161.725 259.754C161.949 260.165 162.243 260.492 162.607 260.734C162.971 260.968 163.377 261.084 163.825 261.084C164.273 261.084 164.679 260.963 165.043 260.72C165.416 260.478 165.71 260.151 165.925 259.74C166.149 259.32 166.261 258.858 166.261 258.354C166.261 257.85 166.149 257.393 165.925 256.982C165.71 256.572 165.416 256.245 165.043 256.002C164.679 255.76 164.273 255.638 163.825 255.638C163.377 255.638 162.971 255.764 162.607 256.016C162.243 256.259 161.949 256.586 161.725 256.996C161.51 257.407 161.403 257.869 161.403 258.382ZM172.878 255.778C172.262 255.788 171.716 255.946 171.24 256.254C170.773 256.553 170.442 256.968 170.246 257.5V262.008H169.014V254.7H170.162V256.394C170.414 255.89 170.745 255.484 171.156 255.176C171.576 254.859 172.014 254.682 172.472 254.644C172.565 254.644 172.644 254.644 172.71 254.644C172.775 254.644 172.831 254.649 172.878 254.658V255.778ZM172.511 262.008V260.44H173.547V262.008H172.511ZM175.341 262.008V260.44H176.377V262.008H175.341ZM178.171 262.008V260.44H179.207V262.008H178.171Z" fill="#777777"/>
<path d="M47.5359 304.038L47.4099 301.266L54.0159 294.408H56.6439L51.1539 300.24L49.8579 301.662L47.5359 304.038ZM45.4479 307.008V294.408H47.7879V307.008H45.4479ZM54.2319 307.008L49.4079 301.266L50.9559 299.556L56.9679 307.008H54.2319ZM63.6409 297.288C64.4089 297.288 65.0929 297.438 65.6929 297.738C66.3049 298.038 66.7849 298.5 67.1329 299.124C67.4809 299.736 67.6549 300.528 67.6549 301.5V307.008H65.4049V301.788C65.4049 300.936 65.2009 300.3 64.7929 299.88C64.3969 299.46 63.8389 299.25 63.1189 299.25C62.5909 299.25 62.1229 299.358 61.7149 299.574C61.3069 299.79 60.9889 300.114 60.7609 300.546C60.5449 300.966 60.4369 301.5 60.4369 302.148V307.008H58.1869V297.396H60.3289V299.988L59.9509 299.196C60.2869 298.584 60.7729 298.116 61.4089 297.792C62.0569 297.456 62.8009 297.288 63.6409 297.288ZM74.8468 307.134C73.8628 307.134 72.9868 306.924 72.2188 306.504C71.4508 306.072 70.8448 305.484 70.4008 304.74C69.9568 303.996 69.7348 303.15 69.7348 302.202C69.7348 301.242 69.9568 300.396 70.4008 299.664C70.8448 298.92 71.4508 298.338 72.2188 297.918C72.9868 297.498 73.8628 297.288 74.8468 297.288C75.8428 297.288 76.7248 297.498 77.4928 297.918C78.2728 298.338 78.8788 298.914 79.3108 299.646C79.7548 300.378 79.9768 301.23 79.9768 302.202C79.9768 303.15 79.7548 303.996 79.3108 304.74C78.8788 305.484 78.2728 306.072 77.4928 306.504C76.7248 306.924 75.8428 307.134 74.8468 307.134ZM74.8468 305.208C75.3988 305.208 75.8908 305.088 76.3228 304.848C76.7548 304.608 77.0908 304.26 77.3308 303.804C77.5828 303.348 77.7088 302.814 77.7088 302.202C77.7088 301.578 77.5828 301.044 77.3308 300.6C77.0908 300.144 76.7548 299.796 76.3228 299.556C75.8908 299.316 75.4048 299.196 74.8648 299.196C74.3128 299.196 73.8208 299.316 73.3888 299.556C72.9688 299.796 72.6328 300.144 72.3808 300.6C72.1288 301.044 72.0028 301.578 72.0028 302.202C72.0028 302.814 72.1288 303.348 72.3808 303.804C72.6328 304.26 72.9688 304.608 73.3888 304.848C73.8208 305.088 74.3068 305.208 74.8468 305.208ZM83.9887 307.008L80.4607 297.396H82.5847L85.6087 305.874H84.6007L87.7687 297.396H89.6587L92.7367 305.874H91.7467L94.8607 297.396H96.8587L93.3127 307.008H91.1527L88.3447 299.502H89.0107L86.1487 307.008H83.9887ZM103.596 307.008V294.408H105.522L111.03 303.606H110.022L115.44 294.408H117.366L117.384 307.008H115.17L115.152 297.882H115.62L111.012 305.568H109.968L105.288 297.882H105.828V307.008H103.596ZM124.892 307.134C123.908 307.134 123.032 306.924 122.264 306.504C121.496 306.072 120.89 305.484 120.446 304.74C120.002 303.996 119.78 303.15 119.78 302.202C119.78 301.242 120.002 300.396 120.446 299.664C120.89 298.92 121.496 298.338 122.264 297.918C123.032 297.498 123.908 297.288 124.892 297.288C125.888 297.288 126.77 297.498 127.538 297.918C128.318 298.338 128.924 298.914 129.356 299.646C129.8 300.378 130.022 301.23 130.022 302.202C130.022 303.15 129.8 303.996 129.356 304.74C128.924 305.484 128.318 306.072 127.538 306.504C126.77 306.924 125.888 307.134 124.892 307.134ZM124.892 305.208C125.444 305.208 125.936 305.088 126.368 304.848C126.8 304.608 127.136 304.26 127.376 303.804C127.628 303.348 127.754 302.814 127.754 302.202C127.754 301.578 127.628 301.044 127.376 300.6C127.136 300.144 126.8 299.796 126.368 299.556C125.936 299.316 125.45 299.196 124.91 299.196C124.358 299.196 123.866 299.316 123.434 299.556C123.014 299.796 122.678 300.144 122.426 300.6C122.174 301.044 122.048 301.578 122.048 302.202C122.048 302.814 122.174 303.348 122.426 303.804C122.678 304.26 123.014 304.608 123.434 304.848C123.866 305.088 124.352 305.208 124.892 305.208ZM132.173 307.008V297.396H134.315V300.042L134.063 299.268C134.351 298.62 134.801 298.128 135.413 297.792C136.037 297.456 136.811 297.288 137.735 297.288V299.43C137.639 299.406 137.549 299.394 137.465 299.394C137.381 299.382 137.297 299.376 137.213 299.376C136.361 299.376 135.683 299.628 135.179 300.132C134.675 300.624 134.423 301.362 134.423 302.346V307.008H132.173ZM144.074 307.134C143.006 307.134 142.07 306.924 141.266 306.504C140.474 306.072 139.856 305.484 139.412 304.74C138.98 303.996 138.764 303.15 138.764 302.202C138.764 301.242 138.974 300.396 139.394 299.664C139.826 298.92 140.414 298.338 141.158 297.918C141.914 297.498 142.772 297.288 143.732 297.288C144.668 297.288 145.502 297.492 146.234 297.9C146.966 298.308 147.542 298.884 147.962 299.628C148.382 300.372 148.592 301.248 148.592 302.256C148.592 302.352 148.586 302.46 148.574 302.58C148.574 302.7 148.568 302.814 148.556 302.922H140.546V301.428H147.368L146.486 301.896C146.498 301.344 146.384 300.858 146.144 300.438C145.904 300.018 145.574 299.688 145.154 299.448C144.746 299.208 144.272 299.088 143.732 299.088C143.18 299.088 142.694 299.208 142.274 299.448C141.866 299.688 141.542 300.024 141.302 300.456C141.074 300.876 140.96 301.374 140.96 301.95V302.31C140.96 302.886 141.092 303.396 141.356 303.84C141.62 304.284 141.992 304.626 142.472 304.866C142.952 305.106 143.504 305.226 144.128 305.226C144.668 305.226 145.154 305.142 145.586 304.974C146.018 304.806 146.402 304.542 146.738 304.182L147.944 305.568C147.512 306.072 146.966 306.462 146.306 306.738C145.658 307.002 144.914 307.134 144.074 307.134Z" fill="#4A60A1"/>
<path d="M165.146 294.557C164.876 294.824 164.85 295.245 165.072 295.541L165.138 295.618L169.714 300.258L158.006 300.258C157.592 300.258 157.256 300.594 157.256 301.008C157.256 301.391 157.542 301.706 157.912 301.752L158.006 301.758H169.714L165.138 306.398C164.872 306.669 164.852 307.09 165.078 307.383L165.146 307.459C165.416 307.726 165.838 307.745 166.13 307.519L166.207 307.451L172.04 301.535C172.304 301.267 172.326 300.851 172.106 300.558L172.04 300.482L166.207 294.565C165.916 294.27 165.441 294.267 165.146 294.557Z" fill="#00B377"/>
<g clip-path="url(#clip0_773_470)">
<path d="M59.1303 116.801L77.6868 126.892L105.508 111.755L77.6868 96.6187L49.866 111.755H77.6868V116.801H59.1303ZM49.866 116.801V136.983L55.4301 131.382V119.828L49.866 116.801ZM77.6868 147.074L63.7764 139.505L58.2122 136.478V121.342L77.6868 131.937L97.1613 121.342V136.478L77.6868 147.074Z" fill="#0B1C98"/>
</g>
<defs>
<filter id="filter0_d_773_470" x="0.755859" y="0.00830078" width="290" height="377.979" filterUnits="userSpaceOnUse" color-interpolation-filters="sRGB">
<feFlood flood-opacity="0" result="BackgroundImageFix"/>
<feColorMatrix in="SourceAlpha" type="matrix" values="0 0 0 0 0 0 0 0 0 0 0 0 0 0 0 0 0 0 127 0" result="hardAlpha"/>
<feOffset/>
<feGaussianBlur stdDeviation="10"/>
<feComposite in2="hardAlpha" operator="out"/>
<feColorMatrix type="matrix" values="0 0 0 0 0.768627 0 0 0 0 0.768627 0 0 0 0 0.768627 0 0 0 0.15 0"/>
<feBlend mode="normal" in2="BackgroundImageFix" result="effect1_dropShadow_773_470"/>
<feBlend mode="normal" in="SourceGraphic" in2="effect1_dropShadow_773_470" result="shape"/>
</filter>
<clipPath id="clip0_773_470">
<rect width="55.6416" height="50.4551" fill="white" transform="translate(49.866 96.6187)"/>
</clipPath>
</defs>
</svg>
