<svg width="291" height="378" viewBox="0 0 291 378" fill="none" xmlns="http://www.w3.org/2000/svg">
<g filter="url(#filter0_d_773_473)">
<rect x="20.2744" y="20.0083" width="250" height="337.979" rx="12" fill="white"/>
<rect x="20.7744" y="20.5083" width="249" height="336.979" rx="11.5" stroke="black"/>
</g>
<path d="M46.0944 192.168C45.6811 192.168 45.3611 192.055 45.1344 191.828C44.9211 191.588 44.8144 191.262 44.8144 190.848V179.068C44.8144 178.642 44.9211 178.315 45.1344 178.088C45.3611 177.862 45.6811 177.748 46.0944 177.748C46.5077 177.748 46.8211 177.862 47.0344 178.088C47.2611 178.315 47.3744 178.642 47.3744 179.068V190.848C47.3744 191.262 47.2677 191.588 47.0544 191.828C46.8411 192.055 46.5211 192.168 46.0944 192.168ZM55.1389 192.168C54.7256 192.168 54.4056 192.055 54.1789 191.828C53.9656 191.588 53.8589 191.262 53.8589 190.848V180.048H49.9589C49.6123 180.048 49.3389 179.955 49.1389 179.768C48.9523 179.568 48.8589 179.302 48.8589 178.968C48.8589 178.622 48.9523 178.362 49.1389 178.188C49.3389 178.002 49.6123 177.908 49.9589 177.908H60.3189C60.6656 177.908 60.9323 178.002 61.1189 178.188C61.3189 178.362 61.4189 178.622 61.4189 178.968C61.4189 179.302 61.3189 179.568 61.1189 179.768C60.9323 179.955 60.6656 180.048 60.3189 180.048H56.4189V190.848C56.4189 191.262 56.3123 191.588 56.0989 191.828C55.8856 192.055 55.5656 192.168 55.1389 192.168Z" fill="#212D4D"/>
<path d="M44.4644 220.008V210.068H45.7244V218.888H51.2684V220.008H44.4644ZM55.5268 220.148C54.9762 220.148 54.4768 220.05 54.0288 219.854C53.5808 219.649 53.1935 219.374 52.8668 219.028C52.5402 218.674 52.2882 218.268 52.1108 217.81C51.9335 217.353 51.8448 216.872 51.8448 216.368C51.8448 215.855 51.9335 215.37 52.1108 214.912C52.2882 214.455 52.5402 214.054 52.8668 213.708C53.1935 213.354 53.5808 213.078 54.0288 212.882C54.4862 212.677 54.9855 212.574 55.5268 212.574C56.0775 212.574 56.5768 212.677 57.0248 212.882C57.4728 213.078 57.8602 213.354 58.1868 213.708C58.5228 214.054 58.7795 214.455 58.9568 214.912C59.1342 215.37 59.2228 215.855 59.2228 216.368C59.2228 216.872 59.1342 217.353 58.9568 217.81C58.7795 218.268 58.5275 218.674 58.2008 219.028C57.8742 219.374 57.4822 219.649 57.0248 219.854C56.5768 220.05 56.0775 220.148 55.5268 220.148ZM53.1048 216.382C53.1048 216.886 53.2122 217.344 53.4268 217.754C53.6508 218.165 53.9448 218.492 54.3088 218.734C54.6728 218.968 55.0788 219.084 55.5268 219.084C55.9748 219.084 56.3808 218.963 56.7448 218.72C57.1182 218.478 57.4122 218.151 57.6268 217.74C57.8508 217.32 57.9628 216.858 57.9628 216.354C57.9628 215.85 57.8508 215.393 57.6268 214.982C57.4122 214.572 57.1182 214.245 56.7448 214.002C56.3808 213.76 55.9748 213.638 55.5268 213.638C55.0788 213.638 54.6728 213.764 54.3088 214.016C53.9448 214.259 53.6508 214.586 53.4268 214.996C53.2122 215.407 53.1048 215.869 53.1048 216.382ZM64.5797 213.778C63.9637 213.788 63.4177 213.946 62.9417 214.254C62.475 214.553 62.1437 214.968 61.9477 215.5V220.008H60.7157V212.7H61.8637V214.394C62.1157 213.89 62.447 213.484 62.8577 213.176C63.2777 212.859 63.7163 212.682 64.1737 212.644C64.267 212.644 64.3463 212.644 64.4117 212.644C64.477 212.644 64.533 212.649 64.5797 212.658V213.778ZM68.8579 220.148C68.3072 220.148 67.8032 220.05 67.3459 219.854C66.8979 219.649 66.5059 219.374 66.1699 219.028C65.8432 218.674 65.5865 218.268 65.3999 217.81C65.2225 217.353 65.1339 216.868 65.1339 216.354C65.1339 215.664 65.2925 215.034 65.6099 214.464C65.9272 213.895 66.3659 213.438 66.9259 213.092C67.4952 212.747 68.1439 212.574 68.8719 212.574C69.6092 212.574 70.2485 212.752 70.7899 213.106C71.3405 213.452 71.7652 213.909 72.0639 214.478C72.3719 215.038 72.5259 215.645 72.5259 216.298C72.5259 216.392 72.5212 216.485 72.5119 216.578C72.5119 216.662 72.5072 216.728 72.4979 216.774H66.4359C66.4732 217.25 66.6039 217.675 66.8279 218.048C67.0612 218.412 67.3599 218.702 67.7239 218.916C68.0879 219.122 68.4799 219.224 68.8999 219.224C69.3479 219.224 69.7679 219.112 70.1599 218.888C70.5612 218.664 70.8365 218.37 70.9859 218.006L72.0499 218.3C71.8912 218.655 71.6532 218.972 71.3359 219.252C71.0279 219.532 70.6592 219.752 70.2299 219.91C69.8099 220.069 69.3525 220.148 68.8579 220.148ZM66.3939 215.92H71.3779C71.3405 215.444 71.2052 215.024 70.9719 214.66C70.7385 214.296 70.4399 214.012 70.0759 213.806C69.7119 213.601 69.3105 213.498 68.8719 213.498C68.4425 213.498 68.0459 213.601 67.6819 213.806C67.3179 214.012 67.0192 214.296 66.7859 214.66C66.5619 215.024 66.4312 215.444 66.3939 215.92ZM84.9134 220.008H83.6814V215.92C83.6814 215.155 83.5554 214.59 83.3034 214.226C83.0607 213.862 82.6967 213.68 82.2114 213.68C81.7167 213.68 81.2687 213.862 80.8674 214.226C80.466 214.581 80.1814 215.043 80.0134 215.612V220.008H78.7814V215.92C78.7814 215.146 78.66 214.581 78.4174 214.226C78.1747 213.862 77.8107 213.68 77.3254 213.68C76.84 213.68 76.392 213.858 75.9814 214.212C75.58 214.558 75.2954 215.02 75.1274 215.598V220.008H73.8954V212.7H75.0154V214.268C75.314 213.727 75.7014 213.312 76.1774 213.022C76.6534 212.724 77.19 212.574 77.7874 212.574C78.394 212.574 78.8794 212.742 79.2434 213.078C79.6074 213.405 79.8314 213.83 79.9154 214.352C80.242 213.774 80.6387 213.335 81.1054 213.036C81.572 212.728 82.104 212.574 82.7014 212.574C83.1214 212.574 83.4714 212.654 83.7514 212.812C84.0407 212.962 84.2694 213.176 84.4374 213.456C84.6054 213.727 84.7267 214.049 84.8014 214.422C84.876 214.796 84.9134 215.202 84.9134 215.64V220.008ZM90.37 220.008V212.7H91.602V220.008H90.37ZM90.37 211.328V209.788H91.602V211.328H90.37ZM97.5305 220.148C96.9332 220.148 96.4012 219.999 95.9345 219.7C95.4679 219.402 95.0992 219.024 94.8285 218.566V222.99H93.5965V212.7H94.6885V214.072C94.9779 213.624 95.3559 213.265 95.8225 212.994C96.2892 212.714 96.7979 212.574 97.3485 212.574C97.8525 212.574 98.3145 212.677 98.7345 212.882C99.1545 213.088 99.5185 213.368 99.8265 213.722C100.135 214.077 100.373 214.483 100.541 214.94C100.718 215.388 100.807 215.86 100.807 216.354C100.807 217.045 100.667 217.68 100.387 218.258C100.116 218.837 99.7332 219.299 99.2385 219.644C98.7439 219.98 98.1745 220.148 97.5305 220.148ZM97.1525 219.084C97.5165 219.084 97.8432 219.01 98.1325 218.86C98.4312 218.702 98.6832 218.496 98.8885 218.244C99.1032 217.983 99.2665 217.689 99.3785 217.362C99.4905 217.036 99.5465 216.7 99.5465 216.354C99.5465 215.99 99.4812 215.645 99.3505 215.318C99.2292 214.992 99.0519 214.702 98.8185 214.45C98.5945 214.198 98.3285 214.002 98.0205 213.862C97.7219 213.713 97.3952 213.638 97.0405 213.638C96.8165 213.638 96.5832 213.68 96.3405 213.764C96.1072 213.848 95.8832 213.97 95.6685 214.128C95.4539 214.278 95.2719 214.45 95.1225 214.646C94.9732 214.842 94.8752 215.052 94.8285 215.276V217.362C94.9685 217.68 95.1552 217.969 95.3885 218.23C95.6219 218.492 95.8925 218.702 96.2005 218.86C96.5085 219.01 96.8259 219.084 97.1525 219.084ZM104.825 220.148C104.219 220.148 103.649 220.05 103.117 219.854C102.585 219.649 102.128 219.346 101.745 218.944L102.221 218.076C102.641 218.468 103.061 218.748 103.481 218.916C103.901 219.084 104.331 219.168 104.769 219.168C105.273 219.168 105.684 219.075 106.001 218.888C106.319 218.692 106.477 218.408 106.477 218.034C106.477 217.764 106.393 217.563 106.225 217.432C106.067 217.302 105.838 217.194 105.539 217.11C105.241 217.017 104.886 216.914 104.475 216.802C103.971 216.653 103.547 216.494 103.201 216.326C102.856 216.158 102.595 215.948 102.417 215.696C102.24 215.444 102.151 215.127 102.151 214.744C102.151 214.278 102.273 213.886 102.515 213.568C102.758 213.242 103.089 212.994 103.509 212.826C103.939 212.658 104.424 212.574 104.965 212.574C105.507 212.574 105.997 212.658 106.435 212.826C106.874 212.994 107.252 213.242 107.569 213.568L107.009 214.422C106.72 214.124 106.403 213.904 106.057 213.764C105.712 213.615 105.325 213.54 104.895 213.54C104.643 213.54 104.396 213.573 104.153 213.638C103.911 213.694 103.71 213.802 103.551 213.96C103.393 214.11 103.313 214.324 103.313 214.604C103.313 214.838 103.374 215.024 103.495 215.164C103.626 215.295 103.813 215.407 104.055 215.5C104.307 215.594 104.611 215.696 104.965 215.808C105.516 215.967 105.992 216.126 106.393 216.284C106.804 216.443 107.121 216.648 107.345 216.9C107.569 217.152 107.681 217.502 107.681 217.95C107.681 218.641 107.42 219.182 106.897 219.574C106.375 219.957 105.684 220.148 104.825 220.148ZM109.085 217.082V212.7H110.317V216.844C110.317 217.591 110.448 218.151 110.709 218.524C110.97 218.898 111.358 219.084 111.871 219.084C112.207 219.084 112.529 219.014 112.837 218.874C113.154 218.725 113.439 218.515 113.691 218.244C113.943 217.974 114.139 217.652 114.279 217.278V212.7H115.511V218.608C115.511 218.758 115.539 218.87 115.595 218.944C115.66 219.01 115.763 219.047 115.903 219.056V220.008C115.763 220.027 115.651 220.036 115.567 220.036C115.492 220.046 115.418 220.05 115.343 220.05C115.11 220.05 114.909 219.98 114.741 219.84C114.573 219.691 114.484 219.509 114.475 219.294L114.447 218.44C114.13 218.982 113.7 219.402 113.159 219.7C112.627 219.999 112.044 220.148 111.409 220.148C110.644 220.148 110.065 219.892 109.673 219.378C109.281 218.856 109.085 218.09 109.085 217.082ZM128.581 220.008H127.349V215.92C127.349 215.155 127.223 214.59 126.971 214.226C126.729 213.862 126.365 213.68 125.879 213.68C125.385 213.68 124.937 213.862 124.535 214.226C124.134 214.581 123.849 215.043 123.681 215.612V220.008H122.449V215.92C122.449 215.146 122.328 214.581 122.085 214.226C121.843 213.862 121.479 213.68 120.993 213.68C120.508 213.68 120.06 213.858 119.649 214.212C119.248 214.558 118.963 215.02 118.795 215.598V220.008H117.563V212.7H118.683V214.268C118.982 213.727 119.369 213.312 119.845 213.022C120.321 212.724 120.858 212.574 121.455 212.574C122.062 212.574 122.547 212.742 122.911 213.078C123.275 213.405 123.499 213.83 123.583 214.352C123.91 213.774 124.307 213.335 124.773 213.036C125.24 212.728 125.772 212.574 126.369 212.574C126.789 212.574 127.139 212.654 127.419 212.812C127.709 212.962 127.937 213.176 128.105 213.456C128.273 213.727 128.395 214.049 128.469 214.422C128.544 214.796 128.581 215.202 128.581 215.64V220.008ZM133.562 216.368C133.562 215.678 133.702 215.048 133.982 214.478C134.271 213.9 134.663 213.438 135.158 213.092C135.662 212.747 136.236 212.574 136.88 212.574C137.468 212.574 137.995 212.728 138.462 213.036C138.929 213.344 139.293 213.718 139.554 214.156V209.788H140.786V218.608C140.786 218.758 140.814 218.87 140.87 218.944C140.935 219.01 141.038 219.047 141.178 219.056V220.008C140.945 220.046 140.763 220.064 140.632 220.064C140.389 220.064 140.175 219.98 139.988 219.812C139.811 219.644 139.722 219.458 139.722 219.252V218.636C139.433 219.103 139.045 219.472 138.56 219.742C138.075 220.013 137.571 220.148 137.048 220.148C136.544 220.148 136.077 220.05 135.648 219.854C135.228 219.649 134.859 219.369 134.542 219.014C134.234 218.66 133.991 218.258 133.814 217.81C133.646 217.353 133.562 216.872 133.562 216.368ZM139.554 217.446V215.346C139.442 215.029 139.26 214.744 139.008 214.492C138.756 214.231 138.471 214.026 138.154 213.876C137.846 213.718 137.538 213.638 137.23 213.638C136.866 213.638 136.535 213.718 136.236 213.876C135.947 214.026 135.695 214.231 135.48 214.492C135.275 214.744 135.116 215.034 135.004 215.36C134.892 215.687 134.836 216.028 134.836 216.382C134.836 216.746 134.897 217.092 135.018 217.418C135.149 217.745 135.326 218.034 135.55 218.286C135.783 218.538 136.049 218.734 136.348 218.874C136.656 219.014 136.987 219.084 137.342 219.084C137.566 219.084 137.795 219.042 138.028 218.958C138.271 218.874 138.499 218.758 138.714 218.608C138.929 218.459 139.111 218.286 139.26 218.09C139.409 217.885 139.507 217.67 139.554 217.446ZM146.035 220.148C145.484 220.148 144.985 220.05 144.537 219.854C144.089 219.649 143.701 219.374 143.375 219.028C143.048 218.674 142.796 218.268 142.619 217.81C142.441 217.353 142.353 216.872 142.353 216.368C142.353 215.855 142.441 215.37 142.619 214.912C142.796 214.455 143.048 214.054 143.375 213.708C143.701 213.354 144.089 213.078 144.537 212.882C144.994 212.677 145.493 212.574 146.035 212.574C146.585 212.574 147.085 212.677 147.533 212.882C147.981 213.078 148.368 213.354 148.695 213.708C149.031 214.054 149.287 214.455 149.465 214.912C149.642 215.37 149.731 215.855 149.731 216.368C149.731 216.872 149.642 217.353 149.465 217.81C149.287 218.268 149.035 218.674 148.709 219.028C148.382 219.374 147.99 219.649 147.533 219.854C147.085 220.05 146.585 220.148 146.035 220.148ZM143.613 216.382C143.613 216.886 143.72 217.344 143.935 217.754C144.159 218.165 144.453 218.492 144.817 218.734C145.181 218.968 145.587 219.084 146.035 219.084C146.483 219.084 146.889 218.963 147.253 218.72C147.626 218.478 147.92 218.151 148.135 217.74C148.359 217.32 148.471 216.858 148.471 216.354C148.471 215.85 148.359 215.393 148.135 214.982C147.92 214.572 147.626 214.245 147.253 214.002C146.889 213.76 146.483 213.638 146.035 213.638C145.587 213.638 145.181 213.764 144.817 214.016C144.453 214.259 144.159 214.586 143.935 214.996C143.72 215.407 143.613 215.869 143.613 216.382ZM151.251 209.788H152.483V218.118C152.483 218.52 152.539 218.767 152.651 218.86C152.763 218.954 152.899 219 153.057 219C153.253 219 153.44 218.982 153.617 218.944C153.795 218.898 153.944 218.851 154.065 218.804L154.261 219.812C154.056 219.896 153.813 219.966 153.533 220.022C153.253 220.078 153.006 220.106 152.791 220.106C152.315 220.106 151.937 219.971 151.657 219.7C151.387 219.43 151.251 219.052 151.251 218.566V209.788ZM158.421 220.148C157.871 220.148 157.371 220.05 156.923 219.854C156.475 219.649 156.088 219.374 155.761 219.028C155.435 218.674 155.183 218.268 155.005 217.81C154.828 217.353 154.739 216.872 154.739 216.368C154.739 215.855 154.828 215.37 155.005 214.912C155.183 214.455 155.435 214.054 155.761 213.708C156.088 213.354 156.475 213.078 156.923 212.882C157.381 212.677 157.88 212.574 158.421 212.574C158.972 212.574 159.471 212.677 159.919 212.882C160.367 213.078 160.755 213.354 161.081 213.708C161.417 214.054 161.674 214.455 161.851 214.912C162.029 215.37 162.117 215.855 162.117 216.368C162.117 216.872 162.029 217.353 161.851 217.81C161.674 218.268 161.422 218.674 161.095 219.028C160.769 219.374 160.377 219.649 159.919 219.854C159.471 220.05 158.972 220.148 158.421 220.148ZM155.999 216.382C155.999 216.886 156.107 217.344 156.321 217.754C156.545 218.165 156.839 218.492 157.203 218.734C157.567 218.968 157.973 219.084 158.421 219.084C158.869 219.084 159.275 218.963 159.639 218.72C160.013 218.478 160.307 218.151 160.521 217.74C160.745 217.32 160.857 216.858 160.857 216.354C160.857 215.85 160.745 215.393 160.521 214.982C160.307 214.572 160.013 214.245 159.639 214.002C159.275 213.76 158.869 213.638 158.421 213.638C157.973 213.638 157.567 213.764 157.203 214.016C156.839 214.259 156.545 214.586 156.321 214.996C156.107 215.407 155.999 215.869 155.999 216.382ZM167.474 213.778C166.858 213.788 166.312 213.946 165.836 214.254C165.37 214.553 165.038 214.968 164.842 215.5V220.008H163.61V212.7H164.758V214.394C165.01 213.89 165.342 213.484 165.752 213.176C166.172 212.859 166.611 212.682 167.068 212.644C167.162 212.644 167.241 212.644 167.306 212.644C167.372 212.644 167.428 212.649 167.474 212.658V213.778ZM174.415 220.148C173.808 220.148 173.239 220.05 172.707 219.854C172.175 219.649 171.718 219.346 171.335 218.944L171.811 218.076C172.231 218.468 172.651 218.748 173.071 218.916C173.491 219.084 173.92 219.168 174.359 219.168C174.863 219.168 175.274 219.075 175.591 218.888C175.908 218.692 176.067 218.408 176.067 218.034C176.067 217.764 175.983 217.563 175.815 217.432C175.656 217.302 175.428 217.194 175.129 217.11C174.83 217.017 174.476 216.914 174.065 216.802C173.561 216.653 173.136 216.494 172.791 216.326C172.446 216.158 172.184 215.948 172.007 215.696C171.83 215.444 171.741 215.127 171.741 214.744C171.741 214.278 171.862 213.886 172.105 213.568C172.348 213.242 172.679 212.994 173.099 212.826C173.528 212.658 174.014 212.574 174.555 212.574C175.096 212.574 175.586 212.658 176.025 212.826C176.464 212.994 176.842 213.242 177.159 213.568L176.599 214.422C176.31 214.124 175.992 213.904 175.647 213.764C175.302 213.615 174.914 213.54 174.485 213.54C174.233 213.54 173.986 213.573 173.743 213.638C173.5 213.694 173.3 213.802 173.141 213.96C172.982 214.11 172.903 214.324 172.903 214.604C172.903 214.838 172.964 215.024 173.085 215.164C173.216 215.295 173.402 215.407 173.645 215.5C173.897 215.594 174.2 215.696 174.555 215.808C175.106 215.967 175.582 216.126 175.983 216.284C176.394 216.443 176.711 216.648 176.935 216.9C177.159 217.152 177.271 217.502 177.271 217.95C177.271 218.641 177.01 219.182 176.487 219.574C175.964 219.957 175.274 220.148 174.415 220.148ZM178.745 220.008V212.7H179.977V220.008H178.745ZM178.745 211.328V209.788H179.977V211.328H178.745ZM185.752 219.644C185.649 219.691 185.509 219.752 185.332 219.826C185.154 219.901 184.949 219.966 184.716 220.022C184.482 220.078 184.235 220.106 183.974 220.106C183.675 220.106 183.4 220.055 183.148 219.952C182.896 219.84 182.695 219.672 182.546 219.448C182.396 219.215 182.322 218.926 182.322 218.58V213.666H181.328V212.7H182.322V210.264H183.554V212.7H185.192V213.666H183.554V218.202C183.572 218.464 183.661 218.66 183.82 218.79C183.978 218.912 184.165 218.972 184.38 218.972C184.622 218.972 184.846 218.93 185.052 218.846C185.257 218.762 185.392 218.702 185.458 218.664L185.752 219.644ZM189.86 217.894C189.86 217.428 189.991 217.026 190.252 216.69C190.523 216.345 190.892 216.079 191.358 215.892C191.825 215.706 192.366 215.612 192.982 215.612C193.309 215.612 193.654 215.64 194.018 215.696C194.382 215.743 194.704 215.818 194.984 215.92V215.388C194.984 214.828 194.816 214.39 194.48 214.072C194.144 213.746 193.668 213.582 193.052 213.582C192.651 213.582 192.264 213.657 191.89 213.806C191.526 213.946 191.139 214.152 190.728 214.422L190.28 213.554C190.756 213.228 191.232 212.985 191.708 212.826C192.184 212.658 192.679 212.574 193.192 212.574C194.126 212.574 194.863 212.836 195.404 213.358C195.946 213.872 196.216 214.59 196.216 215.514V218.608C196.216 218.758 196.244 218.87 196.3 218.944C196.366 219.01 196.468 219.047 196.608 219.056V220.008C196.487 220.027 196.38 220.041 196.286 220.05C196.202 220.06 196.132 220.064 196.076 220.064C195.787 220.064 195.568 219.985 195.418 219.826C195.278 219.668 195.199 219.5 195.18 219.322L195.152 218.86C194.835 219.271 194.42 219.588 193.906 219.812C193.393 220.036 192.884 220.148 192.38 220.148C191.895 220.148 191.461 220.05 191.078 219.854C190.696 219.649 190.397 219.378 190.182 219.042C189.968 218.697 189.86 218.314 189.86 217.894ZM194.62 218.412C194.732 218.282 194.821 218.151 194.886 218.02C194.952 217.88 194.984 217.764 194.984 217.67V216.76C194.695 216.648 194.392 216.564 194.074 216.508C193.757 216.443 193.444 216.41 193.136 216.41C192.511 216.41 192.002 216.536 191.61 216.788C191.228 217.031 191.036 217.367 191.036 217.796C191.036 218.03 191.097 218.258 191.218 218.482C191.349 218.697 191.536 218.874 191.778 219.014C192.03 219.154 192.338 219.224 192.702 219.224C193.085 219.224 193.449 219.15 193.794 219C194.14 218.842 194.415 218.646 194.62 218.412ZM209.204 220.008H207.972V215.92C207.972 215.155 207.846 214.59 207.594 214.226C207.352 213.862 206.988 213.68 206.502 213.68C206.008 213.68 205.56 213.862 205.158 214.226C204.757 214.581 204.472 215.043 204.304 215.612V220.008H203.072V215.92C203.072 215.146 202.951 214.581 202.708 214.226C202.466 213.862 202.102 213.68 201.616 213.68C201.131 213.68 200.683 213.858 200.272 214.212C199.871 214.558 199.586 215.02 199.418 215.598V220.008H198.186V212.7H199.306V214.268C199.605 213.727 199.992 213.312 200.468 213.022C200.944 212.724 201.481 212.574 202.078 212.574C202.685 212.574 203.17 212.742 203.534 213.078C203.898 213.405 204.122 213.83 204.206 214.352C204.533 213.774 204.93 213.335 205.396 213.036C205.863 212.728 206.395 212.574 206.992 212.574C207.412 212.574 207.762 212.654 208.042 212.812C208.332 212.962 208.56 213.176 208.728 213.456C208.896 213.727 209.018 214.049 209.092 214.422C209.167 214.796 209.204 215.202 209.204 215.64V220.008ZM214.354 220.148C213.803 220.148 213.299 220.05 212.842 219.854C212.394 219.649 212.002 219.374 211.666 219.028C211.339 218.674 211.083 218.268 210.896 217.81C210.719 217.353 210.63 216.868 210.63 216.354C210.63 215.664 210.789 215.034 211.106 214.464C211.423 213.895 211.862 213.438 212.422 213.092C212.991 212.747 213.64 212.574 214.368 212.574C215.105 212.574 215.745 212.752 216.286 213.106C216.837 213.452 217.261 213.909 217.56 214.478C217.868 215.038 218.022 215.645 218.022 216.298C218.022 216.392 218.017 216.485 218.008 216.578C218.008 216.662 218.003 216.728 217.994 216.774H211.932C211.969 217.25 212.1 217.675 212.324 218.048C212.557 218.412 212.856 218.702 213.22 218.916C213.584 219.122 213.976 219.224 214.396 219.224C214.844 219.224 215.264 219.112 215.656 218.888C216.057 218.664 216.333 218.37 216.482 218.006L217.546 218.3C217.387 218.655 217.149 218.972 216.832 219.252C216.524 219.532 216.155 219.752 215.726 219.91C215.306 220.069 214.849 220.148 214.354 220.148ZM211.89 215.92H216.874C216.837 215.444 216.701 215.024 216.468 214.66C216.235 214.296 215.936 214.012 215.572 213.806C215.208 213.601 214.807 213.498 214.368 213.498C213.939 213.498 213.542 213.601 213.178 213.806C212.814 214.012 212.515 214.296 212.282 214.66C212.058 215.024 211.927 215.444 211.89 215.92ZM223.103 219.644C223 219.691 222.86 219.752 222.683 219.826C222.506 219.901 222.3 219.966 222.067 220.022C221.834 220.078 221.586 220.106 221.325 220.106C221.026 220.106 220.751 220.055 220.499 219.952C220.247 219.84 220.046 219.672 219.897 219.448C219.748 219.215 219.673 218.926 219.673 218.58V213.666H218.679V212.7H219.673V210.264H220.905V212.7H222.543V213.666H220.905V218.202C220.924 218.464 221.012 218.66 221.171 218.79C221.33 218.912 221.516 218.972 221.731 218.972C221.974 218.972 222.198 218.93 222.403 218.846C222.608 218.762 222.744 218.702 222.809 218.664L223.103 219.644ZM224.287 221.142L224.567 219.896H224.147V218.44H225.309V219.896L224.889 221.142H224.287ZM47.5024 241.148C46.9517 241.148 46.4477 241.05 45.9904 240.854C45.5424 240.649 45.1504 240.369 44.8144 240.014C44.4877 239.66 44.2311 239.254 44.0444 238.796C43.8671 238.339 43.7784 237.854 43.7784 237.34C43.7784 236.65 43.9324 236.02 44.2404 235.45C44.5484 234.881 44.9824 234.428 45.5424 234.092C46.1024 233.747 46.7511 233.574 47.4884 233.574C48.2071 233.574 48.8324 233.738 49.3644 234.064C49.9057 234.382 50.3071 234.811 50.5684 235.352L49.3644 235.73C49.1777 235.385 48.9164 235.119 48.5804 234.932C48.2444 234.736 47.8711 234.638 47.4604 234.638C47.0124 234.638 46.6017 234.755 46.2284 234.988C45.8644 235.222 45.5751 235.544 45.3604 235.954C45.1457 236.356 45.0384 236.818 45.0384 237.34C45.0384 237.854 45.1457 238.32 45.3604 238.74C45.5844 239.151 45.8784 239.478 46.2424 239.72C46.6157 239.963 47.0264 240.084 47.4744 240.084C47.7637 240.084 48.0391 240.033 48.3004 239.93C48.5711 239.828 48.8044 239.692 49.0004 239.524C49.2057 239.347 49.3457 239.156 49.4204 238.95L50.6244 239.314C50.4751 239.669 50.2464 239.986 49.9384 240.266C49.6397 240.537 49.2804 240.752 48.8604 240.91C48.4497 241.069 47.9971 241.148 47.5024 241.148ZM55.144 241.148C54.5933 241.148 54.094 241.05 53.646 240.854C53.198 240.649 52.8107 240.374 52.484 240.028C52.1573 239.674 51.9053 239.268 51.728 238.81C51.5507 238.353 51.462 237.872 51.462 237.368C51.462 236.855 51.5507 236.37 51.728 235.912C51.9053 235.455 52.1573 235.054 52.484 234.708C52.8107 234.354 53.198 234.078 53.646 233.882C54.1033 233.677 54.6027 233.574 55.144 233.574C55.6947 233.574 56.194 233.677 56.642 233.882C57.09 234.078 57.4773 234.354 57.804 234.708C58.14 235.054 58.3967 235.455 58.574 235.912C58.7513 236.37 58.84 236.855 58.84 237.368C58.84 237.872 58.7513 238.353 58.574 238.81C58.3967 239.268 58.1447 239.674 57.818 240.028C57.4913 240.374 57.0993 240.649 56.642 240.854C56.194 241.05 55.6947 241.148 55.144 241.148ZM52.722 237.382C52.722 237.886 52.8293 238.344 53.044 238.754C53.268 239.165 53.562 239.492 53.926 239.734C54.29 239.968 54.696 240.084 55.144 240.084C55.592 240.084 55.998 239.963 56.362 239.72C56.7353 239.478 57.0293 239.151 57.244 238.74C57.468 238.32 57.58 237.858 57.58 237.354C57.58 236.85 57.468 236.393 57.244 235.982C57.0293 235.572 56.7353 235.245 56.362 235.002C55.998 234.76 55.592 234.638 55.144 234.638C54.696 234.638 54.29 234.764 53.926 235.016C53.562 235.259 53.268 235.586 53.044 235.996C52.8293 236.407 52.722 236.869 52.722 237.382ZM66.6749 241.008H65.4429V236.92C65.4429 236.146 65.3215 235.581 65.0789 235.226C64.8455 234.862 64.4862 234.68 64.0009 234.68C63.6649 234.68 63.3289 234.764 62.9929 234.932C62.6662 235.1 62.3722 235.329 62.1109 235.618C61.8589 235.898 61.6769 236.225 61.5649 236.598V241.008H60.3329V233.7H61.4529V235.268C61.6489 234.923 61.9009 234.624 62.2089 234.372C62.5169 234.12 62.8669 233.924 63.2589 233.784C63.6509 233.644 64.0615 233.574 64.4909 233.574C64.9109 233.574 65.2609 233.654 65.5409 233.812C65.8302 233.962 66.0542 234.176 66.2129 234.456C66.3809 234.727 66.4975 235.049 66.5629 235.422C66.6375 235.796 66.6749 236.202 66.6749 236.64V241.008ZM71.0967 241.148C70.49 241.148 69.9207 241.05 69.3887 240.854C68.8567 240.649 68.3993 240.346 68.0167 239.944L68.4927 239.076C68.9127 239.468 69.3327 239.748 69.7527 239.916C70.1727 240.084 70.602 240.168 71.0407 240.168C71.5447 240.168 71.9553 240.075 72.2727 239.888C72.59 239.692 72.7487 239.408 72.7487 239.034C72.7487 238.764 72.6647 238.563 72.4967 238.432C72.338 238.302 72.1093 238.194 71.8107 238.11C71.512 238.017 71.1573 237.914 70.7467 237.802C70.2427 237.653 69.818 237.494 69.4727 237.326C69.1273 237.158 68.866 236.948 68.6887 236.696C68.5113 236.444 68.4227 236.127 68.4227 235.744C68.4227 235.278 68.544 234.886 68.7867 234.568C69.0293 234.242 69.3607 233.994 69.7807 233.826C70.21 233.658 70.6953 233.574 71.2367 233.574C71.778 233.574 72.268 233.658 72.7067 233.826C73.1453 233.994 73.5233 234.242 73.8407 234.568L73.2807 235.422C72.9913 235.124 72.674 234.904 72.3287 234.764C71.9833 234.615 71.596 234.54 71.1667 234.54C70.9147 234.54 70.6673 234.573 70.4247 234.638C70.182 234.694 69.9813 234.802 69.8227 234.96C69.664 235.11 69.5847 235.324 69.5847 235.604C69.5847 235.838 69.6453 236.024 69.7667 236.164C69.8973 236.295 70.084 236.407 70.3267 236.5C70.5787 236.594 70.882 236.696 71.2367 236.808C71.7873 236.967 72.2633 237.126 72.6647 237.284C73.0753 237.443 73.3927 237.648 73.6167 237.9C73.8407 238.152 73.9527 238.502 73.9527 238.95C73.9527 239.641 73.6913 240.182 73.1687 240.574C72.646 240.957 71.9553 241.148 71.0967 241.148ZM78.6606 241.148C78.11 241.148 77.606 241.05 77.1486 240.854C76.7006 240.649 76.3086 240.374 75.9726 240.028C75.646 239.674 75.3893 239.268 75.2026 238.81C75.0253 238.353 74.9366 237.868 74.9366 237.354C74.9366 236.664 75.0953 236.034 75.4126 235.464C75.73 234.895 76.1686 234.438 76.7286 234.092C77.298 233.747 77.9466 233.574 78.6746 233.574C79.412 233.574 80.0513 233.752 80.5926 234.106C81.1433 234.452 81.568 234.909 81.8666 235.478C82.1746 236.038 82.3286 236.645 82.3286 237.298C82.3286 237.392 82.324 237.485 82.3146 237.578C82.3146 237.662 82.31 237.728 82.3006 237.774H76.2386C76.276 238.25 76.4066 238.675 76.6306 239.048C76.864 239.412 77.1626 239.702 77.5266 239.916C77.8906 240.122 78.2826 240.224 78.7026 240.224C79.1506 240.224 79.5706 240.112 79.9626 239.888C80.364 239.664 80.6393 239.37 80.7886 239.006L81.8526 239.3C81.694 239.655 81.456 239.972 81.1386 240.252C80.8306 240.532 80.462 240.752 80.0326 240.91C79.6126 241.069 79.1553 241.148 78.6606 241.148ZM76.1966 236.92H81.1806C81.1433 236.444 81.008 236.024 80.7746 235.66C80.5413 235.296 80.2426 235.012 79.8786 234.806C79.5146 234.601 79.1133 234.498 78.6746 234.498C78.2453 234.498 77.8486 234.601 77.4846 234.806C77.1206 235.012 76.822 235.296 76.5886 235.66C76.3646 236.024 76.234 236.444 76.1966 236.92ZM86.9321 241.148C86.3814 241.148 85.8774 241.05 85.4201 240.854C84.9721 240.649 84.5801 240.369 84.2441 240.014C83.9174 239.66 83.6608 239.254 83.4741 238.796C83.2968 238.339 83.2081 237.854 83.2081 237.34C83.2081 236.65 83.3621 236.02 83.6701 235.45C83.9781 234.881 84.4121 234.428 84.9721 234.092C85.5321 233.747 86.1808 233.574 86.9181 233.574C87.6368 233.574 88.2621 233.738 88.7941 234.064C89.3354 234.382 89.7368 234.811 89.9981 235.352L88.7941 235.73C88.6074 235.385 88.3461 235.119 88.0101 234.932C87.6741 234.736 87.3008 234.638 86.8901 234.638C86.4421 234.638 86.0314 234.755 85.6581 234.988C85.2941 235.222 85.0048 235.544 84.7901 235.954C84.5754 236.356 84.4681 236.818 84.4681 237.34C84.4681 237.854 84.5754 238.32 84.7901 238.74C85.0141 239.151 85.3081 239.478 85.6721 239.72C86.0454 239.963 86.4561 240.084 86.9041 240.084C87.1934 240.084 87.4688 240.033 87.7301 239.93C88.0008 239.828 88.2341 239.692 88.4301 239.524C88.6354 239.347 88.7754 239.156 88.8501 238.95L90.0541 239.314C89.9048 239.669 89.6761 239.986 89.3681 240.266C89.0694 240.537 88.7101 240.752 88.2901 240.91C87.8794 241.069 87.4268 241.148 86.9321 241.148ZM95.2301 240.644C95.1274 240.691 94.9874 240.752 94.8101 240.826C94.6327 240.901 94.4274 240.966 94.1941 241.022C93.9607 241.078 93.7134 241.106 93.4521 241.106C93.1534 241.106 92.8781 241.055 92.6261 240.952C92.3741 240.84 92.1734 240.672 92.0241 240.448C91.8747 240.215 91.8001 239.926 91.8001 239.58V234.666H90.8061V233.7H91.8001V231.264H93.0321V233.7H94.6701V234.666H93.0321V239.202C93.0507 239.464 93.1394 239.66 93.2981 239.79C93.4567 239.912 93.6434 239.972 93.8581 239.972C94.1007 239.972 94.3247 239.93 94.5301 239.846C94.7354 239.762 94.8707 239.702 94.9361 239.664L95.2301 240.644ZM99.5102 241.148C98.9596 241.148 98.4556 241.05 97.9982 240.854C97.5502 240.649 97.1582 240.374 96.8222 240.028C96.4956 239.674 96.2389 239.268 96.0522 238.81C95.8749 238.353 95.7862 237.868 95.7862 237.354C95.7862 236.664 95.9449 236.034 96.2622 235.464C96.5796 234.895 97.0182 234.438 97.5782 234.092C98.1476 233.747 98.7962 233.574 99.5242 233.574C100.262 233.574 100.901 233.752 101.442 234.106C101.993 234.452 102.418 234.909 102.716 235.478C103.024 236.038 103.178 236.645 103.178 237.298C103.178 237.392 103.174 237.485 103.164 237.578C103.164 237.662 103.16 237.728 103.15 237.774H97.0882C97.1256 238.25 97.2562 238.675 97.4802 239.048C97.7136 239.412 98.0122 239.702 98.3762 239.916C98.7402 240.122 99.1322 240.224 99.5522 240.224C100 240.224 100.42 240.112 100.812 239.888C101.214 239.664 101.489 239.37 101.638 239.006L102.702 239.3C102.544 239.655 102.306 239.972 101.988 240.252C101.68 240.532 101.312 240.752 100.882 240.91C100.462 241.069 100.005 241.148 99.5102 241.148ZM97.0462 236.92H102.03C101.993 236.444 101.858 236.024 101.624 235.66C101.391 235.296 101.092 235.012 100.728 234.806C100.364 234.601 99.9629 234.498 99.5242 234.498C99.0949 234.498 98.6982 234.601 98.3342 234.806C97.9702 235.012 97.6716 235.296 97.4382 235.66C97.2142 236.024 97.0836 236.444 97.0462 236.92ZM108.259 240.644C108.157 240.691 108.017 240.752 107.839 240.826C107.662 240.901 107.457 240.966 107.223 241.022C106.99 241.078 106.743 241.106 106.481 241.106C106.183 241.106 105.907 241.055 105.655 240.952C105.403 240.84 105.203 240.672 105.053 240.448C104.904 240.215 104.829 239.926 104.829 239.58V234.666H103.835V233.7H104.829V231.264H106.061V233.7H107.699V234.666H106.061V239.202C106.08 239.464 106.169 239.66 106.327 239.79C106.486 239.912 106.673 239.972 106.887 239.972C107.13 239.972 107.354 239.93 107.559 239.846C107.765 239.762 107.9 239.702 107.965 239.664L108.259 240.644ZM109.331 238.082V233.7H110.563V237.844C110.563 238.591 110.694 239.151 110.955 239.524C111.217 239.898 111.604 240.084 112.117 240.084C112.453 240.084 112.775 240.014 113.083 239.874C113.401 239.725 113.685 239.515 113.937 239.244C114.189 238.974 114.385 238.652 114.525 238.278V233.7H115.757V239.608C115.757 239.758 115.785 239.87 115.841 239.944C115.907 240.01 116.009 240.047 116.149 240.056V241.008C116.009 241.027 115.897 241.036 115.813 241.036C115.739 241.046 115.664 241.05 115.589 241.05C115.356 241.05 115.155 240.98 114.987 240.84C114.819 240.691 114.731 240.509 114.721 240.294L114.693 239.44C114.376 239.982 113.947 240.402 113.405 240.7C112.873 240.999 112.29 241.148 111.655 241.148C110.89 241.148 110.311 240.892 109.919 240.378C109.527 239.856 109.331 239.09 109.331 238.082ZM121.673 234.778C121.057 234.788 120.511 234.946 120.035 235.254C119.569 235.553 119.237 235.968 119.041 236.5V241.008H117.809V233.7H118.957V235.394C119.209 234.89 119.541 234.484 119.951 234.176C120.371 233.859 120.81 233.682 121.267 233.644C121.361 233.644 121.44 233.644 121.505 233.644C121.571 233.644 121.627 233.649 121.673 233.658V234.778ZM125.534 238.894C125.534 238.428 125.665 238.026 125.926 237.69C126.197 237.345 126.566 237.079 127.032 236.892C127.499 236.706 128.04 236.612 128.656 236.612C128.983 236.612 129.328 236.64 129.692 236.696C130.056 236.743 130.378 236.818 130.658 236.92V236.388C130.658 235.828 130.49 235.39 130.154 235.072C129.818 234.746 129.342 234.582 128.726 234.582C128.325 234.582 127.938 234.657 127.564 234.806C127.2 234.946 126.813 235.152 126.402 235.422L125.954 234.554C126.43 234.228 126.906 233.985 127.382 233.826C127.858 233.658 128.353 233.574 128.866 233.574C129.8 233.574 130.537 233.836 131.078 234.358C131.62 234.872 131.89 235.59 131.89 236.514V239.608C131.89 239.758 131.918 239.87 131.974 239.944C132.04 240.01 132.142 240.047 132.282 240.056V241.008C132.161 241.027 132.054 241.041 131.96 241.05C131.876 241.06 131.806 241.064 131.75 241.064C131.461 241.064 131.242 240.985 131.092 240.826C130.952 240.668 130.873 240.5 130.854 240.322L130.826 239.86C130.509 240.271 130.094 240.588 129.58 240.812C129.067 241.036 128.558 241.148 128.054 241.148C127.569 241.148 127.135 241.05 126.752 240.854C126.37 240.649 126.071 240.378 125.856 240.042C125.642 239.697 125.534 239.314 125.534 238.894ZM130.294 239.412C130.406 239.282 130.495 239.151 130.56 239.02C130.626 238.88 130.658 238.764 130.658 238.67V237.76C130.369 237.648 130.066 237.564 129.748 237.508C129.431 237.443 129.118 237.41 128.81 237.41C128.185 237.41 127.676 237.536 127.284 237.788C126.902 238.031 126.71 238.367 126.71 238.796C126.71 239.03 126.771 239.258 126.892 239.482C127.023 239.697 127.21 239.874 127.452 240.014C127.704 240.154 128.012 240.224 128.376 240.224C128.759 240.224 129.123 240.15 129.468 240C129.814 239.842 130.089 239.646 130.294 239.412ZM133.384 237.368C133.384 236.678 133.524 236.048 133.804 235.478C134.094 234.9 134.486 234.438 134.98 234.092C135.484 233.747 136.058 233.574 136.702 233.574C137.29 233.574 137.818 233.728 138.284 234.036C138.751 234.344 139.115 234.718 139.376 235.156V230.788H140.608V239.608C140.608 239.758 140.636 239.87 140.692 239.944C140.758 240.01 140.86 240.047 141 240.056V241.008C140.767 241.046 140.585 241.064 140.454 241.064C140.212 241.064 139.997 240.98 139.81 240.812C139.633 240.644 139.544 240.458 139.544 240.252V239.636C139.255 240.103 138.868 240.472 138.382 240.742C137.897 241.013 137.393 241.148 136.87 241.148C136.366 241.148 135.9 241.05 135.47 240.854C135.05 240.649 134.682 240.369 134.364 240.014C134.056 239.66 133.814 239.258 133.636 238.81C133.468 238.353 133.384 237.872 133.384 237.368ZM139.376 238.446V236.346C139.264 236.029 139.082 235.744 138.83 235.492C138.578 235.231 138.294 235.026 137.976 234.876C137.668 234.718 137.36 234.638 137.052 234.638C136.688 234.638 136.357 234.718 136.058 234.876C135.769 235.026 135.517 235.231 135.302 235.492C135.097 235.744 134.938 236.034 134.826 236.36C134.714 236.687 134.658 237.028 134.658 237.382C134.658 237.746 134.719 238.092 134.84 238.418C134.971 238.745 135.148 239.034 135.372 239.286C135.606 239.538 135.872 239.734 136.17 239.874C136.478 240.014 136.81 240.084 137.164 240.084C137.388 240.084 137.617 240.042 137.85 239.958C138.093 239.874 138.322 239.758 138.536 239.608C138.751 239.459 138.933 239.286 139.082 239.09C139.232 238.885 139.33 238.67 139.376 238.446ZM142.665 241.008V233.7H143.897V241.008H142.665ZM142.665 232.328V230.788H143.897V232.328H142.665ZM149.825 241.148C149.228 241.148 148.696 240.999 148.229 240.7C147.763 240.402 147.394 240.024 147.123 239.566V243.99H145.891V233.7H146.983V235.072C147.273 234.624 147.651 234.265 148.117 233.994C148.584 233.714 149.093 233.574 149.643 233.574C150.147 233.574 150.609 233.677 151.029 233.882C151.449 234.088 151.813 234.368 152.121 234.722C152.429 235.077 152.667 235.483 152.835 235.94C153.013 236.388 153.101 236.86 153.101 237.354C153.101 238.045 152.961 238.68 152.681 239.258C152.411 239.837 152.028 240.299 151.533 240.644C151.039 240.98 150.469 241.148 149.825 241.148ZM149.447 240.084C149.811 240.084 150.138 240.01 150.427 239.86C150.726 239.702 150.978 239.496 151.183 239.244C151.398 238.983 151.561 238.689 151.673 238.362C151.785 238.036 151.841 237.7 151.841 237.354C151.841 236.99 151.776 236.645 151.645 236.318C151.524 235.992 151.347 235.702 151.113 235.45C150.889 235.198 150.623 235.002 150.315 234.862C150.017 234.713 149.69 234.638 149.335 234.638C149.111 234.638 148.878 234.68 148.635 234.764C148.402 234.848 148.178 234.97 147.963 235.128C147.749 235.278 147.567 235.45 147.417 235.646C147.268 235.842 147.17 236.052 147.123 236.276V238.362C147.263 238.68 147.45 238.969 147.683 239.23C147.917 239.492 148.187 239.702 148.495 239.86C148.803 240.01 149.121 240.084 149.447 240.084ZM154.614 241.008V233.7H155.846V241.008H154.614ZM154.614 232.328V230.788H155.846V232.328H154.614ZM160.347 241.148C159.74 241.148 159.171 241.05 158.639 240.854C158.107 240.649 157.649 240.346 157.267 239.944L157.743 239.076C158.163 239.468 158.583 239.748 159.003 239.916C159.423 240.084 159.852 240.168 160.291 240.168C160.795 240.168 161.205 240.075 161.523 239.888C161.84 239.692 161.999 239.408 161.999 239.034C161.999 238.764 161.915 238.563 161.747 238.432C161.588 238.302 161.359 238.194 161.061 238.11C160.762 238.017 160.407 237.914 159.997 237.802C159.493 237.653 159.068 237.494 158.723 237.326C158.377 237.158 158.116 236.948 157.939 236.696C157.761 236.444 157.673 236.127 157.673 235.744C157.673 235.278 157.794 234.886 158.037 234.568C158.279 234.242 158.611 233.994 159.031 233.826C159.46 233.658 159.945 233.574 160.487 233.574C161.028 233.574 161.518 233.658 161.957 233.826C162.395 233.994 162.773 234.242 163.091 234.568L162.531 235.422C162.241 235.124 161.924 234.904 161.579 234.764C161.233 234.615 160.846 234.54 160.417 234.54C160.165 234.54 159.917 234.573 159.675 234.638C159.432 234.694 159.231 234.802 159.073 234.96C158.914 235.11 158.835 235.324 158.835 235.604C158.835 235.838 158.895 236.024 159.017 236.164C159.147 236.295 159.334 236.407 159.577 236.5C159.829 236.594 160.132 236.696 160.487 236.808C161.037 236.967 161.513 237.126 161.915 237.284C162.325 237.443 162.643 237.648 162.867 237.9C163.091 238.152 163.203 238.502 163.203 238.95C163.203 239.641 162.941 240.182 162.419 240.574C161.896 240.957 161.205 241.148 160.347 241.148ZM167.911 241.148C167.36 241.148 166.856 241.05 166.399 240.854C165.951 240.649 165.559 240.369 165.223 240.014C164.896 239.66 164.639 239.254 164.453 238.796C164.275 238.339 164.187 237.854 164.187 237.34C164.187 236.65 164.341 236.02 164.649 235.45C164.957 234.881 165.391 234.428 165.951 234.092C166.511 233.747 167.159 233.574 167.897 233.574C168.615 233.574 169.241 233.738 169.773 234.064C170.314 234.382 170.715 234.811 170.977 235.352L169.773 235.73C169.586 235.385 169.325 235.119 168.989 234.932C168.653 234.736 168.279 234.638 167.869 234.638C167.421 234.638 167.01 234.755 166.637 234.988C166.273 235.222 165.983 235.544 165.769 235.954C165.554 236.356 165.447 236.818 165.447 237.34C165.447 237.854 165.554 238.32 165.769 238.74C165.993 239.151 166.287 239.478 166.651 239.72C167.024 239.963 167.435 240.084 167.883 240.084C168.172 240.084 168.447 240.033 168.709 239.93C168.979 239.828 169.213 239.692 169.409 239.524C169.614 239.347 169.754 239.156 169.829 238.95L171.033 239.314C170.883 239.669 170.655 239.986 170.347 240.266C170.048 240.537 169.689 240.752 169.269 240.91C168.858 241.069 168.405 241.148 167.911 241.148ZM172.429 241.008V233.7H173.661V241.008H172.429ZM172.429 232.328V230.788H173.661V232.328H172.429ZM181.997 241.008H180.765V236.92C180.765 236.146 180.644 235.581 180.401 235.226C180.168 234.862 179.808 234.68 179.323 234.68C178.987 234.68 178.651 234.764 178.315 234.932C177.988 235.1 177.694 235.329 177.433 235.618C177.181 235.898 176.999 236.225 176.887 236.598V241.008H175.655V233.7H176.775V235.268C176.971 234.923 177.223 234.624 177.531 234.372C177.839 234.12 178.189 233.924 178.581 233.784C178.973 233.644 179.384 233.574 179.813 233.574C180.233 233.574 180.583 233.654 180.863 233.812C181.152 233.962 181.376 234.176 181.535 234.456C181.703 234.727 181.82 235.049 181.885 235.422C181.96 235.796 181.997 236.202 181.997 236.64V241.008ZM186.825 241.092C186.33 241.092 185.873 240.994 185.453 240.798C185.042 240.593 184.688 240.318 184.389 239.972C184.09 239.618 183.857 239.216 183.689 238.768C183.53 238.32 183.451 237.854 183.451 237.368C183.451 236.855 183.53 236.37 183.689 235.912C183.857 235.455 184.09 235.054 184.389 234.708C184.697 234.354 185.056 234.078 185.467 233.882C185.878 233.677 186.335 233.574 186.839 233.574C187.446 233.574 187.973 233.724 188.421 234.022C188.878 234.321 189.261 234.699 189.569 235.156V233.7H190.661V240.924C190.661 241.615 190.493 242.198 190.157 242.674C189.83 243.15 189.382 243.51 188.813 243.752C188.253 244.004 187.628 244.13 186.937 244.13C186.116 244.13 185.444 243.986 184.921 243.696C184.398 243.407 183.964 243.015 183.619 242.52L184.333 241.89C184.622 242.32 184.996 242.642 185.453 242.856C185.92 243.071 186.414 243.178 186.937 243.178C187.385 243.178 187.796 243.094 188.169 242.926C188.552 242.768 188.855 242.52 189.079 242.184C189.312 241.848 189.429 241.428 189.429 240.924V239.636C189.158 240.084 188.785 240.439 188.309 240.7C187.842 240.962 187.348 241.092 186.825 241.092ZM187.203 240.084C187.464 240.084 187.716 240.038 187.959 239.944C188.202 239.851 188.426 239.73 188.631 239.58C188.836 239.422 189.009 239.244 189.149 239.048C189.289 238.852 189.382 238.652 189.429 238.446V236.346C189.298 236.01 189.112 235.716 188.869 235.464C188.626 235.203 188.351 235.002 188.043 234.862C187.735 234.713 187.418 234.638 187.091 234.638C186.718 234.638 186.382 234.718 186.083 234.876C185.794 235.035 185.546 235.25 185.341 235.52C185.136 235.782 184.977 236.076 184.865 236.402C184.753 236.729 184.697 237.06 184.697 237.396C184.697 237.76 184.762 238.106 184.893 238.432C185.024 238.75 185.201 239.034 185.425 239.286C185.649 239.538 185.915 239.734 186.223 239.874C186.531 240.014 186.858 240.084 187.203 240.084ZM199.424 241.148C198.874 241.148 198.37 241.05 197.912 240.854C197.464 240.649 197.072 240.374 196.736 240.028C196.41 239.674 196.153 239.268 195.966 238.81C195.789 238.353 195.7 237.868 195.7 237.354C195.7 236.664 195.859 236.034 196.176 235.464C196.494 234.895 196.932 234.438 197.492 234.092C198.062 233.747 198.71 233.574 199.438 233.574C200.176 233.574 200.815 233.752 201.356 234.106C201.907 234.452 202.332 234.909 202.63 235.478C202.938 236.038 203.092 236.645 203.092 237.298C203.092 237.392 203.088 237.485 203.078 237.578C203.078 237.662 203.074 237.728 203.064 237.774H197.002C197.04 238.25 197.17 238.675 197.394 239.048C197.628 239.412 197.926 239.702 198.29 239.916C198.654 240.122 199.046 240.224 199.466 240.224C199.914 240.224 200.334 240.112 200.726 239.888C201.128 239.664 201.403 239.37 201.552 239.006L202.616 239.3C202.458 239.655 202.22 239.972 201.902 240.252C201.594 240.532 201.226 240.752 200.796 240.91C200.376 241.069 199.919 241.148 199.424 241.148ZM196.96 236.92H201.944C201.907 236.444 201.772 236.024 201.538 235.66C201.305 235.296 201.006 235.012 200.642 234.806C200.278 234.601 199.877 234.498 199.438 234.498C199.009 234.498 198.612 234.601 198.248 234.806C197.884 235.012 197.586 235.296 197.352 235.66C197.128 236.024 196.998 236.444 196.96 236.92ZM204.49 230.788H205.722V239.118C205.722 239.52 205.778 239.767 205.89 239.86C206.002 239.954 206.137 240 206.296 240C206.492 240 206.678 239.982 206.856 239.944C207.033 239.898 207.182 239.851 207.304 239.804L207.5 240.812C207.294 240.896 207.052 240.966 206.772 241.022C206.492 241.078 206.244 241.106 206.03 241.106C205.554 241.106 205.176 240.971 204.896 240.7C204.625 240.43 204.49 240.052 204.49 239.566V230.788ZM208.468 241.008V233.7H209.7V241.008H208.468ZM208.468 232.328V230.788H209.7V232.328H208.468ZM215.474 240.644C215.372 240.691 215.232 240.752 215.054 240.826C214.877 240.901 214.672 240.966 214.438 241.022C214.205 241.078 213.958 241.106 213.696 241.106C213.398 241.106 213.122 241.055 212.87 240.952C212.618 240.84 212.418 240.672 212.268 240.448C212.119 240.215 212.044 239.926 212.044 239.58V234.666H211.05V233.7H212.044V231.264H213.276V233.7H214.914V234.666H213.276V239.202C213.295 239.464 213.384 239.66 213.542 239.79C213.701 239.912 213.888 239.972 214.102 239.972C214.345 239.972 214.569 239.93 214.774 239.846C214.98 239.762 215.115 239.702 215.18 239.664L215.474 240.644ZM216.658 242.142L216.938 240.896H216.518V239.44H217.68V240.896L217.26 242.142H216.658ZM225.616 241.148C225.01 241.148 224.44 241.05 223.908 240.854C223.376 240.649 222.919 240.346 222.536 239.944L223.012 239.076C223.432 239.468 223.852 239.748 224.272 239.916C224.692 240.084 225.122 240.168 225.56 240.168C226.064 240.168 226.475 240.075 226.792 239.888C227.11 239.692 227.268 239.408 227.268 239.034C227.268 238.764 227.184 238.563 227.016 238.432C226.858 238.302 226.629 238.194 226.33 238.11C226.032 238.017 225.677 237.914 225.266 237.802C224.762 237.653 224.338 237.494 223.992 237.326C223.647 237.158 223.386 236.948 223.208 236.696C223.031 236.444 222.942 236.127 222.942 235.744C222.942 235.278 223.064 234.886 223.306 234.568C223.549 234.242 223.88 233.994 224.3 233.826C224.73 233.658 225.215 233.574 225.756 233.574C226.298 233.574 226.788 233.658 227.226 233.826C227.665 233.994 228.043 234.242 228.36 234.568L227.8 235.422C227.511 235.124 227.194 234.904 226.848 234.764C226.503 234.615 226.116 234.54 225.686 234.54C225.434 234.54 225.187 234.573 224.944 234.638C224.702 234.694 224.501 234.802 224.342 234.96C224.184 235.11 224.104 235.324 224.104 235.604C224.104 235.838 224.165 236.024 224.286 236.164C224.417 236.295 224.604 236.407 224.846 236.5C225.098 236.594 225.402 236.696 225.756 236.808C226.307 236.967 226.783 237.126 227.184 237.284C227.595 237.443 227.912 237.648 228.136 237.9C228.36 238.152 228.472 238.502 228.472 238.95C228.472 239.641 228.211 240.182 227.688 240.574C227.166 240.957 226.475 241.148 225.616 241.148ZM233.18 241.148C232.629 241.148 232.125 241.05 231.668 240.854C231.22 240.649 230.828 240.374 230.492 240.028C230.165 239.674 229.909 239.268 229.722 238.81C229.545 238.353 229.456 237.868 229.456 237.354C229.456 236.664 229.615 236.034 229.932 235.464C230.249 234.895 230.688 234.438 231.248 234.092C231.817 233.747 232.466 233.574 233.194 233.574C233.931 233.574 234.571 233.752 235.112 234.106C235.663 234.452 236.087 234.909 236.386 235.478C236.694 236.038 236.848 236.645 236.848 237.298C236.848 237.392 236.843 237.485 236.834 237.578C236.834 237.662 236.829 237.728 236.82 237.774H230.758C230.795 238.25 230.926 238.675 231.15 239.048C231.383 239.412 231.682 239.702 232.046 239.916C232.41 240.122 232.802 240.224 233.222 240.224C233.67 240.224 234.09 240.112 234.482 239.888C234.883 239.664 235.159 239.37 235.308 239.006L236.372 239.3C236.213 239.655 235.975 239.972 235.658 240.252C235.35 240.532 234.981 240.752 234.552 240.91C234.132 241.069 233.675 241.148 233.18 241.148ZM230.716 236.92H235.7C235.663 236.444 235.527 236.024 235.294 235.66C235.061 235.296 234.762 235.012 234.398 234.806C234.034 234.601 233.633 234.498 233.194 234.498C232.765 234.498 232.368 234.601 232.004 234.806C231.64 235.012 231.341 235.296 231.108 235.66C230.884 236.024 230.753 236.444 230.716 236.92ZM237.742 237.368C237.742 236.678 237.882 236.048 238.162 235.478C238.451 234.9 238.843 234.438 239.338 234.092C239.842 233.747 240.416 233.574 241.06 233.574C241.648 233.574 242.175 233.728 242.642 234.036C243.108 234.344 243.472 234.718 243.734 235.156V230.788H244.966V239.608C244.966 239.758 244.994 239.87 245.05 239.944C245.115 240.01 245.218 240.047 245.358 240.056V241.008C245.124 241.046 244.942 241.064 244.812 241.064C244.569 241.064 244.354 240.98 244.168 240.812C243.99 240.644 243.902 240.458 243.902 240.252V239.636C243.612 240.103 243.225 240.472 242.74 240.742C242.254 241.013 241.75 241.148 241.228 241.148C240.724 241.148 240.257 241.05 239.828 240.854C239.408 240.649 239.039 240.369 238.722 240.014C238.414 239.66 238.171 239.258 237.994 238.81C237.826 238.353 237.742 237.872 237.742 237.368ZM243.734 238.446V236.346C243.622 236.029 243.44 235.744 243.188 235.492C242.936 235.231 242.651 235.026 242.334 234.876C242.026 234.718 241.718 234.638 241.41 234.638C241.046 234.638 240.714 234.718 240.416 234.876C240.126 235.026 239.874 235.231 239.66 235.492C239.454 235.744 239.296 236.034 239.184 236.36C239.072 236.687 239.016 237.028 239.016 237.382C239.016 237.746 239.076 238.092 239.198 238.418C239.328 238.745 239.506 239.034 239.73 239.286C239.963 239.538 240.229 239.734 240.528 239.874C240.836 240.014 241.167 240.084 241.522 240.084C241.746 240.084 241.974 240.042 242.208 239.958C242.45 239.874 242.679 239.758 242.894 239.608C243.108 239.459 243.29 239.286 243.44 239.09C243.589 238.885 243.687 238.67 243.734 238.446ZM43.7924 258.368C43.7924 257.678 43.9324 257.048 44.2124 256.478C44.5017 255.9 44.8937 255.438 45.3884 255.092C45.8924 254.747 46.4664 254.574 47.1104 254.574C47.6984 254.574 48.2257 254.728 48.6924 255.036C49.1591 255.344 49.5231 255.718 49.7844 256.156V251.788H51.0164V260.608C51.0164 260.758 51.0444 260.87 51.1004 260.944C51.1657 261.01 51.2684 261.047 51.4084 261.056V262.008C51.1751 262.046 50.9931 262.064 50.8624 262.064C50.6197 262.064 50.4051 261.98 50.2184 261.812C50.0411 261.644 49.9524 261.458 49.9524 261.252V260.636C49.6631 261.103 49.2757 261.472 48.7904 261.742C48.3051 262.013 47.8011 262.148 47.2784 262.148C46.7744 262.148 46.3077 262.05 45.8784 261.854C45.4584 261.649 45.0897 261.369 44.7724 261.014C44.4644 260.66 44.2217 260.258 44.0444 259.81C43.8764 259.353 43.7924 258.872 43.7924 258.368ZM49.7844 259.446V257.346C49.6724 257.029 49.4904 256.744 49.2384 256.492C48.9864 256.231 48.7017 256.026 48.3844 255.876C48.0764 255.718 47.7684 255.638 47.4604 255.638C47.0964 255.638 46.7651 255.718 46.4664 255.876C46.1771 256.026 45.9251 256.231 45.7104 256.492C45.5051 256.744 45.3464 257.034 45.2344 257.36C45.1224 257.687 45.0664 258.028 45.0664 258.382C45.0664 258.746 45.1271 259.092 45.2484 259.418C45.3791 259.745 45.5564 260.034 45.7804 260.286C46.0137 260.538 46.2797 260.734 46.5784 260.874C46.8864 261.014 47.2177 261.084 47.5724 261.084C47.7964 261.084 48.0251 261.042 48.2584 260.958C48.5011 260.874 48.7297 260.758 48.9444 260.608C49.1591 260.459 49.3411 260.286 49.4904 260.09C49.6397 259.885 49.7377 259.67 49.7844 259.446ZM56.2651 262.148C55.7144 262.148 55.2151 262.05 54.7671 261.854C54.3191 261.649 53.9318 261.374 53.6051 261.028C53.2784 260.674 53.0264 260.268 52.8491 259.81C52.6718 259.353 52.5831 258.872 52.5831 258.368C52.5831 257.855 52.6718 257.37 52.8491 256.912C53.0264 256.455 53.2784 256.054 53.6051 255.708C53.9318 255.354 54.3191 255.078 54.7671 254.882C55.2244 254.677 55.7238 254.574 56.2651 254.574C56.8158 254.574 57.3151 254.677 57.7631 254.882C58.2111 255.078 58.5984 255.354 58.9251 255.708C59.2611 256.054 59.5178 256.455 59.6951 256.912C59.8724 257.37 59.9611 257.855 59.9611 258.368C59.9611 258.872 59.8724 259.353 59.6951 259.81C59.5178 260.268 59.2658 260.674 58.9391 261.028C58.6124 261.374 58.2204 261.649 57.7631 261.854C57.3151 262.05 56.8158 262.148 56.2651 262.148ZM53.8431 258.382C53.8431 258.886 53.9504 259.344 54.1651 259.754C54.3891 260.165 54.6831 260.492 55.0471 260.734C55.4111 260.968 55.8171 261.084 56.2651 261.084C56.7131 261.084 57.1191 260.963 57.4831 260.72C57.8564 260.478 58.1504 260.151 58.3651 259.74C58.5891 259.32 58.7011 258.858 58.7011 258.354C58.7011 257.85 58.5891 257.393 58.3651 256.982C58.1504 256.572 57.8564 256.245 57.4831 256.002C57.1191 255.76 56.7131 255.638 56.2651 255.638C55.8171 255.638 55.4111 255.764 55.0471 256.016C54.6831 256.259 54.3891 256.586 54.1651 256.996C53.9504 257.407 53.8431 257.869 53.8431 258.382ZM68.229 262.148C67.6783 262.148 67.1743 262.05 66.717 261.854C66.269 261.649 65.877 261.374 65.541 261.028C65.2143 260.674 64.9576 260.268 64.771 259.81C64.5936 259.353 64.505 258.868 64.505 258.354C64.505 257.664 64.6636 257.034 64.981 256.464C65.2983 255.895 65.737 255.438 66.297 255.092C66.8663 254.747 67.515 254.574 68.243 254.574C68.9803 254.574 69.6196 254.752 70.161 255.106C70.7116 255.452 71.1363 255.909 71.435 256.478C71.743 257.038 71.897 257.645 71.897 258.298C71.897 258.392 71.8923 258.485 71.883 258.578C71.883 258.662 71.8783 258.728 71.869 258.774H65.807C65.8443 259.25 65.975 259.675 66.199 260.048C66.4323 260.412 66.731 260.702 67.095 260.916C67.459 261.122 67.851 261.224 68.271 261.224C68.719 261.224 69.139 261.112 69.531 260.888C69.9323 260.664 70.2076 260.37 70.357 260.006L71.421 260.3C71.2623 260.655 71.0243 260.972 70.707 261.252C70.399 261.532 70.0303 261.752 69.601 261.91C69.181 262.069 68.7236 262.148 68.229 262.148ZM65.765 257.92H70.749C70.7116 257.444 70.5763 257.024 70.343 256.66C70.1096 256.296 69.811 256.012 69.447 255.806C69.083 255.601 68.6816 255.498 68.243 255.498C67.8136 255.498 67.417 255.601 67.053 255.806C66.689 256.012 66.3903 256.296 66.157 256.66C65.933 257.024 65.8023 257.444 65.765 257.92ZM73.2665 262.008V254.7H74.4985V262.008H73.2665ZM73.2665 253.328V251.788H74.4985V253.328H73.2665ZM76.423 259.082V254.7H77.655V258.844C77.655 259.591 77.7857 260.151 78.047 260.524C78.3084 260.898 78.6957 261.084 79.209 261.084C79.545 261.084 79.867 261.014 80.175 260.874C80.4924 260.725 80.777 260.515 81.029 260.244C81.281 259.974 81.477 259.652 81.617 259.278V254.7H82.849V260.608C82.849 260.758 82.877 260.87 82.933 260.944C82.9984 261.01 83.101 261.047 83.241 261.056V262.008C83.101 262.027 82.989 262.036 82.905 262.036C82.8304 262.046 82.7557 262.05 82.681 262.05C82.4477 262.05 82.247 261.98 82.079 261.84C81.911 261.691 81.8224 261.509 81.813 261.294L81.785 260.44C81.4677 260.982 81.0384 261.402 80.497 261.7C79.965 261.999 79.3817 262.148 78.747 262.148C77.9817 262.148 77.403 261.892 77.011 261.378C76.619 260.856 76.423 260.09 76.423 259.082ZM87.4072 262.148C86.8006 262.148 86.2312 262.05 85.6992 261.854C85.1672 261.649 84.7099 261.346 84.3272 260.944L84.8032 260.076C85.2232 260.468 85.6432 260.748 86.0632 260.916C86.4832 261.084 86.9126 261.168 87.3512 261.168C87.8552 261.168 88.2659 261.075 88.5832 260.888C88.9006 260.692 89.0592 260.408 89.0592 260.034C89.0592 259.764 88.9752 259.563 88.8072 259.432C88.6486 259.302 88.4199 259.194 88.1212 259.11C87.8226 259.017 87.4679 258.914 87.0572 258.802C86.5532 258.653 86.1286 258.494 85.7832 258.326C85.4379 258.158 85.1766 257.948 84.9992 257.696C84.8219 257.444 84.7332 257.127 84.7332 256.744C84.7332 256.278 84.8546 255.886 85.0972 255.568C85.3399 255.242 85.6712 254.994 86.0912 254.826C86.5206 254.658 87.0059 254.574 87.5472 254.574C88.0886 254.574 88.5786 254.658 89.0172 254.826C89.4559 254.994 89.8339 255.242 90.1512 255.568L89.5912 256.422C89.3019 256.124 88.9846 255.904 88.6392 255.764C88.2939 255.615 87.9066 255.54 87.4772 255.54C87.2252 255.54 86.9779 255.573 86.7352 255.638C86.4926 255.694 86.2919 255.802 86.1332 255.96C85.9746 256.11 85.8952 256.324 85.8952 256.604C85.8952 256.838 85.9559 257.024 86.0772 257.164C86.2079 257.295 86.3946 257.407 86.6372 257.5C86.8892 257.594 87.1926 257.696 87.5472 257.808C88.0979 257.967 88.5739 258.126 88.9752 258.284C89.3859 258.443 89.7032 258.648 89.9272 258.9C90.1512 259.152 90.2632 259.502 90.2632 259.95C90.2632 260.641 90.0019 261.182 89.4792 261.574C88.9566 261.957 88.2659 262.148 87.4072 262.148ZM102.755 262.008H101.523V257.92C101.523 257.155 101.397 256.59 101.145 256.226C100.902 255.862 100.538 255.68 100.053 255.68C99.5585 255.68 99.1105 255.862 98.7092 256.226C98.3078 256.581 98.0232 257.043 97.8552 257.612V262.008H96.6232V257.92C96.6232 257.146 96.5018 256.581 96.2592 256.226C96.0165 255.862 95.6525 255.68 95.1672 255.68C94.6818 255.68 94.2338 255.858 93.8232 256.212C93.4218 256.558 93.1372 257.02 92.9692 257.598V262.008H91.7372V254.7H92.8572V256.268C93.1558 255.727 93.5432 255.312 94.0192 255.022C94.4952 254.724 95.0318 254.574 95.6292 254.574C96.2358 254.574 96.7212 254.742 97.0852 255.078C97.4492 255.405 97.6732 255.83 97.7572 256.352C98.0838 255.774 98.4805 255.335 98.9472 255.036C99.4138 254.728 99.9458 254.574 100.543 254.574C100.963 254.574 101.313 254.654 101.593 254.812C101.882 254.962 102.111 255.176 102.279 255.456C102.447 255.727 102.568 256.049 102.643 256.422C102.718 256.796 102.755 257.202 102.755 257.64V262.008ZM107.863 262.148C107.312 262.148 106.813 262.05 106.365 261.854C105.917 261.649 105.529 261.374 105.203 261.028C104.876 260.674 104.624 260.268 104.447 259.81C104.269 259.353 104.181 258.872 104.181 258.368C104.181 257.855 104.269 257.37 104.447 256.912C104.624 256.455 104.876 256.054 105.203 255.708C105.529 255.354 105.917 255.078 106.365 254.882C106.822 254.677 107.321 254.574 107.863 254.574C108.413 254.574 108.913 254.677 109.361 254.882C109.809 255.078 110.196 255.354 110.523 255.708C110.859 256.054 111.115 256.455 111.293 256.912C111.47 257.37 111.559 257.855 111.559 258.368C111.559 258.872 111.47 259.353 111.293 259.81C111.115 260.268 110.863 260.674 110.537 261.028C110.21 261.374 109.818 261.649 109.361 261.854C108.913 262.05 108.413 262.148 107.863 262.148ZM105.441 258.382C105.441 258.886 105.548 259.344 105.763 259.754C105.987 260.165 106.281 260.492 106.645 260.734C107.009 260.968 107.415 261.084 107.863 261.084C108.311 261.084 108.717 260.963 109.081 260.72C109.454 260.478 109.748 260.151 109.963 259.74C110.187 259.32 110.299 258.858 110.299 258.354C110.299 257.85 110.187 257.393 109.963 256.982C109.748 256.572 109.454 256.245 109.081 256.002C108.717 255.76 108.311 255.638 107.863 255.638C107.415 255.638 107.009 255.764 106.645 256.016C106.281 256.259 105.987 256.586 105.763 256.996C105.548 257.407 105.441 257.869 105.441 258.382ZM112.576 258.368C112.576 257.678 112.716 257.048 112.996 256.478C113.285 255.9 113.677 255.438 114.172 255.092C114.676 254.747 115.25 254.574 115.894 254.574C116.482 254.574 117.009 254.728 117.476 255.036C117.942 255.344 118.306 255.718 118.568 256.156V251.788H119.8V260.608C119.8 260.758 119.828 260.87 119.884 260.944C119.949 261.01 120.052 261.047 120.192 261.056V262.008C119.958 262.046 119.776 262.064 119.646 262.064C119.403 262.064 119.188 261.98 119.002 261.812C118.824 261.644 118.736 261.458 118.736 261.252V260.636C118.446 261.103 118.059 261.472 117.574 261.742C117.088 262.013 116.584 262.148 116.062 262.148C115.558 262.148 115.091 262.05 114.662 261.854C114.242 261.649 113.873 261.369 113.556 261.014C113.248 260.66 113.005 260.258 112.828 259.81C112.66 259.353 112.576 258.872 112.576 258.368ZM118.568 259.446V257.346C118.456 257.029 118.274 256.744 118.022 256.492C117.77 256.231 117.485 256.026 117.168 255.876C116.86 255.718 116.552 255.638 116.244 255.638C115.88 255.638 115.548 255.718 115.25 255.876C114.96 256.026 114.708 256.231 114.494 256.492C114.288 256.744 114.13 257.034 114.018 257.36C113.906 257.687 113.85 258.028 113.85 258.382C113.85 258.746 113.91 259.092 114.032 259.418C114.162 259.745 114.34 260.034 114.564 260.286C114.797 260.538 115.063 260.734 115.362 260.874C115.67 261.014 116.001 261.084 116.356 261.084C116.58 261.084 116.808 261.042 117.042 260.958C117.284 260.874 117.513 260.758 117.728 260.608C117.942 260.459 118.124 260.286 118.274 260.09C118.423 259.885 118.521 259.67 118.568 259.446ZM129.177 261.644C129.075 261.691 128.935 261.752 128.757 261.826C128.58 261.901 128.375 261.966 128.141 262.022C127.908 262.078 127.661 262.106 127.399 262.106C127.101 262.106 126.825 262.055 126.573 261.952C126.321 261.84 126.121 261.672 125.971 261.448C125.822 261.215 125.747 260.926 125.747 260.58V255.666H124.753V254.7H125.747V252.264H126.979V254.7H128.617V255.666H126.979V260.202C126.998 260.464 127.087 260.66 127.245 260.79C127.404 260.912 127.591 260.972 127.805 260.972C128.048 260.972 128.272 260.93 128.477 260.846C128.683 260.762 128.818 260.702 128.883 260.664L129.177 261.644ZM133.457 262.148C132.907 262.148 132.403 262.05 131.945 261.854C131.497 261.649 131.105 261.374 130.769 261.028C130.443 260.674 130.186 260.268 129.999 259.81C129.822 259.353 129.733 258.868 129.733 258.354C129.733 257.664 129.892 257.034 130.209 256.464C130.527 255.895 130.965 255.438 131.525 255.092C132.095 254.747 132.743 254.574 133.471 254.574C134.209 254.574 134.848 254.752 135.389 255.106C135.94 255.452 136.365 255.909 136.663 256.478C136.971 257.038 137.125 257.645 137.125 258.298C137.125 258.392 137.121 258.485 137.111 258.578C137.111 258.662 137.107 258.728 137.097 258.774H131.035C131.073 259.25 131.203 259.675 131.427 260.048C131.661 260.412 131.959 260.702 132.323 260.916C132.687 261.122 133.079 261.224 133.499 261.224C133.947 261.224 134.367 261.112 134.759 260.888C135.161 260.664 135.436 260.37 135.585 260.006L136.649 260.3C136.491 260.655 136.253 260.972 135.935 261.252C135.627 261.532 135.259 261.752 134.829 261.91C134.409 262.069 133.952 262.148 133.457 262.148ZM130.993 257.92H135.977C135.94 257.444 135.805 257.024 135.571 256.66C135.338 256.296 135.039 256.012 134.675 255.806C134.311 255.601 133.91 255.498 133.471 255.498C133.042 255.498 132.645 255.601 132.281 255.806C131.917 256.012 131.619 256.296 131.385 256.66C131.161 257.024 131.031 257.444 130.993 257.92ZM149.513 262.008H148.281V257.92C148.281 257.155 148.155 256.59 147.903 256.226C147.66 255.862 147.296 255.68 146.811 255.68C146.316 255.68 145.868 255.862 145.467 256.226C145.066 256.581 144.781 257.043 144.613 257.612V262.008H143.381V257.92C143.381 257.146 143.26 256.581 143.017 256.226C142.774 255.862 142.41 255.68 141.925 255.68C141.44 255.68 140.992 255.858 140.581 256.212C140.18 256.558 139.895 257.02 139.727 257.598V262.008H138.495V254.7H139.615V256.268C139.914 255.727 140.301 255.312 140.777 255.022C141.253 254.724 141.79 254.574 142.387 254.574C142.994 254.574 143.479 254.742 143.843 255.078C144.207 255.405 144.431 255.83 144.515 256.352C144.842 255.774 145.238 255.335 145.705 255.036C146.172 254.728 146.704 254.574 147.301 254.574C147.721 254.574 148.071 254.654 148.351 254.812C148.64 254.962 148.869 255.176 149.037 255.456C149.205 255.727 149.326 256.049 149.401 256.422C149.476 256.796 149.513 257.202 149.513 257.64V262.008ZM155.363 262.148C154.765 262.148 154.233 261.999 153.767 261.7C153.3 261.402 152.931 261.024 152.661 260.566V264.99H151.429V254.7H152.521V256.072C152.81 255.624 153.188 255.265 153.655 254.994C154.121 254.714 154.63 254.574 155.181 254.574C155.685 254.574 156.147 254.677 156.567 254.882C156.987 255.088 157.351 255.368 157.659 255.722C157.967 256.077 158.205 256.483 158.373 256.94C158.55 257.388 158.639 257.86 158.639 258.354C158.639 259.045 158.499 259.68 158.219 260.258C157.948 260.837 157.565 261.299 157.071 261.644C156.576 261.98 156.007 262.148 155.363 262.148ZM154.985 261.084C155.349 261.084 155.675 261.01 155.965 260.86C156.263 260.702 156.515 260.496 156.721 260.244C156.935 259.983 157.099 259.689 157.211 259.362C157.323 259.036 157.379 258.7 157.379 258.354C157.379 257.99 157.313 257.645 157.183 257.318C157.061 256.992 156.884 256.702 156.651 256.45C156.427 256.198 156.161 256.002 155.853 255.862C155.554 255.713 155.227 255.638 154.873 255.638C154.649 255.638 154.415 255.68 154.173 255.764C153.939 255.848 153.715 255.97 153.501 256.128C153.286 256.278 153.104 256.45 152.955 256.646C152.805 256.842 152.707 257.052 152.661 257.276V259.362C152.801 259.68 152.987 259.969 153.221 260.23C153.454 260.492 153.725 260.702 154.033 260.86C154.341 261.01 154.658 261.084 154.985 261.084ZM163.343 262.148C162.793 262.148 162.293 262.05 161.845 261.854C161.397 261.649 161.01 261.374 160.683 261.028C160.357 260.674 160.105 260.268 159.927 259.81C159.75 259.353 159.661 258.872 159.661 258.368C159.661 257.855 159.75 257.37 159.927 256.912C160.105 256.455 160.357 256.054 160.683 255.708C161.01 255.354 161.397 255.078 161.845 254.882C162.303 254.677 162.802 254.574 163.343 254.574C163.894 254.574 164.393 254.677 164.841 254.882C165.289 255.078 165.677 255.354 166.003 255.708C166.339 256.054 166.596 256.455 166.773 256.912C166.951 257.37 167.039 257.855 167.039 258.368C167.039 258.872 166.951 259.353 166.773 259.81C166.596 260.268 166.344 260.674 166.017 261.028C165.691 261.374 165.299 261.649 164.841 261.854C164.393 262.05 163.894 262.148 163.343 262.148ZM160.921 258.382C160.921 258.886 161.029 259.344 161.243 259.754C161.467 260.165 161.761 260.492 162.125 260.734C162.489 260.968 162.895 261.084 163.343 261.084C163.791 261.084 164.197 260.963 164.561 260.72C164.935 260.478 165.229 260.151 165.443 259.74C165.667 259.32 165.779 258.858 165.779 258.354C165.779 257.85 165.667 257.393 165.443 256.982C165.229 256.572 164.935 256.245 164.561 256.002C164.197 255.76 163.791 255.638 163.343 255.638C162.895 255.638 162.489 255.764 162.125 256.016C161.761 256.259 161.467 256.586 161.243 256.996C161.029 257.407 160.921 257.869 160.921 258.382ZM172.396 255.778C171.78 255.788 171.234 255.946 170.758 256.254C170.291 256.553 169.96 256.968 169.764 257.5V262.008H168.532V254.7H169.68V256.394C169.932 255.89 170.263 255.484 170.674 255.176C171.094 254.859 171.533 254.682 171.99 254.644C172.083 254.644 172.163 254.644 172.228 254.644C172.293 254.644 172.349 254.649 172.396 254.658V255.778ZM172.03 262.008V260.44H173.066V262.008H172.03ZM174.86 262.008V260.44H175.896V262.008H174.86ZM177.69 262.008V260.44H178.726V262.008H177.69Z" fill="#777777"/>
<path d="M47.0544 304.038L46.9284 301.266L53.5344 294.408H56.1624L50.6724 300.24L49.3764 301.662L47.0544 304.038ZM44.9664 307.008V294.408H47.3064V307.008H44.9664ZM53.7504 307.008L48.9264 301.266L50.4744 299.556L56.4864 307.008H53.7504ZM63.1595 297.288C63.9275 297.288 64.6115 297.438 65.2115 297.738C65.8235 298.038 66.3035 298.5 66.6515 299.124C66.9995 299.736 67.1735 300.528 67.1735 301.5V307.008H64.9235V301.788C64.9235 300.936 64.7195 300.3 64.3115 299.88C63.9155 299.46 63.3575 299.25 62.6375 299.25C62.1095 299.25 61.6415 299.358 61.2335 299.574C60.8255 299.79 60.5075 300.114 60.2795 300.546C60.0635 300.966 59.9555 301.5 59.9555 302.148V307.008H57.7055V297.396H59.8475V299.988L59.4695 299.196C59.8055 298.584 60.2915 298.116 60.9275 297.792C61.5755 297.456 62.3195 297.288 63.1595 297.288ZM74.3653 307.134C73.3813 307.134 72.5053 306.924 71.7373 306.504C70.9693 306.072 70.3633 305.484 69.9193 304.74C69.4753 303.996 69.2533 303.15 69.2533 302.202C69.2533 301.242 69.4753 300.396 69.9193 299.664C70.3633 298.92 70.9693 298.338 71.7373 297.918C72.5053 297.498 73.3813 297.288 74.3653 297.288C75.3613 297.288 76.2433 297.498 77.0113 297.918C77.7913 298.338 78.3973 298.914 78.8293 299.646C79.2733 300.378 79.4953 301.23 79.4953 302.202C79.4953 303.15 79.2733 303.996 78.8293 304.74C78.3973 305.484 77.7913 306.072 77.0113 306.504C76.2433 306.924 75.3613 307.134 74.3653 307.134ZM74.3653 305.208C74.9173 305.208 75.4093 305.088 75.8413 304.848C76.2733 304.608 76.6093 304.26 76.8493 303.804C77.1013 303.348 77.2273 302.814 77.2273 302.202C77.2273 301.578 77.1013 301.044 76.8493 300.6C76.6093 300.144 76.2733 299.796 75.8413 299.556C75.4093 299.316 74.9233 299.196 74.3833 299.196C73.8313 299.196 73.3393 299.316 72.9073 299.556C72.4873 299.796 72.1513 300.144 71.8993 300.6C71.6473 301.044 71.5213 301.578 71.5213 302.202C71.5213 302.814 71.6473 303.348 71.8993 303.804C72.1513 304.26 72.4873 304.608 72.9073 304.848C73.3393 305.088 73.8253 305.208 74.3653 305.208ZM83.5072 307.008L79.9792 297.396H82.1032L85.1272 305.874H84.1192L87.2872 297.396H89.1772L92.2552 305.874H91.2652L94.3792 297.396H96.3772L92.8312 307.008H90.6712L87.8632 299.502H88.5292L85.6672 307.008H83.5072ZM103.115 307.008V294.408H105.041L110.549 303.606H109.541L114.959 294.408H116.885L116.903 307.008H114.689L114.671 297.882H115.139L110.531 305.568H109.487L104.807 297.882H105.347V307.008H103.115ZM124.41 307.134C123.426 307.134 122.55 306.924 121.782 306.504C121.014 306.072 120.408 305.484 119.964 304.74C119.52 303.996 119.298 303.15 119.298 302.202C119.298 301.242 119.52 300.396 119.964 299.664C120.408 298.92 121.014 298.338 121.782 297.918C122.55 297.498 123.426 297.288 124.41 297.288C125.406 297.288 126.288 297.498 127.056 297.918C127.836 298.338 128.442 298.914 128.874 299.646C129.318 300.378 129.54 301.23 129.54 302.202C129.54 303.15 129.318 303.996 128.874 304.74C128.442 305.484 127.836 306.072 127.056 306.504C126.288 306.924 125.406 307.134 124.41 307.134ZM124.41 305.208C124.962 305.208 125.454 305.088 125.886 304.848C126.318 304.608 126.654 304.26 126.894 303.804C127.146 303.348 127.272 302.814 127.272 302.202C127.272 301.578 127.146 301.044 126.894 300.6C126.654 300.144 126.318 299.796 125.886 299.556C125.454 299.316 124.968 299.196 124.428 299.196C123.876 299.196 123.384 299.316 122.952 299.556C122.532 299.796 122.196 300.144 121.944 300.6C121.692 301.044 121.566 301.578 121.566 302.202C121.566 302.814 121.692 303.348 121.944 303.804C122.196 304.26 122.532 304.608 122.952 304.848C123.384 305.088 123.87 305.208 124.41 305.208ZM131.692 307.008V297.396H133.834V300.042L133.582 299.268C133.87 298.62 134.32 298.128 134.932 297.792C135.556 297.456 136.33 297.288 137.254 297.288V299.43C137.158 299.406 137.068 299.394 136.984 299.394C136.9 299.382 136.816 299.376 136.732 299.376C135.88 299.376 135.202 299.628 134.698 300.132C134.194 300.624 133.942 301.362 133.942 302.346V307.008H131.692ZM143.593 307.134C142.525 307.134 141.589 306.924 140.785 306.504C139.993 306.072 139.375 305.484 138.931 304.74C138.499 303.996 138.283 303.15 138.283 302.202C138.283 301.242 138.493 300.396 138.913 299.664C139.345 298.92 139.933 298.338 140.677 297.918C141.433 297.498 142.291 297.288 143.251 297.288C144.187 297.288 145.021 297.492 145.753 297.9C146.485 298.308 147.061 298.884 147.481 299.628C147.901 300.372 148.111 301.248 148.111 302.256C148.111 302.352 148.105 302.46 148.093 302.58C148.093 302.7 148.087 302.814 148.075 302.922H140.065V301.428H146.887L146.005 301.896C146.017 301.344 145.903 300.858 145.663 300.438C145.423 300.018 145.093 299.688 144.673 299.448C144.265 299.208 143.791 299.088 143.251 299.088C142.699 299.088 142.213 299.208 141.793 299.448C141.385 299.688 141.061 300.024 140.821 300.456C140.593 300.876 140.479 301.374 140.479 301.95V302.31C140.479 302.886 140.611 303.396 140.875 303.84C141.139 304.284 141.511 304.626 141.991 304.866C142.471 305.106 143.023 305.226 143.647 305.226C144.187 305.226 144.673 305.142 145.105 304.974C145.537 304.806 145.921 304.542 146.257 304.182L147.463 305.568C147.031 306.072 146.485 306.462 145.825 306.738C145.177 307.002 144.433 307.134 143.593 307.134Z" fill="#4A60A1"/>
<path d="M164.665 294.557C164.394 294.824 164.369 295.245 164.59 295.541L164.657 295.618L169.233 300.258L157.524 300.258C157.11 300.258 156.774 300.594 156.774 301.008C156.774 301.391 157.061 301.706 157.43 301.752L157.524 301.758H169.233L164.657 306.398C164.39 306.669 164.371 307.09 164.597 307.383L164.665 307.459C164.935 307.726 165.356 307.745 165.649 307.519L165.725 307.451L171.558 301.535C171.822 301.267 171.844 300.851 171.624 300.558L171.558 300.482L165.725 294.565C165.434 294.27 164.959 294.267 164.665 294.557Z" fill="#00B377"/>
<path d="M73.409 107.166C74.3102 106.333 75.5318 105.865 76.8054 105.865C78.0791 105.865 79.3006 106.333 80.2018 107.166L98.1001 123.726C98.5467 124.139 98.901 124.63 99.1427 125.17C99.3845 125.71 99.5089 126.288 99.5089 126.872C99.5089 127.457 99.3845 128.035 99.1427 128.575C98.901 129.115 98.5467 129.606 98.1001 130.019L80.205 146.579C79.7587 146.993 79.2287 147.321 78.6454 147.544C78.0621 147.768 77.4368 147.883 76.8054 147.883C76.174 147.883 75.5488 147.768 74.9654 147.544C74.3821 147.321 73.8522 146.993 73.4058 146.579L55.5107 130.019C55.0641 129.606 54.7098 129.115 54.4681 128.575C54.2263 128.035 54.1019 127.457 54.1019 126.872C54.1019 126.288 54.2263 125.71 54.4681 125.17C54.7098 124.63 55.0641 124.139 55.5107 123.726L68.1318 112.046L72.467 116.058C72.1764 116.621 72.017 117.234 71.9992 117.858C71.9814 118.482 72.1056 119.102 72.3636 119.678C72.6217 120.255 73.0079 120.774 73.4971 121.203C73.9863 121.633 74.5677 121.962 75.2033 122.17V131.572C74.1344 131.922 73.2335 132.61 72.6599 133.515C72.0862 134.42 71.8767 135.484 72.0684 136.518C72.2601 137.552 72.8407 138.49 73.7076 139.166C74.5744 139.843 75.6716 140.214 76.8054 140.214C77.9392 140.214 79.0364 139.843 79.9033 139.166C80.7701 138.49 81.3507 137.552 81.5424 136.518C81.7341 135.484 81.5246 134.42 80.951 133.515C80.3773 132.61 79.4764 131.922 78.4075 131.572V122.173C78.5677 122.119 78.7279 122.06 78.8785 121.992L82.0826 124.957C81.594 125.904 81.4827 126.98 81.7685 127.995C82.0543 129.011 82.7188 129.9 83.6445 130.506C84.5702 131.111 85.6976 131.395 86.8273 131.306C87.957 131.217 89.0163 130.761 89.818 130.019C90.6197 129.277 91.1122 128.297 91.2084 127.251C91.3046 126.206 90.9983 125.163 90.3437 124.306C89.689 123.449 88.7282 122.834 87.6311 122.57C86.5339 122.305 85.371 122.408 84.3479 122.861L81.1438 119.895C81.5721 119.065 81.7119 118.133 81.5438 117.226C81.3758 116.32 80.9081 115.484 80.2053 114.833C79.5026 114.183 78.5992 113.75 77.6196 113.595C76.64 113.439 75.6324 113.568 74.7355 113.965L70.3971 109.947L73.409 107.16V107.166Z" fill="#0B1C98"/>
<defs>
<filter id="filter0_d_773_473" x="0.274414" y="0.00830078" width="290" height="377.979" filterUnits="userSpaceOnUse" color-interpolation-filters="sRGB">
<feFlood flood-opacity="0" result="BackgroundImageFix"/>
<feColorMatrix in="SourceAlpha" type="matrix" values="0 0 0 0 0 0 0 0 0 0 0 0 0 0 0 0 0 0 127 0" result="hardAlpha"/>
<feOffset/>
<feGaussianBlur stdDeviation="10"/>
<feComposite in2="hardAlpha" operator="out"/>
<feColorMatrix type="matrix" values="0 0 0 0 0.768627 0 0 0 0 0.768627 0 0 0 0 0.768627 0 0 0 0.15 0"/>
<feBlend mode="normal" in2="BackgroundImageFix" result="effect1_dropShadow_773_473"/>
<feBlend mode="normal" in="SourceGraphic" in2="effect1_dropShadow_773_473" result="shape"/>
</filter>
</defs>
</svg>
