<svg width="70" height="72" viewBox="0 0 70 72" fill="none" xmlns="http://www.w3.org/2000/svg">
<path d="M37.6282 9.26489C26.7992 9.26489 18.0671 17.9567 17.5213 28.8879L12.0063 36.3422C11.3169 37.2556 12.0063 38.7288 13.2127 38.7288H17.5213V47.568C17.5213 50.8385 20.0777 53.4608 23.2661 53.4608H26.1385V62.2999H46.2455V48.4814C53.0531 45.1814 57.7351 38.1395 57.7351 29.8896C57.7351 18.5166 48.7732 9.26489 37.6282 9.26489ZM40.5006 41.6752H34.7558V38.7288H40.5006V41.6752ZM45.0965 28.4164C44.3315 29.7413 43.2423 30.8382 41.9368 31.5985V35.7824H33.3196V31.5985C29.212 29.153 27.7758 23.7611 30.1599 19.5773C32.544 15.3934 37.8293 13.8613 41.9368 16.2773C46.0444 18.6933 47.4806 24.1442 45.0965 28.4164Z" fill="#9747FF"/>
</svg>
