<svg width="499" height="491" viewBox="0 0 499 491" fill="none" xmlns="http://www.w3.org/2000/svg">
<path d="M21.9058 185.012L50.748 168.658V135.975L21.9058 152.317V185.012Z" fill="#67809E"/>
<path d="M79.5904 185.012V152.317L50.7482 135.975L49.8999 168.18L79.5904 185.012Z" fill="#A7596A"/>
<path d="M50.748 135.975L21.9058 152.317L50.748 168.658L79.5902 152.317L50.748 135.975ZM30.3513 152.317L50.748 140.765L71.1072 152.317L50.748 163.844L30.3513 152.317Z" fill="#0B1C98"/>
<path d="M50.7481 213.873V168.658L21.9059 152.317L21.0576 197.041L50.7481 213.873Z" fill="#DE6C84"/>
<path d="M50.748 213.395L79.5902 197.041V152.317L50.748 168.658V213.395Z" fill="#7BA6D8"/>
<path d="M69.4857 165.522L62.3999 169.54L76.5715 177.564L83.5949 173.521L69.4857 165.522Z" fill="#0B1C98"/>
<path d="M69.4857 181.57L62.3999 185.576L76.5715 193.612L83.5949 189.569L69.4857 181.57Z" fill="#0B1C98"/>
<path d="M76.5713 201.647L83.6446 197.642L83.5947 173.521L76.5713 177.564V201.647Z" fill="#7BA6D8"/>
<path d="M62.3999 177.564V169.54L76.5715 177.564V201.648L62.3999 193.624V185.6L69.4857 189.606V181.582L62.3999 177.564Z" fill="#DE6C84"/>
<path d="M167.065 198.499L177.619 192.141L452.106 347.667L441.278 354.184L167.065 198.499Z" fill="#B5969D"/>
<path d="M179.128 1.2251V193.134L168.587 198.818V7.58285L179.128 1.2251Z" fill="#67809E"/>
<path d="M167.065 7.59521V198.818L441.278 354.184V163.268L167.065 7.59521ZM433.818 345.622L171.444 197.09V22.3197L433.818 171.182V345.622Z" fill="#DE6C84"/>
<path d="M452.106 347.973L451.969 348.28L441.278 354.184V163.268L452.106 156.751V347.973Z" fill="#7BA6D8"/>
<path d="M167.065 7.58285L177.619 1.2251L452.106 156.751L441.278 163.268L167.065 7.58285Z" fill="#0B1C98"/>
<path d="M113.086 214.375L7.62207 274.866L281.835 429.877L387.299 369.35L113.086 214.375Z" fill="#0B1C98"/>
<path d="M7.62207 286.16V274.865L281.835 429.877V441.527L7.62207 286.16Z" fill="#DE6C84"/>
<path d="M387.299 381.747V369.35L281.835 429.877V441.527L387.299 381.747Z" fill="#7BA6D8"/>
<path d="M77.9809 279.913L61.8008 289.088L239.757 389.905L255.937 380.742L77.9809 279.913Z" fill="#0B1C98"/>
<path d="M61.8008 297.148V289.088L239.757 389.905L255.937 380.742V388.803L239.657 397.905L61.8008 297.148Z" fill="#DE6C84"/>
<path d="M406.273 384.65L322.491 432.694L407.608 480.788L491.378 432.694L406.273 384.65Z" fill="#0B1C98"/>
<path d="M322.491 441.661V432.694L407.608 480.788V490.037L322.491 441.661Z" fill="#DE6C84"/>
<path d="M491.378 442.543V432.694L407.608 480.788V490.037L491.378 442.543Z" fill="#7BA6D8"/>
<path d="M132.235 43.218V195.657L406.448 351.024V198.597L132.235 43.218Z" fill="#7BA6D8" fill-opacity="0.8" stroke="white" stroke-miterlimit="10"/>
<path d="M406.448 198.585L132.235 43.218" stroke="white" stroke-miterlimit="10"/>
<path d="M288.347 131.259V283.967L406.448 351.159V198.462L288.347 131.259Z" stroke="white" stroke-miterlimit="10"/>
<path d="M288.347 222.766V283.967L406.448 351.158V289.97L288.347 222.766Z" stroke="white" stroke-miterlimit="10"/>
<path d="M132.235 28.3464V43.2179L406.448 198.597V183.713L132.235 28.3464Z" fill="white" fill-opacity="0.8" stroke="white" stroke-miterlimit="10"/>
</svg>
