<svg width="291" height="379" viewBox="0 0 291 379" fill="none" xmlns="http://www.w3.org/2000/svg">
<g filter="url(#filter0_d_773_490)">
<rect x="20.589" y="20.2134" width="250" height="337.979" rx="12" fill="white"/>
<rect x="21.089" y="20.7134" width="249" height="336.979" rx="11.5" stroke="black"/>
</g>
<path d="M46.409 192.373C45.9957 192.373 45.6757 192.26 45.449 192.033C45.2357 191.793 45.129 191.467 45.129 191.053V179.413C45.129 178.987 45.2423 178.667 45.469 178.453C45.6957 178.227 46.0157 178.113 46.429 178.113H51.249C52.7957 178.113 53.989 178.487 54.829 179.233C55.669 179.967 56.089 181 56.089 182.333C56.089 183.2 55.8957 183.947 55.509 184.573C55.1357 185.2 54.589 185.68 53.869 186.013C53.149 186.347 52.2757 186.513 51.249 186.513L51.429 186.213H52.089C52.6357 186.213 53.109 186.347 53.509 186.613C53.9223 186.88 54.2823 187.3 54.589 187.873L56.089 190.653C56.249 190.933 56.3223 191.207 56.309 191.473C56.2957 191.74 56.1957 191.96 56.009 192.133C55.8223 192.293 55.549 192.373 55.189 192.373C54.829 192.373 54.5357 192.3 54.309 192.153C54.0823 191.993 53.8823 191.753 53.709 191.433L51.689 187.713C51.449 187.26 51.1623 186.96 50.829 186.813C50.509 186.653 50.0957 186.573 49.589 186.573H47.689V191.053C47.689 191.467 47.5823 191.793 47.369 192.033C47.1557 192.26 46.8357 192.373 46.409 192.373ZM47.689 184.673H50.809C51.729 184.673 52.4223 184.487 52.889 184.113C53.369 183.727 53.609 183.153 53.609 182.393C53.609 181.647 53.369 181.087 52.889 180.713C52.4223 180.327 51.729 180.133 50.809 180.133H47.689V184.673ZM63.166 192.413C62.0594 192.413 61.106 192.207 60.306 191.793C59.506 191.38 58.886 190.793 58.446 190.033C58.0194 189.273 57.806 188.373 57.806 187.333C57.806 186.32 58.0127 185.433 58.426 184.673C58.8527 183.913 59.4327 183.32 60.166 182.893C60.9127 182.453 61.7594 182.233 62.706 182.233C63.3994 182.233 64.0194 182.347 64.566 182.573C65.126 182.8 65.5994 183.127 65.986 183.553C66.386 183.98 66.686 184.5 66.886 185.113C67.0994 185.713 67.206 186.393 67.206 187.153C67.206 187.393 67.1194 187.58 66.946 187.713C66.786 187.833 66.5527 187.893 66.246 187.893H59.826V186.453H65.446L65.126 186.753C65.126 186.14 65.0327 185.627 64.846 185.213C64.6727 184.8 64.4127 184.487 64.066 184.273C63.7327 184.047 63.3127 183.933 62.806 183.933C62.246 183.933 61.766 184.067 61.366 184.333C60.9794 184.587 60.6794 184.953 60.466 185.433C60.266 185.9 60.166 186.46 60.166 187.113V187.253C60.166 188.347 60.4194 189.167 60.926 189.713C61.446 190.247 62.206 190.513 63.206 190.513C63.5527 190.513 63.9394 190.473 64.366 190.393C64.806 190.3 65.2194 190.147 65.606 189.933C65.886 189.773 66.1327 189.707 66.346 189.733C66.5594 189.747 66.726 189.82 66.846 189.953C66.9794 190.087 67.0594 190.253 67.086 190.453C67.1127 190.64 67.0727 190.833 66.966 191.033C66.8727 191.233 66.706 191.407 66.466 191.553C65.9994 191.847 65.4594 192.067 64.846 192.213C64.246 192.347 63.686 192.413 63.166 192.413ZM72.4059 192.413C71.6992 192.413 71.0659 192.28 70.5059 192.013C69.9592 191.733 69.5259 191.36 69.2059 190.893C68.8992 190.427 68.7459 189.9 68.7459 189.313C68.7459 188.593 68.9325 188.027 69.3059 187.613C69.6792 187.187 70.2859 186.88 71.1259 186.693C71.9659 186.507 73.0925 186.413 74.5059 186.413H75.5059V187.853H74.5259C73.6992 187.853 73.0392 187.893 72.5459 187.973C72.0525 188.053 71.6992 188.193 71.4859 188.393C71.2859 188.58 71.1859 188.847 71.1859 189.193C71.1859 189.633 71.3392 189.993 71.6459 190.273C71.9525 190.553 72.3792 190.693 72.9259 190.693C73.3659 190.693 73.7525 190.593 74.0859 190.393C74.4325 190.18 74.7059 189.893 74.9059 189.533C75.1059 189.173 75.2059 188.76 75.2059 188.293V185.993C75.2059 185.327 75.0592 184.847 74.7659 184.553C74.4725 184.26 73.9792 184.113 73.2859 184.113C72.8992 184.113 72.4792 184.16 72.0259 184.253C71.5859 184.347 71.1192 184.507 70.6259 184.733C70.3725 184.853 70.1459 184.887 69.9459 184.833C69.7592 184.78 69.6125 184.673 69.5059 184.513C69.3992 184.34 69.3459 184.153 69.3459 183.953C69.3459 183.753 69.3992 183.56 69.5059 183.373C69.6125 183.173 69.7925 183.027 70.0459 182.933C70.6592 182.68 71.2459 182.5 71.8059 182.393C72.3792 182.287 72.8992 182.233 73.3659 182.233C74.3259 182.233 75.1125 182.38 75.7259 182.673C76.3525 182.967 76.8192 183.413 77.1259 184.013C77.4325 184.6 77.5859 185.36 77.5859 186.293V191.093C77.5859 191.507 77.4859 191.827 77.2859 192.053C77.0859 192.267 76.7992 192.373 76.4259 192.373C76.0525 192.373 75.7592 192.267 75.5459 192.053C75.3459 191.827 75.2459 191.507 75.2459 191.093V190.133H75.4059C75.3125 190.6 75.1259 191.007 74.8459 191.353C74.5792 191.687 74.2392 191.947 73.8259 192.133C73.4125 192.32 72.9392 192.413 72.4059 192.413ZM83.4634 192.413C82.3567 192.413 81.5234 192.1 80.9634 191.473C80.4034 190.833 80.1234 189.9 80.1234 188.673V179.213C80.1234 178.8 80.23 178.487 80.4434 178.273C80.6567 178.06 80.9634 177.953 81.3634 177.953C81.7634 177.953 82.07 178.06 82.2834 178.273C82.51 178.487 82.6234 178.8 82.6234 179.213V188.553C82.6234 189.167 82.75 189.62 83.0034 189.913C83.27 190.207 83.6434 190.353 84.1234 190.353C84.23 190.353 84.33 190.353 84.4234 190.353C84.5167 190.34 84.61 190.327 84.7034 190.313C84.89 190.287 85.0167 190.34 85.0834 190.473C85.15 190.593 85.1834 190.847 85.1834 191.233C85.1834 191.567 85.1167 191.827 84.9834 192.013C84.85 192.2 84.63 192.313 84.3234 192.353C84.19 192.367 84.05 192.38 83.9034 192.393C83.7567 192.407 83.61 192.413 83.4634 192.413ZM93.5398 192.213C93.0998 192.213 92.7598 192.1 92.5198 191.873C92.2931 191.633 92.1798 191.293 92.1798 190.853V179.473C92.1798 179.033 92.2931 178.7 92.5198 178.473C92.7598 178.233 93.0998 178.113 93.5398 178.113H100.68C101.013 178.113 101.266 178.2 101.44 178.373C101.626 178.547 101.72 178.793 101.72 179.113C101.72 179.447 101.626 179.707 101.44 179.893C101.266 180.067 101.013 180.153 100.68 180.153H94.6398V184.033H100.24C100.586 184.033 100.846 184.12 101.02 184.293C101.193 184.467 101.28 184.72 101.28 185.053C101.28 185.387 101.193 185.64 101.02 185.813C100.846 185.987 100.586 186.073 100.24 186.073H94.6398V190.173H100.68C101.013 190.173 101.266 190.26 101.44 190.433C101.626 190.607 101.72 190.86 101.72 191.193C101.72 191.527 101.626 191.78 101.44 191.953C101.266 192.127 101.013 192.213 100.68 192.213H93.5398ZM107.356 192.413C106.782 192.413 106.176 192.353 105.536 192.233C104.896 192.113 104.322 191.907 103.816 191.613C103.602 191.48 103.449 191.327 103.356 191.153C103.276 190.967 103.242 190.787 103.256 190.613C103.282 190.427 103.349 190.267 103.456 190.133C103.576 190 103.722 189.913 103.896 189.873C104.082 189.833 104.282 189.867 104.496 189.973C105.029 190.227 105.529 190.407 105.996 190.513C106.462 190.607 106.922 190.653 107.376 190.653C108.016 190.653 108.489 190.547 108.796 190.333C109.116 190.107 109.276 189.813 109.276 189.453C109.276 189.147 109.169 188.913 108.956 188.753C108.756 188.58 108.449 188.453 108.036 188.373L106.036 187.993C105.209 187.833 104.576 187.533 104.136 187.093C103.709 186.64 103.496 186.06 103.496 185.353C103.496 184.713 103.669 184.16 104.016 183.693C104.376 183.227 104.869 182.867 105.496 182.613C106.122 182.36 106.842 182.233 107.656 182.233C108.242 182.233 108.789 182.3 109.296 182.433C109.816 182.553 110.316 182.747 110.796 183.013C110.996 183.12 111.129 183.26 111.196 183.433C111.276 183.607 111.296 183.787 111.256 183.973C111.216 184.147 111.136 184.307 111.016 184.453C110.896 184.587 110.742 184.673 110.556 184.713C110.382 184.74 110.182 184.7 109.956 184.593C109.542 184.38 109.142 184.227 108.756 184.133C108.382 184.04 108.022 183.993 107.676 183.993C107.022 183.993 106.536 184.107 106.216 184.333C105.909 184.56 105.756 184.86 105.756 185.233C105.756 185.513 105.849 185.747 106.036 185.933C106.222 186.12 106.509 186.247 106.896 186.313L108.896 186.693C109.762 186.853 110.416 187.147 110.856 187.573C111.309 188 111.536 188.573 111.536 189.293C111.536 190.267 111.156 191.033 110.396 191.593C109.636 192.14 108.622 192.413 107.356 192.413ZM117.924 192.413C117.057 192.413 116.33 192.267 115.744 191.973C115.17 191.68 114.744 191.253 114.464 190.693C114.184 190.12 114.044 189.413 114.044 188.573V184.313H113.004C112.684 184.313 112.437 184.233 112.264 184.073C112.09 183.9 112.004 183.667 112.004 183.373C112.004 183.067 112.09 182.833 112.264 182.673C112.437 182.513 112.684 182.433 113.004 182.433H114.044V180.613C114.044 180.2 114.15 179.887 114.364 179.673C114.59 179.46 114.904 179.353 115.304 179.353C115.704 179.353 116.01 179.46 116.224 179.673C116.437 179.887 116.544 180.2 116.544 180.613V182.433H118.664C118.984 182.433 119.23 182.513 119.404 182.673C119.577 182.833 119.664 183.067 119.664 183.373C119.664 183.667 119.577 183.9 119.404 184.073C119.23 184.233 118.984 184.313 118.664 184.313H116.544V188.433C116.544 189.073 116.684 189.553 116.964 189.873C117.244 190.193 117.697 190.353 118.324 190.353C118.55 190.353 118.75 190.333 118.924 190.293C119.097 190.253 119.25 190.227 119.384 190.213C119.544 190.2 119.677 190.253 119.784 190.373C119.89 190.48 119.944 190.707 119.944 191.053C119.944 191.32 119.897 191.56 119.804 191.773C119.724 191.973 119.57 192.113 119.344 192.193C119.17 192.247 118.944 192.293 118.664 192.333C118.384 192.387 118.137 192.413 117.924 192.413ZM124.339 192.413C123.633 192.413 122.999 192.28 122.439 192.013C121.893 191.733 121.459 191.36 121.139 190.893C120.833 190.427 120.679 189.9 120.679 189.313C120.679 188.593 120.866 188.027 121.239 187.613C121.613 187.187 122.219 186.88 123.059 186.693C123.899 186.507 125.026 186.413 126.439 186.413H127.439V187.853H126.459C125.633 187.853 124.973 187.893 124.479 187.973C123.986 188.053 123.633 188.193 123.419 188.393C123.219 188.58 123.119 188.847 123.119 189.193C123.119 189.633 123.273 189.993 123.579 190.273C123.886 190.553 124.313 190.693 124.859 190.693C125.299 190.693 125.686 190.593 126.019 190.393C126.366 190.18 126.639 189.893 126.839 189.533C127.039 189.173 127.139 188.76 127.139 188.293V185.993C127.139 185.327 126.993 184.847 126.699 184.553C126.406 184.26 125.913 184.113 125.219 184.113C124.833 184.113 124.413 184.16 123.959 184.253C123.519 184.347 123.053 184.507 122.559 184.733C122.306 184.853 122.079 184.887 121.879 184.833C121.693 184.78 121.546 184.673 121.439 184.513C121.333 184.34 121.279 184.153 121.279 183.953C121.279 183.753 121.333 183.56 121.439 183.373C121.546 183.173 121.726 183.027 121.979 182.933C122.593 182.68 123.179 182.5 123.739 182.393C124.313 182.287 124.833 182.233 125.299 182.233C126.259 182.233 127.046 182.38 127.659 182.673C128.286 182.967 128.753 183.413 129.059 184.013C129.366 184.6 129.519 185.36 129.519 186.293V191.093C129.519 191.507 129.419 191.827 129.219 192.053C129.019 192.267 128.733 192.373 128.359 192.373C127.986 192.373 127.693 192.267 127.479 192.053C127.279 191.827 127.179 191.507 127.179 191.093V190.133H127.339C127.246 190.6 127.059 191.007 126.779 191.353C126.513 191.687 126.173 191.947 125.759 192.133C125.346 192.32 124.873 192.413 124.339 192.413ZM136.537 192.413C135.67 192.413 134.944 192.267 134.357 191.973C133.784 191.68 133.357 191.253 133.077 190.693C132.797 190.12 132.657 189.413 132.657 188.573V184.313H131.617C131.297 184.313 131.05 184.233 130.877 184.073C130.704 183.9 130.617 183.667 130.617 183.373C130.617 183.067 130.704 182.833 130.877 182.673C131.05 182.513 131.297 182.433 131.617 182.433H132.657V180.613C132.657 180.2 132.764 179.887 132.977 179.673C133.204 179.46 133.517 179.353 133.917 179.353C134.317 179.353 134.624 179.46 134.837 179.673C135.05 179.887 135.157 180.2 135.157 180.613V182.433H137.277C137.597 182.433 137.844 182.513 138.017 182.673C138.19 182.833 138.277 183.067 138.277 183.373C138.277 183.667 138.19 183.9 138.017 184.073C137.844 184.233 137.597 184.313 137.277 184.313H135.157V188.433C135.157 189.073 135.297 189.553 135.577 189.873C135.857 190.193 136.31 190.353 136.937 190.353C137.164 190.353 137.364 190.333 137.537 190.293C137.71 190.253 137.864 190.227 137.997 190.213C138.157 190.2 138.29 190.253 138.397 190.373C138.504 190.48 138.557 190.707 138.557 191.053C138.557 191.32 138.51 191.56 138.417 191.773C138.337 191.973 138.184 192.113 137.957 192.193C137.784 192.247 137.557 192.293 137.277 192.333C136.997 192.387 136.75 192.413 136.537 192.413ZM144.455 192.413C143.348 192.413 142.395 192.207 141.595 191.793C140.795 191.38 140.175 190.793 139.735 190.033C139.308 189.273 139.095 188.373 139.095 187.333C139.095 186.32 139.302 185.433 139.715 184.673C140.142 183.913 140.722 183.32 141.455 182.893C142.202 182.453 143.048 182.233 143.995 182.233C144.688 182.233 145.308 182.347 145.855 182.573C146.415 182.8 146.888 183.127 147.275 183.553C147.675 183.98 147.975 184.5 148.175 185.113C148.388 185.713 148.495 186.393 148.495 187.153C148.495 187.393 148.408 187.58 148.235 187.713C148.075 187.833 147.842 187.893 147.535 187.893H141.115V186.453H146.735L146.415 186.753C146.415 186.14 146.322 185.627 146.135 185.213C145.962 184.8 145.702 184.487 145.355 184.273C145.022 184.047 144.602 183.933 144.095 183.933C143.535 183.933 143.055 184.067 142.655 184.333C142.268 184.587 141.968 184.953 141.755 185.433C141.555 185.9 141.455 186.46 141.455 187.113V187.253C141.455 188.347 141.708 189.167 142.215 189.713C142.735 190.247 143.495 190.513 144.495 190.513C144.842 190.513 145.228 190.473 145.655 190.393C146.095 190.3 146.508 190.147 146.895 189.933C147.175 189.773 147.422 189.707 147.635 189.733C147.848 189.747 148.015 189.82 148.135 189.953C148.268 190.087 148.348 190.253 148.375 190.453C148.402 190.64 148.362 190.833 148.255 191.033C148.162 191.233 147.995 191.407 147.755 191.553C147.288 191.847 146.748 192.067 146.135 192.213C145.535 192.347 144.975 192.413 144.455 192.413Z" fill="#212D4D"/>
<path d="M44.779 220.213V210.273H46.039V219.093H51.583V220.213H44.779ZM55.8414 220.353C55.2907 220.353 54.7914 220.255 54.3434 220.059C53.8954 219.854 53.5081 219.579 53.1814 219.233C52.8547 218.879 52.6027 218.473 52.4254 218.015C52.2481 217.558 52.1594 217.077 52.1594 216.573C52.1594 216.06 52.2481 215.575 52.4254 215.117C52.6027 214.66 52.8547 214.259 53.1814 213.913C53.5081 213.559 53.8954 213.283 54.3434 213.087C54.8007 212.882 55.3001 212.779 55.8414 212.779C56.3921 212.779 56.8914 212.882 57.3394 213.087C57.7874 213.283 58.1747 213.559 58.5014 213.913C58.8374 214.259 59.0941 214.66 59.2714 215.117C59.4487 215.575 59.5374 216.06 59.5374 216.573C59.5374 217.077 59.4487 217.558 59.2714 218.015C59.0941 218.473 58.8421 218.879 58.5154 219.233C58.1887 219.579 57.7967 219.854 57.3394 220.059C56.8914 220.255 56.3921 220.353 55.8414 220.353ZM53.4194 216.587C53.4194 217.091 53.5267 217.549 53.7414 217.959C53.9654 218.37 54.2594 218.697 54.6234 218.939C54.9874 219.173 55.3934 219.289 55.8414 219.289C56.2894 219.289 56.6954 219.168 57.0594 218.925C57.4327 218.683 57.7267 218.356 57.9414 217.945C58.1654 217.525 58.2774 217.063 58.2774 216.559C58.2774 216.055 58.1654 215.598 57.9414 215.187C57.7267 214.777 57.4327 214.45 57.0594 214.207C56.6954 213.965 56.2894 213.843 55.8414 213.843C55.3934 213.843 54.9874 213.969 54.6234 214.221C54.2594 214.464 53.9654 214.791 53.7414 215.201C53.5267 215.612 53.4194 216.074 53.4194 216.587ZM64.8943 213.983C64.2783 213.993 63.7323 214.151 63.2563 214.459C62.7896 214.758 62.4583 215.173 62.2623 215.705V220.213H61.0303V212.905H62.1783V214.599C62.4303 214.095 62.7616 213.689 63.1723 213.381C63.5923 213.064 64.0309 212.887 64.4883 212.849C64.5816 212.849 64.6609 212.849 64.7263 212.849C64.7916 212.849 64.8476 212.854 64.8943 212.863V213.983ZM69.1725 220.353C68.6218 220.353 68.1178 220.255 67.6605 220.059C67.2125 219.854 66.8205 219.579 66.4845 219.233C66.1578 218.879 65.9011 218.473 65.7145 218.015C65.5371 217.558 65.4485 217.073 65.4485 216.559C65.4485 215.869 65.6071 215.239 65.9245 214.669C66.2418 214.1 66.6805 213.643 67.2405 213.297C67.8098 212.952 68.4585 212.779 69.1865 212.779C69.9238 212.779 70.5631 212.957 71.1045 213.311C71.6551 213.657 72.0798 214.114 72.3785 214.683C72.6865 215.243 72.8405 215.85 72.8405 216.503C72.8405 216.597 72.8358 216.69 72.8265 216.783C72.8265 216.867 72.8218 216.933 72.8125 216.979H66.7505C66.7878 217.455 66.9185 217.88 67.1425 218.253C67.3758 218.617 67.6745 218.907 68.0385 219.121C68.4025 219.327 68.7945 219.429 69.2145 219.429C69.6625 219.429 70.0825 219.317 70.4745 219.093C70.8758 218.869 71.1511 218.575 71.3005 218.211L72.3645 218.505C72.2058 218.86 71.9678 219.177 71.6505 219.457C71.3425 219.737 70.9738 219.957 70.5445 220.115C70.1245 220.274 69.6671 220.353 69.1725 220.353ZM66.7085 216.125H71.6925C71.6551 215.649 71.5198 215.229 71.2865 214.865C71.0531 214.501 70.7545 214.217 70.3905 214.011C70.0265 213.806 69.6251 213.703 69.1865 213.703C68.7571 213.703 68.3605 213.806 67.9965 214.011C67.6325 214.217 67.3338 214.501 67.1005 214.865C66.8765 215.229 66.7458 215.649 66.7085 216.125ZM85.2279 220.213H83.9959V216.125C83.9959 215.36 83.8699 214.795 83.6179 214.431C83.3753 214.067 83.0113 213.885 82.5259 213.885C82.0313 213.885 81.5833 214.067 81.1819 214.431C80.7806 214.786 80.4959 215.248 80.3279 215.817V220.213H79.0959V216.125C79.0959 215.351 78.9746 214.786 78.7319 214.431C78.4893 214.067 78.1253 213.885 77.6399 213.885C77.1546 213.885 76.7066 214.063 76.2959 214.417C75.8946 214.763 75.6099 215.225 75.4419 215.803V220.213H74.2099V212.905H75.3299V214.473C75.6286 213.932 76.0159 213.517 76.4919 213.227C76.9679 212.929 77.5046 212.779 78.1019 212.779C78.7086 212.779 79.1939 212.947 79.5579 213.283C79.9219 213.61 80.1459 214.035 80.2299 214.557C80.5566 213.979 80.9533 213.54 81.4199 213.241C81.8866 212.933 82.4186 212.779 83.0159 212.779C83.4359 212.779 83.7859 212.859 84.0659 213.017C84.3553 213.167 84.5839 213.381 84.7519 213.661C84.9199 213.932 85.0413 214.254 85.1159 214.627C85.1906 215.001 85.2279 215.407 85.2279 215.845V220.213ZM90.6846 220.213V212.905H91.9166V220.213H90.6846ZM90.6846 211.533V209.993H91.9166V211.533H90.6846ZM97.8451 220.353C97.2478 220.353 96.7158 220.204 96.2491 219.905C95.7824 219.607 95.4138 219.229 95.1431 218.771V223.195H93.9111V212.905H95.0031V214.277C95.2924 213.829 95.6704 213.47 96.1371 213.199C96.6038 212.919 97.1124 212.779 97.6631 212.779C98.1671 212.779 98.6291 212.882 99.0491 213.087C99.4691 213.293 99.8331 213.573 100.141 213.927C100.449 214.282 100.687 214.688 100.855 215.145C101.032 215.593 101.121 216.065 101.121 216.559C101.121 217.25 100.981 217.885 100.701 218.463C100.43 219.042 100.048 219.504 99.5531 219.849C99.0584 220.185 98.4891 220.353 97.8451 220.353ZM97.4671 219.289C97.8311 219.289 98.1578 219.215 98.4471 219.065C98.7458 218.907 98.9978 218.701 99.2031 218.449C99.4178 218.188 99.5811 217.894 99.6931 217.567C99.8051 217.241 99.8611 216.905 99.8611 216.559C99.8611 216.195 99.7958 215.85 99.6651 215.523C99.5438 215.197 99.3664 214.907 99.1331 214.655C98.9091 214.403 98.6431 214.207 98.3351 214.067C98.0364 213.918 97.7098 213.843 97.3551 213.843C97.1311 213.843 96.8978 213.885 96.6551 213.969C96.4218 214.053 96.1978 214.175 95.9831 214.333C95.7684 214.483 95.5864 214.655 95.4371 214.851C95.2878 215.047 95.1898 215.257 95.1431 215.481V217.567C95.2831 217.885 95.4698 218.174 95.7031 218.435C95.9364 218.697 96.2071 218.907 96.5151 219.065C96.8231 219.215 97.1404 219.289 97.4671 219.289ZM105.14 220.353C104.533 220.353 103.964 220.255 103.432 220.059C102.9 219.854 102.442 219.551 102.06 219.149L102.536 218.281C102.956 218.673 103.376 218.953 103.796 219.121C104.216 219.289 104.645 219.373 105.084 219.373C105.588 219.373 105.998 219.28 106.316 219.093C106.633 218.897 106.792 218.613 106.792 218.239C106.792 217.969 106.708 217.768 106.54 217.637C106.381 217.507 106.152 217.399 105.854 217.315C105.555 217.222 105.2 217.119 104.79 217.007C104.286 216.858 103.861 216.699 103.516 216.531C103.17 216.363 102.909 216.153 102.732 215.901C102.554 215.649 102.466 215.332 102.466 214.949C102.466 214.483 102.587 214.091 102.83 213.773C103.072 213.447 103.404 213.199 103.824 213.031C104.253 212.863 104.738 212.779 105.28 212.779C105.821 212.779 106.311 212.863 106.75 213.031C107.188 213.199 107.566 213.447 107.884 213.773L107.324 214.627C107.034 214.329 106.717 214.109 106.372 213.969C106.026 213.82 105.639 213.745 105.21 213.745C104.958 213.745 104.71 213.778 104.468 213.843C104.225 213.899 104.024 214.007 103.866 214.165C103.707 214.315 103.628 214.529 103.628 214.809C103.628 215.043 103.688 215.229 103.81 215.369C103.94 215.5 104.127 215.612 104.37 215.705C104.622 215.799 104.925 215.901 105.28 216.013C105.83 216.172 106.306 216.331 106.708 216.489C107.118 216.648 107.436 216.853 107.66 217.105C107.884 217.357 107.996 217.707 107.996 218.155C107.996 218.846 107.734 219.387 107.212 219.779C106.689 220.162 105.998 220.353 105.14 220.353ZM109.4 217.287V212.905H110.632V217.049C110.632 217.796 110.762 218.356 111.024 218.729C111.285 219.103 111.672 219.289 112.186 219.289C112.522 219.289 112.844 219.219 113.152 219.079C113.469 218.93 113.754 218.72 114.006 218.449C114.258 218.179 114.454 217.857 114.594 217.483V212.905H115.826V218.813C115.826 218.963 115.854 219.075 115.91 219.149C115.975 219.215 116.078 219.252 116.218 219.261V220.213C116.078 220.232 115.966 220.241 115.882 220.241C115.807 220.251 115.732 220.255 115.658 220.255C115.424 220.255 115.224 220.185 115.056 220.045C114.888 219.896 114.799 219.714 114.79 219.499L114.762 218.645C114.444 219.187 114.015 219.607 113.474 219.905C112.942 220.204 112.358 220.353 111.724 220.353C110.958 220.353 110.38 220.097 109.988 219.583C109.596 219.061 109.4 218.295 109.4 217.287ZM128.896 220.213H127.664V216.125C127.664 215.36 127.538 214.795 127.286 214.431C127.043 214.067 126.679 213.885 126.194 213.885C125.699 213.885 125.251 214.067 124.85 214.431C124.449 214.786 124.164 215.248 123.996 215.817V220.213H122.764V216.125C122.764 215.351 122.643 214.786 122.4 214.431C122.157 214.067 121.793 213.885 121.308 213.885C120.823 213.885 120.375 214.063 119.964 214.417C119.563 214.763 119.278 215.225 119.11 215.803V220.213H117.878V212.905H118.998V214.473C119.297 213.932 119.684 213.517 120.16 213.227C120.636 212.929 121.173 212.779 121.77 212.779C122.377 212.779 122.862 212.947 123.226 213.283C123.59 213.61 123.814 214.035 123.898 214.557C124.225 213.979 124.621 213.54 125.088 213.241C125.555 212.933 126.087 212.779 126.684 212.779C127.104 212.779 127.454 212.859 127.734 213.017C128.023 213.167 128.252 213.381 128.42 213.661C128.588 213.932 128.709 214.254 128.784 214.627C128.859 215.001 128.896 215.407 128.896 215.845V220.213ZM133.877 216.573C133.877 215.883 134.017 215.253 134.297 214.683C134.586 214.105 134.978 213.643 135.473 213.297C135.977 212.952 136.551 212.779 137.195 212.779C137.783 212.779 138.31 212.933 138.777 213.241C139.243 213.549 139.607 213.923 139.869 214.361V209.993H141.101V218.813C141.101 218.963 141.129 219.075 141.185 219.149C141.25 219.215 141.353 219.252 141.493 219.261V220.213C141.259 220.251 141.077 220.269 140.947 220.269C140.704 220.269 140.489 220.185 140.303 220.017C140.125 219.849 140.037 219.663 140.037 219.457V218.841C139.747 219.308 139.36 219.677 138.875 219.947C138.389 220.218 137.885 220.353 137.363 220.353C136.859 220.353 136.392 220.255 135.963 220.059C135.543 219.854 135.174 219.574 134.857 219.219C134.549 218.865 134.306 218.463 134.129 218.015C133.961 217.558 133.877 217.077 133.877 216.573ZM139.869 217.651V215.551C139.757 215.234 139.575 214.949 139.323 214.697C139.071 214.436 138.786 214.231 138.469 214.081C138.161 213.923 137.853 213.843 137.545 213.843C137.181 213.843 136.849 213.923 136.551 214.081C136.261 214.231 136.009 214.436 135.795 214.697C135.589 214.949 135.431 215.239 135.319 215.565C135.207 215.892 135.151 216.233 135.151 216.587C135.151 216.951 135.211 217.297 135.333 217.623C135.463 217.95 135.641 218.239 135.865 218.491C136.098 218.743 136.364 218.939 136.663 219.079C136.971 219.219 137.302 219.289 137.657 219.289C137.881 219.289 138.109 219.247 138.343 219.163C138.585 219.079 138.814 218.963 139.029 218.813C139.243 218.664 139.425 218.491 139.575 218.295C139.724 218.09 139.822 217.875 139.869 217.651ZM146.349 220.353C145.799 220.353 145.299 220.255 144.851 220.059C144.403 219.854 144.016 219.579 143.689 219.233C143.363 218.879 143.111 218.473 142.933 218.015C142.756 217.558 142.667 217.077 142.667 216.573C142.667 216.06 142.756 215.575 142.933 215.117C143.111 214.66 143.363 214.259 143.689 213.913C144.016 213.559 144.403 213.283 144.851 213.087C145.309 212.882 145.808 212.779 146.349 212.779C146.9 212.779 147.399 212.882 147.847 213.087C148.295 213.283 148.683 213.559 149.009 213.913C149.345 214.259 149.602 214.66 149.779 215.117C149.957 215.575 150.045 216.06 150.045 216.573C150.045 217.077 149.957 217.558 149.779 218.015C149.602 218.473 149.35 218.879 149.023 219.233C148.697 219.579 148.305 219.854 147.847 220.059C147.399 220.255 146.9 220.353 146.349 220.353ZM143.927 216.587C143.927 217.091 144.035 217.549 144.249 217.959C144.473 218.37 144.767 218.697 145.131 218.939C145.495 219.173 145.901 219.289 146.349 219.289C146.797 219.289 147.203 219.168 147.567 218.925C147.941 218.683 148.235 218.356 148.449 217.945C148.673 217.525 148.785 217.063 148.785 216.559C148.785 216.055 148.673 215.598 148.449 215.187C148.235 214.777 147.941 214.45 147.567 214.207C147.203 213.965 146.797 213.843 146.349 213.843C145.901 213.843 145.495 213.969 145.131 214.221C144.767 214.464 144.473 214.791 144.249 215.201C144.035 215.612 143.927 216.074 143.927 216.587ZM151.566 209.993H152.798V218.323C152.798 218.725 152.854 218.972 152.966 219.065C153.078 219.159 153.213 219.205 153.372 219.205C153.568 219.205 153.755 219.187 153.932 219.149C154.109 219.103 154.259 219.056 154.38 219.009L154.576 220.017C154.371 220.101 154.128 220.171 153.848 220.227C153.568 220.283 153.321 220.311 153.106 220.311C152.63 220.311 152.252 220.176 151.972 219.905C151.701 219.635 151.566 219.257 151.566 218.771V209.993ZM158.736 220.353C158.185 220.353 157.686 220.255 157.238 220.059C156.79 219.854 156.403 219.579 156.076 219.233C155.749 218.879 155.497 218.473 155.32 218.015C155.143 217.558 155.054 217.077 155.054 216.573C155.054 216.06 155.143 215.575 155.32 215.117C155.497 214.66 155.749 214.259 156.076 213.913C156.403 213.559 156.79 213.283 157.238 213.087C157.695 212.882 158.195 212.779 158.736 212.779C159.287 212.779 159.786 212.882 160.234 213.087C160.682 213.283 161.069 213.559 161.396 213.913C161.732 214.259 161.989 214.66 162.166 215.117C162.343 215.575 162.432 216.06 162.432 216.573C162.432 217.077 162.343 217.558 162.166 218.015C161.989 218.473 161.737 218.879 161.41 219.233C161.083 219.579 160.691 219.854 160.234 220.059C159.786 220.255 159.287 220.353 158.736 220.353ZM156.314 216.587C156.314 217.091 156.421 217.549 156.636 217.959C156.86 218.37 157.154 218.697 157.518 218.939C157.882 219.173 158.288 219.289 158.736 219.289C159.184 219.289 159.59 219.168 159.954 218.925C160.327 218.683 160.621 218.356 160.836 217.945C161.06 217.525 161.172 217.063 161.172 216.559C161.172 216.055 161.06 215.598 160.836 215.187C160.621 214.777 160.327 214.45 159.954 214.207C159.59 213.965 159.184 213.843 158.736 213.843C158.288 213.843 157.882 213.969 157.518 214.221C157.154 214.464 156.86 214.791 156.636 215.201C156.421 215.612 156.314 216.074 156.314 216.587ZM167.789 213.983C167.173 213.993 166.627 214.151 166.151 214.459C165.684 214.758 165.353 215.173 165.157 215.705V220.213H163.925V212.905H165.073V214.599C165.325 214.095 165.656 213.689 166.067 213.381C166.487 213.064 166.925 212.887 167.383 212.849C167.476 212.849 167.555 212.849 167.621 212.849C167.686 212.849 167.742 212.854 167.789 212.863V213.983ZM174.73 220.353C174.123 220.353 173.554 220.255 173.022 220.059C172.49 219.854 172.032 219.551 171.65 219.149L172.126 218.281C172.546 218.673 172.966 218.953 173.386 219.121C173.806 219.289 174.235 219.373 174.674 219.373C175.178 219.373 175.588 219.28 175.906 219.093C176.223 218.897 176.382 218.613 176.382 218.239C176.382 217.969 176.298 217.768 176.13 217.637C175.971 217.507 175.742 217.399 175.444 217.315C175.145 217.222 174.79 217.119 174.38 217.007C173.876 216.858 173.451 216.699 173.106 216.531C172.76 216.363 172.499 216.153 172.322 215.901C172.144 215.649 172.056 215.332 172.056 214.949C172.056 214.483 172.177 214.091 172.42 213.773C172.662 213.447 172.994 213.199 173.414 213.031C173.843 212.863 174.328 212.779 174.87 212.779C175.411 212.779 175.901 212.863 176.34 213.031C176.778 213.199 177.156 213.447 177.474 213.773L176.914 214.627C176.624 214.329 176.307 214.109 175.962 213.969C175.616 213.82 175.229 213.745 174.8 213.745C174.548 213.745 174.3 213.778 174.058 213.843C173.815 213.899 173.614 214.007 173.456 214.165C173.297 214.315 173.218 214.529 173.218 214.809C173.218 215.043 173.278 215.229 173.4 215.369C173.53 215.5 173.717 215.612 173.96 215.705C174.212 215.799 174.515 215.901 174.87 216.013C175.42 216.172 175.896 216.331 176.298 216.489C176.708 216.648 177.026 216.853 177.25 217.105C177.474 217.357 177.586 217.707 177.586 218.155C177.586 218.846 177.324 219.387 176.802 219.779C176.279 220.162 175.588 220.353 174.73 220.353ZM179.06 220.213V212.905H180.292V220.213H179.06ZM179.06 211.533V209.993H180.292V211.533H179.06ZM186.066 219.849C185.963 219.896 185.823 219.957 185.646 220.031C185.469 220.106 185.263 220.171 185.03 220.227C184.797 220.283 184.549 220.311 184.288 220.311C183.989 220.311 183.714 220.26 183.462 220.157C183.21 220.045 183.009 219.877 182.86 219.653C182.711 219.42 182.636 219.131 182.636 218.785V213.871H181.642V212.905H182.636V210.469H183.868V212.905H185.506V213.871H183.868V218.407C183.887 218.669 183.975 218.865 184.134 218.995C184.293 219.117 184.479 219.177 184.694 219.177C184.937 219.177 185.161 219.135 185.366 219.051C185.571 218.967 185.707 218.907 185.772 218.869L186.066 219.849ZM190.175 218.099C190.175 217.633 190.306 217.231 190.567 216.895C190.838 216.55 191.206 216.284 191.673 216.097C192.14 215.911 192.681 215.817 193.297 215.817C193.624 215.817 193.969 215.845 194.333 215.901C194.697 215.948 195.019 216.023 195.299 216.125V215.593C195.299 215.033 195.131 214.595 194.795 214.277C194.459 213.951 193.983 213.787 193.367 213.787C192.966 213.787 192.578 213.862 192.205 214.011C191.841 214.151 191.454 214.357 191.043 214.627L190.595 213.759C191.071 213.433 191.547 213.19 192.023 213.031C192.499 212.863 192.994 212.779 193.507 212.779C194.44 212.779 195.178 213.041 195.719 213.563C196.26 214.077 196.531 214.795 196.531 215.719V218.813C196.531 218.963 196.559 219.075 196.615 219.149C196.68 219.215 196.783 219.252 196.923 219.261V220.213C196.802 220.232 196.694 220.246 196.601 220.255C196.517 220.265 196.447 220.269 196.391 220.269C196.102 220.269 195.882 220.19 195.733 220.031C195.593 219.873 195.514 219.705 195.495 219.527L195.467 219.065C195.15 219.476 194.734 219.793 194.221 220.017C193.708 220.241 193.199 220.353 192.695 220.353C192.21 220.353 191.776 220.255 191.393 220.059C191.01 219.854 190.712 219.583 190.497 219.247C190.282 218.902 190.175 218.519 190.175 218.099ZM194.935 218.617C195.047 218.487 195.136 218.356 195.201 218.225C195.266 218.085 195.299 217.969 195.299 217.875V216.965C195.01 216.853 194.706 216.769 194.389 216.713C194.072 216.648 193.759 216.615 193.451 216.615C192.826 216.615 192.317 216.741 191.925 216.993C191.542 217.236 191.351 217.572 191.351 218.001C191.351 218.235 191.412 218.463 191.533 218.687C191.664 218.902 191.85 219.079 192.093 219.219C192.345 219.359 192.653 219.429 193.017 219.429C193.4 219.429 193.764 219.355 194.109 219.205C194.454 219.047 194.73 218.851 194.935 218.617ZM209.519 220.213H208.287V216.125C208.287 215.36 208.161 214.795 207.909 214.431C207.666 214.067 207.302 213.885 206.817 213.885C206.322 213.885 205.874 214.067 205.473 214.431C205.072 214.786 204.787 215.248 204.619 215.817V220.213H203.387V216.125C203.387 215.351 203.266 214.786 203.023 214.431C202.78 214.067 202.416 213.885 201.931 213.885C201.446 213.885 200.998 214.063 200.587 214.417C200.186 214.763 199.901 215.225 199.733 215.803V220.213H198.501V212.905H199.621V214.473C199.92 213.932 200.307 213.517 200.783 213.227C201.259 212.929 201.796 212.779 202.393 212.779C203 212.779 203.485 212.947 203.849 213.283C204.213 213.61 204.437 214.035 204.521 214.557C204.848 213.979 205.244 213.54 205.711 213.241C206.178 212.933 206.71 212.779 207.307 212.779C207.727 212.779 208.077 212.859 208.357 213.017C208.646 213.167 208.875 213.381 209.043 213.661C209.211 213.932 209.332 214.254 209.407 214.627C209.482 215.001 209.519 215.407 209.519 215.845V220.213ZM214.669 220.353C214.118 220.353 213.614 220.255 213.157 220.059C212.709 219.854 212.317 219.579 211.981 219.233C211.654 218.879 211.397 218.473 211.211 218.015C211.033 217.558 210.945 217.073 210.945 216.559C210.945 215.869 211.103 215.239 211.421 214.669C211.738 214.1 212.177 213.643 212.737 213.297C213.306 212.952 213.955 212.779 214.683 212.779C215.42 212.779 216.059 212.957 216.601 213.311C217.151 213.657 217.576 214.114 217.875 214.683C218.183 215.243 218.337 215.85 218.337 216.503C218.337 216.597 218.332 216.69 218.323 216.783C218.323 216.867 218.318 216.933 218.309 216.979H212.247C212.284 217.455 212.415 217.88 212.639 218.253C212.872 218.617 213.171 218.907 213.535 219.121C213.899 219.327 214.291 219.429 214.711 219.429C215.159 219.429 215.579 219.317 215.971 219.093C216.372 218.869 216.647 218.575 216.797 218.211L217.861 218.505C217.702 218.86 217.464 219.177 217.147 219.457C216.839 219.737 216.47 219.957 216.041 220.115C215.621 220.274 215.163 220.353 214.669 220.353ZM212.205 216.125H217.189C217.151 215.649 217.016 215.229 216.783 214.865C216.549 214.501 216.251 214.217 215.887 214.011C215.523 213.806 215.121 213.703 214.683 213.703C214.253 213.703 213.857 213.806 213.493 214.011C213.129 214.217 212.83 214.501 212.597 214.865C212.373 215.229 212.242 215.649 212.205 216.125ZM223.418 219.849C223.315 219.896 223.175 219.957 222.998 220.031C222.82 220.106 222.615 220.171 222.382 220.227C222.148 220.283 221.901 220.311 221.64 220.311C221.341 220.311 221.066 220.26 220.814 220.157C220.562 220.045 220.361 219.877 220.212 219.653C220.062 219.42 219.988 219.131 219.988 218.785V213.871H218.994V212.905H219.988V210.469H221.22V212.905H222.858V213.871H221.22V218.407C221.238 218.669 221.327 218.865 221.486 218.995C221.644 219.117 221.831 219.177 222.046 219.177C222.288 219.177 222.512 219.135 222.718 219.051C222.923 218.967 223.058 218.907 223.124 218.869L223.418 219.849ZM224.602 221.347L224.882 220.101H224.462V218.645H225.624V220.101L225.204 221.347H224.602ZM47.817 241.353C47.2663 241.353 46.7623 241.255 46.305 241.059C45.857 240.854 45.465 240.574 45.129 240.219C44.8023 239.865 44.5457 239.459 44.359 239.001C44.1817 238.544 44.093 238.059 44.093 237.545C44.093 236.855 44.247 236.225 44.555 235.655C44.863 235.086 45.297 234.633 45.857 234.297C46.417 233.952 47.0657 233.779 47.803 233.779C48.5217 233.779 49.147 233.943 49.679 234.269C50.2203 234.587 50.6217 235.016 50.883 235.557L49.679 235.935C49.4923 235.59 49.231 235.324 48.895 235.137C48.559 234.941 48.1857 234.843 47.775 234.843C47.327 234.843 46.9163 234.96 46.543 235.193C46.179 235.427 45.8897 235.749 45.675 236.159C45.4603 236.561 45.353 237.023 45.353 237.545C45.353 238.059 45.4603 238.525 45.675 238.945C45.899 239.356 46.193 239.683 46.557 239.925C46.9303 240.168 47.341 240.289 47.789 240.289C48.0783 240.289 48.3537 240.238 48.615 240.135C48.8857 240.033 49.119 239.897 49.315 239.729C49.5203 239.552 49.6603 239.361 49.735 239.155L50.939 239.519C50.7897 239.874 50.561 240.191 50.253 240.471C49.9543 240.742 49.595 240.957 49.175 241.115C48.7643 241.274 48.3117 241.353 47.817 241.353ZM55.4586 241.353C54.9079 241.353 54.4086 241.255 53.9606 241.059C53.5126 240.854 53.1252 240.579 52.7986 240.233C52.4719 239.879 52.2199 239.473 52.0426 239.015C51.8652 238.558 51.7766 238.077 51.7766 237.573C51.7766 237.06 51.8652 236.575 52.0426 236.117C52.2199 235.66 52.4719 235.259 52.7986 234.913C53.1252 234.559 53.5126 234.283 53.9606 234.087C54.4179 233.882 54.9172 233.779 55.4586 233.779C56.0092 233.779 56.5086 233.882 56.9566 234.087C57.4046 234.283 57.7919 234.559 58.1186 234.913C58.4546 235.259 58.7113 235.66 58.8886 236.117C59.0659 236.575 59.1546 237.06 59.1546 237.573C59.1546 238.077 59.0659 238.558 58.8886 239.015C58.7113 239.473 58.4593 239.879 58.1326 240.233C57.8059 240.579 57.4139 240.854 56.9566 241.059C56.5086 241.255 56.0092 241.353 55.4586 241.353ZM53.0366 237.587C53.0366 238.091 53.1439 238.549 53.3586 238.959C53.5826 239.37 53.8766 239.697 54.2406 239.939C54.6046 240.173 55.0106 240.289 55.4586 240.289C55.9066 240.289 56.3126 240.168 56.6766 239.925C57.0499 239.683 57.3439 239.356 57.5586 238.945C57.7826 238.525 57.8946 238.063 57.8946 237.559C57.8946 237.055 57.7826 236.598 57.5586 236.187C57.3439 235.777 57.0499 235.45 56.6766 235.207C56.3126 234.965 55.9066 234.843 55.4586 234.843C55.0106 234.843 54.6046 234.969 54.2406 235.221C53.8766 235.464 53.5826 235.791 53.3586 236.201C53.1439 236.612 53.0366 237.074 53.0366 237.587ZM66.9894 241.213H65.7574V237.125C65.7574 236.351 65.6361 235.786 65.3934 235.431C65.1601 235.067 64.8008 234.885 64.3154 234.885C63.9794 234.885 63.6434 234.969 63.3074 235.137C62.9808 235.305 62.6868 235.534 62.4254 235.823C62.1734 236.103 61.9914 236.43 61.8794 236.803V241.213H60.6474V233.905H61.7674V235.473C61.9634 235.128 62.2154 234.829 62.5234 234.577C62.8314 234.325 63.1814 234.129 63.5734 233.989C63.9654 233.849 64.3761 233.779 64.8054 233.779C65.2254 233.779 65.5754 233.859 65.8554 234.017C66.1448 234.167 66.3688 234.381 66.5274 234.661C66.6954 234.932 66.8121 235.254 66.8774 235.627C66.9521 236.001 66.9894 236.407 66.9894 236.845V241.213ZM71.4113 241.353C70.8046 241.353 70.2353 241.255 69.7033 241.059C69.1713 240.854 68.7139 240.551 68.3313 240.149L68.8073 239.281C69.2273 239.673 69.6473 239.953 70.0673 240.121C70.4873 240.289 70.9166 240.373 71.3553 240.373C71.8593 240.373 72.2699 240.28 72.5873 240.093C72.9046 239.897 73.0633 239.613 73.0633 239.239C73.0633 238.969 72.9793 238.768 72.8113 238.637C72.6526 238.507 72.4239 238.399 72.1253 238.315C71.8266 238.222 71.4719 238.119 71.0613 238.007C70.5573 237.858 70.1326 237.699 69.7873 237.531C69.4419 237.363 69.1806 237.153 69.0033 236.901C68.8259 236.649 68.7373 236.332 68.7373 235.949C68.7373 235.483 68.8586 235.091 69.1013 234.773C69.3439 234.447 69.6753 234.199 70.0953 234.031C70.5246 233.863 71.0099 233.779 71.5513 233.779C72.0926 233.779 72.5826 233.863 73.0213 234.031C73.4599 234.199 73.8379 234.447 74.1553 234.773L73.5953 235.627C73.3059 235.329 72.9886 235.109 72.6433 234.969C72.2979 234.82 71.9106 234.745 71.4813 234.745C71.2293 234.745 70.9819 234.778 70.7393 234.843C70.4966 234.899 70.2959 235.007 70.1373 235.165C69.9786 235.315 69.8993 235.529 69.8993 235.809C69.8993 236.043 69.9599 236.229 70.0813 236.369C70.2119 236.5 70.3986 236.612 70.6413 236.705C70.8933 236.799 71.1966 236.901 71.5513 237.013C72.1019 237.172 72.5779 237.331 72.9793 237.489C73.3899 237.648 73.7073 237.853 73.9313 238.105C74.1553 238.357 74.2673 238.707 74.2673 239.155C74.2673 239.846 74.0059 240.387 73.4833 240.779C72.9606 241.162 72.2699 241.353 71.4113 241.353ZM78.9752 241.353C78.4245 241.353 77.9205 241.255 77.4632 241.059C77.0152 240.854 76.6232 240.579 76.2872 240.233C75.9605 239.879 75.7039 239.473 75.5172 239.015C75.3399 238.558 75.2512 238.073 75.2512 237.559C75.2512 236.869 75.4099 236.239 75.7272 235.669C76.0445 235.1 76.4832 234.643 77.0432 234.297C77.6125 233.952 78.2612 233.779 78.9892 233.779C79.7265 233.779 80.3659 233.957 80.9072 234.311C81.4579 234.657 81.8825 235.114 82.1812 235.683C82.4892 236.243 82.6432 236.85 82.6432 237.503C82.6432 237.597 82.6385 237.69 82.6292 237.783C82.6292 237.867 82.6245 237.933 82.6152 237.979H76.5532C76.5905 238.455 76.7212 238.88 76.9452 239.253C77.1785 239.617 77.4772 239.907 77.8412 240.121C78.2052 240.327 78.5972 240.429 79.0172 240.429C79.4652 240.429 79.8852 240.317 80.2772 240.093C80.6785 239.869 80.9539 239.575 81.1032 239.211L82.1672 239.505C82.0085 239.86 81.7705 240.177 81.4532 240.457C81.1452 240.737 80.7765 240.957 80.3472 241.115C79.9272 241.274 79.4699 241.353 78.9752 241.353ZM76.5112 237.125H81.4952C81.4579 236.649 81.3225 236.229 81.0892 235.865C80.8559 235.501 80.5572 235.217 80.1932 235.011C79.8292 234.806 79.4279 234.703 78.9892 234.703C78.5599 234.703 78.1632 234.806 77.7992 235.011C77.4352 235.217 77.1365 235.501 76.9032 235.865C76.6792 236.229 76.5485 236.649 76.5112 237.125ZM87.2467 241.353C86.696 241.353 86.192 241.255 85.7347 241.059C85.2867 240.854 84.8947 240.574 84.5587 240.219C84.232 239.865 83.9753 239.459 83.7887 239.001C83.6113 238.544 83.5227 238.059 83.5227 237.545C83.5227 236.855 83.6767 236.225 83.9847 235.655C84.2927 235.086 84.7267 234.633 85.2867 234.297C85.8467 233.952 86.4953 233.779 87.2327 233.779C87.9513 233.779 88.5767 233.943 89.1087 234.269C89.65 234.587 90.0513 235.016 90.3127 235.557L89.1087 235.935C88.922 235.59 88.6607 235.324 88.3247 235.137C87.9887 234.941 87.6153 234.843 87.2047 234.843C86.7567 234.843 86.346 234.96 85.9727 235.193C85.6087 235.427 85.3193 235.749 85.1047 236.159C84.89 236.561 84.7827 237.023 84.7827 237.545C84.7827 238.059 84.89 238.525 85.1047 238.945C85.3287 239.356 85.6227 239.683 85.9867 239.925C86.36 240.168 86.7707 240.289 87.2187 240.289C87.508 240.289 87.7833 240.238 88.0447 240.135C88.3153 240.033 88.5487 239.897 88.7447 239.729C88.95 239.552 89.09 239.361 89.1647 239.155L90.3687 239.519C90.2193 239.874 89.9907 240.191 89.6827 240.471C89.384 240.742 89.0247 240.957 88.6047 241.115C88.194 241.274 87.7413 241.353 87.2467 241.353ZM95.5446 240.849C95.442 240.896 95.302 240.957 95.1246 241.031C94.9473 241.106 94.742 241.171 94.5086 241.227C94.2753 241.283 94.028 241.311 93.7666 241.311C93.468 241.311 93.1926 241.26 92.9406 241.157C92.6886 241.045 92.488 240.877 92.3386 240.653C92.1893 240.42 92.1146 240.131 92.1146 239.785V234.871H91.1206V233.905H92.1146V231.469H93.3466V233.905H94.9846V234.871H93.3466V239.407C93.3653 239.669 93.454 239.865 93.6126 239.995C93.7713 240.117 93.958 240.177 94.1726 240.177C94.4153 240.177 94.6393 240.135 94.8446 240.051C95.05 239.967 95.1853 239.907 95.2506 239.869L95.5446 240.849ZM99.8248 241.353C99.2741 241.353 98.7701 241.255 98.3128 241.059C97.8648 240.854 97.4728 240.579 97.1368 240.233C96.8101 239.879 96.5535 239.473 96.3668 239.015C96.1895 238.558 96.1008 238.073 96.1008 237.559C96.1008 236.869 96.2595 236.239 96.5768 235.669C96.8941 235.1 97.3328 234.643 97.8928 234.297C98.4621 233.952 99.1108 233.779 99.8388 233.779C100.576 233.779 101.215 233.957 101.757 234.311C102.307 234.657 102.732 235.114 103.031 235.683C103.339 236.243 103.493 236.85 103.493 237.503C103.493 237.597 103.488 237.69 103.479 237.783C103.479 237.867 103.474 237.933 103.465 237.979H97.4028C97.4401 238.455 97.5708 238.88 97.7948 239.253C98.0281 239.617 98.3268 239.907 98.6908 240.121C99.0548 240.327 99.4468 240.429 99.8668 240.429C100.315 240.429 100.735 240.317 101.127 240.093C101.528 239.869 101.803 239.575 101.953 239.211L103.017 239.505C102.858 239.86 102.62 240.177 102.303 240.457C101.995 240.737 101.626 240.957 101.197 241.115C100.777 241.274 100.319 241.353 99.8248 241.353ZM97.3608 237.125H102.345C102.307 236.649 102.172 236.229 101.939 235.865C101.705 235.501 101.407 235.217 101.043 235.011C100.679 234.806 100.277 234.703 99.8388 234.703C99.4095 234.703 99.0128 234.806 98.6488 235.011C98.2848 235.217 97.9861 235.501 97.7528 235.865C97.5288 236.229 97.3981 236.649 97.3608 237.125ZM108.574 240.849C108.471 240.896 108.331 240.957 108.154 241.031C107.977 241.106 107.771 241.171 107.538 241.227C107.305 241.283 107.057 241.311 106.796 241.311C106.497 241.311 106.222 241.26 105.97 241.157C105.718 241.045 105.517 240.877 105.368 240.653C105.219 240.42 105.144 240.131 105.144 239.785V234.871H104.15V233.905H105.144V231.469H106.376V233.905H108.014V234.871H106.376V239.407C106.395 239.669 106.483 239.865 106.642 239.995C106.801 240.117 106.987 240.177 107.202 240.177C107.445 240.177 107.669 240.135 107.874 240.051C108.079 239.967 108.215 239.907 108.28 239.869L108.574 240.849ZM109.646 238.287V233.905H110.878V238.049C110.878 238.796 111.008 239.356 111.27 239.729C111.531 240.103 111.918 240.289 112.432 240.289C112.768 240.289 113.09 240.219 113.398 240.079C113.715 239.93 114 239.72 114.252 239.449C114.504 239.179 114.7 238.857 114.84 238.483V233.905H116.072V239.813C116.072 239.963 116.1 240.075 116.156 240.149C116.221 240.215 116.324 240.252 116.464 240.261V241.213C116.324 241.232 116.212 241.241 116.128 241.241C116.053 241.251 115.978 241.255 115.904 241.255C115.67 241.255 115.47 241.185 115.302 241.045C115.134 240.896 115.045 240.714 115.036 240.499L115.008 239.645C114.69 240.187 114.261 240.607 113.72 240.905C113.188 241.204 112.604 241.353 111.97 241.353C111.204 241.353 110.626 241.097 110.234 240.583C109.842 240.061 109.646 239.295 109.646 238.287ZM121.988 234.983C121.372 234.993 120.826 235.151 120.35 235.459C119.883 235.758 119.552 236.173 119.356 236.705V241.213H118.124V233.905H119.272V235.599C119.524 235.095 119.855 234.689 120.266 234.381C120.686 234.064 121.125 233.887 121.582 233.849C121.675 233.849 121.755 233.849 121.82 233.849C121.885 233.849 121.941 233.854 121.988 233.863V234.983ZM125.849 239.099C125.849 238.633 125.979 238.231 126.241 237.895C126.511 237.55 126.88 237.284 127.347 237.097C127.813 236.911 128.355 236.817 128.971 236.817C129.297 236.817 129.643 236.845 130.007 236.901C130.371 236.948 130.693 237.023 130.973 237.125V236.593C130.973 236.033 130.805 235.595 130.469 235.277C130.133 234.951 129.657 234.787 129.041 234.787C128.639 234.787 128.252 234.862 127.879 235.011C127.515 235.151 127.127 235.357 126.717 235.627L126.269 234.759C126.745 234.433 127.221 234.19 127.697 234.031C128.173 233.863 128.667 233.779 129.181 233.779C130.114 233.779 130.852 234.041 131.393 234.563C131.934 235.077 132.205 235.795 132.205 236.719V239.813C132.205 239.963 132.233 240.075 132.289 240.149C132.354 240.215 132.457 240.252 132.597 240.261V241.213C132.475 241.232 132.368 241.246 132.275 241.255C132.191 241.265 132.121 241.269 132.065 241.269C131.776 241.269 131.556 241.19 131.407 241.031C131.267 240.873 131.188 240.705 131.169 240.527L131.141 240.065C130.823 240.476 130.408 240.793 129.895 241.017C129.381 241.241 128.873 241.353 128.369 241.353C127.883 241.353 127.449 241.255 127.067 241.059C126.684 240.854 126.385 240.583 126.171 240.247C125.956 239.902 125.849 239.519 125.849 239.099ZM130.609 239.617C130.721 239.487 130.81 239.356 130.875 239.225C130.94 239.085 130.973 238.969 130.973 238.875V237.965C130.683 237.853 130.38 237.769 130.063 237.713C129.746 237.648 129.433 237.615 129.125 237.615C128.499 237.615 127.991 237.741 127.599 237.993C127.216 238.236 127.025 238.572 127.025 239.001C127.025 239.235 127.085 239.463 127.207 239.687C127.337 239.902 127.524 240.079 127.767 240.219C128.019 240.359 128.327 240.429 128.691 240.429C129.073 240.429 129.437 240.355 129.783 240.205C130.128 240.047 130.403 239.851 130.609 239.617ZM133.699 237.573C133.699 236.883 133.839 236.253 134.119 235.683C134.408 235.105 134.8 234.643 135.295 234.297C135.799 233.952 136.373 233.779 137.017 233.779C137.605 233.779 138.132 233.933 138.599 234.241C139.065 234.549 139.429 234.923 139.691 235.361V230.993H140.923V239.813C140.923 239.963 140.951 240.075 141.007 240.149C141.072 240.215 141.175 240.252 141.315 240.261V241.213C141.081 241.251 140.899 241.269 140.769 241.269C140.526 241.269 140.311 241.185 140.125 241.017C139.947 240.849 139.859 240.663 139.859 240.457V239.841C139.569 240.308 139.182 240.677 138.697 240.947C138.211 241.218 137.707 241.353 137.185 241.353C136.681 241.353 136.214 241.255 135.785 241.059C135.365 240.854 134.996 240.574 134.679 240.219C134.371 239.865 134.128 239.463 133.951 239.015C133.783 238.558 133.699 238.077 133.699 237.573ZM139.691 238.651V236.551C139.579 236.234 139.397 235.949 139.145 235.697C138.893 235.436 138.608 235.231 138.291 235.081C137.983 234.923 137.675 234.843 137.367 234.843C137.003 234.843 136.671 234.923 136.373 235.081C136.083 235.231 135.831 235.436 135.617 235.697C135.411 235.949 135.253 236.239 135.141 236.565C135.029 236.892 134.973 237.233 134.973 237.587C134.973 237.951 135.033 238.297 135.155 238.623C135.285 238.95 135.463 239.239 135.687 239.491C135.92 239.743 136.186 239.939 136.485 240.079C136.793 240.219 137.124 240.289 137.479 240.289C137.703 240.289 137.931 240.247 138.165 240.163C138.407 240.079 138.636 239.963 138.851 239.813C139.065 239.664 139.247 239.491 139.397 239.295C139.546 239.09 139.644 238.875 139.691 238.651ZM142.979 241.213V233.905H144.211V241.213H142.979ZM142.979 232.533V230.993H144.211V232.533H142.979ZM150.14 241.353C149.543 241.353 149.011 241.204 148.544 240.905C148.077 240.607 147.709 240.229 147.438 239.771V244.195H146.206V233.905H147.298V235.277C147.587 234.829 147.965 234.47 148.432 234.199C148.899 233.919 149.407 233.779 149.958 233.779C150.462 233.779 150.924 233.882 151.344 234.087C151.764 234.293 152.128 234.573 152.436 234.927C152.744 235.282 152.982 235.688 153.15 236.145C153.327 236.593 153.416 237.065 153.416 237.559C153.416 238.25 153.276 238.885 152.996 239.463C152.725 240.042 152.343 240.504 151.848 240.849C151.353 241.185 150.784 241.353 150.14 241.353ZM149.762 240.289C150.126 240.289 150.453 240.215 150.742 240.065C151.041 239.907 151.293 239.701 151.498 239.449C151.713 239.188 151.876 238.894 151.988 238.567C152.1 238.241 152.156 237.905 152.156 237.559C152.156 237.195 152.091 236.85 151.96 236.523C151.839 236.197 151.661 235.907 151.428 235.655C151.204 235.403 150.938 235.207 150.63 235.067C150.331 234.918 150.005 234.843 149.65 234.843C149.426 234.843 149.193 234.885 148.95 234.969C148.717 235.053 148.493 235.175 148.278 235.333C148.063 235.483 147.881 235.655 147.732 235.851C147.583 236.047 147.485 236.257 147.438 236.481V238.567C147.578 238.885 147.765 239.174 147.998 239.435C148.231 239.697 148.502 239.907 148.81 240.065C149.118 240.215 149.435 240.289 149.762 240.289ZM154.929 241.213V233.905H156.161V241.213H154.929ZM154.929 232.533V230.993H156.161V232.533H154.929ZM160.661 241.353C160.055 241.353 159.485 241.255 158.953 241.059C158.421 240.854 157.964 240.551 157.581 240.149L158.057 239.281C158.477 239.673 158.897 239.953 159.317 240.121C159.737 240.289 160.167 240.373 160.605 240.373C161.109 240.373 161.52 240.28 161.837 240.093C162.155 239.897 162.313 239.613 162.313 239.239C162.313 238.969 162.229 238.768 162.061 238.637C161.903 238.507 161.674 238.399 161.375 238.315C161.077 238.222 160.722 238.119 160.311 238.007C159.807 237.858 159.383 237.699 159.037 237.531C158.692 237.363 158.431 237.153 158.253 236.901C158.076 236.649 157.987 236.332 157.987 235.949C157.987 235.483 158.109 235.091 158.351 234.773C158.594 234.447 158.925 234.199 159.345 234.031C159.775 233.863 160.26 233.779 160.801 233.779C161.343 233.779 161.833 233.863 162.271 234.031C162.71 234.199 163.088 234.447 163.405 234.773L162.845 235.627C162.556 235.329 162.239 235.109 161.893 234.969C161.548 234.82 161.161 234.745 160.731 234.745C160.479 234.745 160.232 234.778 159.989 234.843C159.747 234.899 159.546 235.007 159.387 235.165C159.229 235.315 159.149 235.529 159.149 235.809C159.149 236.043 159.21 236.229 159.331 236.369C159.462 236.5 159.649 236.612 159.891 236.705C160.143 236.799 160.447 236.901 160.801 237.013C161.352 237.172 161.828 237.331 162.229 237.489C162.64 237.648 162.957 237.853 163.181 238.105C163.405 238.357 163.517 238.707 163.517 239.155C163.517 239.846 163.256 240.387 162.733 240.779C162.211 241.162 161.52 241.353 160.661 241.353ZM168.225 241.353C167.675 241.353 167.171 241.255 166.713 241.059C166.265 240.854 165.873 240.574 165.537 240.219C165.211 239.865 164.954 239.459 164.767 239.001C164.59 238.544 164.501 238.059 164.501 237.545C164.501 236.855 164.655 236.225 164.963 235.655C165.271 235.086 165.705 234.633 166.265 234.297C166.825 233.952 167.474 233.779 168.211 233.779C168.93 233.779 169.555 233.943 170.087 234.269C170.629 234.587 171.03 235.016 171.291 235.557L170.087 235.935C169.901 235.59 169.639 235.324 169.303 235.137C168.967 234.941 168.594 234.843 168.183 234.843C167.735 234.843 167.325 234.96 166.951 235.193C166.587 235.427 166.298 235.749 166.083 236.159C165.869 236.561 165.761 237.023 165.761 237.545C165.761 238.059 165.869 238.525 166.083 238.945C166.307 239.356 166.601 239.683 166.965 239.925C167.339 240.168 167.749 240.289 168.197 240.289C168.487 240.289 168.762 240.238 169.023 240.135C169.294 240.033 169.527 239.897 169.723 239.729C169.929 239.552 170.069 239.361 170.143 239.155L171.347 239.519C171.198 239.874 170.969 240.191 170.661 240.471C170.363 240.742 170.003 240.957 169.583 241.115C169.173 241.274 168.72 241.353 168.225 241.353ZM172.743 241.213V233.905H173.975V241.213H172.743ZM172.743 232.533V230.993H173.975V232.533H172.743ZM182.312 241.213H181.08V237.125C181.08 236.351 180.958 235.786 180.716 235.431C180.482 235.067 180.123 234.885 179.638 234.885C179.302 234.885 178.966 234.969 178.63 235.137C178.303 235.305 178.009 235.534 177.748 235.823C177.496 236.103 177.314 236.43 177.202 236.803V241.213H175.97V233.905H177.09V235.473C177.286 235.128 177.538 234.829 177.846 234.577C178.154 234.325 178.504 234.129 178.896 233.989C179.288 233.849 179.698 233.779 180.128 233.779C180.548 233.779 180.898 233.859 181.178 234.017C181.467 234.167 181.691 234.381 181.85 234.661C182.018 234.932 182.134 235.254 182.2 235.627C182.274 236.001 182.312 236.407 182.312 236.845V241.213ZM187.14 241.297C186.645 241.297 186.188 241.199 185.768 241.003C185.357 240.798 185.002 240.523 184.704 240.177C184.405 239.823 184.172 239.421 184.004 238.973C183.845 238.525 183.766 238.059 183.766 237.573C183.766 237.06 183.845 236.575 184.004 236.117C184.172 235.66 184.405 235.259 184.704 234.913C185.012 234.559 185.371 234.283 185.782 234.087C186.192 233.882 186.65 233.779 187.154 233.779C187.76 233.779 188.288 233.929 188.736 234.227C189.193 234.526 189.576 234.904 189.884 235.361V233.905H190.976V241.129C190.976 241.82 190.808 242.403 190.472 242.879C190.145 243.355 189.697 243.715 189.128 243.957C188.568 244.209 187.942 244.335 187.252 244.335C186.43 244.335 185.758 244.191 185.236 243.901C184.713 243.612 184.279 243.22 183.934 242.725L184.648 242.095C184.937 242.525 185.31 242.847 185.768 243.061C186.234 243.276 186.729 243.383 187.252 243.383C187.7 243.383 188.11 243.299 188.484 243.131C188.866 242.973 189.17 242.725 189.394 242.389C189.627 242.053 189.744 241.633 189.744 241.129V239.841C189.473 240.289 189.1 240.644 188.624 240.905C188.157 241.167 187.662 241.297 187.14 241.297ZM187.518 240.289C187.779 240.289 188.031 240.243 188.274 240.149C188.516 240.056 188.74 239.935 188.946 239.785C189.151 239.627 189.324 239.449 189.464 239.253C189.604 239.057 189.697 238.857 189.744 238.651V236.551C189.613 236.215 189.426 235.921 189.184 235.669C188.941 235.408 188.666 235.207 188.358 235.067C188.05 234.918 187.732 234.843 187.406 234.843C187.032 234.843 186.696 234.923 186.398 235.081C186.108 235.24 185.861 235.455 185.656 235.725C185.45 235.987 185.292 236.281 185.18 236.607C185.068 236.934 185.012 237.265 185.012 237.601C185.012 237.965 185.077 238.311 185.208 238.637C185.338 238.955 185.516 239.239 185.74 239.491C185.964 239.743 186.23 239.939 186.538 240.079C186.846 240.219 187.172 240.289 187.518 240.289ZM199.739 241.353C199.188 241.353 198.684 241.255 198.227 241.059C197.779 240.854 197.387 240.579 197.051 240.233C196.724 239.879 196.468 239.473 196.281 239.015C196.104 238.558 196.015 238.073 196.015 237.559C196.015 236.869 196.174 236.239 196.491 235.669C196.808 235.1 197.247 234.643 197.807 234.297C198.376 233.952 199.025 233.779 199.753 233.779C200.49 233.779 201.13 233.957 201.671 234.311C202.222 234.657 202.646 235.114 202.945 235.683C203.253 236.243 203.407 236.85 203.407 237.503C203.407 237.597 203.402 237.69 203.393 237.783C203.393 237.867 203.388 237.933 203.379 237.979H197.317C197.354 238.455 197.485 238.88 197.709 239.253C197.942 239.617 198.241 239.907 198.605 240.121C198.969 240.327 199.361 240.429 199.781 240.429C200.229 240.429 200.649 240.317 201.041 240.093C201.442 239.869 201.718 239.575 201.867 239.211L202.931 239.505C202.772 239.86 202.534 240.177 202.217 240.457C201.909 240.737 201.54 240.957 201.111 241.115C200.691 241.274 200.234 241.353 199.739 241.353ZM197.275 237.125H202.259C202.222 236.649 202.086 236.229 201.853 235.865C201.62 235.501 201.321 235.217 200.957 235.011C200.593 234.806 200.192 234.703 199.753 234.703C199.324 234.703 198.927 234.806 198.563 235.011C198.199 235.217 197.9 235.501 197.667 235.865C197.443 236.229 197.312 236.649 197.275 237.125ZM204.804 230.993H206.036V239.323C206.036 239.725 206.092 239.972 206.204 240.065C206.316 240.159 206.452 240.205 206.61 240.205C206.806 240.205 206.993 240.187 207.17 240.149C207.348 240.103 207.497 240.056 207.618 240.009L207.814 241.017C207.609 241.101 207.366 241.171 207.086 241.227C206.806 241.283 206.559 241.311 206.344 241.311C205.868 241.311 205.49 241.176 205.21 240.905C204.94 240.635 204.804 240.257 204.804 239.771V230.993ZM208.782 241.213V233.905H210.014V241.213H208.782ZM208.782 232.533V230.993H210.014V232.533H208.782ZM215.789 240.849C215.686 240.896 215.546 240.957 215.369 241.031C215.191 241.106 214.986 241.171 214.753 241.227C214.519 241.283 214.272 241.311 214.011 241.311C213.712 241.311 213.437 241.26 213.185 241.157C212.933 241.045 212.732 240.877 212.583 240.653C212.433 240.42 212.359 240.131 212.359 239.785V234.871H211.365V233.905H212.359V231.469H213.591V233.905H215.229V234.871H213.591V239.407C213.609 239.669 213.698 239.865 213.857 239.995C214.015 240.117 214.202 240.177 214.417 240.177C214.659 240.177 214.883 240.135 215.089 240.051C215.294 239.967 215.429 239.907 215.495 239.869L215.789 240.849ZM216.973 242.347L217.253 241.101H216.833V239.645H217.995V241.101L217.575 242.347H216.973ZM225.931 241.353C225.324 241.353 224.755 241.255 224.223 241.059C223.691 240.854 223.233 240.551 222.851 240.149L223.327 239.281C223.747 239.673 224.167 239.953 224.587 240.121C225.007 240.289 225.436 240.373 225.875 240.373C226.379 240.373 226.789 240.28 227.107 240.093C227.424 239.897 227.583 239.613 227.583 239.239C227.583 238.969 227.499 238.768 227.331 238.637C227.172 238.507 226.943 238.399 226.645 238.315C226.346 238.222 225.991 238.119 225.581 238.007C225.077 237.858 224.652 237.699 224.307 237.531C223.961 237.363 223.7 237.153 223.523 236.901C223.345 236.649 223.257 236.332 223.257 235.949C223.257 235.483 223.378 235.091 223.621 234.773C223.863 234.447 224.195 234.199 224.615 234.031C225.044 233.863 225.529 233.779 226.071 233.779C226.612 233.779 227.102 233.863 227.541 234.031C227.979 234.199 228.357 234.447 228.675 234.773L228.115 235.627C227.825 235.329 227.508 235.109 227.163 234.969C226.817 234.82 226.43 234.745 226.001 234.745C225.749 234.745 225.501 234.778 225.259 234.843C225.016 234.899 224.815 235.007 224.657 235.165C224.498 235.315 224.419 235.529 224.419 235.809C224.419 236.043 224.479 236.229 224.601 236.369C224.731 236.5 224.918 236.612 225.161 236.705C225.413 236.799 225.716 236.901 226.071 237.013C226.621 237.172 227.097 237.331 227.499 237.489C227.909 237.648 228.227 237.853 228.451 238.105C228.675 238.357 228.787 238.707 228.787 239.155C228.787 239.846 228.525 240.387 228.003 240.779C227.48 241.162 226.789 241.353 225.931 241.353ZM233.495 241.353C232.944 241.353 232.44 241.255 231.983 241.059C231.535 240.854 231.143 240.579 230.807 240.233C230.48 239.879 230.223 239.473 230.037 239.015C229.859 238.558 229.771 238.073 229.771 237.559C229.771 236.869 229.929 236.239 230.247 235.669C230.564 235.1 231.003 234.643 231.563 234.297C232.132 233.952 232.781 233.779 233.509 233.779C234.246 233.779 234.885 233.957 235.427 234.311C235.977 234.657 236.402 235.114 236.701 235.683C237.009 236.243 237.163 236.85 237.163 237.503C237.163 237.597 237.158 237.69 237.149 237.783C237.149 237.867 237.144 237.933 237.135 237.979H231.073C231.11 238.455 231.241 238.88 231.465 239.253C231.698 239.617 231.997 239.907 232.361 240.121C232.725 240.327 233.117 240.429 233.537 240.429C233.985 240.429 234.405 240.317 234.797 240.093C235.198 239.869 235.473 239.575 235.623 239.211L236.687 239.505C236.528 239.86 236.29 240.177 235.973 240.457C235.665 240.737 235.296 240.957 234.867 241.115C234.447 241.274 233.989 241.353 233.495 241.353ZM231.031 237.125H236.015C235.977 236.649 235.842 236.229 235.609 235.865C235.375 235.501 235.077 235.217 234.713 235.011C234.349 234.806 233.947 234.703 233.509 234.703C233.079 234.703 232.683 234.806 232.319 235.011C231.955 235.217 231.656 235.501 231.423 235.865C231.199 236.229 231.068 236.649 231.031 237.125ZM238.056 237.573C238.056 236.883 238.196 236.253 238.476 235.683C238.766 235.105 239.158 234.643 239.652 234.297C240.156 233.952 240.73 233.779 241.374 233.779C241.962 233.779 242.49 233.933 242.956 234.241C243.423 234.549 243.787 234.923 244.048 235.361V230.993H245.28V239.813C245.28 239.963 245.308 240.075 245.364 240.149C245.43 240.215 245.532 240.252 245.672 240.261V241.213C245.439 241.251 245.257 241.269 245.126 241.269C244.884 241.269 244.669 241.185 244.482 241.017C244.305 240.849 244.216 240.663 244.216 240.457V239.841C243.927 240.308 243.54 240.677 243.054 240.947C242.569 241.218 242.065 241.353 241.542 241.353C241.038 241.353 240.572 241.255 240.142 241.059C239.722 240.854 239.354 240.574 239.036 240.219C238.728 239.865 238.486 239.463 238.308 239.015C238.14 238.558 238.056 238.077 238.056 237.573ZM244.048 238.651V236.551C243.936 236.234 243.754 235.949 243.502 235.697C243.25 235.436 242.966 235.231 242.648 235.081C242.34 234.923 242.032 234.843 241.724 234.843C241.36 234.843 241.029 234.923 240.73 235.081C240.441 235.231 240.189 235.436 239.974 235.697C239.769 235.949 239.61 236.239 239.498 236.565C239.386 236.892 239.33 237.233 239.33 237.587C239.33 237.951 239.391 238.297 239.512 238.623C239.643 238.95 239.82 239.239 240.044 239.491C240.278 239.743 240.544 239.939 240.842 240.079C241.15 240.219 241.482 240.289 241.836 240.289C242.06 240.289 242.289 240.247 242.522 240.163C242.765 240.079 242.994 239.963 243.208 239.813C243.423 239.664 243.605 239.491 243.754 239.295C243.904 239.09 244.002 238.875 244.048 238.651ZM44.107 258.573C44.107 257.883 44.247 257.253 44.527 256.683C44.8163 256.105 45.2083 255.643 45.703 255.297C46.207 254.952 46.781 254.779 47.425 254.779C48.013 254.779 48.5403 254.933 49.007 255.241C49.4737 255.549 49.8377 255.923 50.099 256.361V251.993H51.331V260.813C51.331 260.963 51.359 261.075 51.415 261.149C51.4803 261.215 51.583 261.252 51.723 261.261V262.213C51.4897 262.251 51.3077 262.269 51.177 262.269C50.9343 262.269 50.7197 262.185 50.533 262.017C50.3557 261.849 50.267 261.663 50.267 261.457V260.841C49.9777 261.308 49.5903 261.677 49.105 261.947C48.6197 262.218 48.1157 262.353 47.593 262.353C47.089 262.353 46.6223 262.255 46.193 262.059C45.773 261.854 45.4043 261.574 45.087 261.219C44.779 260.865 44.5363 260.463 44.359 260.015C44.191 259.558 44.107 259.077 44.107 258.573ZM50.099 259.651V257.551C49.987 257.234 49.805 256.949 49.553 256.697C49.301 256.436 49.0163 256.231 48.699 256.081C48.391 255.923 48.083 255.843 47.775 255.843C47.411 255.843 47.0797 255.923 46.781 256.081C46.4917 256.231 46.2397 256.436 46.025 256.697C45.8197 256.949 45.661 257.239 45.549 257.565C45.437 257.892 45.381 258.233 45.381 258.587C45.381 258.951 45.4417 259.297 45.563 259.623C45.6937 259.95 45.871 260.239 46.095 260.491C46.3283 260.743 46.5943 260.939 46.893 261.079C47.201 261.219 47.5323 261.289 47.887 261.289C48.111 261.289 48.3397 261.247 48.573 261.163C48.8157 261.079 49.0443 260.963 49.259 260.813C49.4737 260.664 49.6557 260.491 49.805 260.295C49.9543 260.09 50.0523 259.875 50.099 259.651ZM56.5797 262.353C56.029 262.353 55.5297 262.255 55.0817 262.059C54.6337 261.854 54.2463 261.579 53.9197 261.233C53.593 260.879 53.341 260.473 53.1637 260.015C52.9863 259.558 52.8977 259.077 52.8977 258.573C52.8977 258.06 52.9863 257.575 53.1637 257.117C53.341 256.66 53.593 256.259 53.9197 255.913C54.2463 255.559 54.6337 255.283 55.0817 255.087C55.539 254.882 56.0383 254.779 56.5797 254.779C57.1303 254.779 57.6297 254.882 58.0777 255.087C58.5257 255.283 58.913 255.559 59.2397 255.913C59.5757 256.259 59.8323 256.66 60.0097 257.117C60.187 257.575 60.2757 258.06 60.2757 258.573C60.2757 259.077 60.187 259.558 60.0097 260.015C59.8323 260.473 59.5803 260.879 59.2537 261.233C58.927 261.579 58.535 261.854 58.0777 262.059C57.6297 262.255 57.1303 262.353 56.5797 262.353ZM54.1577 258.587C54.1577 259.091 54.265 259.549 54.4797 259.959C54.7037 260.37 54.9977 260.697 55.3617 260.939C55.7257 261.173 56.1317 261.289 56.5797 261.289C57.0277 261.289 57.4337 261.168 57.7977 260.925C58.171 260.683 58.465 260.356 58.6797 259.945C58.9037 259.525 59.0157 259.063 59.0157 258.559C59.0157 258.055 58.9037 257.598 58.6797 257.187C58.465 256.777 58.171 256.45 57.7977 256.207C57.4337 255.965 57.0277 255.843 56.5797 255.843C56.1317 255.843 55.7257 255.969 55.3617 256.221C54.9977 256.464 54.7037 256.791 54.4797 257.201C54.265 257.612 54.1577 258.074 54.1577 258.587ZM68.5436 262.353C67.9929 262.353 67.4889 262.255 67.0316 262.059C66.5836 261.854 66.1916 261.579 65.8556 261.233C65.5289 260.879 65.2722 260.473 65.0856 260.015C64.9082 259.558 64.8196 259.073 64.8196 258.559C64.8196 257.869 64.9782 257.239 65.2956 256.669C65.6129 256.1 66.0516 255.643 66.6116 255.297C67.1809 254.952 67.8296 254.779 68.5576 254.779C69.2949 254.779 69.9342 254.957 70.4756 255.311C71.0262 255.657 71.4509 256.114 71.7496 256.683C72.0576 257.243 72.2116 257.85 72.2116 258.503C72.2116 258.597 72.2069 258.69 72.1976 258.783C72.1976 258.867 72.1929 258.933 72.1836 258.979H66.1216C66.1589 259.455 66.2896 259.88 66.5136 260.253C66.7469 260.617 67.0456 260.907 67.4096 261.121C67.7736 261.327 68.1656 261.429 68.5856 261.429C69.0336 261.429 69.4536 261.317 69.8456 261.093C70.2469 260.869 70.5222 260.575 70.6716 260.211L71.7356 260.505C71.5769 260.86 71.3389 261.177 71.0216 261.457C70.7136 261.737 70.3449 261.957 69.9156 262.115C69.4956 262.274 69.0382 262.353 68.5436 262.353ZM66.0796 258.125H71.0636C71.0262 257.649 70.8909 257.229 70.6576 256.865C70.4242 256.501 70.1256 256.217 69.7616 256.011C69.3976 255.806 68.9962 255.703 68.5576 255.703C68.1282 255.703 67.7316 255.806 67.3676 256.011C67.0036 256.217 66.7049 256.501 66.4716 256.865C66.2476 257.229 66.1169 257.649 66.0796 258.125ZM73.581 262.213V254.905H74.813V262.213H73.581ZM73.581 253.533V251.993H74.813V253.533H73.581ZM76.7376 259.287V254.905H77.9696V259.049C77.9696 259.796 78.1003 260.356 78.3616 260.729C78.6229 261.103 79.0103 261.289 79.5236 261.289C79.8596 261.289 80.1816 261.219 80.4896 261.079C80.8069 260.93 81.0916 260.72 81.3436 260.449C81.5956 260.179 81.7916 259.857 81.9316 259.483V254.905H83.1636V260.813C83.1636 260.963 83.1916 261.075 83.2476 261.149C83.3129 261.215 83.4156 261.252 83.5556 261.261V262.213C83.4156 262.232 83.3036 262.241 83.2196 262.241C83.1449 262.251 83.0703 262.255 82.9956 262.255C82.7623 262.255 82.5616 262.185 82.3936 262.045C82.2256 261.896 82.1369 261.714 82.1276 261.499L82.0996 260.645C81.7823 261.187 81.3529 261.607 80.8116 261.905C80.2796 262.204 79.6963 262.353 79.0616 262.353C78.2963 262.353 77.7176 262.097 77.3256 261.583C76.9336 261.061 76.7376 260.295 76.7376 259.287ZM87.7218 262.353C87.1151 262.353 86.5458 262.255 86.0138 262.059C85.4818 261.854 85.0245 261.551 84.6418 261.149L85.1178 260.281C85.5378 260.673 85.9578 260.953 86.3778 261.121C86.7978 261.289 87.2271 261.373 87.6658 261.373C88.1698 261.373 88.5805 261.28 88.8978 261.093C89.2151 260.897 89.3738 260.613 89.3738 260.239C89.3738 259.969 89.2898 259.768 89.1218 259.637C88.9631 259.507 88.7345 259.399 88.4358 259.315C88.1371 259.222 87.7825 259.119 87.3718 259.007C86.8678 258.858 86.4431 258.699 86.0978 258.531C85.7525 258.363 85.4911 258.153 85.3138 257.901C85.1365 257.649 85.0478 257.332 85.0478 256.949C85.0478 256.483 85.1691 256.091 85.4118 255.773C85.6545 255.447 85.9858 255.199 86.4058 255.031C86.8351 254.863 87.3205 254.779 87.8618 254.779C88.4031 254.779 88.8931 254.863 89.3318 255.031C89.7705 255.199 90.1485 255.447 90.4658 255.773L89.9058 256.627C89.6165 256.329 89.2991 256.109 88.9538 255.969C88.6085 255.82 88.2211 255.745 87.7918 255.745C87.5398 255.745 87.2925 255.778 87.0498 255.843C86.8071 255.899 86.6065 256.007 86.4478 256.165C86.2891 256.315 86.2098 256.529 86.2098 256.809C86.2098 257.043 86.2705 257.229 86.3918 257.369C86.5225 257.5 86.7091 257.612 86.9518 257.705C87.2038 257.799 87.5071 257.901 87.8618 258.013C88.4125 258.172 88.8885 258.331 89.2898 258.489C89.7005 258.648 90.0178 258.853 90.2418 259.105C90.4658 259.357 90.5778 259.707 90.5778 260.155C90.5778 260.846 90.3165 261.387 89.7938 261.779C89.2711 262.162 88.5805 262.353 87.7218 262.353ZM103.07 262.213H101.838V258.125C101.838 257.36 101.712 256.795 101.46 256.431C101.217 256.067 100.853 255.885 100.368 255.885C99.8731 255.885 99.4251 256.067 99.0237 256.431C98.6224 256.786 98.3377 257.248 98.1697 257.817V262.213H96.9377V258.125C96.9377 257.351 96.8164 256.786 96.5737 256.431C96.3311 256.067 95.9671 255.885 95.4817 255.885C94.9964 255.885 94.5484 256.063 94.1377 256.417C93.7364 256.763 93.4517 257.225 93.2837 257.803V262.213H92.0517V254.905H93.1717V256.473C93.4704 255.932 93.8577 255.517 94.3337 255.227C94.8097 254.929 95.3464 254.779 95.9437 254.779C96.5504 254.779 97.0357 254.947 97.3997 255.283C97.7637 255.61 97.9877 256.035 98.0717 256.557C98.3984 255.979 98.7951 255.54 99.2617 255.241C99.7284 254.933 100.26 254.779 100.858 254.779C101.278 254.779 101.628 254.859 101.908 255.017C102.197 255.167 102.426 255.381 102.594 255.661C102.762 255.932 102.883 256.254 102.958 256.627C103.032 257.001 103.07 257.407 103.07 257.845V262.213ZM108.177 262.353C107.627 262.353 107.127 262.255 106.679 262.059C106.231 261.854 105.844 261.579 105.517 261.233C105.191 260.879 104.939 260.473 104.761 260.015C104.584 259.558 104.495 259.077 104.495 258.573C104.495 258.06 104.584 257.575 104.761 257.117C104.939 256.66 105.191 256.259 105.517 255.913C105.844 255.559 106.231 255.283 106.679 255.087C107.137 254.882 107.636 254.779 108.177 254.779C108.728 254.779 109.227 254.882 109.675 255.087C110.123 255.283 110.511 255.559 110.837 255.913C111.173 256.259 111.43 256.66 111.607 257.117C111.785 257.575 111.873 258.06 111.873 258.573C111.873 259.077 111.785 259.558 111.607 260.015C111.43 260.473 111.178 260.879 110.851 261.233C110.525 261.579 110.133 261.854 109.675 262.059C109.227 262.255 108.728 262.353 108.177 262.353ZM105.755 258.587C105.755 259.091 105.863 259.549 106.077 259.959C106.301 260.37 106.595 260.697 106.959 260.939C107.323 261.173 107.729 261.289 108.177 261.289C108.625 261.289 109.031 261.168 109.395 260.925C109.769 260.683 110.063 260.356 110.277 259.945C110.501 259.525 110.613 259.063 110.613 258.559C110.613 258.055 110.501 257.598 110.277 257.187C110.063 256.777 109.769 256.45 109.395 256.207C109.031 255.965 108.625 255.843 108.177 255.843C107.729 255.843 107.323 255.969 106.959 256.221C106.595 256.464 106.301 256.791 106.077 257.201C105.863 257.612 105.755 258.074 105.755 258.587ZM112.89 258.573C112.89 257.883 113.03 257.253 113.31 256.683C113.6 256.105 113.992 255.643 114.486 255.297C114.99 254.952 115.564 254.779 116.208 254.779C116.796 254.779 117.324 254.933 117.79 255.241C118.257 255.549 118.621 255.923 118.882 256.361V251.993H120.114V260.813C120.114 260.963 120.142 261.075 120.198 261.149C120.264 261.215 120.366 261.252 120.506 261.261V262.213C120.273 262.251 120.091 262.269 119.96 262.269C119.718 262.269 119.503 262.185 119.316 262.017C119.139 261.849 119.05 261.663 119.05 261.457V260.841C118.761 261.308 118.374 261.677 117.888 261.947C117.403 262.218 116.899 262.353 116.376 262.353C115.872 262.353 115.406 262.255 114.976 262.059C114.556 261.854 114.188 261.574 113.87 261.219C113.562 260.865 113.32 260.463 113.142 260.015C112.974 259.558 112.89 259.077 112.89 258.573ZM118.882 259.651V257.551C118.77 257.234 118.588 256.949 118.336 256.697C118.084 256.436 117.8 256.231 117.482 256.081C117.174 255.923 116.866 255.843 116.558 255.843C116.194 255.843 115.863 255.923 115.564 256.081C115.275 256.231 115.023 256.436 114.808 256.697C114.603 256.949 114.444 257.239 114.332 257.565C114.22 257.892 114.164 258.233 114.164 258.587C114.164 258.951 114.225 259.297 114.346 259.623C114.477 259.95 114.654 260.239 114.878 260.491C115.112 260.743 115.378 260.939 115.676 261.079C115.984 261.219 116.316 261.289 116.67 261.289C116.894 261.289 117.123 261.247 117.356 261.163C117.599 261.079 117.828 260.963 118.042 260.813C118.257 260.664 118.439 260.491 118.588 260.295C118.738 260.09 118.836 259.875 118.882 259.651ZM129.492 261.849C129.389 261.896 129.249 261.957 129.072 262.031C128.895 262.106 128.689 262.171 128.456 262.227C128.223 262.283 127.975 262.311 127.714 262.311C127.415 262.311 127.14 262.26 126.888 262.157C126.636 262.045 126.435 261.877 126.286 261.653C126.137 261.42 126.062 261.131 126.062 260.785V255.871H125.068V254.905H126.062V252.469H127.294V254.905H128.932V255.871H127.294V260.407C127.313 260.669 127.401 260.865 127.56 260.995C127.719 261.117 127.905 261.177 128.12 261.177C128.363 261.177 128.587 261.135 128.792 261.051C128.997 260.967 129.133 260.907 129.198 260.869L129.492 261.849ZM133.772 262.353C133.221 262.353 132.717 262.255 132.26 262.059C131.812 261.854 131.42 261.579 131.084 261.233C130.757 260.879 130.501 260.473 130.314 260.015C130.137 259.558 130.048 259.073 130.048 258.559C130.048 257.869 130.207 257.239 130.524 256.669C130.841 256.1 131.28 255.643 131.84 255.297C132.409 254.952 133.058 254.779 133.786 254.779C134.523 254.779 135.163 254.957 135.704 255.311C136.255 255.657 136.679 256.114 136.978 256.683C137.286 257.243 137.44 257.85 137.44 258.503C137.44 258.597 137.435 258.69 137.426 258.783C137.426 258.867 137.421 258.933 137.412 258.979H131.35C131.387 259.455 131.518 259.88 131.742 260.253C131.975 260.617 132.274 260.907 132.638 261.121C133.002 261.327 133.394 261.429 133.814 261.429C134.262 261.429 134.682 261.317 135.074 261.093C135.475 260.869 135.751 260.575 135.9 260.211L136.964 260.505C136.805 260.86 136.567 261.177 136.25 261.457C135.942 261.737 135.573 261.957 135.144 262.115C134.724 262.274 134.267 262.353 133.772 262.353ZM131.308 258.125H136.292C136.255 257.649 136.119 257.229 135.886 256.865C135.653 256.501 135.354 256.217 134.99 256.011C134.626 255.806 134.225 255.703 133.786 255.703C133.357 255.703 132.96 255.806 132.596 256.011C132.232 256.217 131.933 256.501 131.7 256.865C131.476 257.229 131.345 257.649 131.308 258.125ZM149.828 262.213H148.596V258.125C148.596 257.36 148.47 256.795 148.218 256.431C147.975 256.067 147.611 255.885 147.126 255.885C146.631 255.885 146.183 256.067 145.782 256.431C145.38 256.786 145.096 257.248 144.928 257.817V262.213H143.696V258.125C143.696 257.351 143.574 256.786 143.332 256.431C143.089 256.067 142.725 255.885 142.24 255.885C141.754 255.885 141.306 256.063 140.896 256.417C140.494 256.763 140.21 257.225 140.042 257.803V262.213H138.81V254.905H139.93V256.473C140.228 255.932 140.616 255.517 141.092 255.227C141.568 254.929 142.104 254.779 142.702 254.779C143.308 254.779 143.794 254.947 144.158 255.283C144.522 255.61 144.746 256.035 144.83 256.557C145.156 255.979 145.553 255.54 146.02 255.241C146.486 254.933 147.018 254.779 147.616 254.779C148.036 254.779 148.386 254.859 148.666 255.017C148.955 255.167 149.184 255.381 149.352 255.661C149.52 255.932 149.641 256.254 149.716 256.627C149.79 257.001 149.828 257.407 149.828 257.845V262.213ZM155.677 262.353C155.08 262.353 154.548 262.204 154.081 261.905C153.614 261.607 153.246 261.229 152.975 260.771V265.195H151.743V254.905H152.835V256.277C153.124 255.829 153.502 255.47 153.969 255.199C154.436 254.919 154.944 254.779 155.495 254.779C155.999 254.779 156.461 254.882 156.881 255.087C157.301 255.293 157.665 255.573 157.973 255.927C158.281 256.282 158.519 256.688 158.687 257.145C158.864 257.593 158.953 258.065 158.953 258.559C158.953 259.25 158.813 259.885 158.533 260.463C158.262 261.042 157.88 261.504 157.385 261.849C156.89 262.185 156.321 262.353 155.677 262.353ZM155.299 261.289C155.663 261.289 155.99 261.215 156.279 261.065C156.578 260.907 156.83 260.701 157.035 260.449C157.25 260.188 157.413 259.894 157.525 259.567C157.637 259.241 157.693 258.905 157.693 258.559C157.693 258.195 157.628 257.85 157.497 257.523C157.376 257.197 157.198 256.907 156.965 256.655C156.741 256.403 156.475 256.207 156.167 256.067C155.868 255.918 155.542 255.843 155.187 255.843C154.963 255.843 154.73 255.885 154.487 255.969C154.254 256.053 154.03 256.175 153.815 256.333C153.6 256.483 153.418 256.655 153.269 256.851C153.12 257.047 153.022 257.257 152.975 257.481V259.567C153.115 259.885 153.302 260.174 153.535 260.435C153.768 260.697 154.039 260.907 154.347 261.065C154.655 261.215 154.972 261.289 155.299 261.289ZM163.658 262.353C163.107 262.353 162.608 262.255 162.16 262.059C161.712 261.854 161.324 261.579 160.998 261.233C160.671 260.879 160.419 260.473 160.242 260.015C160.064 259.558 159.976 259.077 159.976 258.573C159.976 258.06 160.064 257.575 160.242 257.117C160.419 256.66 160.671 256.259 160.998 255.913C161.324 255.559 161.712 255.283 162.16 255.087C162.617 254.882 163.116 254.779 163.658 254.779C164.208 254.779 164.708 254.882 165.156 255.087C165.604 255.283 165.991 255.559 166.318 255.913C166.654 256.259 166.91 256.66 167.088 257.117C167.265 257.575 167.354 258.06 167.354 258.573C167.354 259.077 167.265 259.558 167.088 260.015C166.91 260.473 166.658 260.879 166.332 261.233C166.005 261.579 165.613 261.854 165.156 262.059C164.708 262.255 164.208 262.353 163.658 262.353ZM161.236 258.587C161.236 259.091 161.343 259.549 161.558 259.959C161.782 260.37 162.076 260.697 162.44 260.939C162.804 261.173 163.21 261.289 163.658 261.289C164.106 261.289 164.512 261.168 164.876 260.925C165.249 260.683 165.543 260.356 165.758 259.945C165.982 259.525 166.094 259.063 166.094 258.559C166.094 258.055 165.982 257.598 165.758 257.187C165.543 256.777 165.249 256.45 164.876 256.207C164.512 255.965 164.106 255.843 163.658 255.843C163.21 255.843 162.804 255.969 162.44 256.221C162.076 256.464 161.782 256.791 161.558 257.201C161.343 257.612 161.236 258.074 161.236 258.587ZM172.711 255.983C172.095 255.993 171.549 256.151 171.073 256.459C170.606 256.758 170.275 257.173 170.079 257.705V262.213H168.847V254.905H169.995V256.599C170.247 256.095 170.578 255.689 170.989 255.381C171.409 255.064 171.847 254.887 172.305 254.849C172.398 254.849 172.477 254.849 172.543 254.849C172.608 254.849 172.664 254.854 172.711 254.863V255.983ZM172.344 262.213V260.645H173.38V262.213H172.344ZM175.174 262.213V260.645H176.21V262.213H175.174ZM178.005 262.213V260.645H179.041V262.213H178.005Z" fill="#777777"/>
<path d="M47.369 304.243L47.243 301.471L53.849 294.613H56.477L50.987 300.445L49.691 301.867L47.369 304.243ZM45.281 307.213V294.613H47.621V307.213H45.281ZM54.065 307.213L49.241 301.471L50.789 299.761L56.801 307.213H54.065ZM63.4741 297.493C64.2421 297.493 64.9261 297.643 65.5261 297.943C66.1381 298.243 66.6181 298.705 66.9661 299.329C67.3141 299.941 67.4881 300.733 67.4881 301.705V307.213H65.2381V301.993C65.2381 301.141 65.0341 300.505 64.6261 300.085C64.2301 299.665 63.6721 299.455 62.9521 299.455C62.4241 299.455 61.9561 299.563 61.5481 299.779C61.1401 299.995 60.8221 300.319 60.5941 300.751C60.3781 301.171 60.2701 301.705 60.2701 302.353V307.213H58.0201V297.601H60.1621V300.193L59.7841 299.401C60.1201 298.789 60.6061 298.321 61.2421 297.997C61.8901 297.661 62.6341 297.493 63.4741 297.493ZM74.6799 307.339C73.6959 307.339 72.8199 307.129 72.0519 306.709C71.2839 306.277 70.6779 305.689 70.2339 304.945C69.7899 304.201 69.5679 303.355 69.5679 302.407C69.5679 301.447 69.7899 300.601 70.2339 299.869C70.6779 299.125 71.2839 298.543 72.0519 298.123C72.8199 297.703 73.6959 297.493 74.6799 297.493C75.6759 297.493 76.5579 297.703 77.3259 298.123C78.1059 298.543 78.7119 299.119 79.1439 299.851C79.5879 300.583 79.8099 301.435 79.8099 302.407C79.8099 303.355 79.5879 304.201 79.1439 304.945C78.7119 305.689 78.1059 306.277 77.3259 306.709C76.5579 307.129 75.6759 307.339 74.6799 307.339ZM74.6799 305.413C75.2319 305.413 75.7239 305.293 76.1559 305.053C76.5879 304.813 76.9239 304.465 77.1639 304.009C77.4159 303.553 77.5419 303.019 77.5419 302.407C77.5419 301.783 77.4159 301.249 77.1639 300.805C76.9239 300.349 76.5879 300.001 76.1559 299.761C75.7239 299.521 75.2379 299.401 74.6979 299.401C74.1459 299.401 73.6539 299.521 73.2219 299.761C72.8019 300.001 72.4659 300.349 72.2139 300.805C71.9619 301.249 71.8359 301.783 71.8359 302.407C71.8359 303.019 71.9619 303.553 72.2139 304.009C72.4659 304.465 72.8019 304.813 73.2219 305.053C73.6539 305.293 74.1399 305.413 74.6799 305.413ZM83.8218 307.213L80.2938 297.601H82.4178L85.4418 306.079H84.4338L87.6018 297.601H89.4918L92.5698 306.079H91.5798L94.6938 297.601H96.6918L93.1458 307.213H90.9858L88.1778 299.707H88.8438L85.9818 307.213H83.8218ZM103.429 307.213V294.613H105.355L110.863 303.811H109.855L115.273 294.613H117.199L117.217 307.213H115.003L114.985 298.087H115.453L110.845 305.773H109.801L105.121 298.087H105.661V307.213H103.429ZM124.725 307.339C123.741 307.339 122.865 307.129 122.097 306.709C121.329 306.277 120.723 305.689 120.279 304.945C119.835 304.201 119.613 303.355 119.613 302.407C119.613 301.447 119.835 300.601 120.279 299.869C120.723 299.125 121.329 298.543 122.097 298.123C122.865 297.703 123.741 297.493 124.725 297.493C125.721 297.493 126.603 297.703 127.371 298.123C128.151 298.543 128.757 299.119 129.189 299.851C129.633 300.583 129.855 301.435 129.855 302.407C129.855 303.355 129.633 304.201 129.189 304.945C128.757 305.689 128.151 306.277 127.371 306.709C126.603 307.129 125.721 307.339 124.725 307.339ZM124.725 305.413C125.277 305.413 125.769 305.293 126.201 305.053C126.633 304.813 126.969 304.465 127.209 304.009C127.461 303.553 127.587 303.019 127.587 302.407C127.587 301.783 127.461 301.249 127.209 300.805C126.969 300.349 126.633 300.001 126.201 299.761C125.769 299.521 125.283 299.401 124.743 299.401C124.191 299.401 123.699 299.521 123.267 299.761C122.847 300.001 122.511 300.349 122.259 300.805C122.007 301.249 121.881 301.783 121.881 302.407C121.881 303.019 122.007 303.553 122.259 304.009C122.511 304.465 122.847 304.813 123.267 305.053C123.699 305.293 124.185 305.413 124.725 305.413ZM132.006 307.213V297.601H134.148V300.247L133.896 299.473C134.184 298.825 134.634 298.333 135.246 297.997C135.87 297.661 136.644 297.493 137.568 297.493V299.635C137.472 299.611 137.382 299.599 137.298 299.599C137.214 299.587 137.13 299.581 137.046 299.581C136.194 299.581 135.516 299.833 135.012 300.337C134.508 300.829 134.256 301.567 134.256 302.551V307.213H132.006ZM143.907 307.339C142.839 307.339 141.903 307.129 141.099 306.709C140.307 306.277 139.689 305.689 139.245 304.945C138.813 304.201 138.597 303.355 138.597 302.407C138.597 301.447 138.807 300.601 139.227 299.869C139.659 299.125 140.247 298.543 140.991 298.123C141.747 297.703 142.605 297.493 143.565 297.493C144.501 297.493 145.335 297.697 146.067 298.105C146.799 298.513 147.375 299.089 147.795 299.833C148.215 300.577 148.425 301.453 148.425 302.461C148.425 302.557 148.419 302.665 148.407 302.785C148.407 302.905 148.401 303.019 148.389 303.127H140.379V301.633H147.201L146.319 302.101C146.331 301.549 146.217 301.063 145.977 300.643C145.737 300.223 145.407 299.893 144.987 299.653C144.579 299.413 144.105 299.293 143.565 299.293C143.013 299.293 142.527 299.413 142.107 299.653C141.699 299.893 141.375 300.229 141.135 300.661C140.907 301.081 140.793 301.579 140.793 302.155V302.515C140.793 303.091 140.925 303.601 141.189 304.045C141.453 304.489 141.825 304.831 142.305 305.071C142.785 305.311 143.337 305.431 143.961 305.431C144.501 305.431 144.987 305.347 145.419 305.179C145.851 305.011 146.235 304.747 146.571 304.387L147.777 305.773C147.345 306.277 146.799 306.667 146.139 306.943C145.491 307.207 144.747 307.339 143.907 307.339Z" fill="#4A60A1"/>
<path d="M164.979 294.763C164.709 295.029 164.683 295.451 164.905 295.746L164.972 295.823L169.547 300.464L157.839 300.464C157.425 300.464 157.089 300.799 157.089 301.214C157.089 301.596 157.375 301.911 157.745 301.958L157.839 301.964H169.547L164.972 306.604C164.705 306.874 164.686 307.296 164.911 307.588L164.979 307.664C165.249 307.931 165.671 307.95 165.963 307.724L166.04 307.657L171.873 301.74C172.137 301.472 172.159 301.056 171.939 300.763L171.873 300.687L166.04 294.77C165.749 294.475 165.274 294.472 164.979 294.763Z" fill="#00B377"/>
<path d="M46.0624 150.956H55.956V126.9H46.0624V150.956ZM93.0572 140.021H75.7433L70.5739 138.425L71.3901 136.369L75.7433 137.834H82.7183C84.3261 137.834 85.637 136.675 85.637 135.254C85.637 134.182 84.8702 133.22 83.7324 132.826L65.7755 126.9H60.9028V146.626L78.2167 150.956L98.004 144.395C97.9793 141.99 95.8027 140.021 93.0572 140.021ZM78.2167 106.125L60.9028 117.059V122.526H65.8497L85.9832 129.655C88.7535 130.64 90.5838 133.001 90.5838 135.648H95.5306V117.059L78.2167 106.125ZM76.98 124.713H74.5066V122.526H76.98V124.713ZM76.98 120.339H74.5066V118.152H76.98V120.339ZM81.9268 124.713H79.4534V122.526H81.9268V124.713ZM81.9268 120.339H79.4534V118.152H81.9268V120.339Z" fill="#0B1C98"/>
<defs>
<filter id="filter0_d_773_490" x="0.588989" y="0.213379" width="290" height="377.979" filterUnits="userSpaceOnUse" color-interpolation-filters="sRGB">
<feFlood flood-opacity="0" result="BackgroundImageFix"/>
<feColorMatrix in="SourceAlpha" type="matrix" values="0 0 0 0 0 0 0 0 0 0 0 0 0 0 0 0 0 0 127 0" result="hardAlpha"/>
<feOffset/>
<feGaussianBlur stdDeviation="10"/>
<feComposite in2="hardAlpha" operator="out"/>
<feColorMatrix type="matrix" values="0 0 0 0 0.768627 0 0 0 0 0.768627 0 0 0 0 0.768627 0 0 0 0.15 0"/>
<feBlend mode="normal" in2="BackgroundImageFix" result="effect1_dropShadow_773_490"/>
<feBlend mode="normal" in="SourceGraphic" in2="effect1_dropShadow_773_490" result="shape"/>
</filter>
</defs>
</svg>
