<svg width="291" height="379" viewBox="0 0 291 379" fill="none" xmlns="http://www.w3.org/2000/svg">
<g filter="url(#filter0_d_773_465)">
<rect x="20.7559" y="20.4058" width="250" height="337.979" rx="12" fill="white"/>
<rect x="21.2559" y="20.9058" width="249" height="336.979" rx="11.5" stroke="black"/>
</g>
<path d="M45.4359 192.566C45.1159 192.566 44.8559 192.492 44.6559 192.346C44.4692 192.199 44.3559 192.006 44.3159 191.766C44.2759 191.512 44.3225 191.232 44.4559 190.926L49.7359 179.226C49.9092 178.839 50.1159 178.566 50.3559 178.406C50.6092 178.232 50.8959 178.146 51.2159 178.146C51.5225 178.146 51.7959 178.232 52.0359 178.406C52.2892 178.566 52.5025 178.839 52.6759 179.226L57.9759 190.926C58.1225 191.232 58.1759 191.512 58.1359 191.766C58.0959 192.019 57.9825 192.219 57.7959 192.366C57.6092 192.499 57.3625 192.566 57.0559 192.566C56.6825 192.566 56.3892 192.479 56.1759 192.306C55.9759 192.119 55.7959 191.839 55.6359 191.466L54.3359 188.446L55.4159 189.146H46.9759L48.0559 188.446L46.7759 191.466C46.6025 191.852 46.4225 192.132 46.2359 192.306C46.0492 192.479 45.7825 192.566 45.4359 192.566ZM51.1759 181.086L48.3759 187.746L47.8559 187.106H54.5359L54.0359 187.746L51.2159 181.086H51.1759ZM63.4787 192.606C62.6653 192.606 61.992 192.459 61.4587 192.166C60.9253 191.859 60.5253 191.406 60.2587 190.806C60.0053 190.206 59.8787 189.459 59.8787 188.566V183.726C59.8787 183.299 59.9853 182.986 60.1987 182.786C60.412 182.572 60.7187 182.466 61.1187 182.466C61.5187 182.466 61.8253 182.572 62.0387 182.786C62.2653 182.986 62.3787 183.299 62.3787 183.726V188.606C62.3787 189.299 62.5187 189.812 62.7987 190.146C63.0787 190.479 63.5253 190.646 64.1387 190.646C64.8053 190.646 65.352 190.419 65.7787 189.966C66.2053 189.499 66.4187 188.886 66.4187 188.126V183.726C66.4187 183.299 66.5253 182.986 66.7387 182.786C66.952 182.572 67.2587 182.466 67.6587 182.466C68.0587 182.466 68.3653 182.572 68.5787 182.786C68.8053 182.986 68.9187 183.299 68.9187 183.726V191.286C68.9187 192.139 68.512 192.566 67.6987 192.566C67.312 192.566 67.012 192.459 66.7987 192.246C66.5853 192.019 66.4787 191.699 66.4787 191.286V189.766L66.7587 190.366C66.4787 191.086 66.052 191.639 65.4787 192.026C64.9187 192.412 64.252 192.606 63.4787 192.606ZM76.0007 192.606C75.134 192.606 74.4074 192.459 73.8207 192.166C73.2474 191.872 72.8207 191.446 72.5407 190.886C72.2607 190.312 72.1207 189.606 72.1207 188.766V184.506H71.0807C70.7607 184.506 70.514 184.426 70.3407 184.266C70.1674 184.092 70.0807 183.859 70.0807 183.566C70.0807 183.259 70.1674 183.026 70.3407 182.866C70.514 182.706 70.7607 182.626 71.0807 182.626H72.1207V180.806C72.1207 180.392 72.2274 180.079 72.4407 179.866C72.6674 179.652 72.9807 179.546 73.3807 179.546C73.7807 179.546 74.0874 179.652 74.3007 179.866C74.514 180.079 74.6207 180.392 74.6207 180.806V182.626H76.7407C77.0607 182.626 77.3074 182.706 77.4807 182.866C77.654 183.026 77.7407 183.259 77.7407 183.566C77.7407 183.859 77.654 184.092 77.4807 184.266C77.3074 184.426 77.0607 184.506 76.7407 184.506H74.6207V188.626C74.6207 189.266 74.7607 189.746 75.0407 190.066C75.3207 190.386 75.774 190.546 76.4007 190.546C76.6274 190.546 76.8274 190.526 77.0007 190.486C77.174 190.446 77.3274 190.419 77.4607 190.406C77.6207 190.392 77.754 190.446 77.8607 190.566C77.9674 190.672 78.0207 190.899 78.0207 191.246C78.0207 191.512 77.974 191.752 77.8807 191.966C77.8007 192.166 77.6474 192.306 77.4207 192.386C77.2474 192.439 77.0207 192.486 76.7407 192.526C76.4607 192.579 76.214 192.606 76.0007 192.606ZM83.5588 192.606C82.5455 192.606 81.6655 192.399 80.9188 191.986C80.1722 191.572 79.5922 190.986 79.1788 190.226C78.7655 189.452 78.5588 188.546 78.5588 187.506C78.5588 186.719 78.6722 186.019 78.8988 185.406C79.1388 184.779 79.4788 184.246 79.9188 183.806C80.3588 183.352 80.8855 183.012 81.4988 182.786C82.1122 182.546 82.7988 182.426 83.5588 182.426C84.5722 182.426 85.4522 182.632 86.1988 183.046C86.9455 183.459 87.5255 184.046 87.9388 184.806C88.3522 185.566 88.5588 186.466 88.5588 187.506C88.5588 188.292 88.4388 188.999 88.1988 189.626C87.9722 190.252 87.6388 190.792 87.1988 191.246C86.7588 191.686 86.2322 192.026 85.6188 192.266C85.0055 192.492 84.3188 192.606 83.5588 192.606ZM83.5588 190.706C84.0522 190.706 84.4855 190.586 84.8588 190.346C85.2322 190.106 85.5188 189.752 85.7188 189.286C85.9322 188.806 86.0388 188.212 86.0388 187.506C86.0388 186.439 85.8122 185.646 85.3588 185.126C84.9055 184.592 84.3055 184.326 83.5588 184.326C83.0655 184.326 82.6322 184.446 82.2588 184.686C81.8855 184.912 81.5922 185.266 81.3788 185.746C81.1788 186.212 81.0788 186.799 81.0788 187.506C81.0788 188.559 81.3055 189.359 81.7588 189.906C82.2122 190.439 82.8122 190.706 83.5588 190.706ZM91.9023 192.566C91.5023 192.566 91.1956 192.459 90.9823 192.246C90.7689 192.019 90.6623 191.699 90.6623 191.286V183.726C90.6623 183.312 90.7689 182.999 90.9823 182.786C91.1956 182.572 91.4956 182.466 91.8823 182.466C92.2689 182.466 92.5689 182.572 92.7823 182.786C92.9956 182.999 93.1023 183.312 93.1023 183.726V185.186L92.8823 184.586C93.1489 183.919 93.5623 183.392 94.1223 183.006C94.6823 182.619 95.3489 182.426 96.1223 182.426C96.9089 182.426 97.5556 182.612 98.0623 182.986C98.5689 183.359 98.9223 183.932 99.1223 184.706H98.8423C99.1089 183.999 99.5489 183.446 100.162 183.046C100.776 182.632 101.482 182.426 102.282 182.426C103.029 182.426 103.642 182.572 104.122 182.866C104.616 183.159 104.982 183.606 105.222 184.206C105.462 184.792 105.582 185.539 105.582 186.446V191.286C105.582 191.699 105.469 192.019 105.242 192.246C105.029 192.459 104.722 192.566 104.322 192.566C103.922 192.566 103.616 192.459 103.402 192.246C103.189 192.019 103.082 191.699 103.082 191.286V186.546C103.082 185.799 102.956 185.252 102.702 184.906C102.462 184.559 102.049 184.386 101.462 184.386C100.809 184.386 100.296 184.619 99.9223 185.086C99.5489 185.539 99.3623 186.172 99.3623 186.986V191.286C99.3623 191.699 99.2556 192.019 99.0423 192.246C98.8289 192.459 98.5223 192.566 98.1223 192.566C97.7223 192.566 97.4089 192.459 97.1823 192.246C96.9689 192.019 96.8623 191.699 96.8623 191.286V186.546C96.8623 185.799 96.7356 185.252 96.4823 184.906C96.2423 184.559 95.8356 184.386 95.2623 184.386C94.6089 184.386 94.0956 184.619 93.7223 185.086C93.3489 185.539 93.1623 186.172 93.1623 186.986V191.286C93.1623 192.139 92.7423 192.566 91.9023 192.566ZM112.621 192.606C111.608 192.606 110.728 192.399 109.981 191.986C109.235 191.572 108.655 190.986 108.241 190.226C107.828 189.452 107.621 188.546 107.621 187.506C107.621 186.719 107.735 186.019 107.961 185.406C108.201 184.779 108.541 184.246 108.981 183.806C109.421 183.352 109.948 183.012 110.561 182.786C111.175 182.546 111.861 182.426 112.621 182.426C113.635 182.426 114.515 182.632 115.261 183.046C116.008 183.459 116.588 184.046 117.001 184.806C117.415 185.566 117.621 186.466 117.621 187.506C117.621 188.292 117.501 188.999 117.261 189.626C117.035 190.252 116.701 190.792 116.261 191.246C115.821 191.686 115.295 192.026 114.681 192.266C114.068 192.492 113.381 192.606 112.621 192.606ZM112.621 190.706C113.115 190.706 113.548 190.586 113.921 190.346C114.295 190.106 114.581 189.752 114.781 189.286C114.995 188.806 115.101 188.212 115.101 187.506C115.101 186.439 114.875 185.646 114.421 185.126C113.968 184.592 113.368 184.326 112.621 184.326C112.128 184.326 111.695 184.446 111.321 184.686C110.948 184.912 110.655 185.266 110.441 185.746C110.241 186.212 110.141 186.799 110.141 187.506C110.141 188.559 110.368 189.359 110.821 189.906C111.275 190.439 111.875 190.706 112.621 190.706ZM124.067 192.606C123.2 192.606 122.474 192.459 121.887 192.166C121.314 191.872 120.887 191.446 120.607 190.886C120.327 190.312 120.187 189.606 120.187 188.766V184.506H119.147C118.827 184.506 118.58 184.426 118.407 184.266C118.234 184.092 118.147 183.859 118.147 183.566C118.147 183.259 118.234 183.026 118.407 182.866C118.58 182.706 118.827 182.626 119.147 182.626H120.187V180.806C120.187 180.392 120.294 180.079 120.507 179.866C120.734 179.652 121.047 179.546 121.447 179.546C121.847 179.546 122.154 179.652 122.367 179.866C122.58 180.079 122.687 180.392 122.687 180.806V182.626H124.807C125.127 182.626 125.374 182.706 125.547 182.866C125.72 183.026 125.807 183.259 125.807 183.566C125.807 183.859 125.72 184.092 125.547 184.266C125.374 184.426 125.127 184.506 124.807 184.506H122.687V188.626C122.687 189.266 122.827 189.746 123.107 190.066C123.387 190.386 123.84 190.546 124.467 190.546C124.694 190.546 124.894 190.526 125.067 190.486C125.24 190.446 125.394 190.419 125.527 190.406C125.687 190.392 125.82 190.446 125.927 190.566C126.034 190.672 126.087 190.899 126.087 191.246C126.087 191.512 126.04 191.752 125.947 191.966C125.867 192.166 125.714 192.306 125.487 192.386C125.314 192.439 125.087 192.486 124.807 192.526C124.527 192.579 124.28 192.606 124.067 192.606ZM128.757 192.546C128.357 192.546 128.05 192.426 127.837 192.186C127.623 191.946 127.517 191.612 127.517 191.186V183.846C127.517 183.406 127.623 183.072 127.837 182.846C128.05 182.606 128.357 182.486 128.757 182.486C129.157 182.486 129.463 182.606 129.677 182.846C129.903 183.072 130.017 183.406 130.017 183.846V191.186C130.017 191.612 129.91 191.946 129.697 192.186C129.483 192.426 129.17 192.546 128.757 192.546ZM128.757 180.626C128.29 180.626 127.923 180.512 127.657 180.286C127.403 180.046 127.277 179.719 127.277 179.306C127.277 178.879 127.403 178.552 127.657 178.326C127.923 178.099 128.29 177.986 128.757 177.986C129.237 177.986 129.603 178.099 129.857 178.326C130.11 178.552 130.237 178.879 130.237 179.306C130.237 179.719 130.11 180.046 129.857 180.286C129.603 180.512 129.237 180.626 128.757 180.626ZM136.574 192.566C136.241 192.566 135.948 192.479 135.694 192.306C135.454 192.132 135.254 191.866 135.094 191.506L131.914 184.126C131.794 183.832 131.748 183.559 131.774 183.306C131.814 183.052 131.934 182.852 132.134 182.706C132.348 182.546 132.634 182.466 132.994 182.466C133.301 182.466 133.548 182.539 133.734 182.686C133.921 182.819 134.088 183.079 134.234 183.466L136.934 190.206H136.334L139.114 183.446C139.261 183.072 139.428 182.819 139.614 182.686C139.814 182.539 140.081 182.466 140.414 182.466C140.708 182.466 140.941 182.546 141.114 182.706C141.288 182.852 141.394 183.052 141.434 183.306C141.474 183.546 141.428 183.812 141.294 184.106L138.054 191.506C137.908 191.866 137.708 192.132 137.454 192.306C137.214 192.479 136.921 192.566 136.574 192.566ZM147.786 192.606C146.679 192.606 145.726 192.399 144.926 191.986C144.126 191.572 143.506 190.986 143.066 190.226C142.639 189.466 142.426 188.566 142.426 187.526C142.426 186.512 142.633 185.626 143.046 184.866C143.473 184.106 144.053 183.512 144.786 183.086C145.533 182.646 146.379 182.426 147.326 182.426C148.019 182.426 148.639 182.539 149.186 182.766C149.746 182.992 150.219 183.319 150.606 183.746C151.006 184.172 151.306 184.692 151.506 185.306C151.719 185.906 151.826 186.586 151.826 187.346C151.826 187.586 151.739 187.772 151.566 187.906C151.406 188.026 151.173 188.086 150.866 188.086H144.446V186.646H150.066L149.746 186.946C149.746 186.332 149.653 185.819 149.466 185.406C149.293 184.992 149.033 184.679 148.686 184.466C148.353 184.239 147.933 184.126 147.426 184.126C146.866 184.126 146.386 184.259 145.986 184.526C145.599 184.779 145.299 185.146 145.086 185.626C144.886 186.092 144.786 186.652 144.786 187.306V187.446C144.786 188.539 145.039 189.359 145.546 189.906C146.066 190.439 146.826 190.706 147.826 190.706C148.173 190.706 148.559 190.666 148.986 190.586C149.426 190.492 149.839 190.339 150.226 190.126C150.506 189.966 150.753 189.899 150.966 189.926C151.179 189.939 151.346 190.012 151.466 190.146C151.599 190.279 151.679 190.446 151.706 190.646C151.733 190.832 151.693 191.026 151.586 191.226C151.493 191.426 151.326 191.599 151.086 191.746C150.619 192.039 150.079 192.259 149.466 192.406C148.866 192.539 148.306 192.606 147.786 192.606Z" fill="#212D4D"/>
<path d="M44.9459 220.406V210.466H46.2059V219.286H51.7499V220.406H44.9459ZM56.0083 220.546C55.4576 220.546 54.9583 220.448 54.5103 220.252C54.0623 220.046 53.6749 219.771 53.3483 219.426C53.0216 219.071 52.7696 218.665 52.5923 218.208C52.4149 217.75 52.3263 217.27 52.3263 216.766C52.3263 216.252 52.4149 215.767 52.5923 215.31C52.7696 214.852 53.0216 214.451 53.3483 214.106C53.6749 213.751 54.0623 213.476 54.5103 213.28C54.9676 213.074 55.4669 212.972 56.0083 212.972C56.5589 212.972 57.0583 213.074 57.5063 213.28C57.9543 213.476 58.3416 213.751 58.6683 214.106C59.0043 214.451 59.2609 214.852 59.4383 215.31C59.6156 215.767 59.7043 216.252 59.7043 216.766C59.7043 217.27 59.6156 217.75 59.4383 218.208C59.2609 218.665 59.0089 219.071 58.6823 219.426C58.3556 219.771 57.9636 220.046 57.5063 220.252C57.0583 220.448 56.5589 220.546 56.0083 220.546ZM53.5863 216.78C53.5863 217.284 53.6936 217.741 53.9083 218.152C54.1323 218.562 54.4263 218.889 54.7903 219.132C55.1543 219.365 55.5603 219.482 56.0083 219.482C56.4563 219.482 56.8623 219.36 57.2263 219.118C57.5996 218.875 57.8936 218.548 58.1083 218.138C58.3323 217.718 58.4443 217.256 58.4443 216.752C58.4443 216.248 58.3323 215.79 58.1083 215.38C57.8936 214.969 57.5996 214.642 57.2263 214.4C56.8623 214.157 56.4563 214.036 56.0083 214.036C55.5603 214.036 55.1543 214.162 54.7903 214.414C54.4263 214.656 54.1323 214.983 53.9083 215.394C53.6936 215.804 53.5863 216.266 53.5863 216.78ZM65.0611 214.176C64.4451 214.185 63.8991 214.344 63.4231 214.652C62.9565 214.95 62.6251 215.366 62.4291 215.898V220.406H61.1971V213.098H62.3451V214.792C62.5971 214.288 62.9285 213.882 63.3391 213.574C63.7591 213.256 64.1978 213.079 64.6551 213.042C64.7485 213.042 64.8278 213.042 64.8931 213.042C64.9585 213.042 65.0145 213.046 65.0611 213.056V214.176ZM69.3393 220.546C68.7887 220.546 68.2847 220.448 67.8273 220.252C67.3793 220.046 66.9873 219.771 66.6513 219.426C66.3247 219.071 66.068 218.665 65.8813 218.208C65.704 217.75 65.6153 217.265 65.6153 216.752C65.6153 216.061 65.774 215.431 66.0913 214.862C66.4087 214.292 66.8473 213.835 67.4073 213.49C67.9767 213.144 68.6253 212.972 69.3533 212.972C70.0907 212.972 70.73 213.149 71.2713 213.504C71.822 213.849 72.2467 214.306 72.5453 214.876C72.8533 215.436 73.0073 216.042 73.0073 216.696C73.0073 216.789 73.0027 216.882 72.9933 216.976C72.9933 217.06 72.9887 217.125 72.9793 217.172H66.9173C66.9547 217.648 67.0853 218.072 67.3093 218.446C67.5427 218.81 67.8413 219.099 68.2053 219.314C68.5693 219.519 68.9613 219.622 69.3813 219.622C69.8293 219.622 70.2493 219.51 70.6413 219.286C71.0427 219.062 71.318 218.768 71.4673 218.404L72.5313 218.698C72.3727 219.052 72.1347 219.37 71.8173 219.65C71.5093 219.93 71.1407 220.149 70.7113 220.308C70.2913 220.466 69.834 220.546 69.3393 220.546ZM66.8753 216.318H71.8593C71.822 215.842 71.6867 215.422 71.4533 215.058C71.22 214.694 70.9213 214.409 70.5573 214.204C70.1933 213.998 69.792 213.896 69.3533 213.896C68.924 213.896 68.5273 213.998 68.1633 214.204C67.7993 214.409 67.5007 214.694 67.2673 215.058C67.0433 215.422 66.9127 215.842 66.8753 216.318ZM85.3948 220.406H84.1628V216.318C84.1628 215.552 84.0368 214.988 83.7848 214.624C83.5421 214.26 83.1781 214.078 82.6928 214.078C82.1981 214.078 81.7501 214.26 81.3488 214.624C80.9475 214.978 80.6628 215.44 80.4948 216.01V220.406H79.2628V216.318C79.2628 215.543 79.1415 214.978 78.8988 214.624C78.6561 214.26 78.2921 214.078 77.8068 214.078C77.3215 214.078 76.8735 214.255 76.4628 214.61C76.0615 214.955 75.7768 215.417 75.6088 215.996V220.406H74.3768V213.098H75.4968V214.666C75.7955 214.124 76.1828 213.709 76.6588 213.42C77.1348 213.121 77.6715 212.972 78.2688 212.972C78.8755 212.972 79.3608 213.14 79.7248 213.476C80.0888 213.802 80.3128 214.227 80.3968 214.75C80.7235 214.171 81.1201 213.732 81.5868 213.434C82.0535 213.126 82.5855 212.972 83.1828 212.972C83.6028 212.972 83.9528 213.051 84.2328 213.21C84.5221 213.359 84.7508 213.574 84.9188 213.854C85.0868 214.124 85.2081 214.446 85.2828 214.82C85.3575 215.193 85.3948 215.599 85.3948 216.038V220.406ZM90.8514 220.406V213.098H92.0834V220.406H90.8514ZM90.8514 211.726V210.186H92.0834V211.726H90.8514ZM98.012 220.546C97.4147 220.546 96.8827 220.396 96.416 220.098C95.9493 219.799 95.5807 219.421 95.31 218.964V223.388H94.078V213.098H95.17V214.47C95.4593 214.022 95.8373 213.662 96.304 213.392C96.7707 213.112 97.2793 212.972 97.83 212.972C98.334 212.972 98.796 213.074 99.216 213.28C99.636 213.485 100 213.765 100.308 214.12C100.616 214.474 100.854 214.88 101.022 215.338C101.199 215.786 101.288 216.257 101.288 216.752C101.288 217.442 101.148 218.077 100.868 218.656C100.597 219.234 100.215 219.696 99.72 220.042C99.2253 220.378 98.656 220.546 98.012 220.546ZM97.634 219.482C97.998 219.482 98.3247 219.407 98.614 219.258C98.9127 219.099 99.1647 218.894 99.37 218.642C99.5847 218.38 99.748 218.086 99.86 217.76C99.972 217.433 100.028 217.097 100.028 216.752C100.028 216.388 99.9627 216.042 99.832 215.716C99.7107 215.389 99.5333 215.1 99.3 214.848C99.076 214.596 98.81 214.4 98.502 214.26C98.2033 214.11 97.8767 214.036 97.522 214.036C97.298 214.036 97.0647 214.078 96.822 214.162C96.5887 214.246 96.3647 214.367 96.15 214.526C95.9353 214.675 95.7533 214.848 95.604 215.044C95.4547 215.24 95.3567 215.45 95.31 215.674V217.76C95.45 218.077 95.6367 218.366 95.87 218.628C96.1033 218.889 96.374 219.099 96.682 219.258C96.99 219.407 97.3073 219.482 97.634 219.482ZM105.307 220.546C104.7 220.546 104.131 220.448 103.599 220.252C103.067 220.046 102.609 219.743 102.227 219.342L102.703 218.474C103.123 218.866 103.543 219.146 103.963 219.314C104.383 219.482 104.812 219.566 105.251 219.566C105.755 219.566 106.165 219.472 106.483 219.286C106.8 219.09 106.959 218.805 106.959 218.432C106.959 218.161 106.875 217.96 106.707 217.83C106.548 217.699 106.319 217.592 106.021 217.508C105.722 217.414 105.367 217.312 104.957 217.2C104.453 217.05 104.028 216.892 103.683 216.724C103.337 216.556 103.076 216.346 102.899 216.094C102.721 215.842 102.633 215.524 102.633 215.142C102.633 214.675 102.754 214.283 102.997 213.966C103.239 213.639 103.571 213.392 103.991 213.224C104.42 213.056 104.905 212.972 105.447 212.972C105.988 212.972 106.478 213.056 106.917 213.224C107.355 213.392 107.733 213.639 108.051 213.966L107.491 214.82C107.201 214.521 106.884 214.302 106.539 214.162C106.193 214.012 105.806 213.938 105.377 213.938C105.125 213.938 104.877 213.97 104.635 214.036C104.392 214.092 104.191 214.199 104.033 214.358C103.874 214.507 103.795 214.722 103.795 215.002C103.795 215.235 103.855 215.422 103.977 215.562C104.107 215.692 104.294 215.804 104.537 215.898C104.789 215.991 105.092 216.094 105.447 216.206C105.997 216.364 106.473 216.523 106.875 216.682C107.285 216.84 107.603 217.046 107.827 217.298C108.051 217.55 108.163 217.9 108.163 218.348C108.163 219.038 107.901 219.58 107.379 219.972C106.856 220.354 106.165 220.546 105.307 220.546ZM109.567 217.48V213.098H110.799V217.242C110.799 217.988 110.929 218.548 111.191 218.922C111.452 219.295 111.839 219.482 112.353 219.482C112.689 219.482 113.011 219.412 113.319 219.272C113.636 219.122 113.921 218.912 114.173 218.642C114.425 218.371 114.621 218.049 114.761 217.676V213.098H115.993V219.006C115.993 219.155 116.021 219.267 116.077 219.342C116.142 219.407 116.245 219.444 116.385 219.454V220.406C116.245 220.424 116.133 220.434 116.049 220.434C115.974 220.443 115.899 220.448 115.825 220.448C115.591 220.448 115.391 220.378 115.223 220.238C115.055 220.088 114.966 219.906 114.957 219.692L114.929 218.838C114.611 219.379 114.182 219.799 113.641 220.098C113.109 220.396 112.525 220.546 111.891 220.546C111.125 220.546 110.547 220.289 110.155 219.776C109.763 219.253 109.567 218.488 109.567 217.48ZM129.063 220.406H127.831V216.318C127.831 215.552 127.705 214.988 127.453 214.624C127.21 214.26 126.846 214.078 126.361 214.078C125.866 214.078 125.418 214.26 125.017 214.624C124.615 214.978 124.331 215.44 124.163 216.01V220.406H122.931V216.318C122.931 215.543 122.809 214.978 122.567 214.624C122.324 214.26 121.96 214.078 121.475 214.078C120.989 214.078 120.541 214.255 120.131 214.61C119.729 214.955 119.445 215.417 119.277 215.996V220.406H118.045V213.098H119.165V214.666C119.463 214.124 119.851 213.709 120.327 213.42C120.803 213.121 121.339 212.972 121.937 212.972C122.543 212.972 123.029 213.14 123.393 213.476C123.757 213.802 123.981 214.227 124.065 214.75C124.391 214.171 124.788 213.732 125.255 213.434C125.721 213.126 126.253 212.972 126.851 212.972C127.271 212.972 127.621 213.051 127.901 213.21C128.19 213.359 128.419 213.574 128.587 213.854C128.755 214.124 128.876 214.446 128.951 214.82C129.025 215.193 129.063 215.599 129.063 216.038V220.406ZM134.043 216.766C134.043 216.075 134.183 215.445 134.463 214.876C134.753 214.297 135.145 213.835 135.639 213.49C136.143 213.144 136.717 212.972 137.361 212.972C137.949 212.972 138.477 213.126 138.943 213.434C139.41 213.742 139.774 214.115 140.035 214.554V210.186H141.267V219.006C141.267 219.155 141.295 219.267 141.351 219.342C141.417 219.407 141.519 219.444 141.659 219.454V220.406C141.426 220.443 141.244 220.462 141.113 220.462C140.871 220.462 140.656 220.378 140.469 220.21C140.292 220.042 140.203 219.855 140.203 219.65V219.034C139.914 219.5 139.527 219.869 139.041 220.14C138.556 220.41 138.052 220.546 137.529 220.546C137.025 220.546 136.559 220.448 136.129 220.252C135.709 220.046 135.341 219.766 135.023 219.412C134.715 219.057 134.473 218.656 134.295 218.208C134.127 217.75 134.043 217.27 134.043 216.766ZM140.035 217.844V215.744C139.923 215.426 139.741 215.142 139.489 214.89C139.237 214.628 138.953 214.423 138.635 214.274C138.327 214.115 138.019 214.036 137.711 214.036C137.347 214.036 137.016 214.115 136.717 214.274C136.428 214.423 136.176 214.628 135.961 214.89C135.756 215.142 135.597 215.431 135.485 215.758C135.373 216.084 135.317 216.425 135.317 216.78C135.317 217.144 135.378 217.489 135.499 217.816C135.63 218.142 135.807 218.432 136.031 218.684C136.265 218.936 136.531 219.132 136.829 219.272C137.137 219.412 137.469 219.482 137.823 219.482C138.047 219.482 138.276 219.44 138.509 219.356C138.752 219.272 138.981 219.155 139.195 219.006C139.41 218.856 139.592 218.684 139.741 218.488C139.891 218.282 139.989 218.068 140.035 217.844ZM146.516 220.546C145.965 220.546 145.466 220.448 145.018 220.252C144.57 220.046 144.183 219.771 143.856 219.426C143.529 219.071 143.277 218.665 143.1 218.208C142.923 217.75 142.834 217.27 142.834 216.766C142.834 216.252 142.923 215.767 143.1 215.31C143.277 214.852 143.529 214.451 143.856 214.106C144.183 213.751 144.57 213.476 145.018 213.28C145.475 213.074 145.975 212.972 146.516 212.972C147.067 212.972 147.566 213.074 148.014 213.28C148.462 213.476 148.849 213.751 149.176 214.106C149.512 214.451 149.769 214.852 149.946 215.31C150.123 215.767 150.212 216.252 150.212 216.766C150.212 217.27 150.123 217.75 149.946 218.208C149.769 218.665 149.517 219.071 149.19 219.426C148.863 219.771 148.471 220.046 148.014 220.252C147.566 220.448 147.067 220.546 146.516 220.546ZM144.094 216.78C144.094 217.284 144.201 217.741 144.416 218.152C144.64 218.562 144.934 218.889 145.298 219.132C145.662 219.365 146.068 219.482 146.516 219.482C146.964 219.482 147.37 219.36 147.734 219.118C148.107 218.875 148.401 218.548 148.616 218.138C148.84 217.718 148.952 217.256 148.952 216.752C148.952 216.248 148.84 215.79 148.616 215.38C148.401 214.969 148.107 214.642 147.734 214.4C147.37 214.157 146.964 214.036 146.516 214.036C146.068 214.036 145.662 214.162 145.298 214.414C144.934 214.656 144.64 214.983 144.416 215.394C144.201 215.804 144.094 216.266 144.094 216.78ZM151.733 210.186H152.965V218.516C152.965 218.917 153.021 219.164 153.133 219.258C153.245 219.351 153.38 219.398 153.539 219.398C153.735 219.398 153.922 219.379 154.099 219.342C154.276 219.295 154.426 219.248 154.547 219.202L154.743 220.21C154.538 220.294 154.295 220.364 154.015 220.42C153.735 220.476 153.488 220.504 153.273 220.504C152.797 220.504 152.419 220.368 152.139 220.098C151.868 219.827 151.733 219.449 151.733 218.964V210.186ZM158.903 220.546C158.352 220.546 157.853 220.448 157.405 220.252C156.957 220.046 156.569 219.771 156.243 219.426C155.916 219.071 155.664 218.665 155.487 218.208C155.309 217.75 155.221 217.27 155.221 216.766C155.221 216.252 155.309 215.767 155.487 215.31C155.664 214.852 155.916 214.451 156.243 214.106C156.569 213.751 156.957 213.476 157.405 213.28C157.862 213.074 158.361 212.972 158.903 212.972C159.453 212.972 159.953 213.074 160.401 213.28C160.849 213.476 161.236 213.751 161.563 214.106C161.899 214.451 162.155 214.852 162.333 215.31C162.51 215.767 162.599 216.252 162.599 216.766C162.599 217.27 162.51 217.75 162.333 218.208C162.155 218.665 161.903 219.071 161.577 219.426C161.25 219.771 160.858 220.046 160.401 220.252C159.953 220.448 159.453 220.546 158.903 220.546ZM156.481 216.78C156.481 217.284 156.588 217.741 156.803 218.152C157.027 218.562 157.321 218.889 157.685 219.132C158.049 219.365 158.455 219.482 158.903 219.482C159.351 219.482 159.757 219.36 160.121 219.118C160.494 218.875 160.788 218.548 161.003 218.138C161.227 217.718 161.339 217.256 161.339 216.752C161.339 216.248 161.227 215.79 161.003 215.38C160.788 214.969 160.494 214.642 160.121 214.4C159.757 214.157 159.351 214.036 158.903 214.036C158.455 214.036 158.049 214.162 157.685 214.414C157.321 214.656 157.027 214.983 156.803 215.394C156.588 215.804 156.481 216.266 156.481 216.78ZM167.956 214.176C167.34 214.185 166.794 214.344 166.318 214.652C165.851 214.95 165.52 215.366 165.324 215.898V220.406H164.092V213.098H165.24V214.792C165.492 214.288 165.823 213.882 166.234 213.574C166.654 213.256 167.092 213.079 167.55 213.042C167.643 213.042 167.722 213.042 167.788 213.042C167.853 213.042 167.909 213.046 167.956 213.056V214.176ZM174.896 220.546C174.29 220.546 173.72 220.448 173.188 220.252C172.656 220.046 172.199 219.743 171.816 219.342L172.292 218.474C172.712 218.866 173.132 219.146 173.552 219.314C173.972 219.482 174.402 219.566 174.84 219.566C175.344 219.566 175.755 219.472 176.072 219.286C176.39 219.09 176.548 218.805 176.548 218.432C176.548 218.161 176.464 217.96 176.296 217.83C176.138 217.699 175.909 217.592 175.61 217.508C175.312 217.414 174.957 217.312 174.546 217.2C174.042 217.05 173.618 216.892 173.272 216.724C172.927 216.556 172.666 216.346 172.488 216.094C172.311 215.842 172.222 215.524 172.222 215.142C172.222 214.675 172.344 214.283 172.586 213.966C172.829 213.639 173.16 213.392 173.58 213.224C174.01 213.056 174.495 212.972 175.036 212.972C175.578 212.972 176.068 213.056 176.506 213.224C176.945 213.392 177.323 213.639 177.64 213.966L177.08 214.82C176.791 214.521 176.474 214.302 176.128 214.162C175.783 214.012 175.396 213.938 174.966 213.938C174.714 213.938 174.467 213.97 174.224 214.036C173.982 214.092 173.781 214.199 173.622 214.358C173.464 214.507 173.384 214.722 173.384 215.002C173.384 215.235 173.445 215.422 173.566 215.562C173.697 215.692 173.884 215.804 174.126 215.898C174.378 215.991 174.682 216.094 175.036 216.206C175.587 216.364 176.063 216.523 176.464 216.682C176.875 216.84 177.192 217.046 177.416 217.298C177.64 217.55 177.752 217.9 177.752 218.348C177.752 219.038 177.491 219.58 176.968 219.972C176.446 220.354 175.755 220.546 174.896 220.546ZM179.226 220.406V213.098H180.458V220.406H179.226ZM179.226 211.726V210.186H180.458V211.726H179.226ZM186.233 220.042C186.13 220.088 185.99 220.149 185.813 220.224C185.636 220.298 185.43 220.364 185.197 220.42C184.964 220.476 184.716 220.504 184.455 220.504C184.156 220.504 183.881 220.452 183.629 220.35C183.377 220.238 183.176 220.07 183.027 219.846C182.878 219.612 182.803 219.323 182.803 218.978V214.064H181.809V213.098H182.803V210.662H184.035V213.098H185.673V214.064H184.035V218.6C184.054 218.861 184.142 219.057 184.301 219.188C184.46 219.309 184.646 219.37 184.861 219.37C185.104 219.37 185.328 219.328 185.533 219.244C185.738 219.16 185.874 219.099 185.939 219.062L186.233 220.042ZM190.342 218.292C190.342 217.825 190.473 217.424 190.734 217.088C191.005 216.742 191.373 216.476 191.84 216.29C192.307 216.103 192.848 216.01 193.464 216.01C193.791 216.01 194.136 216.038 194.5 216.094C194.864 216.14 195.186 216.215 195.466 216.318V215.786C195.466 215.226 195.298 214.787 194.962 214.47C194.626 214.143 194.15 213.98 193.534 213.98C193.133 213.98 192.745 214.054 192.372 214.204C192.008 214.344 191.621 214.549 191.21 214.82L190.762 213.952C191.238 213.625 191.714 213.382 192.19 213.224C192.666 213.056 193.161 212.972 193.674 212.972C194.607 212.972 195.345 213.233 195.886 213.756C196.427 214.269 196.698 214.988 196.698 215.912V219.006C196.698 219.155 196.726 219.267 196.782 219.342C196.847 219.407 196.95 219.444 197.09 219.454V220.406C196.969 220.424 196.861 220.438 196.768 220.448C196.684 220.457 196.614 220.462 196.558 220.462C196.269 220.462 196.049 220.382 195.9 220.224C195.76 220.065 195.681 219.897 195.662 219.72L195.634 219.258C195.317 219.668 194.901 219.986 194.388 220.21C193.875 220.434 193.366 220.546 192.862 220.546C192.377 220.546 191.943 220.448 191.56 220.252C191.177 220.046 190.879 219.776 190.664 219.44C190.449 219.094 190.342 218.712 190.342 218.292ZM195.102 218.81C195.214 218.679 195.303 218.548 195.368 218.418C195.433 218.278 195.466 218.161 195.466 218.068V217.158C195.177 217.046 194.873 216.962 194.556 216.906C194.239 216.84 193.926 216.808 193.618 216.808C192.993 216.808 192.484 216.934 192.092 217.186C191.709 217.428 191.518 217.764 191.518 218.194C191.518 218.427 191.579 218.656 191.7 218.88C191.831 219.094 192.017 219.272 192.26 219.412C192.512 219.552 192.82 219.622 193.184 219.622C193.567 219.622 193.931 219.547 194.276 219.398C194.621 219.239 194.897 219.043 195.102 218.81ZM209.686 220.406H208.454V216.318C208.454 215.552 208.328 214.988 208.076 214.624C207.833 214.26 207.469 214.078 206.984 214.078C206.489 214.078 206.041 214.26 205.64 214.624C205.238 214.978 204.954 215.44 204.786 216.01V220.406H203.554V216.318C203.554 215.543 203.432 214.978 203.19 214.624C202.947 214.26 202.583 214.078 202.098 214.078C201.612 214.078 201.164 214.255 200.754 214.61C200.352 214.955 200.068 215.417 199.9 215.996V220.406H198.668V213.098H199.788V214.666C200.086 214.124 200.474 213.709 200.95 213.42C201.426 213.121 201.962 212.972 202.56 212.972C203.166 212.972 203.652 213.14 204.016 213.476C204.38 213.802 204.604 214.227 204.688 214.75C205.014 214.171 205.411 213.732 205.878 213.434C206.344 213.126 206.876 212.972 207.474 212.972C207.894 212.972 208.244 213.051 208.524 213.21C208.813 213.359 209.042 213.574 209.21 213.854C209.378 214.124 209.499 214.446 209.574 214.82C209.648 215.193 209.686 215.599 209.686 216.038V220.406ZM214.835 220.546C214.285 220.546 213.781 220.448 213.323 220.252C212.875 220.046 212.483 219.771 212.147 219.426C211.821 219.071 211.564 218.665 211.377 218.208C211.2 217.75 211.111 217.265 211.111 216.752C211.111 216.061 211.27 215.431 211.587 214.862C211.905 214.292 212.343 213.835 212.903 213.49C213.473 213.144 214.121 212.972 214.849 212.972C215.587 212.972 216.226 213.149 216.767 213.504C217.318 213.849 217.743 214.306 218.041 214.876C218.349 215.436 218.503 216.042 218.503 216.696C218.503 216.789 218.499 216.882 218.489 216.976C218.489 217.06 218.485 217.125 218.475 217.172H212.413C212.451 217.648 212.581 218.072 212.805 218.446C213.039 218.81 213.337 219.099 213.701 219.314C214.065 219.519 214.457 219.622 214.877 219.622C215.325 219.622 215.745 219.51 216.137 219.286C216.539 219.062 216.814 218.768 216.963 218.404L218.027 218.698C217.869 219.052 217.631 219.37 217.313 219.65C217.005 219.93 216.637 220.149 216.207 220.308C215.787 220.466 215.33 220.546 214.835 220.546ZM212.371 216.318H217.355C217.318 215.842 217.183 215.422 216.949 215.058C216.716 214.694 216.417 214.409 216.053 214.204C215.689 213.998 215.288 213.896 214.849 213.896C214.42 213.896 214.023 213.998 213.659 214.204C213.295 214.409 212.997 214.694 212.763 215.058C212.539 215.422 212.409 215.842 212.371 216.318ZM223.585 220.042C223.482 220.088 223.342 220.149 223.165 220.224C222.987 220.298 222.782 220.364 222.549 220.42C222.315 220.476 222.068 220.504 221.807 220.504C221.508 220.504 221.233 220.452 220.981 220.35C220.729 220.238 220.528 220.07 220.379 219.846C220.229 219.612 220.155 219.323 220.155 218.978V214.064H219.161V213.098H220.155V210.662H221.387V213.098H223.025V214.064H221.387V218.6C221.405 218.861 221.494 219.057 221.653 219.188C221.811 219.309 221.998 219.37 222.213 219.37C222.455 219.37 222.679 219.328 222.885 219.244C223.09 219.16 223.225 219.099 223.291 219.062L223.585 220.042ZM224.768 221.54L225.048 220.294H224.628V218.838H225.79V220.294L225.37 221.54H224.768ZM47.9839 241.546C47.4332 241.546 46.9292 241.448 46.4719 241.252C46.0239 241.046 45.6319 240.766 45.2959 240.412C44.9692 240.057 44.7125 239.651 44.5259 239.194C44.3485 238.736 44.2599 238.251 44.2599 237.738C44.2599 237.047 44.4139 236.417 44.7219 235.848C45.0299 235.278 45.4639 234.826 46.0239 234.49C46.5839 234.144 47.2325 233.972 47.9699 233.972C48.6885 233.972 49.3139 234.135 49.8459 234.462C50.3872 234.779 50.7885 235.208 51.0499 235.75L49.8459 236.128C49.6592 235.782 49.3979 235.516 49.0619 235.33C48.7259 235.134 48.3525 235.036 47.9419 235.036C47.4939 235.036 47.0832 235.152 46.7099 235.386C46.3459 235.619 46.0565 235.941 45.8419 236.352C45.6272 236.753 45.5199 237.215 45.5199 237.738C45.5199 238.251 45.6272 238.718 45.8419 239.138C46.0659 239.548 46.3599 239.875 46.7239 240.118C47.0972 240.36 47.5079 240.482 47.9559 240.482C48.2452 240.482 48.5205 240.43 48.7819 240.328C49.0525 240.225 49.2859 240.09 49.4819 239.922C49.6872 239.744 49.8272 239.553 49.9019 239.348L51.1059 239.712C50.9565 240.066 50.7279 240.384 50.4199 240.664C50.1212 240.934 49.7619 241.149 49.3419 241.308C48.9312 241.466 48.4785 241.546 47.9839 241.546ZM55.6255 241.546C55.0748 241.546 54.5755 241.448 54.1275 241.252C53.6795 241.046 53.2921 240.771 52.9655 240.426C52.6388 240.071 52.3868 239.665 52.2095 239.208C52.0321 238.75 51.9435 238.27 51.9435 237.766C51.9435 237.252 52.0321 236.767 52.2095 236.31C52.3868 235.852 52.6388 235.451 52.9655 235.106C53.2921 234.751 53.6795 234.476 54.1275 234.28C54.5848 234.074 55.0841 233.972 55.6255 233.972C56.1761 233.972 56.6755 234.074 57.1235 234.28C57.5715 234.476 57.9588 234.751 58.2855 235.106C58.6215 235.451 58.8781 235.852 59.0555 236.31C59.2328 236.767 59.3215 237.252 59.3215 237.766C59.3215 238.27 59.2328 238.75 59.0555 239.208C58.8781 239.665 58.6261 240.071 58.2995 240.426C57.9728 240.771 57.5808 241.046 57.1235 241.252C56.6755 241.448 56.1761 241.546 55.6255 241.546ZM53.2035 237.78C53.2035 238.284 53.3108 238.741 53.5255 239.152C53.7495 239.562 54.0435 239.889 54.4075 240.132C54.7715 240.365 55.1775 240.482 55.6255 240.482C56.0735 240.482 56.4795 240.36 56.8435 240.118C57.2168 239.875 57.5108 239.548 57.7255 239.138C57.9495 238.718 58.0615 238.256 58.0615 237.752C58.0615 237.248 57.9495 236.79 57.7255 236.38C57.5108 235.969 57.2168 235.642 56.8435 235.4C56.4795 235.157 56.0735 235.036 55.6255 235.036C55.1775 235.036 54.7715 235.162 54.4075 235.414C54.0435 235.656 53.7495 235.983 53.5255 236.394C53.3108 236.804 53.2035 237.266 53.2035 237.78ZM67.1563 241.406H65.9243V237.318C65.9243 236.543 65.803 235.978 65.5603 235.624C65.327 235.26 64.9676 235.078 64.4823 235.078C64.1463 235.078 63.8103 235.162 63.4743 235.33C63.1476 235.498 62.8536 235.726 62.5923 236.016C62.3403 236.296 62.1583 236.622 62.0463 236.996V241.406H60.8143V234.098H61.9343V235.666C62.1303 235.32 62.3823 235.022 62.6903 234.77C62.9983 234.518 63.3483 234.322 63.7403 234.182C64.1323 234.042 64.543 233.972 64.9723 233.972C65.3923 233.972 65.7423 234.051 66.0223 234.21C66.3116 234.359 66.5356 234.574 66.6943 234.854C66.8623 235.124 66.979 235.446 67.0443 235.82C67.119 236.193 67.1563 236.599 67.1563 237.038V241.406ZM71.5781 241.546C70.9715 241.546 70.4021 241.448 69.8701 241.252C69.3381 241.046 68.8808 240.743 68.4981 240.342L68.9741 239.474C69.3941 239.866 69.8141 240.146 70.2341 240.314C70.6541 240.482 71.0835 240.566 71.5221 240.566C72.0261 240.566 72.4368 240.472 72.7541 240.286C73.0715 240.09 73.2301 239.805 73.2301 239.432C73.2301 239.161 73.1461 238.96 72.9781 238.83C72.8195 238.699 72.5908 238.592 72.2921 238.508C71.9935 238.414 71.6388 238.312 71.2281 238.2C70.7241 238.05 70.2995 237.892 69.9541 237.724C69.6088 237.556 69.3475 237.346 69.1701 237.094C68.9928 236.842 68.9041 236.524 68.9041 236.142C68.9041 235.675 69.0255 235.283 69.2681 234.966C69.5108 234.639 69.8421 234.392 70.2621 234.224C70.6915 234.056 71.1768 233.972 71.7181 233.972C72.2595 233.972 72.7495 234.056 73.1881 234.224C73.6268 234.392 74.0048 234.639 74.3221 234.966L73.7621 235.82C73.4728 235.521 73.1555 235.302 72.8101 235.162C72.4648 235.012 72.0775 234.938 71.6481 234.938C71.3961 234.938 71.1488 234.97 70.9061 235.036C70.6635 235.092 70.4628 235.199 70.3041 235.358C70.1455 235.507 70.0661 235.722 70.0661 236.002C70.0661 236.235 70.1268 236.422 70.2481 236.562C70.3788 236.692 70.5655 236.804 70.8081 236.898C71.0601 236.991 71.3635 237.094 71.7181 237.206C72.2688 237.364 72.7448 237.523 73.1461 237.682C73.5568 237.84 73.8741 238.046 74.0981 238.298C74.3221 238.55 74.4341 238.9 74.4341 239.348C74.4341 240.038 74.1728 240.58 73.6501 240.972C73.1275 241.354 72.4368 241.546 71.5781 241.546ZM79.1421 241.546C78.5914 241.546 78.0874 241.448 77.6301 241.252C77.1821 241.046 76.7901 240.771 76.4541 240.426C76.1274 240.071 75.8707 239.665 75.6841 239.208C75.5067 238.75 75.4181 238.265 75.4181 237.752C75.4181 237.061 75.5767 236.431 75.8941 235.862C76.2114 235.292 76.6501 234.835 77.2101 234.49C77.7794 234.144 78.4281 233.972 79.1561 233.972C79.8934 233.972 80.5327 234.149 81.0741 234.504C81.6247 234.849 82.0494 235.306 82.3481 235.876C82.6561 236.436 82.8101 237.042 82.8101 237.696C82.8101 237.789 82.8054 237.882 82.7961 237.976C82.7961 238.06 82.7914 238.125 82.7821 238.172H76.7201C76.7574 238.648 76.8881 239.072 77.1121 239.446C77.3454 239.81 77.6441 240.099 78.0081 240.314C78.3721 240.519 78.7641 240.622 79.1841 240.622C79.6321 240.622 80.0521 240.51 80.4441 240.286C80.8454 240.062 81.1207 239.768 81.2701 239.404L82.3341 239.698C82.1754 240.052 81.9374 240.37 81.6201 240.65C81.3121 240.93 80.9434 241.149 80.5141 241.308C80.0941 241.466 79.6367 241.546 79.1421 241.546ZM76.6781 237.318H81.6621C81.6247 236.842 81.4894 236.422 81.2561 236.058C81.0227 235.694 80.7241 235.409 80.3601 235.204C79.9961 234.998 79.5947 234.896 79.1561 234.896C78.7267 234.896 78.3301 234.998 77.9661 235.204C77.6021 235.409 77.3034 235.694 77.0701 236.058C76.8461 236.422 76.7154 236.842 76.6781 237.318ZM87.4135 241.546C86.8629 241.546 86.3589 241.448 85.9015 241.252C85.4535 241.046 85.0615 240.766 84.7255 240.412C84.3989 240.057 84.1422 239.651 83.9555 239.194C83.7782 238.736 83.6895 238.251 83.6895 237.738C83.6895 237.047 83.8435 236.417 84.1515 235.848C84.4595 235.278 84.8935 234.826 85.4535 234.49C86.0135 234.144 86.6622 233.972 87.3995 233.972C88.1182 233.972 88.7435 234.135 89.2755 234.462C89.8169 234.779 90.2182 235.208 90.4795 235.75L89.2755 236.128C89.0889 235.782 88.8275 235.516 88.4915 235.33C88.1555 235.134 87.7822 235.036 87.3715 235.036C86.9235 235.036 86.5129 235.152 86.1395 235.386C85.7755 235.619 85.4862 235.941 85.2715 236.352C85.0569 236.753 84.9495 237.215 84.9495 237.738C84.9495 238.251 85.0569 238.718 85.2715 239.138C85.4955 239.548 85.7895 239.875 86.1535 240.118C86.5269 240.36 86.9375 240.482 87.3855 240.482C87.6749 240.482 87.9502 240.43 88.2115 240.328C88.4822 240.225 88.7155 240.09 88.9115 239.922C89.1169 239.744 89.2569 239.553 89.3315 239.348L90.5355 239.712C90.3862 240.066 90.1575 240.384 89.8495 240.664C89.5509 240.934 89.1915 241.149 88.7715 241.308C88.3609 241.466 87.9082 241.546 87.4135 241.546ZM95.7115 241.042C95.6088 241.088 95.4688 241.149 95.2915 241.224C95.1142 241.298 94.9088 241.364 94.6755 241.42C94.4422 241.476 94.1948 241.504 93.9335 241.504C93.6348 241.504 93.3595 241.452 93.1075 241.35C92.8555 241.238 92.6548 241.07 92.5055 240.846C92.3562 240.612 92.2815 240.323 92.2815 239.978V235.064H91.2875V234.098H92.2815V231.662H93.5135V234.098H95.1515V235.064H93.5135V239.6C93.5322 239.861 93.6208 240.057 93.7795 240.188C93.9382 240.309 94.1248 240.37 94.3395 240.37C94.5822 240.37 94.8062 240.328 95.0115 240.244C95.2168 240.16 95.3522 240.099 95.4175 240.062L95.7115 241.042ZM99.9917 241.546C99.441 241.546 98.937 241.448 98.4797 241.252C98.0317 241.046 97.6397 240.771 97.3037 240.426C96.977 240.071 96.7203 239.665 96.5337 239.208C96.3563 238.75 96.2677 238.265 96.2677 237.752C96.2677 237.061 96.4263 236.431 96.7437 235.862C97.061 235.292 97.4997 234.835 98.0597 234.49C98.629 234.144 99.2777 233.972 100.006 233.972C100.743 233.972 101.382 234.149 101.924 234.504C102.474 234.849 102.899 235.306 103.198 235.876C103.506 236.436 103.66 237.042 103.66 237.696C103.66 237.789 103.655 237.882 103.646 237.976C103.646 238.06 103.641 238.125 103.632 238.172H97.5697C97.607 238.648 97.7377 239.072 97.9617 239.446C98.195 239.81 98.4937 240.099 98.8577 240.314C99.2217 240.519 99.6137 240.622 100.034 240.622C100.482 240.622 100.902 240.51 101.294 240.286C101.695 240.062 101.97 239.768 102.12 239.404L103.184 239.698C103.025 240.052 102.787 240.37 102.47 240.65C102.162 240.93 101.793 241.149 101.364 241.308C100.944 241.466 100.486 241.546 99.9917 241.546ZM97.5277 237.318H102.512C102.474 236.842 102.339 236.422 102.106 236.058C101.872 235.694 101.574 235.409 101.21 235.204C100.846 234.998 100.444 234.896 100.006 234.896C99.5763 234.896 99.1797 234.998 98.8157 235.204C98.4517 235.409 98.153 235.694 97.9197 236.058C97.6957 236.422 97.565 236.842 97.5277 237.318ZM108.741 241.042C108.638 241.088 108.498 241.149 108.321 241.224C108.143 241.298 107.938 241.364 107.705 241.42C107.471 241.476 107.224 241.504 106.963 241.504C106.664 241.504 106.389 241.452 106.137 241.35C105.885 241.238 105.684 241.07 105.535 240.846C105.385 240.612 105.311 240.323 105.311 239.978V235.064H104.317V234.098H105.311V231.662H106.543V234.098H108.181V235.064H106.543V239.6C106.561 239.861 106.65 240.057 106.809 240.188C106.967 240.309 107.154 240.37 107.369 240.37C107.611 240.37 107.835 240.328 108.041 240.244C108.246 240.16 108.381 240.099 108.447 240.062L108.741 241.042ZM109.813 238.48V234.098H111.045V238.242C111.045 238.988 111.175 239.548 111.437 239.922C111.698 240.295 112.085 240.482 112.599 240.482C112.935 240.482 113.257 240.412 113.565 240.272C113.882 240.122 114.167 239.912 114.419 239.642C114.671 239.371 114.867 239.049 115.007 238.676V234.098H116.239V240.006C116.239 240.155 116.267 240.267 116.323 240.342C116.388 240.407 116.491 240.444 116.631 240.454V241.406C116.491 241.424 116.379 241.434 116.295 241.434C116.22 241.443 116.145 241.448 116.071 241.448C115.837 241.448 115.637 241.378 115.469 241.238C115.301 241.088 115.212 240.906 115.203 240.692L115.175 239.838C114.857 240.379 114.428 240.799 113.887 241.098C113.355 241.396 112.771 241.546 112.137 241.546C111.371 241.546 110.793 241.289 110.401 240.776C110.009 240.253 109.813 239.488 109.813 238.48ZM122.155 235.176C121.539 235.185 120.993 235.344 120.517 235.652C120.05 235.95 119.719 236.366 119.523 236.898V241.406H118.291V234.098H119.439V235.792C119.691 235.288 120.022 234.882 120.433 234.574C120.853 234.256 121.292 234.079 121.749 234.042C121.842 234.042 121.922 234.042 121.987 234.042C122.052 234.042 122.108 234.046 122.155 234.056V235.176ZM126.016 239.292C126.016 238.825 126.146 238.424 126.408 238.088C126.678 237.742 127.047 237.476 127.514 237.29C127.98 237.103 128.522 237.01 129.138 237.01C129.464 237.01 129.81 237.038 130.174 237.094C130.538 237.14 130.86 237.215 131.14 237.318V236.786C131.14 236.226 130.972 235.787 130.636 235.47C130.3 235.143 129.824 234.98 129.208 234.98C128.806 234.98 128.419 235.054 128.046 235.204C127.682 235.344 127.294 235.549 126.884 235.82L126.436 234.952C126.912 234.625 127.388 234.382 127.864 234.224C128.34 234.056 128.834 233.972 129.348 233.972C130.281 233.972 131.018 234.233 131.56 234.756C132.101 235.269 132.372 235.988 132.372 236.912V240.006C132.372 240.155 132.4 240.267 132.456 240.342C132.521 240.407 132.624 240.444 132.764 240.454V241.406C132.642 241.424 132.535 241.438 132.442 241.448C132.358 241.457 132.288 241.462 132.232 241.462C131.942 241.462 131.723 241.382 131.574 241.224C131.434 241.065 131.354 240.897 131.336 240.72L131.308 240.258C130.99 240.668 130.575 240.986 130.062 241.21C129.548 241.434 129.04 241.546 128.536 241.546C128.05 241.546 127.616 241.448 127.234 241.252C126.851 241.046 126.552 240.776 126.338 240.44C126.123 240.094 126.016 239.712 126.016 239.292ZM130.776 239.81C130.888 239.679 130.976 239.548 131.042 239.418C131.107 239.278 131.14 239.161 131.14 239.068V238.158C130.85 238.046 130.547 237.962 130.23 237.906C129.912 237.84 129.6 237.808 129.292 237.808C128.666 237.808 128.158 237.934 127.766 238.186C127.383 238.428 127.192 238.764 127.192 239.194C127.192 239.427 127.252 239.656 127.374 239.88C127.504 240.094 127.691 240.272 127.934 240.412C128.186 240.552 128.494 240.622 128.858 240.622C129.24 240.622 129.604 240.547 129.95 240.398C130.295 240.239 130.57 240.043 130.776 239.81ZM133.866 237.766C133.866 237.075 134.006 236.445 134.286 235.876C134.575 235.297 134.967 234.835 135.462 234.49C135.966 234.144 136.54 233.972 137.184 233.972C137.772 233.972 138.299 234.126 138.766 234.434C139.232 234.742 139.596 235.115 139.858 235.554V231.186H141.09V240.006C141.09 240.155 141.118 240.267 141.174 240.342C141.239 240.407 141.342 240.444 141.482 240.454V241.406C141.248 241.443 141.066 241.462 140.936 241.462C140.693 241.462 140.478 241.378 140.292 241.21C140.114 241.042 140.026 240.855 140.026 240.65V240.034C139.736 240.5 139.349 240.869 138.864 241.14C138.378 241.41 137.874 241.546 137.352 241.546C136.848 241.546 136.381 241.448 135.952 241.252C135.532 241.046 135.163 240.766 134.846 240.412C134.538 240.057 134.295 239.656 134.118 239.208C133.95 238.75 133.866 238.27 133.866 237.766ZM139.858 238.844V236.744C139.746 236.426 139.564 236.142 139.312 235.89C139.06 235.628 138.775 235.423 138.458 235.274C138.15 235.115 137.842 235.036 137.534 235.036C137.17 235.036 136.838 235.115 136.54 235.274C136.25 235.423 135.998 235.628 135.784 235.89C135.578 236.142 135.42 236.431 135.308 236.758C135.196 237.084 135.14 237.425 135.14 237.78C135.14 238.144 135.2 238.489 135.322 238.816C135.452 239.142 135.63 239.432 135.854 239.684C136.087 239.936 136.353 240.132 136.652 240.272C136.96 240.412 137.291 240.482 137.646 240.482C137.87 240.482 138.098 240.44 138.332 240.356C138.574 240.272 138.803 240.155 139.018 240.006C139.232 239.856 139.414 239.684 139.564 239.488C139.713 239.282 139.811 239.068 139.858 238.844ZM143.146 241.406V234.098H144.378V241.406H143.146ZM143.146 232.726V231.186H144.378V232.726H143.146ZM150.307 241.546C149.71 241.546 149.178 241.396 148.711 241.098C148.244 240.799 147.876 240.421 147.605 239.964V244.388H146.373V234.098H147.465V235.47C147.754 235.022 148.132 234.662 148.599 234.392C149.066 234.112 149.574 233.972 150.125 233.972C150.629 233.972 151.091 234.074 151.511 234.28C151.931 234.485 152.295 234.765 152.603 235.12C152.911 235.474 153.149 235.88 153.317 236.338C153.494 236.786 153.583 237.257 153.583 237.752C153.583 238.442 153.443 239.077 153.163 239.656C152.892 240.234 152.51 240.696 152.015 241.042C151.52 241.378 150.951 241.546 150.307 241.546ZM149.929 240.482C150.293 240.482 150.62 240.407 150.909 240.258C151.208 240.099 151.46 239.894 151.665 239.642C151.88 239.38 152.043 239.086 152.155 238.76C152.267 238.433 152.323 238.097 152.323 237.752C152.323 237.388 152.258 237.042 152.127 236.716C152.006 236.389 151.828 236.1 151.595 235.848C151.371 235.596 151.105 235.4 150.797 235.26C150.498 235.11 150.172 235.036 149.817 235.036C149.593 235.036 149.36 235.078 149.117 235.162C148.884 235.246 148.66 235.367 148.445 235.526C148.23 235.675 148.048 235.848 147.899 236.044C147.75 236.24 147.652 236.45 147.605 236.674V238.76C147.745 239.077 147.932 239.366 148.165 239.628C148.398 239.889 148.669 240.099 148.977 240.258C149.285 240.407 149.602 240.482 149.929 240.482ZM155.096 241.406V234.098H156.328V241.406H155.096ZM155.096 232.726V231.186H156.328V232.726H155.096ZM160.828 241.546C160.221 241.546 159.652 241.448 159.12 241.252C158.588 241.046 158.131 240.743 157.748 240.342L158.224 239.474C158.644 239.866 159.064 240.146 159.484 240.314C159.904 240.482 160.333 240.566 160.772 240.566C161.276 240.566 161.687 240.472 162.004 240.286C162.321 240.09 162.48 239.805 162.48 239.432C162.48 239.161 162.396 238.96 162.228 238.83C162.069 238.699 161.841 238.592 161.542 238.508C161.243 238.414 160.889 238.312 160.478 238.2C159.974 238.05 159.549 237.892 159.204 237.724C158.859 237.556 158.597 237.346 158.42 237.094C158.243 236.842 158.154 236.524 158.154 236.142C158.154 235.675 158.275 235.283 158.518 234.966C158.761 234.639 159.092 234.392 159.512 234.224C159.941 234.056 160.427 233.972 160.968 233.972C161.509 233.972 161.999 234.056 162.438 234.224C162.877 234.392 163.255 234.639 163.572 234.966L163.012 235.82C162.723 235.521 162.405 235.302 162.06 235.162C161.715 235.012 161.327 234.938 160.898 234.938C160.646 234.938 160.399 234.97 160.156 235.036C159.913 235.092 159.713 235.199 159.554 235.358C159.395 235.507 159.316 235.722 159.316 236.002C159.316 236.235 159.377 236.422 159.498 236.562C159.629 236.692 159.815 236.804 160.058 236.898C160.31 236.991 160.613 237.094 160.968 237.206C161.519 237.364 161.995 237.523 162.396 237.682C162.807 237.84 163.124 238.046 163.348 238.298C163.572 238.55 163.684 238.9 163.684 239.348C163.684 240.038 163.423 240.58 162.9 240.972C162.377 241.354 161.687 241.546 160.828 241.546ZM168.392 241.546C167.841 241.546 167.337 241.448 166.88 241.252C166.432 241.046 166.04 240.766 165.704 240.412C165.377 240.057 165.121 239.651 164.934 239.194C164.757 238.736 164.668 238.251 164.668 237.738C164.668 237.047 164.822 236.417 165.13 235.848C165.438 235.278 165.872 234.826 166.432 234.49C166.992 234.144 167.641 233.972 168.378 233.972C169.097 233.972 169.722 234.135 170.254 234.462C170.795 234.779 171.197 235.208 171.458 235.75L170.254 236.128C170.067 235.782 169.806 235.516 169.47 235.33C169.134 235.134 168.761 235.036 168.35 235.036C167.902 235.036 167.491 235.152 167.118 235.386C166.754 235.619 166.465 235.941 166.25 236.352C166.035 236.753 165.928 237.215 165.928 237.738C165.928 238.251 166.035 238.718 166.25 239.138C166.474 239.548 166.768 239.875 167.132 240.118C167.505 240.36 167.916 240.482 168.364 240.482C168.653 240.482 168.929 240.43 169.19 240.328C169.461 240.225 169.694 240.09 169.89 239.922C170.095 239.744 170.235 239.553 170.31 239.348L171.514 239.712C171.365 240.066 171.136 240.384 170.828 240.664C170.529 240.934 170.17 241.149 169.75 241.308C169.339 241.466 168.887 241.546 168.392 241.546ZM172.91 241.406V234.098H174.142V241.406H172.91ZM172.91 232.726V231.186H174.142V232.726H172.91ZM182.479 241.406H181.247V237.318C181.247 236.543 181.125 235.978 180.883 235.624C180.649 235.26 180.29 235.078 179.805 235.078C179.469 235.078 179.133 235.162 178.797 235.33C178.47 235.498 178.176 235.726 177.915 236.016C177.663 236.296 177.481 236.622 177.369 236.996V241.406H176.137V234.098H177.257V235.666C177.453 235.32 177.705 235.022 178.013 234.77C178.321 234.518 178.671 234.322 179.063 234.182C179.455 234.042 179.865 233.972 180.295 233.972C180.715 233.972 181.065 234.051 181.345 234.21C181.634 234.359 181.858 234.574 182.017 234.854C182.185 235.124 182.301 235.446 182.367 235.82C182.441 236.193 182.479 236.599 182.479 237.038V241.406ZM187.306 241.49C186.812 241.49 186.354 241.392 185.934 241.196C185.524 240.99 185.169 240.715 184.87 240.37C184.572 240.015 184.338 239.614 184.17 239.166C184.012 238.718 183.932 238.251 183.932 237.766C183.932 237.252 184.012 236.767 184.17 236.31C184.338 235.852 184.572 235.451 184.87 235.106C185.178 234.751 185.538 234.476 185.948 234.28C186.359 234.074 186.816 233.972 187.32 233.972C187.927 233.972 188.454 234.121 188.902 234.42C189.36 234.718 189.742 235.096 190.05 235.554V234.098H191.142V241.322C191.142 242.012 190.974 242.596 190.638 243.072C190.312 243.548 189.864 243.907 189.294 244.15C188.734 244.402 188.109 244.528 187.418 244.528C186.597 244.528 185.925 244.383 185.402 244.094C184.88 243.804 184.446 243.412 184.1 242.918L184.814 242.288C185.104 242.717 185.477 243.039 185.934 243.254C186.401 243.468 186.896 243.576 187.418 243.576C187.866 243.576 188.277 243.492 188.65 243.324C189.033 243.165 189.336 242.918 189.56 242.582C189.794 242.246 189.91 241.826 189.91 241.322V240.034C189.64 240.482 189.266 240.836 188.79 241.098C188.324 241.359 187.829 241.49 187.306 241.49ZM187.684 240.482C187.946 240.482 188.198 240.435 188.44 240.342C188.683 240.248 188.907 240.127 189.112 239.978C189.318 239.819 189.49 239.642 189.63 239.446C189.77 239.25 189.864 239.049 189.91 238.844V236.744C189.78 236.408 189.593 236.114 189.35 235.862C189.108 235.6 188.832 235.4 188.524 235.26C188.216 235.11 187.899 235.036 187.572 235.036C187.199 235.036 186.863 235.115 186.564 235.274C186.275 235.432 186.028 235.647 185.822 235.918C185.617 236.179 185.458 236.473 185.346 236.8C185.234 237.126 185.178 237.458 185.178 237.794C185.178 238.158 185.244 238.503 185.374 238.83C185.505 239.147 185.682 239.432 185.906 239.684C186.13 239.936 186.396 240.132 186.704 240.272C187.012 240.412 187.339 240.482 187.684 240.482ZM199.906 241.546C199.355 241.546 198.851 241.448 198.394 241.252C197.946 241.046 197.554 240.771 197.218 240.426C196.891 240.071 196.634 239.665 196.448 239.208C196.27 238.75 196.182 238.265 196.182 237.752C196.182 237.061 196.34 236.431 196.658 235.862C196.975 235.292 197.414 234.835 197.974 234.49C198.543 234.144 199.192 233.972 199.92 233.972C200.657 233.972 201.296 234.149 201.838 234.504C202.388 234.849 202.813 235.306 203.112 235.876C203.42 236.436 203.574 237.042 203.574 237.696C203.574 237.789 203.569 237.882 203.56 237.976C203.56 238.06 203.555 238.125 203.546 238.172H197.484C197.521 238.648 197.652 239.072 197.876 239.446C198.109 239.81 198.408 240.099 198.772 240.314C199.136 240.519 199.528 240.622 199.948 240.622C200.396 240.622 200.816 240.51 201.208 240.286C201.609 240.062 201.884 239.768 202.034 239.404L203.098 239.698C202.939 240.052 202.701 240.37 202.384 240.65C202.076 240.93 201.707 241.149 201.278 241.308C200.858 241.466 200.4 241.546 199.906 241.546ZM197.442 237.318H202.426C202.388 236.842 202.253 236.422 202.02 236.058C201.786 235.694 201.488 235.409 201.124 235.204C200.76 234.998 200.358 234.896 199.92 234.896C199.49 234.896 199.094 234.998 198.73 235.204C198.366 235.409 198.067 235.694 197.834 236.058C197.61 236.422 197.479 236.842 197.442 237.318ZM204.971 231.186H206.203V239.516C206.203 239.917 206.259 240.164 206.371 240.258C206.483 240.351 206.619 240.398 206.777 240.398C206.973 240.398 207.16 240.379 207.337 240.342C207.515 240.295 207.664 240.248 207.785 240.202L207.981 241.21C207.776 241.294 207.533 241.364 207.253 241.42C206.973 241.476 206.726 241.504 206.511 241.504C206.035 241.504 205.657 241.368 205.377 241.098C205.107 240.827 204.971 240.449 204.971 239.964V231.186ZM208.949 241.406V234.098H210.181V241.406H208.949ZM208.949 232.726V231.186H210.181V232.726H208.949ZM215.956 241.042C215.853 241.088 215.713 241.149 215.536 241.224C215.358 241.298 215.153 241.364 214.92 241.42C214.686 241.476 214.439 241.504 214.178 241.504C213.879 241.504 213.604 241.452 213.352 241.35C213.1 241.238 212.899 241.07 212.75 240.846C212.6 240.612 212.526 240.323 212.526 239.978V235.064H211.532V234.098H212.526V231.662H213.758V234.098H215.396V235.064H213.758V239.6C213.776 239.861 213.865 240.057 214.024 240.188C214.182 240.309 214.369 240.37 214.584 240.37C214.826 240.37 215.05 240.328 215.256 240.244C215.461 240.16 215.596 240.099 215.662 240.062L215.956 241.042ZM217.14 242.54L217.42 241.294H217V239.838H218.162V241.294L217.742 242.54H217.14ZM226.098 241.546C225.491 241.546 224.922 241.448 224.39 241.252C223.858 241.046 223.4 240.743 223.018 240.342L223.494 239.474C223.914 239.866 224.334 240.146 224.754 240.314C225.174 240.482 225.603 240.566 226.042 240.566C226.546 240.566 226.956 240.472 227.274 240.286C227.591 240.09 227.75 239.805 227.75 239.432C227.75 239.161 227.666 238.96 227.498 238.83C227.339 238.699 227.11 238.592 226.812 238.508C226.513 238.414 226.158 238.312 225.748 238.2C225.244 238.05 224.819 237.892 224.474 237.724C224.128 237.556 223.867 237.346 223.69 237.094C223.512 236.842 223.424 236.524 223.424 236.142C223.424 235.675 223.545 235.283 223.788 234.966C224.03 234.639 224.362 234.392 224.782 234.224C225.211 234.056 225.696 233.972 226.238 233.972C226.779 233.972 227.269 234.056 227.708 234.224C228.146 234.392 228.524 234.639 228.842 234.966L228.282 235.82C227.992 235.521 227.675 235.302 227.33 235.162C226.984 235.012 226.597 234.938 226.168 234.938C225.916 234.938 225.668 234.97 225.426 235.036C225.183 235.092 224.982 235.199 224.824 235.358C224.665 235.507 224.586 235.722 224.586 236.002C224.586 236.235 224.646 236.422 224.768 236.562C224.898 236.692 225.085 236.804 225.328 236.898C225.58 236.991 225.883 237.094 226.238 237.206C226.788 237.364 227.264 237.523 227.666 237.682C228.076 237.84 228.394 238.046 228.618 238.298C228.842 238.55 228.954 238.9 228.954 239.348C228.954 240.038 228.692 240.58 228.17 240.972C227.647 241.354 226.956 241.546 226.098 241.546ZM233.662 241.546C233.111 241.546 232.607 241.448 232.15 241.252C231.702 241.046 231.31 240.771 230.974 240.426C230.647 240.071 230.39 239.665 230.204 239.208C230.026 238.75 229.938 238.265 229.938 237.752C229.938 237.061 230.096 236.431 230.414 235.862C230.731 235.292 231.17 234.835 231.73 234.49C232.299 234.144 232.948 233.972 233.676 233.972C234.413 233.972 235.052 234.149 235.594 234.504C236.144 234.849 236.569 235.306 236.868 235.876C237.176 236.436 237.33 237.042 237.33 237.696C237.33 237.789 237.325 237.882 237.316 237.976C237.316 238.06 237.311 238.125 237.302 238.172H231.24C231.277 238.648 231.408 239.072 231.632 239.446C231.865 239.81 232.164 240.099 232.528 240.314C232.892 240.519 233.284 240.622 233.704 240.622C234.152 240.622 234.572 240.51 234.964 240.286C235.365 240.062 235.64 239.768 235.79 239.404L236.854 239.698C236.695 240.052 236.457 240.37 236.14 240.65C235.832 240.93 235.463 241.149 235.034 241.308C234.614 241.466 234.156 241.546 233.662 241.546ZM231.198 237.318H236.182C236.144 236.842 236.009 236.422 235.776 236.058C235.542 235.694 235.244 235.409 234.88 235.204C234.516 234.998 234.114 234.896 233.676 234.896C233.246 234.896 232.85 234.998 232.486 235.204C232.122 235.409 231.823 235.694 231.59 236.058C231.366 236.422 231.235 236.842 231.198 237.318ZM238.223 237.766C238.223 237.075 238.363 236.445 238.643 235.876C238.932 235.297 239.324 234.835 239.819 234.49C240.323 234.144 240.897 233.972 241.541 233.972C242.129 233.972 242.656 234.126 243.123 234.434C243.59 234.742 243.954 235.115 244.215 235.554V231.186H245.447V240.006C245.447 240.155 245.475 240.267 245.531 240.342C245.596 240.407 245.699 240.444 245.839 240.454V241.406C245.606 241.443 245.424 241.462 245.293 241.462C245.05 241.462 244.836 241.378 244.649 241.21C244.472 241.042 244.383 240.855 244.383 240.65V240.034C244.094 240.5 243.706 240.869 243.221 241.14C242.736 241.41 242.232 241.546 241.709 241.546C241.205 241.546 240.738 241.448 240.309 241.252C239.889 241.046 239.52 240.766 239.203 240.412C238.895 240.057 238.652 239.656 238.475 239.208C238.307 238.75 238.223 238.27 238.223 237.766ZM244.215 238.844V236.744C244.103 236.426 243.921 236.142 243.669 235.89C243.417 235.628 243.132 235.423 242.815 235.274C242.507 235.115 242.199 235.036 241.891 235.036C241.527 235.036 241.196 235.115 240.897 235.274C240.608 235.423 240.356 235.628 240.141 235.89C239.936 236.142 239.777 236.431 239.665 236.758C239.553 237.084 239.497 237.425 239.497 237.78C239.497 238.144 239.558 238.489 239.679 238.816C239.81 239.142 239.987 239.432 240.211 239.684C240.444 239.936 240.71 240.132 241.009 240.272C241.317 240.412 241.648 240.482 242.003 240.482C242.227 240.482 242.456 240.44 242.689 240.356C242.932 240.272 243.16 240.155 243.375 240.006C243.59 239.856 243.772 239.684 243.921 239.488C244.07 239.282 244.168 239.068 244.215 238.844ZM44.2739 258.766C44.2739 258.075 44.4139 257.445 44.6939 256.876C44.9832 256.297 45.3752 255.835 45.8699 255.49C46.3739 255.144 46.9479 254.972 47.5919 254.972C48.1799 254.972 48.7072 255.126 49.1739 255.434C49.6405 255.742 50.0045 256.115 50.2659 256.554V252.186H51.4979V261.006C51.4979 261.155 51.5259 261.267 51.5819 261.342C51.6472 261.407 51.7499 261.444 51.8899 261.454V262.406C51.6565 262.443 51.4745 262.462 51.3439 262.462C51.1012 262.462 50.8865 262.378 50.6999 262.21C50.5225 262.042 50.4339 261.855 50.4339 261.65V261.034C50.1445 261.5 49.7572 261.869 49.2719 262.14C48.7865 262.41 48.2825 262.546 47.7599 262.546C47.2559 262.546 46.7892 262.448 46.3599 262.252C45.9399 262.046 45.5712 261.766 45.2539 261.412C44.9459 261.057 44.7032 260.656 44.5259 260.208C44.3579 259.75 44.2739 259.27 44.2739 258.766ZM50.2659 259.844V257.744C50.1539 257.426 49.9719 257.142 49.7199 256.89C49.4679 256.628 49.1832 256.423 48.8659 256.274C48.5579 256.115 48.2499 256.036 47.9419 256.036C47.5779 256.036 47.2465 256.115 46.9479 256.274C46.6585 256.423 46.4065 256.628 46.1919 256.89C45.9865 257.142 45.8279 257.431 45.7159 257.758C45.6039 258.084 45.5479 258.425 45.5479 258.78C45.5479 259.144 45.6085 259.489 45.7299 259.816C45.8605 260.142 46.0379 260.432 46.2619 260.684C46.4952 260.936 46.7612 261.132 47.0599 261.272C47.3679 261.412 47.6992 261.482 48.0539 261.482C48.2779 261.482 48.5065 261.44 48.7399 261.356C48.9825 261.272 49.2112 261.155 49.4259 261.006C49.6405 260.856 49.8225 260.684 49.9719 260.488C50.1212 260.282 50.2192 260.068 50.2659 259.844ZM56.7465 262.546C56.1959 262.546 55.6965 262.448 55.2485 262.252C54.8005 262.046 54.4132 261.771 54.0865 261.426C53.7599 261.071 53.5079 260.665 53.3305 260.208C53.1532 259.75 53.0645 259.27 53.0645 258.766C53.0645 258.252 53.1532 257.767 53.3305 257.31C53.5079 256.852 53.7599 256.451 54.0865 256.106C54.4132 255.751 54.8005 255.476 55.2485 255.28C55.7059 255.074 56.2052 254.972 56.7465 254.972C57.2972 254.972 57.7965 255.074 58.2445 255.28C58.6925 255.476 59.0799 255.751 59.4065 256.106C59.7425 256.451 59.9992 256.852 60.1765 257.31C60.3539 257.767 60.4425 258.252 60.4425 258.766C60.4425 259.27 60.3539 259.75 60.1765 260.208C59.9992 260.665 59.7472 261.071 59.4205 261.426C59.0939 261.771 58.7019 262.046 58.2445 262.252C57.7965 262.448 57.2972 262.546 56.7465 262.546ZM54.3245 258.78C54.3245 259.284 54.4319 259.741 54.6465 260.152C54.8705 260.562 55.1645 260.889 55.5285 261.132C55.8925 261.365 56.2985 261.482 56.7465 261.482C57.1945 261.482 57.6005 261.36 57.9645 261.118C58.3379 260.875 58.6319 260.548 58.8465 260.138C59.0705 259.718 59.1825 259.256 59.1825 258.752C59.1825 258.248 59.0705 257.79 58.8465 257.38C58.6319 256.969 58.3379 256.642 57.9645 256.4C57.6005 256.157 57.1945 256.036 56.7465 256.036C56.2985 256.036 55.8925 256.162 55.5285 256.414C55.1645 256.656 54.8705 256.983 54.6465 257.394C54.4319 257.804 54.3245 258.266 54.3245 258.78ZM68.7104 262.546C68.1598 262.546 67.6558 262.448 67.1984 262.252C66.7504 262.046 66.3584 261.771 66.0224 261.426C65.6958 261.071 65.4391 260.665 65.2524 260.208C65.0751 259.75 64.9864 259.265 64.9864 258.752C64.9864 258.061 65.1451 257.431 65.4624 256.862C65.7798 256.292 66.2184 255.835 66.7784 255.49C67.3478 255.144 67.9964 254.972 68.7244 254.972C69.4618 254.972 70.1011 255.149 70.6424 255.504C71.1931 255.849 71.6178 256.306 71.9164 256.876C72.2244 257.436 72.3784 258.042 72.3784 258.696C72.3784 258.789 72.3738 258.882 72.3644 258.976C72.3644 259.06 72.3598 259.125 72.3504 259.172H66.2884C66.3258 259.648 66.4564 260.072 66.6804 260.446C66.9138 260.81 67.2124 261.099 67.5764 261.314C67.9404 261.519 68.3324 261.622 68.7524 261.622C69.2004 261.622 69.6204 261.51 70.0124 261.286C70.4138 261.062 70.6891 260.768 70.8384 260.404L71.9024 260.698C71.7438 261.052 71.5058 261.37 71.1884 261.65C70.8804 261.93 70.5118 262.149 70.0824 262.308C69.6624 262.466 69.2051 262.546 68.7104 262.546ZM66.2464 258.318H71.2304C71.1931 257.842 71.0578 257.422 70.8244 257.058C70.5911 256.694 70.2924 256.409 69.9284 256.204C69.5644 255.998 69.1631 255.896 68.7244 255.896C68.2951 255.896 67.8984 255.998 67.5344 256.204C67.1704 256.409 66.8718 256.694 66.6384 257.058C66.4144 257.422 66.2838 257.842 66.2464 258.318ZM73.7479 262.406V255.098H74.9799V262.406H73.7479ZM73.7479 253.726V252.186H74.9799V253.726H73.7479ZM76.9045 259.48V255.098H78.1365V259.242C78.1365 259.988 78.2671 260.548 78.5285 260.922C78.7898 261.295 79.1771 261.482 79.6905 261.482C80.0265 261.482 80.3485 261.412 80.6565 261.272C80.9738 261.122 81.2585 260.912 81.5105 260.642C81.7625 260.371 81.9585 260.049 82.0985 259.676V255.098H83.3305V261.006C83.3305 261.155 83.3585 261.267 83.4145 261.342C83.4798 261.407 83.5825 261.444 83.7225 261.454V262.406C83.5825 262.424 83.4705 262.434 83.3865 262.434C83.3118 262.443 83.2371 262.448 83.1625 262.448C82.9291 262.448 82.7285 262.378 82.5605 262.238C82.3925 262.088 82.3038 261.906 82.2945 261.692L82.2665 260.838C81.9491 261.379 81.5198 261.799 80.9785 262.098C80.4465 262.396 79.8631 262.546 79.2285 262.546C78.4631 262.546 77.8845 262.289 77.4925 261.776C77.1005 261.253 76.9045 260.488 76.9045 259.48ZM87.8887 262.546C87.282 262.546 86.7127 262.448 86.1807 262.252C85.6487 262.046 85.1913 261.743 84.8087 261.342L85.2847 260.474C85.7047 260.866 86.1247 261.146 86.5447 261.314C86.9647 261.482 87.394 261.566 87.8327 261.566C88.3367 261.566 88.7473 261.472 89.0647 261.286C89.382 261.09 89.5407 260.805 89.5407 260.432C89.5407 260.161 89.4567 259.96 89.2887 259.83C89.13 259.699 88.9013 259.592 88.6027 259.508C88.304 259.414 87.9493 259.312 87.5387 259.2C87.0347 259.05 86.61 258.892 86.2647 258.724C85.9193 258.556 85.658 258.346 85.4807 258.094C85.3033 257.842 85.2147 257.524 85.2147 257.142C85.2147 256.675 85.336 256.283 85.5787 255.966C85.8213 255.639 86.1527 255.392 86.5727 255.224C87.002 255.056 87.4873 254.972 88.0287 254.972C88.57 254.972 89.06 255.056 89.4987 255.224C89.9373 255.392 90.3153 255.639 90.6327 255.966L90.0727 256.82C89.7833 256.521 89.466 256.302 89.1207 256.162C88.7753 256.012 88.388 255.938 87.9587 255.938C87.7067 255.938 87.4593 255.97 87.2167 256.036C86.974 256.092 86.7733 256.199 86.6147 256.358C86.456 256.507 86.3767 256.722 86.3767 257.002C86.3767 257.235 86.4373 257.422 86.5587 257.562C86.6893 257.692 86.876 257.804 87.1187 257.898C87.3707 257.991 87.674 258.094 88.0287 258.206C88.5793 258.364 89.0553 258.523 89.4567 258.682C89.8673 258.84 90.1847 259.046 90.4087 259.298C90.6327 259.55 90.7447 259.9 90.7447 260.348C90.7447 261.038 90.4833 261.58 89.9607 261.972C89.438 262.354 88.7473 262.546 87.8887 262.546ZM103.237 262.406H102.005V258.318C102.005 257.552 101.879 256.988 101.627 256.624C101.384 256.26 101.02 256.078 100.535 256.078C100.04 256.078 99.5919 256.26 99.1906 256.624C98.7893 256.978 98.5046 257.44 98.3366 258.01V262.406H97.1046V258.318C97.1046 257.543 96.9833 256.978 96.7406 256.624C96.4979 256.26 96.1339 256.078 95.6486 256.078C95.1633 256.078 94.7153 256.255 94.3046 256.61C93.9033 256.955 93.6186 257.417 93.4506 257.996V262.406H92.2186V255.098H93.3386V256.666C93.6373 256.124 94.0246 255.709 94.5006 255.42C94.9766 255.121 95.5133 254.972 96.1106 254.972C96.7173 254.972 97.2026 255.14 97.5666 255.476C97.9306 255.802 98.1546 256.227 98.2386 256.75C98.5653 256.171 98.9619 255.732 99.4286 255.434C99.8953 255.126 100.427 254.972 101.025 254.972C101.445 254.972 101.795 255.051 102.075 255.21C102.364 255.359 102.593 255.574 102.761 255.854C102.929 256.124 103.05 256.446 103.125 256.82C103.199 257.193 103.237 257.599 103.237 258.038V262.406ZM108.344 262.546C107.794 262.546 107.294 262.448 106.846 262.252C106.398 262.046 106.011 261.771 105.684 261.426C105.358 261.071 105.106 260.665 104.928 260.208C104.751 259.75 104.662 259.27 104.662 258.766C104.662 258.252 104.751 257.767 104.928 257.31C105.106 256.852 105.358 256.451 105.684 256.106C106.011 255.751 106.398 255.476 106.846 255.28C107.304 255.074 107.803 254.972 108.344 254.972C108.895 254.972 109.394 255.074 109.842 255.28C110.29 255.476 110.678 255.751 111.004 256.106C111.34 256.451 111.597 256.852 111.774 257.31C111.952 257.767 112.04 258.252 112.04 258.766C112.04 259.27 111.952 259.75 111.774 260.208C111.597 260.665 111.345 261.071 111.018 261.426C110.692 261.771 110.3 262.046 109.842 262.252C109.394 262.448 108.895 262.546 108.344 262.546ZM105.922 258.78C105.922 259.284 106.03 259.741 106.244 260.152C106.468 260.562 106.762 260.889 107.126 261.132C107.49 261.365 107.896 261.482 108.344 261.482C108.792 261.482 109.198 261.36 109.562 261.118C109.936 260.875 110.23 260.548 110.444 260.138C110.668 259.718 110.78 259.256 110.78 258.752C110.78 258.248 110.668 257.79 110.444 257.38C110.23 256.969 109.936 256.642 109.562 256.4C109.198 256.157 108.792 256.036 108.344 256.036C107.896 256.036 107.49 256.162 107.126 256.414C106.762 256.656 106.468 256.983 106.244 257.394C106.03 257.804 105.922 258.266 105.922 258.78ZM113.057 258.766C113.057 258.075 113.197 257.445 113.477 256.876C113.766 256.297 114.158 255.835 114.653 255.49C115.157 255.144 115.731 254.972 116.375 254.972C116.963 254.972 117.49 255.126 117.957 255.434C118.424 255.742 118.788 256.115 119.049 256.554V252.186H120.281V261.006C120.281 261.155 120.309 261.267 120.365 261.342C120.43 261.407 120.533 261.444 120.673 261.454V262.406C120.44 262.443 120.258 262.462 120.127 262.462C119.884 262.462 119.67 262.378 119.483 262.21C119.306 262.042 119.217 261.855 119.217 261.65V261.034C118.928 261.5 118.54 261.869 118.055 262.14C117.57 262.41 117.066 262.546 116.543 262.546C116.039 262.546 115.572 262.448 115.143 262.252C114.723 262.046 114.354 261.766 114.037 261.412C113.729 261.057 113.486 260.656 113.309 260.208C113.141 259.75 113.057 259.27 113.057 258.766ZM119.049 259.844V257.744C118.937 257.426 118.755 257.142 118.503 256.89C118.251 256.628 117.966 256.423 117.649 256.274C117.341 256.115 117.033 256.036 116.725 256.036C116.361 256.036 116.03 256.115 115.731 256.274C115.442 256.423 115.19 256.628 114.975 256.89C114.77 257.142 114.611 257.431 114.499 257.758C114.387 258.084 114.331 258.425 114.331 258.78C114.331 259.144 114.392 259.489 114.513 259.816C114.644 260.142 114.821 260.432 115.045 260.684C115.278 260.936 115.544 261.132 115.843 261.272C116.151 261.412 116.482 261.482 116.837 261.482C117.061 261.482 117.29 261.44 117.523 261.356C117.766 261.272 117.994 261.155 118.209 261.006C118.424 260.856 118.606 260.684 118.755 260.488C118.904 260.282 119.002 260.068 119.049 259.844ZM129.659 262.042C129.556 262.088 129.416 262.149 129.239 262.224C129.061 262.298 128.856 262.364 128.623 262.42C128.389 262.476 128.142 262.504 127.881 262.504C127.582 262.504 127.307 262.452 127.055 262.35C126.803 262.238 126.602 262.07 126.453 261.846C126.303 261.612 126.229 261.323 126.229 260.978V256.064H125.235V255.098H126.229V252.662H127.461V255.098H129.099V256.064H127.461V260.6C127.479 260.861 127.568 261.057 127.727 261.188C127.885 261.309 128.072 261.37 128.287 261.37C128.529 261.37 128.753 261.328 128.959 261.244C129.164 261.16 129.299 261.099 129.365 261.062L129.659 262.042ZM133.939 262.546C133.388 262.546 132.884 262.448 132.427 262.252C131.979 262.046 131.587 261.771 131.251 261.426C130.924 261.071 130.668 260.665 130.481 260.208C130.304 259.75 130.215 259.265 130.215 258.752C130.215 258.061 130.374 257.431 130.691 256.862C131.008 256.292 131.447 255.835 132.007 255.49C132.576 255.144 133.225 254.972 133.953 254.972C134.69 254.972 135.33 255.149 135.871 255.504C136.422 255.849 136.846 256.306 137.145 256.876C137.453 257.436 137.607 258.042 137.607 258.696C137.607 258.789 137.602 258.882 137.593 258.976C137.593 259.06 137.588 259.125 137.579 259.172H131.517C131.554 259.648 131.685 260.072 131.909 260.446C132.142 260.81 132.441 261.099 132.805 261.314C133.169 261.519 133.561 261.622 133.981 261.622C134.429 261.622 134.849 261.51 135.241 261.286C135.642 261.062 135.918 260.768 136.067 260.404L137.131 260.698C136.972 261.052 136.734 261.37 136.417 261.65C136.109 261.93 135.74 262.149 135.311 262.308C134.891 262.466 134.434 262.546 133.939 262.546ZM131.475 258.318H136.459C136.422 257.842 136.286 257.422 136.053 257.058C135.82 256.694 135.521 256.409 135.157 256.204C134.793 255.998 134.392 255.896 133.953 255.896C133.524 255.896 133.127 255.998 132.763 256.204C132.399 256.409 132.1 256.694 131.867 257.058C131.643 257.422 131.512 257.842 131.475 258.318ZM149.994 262.406H148.762V258.318C148.762 257.552 148.636 256.988 148.384 256.624C148.142 256.26 147.778 256.078 147.292 256.078C146.798 256.078 146.35 256.26 145.948 256.624C145.547 256.978 145.262 257.44 145.094 258.01V262.406H143.862V258.318C143.862 257.543 143.741 256.978 143.498 256.624C143.256 256.26 142.892 256.078 142.406 256.078C141.921 256.078 141.473 256.255 141.062 256.61C140.661 256.955 140.376 257.417 140.208 257.996V262.406H138.976V255.098H140.096V256.666C140.395 256.124 140.782 255.709 141.258 255.42C141.734 255.121 142.271 254.972 142.868 254.972C143.475 254.972 143.96 255.14 144.324 255.476C144.688 255.802 144.912 256.227 144.996 256.75C145.323 256.171 145.72 255.732 146.186 255.434C146.653 255.126 147.185 254.972 147.782 254.972C148.202 254.972 148.552 255.051 148.832 255.21C149.122 255.359 149.35 255.574 149.518 255.854C149.686 256.124 149.808 256.446 149.882 256.82C149.957 257.193 149.994 257.599 149.994 258.038V262.406ZM155.844 262.546C155.247 262.546 154.715 262.396 154.248 262.098C153.781 261.799 153.413 261.421 153.142 260.964V265.388H151.91V255.098H153.002V256.47C153.291 256.022 153.669 255.662 154.136 255.392C154.603 255.112 155.111 254.972 155.662 254.972C156.166 254.972 156.628 255.074 157.048 255.28C157.468 255.485 157.832 255.765 158.14 256.12C158.448 256.474 158.686 256.88 158.854 257.338C159.031 257.786 159.12 258.257 159.12 258.752C159.12 259.442 158.98 260.077 158.7 260.656C158.429 261.234 158.047 261.696 157.552 262.042C157.057 262.378 156.488 262.546 155.844 262.546ZM155.466 261.482C155.83 261.482 156.157 261.407 156.446 261.258C156.745 261.099 156.997 260.894 157.202 260.642C157.417 260.38 157.58 260.086 157.692 259.76C157.804 259.433 157.86 259.097 157.86 258.752C157.86 258.388 157.795 258.042 157.664 257.716C157.543 257.389 157.365 257.1 157.132 256.848C156.908 256.596 156.642 256.4 156.334 256.26C156.035 256.11 155.709 256.036 155.354 256.036C155.13 256.036 154.897 256.078 154.654 256.162C154.421 256.246 154.197 256.367 153.982 256.526C153.767 256.675 153.585 256.848 153.436 257.044C153.287 257.24 153.189 257.45 153.142 257.674V259.76C153.282 260.077 153.469 260.366 153.702 260.628C153.935 260.889 154.206 261.099 154.514 261.258C154.822 261.407 155.139 261.482 155.466 261.482ZM163.825 262.546C163.274 262.546 162.775 262.448 162.327 262.252C161.879 262.046 161.491 261.771 161.165 261.426C160.838 261.071 160.586 260.665 160.409 260.208C160.231 259.75 160.143 259.27 160.143 258.766C160.143 258.252 160.231 257.767 160.409 257.31C160.586 256.852 160.838 256.451 161.165 256.106C161.491 255.751 161.879 255.476 162.327 255.28C162.784 255.074 163.283 254.972 163.825 254.972C164.375 254.972 164.875 255.074 165.323 255.28C165.771 255.476 166.158 255.751 166.485 256.106C166.821 256.451 167.077 256.852 167.255 257.31C167.432 257.767 167.521 258.252 167.521 258.766C167.521 259.27 167.432 259.75 167.255 260.208C167.077 260.665 166.825 261.071 166.499 261.426C166.172 261.771 165.78 262.046 165.323 262.252C164.875 262.448 164.375 262.546 163.825 262.546ZM161.403 258.78C161.403 259.284 161.51 259.741 161.725 260.152C161.949 260.562 162.243 260.889 162.607 261.132C162.971 261.365 163.377 261.482 163.825 261.482C164.273 261.482 164.679 261.36 165.043 261.118C165.416 260.875 165.71 260.548 165.925 260.138C166.149 259.718 166.261 259.256 166.261 258.752C166.261 258.248 166.149 257.79 165.925 257.38C165.71 256.969 165.416 256.642 165.043 256.4C164.679 256.157 164.273 256.036 163.825 256.036C163.377 256.036 162.971 256.162 162.607 256.414C162.243 256.656 161.949 256.983 161.725 257.394C161.51 257.804 161.403 258.266 161.403 258.78ZM172.878 256.176C172.262 256.185 171.716 256.344 171.24 256.652C170.773 256.95 170.442 257.366 170.246 257.898V262.406H169.014V255.098H170.162V256.792C170.414 256.288 170.745 255.882 171.156 255.574C171.576 255.256 172.014 255.079 172.472 255.042C172.565 255.042 172.644 255.042 172.71 255.042C172.775 255.042 172.831 255.046 172.878 255.056V256.176ZM172.511 262.406V260.838H173.547V262.406H172.511ZM175.341 262.406V260.838H176.377V262.406H175.341ZM178.171 262.406V260.838H179.207V262.406H178.171Z" fill="#777777"/>
<path d="M47.5359 304.436L47.4099 301.664L54.0159 294.806H56.6439L51.1539 300.638L49.8579 302.06L47.5359 304.436ZM45.4479 307.406V294.806H47.7879V307.406H45.4479ZM54.2319 307.406L49.4079 301.664L50.9559 299.954L56.9679 307.406H54.2319ZM63.6409 297.686C64.4089 297.686 65.0929 297.836 65.6929 298.136C66.3049 298.436 66.7849 298.898 67.1329 299.522C67.4809 300.134 67.6549 300.926 67.6549 301.898V307.406H65.4049V302.186C65.4049 301.334 65.2009 300.698 64.7929 300.278C64.3969 299.858 63.8389 299.648 63.1189 299.648C62.5909 299.648 62.1229 299.756 61.7149 299.972C61.3069 300.188 60.9889 300.512 60.7609 300.944C60.5449 301.364 60.4369 301.898 60.4369 302.546V307.406H58.1869V297.794H60.3289V300.386L59.9509 299.594C60.2869 298.982 60.7729 298.514 61.4089 298.19C62.0569 297.854 62.8009 297.686 63.6409 297.686ZM74.8468 307.532C73.8628 307.532 72.9868 307.322 72.2188 306.902C71.4508 306.47 70.8448 305.882 70.4008 305.138C69.9568 304.394 69.7348 303.548 69.7348 302.6C69.7348 301.64 69.9568 300.794 70.4008 300.062C70.8448 299.318 71.4508 298.736 72.2188 298.316C72.9868 297.896 73.8628 297.686 74.8468 297.686C75.8428 297.686 76.7248 297.896 77.4928 298.316C78.2728 298.736 78.8788 299.312 79.3108 300.044C79.7548 300.776 79.9768 301.628 79.9768 302.6C79.9768 303.548 79.7548 304.394 79.3108 305.138C78.8788 305.882 78.2728 306.47 77.4928 306.902C76.7248 307.322 75.8428 307.532 74.8468 307.532ZM74.8468 305.606C75.3988 305.606 75.8908 305.486 76.3228 305.246C76.7548 305.006 77.0908 304.658 77.3308 304.202C77.5828 303.746 77.7088 303.212 77.7088 302.6C77.7088 301.976 77.5828 301.442 77.3308 300.998C77.0908 300.542 76.7548 300.194 76.3228 299.954C75.8908 299.714 75.4048 299.594 74.8648 299.594C74.3128 299.594 73.8208 299.714 73.3888 299.954C72.9688 300.194 72.6328 300.542 72.3808 300.998C72.1288 301.442 72.0028 301.976 72.0028 302.6C72.0028 303.212 72.1288 303.746 72.3808 304.202C72.6328 304.658 72.9688 305.006 73.3888 305.246C73.8208 305.486 74.3068 305.606 74.8468 305.606ZM83.9887 307.406L80.4607 297.794H82.5847L85.6087 306.272H84.6007L87.7687 297.794H89.6587L92.7367 306.272H91.7467L94.8607 297.794H96.8587L93.3127 307.406H91.1527L88.3447 299.9H89.0107L86.1487 307.406H83.9887ZM103.596 307.406V294.806H105.522L111.03 304.004H110.022L115.44 294.806H117.366L117.384 307.406H115.17L115.152 298.28H115.62L111.012 305.966H109.968L105.288 298.28H105.828V307.406H103.596ZM124.892 307.532C123.908 307.532 123.032 307.322 122.264 306.902C121.496 306.47 120.89 305.882 120.446 305.138C120.002 304.394 119.78 303.548 119.78 302.6C119.78 301.64 120.002 300.794 120.446 300.062C120.89 299.318 121.496 298.736 122.264 298.316C123.032 297.896 123.908 297.686 124.892 297.686C125.888 297.686 126.77 297.896 127.538 298.316C128.318 298.736 128.924 299.312 129.356 300.044C129.8 300.776 130.022 301.628 130.022 302.6C130.022 303.548 129.8 304.394 129.356 305.138C128.924 305.882 128.318 306.47 127.538 306.902C126.77 307.322 125.888 307.532 124.892 307.532ZM124.892 305.606C125.444 305.606 125.936 305.486 126.368 305.246C126.8 305.006 127.136 304.658 127.376 304.202C127.628 303.746 127.754 303.212 127.754 302.6C127.754 301.976 127.628 301.442 127.376 300.998C127.136 300.542 126.8 300.194 126.368 299.954C125.936 299.714 125.45 299.594 124.91 299.594C124.358 299.594 123.866 299.714 123.434 299.954C123.014 300.194 122.678 300.542 122.426 300.998C122.174 301.442 122.048 301.976 122.048 302.6C122.048 303.212 122.174 303.746 122.426 304.202C122.678 304.658 123.014 305.006 123.434 305.246C123.866 305.486 124.352 305.606 124.892 305.606ZM132.173 307.406V297.794H134.315V300.44L134.063 299.666C134.351 299.018 134.801 298.526 135.413 298.19C136.037 297.854 136.811 297.686 137.735 297.686V299.828C137.639 299.804 137.549 299.792 137.465 299.792C137.381 299.78 137.297 299.774 137.213 299.774C136.361 299.774 135.683 300.026 135.179 300.53C134.675 301.022 134.423 301.76 134.423 302.744V307.406H132.173ZM144.074 307.532C143.006 307.532 142.07 307.322 141.266 306.902C140.474 306.47 139.856 305.882 139.412 305.138C138.98 304.394 138.764 303.548 138.764 302.6C138.764 301.64 138.974 300.794 139.394 300.062C139.826 299.318 140.414 298.736 141.158 298.316C141.914 297.896 142.772 297.686 143.732 297.686C144.668 297.686 145.502 297.89 146.234 298.298C146.966 298.706 147.542 299.282 147.962 300.026C148.382 300.77 148.592 301.646 148.592 302.654C148.592 302.75 148.586 302.858 148.574 302.978C148.574 303.098 148.568 303.212 148.556 303.32H140.546V301.826H147.368L146.486 302.294C146.498 301.742 146.384 301.256 146.144 300.836C145.904 300.416 145.574 300.086 145.154 299.846C144.746 299.606 144.272 299.486 143.732 299.486C143.18 299.486 142.694 299.606 142.274 299.846C141.866 300.086 141.542 300.422 141.302 300.854C141.074 301.274 140.96 301.772 140.96 302.348V302.708C140.96 303.284 141.092 303.794 141.356 304.238C141.62 304.682 141.992 305.024 142.472 305.264C142.952 305.504 143.504 305.624 144.128 305.624C144.668 305.624 145.154 305.54 145.586 305.372C146.018 305.204 146.402 304.94 146.738 304.58L147.944 305.966C147.512 306.47 146.966 306.86 146.306 307.136C145.658 307.4 144.914 307.532 144.074 307.532Z" fill="#4A60A1"/>
<path d="M165.146 294.955C164.876 295.222 164.85 295.643 165.072 295.938L165.138 296.016L169.714 300.656L158.006 300.656C157.592 300.656 157.256 300.991 157.256 301.406C157.256 301.788 157.542 302.104 157.912 302.15L158.006 302.156H169.714L165.138 306.796C164.872 307.066 164.852 307.488 165.078 307.78L165.146 307.856C165.416 308.123 165.838 308.142 166.13 307.917L166.207 307.849L172.04 301.932C172.304 301.665 172.326 301.248 172.106 300.956L172.04 300.879L166.207 294.962C165.916 294.667 165.441 294.664 165.146 294.955Z" fill="#00B377"/>
<path d="M76.0068 102.794C69.5107 102.699 60.487 102.837 58.6291 107.772L54.0646 118.363C53.8621 118.134 53.5966 117.968 53.3004 117.886L51.4627 117.375C51.2606 117.318 51.0492 117.301 50.8406 117.326C50.632 117.35 50.4303 117.415 50.2471 117.517C50.0639 117.618 49.9028 117.755 49.7731 117.918C49.6433 118.081 49.5475 118.268 49.491 118.468L48.5323 121.835C48.4751 122.034 48.4583 122.243 48.483 122.45C48.5076 122.656 48.5732 122.855 48.676 123.036C48.7787 123.217 48.9166 123.377 49.0818 123.505C49.2469 123.633 49.436 123.728 49.6383 123.784L51.4766 124.295C51.538 124.312 51.5993 124.318 51.6607 124.327C51.3093 125.193 51.0907 126.145 51.0907 126.712V139.021C51.0907 139.652 51.3584 139.944 51.7834 140.081V143.36C51.7827 143.651 51.8402 143.94 51.9526 144.209C52.0649 144.478 52.2299 144.722 52.4381 144.928C52.6463 145.134 52.8935 145.297 53.1657 145.408C53.4378 145.519 53.7294 145.576 54.0238 145.576H60.0347C60.3291 145.576 60.6207 145.519 60.8928 145.408C61.165 145.297 61.4122 145.134 61.6204 144.928C61.8286 144.722 61.9936 144.478 62.1059 144.209C62.2183 143.94 62.2758 143.651 62.2751 143.36V140.201H90.4429V143.36C90.4424 143.651 90.5 143.94 90.6125 144.209C90.7249 144.478 90.89 144.722 91.0982 144.928C91.3064 145.134 91.5537 145.297 91.8258 145.408C92.0979 145.519 92.3895 145.576 92.6839 145.576H98.6937C98.9881 145.576 99.2798 145.519 99.552 145.408C99.8242 145.297 100.072 145.134 100.28 144.928C100.488 144.722 100.653 144.478 100.766 144.209C100.878 143.94 100.936 143.651 100.935 143.36V140.082C101.361 139.945 101.627 139.653 101.627 139.022V126.712C101.627 126.146 101.408 125.194 101.057 124.328C101.118 124.319 101.18 124.313 101.241 124.296L103.08 123.784C103.282 123.728 103.471 123.634 103.636 123.505C103.801 123.377 103.939 123.218 104.042 123.037C104.144 122.856 104.21 122.656 104.235 122.45C104.259 122.244 104.242 122.035 104.185 121.835L103.228 118.469C103.171 118.269 103.075 118.082 102.945 117.918C102.816 117.755 102.654 117.619 102.471 117.517C102.288 117.415 102.086 117.351 101.878 117.326C101.669 117.302 101.457 117.319 101.255 117.375L99.4176 117.887C99.1215 117.969 98.8559 118.135 98.6529 118.364L94.0884 107.773C92.0972 102.763 82.5023 102.888 76.0062 102.794L76.0068 102.794ZM94.6115 119.032C94.7197 119.35 94.3962 119.561 94.0577 119.581C94.0577 119.581 92.9511 119.673 91.4251 119.795C90.2639 117.113 87.5655 115.222 84.4394 115.222C81.0087 115.222 78.0961 117.5 77.1619 120.602C76.9031 120.605 76.6025 120.616 76.3621 120.616C70.4517 120.616 58.6598 119.581 58.6598 119.581C58.3218 119.561 57.9978 119.349 58.106 119.032C62.6471 105.343 62.7827 106.372 76.1078 106.516C89.4323 106.66 89.5098 105.682 94.6115 119.032ZM84.4394 117.809C85.262 117.806 86.0725 118.006 86.7976 118.39C87.5227 118.775 88.1397 119.331 88.5929 120.01C85.9241 120.206 82.8526 120.406 79.9902 120.523C80.4021 119.705 81.037 119.018 81.8232 118.538C82.6095 118.059 83.5156 117.806 84.4394 117.809ZM53.7182 122.252C53.7583 122.311 53.7974 122.37 53.842 122.426H53.6691L53.7182 122.252ZM56.6709 125.69C57.8399 125.671 64.1157 127.759 64.1157 127.759C64.8993 127.978 65.5892 129.443 65.5853 130.248C65.5736 132.96 58.497 132.018 55.624 132.029C55.431 132.03 55.2397 131.992 55.0613 131.919C54.8829 131.846 54.7207 131.74 54.5842 131.605C54.4476 131.47 54.3394 131.309 54.2656 131.133C54.1919 130.956 54.1541 130.767 54.1543 130.577V127.143C54.1543 126.338 55.5019 125.71 56.6709 125.69ZM96.0466 125.69C97.2156 125.709 98.5631 126.338 98.5631 127.143V130.577C98.5635 130.767 98.5257 130.957 98.452 131.133C98.3783 131.31 98.2701 131.47 98.1335 131.605C97.997 131.74 97.8348 131.847 97.6563 131.92C97.4779 131.993 97.2866 132.03 97.0935 132.03C94.2211 132.019 87.1439 132.96 87.1322 130.248C87.1283 129.443 87.8182 127.978 88.6018 127.759C88.6018 127.759 94.8776 125.671 96.0466 125.69Z" fill="#0B1C98"/>
<defs>
<filter id="filter0_d_773_465" x="0.755859" y="0.405762" width="290" height="377.979" filterUnits="userSpaceOnUse" color-interpolation-filters="sRGB">
<feFlood flood-opacity="0" result="BackgroundImageFix"/>
<feColorMatrix in="SourceAlpha" type="matrix" values="0 0 0 0 0 0 0 0 0 0 0 0 0 0 0 0 0 0 127 0" result="hardAlpha"/>
<feOffset/>
<feGaussianBlur stdDeviation="10"/>
<feComposite in2="hardAlpha" operator="out"/>
<feColorMatrix type="matrix" values="0 0 0 0 0.768627 0 0 0 0 0.768627 0 0 0 0 0.768627 0 0 0 0.15 0"/>
<feBlend mode="normal" in2="BackgroundImageFix" result="effect1_dropShadow_773_465"/>
<feBlend mode="normal" in="SourceGraphic" in2="effect1_dropShadow_773_465" result="shape"/>
</filter>
</defs>
</svg>
