<svg width="291" height="379" viewBox="0 0 291 379" fill="none" xmlns="http://www.w3.org/2000/svg">
<g filter="url(#filter0_d_773_485)">
<rect x="20.7559" y="20.6108" width="250" height="337.979" rx="12" fill="white"/>
<rect x="21.2559" y="21.1108" width="249" height="336.979" rx="11.5" stroke="black"/>
</g>
<path d="M46.5759 192.771C46.1625 192.771 45.8425 192.658 45.6159 192.431C45.4025 192.191 45.2959 191.864 45.2959 191.451V179.671C45.2959 179.244 45.4025 178.918 45.6159 178.691C45.8425 178.464 46.1625 178.351 46.5759 178.351C46.9892 178.351 47.3025 178.464 47.5159 178.691C47.7425 178.918 47.8559 179.244 47.8559 179.671V191.451C47.8559 191.864 47.7492 192.191 47.5359 192.431C47.3225 192.658 47.0025 192.771 46.5759 192.771ZM51.9404 192.771C51.5404 192.771 51.2337 192.664 51.0204 192.451C50.8071 192.224 50.7004 191.904 50.7004 191.491V183.931C50.7004 183.518 50.8071 183.204 51.0204 182.991C51.2337 182.778 51.5337 182.671 51.9204 182.671C52.3071 182.671 52.6071 182.778 52.8204 182.991C53.0337 183.204 53.1404 183.518 53.1404 183.931V185.291L52.9204 184.791C53.2137 184.084 53.6671 183.551 54.2804 183.191C54.9071 182.818 55.6137 182.631 56.4004 182.631C57.1871 182.631 57.8337 182.778 58.3404 183.071C58.8471 183.364 59.2271 183.811 59.4804 184.411C59.7337 184.998 59.8604 185.744 59.8604 186.651V191.491C59.8604 191.904 59.7537 192.224 59.5404 192.451C59.3271 192.664 59.0204 192.771 58.6204 192.771C58.2204 192.771 57.9071 192.664 57.6804 192.451C57.4671 192.224 57.3604 191.904 57.3604 191.491V186.771C57.3604 186.011 57.2137 185.458 56.9204 185.111C56.6404 184.764 56.2004 184.591 55.6004 184.591C54.8671 184.591 54.2804 184.824 53.8404 185.291C53.4137 185.744 53.2004 186.351 53.2004 187.111V191.491C53.2004 192.344 52.7804 192.771 51.9404 192.771ZM66.1596 192.811C65.3063 192.811 64.5529 192.604 63.8996 192.191C63.2596 191.778 62.7596 191.191 62.3996 190.431C62.0396 189.658 61.8596 188.751 61.8596 187.711C61.8596 186.658 62.0396 185.758 62.3996 185.011C62.7596 184.251 63.2596 183.664 63.8996 183.251C64.5529 182.838 65.3063 182.631 66.1596 182.631C66.9729 182.631 67.6796 182.831 68.2796 183.231C68.8929 183.631 69.3063 184.158 69.5196 184.811H69.2996V179.611C69.2996 179.198 69.4063 178.884 69.6196 178.671C69.8329 178.458 70.1396 178.351 70.5396 178.351C70.9396 178.351 71.2463 178.458 71.4596 178.671C71.6863 178.884 71.7996 179.198 71.7996 179.611V191.491C71.7996 191.904 71.6929 192.224 71.4796 192.451C71.2663 192.664 70.9596 192.771 70.5596 192.771C70.1596 192.771 69.8529 192.664 69.6396 192.451C69.4263 192.224 69.3196 191.904 69.3196 191.491V189.931L69.5396 190.531C69.3396 191.224 68.9329 191.778 68.3196 192.191C67.7063 192.604 66.9863 192.811 66.1596 192.811ZM66.8596 190.911C67.3529 190.911 67.7863 190.791 68.1596 190.551C68.5329 190.311 68.8196 189.958 69.0196 189.491C69.2329 189.011 69.3396 188.418 69.3396 187.711C69.3396 186.644 69.1129 185.851 68.6596 185.331C68.2063 184.798 67.6063 184.531 66.8596 184.531C66.3663 184.531 65.9329 184.651 65.5596 184.891C65.1863 185.118 64.8929 185.471 64.6796 185.951C64.4796 186.418 64.3796 187.004 64.3796 187.711C64.3796 188.764 64.6063 189.564 65.0596 190.111C65.5129 190.644 66.1129 190.911 66.8596 190.911ZM77.9318 192.811C77.1185 192.811 76.4451 192.664 75.9118 192.371C75.3785 192.064 74.9785 191.611 74.7118 191.011C74.4585 190.411 74.3318 189.664 74.3318 188.771V183.931C74.3318 183.504 74.4385 183.191 74.6518 182.991C74.8651 182.778 75.1718 182.671 75.5718 182.671C75.9718 182.671 76.2785 182.778 76.4918 182.991C76.7185 183.191 76.8318 183.504 76.8318 183.931V188.811C76.8318 189.504 76.9718 190.018 77.2518 190.351C77.5318 190.684 77.9785 190.851 78.5918 190.851C79.2585 190.851 79.8051 190.624 80.2318 190.171C80.6585 189.704 80.8718 189.091 80.8718 188.331V183.931C80.8718 183.504 80.9785 183.191 81.1918 182.991C81.4051 182.778 81.7118 182.671 82.1118 182.671C82.5118 182.671 82.8185 182.778 83.0318 182.991C83.2585 183.191 83.3718 183.504 83.3718 183.931V191.491C83.3718 192.344 82.9651 192.771 82.1518 192.771C81.7651 192.771 81.4651 192.664 81.2518 192.451C81.0385 192.224 80.9318 191.904 80.9318 191.491V189.971L81.2118 190.571C80.9318 191.291 80.5051 191.844 79.9318 192.231C79.3718 192.618 78.7051 192.811 77.9318 192.811ZM89.5538 192.811C88.9805 192.811 88.3738 192.751 87.7338 192.631C87.0938 192.511 86.5205 192.304 86.0138 192.011C85.8005 191.878 85.6472 191.724 85.5538 191.551C85.4738 191.364 85.4405 191.184 85.4538 191.011C85.4805 190.824 85.5472 190.664 85.6538 190.531C85.7738 190.398 85.9205 190.311 86.0938 190.271C86.2805 190.231 86.4805 190.264 86.6938 190.371C87.2272 190.624 87.7272 190.804 88.1938 190.911C88.6605 191.004 89.1205 191.051 89.5738 191.051C90.2138 191.051 90.6872 190.944 90.9938 190.731C91.3138 190.504 91.4738 190.211 91.4738 189.851C91.4738 189.544 91.3672 189.311 91.1538 189.151C90.9538 188.978 90.6472 188.851 90.2338 188.771L88.2338 188.391C87.4072 188.231 86.7738 187.931 86.3338 187.491C85.9072 187.038 85.6938 186.458 85.6938 185.751C85.6938 185.111 85.8672 184.558 86.2138 184.091C86.5738 183.624 87.0672 183.264 87.6938 183.011C88.3205 182.758 89.0405 182.631 89.8538 182.631C90.4405 182.631 90.9872 182.698 91.4938 182.831C92.0138 182.951 92.5138 183.144 92.9938 183.411C93.1938 183.518 93.3272 183.658 93.3938 183.831C93.4738 184.004 93.4938 184.184 93.4538 184.371C93.4138 184.544 93.3338 184.704 93.2138 184.851C93.0938 184.984 92.9405 185.071 92.7538 185.111C92.5805 185.138 92.3805 185.098 92.1538 184.991C91.7405 184.778 91.3405 184.624 90.9538 184.531C90.5805 184.438 90.2205 184.391 89.8738 184.391C89.2205 184.391 88.7338 184.504 88.4138 184.731C88.1072 184.958 87.9538 185.258 87.9538 185.631C87.9538 185.911 88.0472 186.144 88.2338 186.331C88.4205 186.518 88.7072 186.644 89.0938 186.711L91.0938 187.091C91.9605 187.251 92.6138 187.544 93.0538 187.971C93.5072 188.398 93.7338 188.971 93.7338 189.691C93.7338 190.664 93.3538 191.431 92.5938 191.991C91.8338 192.538 90.8205 192.811 89.5538 192.811ZM100.122 192.811C99.2551 192.811 98.5285 192.664 97.9418 192.371C97.3685 192.078 96.9418 191.651 96.6618 191.091C96.3818 190.518 96.2418 189.811 96.2418 188.971V184.711H95.2018C94.8818 184.711 94.6351 184.631 94.4618 184.471C94.2885 184.298 94.2018 184.064 94.2018 183.771C94.2018 183.464 94.2885 183.231 94.4618 183.071C94.6351 182.911 94.8818 182.831 95.2018 182.831H96.2418V181.011C96.2418 180.598 96.3485 180.284 96.5618 180.071C96.7885 179.858 97.1018 179.751 97.5018 179.751C97.9018 179.751 98.2085 179.858 98.4218 180.071C98.6351 180.284 98.7418 180.598 98.7418 181.011V182.831H100.862C101.182 182.831 101.428 182.911 101.602 183.071C101.775 183.231 101.862 183.464 101.862 183.771C101.862 184.064 101.775 184.298 101.602 184.471C101.428 184.631 101.182 184.711 100.862 184.711H98.7418V188.831C98.7418 189.471 98.8818 189.951 99.1618 190.271C99.4418 190.591 99.8951 190.751 100.522 190.751C100.748 190.751 100.948 190.731 101.122 190.691C101.295 190.651 101.448 190.624 101.582 190.611C101.742 190.598 101.875 190.651 101.982 190.771C102.088 190.878 102.142 191.104 102.142 191.451C102.142 191.718 102.095 191.958 102.002 192.171C101.922 192.371 101.768 192.511 101.542 192.591C101.368 192.644 101.142 192.691 100.862 192.731C100.582 192.784 100.335 192.811 100.122 192.811ZM104.598 192.771C104.184 192.771 103.864 192.664 103.638 192.451C103.424 192.224 103.318 191.904 103.318 191.491V183.931C103.318 183.518 103.424 183.204 103.638 182.991C103.851 182.778 104.151 182.671 104.538 182.671C104.924 182.671 105.224 182.778 105.438 182.991C105.651 183.204 105.758 183.518 105.758 183.931V185.191H105.558C105.744 184.391 106.111 183.784 106.658 183.371C107.204 182.958 107.931 182.711 108.838 182.631C109.118 182.604 109.338 182.678 109.498 182.851C109.671 183.011 109.771 183.264 109.798 183.611C109.824 183.944 109.744 184.218 109.558 184.431C109.384 184.631 109.118 184.751 108.758 184.791L108.318 184.831C107.504 184.911 106.891 185.164 106.478 185.591C106.064 186.004 105.858 186.591 105.858 187.351V191.491C105.858 191.904 105.751 192.224 105.538 192.451C105.324 192.664 105.011 192.771 104.598 192.771ZM112.39 192.751C111.99 192.751 111.683 192.631 111.47 192.391C111.256 192.151 111.15 191.818 111.15 191.391V184.051C111.15 183.611 111.256 183.278 111.47 183.051C111.683 182.811 111.99 182.691 112.39 182.691C112.79 182.691 113.096 182.811 113.31 183.051C113.536 183.278 113.65 183.611 113.65 184.051V191.391C113.65 191.818 113.543 192.151 113.33 192.391C113.116 192.631 112.803 192.751 112.39 192.751ZM112.39 180.831C111.923 180.831 111.556 180.718 111.29 180.491C111.036 180.251 110.91 179.924 110.91 179.511C110.91 179.084 111.036 178.758 111.29 178.531C111.556 178.304 111.923 178.191 112.39 178.191C112.87 178.191 113.236 178.304 113.49 178.531C113.743 178.758 113.87 179.084 113.87 179.511C113.87 179.924 113.743 180.251 113.49 180.491C113.236 180.718 112.87 180.831 112.39 180.831ZM119.467 192.811C118.761 192.811 118.127 192.678 117.567 192.411C117.021 192.131 116.587 191.758 116.267 191.291C115.961 190.824 115.807 190.298 115.807 189.711C115.807 188.991 115.994 188.424 116.367 188.011C116.741 187.584 117.347 187.278 118.187 187.091C119.027 186.904 120.154 186.811 121.567 186.811H122.567V188.251H121.587C120.761 188.251 120.101 188.291 119.607 188.371C119.114 188.451 118.761 188.591 118.547 188.791C118.347 188.978 118.247 189.244 118.247 189.591C118.247 190.031 118.401 190.391 118.707 190.671C119.014 190.951 119.441 191.091 119.987 191.091C120.427 191.091 120.814 190.991 121.147 190.791C121.494 190.578 121.767 190.291 121.967 189.931C122.167 189.571 122.267 189.158 122.267 188.691V186.391C122.267 185.724 122.121 185.244 121.827 184.951C121.534 184.658 121.041 184.511 120.347 184.511C119.961 184.511 119.541 184.558 119.087 184.651C118.647 184.744 118.181 184.904 117.687 185.131C117.434 185.251 117.207 185.284 117.007 185.231C116.821 185.178 116.674 185.071 116.567 184.911C116.461 184.738 116.407 184.551 116.407 184.351C116.407 184.151 116.461 183.958 116.567 183.771C116.674 183.571 116.854 183.424 117.107 183.331C117.721 183.078 118.307 182.898 118.867 182.791C119.441 182.684 119.961 182.631 120.427 182.631C121.387 182.631 122.174 182.778 122.787 183.071C123.414 183.364 123.881 183.811 124.187 184.411C124.494 184.998 124.647 185.758 124.647 186.691V191.491C124.647 191.904 124.547 192.224 124.347 192.451C124.147 192.664 123.861 192.771 123.487 192.771C123.114 192.771 122.821 192.664 122.607 192.451C122.407 192.224 122.307 191.904 122.307 191.491V190.531H122.467C122.374 190.998 122.187 191.404 121.907 191.751C121.641 192.084 121.301 192.344 120.887 192.531C120.474 192.718 120.001 192.811 119.467 192.811ZM130.525 192.811C129.418 192.811 128.585 192.498 128.025 191.871C127.465 191.231 127.185 190.298 127.185 189.071V179.611C127.185 179.198 127.291 178.884 127.505 178.671C127.718 178.458 128.025 178.351 128.425 178.351C128.825 178.351 129.131 178.458 129.345 178.671C129.571 178.884 129.685 179.198 129.685 179.611V188.951C129.685 189.564 129.811 190.018 130.065 190.311C130.331 190.604 130.705 190.751 131.185 190.751C131.291 190.751 131.391 190.751 131.485 190.751C131.578 190.738 131.671 190.724 131.765 190.711C131.951 190.684 132.078 190.738 132.145 190.871C132.211 190.991 132.245 191.244 132.245 191.631C132.245 191.964 132.178 192.224 132.045 192.411C131.911 192.598 131.691 192.711 131.385 192.751C131.251 192.764 131.111 192.778 130.965 192.791C130.818 192.804 130.671 192.811 130.525 192.811Z" fill="#212D4D"/>
<path d="M44.9459 220.611V210.671H46.2059V219.491H51.7499V220.611H44.9459ZM56.0083 220.751C55.4576 220.751 54.9583 220.653 54.5103 220.457C54.0623 220.252 53.6749 219.976 53.3483 219.631C53.0216 219.276 52.7696 218.87 52.5923 218.413C52.4149 217.956 52.3263 217.475 52.3263 216.971C52.3263 216.458 52.4149 215.972 52.5923 215.515C52.7696 215.058 53.0216 214.656 53.3483 214.311C53.6749 213.956 54.0623 213.681 54.5103 213.485C54.9676 213.28 55.4669 213.177 56.0083 213.177C56.5589 213.177 57.0583 213.28 57.5063 213.485C57.9543 213.681 58.3416 213.956 58.6683 214.311C59.0043 214.656 59.2609 215.058 59.4383 215.515C59.6156 215.972 59.7043 216.458 59.7043 216.971C59.7043 217.475 59.6156 217.956 59.4383 218.413C59.2609 218.87 59.0089 219.276 58.6823 219.631C58.3556 219.976 57.9636 220.252 57.5063 220.457C57.0583 220.653 56.5589 220.751 56.0083 220.751ZM53.5863 216.985C53.5863 217.489 53.6936 217.946 53.9083 218.357C54.1323 218.768 54.4263 219.094 54.7903 219.337C55.1543 219.57 55.5603 219.687 56.0083 219.687C56.4563 219.687 56.8623 219.566 57.2263 219.323C57.5996 219.08 57.8936 218.754 58.1083 218.343C58.3323 217.923 58.4443 217.461 58.4443 216.957C58.4443 216.453 58.3323 215.996 58.1083 215.585C57.8936 215.174 57.5996 214.848 57.2263 214.605C56.8623 214.362 56.4563 214.241 56.0083 214.241C55.5603 214.241 55.1543 214.367 54.7903 214.619C54.4263 214.862 54.1323 215.188 53.9083 215.599C53.6936 216.01 53.5863 216.472 53.5863 216.985ZM65.0611 214.381C64.4451 214.39 63.8991 214.549 63.4231 214.857C62.9565 215.156 62.6251 215.571 62.4291 216.103V220.611H61.1971V213.303H62.3451V214.997C62.5971 214.493 62.9285 214.087 63.3391 213.779C63.7591 213.462 64.1978 213.284 64.6551 213.247C64.7485 213.247 64.8278 213.247 64.8931 213.247C64.9585 213.247 65.0145 213.252 65.0611 213.261V214.381ZM69.3393 220.751C68.7887 220.751 68.2847 220.653 67.8273 220.457C67.3793 220.252 66.9873 219.976 66.6513 219.631C66.3247 219.276 66.068 218.87 65.8813 218.413C65.704 217.956 65.6153 217.47 65.6153 216.957C65.6153 216.266 65.774 215.636 66.0913 215.067C66.4087 214.498 66.8473 214.04 67.4073 213.695C67.9767 213.35 68.6253 213.177 69.3533 213.177C70.0907 213.177 70.73 213.354 71.2713 213.709C71.822 214.054 72.2467 214.512 72.5453 215.081C72.8533 215.641 73.0073 216.248 73.0073 216.901C73.0073 216.994 73.0027 217.088 72.9933 217.181C72.9933 217.265 72.9887 217.33 72.9793 217.377H66.9173C66.9547 217.853 67.0853 218.278 67.3093 218.651C67.5427 219.015 67.8413 219.304 68.2053 219.519C68.5693 219.724 68.9613 219.827 69.3813 219.827C69.8293 219.827 70.2493 219.715 70.6413 219.491C71.0427 219.267 71.318 218.973 71.4673 218.609L72.5313 218.903C72.3727 219.258 72.1347 219.575 71.8173 219.855C71.5093 220.135 71.1407 220.354 70.7113 220.513C70.2913 220.672 69.834 220.751 69.3393 220.751ZM66.8753 216.523H71.8593C71.822 216.047 71.6867 215.627 71.4533 215.263C71.22 214.899 70.9213 214.614 70.5573 214.409C70.1933 214.204 69.792 214.101 69.3533 214.101C68.924 214.101 68.5273 214.204 68.1633 214.409C67.7993 214.614 67.5007 214.899 67.2673 215.263C67.0433 215.627 66.9127 216.047 66.8753 216.523ZM85.3948 220.611H84.1628V216.523C84.1628 215.758 84.0368 215.193 83.7848 214.829C83.5421 214.465 83.1781 214.283 82.6928 214.283C82.1981 214.283 81.7501 214.465 81.3488 214.829C80.9475 215.184 80.6628 215.646 80.4948 216.215V220.611H79.2628V216.523C79.2628 215.748 79.1415 215.184 78.8988 214.829C78.6561 214.465 78.2921 214.283 77.8068 214.283C77.3215 214.283 76.8735 214.46 76.4628 214.815C76.0615 215.16 75.7768 215.622 75.6088 216.201V220.611H74.3768V213.303H75.4968V214.871C75.7955 214.33 76.1828 213.914 76.6588 213.625C77.1348 213.326 77.6715 213.177 78.2688 213.177C78.8755 213.177 79.3608 213.345 79.7248 213.681C80.0888 214.008 80.3128 214.432 80.3968 214.955C80.7235 214.376 81.1201 213.938 81.5868 213.639C82.0535 213.331 82.5855 213.177 83.1828 213.177C83.6028 213.177 83.9528 213.256 84.2328 213.415C84.5221 213.564 84.7508 213.779 84.9188 214.059C85.0868 214.33 85.2081 214.652 85.2828 215.025C85.3575 215.398 85.3948 215.804 85.3948 216.243V220.611ZM90.8514 220.611V213.303H92.0834V220.611H90.8514ZM90.8514 211.931V210.391H92.0834V211.931H90.8514ZM98.012 220.751C97.4147 220.751 96.8827 220.602 96.416 220.303C95.9493 220.004 95.5807 219.626 95.31 219.169V223.593H94.078V213.303H95.17V214.675C95.4593 214.227 95.8373 213.868 96.304 213.597C96.7707 213.317 97.2793 213.177 97.83 213.177C98.334 213.177 98.796 213.28 99.216 213.485C99.636 213.69 100 213.97 100.308 214.325C100.616 214.68 100.854 215.086 101.022 215.543C101.199 215.991 101.288 216.462 101.288 216.957C101.288 217.648 101.148 218.282 100.868 218.861C100.597 219.44 100.215 219.902 99.72 220.247C99.2253 220.583 98.656 220.751 98.012 220.751ZM97.634 219.687C97.998 219.687 98.3247 219.612 98.614 219.463C98.9127 219.304 99.1647 219.099 99.37 218.847C99.5847 218.586 99.748 218.292 99.86 217.965C99.972 217.638 100.028 217.302 100.028 216.957C100.028 216.593 99.9627 216.248 99.832 215.921C99.7107 215.594 99.5333 215.305 99.3 215.053C99.076 214.801 98.81 214.605 98.502 214.465C98.2033 214.316 97.8767 214.241 97.522 214.241C97.298 214.241 97.0647 214.283 96.822 214.367C96.5887 214.451 96.3647 214.572 96.15 214.731C95.9353 214.88 95.7533 215.053 95.604 215.249C95.4547 215.445 95.3567 215.655 95.31 215.879V217.965C95.45 218.282 95.6367 218.572 95.87 218.833C96.1033 219.094 96.374 219.304 96.682 219.463C96.99 219.612 97.3073 219.687 97.634 219.687ZM105.307 220.751C104.7 220.751 104.131 220.653 103.599 220.457C103.067 220.252 102.609 219.948 102.227 219.547L102.703 218.679C103.123 219.071 103.543 219.351 103.963 219.519C104.383 219.687 104.812 219.771 105.251 219.771C105.755 219.771 106.165 219.678 106.483 219.491C106.8 219.295 106.959 219.01 106.959 218.637C106.959 218.366 106.875 218.166 106.707 218.035C106.548 217.904 106.319 217.797 106.021 217.713C105.722 217.62 105.367 217.517 104.957 217.405C104.453 217.256 104.028 217.097 103.683 216.929C103.337 216.761 103.076 216.551 102.899 216.299C102.721 216.047 102.633 215.73 102.633 215.347C102.633 214.88 102.754 214.488 102.997 214.171C103.239 213.844 103.571 213.597 103.991 213.429C104.42 213.261 104.905 213.177 105.447 213.177C105.988 213.177 106.478 213.261 106.917 213.429C107.355 213.597 107.733 213.844 108.051 214.171L107.491 215.025C107.201 214.726 106.884 214.507 106.539 214.367C106.193 214.218 105.806 214.143 105.377 214.143C105.125 214.143 104.877 214.176 104.635 214.241C104.392 214.297 104.191 214.404 104.033 214.563C103.874 214.712 103.795 214.927 103.795 215.207C103.795 215.44 103.855 215.627 103.977 215.767C104.107 215.898 104.294 216.01 104.537 216.103C104.789 216.196 105.092 216.299 105.447 216.411C105.997 216.57 106.473 216.728 106.875 216.887C107.285 217.046 107.603 217.251 107.827 217.503C108.051 217.755 108.163 218.105 108.163 218.553C108.163 219.244 107.901 219.785 107.379 220.177C106.856 220.56 106.165 220.751 105.307 220.751ZM109.567 217.685V213.303H110.799V217.447C110.799 218.194 110.929 218.754 111.191 219.127C111.452 219.5 111.839 219.687 112.353 219.687C112.689 219.687 113.011 219.617 113.319 219.477C113.636 219.328 113.921 219.118 114.173 218.847C114.425 218.576 114.621 218.254 114.761 217.881V213.303H115.993V219.211C115.993 219.36 116.021 219.472 116.077 219.547C116.142 219.612 116.245 219.65 116.385 219.659V220.611C116.245 220.63 116.133 220.639 116.049 220.639C115.974 220.648 115.899 220.653 115.825 220.653C115.591 220.653 115.391 220.583 115.223 220.443C115.055 220.294 114.966 220.112 114.957 219.897L114.929 219.043C114.611 219.584 114.182 220.004 113.641 220.303C113.109 220.602 112.525 220.751 111.891 220.751C111.125 220.751 110.547 220.494 110.155 219.981C109.763 219.458 109.567 218.693 109.567 217.685ZM129.063 220.611H127.831V216.523C127.831 215.758 127.705 215.193 127.453 214.829C127.21 214.465 126.846 214.283 126.361 214.283C125.866 214.283 125.418 214.465 125.017 214.829C124.615 215.184 124.331 215.646 124.163 216.215V220.611H122.931V216.523C122.931 215.748 122.809 215.184 122.567 214.829C122.324 214.465 121.96 214.283 121.475 214.283C120.989 214.283 120.541 214.46 120.131 214.815C119.729 215.16 119.445 215.622 119.277 216.201V220.611H118.045V213.303H119.165V214.871C119.463 214.33 119.851 213.914 120.327 213.625C120.803 213.326 121.339 213.177 121.937 213.177C122.543 213.177 123.029 213.345 123.393 213.681C123.757 214.008 123.981 214.432 124.065 214.955C124.391 214.376 124.788 213.938 125.255 213.639C125.721 213.331 126.253 213.177 126.851 213.177C127.271 213.177 127.621 213.256 127.901 213.415C128.19 213.564 128.419 213.779 128.587 214.059C128.755 214.33 128.876 214.652 128.951 215.025C129.025 215.398 129.063 215.804 129.063 216.243V220.611ZM134.043 216.971C134.043 216.28 134.183 215.65 134.463 215.081C134.753 214.502 135.145 214.04 135.639 213.695C136.143 213.35 136.717 213.177 137.361 213.177C137.949 213.177 138.477 213.331 138.943 213.639C139.41 213.947 139.774 214.32 140.035 214.759V210.391H141.267V219.211C141.267 219.36 141.295 219.472 141.351 219.547C141.417 219.612 141.519 219.65 141.659 219.659V220.611C141.426 220.648 141.244 220.667 141.113 220.667C140.871 220.667 140.656 220.583 140.469 220.415C140.292 220.247 140.203 220.06 140.203 219.855V219.239C139.914 219.706 139.527 220.074 139.041 220.345C138.556 220.616 138.052 220.751 137.529 220.751C137.025 220.751 136.559 220.653 136.129 220.457C135.709 220.252 135.341 219.972 135.023 219.617C134.715 219.262 134.473 218.861 134.295 218.413C134.127 217.956 134.043 217.475 134.043 216.971ZM140.035 218.049V215.949C139.923 215.632 139.741 215.347 139.489 215.095C139.237 214.834 138.953 214.628 138.635 214.479C138.327 214.32 138.019 214.241 137.711 214.241C137.347 214.241 137.016 214.32 136.717 214.479C136.428 214.628 136.176 214.834 135.961 215.095C135.756 215.347 135.597 215.636 135.485 215.963C135.373 216.29 135.317 216.63 135.317 216.985C135.317 217.349 135.378 217.694 135.499 218.021C135.63 218.348 135.807 218.637 136.031 218.889C136.265 219.141 136.531 219.337 136.829 219.477C137.137 219.617 137.469 219.687 137.823 219.687C138.047 219.687 138.276 219.645 138.509 219.561C138.752 219.477 138.981 219.36 139.195 219.211C139.41 219.062 139.592 218.889 139.741 218.693C139.891 218.488 139.989 218.273 140.035 218.049ZM146.516 220.751C145.965 220.751 145.466 220.653 145.018 220.457C144.57 220.252 144.183 219.976 143.856 219.631C143.529 219.276 143.277 218.87 143.1 218.413C142.923 217.956 142.834 217.475 142.834 216.971C142.834 216.458 142.923 215.972 143.1 215.515C143.277 215.058 143.529 214.656 143.856 214.311C144.183 213.956 144.57 213.681 145.018 213.485C145.475 213.28 145.975 213.177 146.516 213.177C147.067 213.177 147.566 213.28 148.014 213.485C148.462 213.681 148.849 213.956 149.176 214.311C149.512 214.656 149.769 215.058 149.946 215.515C150.123 215.972 150.212 216.458 150.212 216.971C150.212 217.475 150.123 217.956 149.946 218.413C149.769 218.87 149.517 219.276 149.19 219.631C148.863 219.976 148.471 220.252 148.014 220.457C147.566 220.653 147.067 220.751 146.516 220.751ZM144.094 216.985C144.094 217.489 144.201 217.946 144.416 218.357C144.64 218.768 144.934 219.094 145.298 219.337C145.662 219.57 146.068 219.687 146.516 219.687C146.964 219.687 147.37 219.566 147.734 219.323C148.107 219.08 148.401 218.754 148.616 218.343C148.84 217.923 148.952 217.461 148.952 216.957C148.952 216.453 148.84 215.996 148.616 215.585C148.401 215.174 148.107 214.848 147.734 214.605C147.37 214.362 146.964 214.241 146.516 214.241C146.068 214.241 145.662 214.367 145.298 214.619C144.934 214.862 144.64 215.188 144.416 215.599C144.201 216.01 144.094 216.472 144.094 216.985ZM151.733 210.391H152.965V218.721C152.965 219.122 153.021 219.37 153.133 219.463C153.245 219.556 153.38 219.603 153.539 219.603C153.735 219.603 153.922 219.584 154.099 219.547C154.276 219.5 154.426 219.454 154.547 219.407L154.743 220.415C154.538 220.499 154.295 220.569 154.015 220.625C153.735 220.681 153.488 220.709 153.273 220.709C152.797 220.709 152.419 220.574 152.139 220.303C151.868 220.032 151.733 219.654 151.733 219.169V210.391ZM158.903 220.751C158.352 220.751 157.853 220.653 157.405 220.457C156.957 220.252 156.569 219.976 156.243 219.631C155.916 219.276 155.664 218.87 155.487 218.413C155.309 217.956 155.221 217.475 155.221 216.971C155.221 216.458 155.309 215.972 155.487 215.515C155.664 215.058 155.916 214.656 156.243 214.311C156.569 213.956 156.957 213.681 157.405 213.485C157.862 213.28 158.361 213.177 158.903 213.177C159.453 213.177 159.953 213.28 160.401 213.485C160.849 213.681 161.236 213.956 161.563 214.311C161.899 214.656 162.155 215.058 162.333 215.515C162.51 215.972 162.599 216.458 162.599 216.971C162.599 217.475 162.51 217.956 162.333 218.413C162.155 218.87 161.903 219.276 161.577 219.631C161.25 219.976 160.858 220.252 160.401 220.457C159.953 220.653 159.453 220.751 158.903 220.751ZM156.481 216.985C156.481 217.489 156.588 217.946 156.803 218.357C157.027 218.768 157.321 219.094 157.685 219.337C158.049 219.57 158.455 219.687 158.903 219.687C159.351 219.687 159.757 219.566 160.121 219.323C160.494 219.08 160.788 218.754 161.003 218.343C161.227 217.923 161.339 217.461 161.339 216.957C161.339 216.453 161.227 215.996 161.003 215.585C160.788 215.174 160.494 214.848 160.121 214.605C159.757 214.362 159.351 214.241 158.903 214.241C158.455 214.241 158.049 214.367 157.685 214.619C157.321 214.862 157.027 215.188 156.803 215.599C156.588 216.01 156.481 216.472 156.481 216.985ZM167.956 214.381C167.34 214.39 166.794 214.549 166.318 214.857C165.851 215.156 165.52 215.571 165.324 216.103V220.611H164.092V213.303H165.24V214.997C165.492 214.493 165.823 214.087 166.234 213.779C166.654 213.462 167.092 213.284 167.55 213.247C167.643 213.247 167.722 213.247 167.788 213.247C167.853 213.247 167.909 213.252 167.956 213.261V214.381ZM174.896 220.751C174.29 220.751 173.72 220.653 173.188 220.457C172.656 220.252 172.199 219.948 171.816 219.547L172.292 218.679C172.712 219.071 173.132 219.351 173.552 219.519C173.972 219.687 174.402 219.771 174.84 219.771C175.344 219.771 175.755 219.678 176.072 219.491C176.39 219.295 176.548 219.01 176.548 218.637C176.548 218.366 176.464 218.166 176.296 218.035C176.138 217.904 175.909 217.797 175.61 217.713C175.312 217.62 174.957 217.517 174.546 217.405C174.042 217.256 173.618 217.097 173.272 216.929C172.927 216.761 172.666 216.551 172.488 216.299C172.311 216.047 172.222 215.73 172.222 215.347C172.222 214.88 172.344 214.488 172.586 214.171C172.829 213.844 173.16 213.597 173.58 213.429C174.01 213.261 174.495 213.177 175.036 213.177C175.578 213.177 176.068 213.261 176.506 213.429C176.945 213.597 177.323 213.844 177.64 214.171L177.08 215.025C176.791 214.726 176.474 214.507 176.128 214.367C175.783 214.218 175.396 214.143 174.966 214.143C174.714 214.143 174.467 214.176 174.224 214.241C173.982 214.297 173.781 214.404 173.622 214.563C173.464 214.712 173.384 214.927 173.384 215.207C173.384 215.44 173.445 215.627 173.566 215.767C173.697 215.898 173.884 216.01 174.126 216.103C174.378 216.196 174.682 216.299 175.036 216.411C175.587 216.57 176.063 216.728 176.464 216.887C176.875 217.046 177.192 217.251 177.416 217.503C177.64 217.755 177.752 218.105 177.752 218.553C177.752 219.244 177.491 219.785 176.968 220.177C176.446 220.56 175.755 220.751 174.896 220.751ZM179.226 220.611V213.303H180.458V220.611H179.226ZM179.226 211.931V210.391H180.458V211.931H179.226ZM186.233 220.247C186.13 220.294 185.99 220.354 185.813 220.429C185.636 220.504 185.43 220.569 185.197 220.625C184.964 220.681 184.716 220.709 184.455 220.709C184.156 220.709 183.881 220.658 183.629 220.555C183.377 220.443 183.176 220.275 183.027 220.051C182.878 219.818 182.803 219.528 182.803 219.183V214.269H181.809V213.303H182.803V210.867H184.035V213.303H185.673V214.269H184.035V218.805C184.054 219.066 184.142 219.262 184.301 219.393C184.46 219.514 184.646 219.575 184.861 219.575C185.104 219.575 185.328 219.533 185.533 219.449C185.738 219.365 185.874 219.304 185.939 219.267L186.233 220.247ZM190.342 218.497C190.342 218.03 190.473 217.629 190.734 217.293C191.005 216.948 191.373 216.682 191.84 216.495C192.307 216.308 192.848 216.215 193.464 216.215C193.791 216.215 194.136 216.243 194.5 216.299C194.864 216.346 195.186 216.42 195.466 216.523V215.991C195.466 215.431 195.298 214.992 194.962 214.675C194.626 214.348 194.15 214.185 193.534 214.185C193.133 214.185 192.745 214.26 192.372 214.409C192.008 214.549 191.621 214.754 191.21 215.025L190.762 214.157C191.238 213.83 191.714 213.588 192.19 213.429C192.666 213.261 193.161 213.177 193.674 213.177C194.607 213.177 195.345 213.438 195.886 213.961C196.427 214.474 196.698 215.193 196.698 216.117V219.211C196.698 219.36 196.726 219.472 196.782 219.547C196.847 219.612 196.95 219.65 197.09 219.659V220.611C196.969 220.63 196.861 220.644 196.768 220.653C196.684 220.662 196.614 220.667 196.558 220.667C196.269 220.667 196.049 220.588 195.9 220.429C195.76 220.27 195.681 220.102 195.662 219.925L195.634 219.463C195.317 219.874 194.901 220.191 194.388 220.415C193.875 220.639 193.366 220.751 192.862 220.751C192.377 220.751 191.943 220.653 191.56 220.457C191.177 220.252 190.879 219.981 190.664 219.645C190.449 219.3 190.342 218.917 190.342 218.497ZM195.102 219.015C195.214 218.884 195.303 218.754 195.368 218.623C195.433 218.483 195.466 218.366 195.466 218.273V217.363C195.177 217.251 194.873 217.167 194.556 217.111C194.239 217.046 193.926 217.013 193.618 217.013C192.993 217.013 192.484 217.139 192.092 217.391C191.709 217.634 191.518 217.97 191.518 218.399C191.518 218.632 191.579 218.861 191.7 219.085C191.831 219.3 192.017 219.477 192.26 219.617C192.512 219.757 192.82 219.827 193.184 219.827C193.567 219.827 193.931 219.752 194.276 219.603C194.621 219.444 194.897 219.248 195.102 219.015ZM209.686 220.611H208.454V216.523C208.454 215.758 208.328 215.193 208.076 214.829C207.833 214.465 207.469 214.283 206.984 214.283C206.489 214.283 206.041 214.465 205.64 214.829C205.238 215.184 204.954 215.646 204.786 216.215V220.611H203.554V216.523C203.554 215.748 203.432 215.184 203.19 214.829C202.947 214.465 202.583 214.283 202.098 214.283C201.612 214.283 201.164 214.46 200.754 214.815C200.352 215.16 200.068 215.622 199.9 216.201V220.611H198.668V213.303H199.788V214.871C200.086 214.33 200.474 213.914 200.95 213.625C201.426 213.326 201.962 213.177 202.56 213.177C203.166 213.177 203.652 213.345 204.016 213.681C204.38 214.008 204.604 214.432 204.688 214.955C205.014 214.376 205.411 213.938 205.878 213.639C206.344 213.331 206.876 213.177 207.474 213.177C207.894 213.177 208.244 213.256 208.524 213.415C208.813 213.564 209.042 213.779 209.21 214.059C209.378 214.33 209.499 214.652 209.574 215.025C209.648 215.398 209.686 215.804 209.686 216.243V220.611ZM214.835 220.751C214.285 220.751 213.781 220.653 213.323 220.457C212.875 220.252 212.483 219.976 212.147 219.631C211.821 219.276 211.564 218.87 211.377 218.413C211.2 217.956 211.111 217.47 211.111 216.957C211.111 216.266 211.27 215.636 211.587 215.067C211.905 214.498 212.343 214.04 212.903 213.695C213.473 213.35 214.121 213.177 214.849 213.177C215.587 213.177 216.226 213.354 216.767 213.709C217.318 214.054 217.743 214.512 218.041 215.081C218.349 215.641 218.503 216.248 218.503 216.901C218.503 216.994 218.499 217.088 218.489 217.181C218.489 217.265 218.485 217.33 218.475 217.377H212.413C212.451 217.853 212.581 218.278 212.805 218.651C213.039 219.015 213.337 219.304 213.701 219.519C214.065 219.724 214.457 219.827 214.877 219.827C215.325 219.827 215.745 219.715 216.137 219.491C216.539 219.267 216.814 218.973 216.963 218.609L218.027 218.903C217.869 219.258 217.631 219.575 217.313 219.855C217.005 220.135 216.637 220.354 216.207 220.513C215.787 220.672 215.33 220.751 214.835 220.751ZM212.371 216.523H217.355C217.318 216.047 217.183 215.627 216.949 215.263C216.716 214.899 216.417 214.614 216.053 214.409C215.689 214.204 215.288 214.101 214.849 214.101C214.42 214.101 214.023 214.204 213.659 214.409C213.295 214.614 212.997 214.899 212.763 215.263C212.539 215.627 212.409 216.047 212.371 216.523ZM223.585 220.247C223.482 220.294 223.342 220.354 223.165 220.429C222.987 220.504 222.782 220.569 222.549 220.625C222.315 220.681 222.068 220.709 221.807 220.709C221.508 220.709 221.233 220.658 220.981 220.555C220.729 220.443 220.528 220.275 220.379 220.051C220.229 219.818 220.155 219.528 220.155 219.183V214.269H219.161V213.303H220.155V210.867H221.387V213.303H223.025V214.269H221.387V218.805C221.405 219.066 221.494 219.262 221.653 219.393C221.811 219.514 221.998 219.575 222.213 219.575C222.455 219.575 222.679 219.533 222.885 219.449C223.09 219.365 223.225 219.304 223.291 219.267L223.585 220.247ZM224.768 221.745L225.048 220.499H224.628V219.043H225.79V220.499L225.37 221.745H224.768ZM47.9839 241.751C47.4332 241.751 46.9292 241.653 46.4719 241.457C46.0239 241.252 45.6319 240.972 45.2959 240.617C44.9692 240.262 44.7125 239.856 44.5259 239.399C44.3485 238.942 44.2599 238.456 44.2599 237.943C44.2599 237.252 44.4139 236.622 44.7219 236.053C45.0299 235.484 45.4639 235.031 46.0239 234.695C46.5839 234.35 47.2325 234.177 47.9699 234.177C48.6885 234.177 49.3139 234.34 49.8459 234.667C50.3872 234.984 50.7885 235.414 51.0499 235.955L49.8459 236.333C49.6592 235.988 49.3979 235.722 49.0619 235.535C48.7259 235.339 48.3525 235.241 47.9419 235.241C47.4939 235.241 47.0832 235.358 46.7099 235.591C46.3459 235.824 46.0565 236.146 45.8419 236.557C45.6272 236.958 45.5199 237.42 45.5199 237.943C45.5199 238.456 45.6272 238.923 45.8419 239.343C46.0659 239.754 46.3599 240.08 46.7239 240.323C47.0972 240.566 47.5079 240.687 47.9559 240.687C48.2452 240.687 48.5205 240.636 48.7819 240.533C49.0525 240.43 49.2859 240.295 49.4819 240.127C49.6872 239.95 49.8272 239.758 49.9019 239.553L51.1059 239.917C50.9565 240.272 50.7279 240.589 50.4199 240.869C50.1212 241.14 49.7619 241.354 49.3419 241.513C48.9312 241.672 48.4785 241.751 47.9839 241.751ZM55.6255 241.751C55.0748 241.751 54.5755 241.653 54.1275 241.457C53.6795 241.252 53.2921 240.976 52.9655 240.631C52.6388 240.276 52.3868 239.87 52.2095 239.413C52.0321 238.956 51.9435 238.475 51.9435 237.971C51.9435 237.458 52.0321 236.972 52.2095 236.515C52.3868 236.058 52.6388 235.656 52.9655 235.311C53.2921 234.956 53.6795 234.681 54.1275 234.485C54.5848 234.28 55.0841 234.177 55.6255 234.177C56.1761 234.177 56.6755 234.28 57.1235 234.485C57.5715 234.681 57.9588 234.956 58.2855 235.311C58.6215 235.656 58.8781 236.058 59.0555 236.515C59.2328 236.972 59.3215 237.458 59.3215 237.971C59.3215 238.475 59.2328 238.956 59.0555 239.413C58.8781 239.87 58.6261 240.276 58.2995 240.631C57.9728 240.976 57.5808 241.252 57.1235 241.457C56.6755 241.653 56.1761 241.751 55.6255 241.751ZM53.2035 237.985C53.2035 238.489 53.3108 238.946 53.5255 239.357C53.7495 239.768 54.0435 240.094 54.4075 240.337C54.7715 240.57 55.1775 240.687 55.6255 240.687C56.0735 240.687 56.4795 240.566 56.8435 240.323C57.2168 240.08 57.5108 239.754 57.7255 239.343C57.9495 238.923 58.0615 238.461 58.0615 237.957C58.0615 237.453 57.9495 236.996 57.7255 236.585C57.5108 236.174 57.2168 235.848 56.8435 235.605C56.4795 235.362 56.0735 235.241 55.6255 235.241C55.1775 235.241 54.7715 235.367 54.4075 235.619C54.0435 235.862 53.7495 236.188 53.5255 236.599C53.3108 237.01 53.2035 237.472 53.2035 237.985ZM67.1563 241.611H65.9243V237.523C65.9243 236.748 65.803 236.184 65.5603 235.829C65.327 235.465 64.9676 235.283 64.4823 235.283C64.1463 235.283 63.8103 235.367 63.4743 235.535C63.1476 235.703 62.8536 235.932 62.5923 236.221C62.3403 236.501 62.1583 236.828 62.0463 237.201V241.611H60.8143V234.303H61.9343V235.871C62.1303 235.526 62.3823 235.227 62.6903 234.975C62.9983 234.723 63.3483 234.527 63.7403 234.387C64.1323 234.247 64.543 234.177 64.9723 234.177C65.3923 234.177 65.7423 234.256 66.0223 234.415C66.3116 234.564 66.5356 234.779 66.6943 235.059C66.8623 235.33 66.979 235.652 67.0443 236.025C67.119 236.398 67.1563 236.804 67.1563 237.243V241.611ZM71.5781 241.751C70.9715 241.751 70.4021 241.653 69.8701 241.457C69.3381 241.252 68.8808 240.948 68.4981 240.547L68.9741 239.679C69.3941 240.071 69.8141 240.351 70.2341 240.519C70.6541 240.687 71.0835 240.771 71.5221 240.771C72.0261 240.771 72.4368 240.678 72.7541 240.491C73.0715 240.295 73.2301 240.01 73.2301 239.637C73.2301 239.366 73.1461 239.166 72.9781 239.035C72.8195 238.904 72.5908 238.797 72.2921 238.713C71.9935 238.62 71.6388 238.517 71.2281 238.405C70.7241 238.256 70.2995 238.097 69.9541 237.929C69.6088 237.761 69.3475 237.551 69.1701 237.299C68.9928 237.047 68.9041 236.73 68.9041 236.347C68.9041 235.88 69.0255 235.488 69.2681 235.171C69.5108 234.844 69.8421 234.597 70.2621 234.429C70.6915 234.261 71.1768 234.177 71.7181 234.177C72.2595 234.177 72.7495 234.261 73.1881 234.429C73.6268 234.597 74.0048 234.844 74.3221 235.171L73.7621 236.025C73.4728 235.726 73.1555 235.507 72.8101 235.367C72.4648 235.218 72.0775 235.143 71.6481 235.143C71.3961 235.143 71.1488 235.176 70.9061 235.241C70.6635 235.297 70.4628 235.404 70.3041 235.563C70.1455 235.712 70.0661 235.927 70.0661 236.207C70.0661 236.44 70.1268 236.627 70.2481 236.767C70.3788 236.898 70.5655 237.01 70.8081 237.103C71.0601 237.196 71.3635 237.299 71.7181 237.411C72.2688 237.57 72.7448 237.728 73.1461 237.887C73.5568 238.046 73.8741 238.251 74.0981 238.503C74.3221 238.755 74.4341 239.105 74.4341 239.553C74.4341 240.244 74.1728 240.785 73.6501 241.177C73.1275 241.56 72.4368 241.751 71.5781 241.751ZM79.1421 241.751C78.5914 241.751 78.0874 241.653 77.6301 241.457C77.1821 241.252 76.7901 240.976 76.4541 240.631C76.1274 240.276 75.8707 239.87 75.6841 239.413C75.5067 238.956 75.4181 238.47 75.4181 237.957C75.4181 237.266 75.5767 236.636 75.8941 236.067C76.2114 235.498 76.6501 235.04 77.2101 234.695C77.7794 234.35 78.4281 234.177 79.1561 234.177C79.8934 234.177 80.5327 234.354 81.0741 234.709C81.6247 235.054 82.0494 235.512 82.3481 236.081C82.6561 236.641 82.8101 237.248 82.8101 237.901C82.8101 237.994 82.8054 238.088 82.7961 238.181C82.7961 238.265 82.7914 238.33 82.7821 238.377H76.7201C76.7574 238.853 76.8881 239.278 77.1121 239.651C77.3454 240.015 77.6441 240.304 78.0081 240.519C78.3721 240.724 78.7641 240.827 79.1841 240.827C79.6321 240.827 80.0521 240.715 80.4441 240.491C80.8454 240.267 81.1207 239.973 81.2701 239.609L82.3341 239.903C82.1754 240.258 81.9374 240.575 81.6201 240.855C81.3121 241.135 80.9434 241.354 80.5141 241.513C80.0941 241.672 79.6367 241.751 79.1421 241.751ZM76.6781 237.523H81.6621C81.6247 237.047 81.4894 236.627 81.2561 236.263C81.0227 235.899 80.7241 235.614 80.3601 235.409C79.9961 235.204 79.5947 235.101 79.1561 235.101C78.7267 235.101 78.3301 235.204 77.9661 235.409C77.6021 235.614 77.3034 235.899 77.0701 236.263C76.8461 236.627 76.7154 237.047 76.6781 237.523ZM87.4135 241.751C86.8629 241.751 86.3589 241.653 85.9015 241.457C85.4535 241.252 85.0615 240.972 84.7255 240.617C84.3989 240.262 84.1422 239.856 83.9555 239.399C83.7782 238.942 83.6895 238.456 83.6895 237.943C83.6895 237.252 83.8435 236.622 84.1515 236.053C84.4595 235.484 84.8935 235.031 85.4535 234.695C86.0135 234.35 86.6622 234.177 87.3995 234.177C88.1182 234.177 88.7435 234.34 89.2755 234.667C89.8169 234.984 90.2182 235.414 90.4795 235.955L89.2755 236.333C89.0889 235.988 88.8275 235.722 88.4915 235.535C88.1555 235.339 87.7822 235.241 87.3715 235.241C86.9235 235.241 86.5129 235.358 86.1395 235.591C85.7755 235.824 85.4862 236.146 85.2715 236.557C85.0569 236.958 84.9495 237.42 84.9495 237.943C84.9495 238.456 85.0569 238.923 85.2715 239.343C85.4955 239.754 85.7895 240.08 86.1535 240.323C86.5269 240.566 86.9375 240.687 87.3855 240.687C87.6749 240.687 87.9502 240.636 88.2115 240.533C88.4822 240.43 88.7155 240.295 88.9115 240.127C89.1169 239.95 89.2569 239.758 89.3315 239.553L90.5355 239.917C90.3862 240.272 90.1575 240.589 89.8495 240.869C89.5509 241.14 89.1915 241.354 88.7715 241.513C88.3609 241.672 87.9082 241.751 87.4135 241.751ZM95.7115 241.247C95.6088 241.294 95.4688 241.354 95.2915 241.429C95.1142 241.504 94.9088 241.569 94.6755 241.625C94.4422 241.681 94.1948 241.709 93.9335 241.709C93.6348 241.709 93.3595 241.658 93.1075 241.555C92.8555 241.443 92.6548 241.275 92.5055 241.051C92.3562 240.818 92.2815 240.528 92.2815 240.183V235.269H91.2875V234.303H92.2815V231.867H93.5135V234.303H95.1515V235.269H93.5135V239.805C93.5322 240.066 93.6208 240.262 93.7795 240.393C93.9382 240.514 94.1248 240.575 94.3395 240.575C94.5822 240.575 94.8062 240.533 95.0115 240.449C95.2168 240.365 95.3522 240.304 95.4175 240.267L95.7115 241.247ZM99.9917 241.751C99.441 241.751 98.937 241.653 98.4797 241.457C98.0317 241.252 97.6397 240.976 97.3037 240.631C96.977 240.276 96.7203 239.87 96.5337 239.413C96.3563 238.956 96.2677 238.47 96.2677 237.957C96.2677 237.266 96.4263 236.636 96.7437 236.067C97.061 235.498 97.4997 235.04 98.0597 234.695C98.629 234.35 99.2777 234.177 100.006 234.177C100.743 234.177 101.382 234.354 101.924 234.709C102.474 235.054 102.899 235.512 103.198 236.081C103.506 236.641 103.66 237.248 103.66 237.901C103.66 237.994 103.655 238.088 103.646 238.181C103.646 238.265 103.641 238.33 103.632 238.377H97.5697C97.607 238.853 97.7377 239.278 97.9617 239.651C98.195 240.015 98.4937 240.304 98.8577 240.519C99.2217 240.724 99.6137 240.827 100.034 240.827C100.482 240.827 100.902 240.715 101.294 240.491C101.695 240.267 101.97 239.973 102.12 239.609L103.184 239.903C103.025 240.258 102.787 240.575 102.47 240.855C102.162 241.135 101.793 241.354 101.364 241.513C100.944 241.672 100.486 241.751 99.9917 241.751ZM97.5277 237.523H102.512C102.474 237.047 102.339 236.627 102.106 236.263C101.872 235.899 101.574 235.614 101.21 235.409C100.846 235.204 100.444 235.101 100.006 235.101C99.5763 235.101 99.1797 235.204 98.8157 235.409C98.4517 235.614 98.153 235.899 97.9197 236.263C97.6957 236.627 97.565 237.047 97.5277 237.523ZM108.741 241.247C108.638 241.294 108.498 241.354 108.321 241.429C108.143 241.504 107.938 241.569 107.705 241.625C107.471 241.681 107.224 241.709 106.963 241.709C106.664 241.709 106.389 241.658 106.137 241.555C105.885 241.443 105.684 241.275 105.535 241.051C105.385 240.818 105.311 240.528 105.311 240.183V235.269H104.317V234.303H105.311V231.867H106.543V234.303H108.181V235.269H106.543V239.805C106.561 240.066 106.65 240.262 106.809 240.393C106.967 240.514 107.154 240.575 107.369 240.575C107.611 240.575 107.835 240.533 108.041 240.449C108.246 240.365 108.381 240.304 108.447 240.267L108.741 241.247ZM109.813 238.685V234.303H111.045V238.447C111.045 239.194 111.175 239.754 111.437 240.127C111.698 240.5 112.085 240.687 112.599 240.687C112.935 240.687 113.257 240.617 113.565 240.477C113.882 240.328 114.167 240.118 114.419 239.847C114.671 239.576 114.867 239.254 115.007 238.881V234.303H116.239V240.211C116.239 240.36 116.267 240.472 116.323 240.547C116.388 240.612 116.491 240.65 116.631 240.659V241.611C116.491 241.63 116.379 241.639 116.295 241.639C116.22 241.648 116.145 241.653 116.071 241.653C115.837 241.653 115.637 241.583 115.469 241.443C115.301 241.294 115.212 241.112 115.203 240.897L115.175 240.043C114.857 240.584 114.428 241.004 113.887 241.303C113.355 241.602 112.771 241.751 112.137 241.751C111.371 241.751 110.793 241.494 110.401 240.981C110.009 240.458 109.813 239.693 109.813 238.685ZM122.155 235.381C121.539 235.39 120.993 235.549 120.517 235.857C120.05 236.156 119.719 236.571 119.523 237.103V241.611H118.291V234.303H119.439V235.997C119.691 235.493 120.022 235.087 120.433 234.779C120.853 234.462 121.292 234.284 121.749 234.247C121.842 234.247 121.922 234.247 121.987 234.247C122.052 234.247 122.108 234.252 122.155 234.261V235.381ZM126.016 239.497C126.016 239.03 126.146 238.629 126.408 238.293C126.678 237.948 127.047 237.682 127.514 237.495C127.98 237.308 128.522 237.215 129.138 237.215C129.464 237.215 129.81 237.243 130.174 237.299C130.538 237.346 130.86 237.42 131.14 237.523V236.991C131.14 236.431 130.972 235.992 130.636 235.675C130.3 235.348 129.824 235.185 129.208 235.185C128.806 235.185 128.419 235.26 128.046 235.409C127.682 235.549 127.294 235.754 126.884 236.025L126.436 235.157C126.912 234.83 127.388 234.588 127.864 234.429C128.34 234.261 128.834 234.177 129.348 234.177C130.281 234.177 131.018 234.438 131.56 234.961C132.101 235.474 132.372 236.193 132.372 237.117V240.211C132.372 240.36 132.4 240.472 132.456 240.547C132.521 240.612 132.624 240.65 132.764 240.659V241.611C132.642 241.63 132.535 241.644 132.442 241.653C132.358 241.662 132.288 241.667 132.232 241.667C131.942 241.667 131.723 241.588 131.574 241.429C131.434 241.27 131.354 241.102 131.336 240.925L131.308 240.463C130.99 240.874 130.575 241.191 130.062 241.415C129.548 241.639 129.04 241.751 128.536 241.751C128.05 241.751 127.616 241.653 127.234 241.457C126.851 241.252 126.552 240.981 126.338 240.645C126.123 240.3 126.016 239.917 126.016 239.497ZM130.776 240.015C130.888 239.884 130.976 239.754 131.042 239.623C131.107 239.483 131.14 239.366 131.14 239.273V238.363C130.85 238.251 130.547 238.167 130.23 238.111C129.912 238.046 129.6 238.013 129.292 238.013C128.666 238.013 128.158 238.139 127.766 238.391C127.383 238.634 127.192 238.97 127.192 239.399C127.192 239.632 127.252 239.861 127.374 240.085C127.504 240.3 127.691 240.477 127.934 240.617C128.186 240.757 128.494 240.827 128.858 240.827C129.24 240.827 129.604 240.752 129.95 240.603C130.295 240.444 130.57 240.248 130.776 240.015ZM133.866 237.971C133.866 237.28 134.006 236.65 134.286 236.081C134.575 235.502 134.967 235.04 135.462 234.695C135.966 234.35 136.54 234.177 137.184 234.177C137.772 234.177 138.299 234.331 138.766 234.639C139.232 234.947 139.596 235.32 139.858 235.759V231.391H141.09V240.211C141.09 240.36 141.118 240.472 141.174 240.547C141.239 240.612 141.342 240.65 141.482 240.659V241.611C141.248 241.648 141.066 241.667 140.936 241.667C140.693 241.667 140.478 241.583 140.292 241.415C140.114 241.247 140.026 241.06 140.026 240.855V240.239C139.736 240.706 139.349 241.074 138.864 241.345C138.378 241.616 137.874 241.751 137.352 241.751C136.848 241.751 136.381 241.653 135.952 241.457C135.532 241.252 135.163 240.972 134.846 240.617C134.538 240.262 134.295 239.861 134.118 239.413C133.95 238.956 133.866 238.475 133.866 237.971ZM139.858 239.049V236.949C139.746 236.632 139.564 236.347 139.312 236.095C139.06 235.834 138.775 235.628 138.458 235.479C138.15 235.32 137.842 235.241 137.534 235.241C137.17 235.241 136.838 235.32 136.54 235.479C136.25 235.628 135.998 235.834 135.784 236.095C135.578 236.347 135.42 236.636 135.308 236.963C135.196 237.29 135.14 237.63 135.14 237.985C135.14 238.349 135.2 238.694 135.322 239.021C135.452 239.348 135.63 239.637 135.854 239.889C136.087 240.141 136.353 240.337 136.652 240.477C136.96 240.617 137.291 240.687 137.646 240.687C137.87 240.687 138.098 240.645 138.332 240.561C138.574 240.477 138.803 240.36 139.018 240.211C139.232 240.062 139.414 239.889 139.564 239.693C139.713 239.488 139.811 239.273 139.858 239.049ZM143.146 241.611V234.303H144.378V241.611H143.146ZM143.146 232.931V231.391H144.378V232.931H143.146ZM150.307 241.751C149.71 241.751 149.178 241.602 148.711 241.303C148.244 241.004 147.876 240.626 147.605 240.169V244.593H146.373V234.303H147.465V235.675C147.754 235.227 148.132 234.868 148.599 234.597C149.066 234.317 149.574 234.177 150.125 234.177C150.629 234.177 151.091 234.28 151.511 234.485C151.931 234.69 152.295 234.97 152.603 235.325C152.911 235.68 153.149 236.086 153.317 236.543C153.494 236.991 153.583 237.462 153.583 237.957C153.583 238.648 153.443 239.282 153.163 239.861C152.892 240.44 152.51 240.902 152.015 241.247C151.52 241.583 150.951 241.751 150.307 241.751ZM149.929 240.687C150.293 240.687 150.62 240.612 150.909 240.463C151.208 240.304 151.46 240.099 151.665 239.847C151.88 239.586 152.043 239.292 152.155 238.965C152.267 238.638 152.323 238.302 152.323 237.957C152.323 237.593 152.258 237.248 152.127 236.921C152.006 236.594 151.828 236.305 151.595 236.053C151.371 235.801 151.105 235.605 150.797 235.465C150.498 235.316 150.172 235.241 149.817 235.241C149.593 235.241 149.36 235.283 149.117 235.367C148.884 235.451 148.66 235.572 148.445 235.731C148.23 235.88 148.048 236.053 147.899 236.249C147.75 236.445 147.652 236.655 147.605 236.879V238.965C147.745 239.282 147.932 239.572 148.165 239.833C148.398 240.094 148.669 240.304 148.977 240.463C149.285 240.612 149.602 240.687 149.929 240.687ZM155.096 241.611V234.303H156.328V241.611H155.096ZM155.096 232.931V231.391H156.328V232.931H155.096ZM160.828 241.751C160.221 241.751 159.652 241.653 159.12 241.457C158.588 241.252 158.131 240.948 157.748 240.547L158.224 239.679C158.644 240.071 159.064 240.351 159.484 240.519C159.904 240.687 160.333 240.771 160.772 240.771C161.276 240.771 161.687 240.678 162.004 240.491C162.321 240.295 162.48 240.01 162.48 239.637C162.48 239.366 162.396 239.166 162.228 239.035C162.069 238.904 161.841 238.797 161.542 238.713C161.243 238.62 160.889 238.517 160.478 238.405C159.974 238.256 159.549 238.097 159.204 237.929C158.859 237.761 158.597 237.551 158.42 237.299C158.243 237.047 158.154 236.73 158.154 236.347C158.154 235.88 158.275 235.488 158.518 235.171C158.761 234.844 159.092 234.597 159.512 234.429C159.941 234.261 160.427 234.177 160.968 234.177C161.509 234.177 161.999 234.261 162.438 234.429C162.877 234.597 163.255 234.844 163.572 235.171L163.012 236.025C162.723 235.726 162.405 235.507 162.06 235.367C161.715 235.218 161.327 235.143 160.898 235.143C160.646 235.143 160.399 235.176 160.156 235.241C159.913 235.297 159.713 235.404 159.554 235.563C159.395 235.712 159.316 235.927 159.316 236.207C159.316 236.44 159.377 236.627 159.498 236.767C159.629 236.898 159.815 237.01 160.058 237.103C160.31 237.196 160.613 237.299 160.968 237.411C161.519 237.57 161.995 237.728 162.396 237.887C162.807 238.046 163.124 238.251 163.348 238.503C163.572 238.755 163.684 239.105 163.684 239.553C163.684 240.244 163.423 240.785 162.9 241.177C162.377 241.56 161.687 241.751 160.828 241.751ZM168.392 241.751C167.841 241.751 167.337 241.653 166.88 241.457C166.432 241.252 166.04 240.972 165.704 240.617C165.377 240.262 165.121 239.856 164.934 239.399C164.757 238.942 164.668 238.456 164.668 237.943C164.668 237.252 164.822 236.622 165.13 236.053C165.438 235.484 165.872 235.031 166.432 234.695C166.992 234.35 167.641 234.177 168.378 234.177C169.097 234.177 169.722 234.34 170.254 234.667C170.795 234.984 171.197 235.414 171.458 235.955L170.254 236.333C170.067 235.988 169.806 235.722 169.47 235.535C169.134 235.339 168.761 235.241 168.35 235.241C167.902 235.241 167.491 235.358 167.118 235.591C166.754 235.824 166.465 236.146 166.25 236.557C166.035 236.958 165.928 237.42 165.928 237.943C165.928 238.456 166.035 238.923 166.25 239.343C166.474 239.754 166.768 240.08 167.132 240.323C167.505 240.566 167.916 240.687 168.364 240.687C168.653 240.687 168.929 240.636 169.19 240.533C169.461 240.43 169.694 240.295 169.89 240.127C170.095 239.95 170.235 239.758 170.31 239.553L171.514 239.917C171.365 240.272 171.136 240.589 170.828 240.869C170.529 241.14 170.17 241.354 169.75 241.513C169.339 241.672 168.887 241.751 168.392 241.751ZM172.91 241.611V234.303H174.142V241.611H172.91ZM172.91 232.931V231.391H174.142V232.931H172.91ZM182.479 241.611H181.247V237.523C181.247 236.748 181.125 236.184 180.883 235.829C180.649 235.465 180.29 235.283 179.805 235.283C179.469 235.283 179.133 235.367 178.797 235.535C178.47 235.703 178.176 235.932 177.915 236.221C177.663 236.501 177.481 236.828 177.369 237.201V241.611H176.137V234.303H177.257V235.871C177.453 235.526 177.705 235.227 178.013 234.975C178.321 234.723 178.671 234.527 179.063 234.387C179.455 234.247 179.865 234.177 180.295 234.177C180.715 234.177 181.065 234.256 181.345 234.415C181.634 234.564 181.858 234.779 182.017 235.059C182.185 235.33 182.301 235.652 182.367 236.025C182.441 236.398 182.479 236.804 182.479 237.243V241.611ZM187.306 241.695C186.812 241.695 186.354 241.597 185.934 241.401C185.524 241.196 185.169 240.92 184.87 240.575C184.572 240.22 184.338 239.819 184.17 239.371C184.012 238.923 183.932 238.456 183.932 237.971C183.932 237.458 184.012 236.972 184.17 236.515C184.338 236.058 184.572 235.656 184.87 235.311C185.178 234.956 185.538 234.681 185.948 234.485C186.359 234.28 186.816 234.177 187.32 234.177C187.927 234.177 188.454 234.326 188.902 234.625C189.36 234.924 189.742 235.302 190.05 235.759V234.303H191.142V241.527C191.142 242.218 190.974 242.801 190.638 243.277C190.312 243.753 189.864 244.112 189.294 244.355C188.734 244.607 188.109 244.733 187.418 244.733C186.597 244.733 185.925 244.588 185.402 244.299C184.88 244.01 184.446 243.618 184.1 243.123L184.814 242.493C185.104 242.922 185.477 243.244 185.934 243.459C186.401 243.674 186.896 243.781 187.418 243.781C187.866 243.781 188.277 243.697 188.65 243.529C189.033 243.37 189.336 243.123 189.56 242.787C189.794 242.451 189.91 242.031 189.91 241.527V240.239C189.64 240.687 189.266 241.042 188.79 241.303C188.324 241.564 187.829 241.695 187.306 241.695ZM187.684 240.687C187.946 240.687 188.198 240.64 188.44 240.547C188.683 240.454 188.907 240.332 189.112 240.183C189.318 240.024 189.49 239.847 189.63 239.651C189.77 239.455 189.864 239.254 189.91 239.049V236.949C189.78 236.613 189.593 236.319 189.35 236.067C189.108 235.806 188.832 235.605 188.524 235.465C188.216 235.316 187.899 235.241 187.572 235.241C187.199 235.241 186.863 235.32 186.564 235.479C186.275 235.638 186.028 235.852 185.822 236.123C185.617 236.384 185.458 236.678 185.346 237.005C185.234 237.332 185.178 237.663 185.178 237.999C185.178 238.363 185.244 238.708 185.374 239.035C185.505 239.352 185.682 239.637 185.906 239.889C186.13 240.141 186.396 240.337 186.704 240.477C187.012 240.617 187.339 240.687 187.684 240.687ZM199.906 241.751C199.355 241.751 198.851 241.653 198.394 241.457C197.946 241.252 197.554 240.976 197.218 240.631C196.891 240.276 196.634 239.87 196.448 239.413C196.27 238.956 196.182 238.47 196.182 237.957C196.182 237.266 196.34 236.636 196.658 236.067C196.975 235.498 197.414 235.04 197.974 234.695C198.543 234.35 199.192 234.177 199.92 234.177C200.657 234.177 201.296 234.354 201.838 234.709C202.388 235.054 202.813 235.512 203.112 236.081C203.42 236.641 203.574 237.248 203.574 237.901C203.574 237.994 203.569 238.088 203.56 238.181C203.56 238.265 203.555 238.33 203.546 238.377H197.484C197.521 238.853 197.652 239.278 197.876 239.651C198.109 240.015 198.408 240.304 198.772 240.519C199.136 240.724 199.528 240.827 199.948 240.827C200.396 240.827 200.816 240.715 201.208 240.491C201.609 240.267 201.884 239.973 202.034 239.609L203.098 239.903C202.939 240.258 202.701 240.575 202.384 240.855C202.076 241.135 201.707 241.354 201.278 241.513C200.858 241.672 200.4 241.751 199.906 241.751ZM197.442 237.523H202.426C202.388 237.047 202.253 236.627 202.02 236.263C201.786 235.899 201.488 235.614 201.124 235.409C200.76 235.204 200.358 235.101 199.92 235.101C199.49 235.101 199.094 235.204 198.73 235.409C198.366 235.614 198.067 235.899 197.834 236.263C197.61 236.627 197.479 237.047 197.442 237.523ZM204.971 231.391H206.203V239.721C206.203 240.122 206.259 240.37 206.371 240.463C206.483 240.556 206.619 240.603 206.777 240.603C206.973 240.603 207.16 240.584 207.337 240.547C207.515 240.5 207.664 240.454 207.785 240.407L207.981 241.415C207.776 241.499 207.533 241.569 207.253 241.625C206.973 241.681 206.726 241.709 206.511 241.709C206.035 241.709 205.657 241.574 205.377 241.303C205.107 241.032 204.971 240.654 204.971 240.169V231.391ZM208.949 241.611V234.303H210.181V241.611H208.949ZM208.949 232.931V231.391H210.181V232.931H208.949ZM215.956 241.247C215.853 241.294 215.713 241.354 215.536 241.429C215.358 241.504 215.153 241.569 214.92 241.625C214.686 241.681 214.439 241.709 214.178 241.709C213.879 241.709 213.604 241.658 213.352 241.555C213.1 241.443 212.899 241.275 212.75 241.051C212.6 240.818 212.526 240.528 212.526 240.183V235.269H211.532V234.303H212.526V231.867H213.758V234.303H215.396V235.269H213.758V239.805C213.776 240.066 213.865 240.262 214.024 240.393C214.182 240.514 214.369 240.575 214.584 240.575C214.826 240.575 215.05 240.533 215.256 240.449C215.461 240.365 215.596 240.304 215.662 240.267L215.956 241.247ZM217.14 242.745L217.42 241.499H217V240.043H218.162V241.499L217.742 242.745H217.14ZM226.098 241.751C225.491 241.751 224.922 241.653 224.39 241.457C223.858 241.252 223.4 240.948 223.018 240.547L223.494 239.679C223.914 240.071 224.334 240.351 224.754 240.519C225.174 240.687 225.603 240.771 226.042 240.771C226.546 240.771 226.956 240.678 227.274 240.491C227.591 240.295 227.75 240.01 227.75 239.637C227.75 239.366 227.666 239.166 227.498 239.035C227.339 238.904 227.11 238.797 226.812 238.713C226.513 238.62 226.158 238.517 225.748 238.405C225.244 238.256 224.819 238.097 224.474 237.929C224.128 237.761 223.867 237.551 223.69 237.299C223.512 237.047 223.424 236.73 223.424 236.347C223.424 235.88 223.545 235.488 223.788 235.171C224.03 234.844 224.362 234.597 224.782 234.429C225.211 234.261 225.696 234.177 226.238 234.177C226.779 234.177 227.269 234.261 227.708 234.429C228.146 234.597 228.524 234.844 228.842 235.171L228.282 236.025C227.992 235.726 227.675 235.507 227.33 235.367C226.984 235.218 226.597 235.143 226.168 235.143C225.916 235.143 225.668 235.176 225.426 235.241C225.183 235.297 224.982 235.404 224.824 235.563C224.665 235.712 224.586 235.927 224.586 236.207C224.586 236.44 224.646 236.627 224.768 236.767C224.898 236.898 225.085 237.01 225.328 237.103C225.58 237.196 225.883 237.299 226.238 237.411C226.788 237.57 227.264 237.728 227.666 237.887C228.076 238.046 228.394 238.251 228.618 238.503C228.842 238.755 228.954 239.105 228.954 239.553C228.954 240.244 228.692 240.785 228.17 241.177C227.647 241.56 226.956 241.751 226.098 241.751ZM233.662 241.751C233.111 241.751 232.607 241.653 232.15 241.457C231.702 241.252 231.31 240.976 230.974 240.631C230.647 240.276 230.39 239.87 230.204 239.413C230.026 238.956 229.938 238.47 229.938 237.957C229.938 237.266 230.096 236.636 230.414 236.067C230.731 235.498 231.17 235.04 231.73 234.695C232.299 234.35 232.948 234.177 233.676 234.177C234.413 234.177 235.052 234.354 235.594 234.709C236.144 235.054 236.569 235.512 236.868 236.081C237.176 236.641 237.33 237.248 237.33 237.901C237.33 237.994 237.325 238.088 237.316 238.181C237.316 238.265 237.311 238.33 237.302 238.377H231.24C231.277 238.853 231.408 239.278 231.632 239.651C231.865 240.015 232.164 240.304 232.528 240.519C232.892 240.724 233.284 240.827 233.704 240.827C234.152 240.827 234.572 240.715 234.964 240.491C235.365 240.267 235.64 239.973 235.79 239.609L236.854 239.903C236.695 240.258 236.457 240.575 236.14 240.855C235.832 241.135 235.463 241.354 235.034 241.513C234.614 241.672 234.156 241.751 233.662 241.751ZM231.198 237.523H236.182C236.144 237.047 236.009 236.627 235.776 236.263C235.542 235.899 235.244 235.614 234.88 235.409C234.516 235.204 234.114 235.101 233.676 235.101C233.246 235.101 232.85 235.204 232.486 235.409C232.122 235.614 231.823 235.899 231.59 236.263C231.366 236.627 231.235 237.047 231.198 237.523ZM238.223 237.971C238.223 237.28 238.363 236.65 238.643 236.081C238.932 235.502 239.324 235.04 239.819 234.695C240.323 234.35 240.897 234.177 241.541 234.177C242.129 234.177 242.656 234.331 243.123 234.639C243.59 234.947 243.954 235.32 244.215 235.759V231.391H245.447V240.211C245.447 240.36 245.475 240.472 245.531 240.547C245.596 240.612 245.699 240.65 245.839 240.659V241.611C245.606 241.648 245.424 241.667 245.293 241.667C245.05 241.667 244.836 241.583 244.649 241.415C244.472 241.247 244.383 241.06 244.383 240.855V240.239C244.094 240.706 243.706 241.074 243.221 241.345C242.736 241.616 242.232 241.751 241.709 241.751C241.205 241.751 240.738 241.653 240.309 241.457C239.889 241.252 239.52 240.972 239.203 240.617C238.895 240.262 238.652 239.861 238.475 239.413C238.307 238.956 238.223 238.475 238.223 237.971ZM244.215 239.049V236.949C244.103 236.632 243.921 236.347 243.669 236.095C243.417 235.834 243.132 235.628 242.815 235.479C242.507 235.32 242.199 235.241 241.891 235.241C241.527 235.241 241.196 235.32 240.897 235.479C240.608 235.628 240.356 235.834 240.141 236.095C239.936 236.347 239.777 236.636 239.665 236.963C239.553 237.29 239.497 237.63 239.497 237.985C239.497 238.349 239.558 238.694 239.679 239.021C239.81 239.348 239.987 239.637 240.211 239.889C240.444 240.141 240.71 240.337 241.009 240.477C241.317 240.617 241.648 240.687 242.003 240.687C242.227 240.687 242.456 240.645 242.689 240.561C242.932 240.477 243.16 240.36 243.375 240.211C243.59 240.062 243.772 239.889 243.921 239.693C244.07 239.488 244.168 239.273 244.215 239.049ZM44.2739 258.971C44.2739 258.28 44.4139 257.65 44.6939 257.081C44.9832 256.502 45.3752 256.04 45.8699 255.695C46.3739 255.35 46.9479 255.177 47.5919 255.177C48.1799 255.177 48.7072 255.331 49.1739 255.639C49.6405 255.947 50.0045 256.32 50.2659 256.759V252.391H51.4979V261.211C51.4979 261.36 51.5259 261.472 51.5819 261.547C51.6472 261.612 51.7499 261.65 51.8899 261.659V262.611C51.6565 262.648 51.4745 262.667 51.3439 262.667C51.1012 262.667 50.8865 262.583 50.6999 262.415C50.5225 262.247 50.4339 262.06 50.4339 261.855V261.239C50.1445 261.706 49.7572 262.074 49.2719 262.345C48.7865 262.616 48.2825 262.751 47.7599 262.751C47.2559 262.751 46.7892 262.653 46.3599 262.457C45.9399 262.252 45.5712 261.972 45.2539 261.617C44.9459 261.262 44.7032 260.861 44.5259 260.413C44.3579 259.956 44.2739 259.475 44.2739 258.971ZM50.2659 260.049V257.949C50.1539 257.632 49.9719 257.347 49.7199 257.095C49.4679 256.834 49.1832 256.628 48.8659 256.479C48.5579 256.32 48.2499 256.241 47.9419 256.241C47.5779 256.241 47.2465 256.32 46.9479 256.479C46.6585 256.628 46.4065 256.834 46.1919 257.095C45.9865 257.347 45.8279 257.636 45.7159 257.963C45.6039 258.29 45.5479 258.63 45.5479 258.985C45.5479 259.349 45.6085 259.694 45.7299 260.021C45.8605 260.348 46.0379 260.637 46.2619 260.889C46.4952 261.141 46.7612 261.337 47.0599 261.477C47.3679 261.617 47.6992 261.687 48.0539 261.687C48.2779 261.687 48.5065 261.645 48.7399 261.561C48.9825 261.477 49.2112 261.36 49.4259 261.211C49.6405 261.062 49.8225 260.889 49.9719 260.693C50.1212 260.488 50.2192 260.273 50.2659 260.049ZM56.7465 262.751C56.1959 262.751 55.6965 262.653 55.2485 262.457C54.8005 262.252 54.4132 261.976 54.0865 261.631C53.7599 261.276 53.5079 260.87 53.3305 260.413C53.1532 259.956 53.0645 259.475 53.0645 258.971C53.0645 258.458 53.1532 257.972 53.3305 257.515C53.5079 257.058 53.7599 256.656 54.0865 256.311C54.4132 255.956 54.8005 255.681 55.2485 255.485C55.7059 255.28 56.2052 255.177 56.7465 255.177C57.2972 255.177 57.7965 255.28 58.2445 255.485C58.6925 255.681 59.0799 255.956 59.4065 256.311C59.7425 256.656 59.9992 257.058 60.1765 257.515C60.3539 257.972 60.4425 258.458 60.4425 258.971C60.4425 259.475 60.3539 259.956 60.1765 260.413C59.9992 260.87 59.7472 261.276 59.4205 261.631C59.0939 261.976 58.7019 262.252 58.2445 262.457C57.7965 262.653 57.2972 262.751 56.7465 262.751ZM54.3245 258.985C54.3245 259.489 54.4319 259.946 54.6465 260.357C54.8705 260.768 55.1645 261.094 55.5285 261.337C55.8925 261.57 56.2985 261.687 56.7465 261.687C57.1945 261.687 57.6005 261.566 57.9645 261.323C58.3379 261.08 58.6319 260.754 58.8465 260.343C59.0705 259.923 59.1825 259.461 59.1825 258.957C59.1825 258.453 59.0705 257.996 58.8465 257.585C58.6319 257.174 58.3379 256.848 57.9645 256.605C57.6005 256.362 57.1945 256.241 56.7465 256.241C56.2985 256.241 55.8925 256.367 55.5285 256.619C55.1645 256.862 54.8705 257.188 54.6465 257.599C54.4319 258.01 54.3245 258.472 54.3245 258.985ZM68.7104 262.751C68.1598 262.751 67.6558 262.653 67.1984 262.457C66.7504 262.252 66.3584 261.976 66.0224 261.631C65.6958 261.276 65.4391 260.87 65.2524 260.413C65.0751 259.956 64.9864 259.47 64.9864 258.957C64.9864 258.266 65.1451 257.636 65.4624 257.067C65.7798 256.498 66.2184 256.04 66.7784 255.695C67.3478 255.35 67.9964 255.177 68.7244 255.177C69.4618 255.177 70.1011 255.354 70.6424 255.709C71.1931 256.054 71.6178 256.512 71.9164 257.081C72.2244 257.641 72.3784 258.248 72.3784 258.901C72.3784 258.994 72.3738 259.088 72.3644 259.181C72.3644 259.265 72.3598 259.33 72.3504 259.377H66.2884C66.3258 259.853 66.4564 260.278 66.6804 260.651C66.9138 261.015 67.2124 261.304 67.5764 261.519C67.9404 261.724 68.3324 261.827 68.7524 261.827C69.2004 261.827 69.6204 261.715 70.0124 261.491C70.4138 261.267 70.6891 260.973 70.8384 260.609L71.9024 260.903C71.7438 261.258 71.5058 261.575 71.1884 261.855C70.8804 262.135 70.5118 262.354 70.0824 262.513C69.6624 262.672 69.2051 262.751 68.7104 262.751ZM66.2464 258.523H71.2304C71.1931 258.047 71.0578 257.627 70.8244 257.263C70.5911 256.899 70.2924 256.614 69.9284 256.409C69.5644 256.204 69.1631 256.101 68.7244 256.101C68.2951 256.101 67.8984 256.204 67.5344 256.409C67.1704 256.614 66.8718 256.899 66.6384 257.263C66.4144 257.627 66.2838 258.047 66.2464 258.523ZM73.7479 262.611V255.303H74.9799V262.611H73.7479ZM73.7479 253.931V252.391H74.9799V253.931H73.7479ZM76.9045 259.685V255.303H78.1365V259.447C78.1365 260.194 78.2671 260.754 78.5285 261.127C78.7898 261.5 79.1771 261.687 79.6905 261.687C80.0265 261.687 80.3485 261.617 80.6565 261.477C80.9738 261.328 81.2585 261.118 81.5105 260.847C81.7625 260.576 81.9585 260.254 82.0985 259.881V255.303H83.3305V261.211C83.3305 261.36 83.3585 261.472 83.4145 261.547C83.4798 261.612 83.5825 261.65 83.7225 261.659V262.611C83.5825 262.63 83.4705 262.639 83.3865 262.639C83.3118 262.648 83.2371 262.653 83.1625 262.653C82.9291 262.653 82.7285 262.583 82.5605 262.443C82.3925 262.294 82.3038 262.112 82.2945 261.897L82.2665 261.043C81.9491 261.584 81.5198 262.004 80.9785 262.303C80.4465 262.602 79.8631 262.751 79.2285 262.751C78.4631 262.751 77.8845 262.494 77.4925 261.981C77.1005 261.458 76.9045 260.693 76.9045 259.685ZM87.8887 262.751C87.282 262.751 86.7127 262.653 86.1807 262.457C85.6487 262.252 85.1913 261.948 84.8087 261.547L85.2847 260.679C85.7047 261.071 86.1247 261.351 86.5447 261.519C86.9647 261.687 87.394 261.771 87.8327 261.771C88.3367 261.771 88.7473 261.678 89.0647 261.491C89.382 261.295 89.5407 261.01 89.5407 260.637C89.5407 260.366 89.4567 260.166 89.2887 260.035C89.13 259.904 88.9013 259.797 88.6027 259.713C88.304 259.62 87.9493 259.517 87.5387 259.405C87.0347 259.256 86.61 259.097 86.2647 258.929C85.9193 258.761 85.658 258.551 85.4807 258.299C85.3033 258.047 85.2147 257.73 85.2147 257.347C85.2147 256.88 85.336 256.488 85.5787 256.171C85.8213 255.844 86.1527 255.597 86.5727 255.429C87.002 255.261 87.4873 255.177 88.0287 255.177C88.57 255.177 89.06 255.261 89.4987 255.429C89.9373 255.597 90.3153 255.844 90.6327 256.171L90.0727 257.025C89.7833 256.726 89.466 256.507 89.1207 256.367C88.7753 256.218 88.388 256.143 87.9587 256.143C87.7067 256.143 87.4593 256.176 87.2167 256.241C86.974 256.297 86.7733 256.404 86.6147 256.563C86.456 256.712 86.3767 256.927 86.3767 257.207C86.3767 257.44 86.4373 257.627 86.5587 257.767C86.6893 257.898 86.876 258.01 87.1187 258.103C87.3707 258.196 87.674 258.299 88.0287 258.411C88.5793 258.57 89.0553 258.728 89.4567 258.887C89.8673 259.046 90.1847 259.251 90.4087 259.503C90.6327 259.755 90.7447 260.105 90.7447 260.553C90.7447 261.244 90.4833 261.785 89.9607 262.177C89.438 262.56 88.7473 262.751 87.8887 262.751ZM103.237 262.611H102.005V258.523C102.005 257.758 101.879 257.193 101.627 256.829C101.384 256.465 101.02 256.283 100.535 256.283C100.04 256.283 99.5919 256.465 99.1906 256.829C98.7893 257.184 98.5046 257.646 98.3366 258.215V262.611H97.1046V258.523C97.1046 257.748 96.9833 257.184 96.7406 256.829C96.4979 256.465 96.1339 256.283 95.6486 256.283C95.1633 256.283 94.7153 256.46 94.3046 256.815C93.9033 257.16 93.6186 257.622 93.4506 258.201V262.611H92.2186V255.303H93.3386V256.871C93.6373 256.33 94.0246 255.914 94.5006 255.625C94.9766 255.326 95.5133 255.177 96.1106 255.177C96.7173 255.177 97.2026 255.345 97.5666 255.681C97.9306 256.008 98.1546 256.432 98.2386 256.955C98.5653 256.376 98.9619 255.938 99.4286 255.639C99.8953 255.331 100.427 255.177 101.025 255.177C101.445 255.177 101.795 255.256 102.075 255.415C102.364 255.564 102.593 255.779 102.761 256.059C102.929 256.33 103.05 256.652 103.125 257.025C103.199 257.398 103.237 257.804 103.237 258.243V262.611ZM108.344 262.751C107.794 262.751 107.294 262.653 106.846 262.457C106.398 262.252 106.011 261.976 105.684 261.631C105.358 261.276 105.106 260.87 104.928 260.413C104.751 259.956 104.662 259.475 104.662 258.971C104.662 258.458 104.751 257.972 104.928 257.515C105.106 257.058 105.358 256.656 105.684 256.311C106.011 255.956 106.398 255.681 106.846 255.485C107.304 255.28 107.803 255.177 108.344 255.177C108.895 255.177 109.394 255.28 109.842 255.485C110.29 255.681 110.678 255.956 111.004 256.311C111.34 256.656 111.597 257.058 111.774 257.515C111.952 257.972 112.04 258.458 112.04 258.971C112.04 259.475 111.952 259.956 111.774 260.413C111.597 260.87 111.345 261.276 111.018 261.631C110.692 261.976 110.3 262.252 109.842 262.457C109.394 262.653 108.895 262.751 108.344 262.751ZM105.922 258.985C105.922 259.489 106.03 259.946 106.244 260.357C106.468 260.768 106.762 261.094 107.126 261.337C107.49 261.57 107.896 261.687 108.344 261.687C108.792 261.687 109.198 261.566 109.562 261.323C109.936 261.08 110.23 260.754 110.444 260.343C110.668 259.923 110.78 259.461 110.78 258.957C110.78 258.453 110.668 257.996 110.444 257.585C110.23 257.174 109.936 256.848 109.562 256.605C109.198 256.362 108.792 256.241 108.344 256.241C107.896 256.241 107.49 256.367 107.126 256.619C106.762 256.862 106.468 257.188 106.244 257.599C106.03 258.01 105.922 258.472 105.922 258.985ZM113.057 258.971C113.057 258.28 113.197 257.65 113.477 257.081C113.766 256.502 114.158 256.04 114.653 255.695C115.157 255.35 115.731 255.177 116.375 255.177C116.963 255.177 117.49 255.331 117.957 255.639C118.424 255.947 118.788 256.32 119.049 256.759V252.391H120.281V261.211C120.281 261.36 120.309 261.472 120.365 261.547C120.43 261.612 120.533 261.65 120.673 261.659V262.611C120.44 262.648 120.258 262.667 120.127 262.667C119.884 262.667 119.67 262.583 119.483 262.415C119.306 262.247 119.217 262.06 119.217 261.855V261.239C118.928 261.706 118.54 262.074 118.055 262.345C117.57 262.616 117.066 262.751 116.543 262.751C116.039 262.751 115.572 262.653 115.143 262.457C114.723 262.252 114.354 261.972 114.037 261.617C113.729 261.262 113.486 260.861 113.309 260.413C113.141 259.956 113.057 259.475 113.057 258.971ZM119.049 260.049V257.949C118.937 257.632 118.755 257.347 118.503 257.095C118.251 256.834 117.966 256.628 117.649 256.479C117.341 256.32 117.033 256.241 116.725 256.241C116.361 256.241 116.03 256.32 115.731 256.479C115.442 256.628 115.19 256.834 114.975 257.095C114.77 257.347 114.611 257.636 114.499 257.963C114.387 258.29 114.331 258.63 114.331 258.985C114.331 259.349 114.392 259.694 114.513 260.021C114.644 260.348 114.821 260.637 115.045 260.889C115.278 261.141 115.544 261.337 115.843 261.477C116.151 261.617 116.482 261.687 116.837 261.687C117.061 261.687 117.29 261.645 117.523 261.561C117.766 261.477 117.994 261.36 118.209 261.211C118.424 261.062 118.606 260.889 118.755 260.693C118.904 260.488 119.002 260.273 119.049 260.049ZM129.659 262.247C129.556 262.294 129.416 262.354 129.239 262.429C129.061 262.504 128.856 262.569 128.623 262.625C128.389 262.681 128.142 262.709 127.881 262.709C127.582 262.709 127.307 262.658 127.055 262.555C126.803 262.443 126.602 262.275 126.453 262.051C126.303 261.818 126.229 261.528 126.229 261.183V256.269H125.235V255.303H126.229V252.867H127.461V255.303H129.099V256.269H127.461V260.805C127.479 261.066 127.568 261.262 127.727 261.393C127.885 261.514 128.072 261.575 128.287 261.575C128.529 261.575 128.753 261.533 128.959 261.449C129.164 261.365 129.299 261.304 129.365 261.267L129.659 262.247ZM133.939 262.751C133.388 262.751 132.884 262.653 132.427 262.457C131.979 262.252 131.587 261.976 131.251 261.631C130.924 261.276 130.668 260.87 130.481 260.413C130.304 259.956 130.215 259.47 130.215 258.957C130.215 258.266 130.374 257.636 130.691 257.067C131.008 256.498 131.447 256.04 132.007 255.695C132.576 255.35 133.225 255.177 133.953 255.177C134.69 255.177 135.33 255.354 135.871 255.709C136.422 256.054 136.846 256.512 137.145 257.081C137.453 257.641 137.607 258.248 137.607 258.901C137.607 258.994 137.602 259.088 137.593 259.181C137.593 259.265 137.588 259.33 137.579 259.377H131.517C131.554 259.853 131.685 260.278 131.909 260.651C132.142 261.015 132.441 261.304 132.805 261.519C133.169 261.724 133.561 261.827 133.981 261.827C134.429 261.827 134.849 261.715 135.241 261.491C135.642 261.267 135.918 260.973 136.067 260.609L137.131 260.903C136.972 261.258 136.734 261.575 136.417 261.855C136.109 262.135 135.74 262.354 135.311 262.513C134.891 262.672 134.434 262.751 133.939 262.751ZM131.475 258.523H136.459C136.422 258.047 136.286 257.627 136.053 257.263C135.82 256.899 135.521 256.614 135.157 256.409C134.793 256.204 134.392 256.101 133.953 256.101C133.524 256.101 133.127 256.204 132.763 256.409C132.399 256.614 132.1 256.899 131.867 257.263C131.643 257.627 131.512 258.047 131.475 258.523ZM149.994 262.611H148.762V258.523C148.762 257.758 148.636 257.193 148.384 256.829C148.142 256.465 147.778 256.283 147.292 256.283C146.798 256.283 146.35 256.465 145.948 256.829C145.547 257.184 145.262 257.646 145.094 258.215V262.611H143.862V258.523C143.862 257.748 143.741 257.184 143.498 256.829C143.256 256.465 142.892 256.283 142.406 256.283C141.921 256.283 141.473 256.46 141.062 256.815C140.661 257.16 140.376 257.622 140.208 258.201V262.611H138.976V255.303H140.096V256.871C140.395 256.33 140.782 255.914 141.258 255.625C141.734 255.326 142.271 255.177 142.868 255.177C143.475 255.177 143.96 255.345 144.324 255.681C144.688 256.008 144.912 256.432 144.996 256.955C145.323 256.376 145.72 255.938 146.186 255.639C146.653 255.331 147.185 255.177 147.782 255.177C148.202 255.177 148.552 255.256 148.832 255.415C149.122 255.564 149.35 255.779 149.518 256.059C149.686 256.33 149.808 256.652 149.882 257.025C149.957 257.398 149.994 257.804 149.994 258.243V262.611ZM155.844 262.751C155.247 262.751 154.715 262.602 154.248 262.303C153.781 262.004 153.413 261.626 153.142 261.169V265.593H151.91V255.303H153.002V256.675C153.291 256.227 153.669 255.868 154.136 255.597C154.603 255.317 155.111 255.177 155.662 255.177C156.166 255.177 156.628 255.28 157.048 255.485C157.468 255.69 157.832 255.97 158.14 256.325C158.448 256.68 158.686 257.086 158.854 257.543C159.031 257.991 159.12 258.462 159.12 258.957C159.12 259.648 158.98 260.282 158.7 260.861C158.429 261.44 158.047 261.902 157.552 262.247C157.057 262.583 156.488 262.751 155.844 262.751ZM155.466 261.687C155.83 261.687 156.157 261.612 156.446 261.463C156.745 261.304 156.997 261.099 157.202 260.847C157.417 260.586 157.58 260.292 157.692 259.965C157.804 259.638 157.86 259.302 157.86 258.957C157.86 258.593 157.795 258.248 157.664 257.921C157.543 257.594 157.365 257.305 157.132 257.053C156.908 256.801 156.642 256.605 156.334 256.465C156.035 256.316 155.709 256.241 155.354 256.241C155.13 256.241 154.897 256.283 154.654 256.367C154.421 256.451 154.197 256.572 153.982 256.731C153.767 256.88 153.585 257.053 153.436 257.249C153.287 257.445 153.189 257.655 153.142 257.879V259.965C153.282 260.282 153.469 260.572 153.702 260.833C153.935 261.094 154.206 261.304 154.514 261.463C154.822 261.612 155.139 261.687 155.466 261.687ZM163.825 262.751C163.274 262.751 162.775 262.653 162.327 262.457C161.879 262.252 161.491 261.976 161.165 261.631C160.838 261.276 160.586 260.87 160.409 260.413C160.231 259.956 160.143 259.475 160.143 258.971C160.143 258.458 160.231 257.972 160.409 257.515C160.586 257.058 160.838 256.656 161.165 256.311C161.491 255.956 161.879 255.681 162.327 255.485C162.784 255.28 163.283 255.177 163.825 255.177C164.375 255.177 164.875 255.28 165.323 255.485C165.771 255.681 166.158 255.956 166.485 256.311C166.821 256.656 167.077 257.058 167.255 257.515C167.432 257.972 167.521 258.458 167.521 258.971C167.521 259.475 167.432 259.956 167.255 260.413C167.077 260.87 166.825 261.276 166.499 261.631C166.172 261.976 165.78 262.252 165.323 262.457C164.875 262.653 164.375 262.751 163.825 262.751ZM161.403 258.985C161.403 259.489 161.51 259.946 161.725 260.357C161.949 260.768 162.243 261.094 162.607 261.337C162.971 261.57 163.377 261.687 163.825 261.687C164.273 261.687 164.679 261.566 165.043 261.323C165.416 261.08 165.71 260.754 165.925 260.343C166.149 259.923 166.261 259.461 166.261 258.957C166.261 258.453 166.149 257.996 165.925 257.585C165.71 257.174 165.416 256.848 165.043 256.605C164.679 256.362 164.273 256.241 163.825 256.241C163.377 256.241 162.971 256.367 162.607 256.619C162.243 256.862 161.949 257.188 161.725 257.599C161.51 258.01 161.403 258.472 161.403 258.985ZM172.878 256.381C172.262 256.39 171.716 256.549 171.24 256.857C170.773 257.156 170.442 257.571 170.246 258.103V262.611H169.014V255.303H170.162V256.997C170.414 256.493 170.745 256.087 171.156 255.779C171.576 255.462 172.014 255.284 172.472 255.247C172.565 255.247 172.644 255.247 172.71 255.247C172.775 255.247 172.831 255.252 172.878 255.261V256.381ZM172.511 262.611V261.043H173.547V262.611H172.511ZM175.341 262.611V261.043H176.377V262.611H175.341ZM178.171 262.611V261.043H179.207V262.611H178.171Z" fill="#777777"/>
<path d="M47.5359 304.641L47.4099 301.869L54.0159 295.011H56.6439L51.1539 300.843L49.8579 302.265L47.5359 304.641ZM45.4479 307.611V295.011H47.7879V307.611H45.4479ZM54.2319 307.611L49.4079 301.869L50.9559 300.159L56.9679 307.611H54.2319ZM63.6409 297.891C64.4089 297.891 65.0929 298.041 65.6929 298.341C66.3049 298.641 66.7849 299.103 67.1329 299.727C67.4809 300.339 67.6549 301.131 67.6549 302.103V307.611H65.4049V302.391C65.4049 301.539 65.2009 300.903 64.7929 300.483C64.3969 300.063 63.8389 299.853 63.1189 299.853C62.5909 299.853 62.1229 299.961 61.7149 300.177C61.3069 300.393 60.9889 300.717 60.7609 301.149C60.5449 301.569 60.4369 302.103 60.4369 302.751V307.611H58.1869V297.999H60.3289V300.591L59.9509 299.799C60.2869 299.187 60.7729 298.719 61.4089 298.395C62.0569 298.059 62.8009 297.891 63.6409 297.891ZM74.8468 307.737C73.8628 307.737 72.9868 307.527 72.2188 307.107C71.4508 306.675 70.8448 306.087 70.4008 305.343C69.9568 304.599 69.7348 303.753 69.7348 302.805C69.7348 301.845 69.9568 300.999 70.4008 300.267C70.8448 299.523 71.4508 298.941 72.2188 298.521C72.9868 298.101 73.8628 297.891 74.8468 297.891C75.8428 297.891 76.7248 298.101 77.4928 298.521C78.2728 298.941 78.8788 299.517 79.3108 300.249C79.7548 300.981 79.9768 301.833 79.9768 302.805C79.9768 303.753 79.7548 304.599 79.3108 305.343C78.8788 306.087 78.2728 306.675 77.4928 307.107C76.7248 307.527 75.8428 307.737 74.8468 307.737ZM74.8468 305.811C75.3988 305.811 75.8908 305.691 76.3228 305.451C76.7548 305.211 77.0908 304.863 77.3308 304.407C77.5828 303.951 77.7088 303.417 77.7088 302.805C77.7088 302.181 77.5828 301.647 77.3308 301.203C77.0908 300.747 76.7548 300.399 76.3228 300.159C75.8908 299.919 75.4048 299.799 74.8648 299.799C74.3128 299.799 73.8208 299.919 73.3888 300.159C72.9688 300.399 72.6328 300.747 72.3808 301.203C72.1288 301.647 72.0028 302.181 72.0028 302.805C72.0028 303.417 72.1288 303.951 72.3808 304.407C72.6328 304.863 72.9688 305.211 73.3888 305.451C73.8208 305.691 74.3068 305.811 74.8468 305.811ZM83.9887 307.611L80.4607 297.999H82.5847L85.6087 306.477H84.6007L87.7687 297.999H89.6587L92.7367 306.477H91.7467L94.8607 297.999H96.8587L93.3127 307.611H91.1527L88.3447 300.105H89.0107L86.1487 307.611H83.9887ZM103.596 307.611V295.011H105.522L111.03 304.209H110.022L115.44 295.011H117.366L117.384 307.611H115.17L115.152 298.485H115.62L111.012 306.171H109.968L105.288 298.485H105.828V307.611H103.596ZM124.892 307.737C123.908 307.737 123.032 307.527 122.264 307.107C121.496 306.675 120.89 306.087 120.446 305.343C120.002 304.599 119.78 303.753 119.78 302.805C119.78 301.845 120.002 300.999 120.446 300.267C120.89 299.523 121.496 298.941 122.264 298.521C123.032 298.101 123.908 297.891 124.892 297.891C125.888 297.891 126.77 298.101 127.538 298.521C128.318 298.941 128.924 299.517 129.356 300.249C129.8 300.981 130.022 301.833 130.022 302.805C130.022 303.753 129.8 304.599 129.356 305.343C128.924 306.087 128.318 306.675 127.538 307.107C126.77 307.527 125.888 307.737 124.892 307.737ZM124.892 305.811C125.444 305.811 125.936 305.691 126.368 305.451C126.8 305.211 127.136 304.863 127.376 304.407C127.628 303.951 127.754 303.417 127.754 302.805C127.754 302.181 127.628 301.647 127.376 301.203C127.136 300.747 126.8 300.399 126.368 300.159C125.936 299.919 125.45 299.799 124.91 299.799C124.358 299.799 123.866 299.919 123.434 300.159C123.014 300.399 122.678 300.747 122.426 301.203C122.174 301.647 122.048 302.181 122.048 302.805C122.048 303.417 122.174 303.951 122.426 304.407C122.678 304.863 123.014 305.211 123.434 305.451C123.866 305.691 124.352 305.811 124.892 305.811ZM132.173 307.611V297.999H134.315V300.645L134.063 299.871C134.351 299.223 134.801 298.731 135.413 298.395C136.037 298.059 136.811 297.891 137.735 297.891V300.033C137.639 300.009 137.549 299.997 137.465 299.997C137.381 299.985 137.297 299.979 137.213 299.979C136.361 299.979 135.683 300.231 135.179 300.735C134.675 301.227 134.423 301.965 134.423 302.949V307.611H132.173ZM144.074 307.737C143.006 307.737 142.07 307.527 141.266 307.107C140.474 306.675 139.856 306.087 139.412 305.343C138.98 304.599 138.764 303.753 138.764 302.805C138.764 301.845 138.974 300.999 139.394 300.267C139.826 299.523 140.414 298.941 141.158 298.521C141.914 298.101 142.772 297.891 143.732 297.891C144.668 297.891 145.502 298.095 146.234 298.503C146.966 298.911 147.542 299.487 147.962 300.231C148.382 300.975 148.592 301.851 148.592 302.859C148.592 302.955 148.586 303.063 148.574 303.183C148.574 303.303 148.568 303.417 148.556 303.525H140.546V302.031H147.368L146.486 302.499C146.498 301.947 146.384 301.461 146.144 301.041C145.904 300.621 145.574 300.291 145.154 300.051C144.746 299.811 144.272 299.691 143.732 299.691C143.18 299.691 142.694 299.811 142.274 300.051C141.866 300.291 141.542 300.627 141.302 301.059C141.074 301.479 140.96 301.977 140.96 302.553V302.913C140.96 303.489 141.092 303.999 141.356 304.443C141.62 304.887 141.992 305.229 142.472 305.469C142.952 305.709 143.504 305.829 144.128 305.829C144.668 305.829 145.154 305.745 145.586 305.577C146.018 305.409 146.402 305.145 146.738 304.785L147.944 306.171C147.512 306.675 146.966 307.065 146.306 307.341C145.658 307.605 144.914 307.737 144.074 307.737Z" fill="#4A60A1"/>
<path d="M165.146 295.16C164.876 295.427 164.85 295.848 165.072 296.143L165.138 296.221L169.714 300.861L158.006 300.861C157.592 300.861 157.256 301.197 157.256 301.611C157.256 301.993 157.542 302.309 157.912 302.355L158.006 302.361H169.714L165.138 307.001C164.872 307.271 164.852 307.693 165.078 307.985L165.146 308.062C165.416 308.328 165.838 308.347 166.13 308.122L166.207 308.054L172.04 302.137C172.304 301.87 172.326 301.453 172.106 301.161L172.04 301.084L166.207 295.168C165.916 294.873 165.441 294.869 165.146 295.16Z" fill="#00B377"/>
<path d="M52.4092 136.74H62.3605L49.4238 114.366C48.5801 112.984 48.0825 111.45 48.0825 109.744C48.0844 107.643 48.8532 105.615 50.2449 104.04C51.6366 102.464 53.5558 101.449 55.6432 101.184C57.7306 100.919 59.8431 101.423 61.5853 102.601C63.3275 103.779 64.5798 105.551 65.1079 107.584H74.0425V102.185C74.0425 99.8095 75.9895 97.8657 78.3691 97.8657V103.459L81.8088 100.025H91.3491V104.345H83.5828L78.3691 109.55V109.938L83.5828 115.143H91.3491V119.463H81.8088L78.3691 116.029V121.623C77.2216 121.623 76.1211 121.167 75.3097 120.357C74.4983 119.547 74.0425 118.449 74.0425 117.303V111.904H65.1079C64.8916 112.746 64.5455 113.545 64.1128 114.28L77.0928 136.74H87.0225C88.17 136.74 89.2705 137.196 90.0819 138.006C90.8933 138.816 91.3491 139.914 91.3491 141.06V143.22H48.0825V141.06C48.0825 138.684 50.0295 136.74 52.4092 136.74ZM60.8678 117.303C59.6563 117.994 58.2502 118.383 56.7358 118.383L67.3578 136.74H72.0955L60.8678 117.303ZM56.7358 105.425C55.5883 105.425 54.4878 105.88 53.6764 106.69C52.865 107.5 52.4092 108.599 52.4092 109.744C52.4092 112.141 54.3345 114.064 56.7358 114.064C59.1371 114.064 61.0625 112.141 61.0625 109.744C61.0625 108.599 60.6067 107.5 59.7953 106.69C58.9838 105.88 57.8833 105.425 56.7358 105.425Z" fill="#0B1C98"/>
<defs>
<filter id="filter0_d_773_485" x="0.755859" y="0.61084" width="290" height="377.979" filterUnits="userSpaceOnUse" color-interpolation-filters="sRGB">
<feFlood flood-opacity="0" result="BackgroundImageFix"/>
<feColorMatrix in="SourceAlpha" type="matrix" values="0 0 0 0 0 0 0 0 0 0 0 0 0 0 0 0 0 0 127 0" result="hardAlpha"/>
<feOffset/>
<feGaussianBlur stdDeviation="10"/>
<feComposite in2="hardAlpha" operator="out"/>
<feColorMatrix type="matrix" values="0 0 0 0 0.768627 0 0 0 0 0.768627 0 0 0 0 0.768627 0 0 0 0.15 0"/>
<feBlend mode="normal" in2="BackgroundImageFix" result="effect1_dropShadow_773_485"/>
<feBlend mode="normal" in="SourceGraphic" in2="effect1_dropShadow_773_485" result="shape"/>
</filter>
</defs>
</svg>
