<svg width="291" height="379" viewBox="0 0 291 379" fill="none" xmlns="http://www.w3.org/2000/svg">
<g filter="url(#filter0_d_773_469)">
<rect x="20.2744" y="20.4058" width="250" height="337.979" rx="12" fill="white"/>
<rect x="20.7744" y="20.9058" width="249" height="336.979" rx="11.5" stroke="black"/>
</g>
<path d="M46.1744 192.406C45.7344 192.406 45.3944 192.292 45.1544 192.066C44.9277 191.826 44.8144 191.486 44.8144 191.046V179.666C44.8144 179.226 44.9277 178.892 45.1544 178.666C45.3944 178.426 45.7344 178.306 46.1744 178.306H50.0544C52.4144 178.306 54.2344 178.912 55.5144 180.126C56.8077 181.339 57.4544 183.079 57.4544 185.346C57.4544 186.479 57.2877 187.486 56.9544 188.366C56.6344 189.232 56.1544 189.966 55.5144 190.566C54.8877 191.166 54.1144 191.626 53.1944 191.946C52.2877 192.252 51.2411 192.406 50.0544 192.406H46.1744ZM47.3744 190.286H49.8944C50.7211 190.286 51.4344 190.186 52.0344 189.986C52.6477 189.772 53.1544 189.466 53.5544 189.066C53.9677 188.652 54.2744 188.139 54.4744 187.526C54.6744 186.899 54.7744 186.172 54.7744 185.346C54.7744 183.692 54.3677 182.459 53.5544 181.646C52.7411 180.832 51.5211 180.426 49.8944 180.426H47.3744V190.286ZM61.0488 192.546C60.6488 192.546 60.3421 192.426 60.1288 192.186C59.9155 191.946 59.8088 191.612 59.8088 191.186V183.846C59.8088 183.406 59.9155 183.072 60.1288 182.846C60.3421 182.606 60.6488 182.486 61.0488 182.486C61.4488 182.486 61.7555 182.606 61.9688 182.846C62.1955 183.072 62.3088 183.406 62.3088 183.846V191.186C62.3088 191.612 62.2021 191.946 61.9888 192.186C61.7755 192.426 61.4621 192.546 61.0488 192.546ZM61.0488 180.626C60.5821 180.626 60.2155 180.512 59.9488 180.286C59.6955 180.046 59.5688 179.719 59.5688 179.306C59.5688 178.879 59.6955 178.552 59.9488 178.326C60.2155 178.099 60.5821 177.986 61.0488 177.986C61.5288 177.986 61.8955 178.099 62.1488 178.326C62.4021 178.552 62.5288 178.879 62.5288 179.306C62.5288 179.719 62.4021 180.046 62.1488 180.286C61.8955 180.512 61.5288 180.626 61.0488 180.626ZM69.4664 196.206C68.7464 196.206 68.0464 196.139 67.3664 196.006C66.6998 195.872 66.0931 195.666 65.5464 195.386C65.2931 195.252 65.1198 195.092 65.0264 194.906C64.9464 194.719 64.9198 194.526 64.9464 194.326C64.9864 194.139 65.0664 193.972 65.1864 193.826C65.3198 193.679 65.4798 193.579 65.6664 193.526C65.8531 193.472 66.0464 193.499 66.2464 193.606C66.8331 193.899 67.3864 194.086 67.9064 194.166C68.4398 194.259 68.8931 194.306 69.2664 194.306C70.1598 194.306 70.8264 194.086 71.2664 193.646C71.7198 193.219 71.9464 192.579 71.9464 191.726V189.926H72.1264C71.9264 190.606 71.5064 191.152 70.8664 191.566C70.2398 191.966 69.5264 192.166 68.7264 192.166C67.8464 192.166 67.0798 191.966 66.4264 191.566C65.7731 191.152 65.2664 190.579 64.9064 189.846C64.5464 189.112 64.3664 188.259 64.3664 187.286C64.3664 186.552 64.4664 185.892 64.6664 185.306C64.8798 184.706 65.1731 184.192 65.5464 183.766C65.9331 183.339 66.3931 183.012 66.9264 182.786C67.4731 182.546 68.0731 182.426 68.7264 182.426C69.5531 182.426 70.2731 182.632 70.8864 183.046C71.5131 183.446 71.9198 183.979 72.1064 184.646L71.9064 185.146V183.726C71.9064 183.312 72.0131 182.999 72.2264 182.786C72.4531 182.572 72.7598 182.466 73.1464 182.466C73.5464 182.466 73.8531 182.572 74.0664 182.786C74.2798 182.999 74.3864 183.312 74.3864 183.726V191.426C74.3864 193.012 73.9664 194.206 73.1264 195.006C72.2864 195.806 71.0664 196.206 69.4664 196.206ZM69.4064 190.266C69.9264 190.266 70.3731 190.146 70.7464 189.906C71.1198 189.666 71.4064 189.326 71.6064 188.886C71.8198 188.432 71.9264 187.899 71.9264 187.286C71.9264 186.366 71.6998 185.646 71.2464 185.126C70.7931 184.592 70.1798 184.326 69.4064 184.326C68.8864 184.326 68.4398 184.446 68.0664 184.686C67.6931 184.926 67.3998 185.266 67.1864 185.706C66.9864 186.146 66.8864 186.672 66.8864 187.286C66.8864 188.206 67.1131 188.932 67.5664 189.466C68.0198 189.999 68.6331 190.266 69.4064 190.266ZM78.2168 192.546C77.8168 192.546 77.5101 192.426 77.2968 192.186C77.0834 191.946 76.9768 191.612 76.9768 191.186V183.846C76.9768 183.406 77.0834 183.072 77.2968 182.846C77.5101 182.606 77.8168 182.486 78.2168 182.486C78.6168 182.486 78.9234 182.606 79.1368 182.846C79.3634 183.072 79.4768 183.406 79.4768 183.846V191.186C79.4768 191.612 79.3701 191.946 79.1568 192.186C78.9434 192.426 78.6301 192.546 78.2168 192.546ZM78.2168 180.626C77.7501 180.626 77.3834 180.512 77.1168 180.286C76.8634 180.046 76.7368 179.719 76.7368 179.306C76.7368 178.879 76.8634 178.552 77.1168 178.326C77.3834 178.099 77.7501 177.986 78.2168 177.986C78.6968 177.986 79.0634 178.099 79.3168 178.326C79.5701 178.552 79.6968 178.879 79.6968 179.306C79.6968 179.719 79.5701 180.046 79.3168 180.286C79.0634 180.512 78.6968 180.626 78.2168 180.626ZM86.5544 192.606C85.6877 192.606 84.9611 192.459 84.3744 192.166C83.8011 191.872 83.3744 191.446 83.0944 190.886C82.8144 190.312 82.6744 189.606 82.6744 188.766V184.506H81.6344C81.3144 184.506 81.0677 184.426 80.8944 184.266C80.7211 184.092 80.6344 183.859 80.6344 183.566C80.6344 183.259 80.7211 183.026 80.8944 182.866C81.0677 182.706 81.3144 182.626 81.6344 182.626H82.6744V180.806C82.6744 180.392 82.7811 180.079 82.9944 179.866C83.2211 179.652 83.5344 179.546 83.9344 179.546C84.3344 179.546 84.6411 179.652 84.8544 179.866C85.0677 180.079 85.1744 180.392 85.1744 180.806V182.626H87.2944C87.6144 182.626 87.8611 182.706 88.0344 182.866C88.2077 183.026 88.2944 183.259 88.2944 183.566C88.2944 183.859 88.2077 184.092 88.0344 184.266C87.8611 184.426 87.6144 184.506 87.2944 184.506H85.1744V188.626C85.1744 189.266 85.3144 189.746 85.5944 190.066C85.8744 190.386 86.3277 190.546 86.9544 190.546C87.1811 190.546 87.3811 190.526 87.5544 190.486C87.7277 190.446 87.8811 190.419 88.0144 190.406C88.1744 190.392 88.3077 190.446 88.4144 190.566C88.5211 190.672 88.5744 190.899 88.5744 191.246C88.5744 191.512 88.5277 191.752 88.4344 191.966C88.3544 192.166 88.2011 192.306 87.9744 192.386C87.8011 192.439 87.5744 192.486 87.2944 192.526C87.0144 192.579 86.7677 192.606 86.5544 192.606ZM92.9702 192.606C92.2635 192.606 91.6302 192.472 91.0702 192.206C90.5235 191.926 90.0902 191.552 89.7702 191.086C89.4635 190.619 89.3102 190.092 89.3102 189.506C89.3102 188.786 89.4969 188.219 89.8702 187.806C90.2435 187.379 90.8502 187.072 91.6902 186.886C92.5302 186.699 93.6569 186.606 95.0702 186.606H96.0702V188.046H95.0902C94.2635 188.046 93.6035 188.086 93.1102 188.166C92.6169 188.246 92.2635 188.386 92.0502 188.586C91.8502 188.772 91.7502 189.039 91.7502 189.386C91.7502 189.826 91.9035 190.186 92.2102 190.466C92.5169 190.746 92.9435 190.886 93.4902 190.886C93.9302 190.886 94.3169 190.786 94.6502 190.586C94.9969 190.372 95.2702 190.086 95.4702 189.726C95.6702 189.366 95.7702 188.952 95.7702 188.486V186.186C95.7702 185.519 95.6235 185.039 95.3302 184.746C95.0369 184.452 94.5435 184.306 93.8502 184.306C93.4635 184.306 93.0435 184.352 92.5902 184.446C92.1502 184.539 91.6835 184.699 91.1902 184.926C90.9369 185.046 90.7102 185.079 90.5102 185.026C90.3235 184.972 90.1769 184.866 90.0702 184.706C89.9635 184.532 89.9102 184.346 89.9102 184.146C89.9102 183.946 89.9635 183.752 90.0702 183.566C90.1769 183.366 90.3569 183.219 90.6102 183.126C91.2235 182.872 91.8102 182.692 92.3702 182.586C92.9435 182.479 93.4635 182.426 93.9302 182.426C94.8902 182.426 95.6769 182.572 96.2902 182.866C96.9169 183.159 97.3835 183.606 97.6902 184.206C97.9969 184.792 98.1502 185.552 98.1502 186.486V191.286C98.1502 191.699 98.0502 192.019 97.8502 192.246C97.6502 192.459 97.3635 192.566 96.9902 192.566C96.6169 192.566 96.3235 192.459 96.1102 192.246C95.9102 192.019 95.8102 191.699 95.8102 191.286V190.326H95.9702C95.8769 190.792 95.6902 191.199 95.4102 191.546C95.1435 191.879 94.8035 192.139 94.3902 192.326C93.9769 192.512 93.5035 192.606 92.9702 192.606ZM104.028 192.606C102.921 192.606 102.088 192.292 101.528 191.666C100.968 191.026 100.688 190.092 100.688 188.866V179.406C100.688 178.992 100.794 178.679 101.008 178.466C101.221 178.252 101.528 178.146 101.928 178.146C102.328 178.146 102.634 178.252 102.848 178.466C103.074 178.679 103.188 178.992 103.188 179.406V188.746C103.188 189.359 103.314 189.812 103.568 190.106C103.834 190.399 104.208 190.546 104.688 190.546C104.794 190.546 104.894 190.546 104.988 190.546C105.081 190.532 105.174 190.519 105.268 190.506C105.454 190.479 105.581 190.532 105.648 190.666C105.714 190.786 105.748 191.039 105.748 191.426C105.748 191.759 105.681 192.019 105.548 192.206C105.414 192.392 105.194 192.506 104.888 192.546C104.754 192.559 104.614 192.572 104.468 192.586C104.321 192.599 104.174 192.606 104.028 192.606ZM113.944 192.566C113.571 192.566 113.284 192.459 113.084 192.246C112.884 192.032 112.784 191.739 112.784 191.366V179.346C112.784 178.959 112.891 178.666 113.104 178.466C113.317 178.252 113.611 178.146 113.984 178.146C114.317 178.146 114.577 178.212 114.764 178.346C114.964 178.466 115.144 178.679 115.304 178.986L120.244 188.126H119.604L124.544 178.986C124.704 178.679 124.877 178.466 125.064 178.346C125.251 178.212 125.511 178.146 125.844 178.146C126.217 178.146 126.504 178.252 126.704 178.466C126.904 178.666 127.004 178.959 127.004 179.346V191.366C127.004 191.739 126.904 192.032 126.704 192.246C126.517 192.459 126.231 192.566 125.844 192.566C125.471 192.566 125.184 192.459 124.984 192.246C124.784 192.032 124.684 191.739 124.684 191.366V182.106H125.124L120.924 189.766C120.791 189.992 120.651 190.159 120.504 190.266C120.357 190.372 120.157 190.426 119.904 190.426C119.651 190.426 119.444 190.372 119.284 190.266C119.124 190.146 118.984 189.979 118.864 189.766L114.624 182.086H115.104V191.366C115.104 191.739 115.004 192.032 114.804 192.246C114.617 192.459 114.331 192.566 113.944 192.566ZM133.087 192.606C132.381 192.606 131.747 192.472 131.187 192.206C130.641 191.926 130.207 191.552 129.887 191.086C129.581 190.619 129.427 190.092 129.427 189.506C129.427 188.786 129.614 188.219 129.987 187.806C130.361 187.379 130.967 187.072 131.807 186.886C132.647 186.699 133.774 186.606 135.187 186.606H136.187V188.046H135.207C134.381 188.046 133.721 188.086 133.227 188.166C132.734 188.246 132.381 188.386 132.167 188.586C131.967 188.772 131.867 189.039 131.867 189.386C131.867 189.826 132.021 190.186 132.327 190.466C132.634 190.746 133.061 190.886 133.607 190.886C134.047 190.886 134.434 190.786 134.767 190.586C135.114 190.372 135.387 190.086 135.587 189.726C135.787 189.366 135.887 188.952 135.887 188.486V186.186C135.887 185.519 135.741 185.039 135.447 184.746C135.154 184.452 134.661 184.306 133.967 184.306C133.581 184.306 133.161 184.352 132.707 184.446C132.267 184.539 131.801 184.699 131.307 184.926C131.054 185.046 130.827 185.079 130.627 185.026C130.441 184.972 130.294 184.866 130.187 184.706C130.081 184.532 130.027 184.346 130.027 184.146C130.027 183.946 130.081 183.752 130.187 183.566C130.294 183.366 130.474 183.219 130.727 183.126C131.341 182.872 131.927 182.692 132.487 182.586C133.061 182.479 133.581 182.426 134.047 182.426C135.007 182.426 135.794 182.572 136.407 182.866C137.034 183.159 137.501 183.606 137.807 184.206C138.114 184.792 138.267 185.552 138.267 186.486V191.286C138.267 191.699 138.167 192.019 137.967 192.246C137.767 192.459 137.481 192.566 137.107 192.566C136.734 192.566 136.441 192.459 136.227 192.246C136.027 192.019 135.927 191.699 135.927 191.286V190.326H136.087C135.994 190.792 135.807 191.199 135.527 191.546C135.261 191.879 134.921 192.139 134.507 192.326C134.094 192.512 133.621 192.606 133.087 192.606ZM142.085 192.566C141.672 192.566 141.352 192.459 141.125 192.246C140.912 192.019 140.805 191.699 140.805 191.286V183.726C140.805 183.312 140.912 182.999 141.125 182.786C141.338 182.572 141.638 182.466 142.025 182.466C142.412 182.466 142.712 182.572 142.925 182.786C143.138 182.999 143.245 183.312 143.245 183.726V184.986H143.045C143.232 184.186 143.598 183.579 144.145 183.166C144.692 182.752 145.418 182.506 146.325 182.426C146.605 182.399 146.825 182.472 146.985 182.646C147.158 182.806 147.258 183.059 147.285 183.406C147.312 183.739 147.232 184.012 147.045 184.226C146.872 184.426 146.605 184.546 146.245 184.586L145.805 184.626C144.992 184.706 144.378 184.959 143.965 185.386C143.552 185.799 143.345 186.386 143.345 187.146V191.286C143.345 191.699 143.238 192.019 143.025 192.246C142.812 192.459 142.498 192.566 142.085 192.566ZM149.877 192.566C149.477 192.566 149.17 192.459 148.957 192.246C148.744 192.019 148.637 191.699 148.637 191.286V179.406C148.637 178.992 148.744 178.679 148.957 178.466C149.17 178.252 149.477 178.146 149.877 178.146C150.277 178.146 150.584 178.252 150.797 178.466C151.024 178.679 151.137 178.992 151.137 179.406V186.786H151.177L154.477 183.306C154.744 183.039 154.977 182.832 155.177 182.686C155.377 182.539 155.65 182.466 155.997 182.466C156.344 182.466 156.604 182.559 156.777 182.746C156.964 182.919 157.057 183.132 157.057 183.386C157.057 183.639 156.937 183.892 156.697 184.146L153.217 187.826V186.786L157.037 190.906C157.277 191.159 157.384 191.419 157.357 191.686C157.344 191.939 157.237 192.152 157.037 192.326C156.837 192.486 156.584 192.566 156.277 192.566C155.904 192.566 155.604 192.492 155.377 192.346C155.164 192.199 154.924 191.979 154.657 191.686L151.177 188.046H151.137V191.286C151.137 192.139 150.717 192.566 149.877 192.566ZM163.984 192.606C162.878 192.606 161.924 192.399 161.124 191.986C160.324 191.572 159.704 190.986 159.264 190.226C158.838 189.466 158.624 188.566 158.624 187.526C158.624 186.512 158.831 185.626 159.244 184.866C159.671 184.106 160.251 183.512 160.984 183.086C161.731 182.646 162.578 182.426 163.524 182.426C164.218 182.426 164.838 182.539 165.384 182.766C165.944 182.992 166.418 183.319 166.804 183.746C167.204 184.172 167.504 184.692 167.704 185.306C167.918 185.906 168.024 186.586 168.024 187.346C168.024 187.586 167.938 187.772 167.764 187.906C167.604 188.026 167.371 188.086 167.064 188.086H160.644V186.646H166.264L165.944 186.946C165.944 186.332 165.851 185.819 165.664 185.406C165.491 184.992 165.231 184.679 164.884 184.466C164.551 184.239 164.131 184.126 163.624 184.126C163.064 184.126 162.584 184.259 162.184 184.526C161.798 184.779 161.498 185.146 161.284 185.626C161.084 186.092 160.984 186.652 160.984 187.306V187.446C160.984 188.539 161.238 189.359 161.744 189.906C162.264 190.439 163.024 190.706 164.024 190.706C164.371 190.706 164.758 190.666 165.184 190.586C165.624 190.492 166.038 190.339 166.424 190.126C166.704 189.966 166.951 189.899 167.164 189.926C167.378 189.939 167.544 190.012 167.664 190.146C167.798 190.279 167.878 190.446 167.904 190.646C167.931 190.832 167.891 191.026 167.784 191.226C167.691 191.426 167.524 191.599 167.284 191.746C166.818 192.039 166.278 192.259 165.664 192.406C165.064 192.539 164.504 192.606 163.984 192.606ZM174.445 192.606C173.578 192.606 172.852 192.459 172.265 192.166C171.692 191.872 171.265 191.446 170.985 190.886C170.705 190.312 170.565 189.606 170.565 188.766V184.506H169.525C169.205 184.506 168.958 184.426 168.785 184.266C168.612 184.092 168.525 183.859 168.525 183.566C168.525 183.259 168.612 183.026 168.785 182.866C168.958 182.706 169.205 182.626 169.525 182.626H170.565V180.806C170.565 180.392 170.672 180.079 170.885 179.866C171.112 179.652 171.425 179.546 171.825 179.546C172.225 179.546 172.532 179.652 172.745 179.866C172.958 180.079 173.065 180.392 173.065 180.806V182.626H175.185C175.505 182.626 175.752 182.706 175.925 182.866C176.098 183.026 176.185 183.259 176.185 183.566C176.185 183.859 176.098 184.092 175.925 184.266C175.752 184.426 175.505 184.506 175.185 184.506H173.065V188.626C173.065 189.266 173.205 189.746 173.485 190.066C173.765 190.386 174.218 190.546 174.845 190.546C175.072 190.546 175.272 190.526 175.445 190.486C175.618 190.446 175.772 190.419 175.905 190.406C176.065 190.392 176.198 190.446 176.305 190.566C176.412 190.672 176.465 190.899 176.465 191.246C176.465 191.512 176.418 191.752 176.325 191.966C176.245 192.166 176.092 192.306 175.865 192.386C175.692 192.439 175.465 192.486 175.185 192.526C174.905 192.579 174.658 192.606 174.445 192.606ZM179.135 192.546C178.735 192.546 178.428 192.426 178.215 192.186C178.001 191.946 177.895 191.612 177.895 191.186V183.846C177.895 183.406 178.001 183.072 178.215 182.846C178.428 182.606 178.735 182.486 179.135 182.486C179.535 182.486 179.841 182.606 180.055 182.846C180.281 183.072 180.395 183.406 180.395 183.846V191.186C180.395 191.612 180.288 191.946 180.075 192.186C179.861 192.426 179.548 192.546 179.135 192.546ZM179.135 180.626C178.668 180.626 178.301 180.512 178.035 180.286C177.781 180.046 177.655 179.719 177.655 179.306C177.655 178.879 177.781 178.552 178.035 178.326C178.301 178.099 178.668 177.986 179.135 177.986C179.615 177.986 179.981 178.099 180.235 178.326C180.488 178.552 180.615 178.879 180.615 179.306C180.615 179.719 180.488 180.046 180.235 180.286C179.981 180.512 179.615 180.626 179.135 180.626ZM184.232 192.566C183.832 192.566 183.526 192.459 183.312 192.246C183.099 192.019 182.992 191.699 182.992 191.286V183.726C182.992 183.312 183.099 182.999 183.312 182.786C183.526 182.572 183.826 182.466 184.212 182.466C184.599 182.466 184.899 182.572 185.112 182.786C185.326 182.999 185.432 183.312 185.432 183.726V185.086L185.212 184.586C185.506 183.879 185.959 183.346 186.572 182.986C187.199 182.612 187.906 182.426 188.692 182.426C189.479 182.426 190.126 182.572 190.632 182.866C191.139 183.159 191.519 183.606 191.772 184.206C192.026 184.792 192.152 185.539 192.152 186.446V191.286C192.152 191.699 192.046 192.019 191.832 192.246C191.619 192.459 191.312 192.566 190.912 192.566C190.512 192.566 190.199 192.459 189.972 192.246C189.759 192.019 189.652 191.699 189.652 191.286V186.566C189.652 185.806 189.506 185.252 189.212 184.906C188.932 184.559 188.492 184.386 187.892 184.386C187.159 184.386 186.572 184.619 186.132 185.086C185.706 185.539 185.492 186.146 185.492 186.906V191.286C185.492 192.139 185.072 192.566 184.232 192.566ZM199.252 196.206C198.532 196.206 197.832 196.139 197.152 196.006C196.485 195.872 195.878 195.666 195.332 195.386C195.078 195.252 194.905 195.092 194.812 194.906C194.732 194.719 194.705 194.526 194.732 194.326C194.772 194.139 194.852 193.972 194.972 193.826C195.105 193.679 195.265 193.579 195.452 193.526C195.638 193.472 195.832 193.499 196.032 193.606C196.618 193.899 197.172 194.086 197.692 194.166C198.225 194.259 198.678 194.306 199.052 194.306C199.945 194.306 200.612 194.086 201.052 193.646C201.505 193.219 201.732 192.579 201.732 191.726V189.926H201.912C201.712 190.606 201.292 191.152 200.652 191.566C200.025 191.966 199.312 192.166 198.512 192.166C197.632 192.166 196.865 191.966 196.212 191.566C195.558 191.152 195.052 190.579 194.692 189.846C194.332 189.112 194.152 188.259 194.152 187.286C194.152 186.552 194.252 185.892 194.452 185.306C194.665 184.706 194.958 184.192 195.332 183.766C195.718 183.339 196.178 183.012 196.712 182.786C197.258 182.546 197.858 182.426 198.512 182.426C199.338 182.426 200.058 182.632 200.672 183.046C201.298 183.446 201.705 183.979 201.892 184.646L201.692 185.146V183.726C201.692 183.312 201.798 182.999 202.012 182.786C202.238 182.572 202.545 182.466 202.932 182.466C203.332 182.466 203.638 182.572 203.852 182.786C204.065 182.999 204.172 183.312 204.172 183.726V191.426C204.172 193.012 203.752 194.206 202.912 195.006C202.072 195.806 200.852 196.206 199.252 196.206ZM199.192 190.266C199.712 190.266 200.158 190.146 200.532 189.906C200.905 189.666 201.192 189.326 201.392 188.886C201.605 188.432 201.712 187.899 201.712 187.286C201.712 186.366 201.485 185.646 201.032 185.126C200.578 184.592 199.965 184.326 199.192 184.326C198.672 184.326 198.225 184.446 197.852 184.686C197.478 184.926 197.185 185.266 196.972 185.706C196.772 186.146 196.672 186.672 196.672 187.286C196.672 188.206 196.898 188.932 197.352 189.466C197.805 189.999 198.418 190.266 199.192 190.266Z" fill="#212D4D"/>
<path d="M44.4644 220.406V210.466H45.7244V219.286H51.2684V220.406H44.4644ZM55.5268 220.546C54.9762 220.546 54.4768 220.448 54.0288 220.252C53.5808 220.046 53.1935 219.771 52.8668 219.426C52.5402 219.071 52.2882 218.665 52.1108 218.208C51.9335 217.75 51.8448 217.27 51.8448 216.766C51.8448 216.252 51.9335 215.767 52.1108 215.31C52.2882 214.852 52.5402 214.451 52.8668 214.106C53.1935 213.751 53.5808 213.476 54.0288 213.28C54.4862 213.074 54.9855 212.972 55.5268 212.972C56.0775 212.972 56.5768 213.074 57.0248 213.28C57.4728 213.476 57.8602 213.751 58.1868 214.106C58.5228 214.451 58.7795 214.852 58.9568 215.31C59.1342 215.767 59.2228 216.252 59.2228 216.766C59.2228 217.27 59.1342 217.75 58.9568 218.208C58.7795 218.665 58.5275 219.071 58.2008 219.426C57.8742 219.771 57.4822 220.046 57.0248 220.252C56.5768 220.448 56.0775 220.546 55.5268 220.546ZM53.1048 216.78C53.1048 217.284 53.2122 217.741 53.4268 218.152C53.6508 218.562 53.9448 218.889 54.3088 219.132C54.6728 219.365 55.0788 219.482 55.5268 219.482C55.9748 219.482 56.3808 219.36 56.7448 219.118C57.1182 218.875 57.4122 218.548 57.6268 218.138C57.8508 217.718 57.9628 217.256 57.9628 216.752C57.9628 216.248 57.8508 215.79 57.6268 215.38C57.4122 214.969 57.1182 214.642 56.7448 214.4C56.3808 214.157 55.9748 214.036 55.5268 214.036C55.0788 214.036 54.6728 214.162 54.3088 214.414C53.9448 214.656 53.6508 214.983 53.4268 215.394C53.2122 215.804 53.1048 216.266 53.1048 216.78ZM64.5797 214.176C63.9637 214.185 63.4177 214.344 62.9417 214.652C62.475 214.95 62.1437 215.366 61.9477 215.898V220.406H60.7157V213.098H61.8637V214.792C62.1157 214.288 62.447 213.882 62.8577 213.574C63.2777 213.256 63.7163 213.079 64.1737 213.042C64.267 213.042 64.3463 213.042 64.4117 213.042C64.477 213.042 64.533 213.046 64.5797 213.056V214.176ZM68.8579 220.546C68.3072 220.546 67.8032 220.448 67.3459 220.252C66.8979 220.046 66.5059 219.771 66.1699 219.426C65.8432 219.071 65.5865 218.665 65.3999 218.208C65.2225 217.75 65.1339 217.265 65.1339 216.752C65.1339 216.061 65.2925 215.431 65.6099 214.862C65.9272 214.292 66.3659 213.835 66.9259 213.49C67.4952 213.144 68.1439 212.972 68.8719 212.972C69.6092 212.972 70.2485 213.149 70.7899 213.504C71.3405 213.849 71.7652 214.306 72.0639 214.876C72.3719 215.436 72.5259 216.042 72.5259 216.696C72.5259 216.789 72.5212 216.882 72.5119 216.976C72.5119 217.06 72.5072 217.125 72.4979 217.172H66.4359C66.4732 217.648 66.6039 218.072 66.8279 218.446C67.0612 218.81 67.3599 219.099 67.7239 219.314C68.0879 219.519 68.4799 219.622 68.8999 219.622C69.3479 219.622 69.7679 219.51 70.1599 219.286C70.5612 219.062 70.8365 218.768 70.9859 218.404L72.0499 218.698C71.8912 219.052 71.6532 219.37 71.3359 219.65C71.0279 219.93 70.6592 220.149 70.2299 220.308C69.8099 220.466 69.3525 220.546 68.8579 220.546ZM66.3939 216.318H71.3779C71.3405 215.842 71.2052 215.422 70.9719 215.058C70.7385 214.694 70.4399 214.409 70.0759 214.204C69.7119 213.998 69.3105 213.896 68.8719 213.896C68.4425 213.896 68.0459 213.998 67.6819 214.204C67.3179 214.409 67.0192 214.694 66.7859 215.058C66.5619 215.422 66.4312 215.842 66.3939 216.318ZM84.9134 220.406H83.6814V216.318C83.6814 215.552 83.5554 214.988 83.3034 214.624C83.0607 214.26 82.6967 214.078 82.2114 214.078C81.7167 214.078 81.2687 214.26 80.8674 214.624C80.466 214.978 80.1814 215.44 80.0134 216.01V220.406H78.7814V216.318C78.7814 215.543 78.66 214.978 78.4174 214.624C78.1747 214.26 77.8107 214.078 77.3254 214.078C76.84 214.078 76.392 214.255 75.9814 214.61C75.58 214.955 75.2954 215.417 75.1274 215.996V220.406H73.8954V213.098H75.0154V214.666C75.314 214.124 75.7014 213.709 76.1774 213.42C76.6534 213.121 77.19 212.972 77.7874 212.972C78.394 212.972 78.8794 213.14 79.2434 213.476C79.6074 213.802 79.8314 214.227 79.9154 214.75C80.242 214.171 80.6387 213.732 81.1054 213.434C81.572 213.126 82.104 212.972 82.7014 212.972C83.1214 212.972 83.4714 213.051 83.7514 213.21C84.0407 213.359 84.2694 213.574 84.4374 213.854C84.6054 214.124 84.7267 214.446 84.8014 214.82C84.876 215.193 84.9134 215.599 84.9134 216.038V220.406ZM90.37 220.406V213.098H91.602V220.406H90.37ZM90.37 211.726V210.186H91.602V211.726H90.37ZM97.5305 220.546C96.9332 220.546 96.4012 220.396 95.9345 220.098C95.4679 219.799 95.0992 219.421 94.8285 218.964V223.388H93.5965V213.098H94.6885V214.47C94.9779 214.022 95.3559 213.662 95.8225 213.392C96.2892 213.112 96.7979 212.972 97.3485 212.972C97.8525 212.972 98.3145 213.074 98.7345 213.28C99.1545 213.485 99.5185 213.765 99.8265 214.12C100.135 214.474 100.373 214.88 100.541 215.338C100.718 215.786 100.807 216.257 100.807 216.752C100.807 217.442 100.667 218.077 100.387 218.656C100.116 219.234 99.7332 219.696 99.2385 220.042C98.7439 220.378 98.1745 220.546 97.5305 220.546ZM97.1525 219.482C97.5165 219.482 97.8432 219.407 98.1325 219.258C98.4312 219.099 98.6832 218.894 98.8885 218.642C99.1032 218.38 99.2665 218.086 99.3785 217.76C99.4905 217.433 99.5465 217.097 99.5465 216.752C99.5465 216.388 99.4812 216.042 99.3505 215.716C99.2292 215.389 99.0519 215.1 98.8185 214.848C98.5945 214.596 98.3285 214.4 98.0205 214.26C97.7219 214.11 97.3952 214.036 97.0405 214.036C96.8165 214.036 96.5832 214.078 96.3405 214.162C96.1072 214.246 95.8832 214.367 95.6685 214.526C95.4539 214.675 95.2719 214.848 95.1225 215.044C94.9732 215.24 94.8752 215.45 94.8285 215.674V217.76C94.9685 218.077 95.1552 218.366 95.3885 218.628C95.6219 218.889 95.8925 219.099 96.2005 219.258C96.5085 219.407 96.8259 219.482 97.1525 219.482ZM104.825 220.546C104.219 220.546 103.649 220.448 103.117 220.252C102.585 220.046 102.128 219.743 101.745 219.342L102.221 218.474C102.641 218.866 103.061 219.146 103.481 219.314C103.901 219.482 104.331 219.566 104.769 219.566C105.273 219.566 105.684 219.472 106.001 219.286C106.319 219.09 106.477 218.805 106.477 218.432C106.477 218.161 106.393 217.96 106.225 217.83C106.067 217.699 105.838 217.592 105.539 217.508C105.241 217.414 104.886 217.312 104.475 217.2C103.971 217.05 103.547 216.892 103.201 216.724C102.856 216.556 102.595 216.346 102.417 216.094C102.24 215.842 102.151 215.524 102.151 215.142C102.151 214.675 102.273 214.283 102.515 213.966C102.758 213.639 103.089 213.392 103.509 213.224C103.939 213.056 104.424 212.972 104.965 212.972C105.507 212.972 105.997 213.056 106.435 213.224C106.874 213.392 107.252 213.639 107.569 213.966L107.009 214.82C106.72 214.521 106.403 214.302 106.057 214.162C105.712 214.012 105.325 213.938 104.895 213.938C104.643 213.938 104.396 213.97 104.153 214.036C103.911 214.092 103.71 214.199 103.551 214.358C103.393 214.507 103.313 214.722 103.313 215.002C103.313 215.235 103.374 215.422 103.495 215.562C103.626 215.692 103.813 215.804 104.055 215.898C104.307 215.991 104.611 216.094 104.965 216.206C105.516 216.364 105.992 216.523 106.393 216.682C106.804 216.84 107.121 217.046 107.345 217.298C107.569 217.55 107.681 217.9 107.681 218.348C107.681 219.038 107.42 219.58 106.897 219.972C106.375 220.354 105.684 220.546 104.825 220.546ZM109.085 217.48V213.098H110.317V217.242C110.317 217.988 110.448 218.548 110.709 218.922C110.97 219.295 111.358 219.482 111.871 219.482C112.207 219.482 112.529 219.412 112.837 219.272C113.154 219.122 113.439 218.912 113.691 218.642C113.943 218.371 114.139 218.049 114.279 217.676V213.098H115.511V219.006C115.511 219.155 115.539 219.267 115.595 219.342C115.66 219.407 115.763 219.444 115.903 219.454V220.406C115.763 220.424 115.651 220.434 115.567 220.434C115.492 220.443 115.418 220.448 115.343 220.448C115.11 220.448 114.909 220.378 114.741 220.238C114.573 220.088 114.484 219.906 114.475 219.692L114.447 218.838C114.13 219.379 113.7 219.799 113.159 220.098C112.627 220.396 112.044 220.546 111.409 220.546C110.644 220.546 110.065 220.289 109.673 219.776C109.281 219.253 109.085 218.488 109.085 217.48ZM128.581 220.406H127.349V216.318C127.349 215.552 127.223 214.988 126.971 214.624C126.729 214.26 126.365 214.078 125.879 214.078C125.385 214.078 124.937 214.26 124.535 214.624C124.134 214.978 123.849 215.44 123.681 216.01V220.406H122.449V216.318C122.449 215.543 122.328 214.978 122.085 214.624C121.843 214.26 121.479 214.078 120.993 214.078C120.508 214.078 120.06 214.255 119.649 214.61C119.248 214.955 118.963 215.417 118.795 215.996V220.406H117.563V213.098H118.683V214.666C118.982 214.124 119.369 213.709 119.845 213.42C120.321 213.121 120.858 212.972 121.455 212.972C122.062 212.972 122.547 213.14 122.911 213.476C123.275 213.802 123.499 214.227 123.583 214.75C123.91 214.171 124.307 213.732 124.773 213.434C125.24 213.126 125.772 212.972 126.369 212.972C126.789 212.972 127.139 213.051 127.419 213.21C127.709 213.359 127.937 213.574 128.105 213.854C128.273 214.124 128.395 214.446 128.469 214.82C128.544 215.193 128.581 215.599 128.581 216.038V220.406ZM133.562 216.766C133.562 216.075 133.702 215.445 133.982 214.876C134.271 214.297 134.663 213.835 135.158 213.49C135.662 213.144 136.236 212.972 136.88 212.972C137.468 212.972 137.995 213.126 138.462 213.434C138.929 213.742 139.293 214.115 139.554 214.554V210.186H140.786V219.006C140.786 219.155 140.814 219.267 140.87 219.342C140.935 219.407 141.038 219.444 141.178 219.454V220.406C140.945 220.443 140.763 220.462 140.632 220.462C140.389 220.462 140.175 220.378 139.988 220.21C139.811 220.042 139.722 219.855 139.722 219.65V219.034C139.433 219.5 139.045 219.869 138.56 220.14C138.075 220.41 137.571 220.546 137.048 220.546C136.544 220.546 136.077 220.448 135.648 220.252C135.228 220.046 134.859 219.766 134.542 219.412C134.234 219.057 133.991 218.656 133.814 218.208C133.646 217.75 133.562 217.27 133.562 216.766ZM139.554 217.844V215.744C139.442 215.426 139.26 215.142 139.008 214.89C138.756 214.628 138.471 214.423 138.154 214.274C137.846 214.115 137.538 214.036 137.23 214.036C136.866 214.036 136.535 214.115 136.236 214.274C135.947 214.423 135.695 214.628 135.48 214.89C135.275 215.142 135.116 215.431 135.004 215.758C134.892 216.084 134.836 216.425 134.836 216.78C134.836 217.144 134.897 217.489 135.018 217.816C135.149 218.142 135.326 218.432 135.55 218.684C135.783 218.936 136.049 219.132 136.348 219.272C136.656 219.412 136.987 219.482 137.342 219.482C137.566 219.482 137.795 219.44 138.028 219.356C138.271 219.272 138.499 219.155 138.714 219.006C138.929 218.856 139.111 218.684 139.26 218.488C139.409 218.282 139.507 218.068 139.554 217.844ZM146.035 220.546C145.484 220.546 144.985 220.448 144.537 220.252C144.089 220.046 143.701 219.771 143.375 219.426C143.048 219.071 142.796 218.665 142.619 218.208C142.441 217.75 142.353 217.27 142.353 216.766C142.353 216.252 142.441 215.767 142.619 215.31C142.796 214.852 143.048 214.451 143.375 214.106C143.701 213.751 144.089 213.476 144.537 213.28C144.994 213.074 145.493 212.972 146.035 212.972C146.585 212.972 147.085 213.074 147.533 213.28C147.981 213.476 148.368 213.751 148.695 214.106C149.031 214.451 149.287 214.852 149.465 215.31C149.642 215.767 149.731 216.252 149.731 216.766C149.731 217.27 149.642 217.75 149.465 218.208C149.287 218.665 149.035 219.071 148.709 219.426C148.382 219.771 147.99 220.046 147.533 220.252C147.085 220.448 146.585 220.546 146.035 220.546ZM143.613 216.78C143.613 217.284 143.72 217.741 143.935 218.152C144.159 218.562 144.453 218.889 144.817 219.132C145.181 219.365 145.587 219.482 146.035 219.482C146.483 219.482 146.889 219.36 147.253 219.118C147.626 218.875 147.92 218.548 148.135 218.138C148.359 217.718 148.471 217.256 148.471 216.752C148.471 216.248 148.359 215.79 148.135 215.38C147.92 214.969 147.626 214.642 147.253 214.4C146.889 214.157 146.483 214.036 146.035 214.036C145.587 214.036 145.181 214.162 144.817 214.414C144.453 214.656 144.159 214.983 143.935 215.394C143.72 215.804 143.613 216.266 143.613 216.78ZM151.251 210.186H152.483V218.516C152.483 218.917 152.539 219.164 152.651 219.258C152.763 219.351 152.899 219.398 153.057 219.398C153.253 219.398 153.44 219.379 153.617 219.342C153.795 219.295 153.944 219.248 154.065 219.202L154.261 220.21C154.056 220.294 153.813 220.364 153.533 220.42C153.253 220.476 153.006 220.504 152.791 220.504C152.315 220.504 151.937 220.368 151.657 220.098C151.387 219.827 151.251 219.449 151.251 218.964V210.186ZM158.421 220.546C157.871 220.546 157.371 220.448 156.923 220.252C156.475 220.046 156.088 219.771 155.761 219.426C155.435 219.071 155.183 218.665 155.005 218.208C154.828 217.75 154.739 217.27 154.739 216.766C154.739 216.252 154.828 215.767 155.005 215.31C155.183 214.852 155.435 214.451 155.761 214.106C156.088 213.751 156.475 213.476 156.923 213.28C157.381 213.074 157.88 212.972 158.421 212.972C158.972 212.972 159.471 213.074 159.919 213.28C160.367 213.476 160.755 213.751 161.081 214.106C161.417 214.451 161.674 214.852 161.851 215.31C162.029 215.767 162.117 216.252 162.117 216.766C162.117 217.27 162.029 217.75 161.851 218.208C161.674 218.665 161.422 219.071 161.095 219.426C160.769 219.771 160.377 220.046 159.919 220.252C159.471 220.448 158.972 220.546 158.421 220.546ZM155.999 216.78C155.999 217.284 156.107 217.741 156.321 218.152C156.545 218.562 156.839 218.889 157.203 219.132C157.567 219.365 157.973 219.482 158.421 219.482C158.869 219.482 159.275 219.36 159.639 219.118C160.013 218.875 160.307 218.548 160.521 218.138C160.745 217.718 160.857 217.256 160.857 216.752C160.857 216.248 160.745 215.79 160.521 215.38C160.307 214.969 160.013 214.642 159.639 214.4C159.275 214.157 158.869 214.036 158.421 214.036C157.973 214.036 157.567 214.162 157.203 214.414C156.839 214.656 156.545 214.983 156.321 215.394C156.107 215.804 155.999 216.266 155.999 216.78ZM167.474 214.176C166.858 214.185 166.312 214.344 165.836 214.652C165.37 214.95 165.038 215.366 164.842 215.898V220.406H163.61V213.098H164.758V214.792C165.01 214.288 165.342 213.882 165.752 213.574C166.172 213.256 166.611 213.079 167.068 213.042C167.162 213.042 167.241 213.042 167.306 213.042C167.372 213.042 167.428 213.046 167.474 213.056V214.176ZM174.415 220.546C173.808 220.546 173.239 220.448 172.707 220.252C172.175 220.046 171.718 219.743 171.335 219.342L171.811 218.474C172.231 218.866 172.651 219.146 173.071 219.314C173.491 219.482 173.92 219.566 174.359 219.566C174.863 219.566 175.274 219.472 175.591 219.286C175.908 219.09 176.067 218.805 176.067 218.432C176.067 218.161 175.983 217.96 175.815 217.83C175.656 217.699 175.428 217.592 175.129 217.508C174.83 217.414 174.476 217.312 174.065 217.2C173.561 217.05 173.136 216.892 172.791 216.724C172.446 216.556 172.184 216.346 172.007 216.094C171.83 215.842 171.741 215.524 171.741 215.142C171.741 214.675 171.862 214.283 172.105 213.966C172.348 213.639 172.679 213.392 173.099 213.224C173.528 213.056 174.014 212.972 174.555 212.972C175.096 212.972 175.586 213.056 176.025 213.224C176.464 213.392 176.842 213.639 177.159 213.966L176.599 214.82C176.31 214.521 175.992 214.302 175.647 214.162C175.302 214.012 174.914 213.938 174.485 213.938C174.233 213.938 173.986 213.97 173.743 214.036C173.5 214.092 173.3 214.199 173.141 214.358C172.982 214.507 172.903 214.722 172.903 215.002C172.903 215.235 172.964 215.422 173.085 215.562C173.216 215.692 173.402 215.804 173.645 215.898C173.897 215.991 174.2 216.094 174.555 216.206C175.106 216.364 175.582 216.523 175.983 216.682C176.394 216.84 176.711 217.046 176.935 217.298C177.159 217.55 177.271 217.9 177.271 218.348C177.271 219.038 177.01 219.58 176.487 219.972C175.964 220.354 175.274 220.546 174.415 220.546ZM178.745 220.406V213.098H179.977V220.406H178.745ZM178.745 211.726V210.186H179.977V211.726H178.745ZM185.752 220.042C185.649 220.088 185.509 220.149 185.332 220.224C185.154 220.298 184.949 220.364 184.716 220.42C184.482 220.476 184.235 220.504 183.974 220.504C183.675 220.504 183.4 220.452 183.148 220.35C182.896 220.238 182.695 220.07 182.546 219.846C182.396 219.612 182.322 219.323 182.322 218.978V214.064H181.328V213.098H182.322V210.662H183.554V213.098H185.192V214.064H183.554V218.6C183.572 218.861 183.661 219.057 183.82 219.188C183.978 219.309 184.165 219.37 184.38 219.37C184.622 219.37 184.846 219.328 185.052 219.244C185.257 219.16 185.392 219.099 185.458 219.062L185.752 220.042ZM189.86 218.292C189.86 217.825 189.991 217.424 190.252 217.088C190.523 216.742 190.892 216.476 191.358 216.29C191.825 216.103 192.366 216.01 192.982 216.01C193.309 216.01 193.654 216.038 194.018 216.094C194.382 216.14 194.704 216.215 194.984 216.318V215.786C194.984 215.226 194.816 214.787 194.48 214.47C194.144 214.143 193.668 213.98 193.052 213.98C192.651 213.98 192.264 214.054 191.89 214.204C191.526 214.344 191.139 214.549 190.728 214.82L190.28 213.952C190.756 213.625 191.232 213.382 191.708 213.224C192.184 213.056 192.679 212.972 193.192 212.972C194.126 212.972 194.863 213.233 195.404 213.756C195.946 214.269 196.216 214.988 196.216 215.912V219.006C196.216 219.155 196.244 219.267 196.3 219.342C196.366 219.407 196.468 219.444 196.608 219.454V220.406C196.487 220.424 196.38 220.438 196.286 220.448C196.202 220.457 196.132 220.462 196.076 220.462C195.787 220.462 195.568 220.382 195.418 220.224C195.278 220.065 195.199 219.897 195.18 219.72L195.152 219.258C194.835 219.668 194.42 219.986 193.906 220.21C193.393 220.434 192.884 220.546 192.38 220.546C191.895 220.546 191.461 220.448 191.078 220.252C190.696 220.046 190.397 219.776 190.182 219.44C189.968 219.094 189.86 218.712 189.86 218.292ZM194.62 218.81C194.732 218.679 194.821 218.548 194.886 218.418C194.952 218.278 194.984 218.161 194.984 218.068V217.158C194.695 217.046 194.392 216.962 194.074 216.906C193.757 216.84 193.444 216.808 193.136 216.808C192.511 216.808 192.002 216.934 191.61 217.186C191.228 217.428 191.036 217.764 191.036 218.194C191.036 218.427 191.097 218.656 191.218 218.88C191.349 219.094 191.536 219.272 191.778 219.412C192.03 219.552 192.338 219.622 192.702 219.622C193.085 219.622 193.449 219.547 193.794 219.398C194.14 219.239 194.415 219.043 194.62 218.81ZM209.204 220.406H207.972V216.318C207.972 215.552 207.846 214.988 207.594 214.624C207.352 214.26 206.988 214.078 206.502 214.078C206.008 214.078 205.56 214.26 205.158 214.624C204.757 214.978 204.472 215.44 204.304 216.01V220.406H203.072V216.318C203.072 215.543 202.951 214.978 202.708 214.624C202.466 214.26 202.102 214.078 201.616 214.078C201.131 214.078 200.683 214.255 200.272 214.61C199.871 214.955 199.586 215.417 199.418 215.996V220.406H198.186V213.098H199.306V214.666C199.605 214.124 199.992 213.709 200.468 213.42C200.944 213.121 201.481 212.972 202.078 212.972C202.685 212.972 203.17 213.14 203.534 213.476C203.898 213.802 204.122 214.227 204.206 214.75C204.533 214.171 204.93 213.732 205.396 213.434C205.863 213.126 206.395 212.972 206.992 212.972C207.412 212.972 207.762 213.051 208.042 213.21C208.332 213.359 208.56 213.574 208.728 213.854C208.896 214.124 209.018 214.446 209.092 214.82C209.167 215.193 209.204 215.599 209.204 216.038V220.406ZM214.354 220.546C213.803 220.546 213.299 220.448 212.842 220.252C212.394 220.046 212.002 219.771 211.666 219.426C211.339 219.071 211.083 218.665 210.896 218.208C210.719 217.75 210.63 217.265 210.63 216.752C210.63 216.061 210.789 215.431 211.106 214.862C211.423 214.292 211.862 213.835 212.422 213.49C212.991 213.144 213.64 212.972 214.368 212.972C215.105 212.972 215.745 213.149 216.286 213.504C216.837 213.849 217.261 214.306 217.56 214.876C217.868 215.436 218.022 216.042 218.022 216.696C218.022 216.789 218.017 216.882 218.008 216.976C218.008 217.06 218.003 217.125 217.994 217.172H211.932C211.969 217.648 212.1 218.072 212.324 218.446C212.557 218.81 212.856 219.099 213.22 219.314C213.584 219.519 213.976 219.622 214.396 219.622C214.844 219.622 215.264 219.51 215.656 219.286C216.057 219.062 216.333 218.768 216.482 218.404L217.546 218.698C217.387 219.052 217.149 219.37 216.832 219.65C216.524 219.93 216.155 220.149 215.726 220.308C215.306 220.466 214.849 220.546 214.354 220.546ZM211.89 216.318H216.874C216.837 215.842 216.701 215.422 216.468 215.058C216.235 214.694 215.936 214.409 215.572 214.204C215.208 213.998 214.807 213.896 214.368 213.896C213.939 213.896 213.542 213.998 213.178 214.204C212.814 214.409 212.515 214.694 212.282 215.058C212.058 215.422 211.927 215.842 211.89 216.318ZM223.103 220.042C223 220.088 222.86 220.149 222.683 220.224C222.506 220.298 222.3 220.364 222.067 220.42C221.834 220.476 221.586 220.504 221.325 220.504C221.026 220.504 220.751 220.452 220.499 220.35C220.247 220.238 220.046 220.07 219.897 219.846C219.748 219.612 219.673 219.323 219.673 218.978V214.064H218.679V213.098H219.673V210.662H220.905V213.098H222.543V214.064H220.905V218.6C220.924 218.861 221.012 219.057 221.171 219.188C221.33 219.309 221.516 219.37 221.731 219.37C221.974 219.37 222.198 219.328 222.403 219.244C222.608 219.16 222.744 219.099 222.809 219.062L223.103 220.042ZM224.287 221.54L224.567 220.294H224.147V218.838H225.309V220.294L224.889 221.54H224.287ZM47.5024 241.546C46.9517 241.546 46.4477 241.448 45.9904 241.252C45.5424 241.046 45.1504 240.766 44.8144 240.412C44.4877 240.057 44.2311 239.651 44.0444 239.194C43.8671 238.736 43.7784 238.251 43.7784 237.738C43.7784 237.047 43.9324 236.417 44.2404 235.848C44.5484 235.278 44.9824 234.826 45.5424 234.49C46.1024 234.144 46.7511 233.972 47.4884 233.972C48.2071 233.972 48.8324 234.135 49.3644 234.462C49.9057 234.779 50.3071 235.208 50.5684 235.75L49.3644 236.128C49.1777 235.782 48.9164 235.516 48.5804 235.33C48.2444 235.134 47.8711 235.036 47.4604 235.036C47.0124 235.036 46.6017 235.152 46.2284 235.386C45.8644 235.619 45.5751 235.941 45.3604 236.352C45.1457 236.753 45.0384 237.215 45.0384 237.738C45.0384 238.251 45.1457 238.718 45.3604 239.138C45.5844 239.548 45.8784 239.875 46.2424 240.118C46.6157 240.36 47.0264 240.482 47.4744 240.482C47.7637 240.482 48.0391 240.43 48.3004 240.328C48.5711 240.225 48.8044 240.09 49.0004 239.922C49.2057 239.744 49.3457 239.553 49.4204 239.348L50.6244 239.712C50.4751 240.066 50.2464 240.384 49.9384 240.664C49.6397 240.934 49.2804 241.149 48.8604 241.308C48.4497 241.466 47.9971 241.546 47.5024 241.546ZM55.144 241.546C54.5933 241.546 54.094 241.448 53.646 241.252C53.198 241.046 52.8107 240.771 52.484 240.426C52.1573 240.071 51.9053 239.665 51.728 239.208C51.5507 238.75 51.462 238.27 51.462 237.766C51.462 237.252 51.5507 236.767 51.728 236.31C51.9053 235.852 52.1573 235.451 52.484 235.106C52.8107 234.751 53.198 234.476 53.646 234.28C54.1033 234.074 54.6027 233.972 55.144 233.972C55.6947 233.972 56.194 234.074 56.642 234.28C57.09 234.476 57.4773 234.751 57.804 235.106C58.14 235.451 58.3967 235.852 58.574 236.31C58.7513 236.767 58.84 237.252 58.84 237.766C58.84 238.27 58.7513 238.75 58.574 239.208C58.3967 239.665 58.1447 240.071 57.818 240.426C57.4913 240.771 57.0993 241.046 56.642 241.252C56.194 241.448 55.6947 241.546 55.144 241.546ZM52.722 237.78C52.722 238.284 52.8293 238.741 53.044 239.152C53.268 239.562 53.562 239.889 53.926 240.132C54.29 240.365 54.696 240.482 55.144 240.482C55.592 240.482 55.998 240.36 56.362 240.118C56.7353 239.875 57.0293 239.548 57.244 239.138C57.468 238.718 57.58 238.256 57.58 237.752C57.58 237.248 57.468 236.79 57.244 236.38C57.0293 235.969 56.7353 235.642 56.362 235.4C55.998 235.157 55.592 235.036 55.144 235.036C54.696 235.036 54.29 235.162 53.926 235.414C53.562 235.656 53.268 235.983 53.044 236.394C52.8293 236.804 52.722 237.266 52.722 237.78ZM66.6749 241.406H65.4429V237.318C65.4429 236.543 65.3215 235.978 65.0789 235.624C64.8455 235.26 64.4862 235.078 64.0009 235.078C63.6649 235.078 63.3289 235.162 62.9929 235.33C62.6662 235.498 62.3722 235.726 62.1109 236.016C61.8589 236.296 61.6769 236.622 61.5649 236.996V241.406H60.3329V234.098H61.4529V235.666C61.6489 235.32 61.9009 235.022 62.2089 234.77C62.5169 234.518 62.8669 234.322 63.2589 234.182C63.6509 234.042 64.0615 233.972 64.4909 233.972C64.9109 233.972 65.2609 234.051 65.5409 234.21C65.8302 234.359 66.0542 234.574 66.2129 234.854C66.3809 235.124 66.4975 235.446 66.5629 235.82C66.6375 236.193 66.6749 236.599 66.6749 237.038V241.406ZM71.0967 241.546C70.49 241.546 69.9207 241.448 69.3887 241.252C68.8567 241.046 68.3993 240.743 68.0167 240.342L68.4927 239.474C68.9127 239.866 69.3327 240.146 69.7527 240.314C70.1727 240.482 70.602 240.566 71.0407 240.566C71.5447 240.566 71.9553 240.472 72.2727 240.286C72.59 240.09 72.7487 239.805 72.7487 239.432C72.7487 239.161 72.6647 238.96 72.4967 238.83C72.338 238.699 72.1093 238.592 71.8107 238.508C71.512 238.414 71.1573 238.312 70.7467 238.2C70.2427 238.05 69.818 237.892 69.4727 237.724C69.1273 237.556 68.866 237.346 68.6887 237.094C68.5113 236.842 68.4227 236.524 68.4227 236.142C68.4227 235.675 68.544 235.283 68.7867 234.966C69.0293 234.639 69.3607 234.392 69.7807 234.224C70.21 234.056 70.6953 233.972 71.2367 233.972C71.778 233.972 72.268 234.056 72.7067 234.224C73.1453 234.392 73.5233 234.639 73.8407 234.966L73.2807 235.82C72.9913 235.521 72.674 235.302 72.3287 235.162C71.9833 235.012 71.596 234.938 71.1667 234.938C70.9147 234.938 70.6673 234.97 70.4247 235.036C70.182 235.092 69.9813 235.199 69.8227 235.358C69.664 235.507 69.5847 235.722 69.5847 236.002C69.5847 236.235 69.6453 236.422 69.7667 236.562C69.8973 236.692 70.084 236.804 70.3267 236.898C70.5787 236.991 70.882 237.094 71.2367 237.206C71.7873 237.364 72.2633 237.523 72.6647 237.682C73.0753 237.84 73.3927 238.046 73.6167 238.298C73.8407 238.55 73.9527 238.9 73.9527 239.348C73.9527 240.038 73.6913 240.58 73.1687 240.972C72.646 241.354 71.9553 241.546 71.0967 241.546ZM78.6606 241.546C78.11 241.546 77.606 241.448 77.1486 241.252C76.7006 241.046 76.3086 240.771 75.9726 240.426C75.646 240.071 75.3893 239.665 75.2026 239.208C75.0253 238.75 74.9366 238.265 74.9366 237.752C74.9366 237.061 75.0953 236.431 75.4126 235.862C75.73 235.292 76.1686 234.835 76.7286 234.49C77.298 234.144 77.9466 233.972 78.6746 233.972C79.412 233.972 80.0513 234.149 80.5926 234.504C81.1433 234.849 81.568 235.306 81.8666 235.876C82.1746 236.436 82.3286 237.042 82.3286 237.696C82.3286 237.789 82.324 237.882 82.3146 237.976C82.3146 238.06 82.31 238.125 82.3006 238.172H76.2386C76.276 238.648 76.4066 239.072 76.6306 239.446C76.864 239.81 77.1626 240.099 77.5266 240.314C77.8906 240.519 78.2826 240.622 78.7026 240.622C79.1506 240.622 79.5706 240.51 79.9626 240.286C80.364 240.062 80.6393 239.768 80.7886 239.404L81.8526 239.698C81.694 240.052 81.456 240.37 81.1386 240.65C80.8306 240.93 80.462 241.149 80.0326 241.308C79.6126 241.466 79.1553 241.546 78.6606 241.546ZM76.1966 237.318H81.1806C81.1433 236.842 81.008 236.422 80.7746 236.058C80.5413 235.694 80.2426 235.409 79.8786 235.204C79.5146 234.998 79.1133 234.896 78.6746 234.896C78.2453 234.896 77.8486 234.998 77.4846 235.204C77.1206 235.409 76.822 235.694 76.5886 236.058C76.3646 236.422 76.234 236.842 76.1966 237.318ZM86.9321 241.546C86.3814 241.546 85.8774 241.448 85.4201 241.252C84.9721 241.046 84.5801 240.766 84.2441 240.412C83.9174 240.057 83.6608 239.651 83.4741 239.194C83.2968 238.736 83.2081 238.251 83.2081 237.738C83.2081 237.047 83.3621 236.417 83.6701 235.848C83.9781 235.278 84.4121 234.826 84.9721 234.49C85.5321 234.144 86.1808 233.972 86.9181 233.972C87.6368 233.972 88.2621 234.135 88.7941 234.462C89.3354 234.779 89.7368 235.208 89.9981 235.75L88.7941 236.128C88.6074 235.782 88.3461 235.516 88.0101 235.33C87.6741 235.134 87.3008 235.036 86.8901 235.036C86.4421 235.036 86.0314 235.152 85.6581 235.386C85.2941 235.619 85.0048 235.941 84.7901 236.352C84.5754 236.753 84.4681 237.215 84.4681 237.738C84.4681 238.251 84.5754 238.718 84.7901 239.138C85.0141 239.548 85.3081 239.875 85.6721 240.118C86.0454 240.36 86.4561 240.482 86.9041 240.482C87.1934 240.482 87.4688 240.43 87.7301 240.328C88.0008 240.225 88.2341 240.09 88.4301 239.922C88.6354 239.744 88.7754 239.553 88.8501 239.348L90.0541 239.712C89.9048 240.066 89.6761 240.384 89.3681 240.664C89.0694 240.934 88.7101 241.149 88.2901 241.308C87.8794 241.466 87.4268 241.546 86.9321 241.546ZM95.2301 241.042C95.1274 241.088 94.9874 241.149 94.8101 241.224C94.6327 241.298 94.4274 241.364 94.1941 241.42C93.9607 241.476 93.7134 241.504 93.4521 241.504C93.1534 241.504 92.8781 241.452 92.6261 241.35C92.3741 241.238 92.1734 241.07 92.0241 240.846C91.8747 240.612 91.8001 240.323 91.8001 239.978V235.064H90.8061V234.098H91.8001V231.662H93.0321V234.098H94.6701V235.064H93.0321V239.6C93.0507 239.861 93.1394 240.057 93.2981 240.188C93.4567 240.309 93.6434 240.37 93.8581 240.37C94.1007 240.37 94.3247 240.328 94.5301 240.244C94.7354 240.16 94.8707 240.099 94.9361 240.062L95.2301 241.042ZM99.5102 241.546C98.9596 241.546 98.4556 241.448 97.9982 241.252C97.5502 241.046 97.1582 240.771 96.8222 240.426C96.4956 240.071 96.2389 239.665 96.0522 239.208C95.8749 238.75 95.7862 238.265 95.7862 237.752C95.7862 237.061 95.9449 236.431 96.2622 235.862C96.5796 235.292 97.0182 234.835 97.5782 234.49C98.1476 234.144 98.7962 233.972 99.5242 233.972C100.262 233.972 100.901 234.149 101.442 234.504C101.993 234.849 102.418 235.306 102.716 235.876C103.024 236.436 103.178 237.042 103.178 237.696C103.178 237.789 103.174 237.882 103.164 237.976C103.164 238.06 103.16 238.125 103.15 238.172H97.0882C97.1256 238.648 97.2562 239.072 97.4802 239.446C97.7136 239.81 98.0122 240.099 98.3762 240.314C98.7402 240.519 99.1322 240.622 99.5522 240.622C100 240.622 100.42 240.51 100.812 240.286C101.214 240.062 101.489 239.768 101.638 239.404L102.702 239.698C102.544 240.052 102.306 240.37 101.988 240.65C101.68 240.93 101.312 241.149 100.882 241.308C100.462 241.466 100.005 241.546 99.5102 241.546ZM97.0462 237.318H102.03C101.993 236.842 101.858 236.422 101.624 236.058C101.391 235.694 101.092 235.409 100.728 235.204C100.364 234.998 99.9629 234.896 99.5242 234.896C99.0949 234.896 98.6982 234.998 98.3342 235.204C97.9702 235.409 97.6716 235.694 97.4382 236.058C97.2142 236.422 97.0836 236.842 97.0462 237.318ZM108.259 241.042C108.157 241.088 108.017 241.149 107.839 241.224C107.662 241.298 107.457 241.364 107.223 241.42C106.99 241.476 106.743 241.504 106.481 241.504C106.183 241.504 105.907 241.452 105.655 241.35C105.403 241.238 105.203 241.07 105.053 240.846C104.904 240.612 104.829 240.323 104.829 239.978V235.064H103.835V234.098H104.829V231.662H106.061V234.098H107.699V235.064H106.061V239.6C106.08 239.861 106.169 240.057 106.327 240.188C106.486 240.309 106.673 240.37 106.887 240.37C107.13 240.37 107.354 240.328 107.559 240.244C107.765 240.16 107.9 240.099 107.965 240.062L108.259 241.042ZM109.331 238.48V234.098H110.563V238.242C110.563 238.988 110.694 239.548 110.955 239.922C111.217 240.295 111.604 240.482 112.117 240.482C112.453 240.482 112.775 240.412 113.083 240.272C113.401 240.122 113.685 239.912 113.937 239.642C114.189 239.371 114.385 239.049 114.525 238.676V234.098H115.757V240.006C115.757 240.155 115.785 240.267 115.841 240.342C115.907 240.407 116.009 240.444 116.149 240.454V241.406C116.009 241.424 115.897 241.434 115.813 241.434C115.739 241.443 115.664 241.448 115.589 241.448C115.356 241.448 115.155 241.378 114.987 241.238C114.819 241.088 114.731 240.906 114.721 240.692L114.693 239.838C114.376 240.379 113.947 240.799 113.405 241.098C112.873 241.396 112.29 241.546 111.655 241.546C110.89 241.546 110.311 241.289 109.919 240.776C109.527 240.253 109.331 239.488 109.331 238.48ZM121.673 235.176C121.057 235.185 120.511 235.344 120.035 235.652C119.569 235.95 119.237 236.366 119.041 236.898V241.406H117.809V234.098H118.957V235.792C119.209 235.288 119.541 234.882 119.951 234.574C120.371 234.256 120.81 234.079 121.267 234.042C121.361 234.042 121.44 234.042 121.505 234.042C121.571 234.042 121.627 234.046 121.673 234.056V235.176ZM125.534 239.292C125.534 238.825 125.665 238.424 125.926 238.088C126.197 237.742 126.566 237.476 127.032 237.29C127.499 237.103 128.04 237.01 128.656 237.01C128.983 237.01 129.328 237.038 129.692 237.094C130.056 237.14 130.378 237.215 130.658 237.318V236.786C130.658 236.226 130.49 235.787 130.154 235.47C129.818 235.143 129.342 234.98 128.726 234.98C128.325 234.98 127.938 235.054 127.564 235.204C127.2 235.344 126.813 235.549 126.402 235.82L125.954 234.952C126.43 234.625 126.906 234.382 127.382 234.224C127.858 234.056 128.353 233.972 128.866 233.972C129.8 233.972 130.537 234.233 131.078 234.756C131.62 235.269 131.89 235.988 131.89 236.912V240.006C131.89 240.155 131.918 240.267 131.974 240.342C132.04 240.407 132.142 240.444 132.282 240.454V241.406C132.161 241.424 132.054 241.438 131.96 241.448C131.876 241.457 131.806 241.462 131.75 241.462C131.461 241.462 131.242 241.382 131.092 241.224C130.952 241.065 130.873 240.897 130.854 240.72L130.826 240.258C130.509 240.668 130.094 240.986 129.58 241.21C129.067 241.434 128.558 241.546 128.054 241.546C127.569 241.546 127.135 241.448 126.752 241.252C126.37 241.046 126.071 240.776 125.856 240.44C125.642 240.094 125.534 239.712 125.534 239.292ZM130.294 239.81C130.406 239.679 130.495 239.548 130.56 239.418C130.626 239.278 130.658 239.161 130.658 239.068V238.158C130.369 238.046 130.066 237.962 129.748 237.906C129.431 237.84 129.118 237.808 128.81 237.808C128.185 237.808 127.676 237.934 127.284 238.186C126.902 238.428 126.71 238.764 126.71 239.194C126.71 239.427 126.771 239.656 126.892 239.88C127.023 240.094 127.21 240.272 127.452 240.412C127.704 240.552 128.012 240.622 128.376 240.622C128.759 240.622 129.123 240.547 129.468 240.398C129.814 240.239 130.089 240.043 130.294 239.81ZM133.384 237.766C133.384 237.075 133.524 236.445 133.804 235.876C134.094 235.297 134.486 234.835 134.98 234.49C135.484 234.144 136.058 233.972 136.702 233.972C137.29 233.972 137.818 234.126 138.284 234.434C138.751 234.742 139.115 235.115 139.376 235.554V231.186H140.608V240.006C140.608 240.155 140.636 240.267 140.692 240.342C140.758 240.407 140.86 240.444 141 240.454V241.406C140.767 241.443 140.585 241.462 140.454 241.462C140.212 241.462 139.997 241.378 139.81 241.21C139.633 241.042 139.544 240.855 139.544 240.65V240.034C139.255 240.5 138.868 240.869 138.382 241.14C137.897 241.41 137.393 241.546 136.87 241.546C136.366 241.546 135.9 241.448 135.47 241.252C135.05 241.046 134.682 240.766 134.364 240.412C134.056 240.057 133.814 239.656 133.636 239.208C133.468 238.75 133.384 238.27 133.384 237.766ZM139.376 238.844V236.744C139.264 236.426 139.082 236.142 138.83 235.89C138.578 235.628 138.294 235.423 137.976 235.274C137.668 235.115 137.36 235.036 137.052 235.036C136.688 235.036 136.357 235.115 136.058 235.274C135.769 235.423 135.517 235.628 135.302 235.89C135.097 236.142 134.938 236.431 134.826 236.758C134.714 237.084 134.658 237.425 134.658 237.78C134.658 238.144 134.719 238.489 134.84 238.816C134.971 239.142 135.148 239.432 135.372 239.684C135.606 239.936 135.872 240.132 136.17 240.272C136.478 240.412 136.81 240.482 137.164 240.482C137.388 240.482 137.617 240.44 137.85 240.356C138.093 240.272 138.322 240.155 138.536 240.006C138.751 239.856 138.933 239.684 139.082 239.488C139.232 239.282 139.33 239.068 139.376 238.844ZM142.665 241.406V234.098H143.897V241.406H142.665ZM142.665 232.726V231.186H143.897V232.726H142.665ZM149.825 241.546C149.228 241.546 148.696 241.396 148.229 241.098C147.763 240.799 147.394 240.421 147.123 239.964V244.388H145.891V234.098H146.983V235.47C147.273 235.022 147.651 234.662 148.117 234.392C148.584 234.112 149.093 233.972 149.643 233.972C150.147 233.972 150.609 234.074 151.029 234.28C151.449 234.485 151.813 234.765 152.121 235.12C152.429 235.474 152.667 235.88 152.835 236.338C153.013 236.786 153.101 237.257 153.101 237.752C153.101 238.442 152.961 239.077 152.681 239.656C152.411 240.234 152.028 240.696 151.533 241.042C151.039 241.378 150.469 241.546 149.825 241.546ZM149.447 240.482C149.811 240.482 150.138 240.407 150.427 240.258C150.726 240.099 150.978 239.894 151.183 239.642C151.398 239.38 151.561 239.086 151.673 238.76C151.785 238.433 151.841 238.097 151.841 237.752C151.841 237.388 151.776 237.042 151.645 236.716C151.524 236.389 151.347 236.1 151.113 235.848C150.889 235.596 150.623 235.4 150.315 235.26C150.017 235.11 149.69 235.036 149.335 235.036C149.111 235.036 148.878 235.078 148.635 235.162C148.402 235.246 148.178 235.367 147.963 235.526C147.749 235.675 147.567 235.848 147.417 236.044C147.268 236.24 147.17 236.45 147.123 236.674V238.76C147.263 239.077 147.45 239.366 147.683 239.628C147.917 239.889 148.187 240.099 148.495 240.258C148.803 240.407 149.121 240.482 149.447 240.482ZM154.614 241.406V234.098H155.846V241.406H154.614ZM154.614 232.726V231.186H155.846V232.726H154.614ZM160.347 241.546C159.74 241.546 159.171 241.448 158.639 241.252C158.107 241.046 157.649 240.743 157.267 240.342L157.743 239.474C158.163 239.866 158.583 240.146 159.003 240.314C159.423 240.482 159.852 240.566 160.291 240.566C160.795 240.566 161.205 240.472 161.523 240.286C161.84 240.09 161.999 239.805 161.999 239.432C161.999 239.161 161.915 238.96 161.747 238.83C161.588 238.699 161.359 238.592 161.061 238.508C160.762 238.414 160.407 238.312 159.997 238.2C159.493 238.05 159.068 237.892 158.723 237.724C158.377 237.556 158.116 237.346 157.939 237.094C157.761 236.842 157.673 236.524 157.673 236.142C157.673 235.675 157.794 235.283 158.037 234.966C158.279 234.639 158.611 234.392 159.031 234.224C159.46 234.056 159.945 233.972 160.487 233.972C161.028 233.972 161.518 234.056 161.957 234.224C162.395 234.392 162.773 234.639 163.091 234.966L162.531 235.82C162.241 235.521 161.924 235.302 161.579 235.162C161.233 235.012 160.846 234.938 160.417 234.938C160.165 234.938 159.917 234.97 159.675 235.036C159.432 235.092 159.231 235.199 159.073 235.358C158.914 235.507 158.835 235.722 158.835 236.002C158.835 236.235 158.895 236.422 159.017 236.562C159.147 236.692 159.334 236.804 159.577 236.898C159.829 236.991 160.132 237.094 160.487 237.206C161.037 237.364 161.513 237.523 161.915 237.682C162.325 237.84 162.643 238.046 162.867 238.298C163.091 238.55 163.203 238.9 163.203 239.348C163.203 240.038 162.941 240.58 162.419 240.972C161.896 241.354 161.205 241.546 160.347 241.546ZM167.911 241.546C167.36 241.546 166.856 241.448 166.399 241.252C165.951 241.046 165.559 240.766 165.223 240.412C164.896 240.057 164.639 239.651 164.453 239.194C164.275 238.736 164.187 238.251 164.187 237.738C164.187 237.047 164.341 236.417 164.649 235.848C164.957 235.278 165.391 234.826 165.951 234.49C166.511 234.144 167.159 233.972 167.897 233.972C168.615 233.972 169.241 234.135 169.773 234.462C170.314 234.779 170.715 235.208 170.977 235.75L169.773 236.128C169.586 235.782 169.325 235.516 168.989 235.33C168.653 235.134 168.279 235.036 167.869 235.036C167.421 235.036 167.01 235.152 166.637 235.386C166.273 235.619 165.983 235.941 165.769 236.352C165.554 236.753 165.447 237.215 165.447 237.738C165.447 238.251 165.554 238.718 165.769 239.138C165.993 239.548 166.287 239.875 166.651 240.118C167.024 240.36 167.435 240.482 167.883 240.482C168.172 240.482 168.447 240.43 168.709 240.328C168.979 240.225 169.213 240.09 169.409 239.922C169.614 239.744 169.754 239.553 169.829 239.348L171.033 239.712C170.883 240.066 170.655 240.384 170.347 240.664C170.048 240.934 169.689 241.149 169.269 241.308C168.858 241.466 168.405 241.546 167.911 241.546ZM172.429 241.406V234.098H173.661V241.406H172.429ZM172.429 232.726V231.186H173.661V232.726H172.429ZM181.997 241.406H180.765V237.318C180.765 236.543 180.644 235.978 180.401 235.624C180.168 235.26 179.808 235.078 179.323 235.078C178.987 235.078 178.651 235.162 178.315 235.33C177.988 235.498 177.694 235.726 177.433 236.016C177.181 236.296 176.999 236.622 176.887 236.996V241.406H175.655V234.098H176.775V235.666C176.971 235.32 177.223 235.022 177.531 234.77C177.839 234.518 178.189 234.322 178.581 234.182C178.973 234.042 179.384 233.972 179.813 233.972C180.233 233.972 180.583 234.051 180.863 234.21C181.152 234.359 181.376 234.574 181.535 234.854C181.703 235.124 181.82 235.446 181.885 235.82C181.96 236.193 181.997 236.599 181.997 237.038V241.406ZM186.825 241.49C186.33 241.49 185.873 241.392 185.453 241.196C185.042 240.99 184.688 240.715 184.389 240.37C184.09 240.015 183.857 239.614 183.689 239.166C183.53 238.718 183.451 238.251 183.451 237.766C183.451 237.252 183.53 236.767 183.689 236.31C183.857 235.852 184.09 235.451 184.389 235.106C184.697 234.751 185.056 234.476 185.467 234.28C185.878 234.074 186.335 233.972 186.839 233.972C187.446 233.972 187.973 234.121 188.421 234.42C188.878 234.718 189.261 235.096 189.569 235.554V234.098H190.661V241.322C190.661 242.012 190.493 242.596 190.157 243.072C189.83 243.548 189.382 243.907 188.813 244.15C188.253 244.402 187.628 244.528 186.937 244.528C186.116 244.528 185.444 244.383 184.921 244.094C184.398 243.804 183.964 243.412 183.619 242.918L184.333 242.288C184.622 242.717 184.996 243.039 185.453 243.254C185.92 243.468 186.414 243.576 186.937 243.576C187.385 243.576 187.796 243.492 188.169 243.324C188.552 243.165 188.855 242.918 189.079 242.582C189.312 242.246 189.429 241.826 189.429 241.322V240.034C189.158 240.482 188.785 240.836 188.309 241.098C187.842 241.359 187.348 241.49 186.825 241.49ZM187.203 240.482C187.464 240.482 187.716 240.435 187.959 240.342C188.202 240.248 188.426 240.127 188.631 239.978C188.836 239.819 189.009 239.642 189.149 239.446C189.289 239.25 189.382 239.049 189.429 238.844V236.744C189.298 236.408 189.112 236.114 188.869 235.862C188.626 235.6 188.351 235.4 188.043 235.26C187.735 235.11 187.418 235.036 187.091 235.036C186.718 235.036 186.382 235.115 186.083 235.274C185.794 235.432 185.546 235.647 185.341 235.918C185.136 236.179 184.977 236.473 184.865 236.8C184.753 237.126 184.697 237.458 184.697 237.794C184.697 238.158 184.762 238.503 184.893 238.83C185.024 239.147 185.201 239.432 185.425 239.684C185.649 239.936 185.915 240.132 186.223 240.272C186.531 240.412 186.858 240.482 187.203 240.482ZM199.424 241.546C198.874 241.546 198.37 241.448 197.912 241.252C197.464 241.046 197.072 240.771 196.736 240.426C196.41 240.071 196.153 239.665 195.966 239.208C195.789 238.75 195.7 238.265 195.7 237.752C195.7 237.061 195.859 236.431 196.176 235.862C196.494 235.292 196.932 234.835 197.492 234.49C198.062 234.144 198.71 233.972 199.438 233.972C200.176 233.972 200.815 234.149 201.356 234.504C201.907 234.849 202.332 235.306 202.63 235.876C202.938 236.436 203.092 237.042 203.092 237.696C203.092 237.789 203.088 237.882 203.078 237.976C203.078 238.06 203.074 238.125 203.064 238.172H197.002C197.04 238.648 197.17 239.072 197.394 239.446C197.628 239.81 197.926 240.099 198.29 240.314C198.654 240.519 199.046 240.622 199.466 240.622C199.914 240.622 200.334 240.51 200.726 240.286C201.128 240.062 201.403 239.768 201.552 239.404L202.616 239.698C202.458 240.052 202.22 240.37 201.902 240.65C201.594 240.93 201.226 241.149 200.796 241.308C200.376 241.466 199.919 241.546 199.424 241.546ZM196.96 237.318H201.944C201.907 236.842 201.772 236.422 201.538 236.058C201.305 235.694 201.006 235.409 200.642 235.204C200.278 234.998 199.877 234.896 199.438 234.896C199.009 234.896 198.612 234.998 198.248 235.204C197.884 235.409 197.586 235.694 197.352 236.058C197.128 236.422 196.998 236.842 196.96 237.318ZM204.49 231.186H205.722V239.516C205.722 239.917 205.778 240.164 205.89 240.258C206.002 240.351 206.137 240.398 206.296 240.398C206.492 240.398 206.678 240.379 206.856 240.342C207.033 240.295 207.182 240.248 207.304 240.202L207.5 241.21C207.294 241.294 207.052 241.364 206.772 241.42C206.492 241.476 206.244 241.504 206.03 241.504C205.554 241.504 205.176 241.368 204.896 241.098C204.625 240.827 204.49 240.449 204.49 239.964V231.186ZM208.468 241.406V234.098H209.7V241.406H208.468ZM208.468 232.726V231.186H209.7V232.726H208.468ZM215.474 241.042C215.372 241.088 215.232 241.149 215.054 241.224C214.877 241.298 214.672 241.364 214.438 241.42C214.205 241.476 213.958 241.504 213.696 241.504C213.398 241.504 213.122 241.452 212.87 241.35C212.618 241.238 212.418 241.07 212.268 240.846C212.119 240.612 212.044 240.323 212.044 239.978V235.064H211.05V234.098H212.044V231.662H213.276V234.098H214.914V235.064H213.276V239.6C213.295 239.861 213.384 240.057 213.542 240.188C213.701 240.309 213.888 240.37 214.102 240.37C214.345 240.37 214.569 240.328 214.774 240.244C214.98 240.16 215.115 240.099 215.18 240.062L215.474 241.042ZM216.658 242.54L216.938 241.294H216.518V239.838H217.68V241.294L217.26 242.54H216.658ZM225.616 241.546C225.01 241.546 224.44 241.448 223.908 241.252C223.376 241.046 222.919 240.743 222.536 240.342L223.012 239.474C223.432 239.866 223.852 240.146 224.272 240.314C224.692 240.482 225.122 240.566 225.56 240.566C226.064 240.566 226.475 240.472 226.792 240.286C227.11 240.09 227.268 239.805 227.268 239.432C227.268 239.161 227.184 238.96 227.016 238.83C226.858 238.699 226.629 238.592 226.33 238.508C226.032 238.414 225.677 238.312 225.266 238.2C224.762 238.05 224.338 237.892 223.992 237.724C223.647 237.556 223.386 237.346 223.208 237.094C223.031 236.842 222.942 236.524 222.942 236.142C222.942 235.675 223.064 235.283 223.306 234.966C223.549 234.639 223.88 234.392 224.3 234.224C224.73 234.056 225.215 233.972 225.756 233.972C226.298 233.972 226.788 234.056 227.226 234.224C227.665 234.392 228.043 234.639 228.36 234.966L227.8 235.82C227.511 235.521 227.194 235.302 226.848 235.162C226.503 235.012 226.116 234.938 225.686 234.938C225.434 234.938 225.187 234.97 224.944 235.036C224.702 235.092 224.501 235.199 224.342 235.358C224.184 235.507 224.104 235.722 224.104 236.002C224.104 236.235 224.165 236.422 224.286 236.562C224.417 236.692 224.604 236.804 224.846 236.898C225.098 236.991 225.402 237.094 225.756 237.206C226.307 237.364 226.783 237.523 227.184 237.682C227.595 237.84 227.912 238.046 228.136 238.298C228.36 238.55 228.472 238.9 228.472 239.348C228.472 240.038 228.211 240.58 227.688 240.972C227.166 241.354 226.475 241.546 225.616 241.546ZM233.18 241.546C232.629 241.546 232.125 241.448 231.668 241.252C231.22 241.046 230.828 240.771 230.492 240.426C230.165 240.071 229.909 239.665 229.722 239.208C229.545 238.75 229.456 238.265 229.456 237.752C229.456 237.061 229.615 236.431 229.932 235.862C230.249 235.292 230.688 234.835 231.248 234.49C231.817 234.144 232.466 233.972 233.194 233.972C233.931 233.972 234.571 234.149 235.112 234.504C235.663 234.849 236.087 235.306 236.386 235.876C236.694 236.436 236.848 237.042 236.848 237.696C236.848 237.789 236.843 237.882 236.834 237.976C236.834 238.06 236.829 238.125 236.82 238.172H230.758C230.795 238.648 230.926 239.072 231.15 239.446C231.383 239.81 231.682 240.099 232.046 240.314C232.41 240.519 232.802 240.622 233.222 240.622C233.67 240.622 234.09 240.51 234.482 240.286C234.883 240.062 235.159 239.768 235.308 239.404L236.372 239.698C236.213 240.052 235.975 240.37 235.658 240.65C235.35 240.93 234.981 241.149 234.552 241.308C234.132 241.466 233.675 241.546 233.18 241.546ZM230.716 237.318H235.7C235.663 236.842 235.527 236.422 235.294 236.058C235.061 235.694 234.762 235.409 234.398 235.204C234.034 234.998 233.633 234.896 233.194 234.896C232.765 234.896 232.368 234.998 232.004 235.204C231.64 235.409 231.341 235.694 231.108 236.058C230.884 236.422 230.753 236.842 230.716 237.318ZM237.742 237.766C237.742 237.075 237.882 236.445 238.162 235.876C238.451 235.297 238.843 234.835 239.338 234.49C239.842 234.144 240.416 233.972 241.06 233.972C241.648 233.972 242.175 234.126 242.642 234.434C243.108 234.742 243.472 235.115 243.734 235.554V231.186H244.966V240.006C244.966 240.155 244.994 240.267 245.05 240.342C245.115 240.407 245.218 240.444 245.358 240.454V241.406C245.124 241.443 244.942 241.462 244.812 241.462C244.569 241.462 244.354 241.378 244.168 241.21C243.99 241.042 243.902 240.855 243.902 240.65V240.034C243.612 240.5 243.225 240.869 242.74 241.14C242.254 241.41 241.75 241.546 241.228 241.546C240.724 241.546 240.257 241.448 239.828 241.252C239.408 241.046 239.039 240.766 238.722 240.412C238.414 240.057 238.171 239.656 237.994 239.208C237.826 238.75 237.742 238.27 237.742 237.766ZM243.734 238.844V236.744C243.622 236.426 243.44 236.142 243.188 235.89C242.936 235.628 242.651 235.423 242.334 235.274C242.026 235.115 241.718 235.036 241.41 235.036C241.046 235.036 240.714 235.115 240.416 235.274C240.126 235.423 239.874 235.628 239.66 235.89C239.454 236.142 239.296 236.431 239.184 236.758C239.072 237.084 239.016 237.425 239.016 237.78C239.016 238.144 239.076 238.489 239.198 238.816C239.328 239.142 239.506 239.432 239.73 239.684C239.963 239.936 240.229 240.132 240.528 240.272C240.836 240.412 241.167 240.482 241.522 240.482C241.746 240.482 241.974 240.44 242.208 240.356C242.45 240.272 242.679 240.155 242.894 240.006C243.108 239.856 243.29 239.684 243.44 239.488C243.589 239.282 243.687 239.068 243.734 238.844ZM43.7924 258.766C43.7924 258.075 43.9324 257.445 44.2124 256.876C44.5017 256.297 44.8937 255.835 45.3884 255.49C45.8924 255.144 46.4664 254.972 47.1104 254.972C47.6984 254.972 48.2257 255.126 48.6924 255.434C49.1591 255.742 49.5231 256.115 49.7844 256.554V252.186H51.0164V261.006C51.0164 261.155 51.0444 261.267 51.1004 261.342C51.1657 261.407 51.2684 261.444 51.4084 261.454V262.406C51.1751 262.443 50.9931 262.462 50.8624 262.462C50.6197 262.462 50.4051 262.378 50.2184 262.21C50.0411 262.042 49.9524 261.855 49.9524 261.65V261.034C49.6631 261.5 49.2757 261.869 48.7904 262.14C48.3051 262.41 47.8011 262.546 47.2784 262.546C46.7744 262.546 46.3077 262.448 45.8784 262.252C45.4584 262.046 45.0897 261.766 44.7724 261.412C44.4644 261.057 44.2217 260.656 44.0444 260.208C43.8764 259.75 43.7924 259.27 43.7924 258.766ZM49.7844 259.844V257.744C49.6724 257.426 49.4904 257.142 49.2384 256.89C48.9864 256.628 48.7017 256.423 48.3844 256.274C48.0764 256.115 47.7684 256.036 47.4604 256.036C47.0964 256.036 46.7651 256.115 46.4664 256.274C46.1771 256.423 45.9251 256.628 45.7104 256.89C45.5051 257.142 45.3464 257.431 45.2344 257.758C45.1224 258.084 45.0664 258.425 45.0664 258.78C45.0664 259.144 45.1271 259.489 45.2484 259.816C45.3791 260.142 45.5564 260.432 45.7804 260.684C46.0137 260.936 46.2797 261.132 46.5784 261.272C46.8864 261.412 47.2177 261.482 47.5724 261.482C47.7964 261.482 48.0251 261.44 48.2584 261.356C48.5011 261.272 48.7297 261.155 48.9444 261.006C49.1591 260.856 49.3411 260.684 49.4904 260.488C49.6397 260.282 49.7377 260.068 49.7844 259.844ZM56.2651 262.546C55.7144 262.546 55.2151 262.448 54.7671 262.252C54.3191 262.046 53.9318 261.771 53.6051 261.426C53.2784 261.071 53.0264 260.665 52.8491 260.208C52.6718 259.75 52.5831 259.27 52.5831 258.766C52.5831 258.252 52.6718 257.767 52.8491 257.31C53.0264 256.852 53.2784 256.451 53.6051 256.106C53.9318 255.751 54.3191 255.476 54.7671 255.28C55.2244 255.074 55.7238 254.972 56.2651 254.972C56.8158 254.972 57.3151 255.074 57.7631 255.28C58.2111 255.476 58.5984 255.751 58.9251 256.106C59.2611 256.451 59.5178 256.852 59.6951 257.31C59.8724 257.767 59.9611 258.252 59.9611 258.766C59.9611 259.27 59.8724 259.75 59.6951 260.208C59.5178 260.665 59.2658 261.071 58.9391 261.426C58.6124 261.771 58.2204 262.046 57.7631 262.252C57.3151 262.448 56.8158 262.546 56.2651 262.546ZM53.8431 258.78C53.8431 259.284 53.9504 259.741 54.1651 260.152C54.3891 260.562 54.6831 260.889 55.0471 261.132C55.4111 261.365 55.8171 261.482 56.2651 261.482C56.7131 261.482 57.1191 261.36 57.4831 261.118C57.8564 260.875 58.1504 260.548 58.3651 260.138C58.5891 259.718 58.7011 259.256 58.7011 258.752C58.7011 258.248 58.5891 257.79 58.3651 257.38C58.1504 256.969 57.8564 256.642 57.4831 256.4C57.1191 256.157 56.7131 256.036 56.2651 256.036C55.8171 256.036 55.4111 256.162 55.0471 256.414C54.6831 256.656 54.3891 256.983 54.1651 257.394C53.9504 257.804 53.8431 258.266 53.8431 258.78ZM68.229 262.546C67.6783 262.546 67.1743 262.448 66.717 262.252C66.269 262.046 65.877 261.771 65.541 261.426C65.2143 261.071 64.9576 260.665 64.771 260.208C64.5936 259.75 64.505 259.265 64.505 258.752C64.505 258.061 64.6636 257.431 64.981 256.862C65.2983 256.292 65.737 255.835 66.297 255.49C66.8663 255.144 67.515 254.972 68.243 254.972C68.9803 254.972 69.6196 255.149 70.161 255.504C70.7116 255.849 71.1363 256.306 71.435 256.876C71.743 257.436 71.897 258.042 71.897 258.696C71.897 258.789 71.8923 258.882 71.883 258.976C71.883 259.06 71.8783 259.125 71.869 259.172H65.807C65.8443 259.648 65.975 260.072 66.199 260.446C66.4323 260.81 66.731 261.099 67.095 261.314C67.459 261.519 67.851 261.622 68.271 261.622C68.719 261.622 69.139 261.51 69.531 261.286C69.9323 261.062 70.2076 260.768 70.357 260.404L71.421 260.698C71.2623 261.052 71.0243 261.37 70.707 261.65C70.399 261.93 70.0303 262.149 69.601 262.308C69.181 262.466 68.7236 262.546 68.229 262.546ZM65.765 258.318H70.749C70.7116 257.842 70.5763 257.422 70.343 257.058C70.1096 256.694 69.811 256.409 69.447 256.204C69.083 255.998 68.6816 255.896 68.243 255.896C67.8136 255.896 67.417 255.998 67.053 256.204C66.689 256.409 66.3903 256.694 66.157 257.058C65.933 257.422 65.8023 257.842 65.765 258.318ZM73.2665 262.406V255.098H74.4985V262.406H73.2665ZM73.2665 253.726V252.186H74.4985V253.726H73.2665ZM76.423 259.48V255.098H77.655V259.242C77.655 259.988 77.7857 260.548 78.047 260.922C78.3084 261.295 78.6957 261.482 79.209 261.482C79.545 261.482 79.867 261.412 80.175 261.272C80.4924 261.122 80.777 260.912 81.029 260.642C81.281 260.371 81.477 260.049 81.617 259.676V255.098H82.849V261.006C82.849 261.155 82.877 261.267 82.933 261.342C82.9984 261.407 83.101 261.444 83.241 261.454V262.406C83.101 262.424 82.989 262.434 82.905 262.434C82.8304 262.443 82.7557 262.448 82.681 262.448C82.4477 262.448 82.247 262.378 82.079 262.238C81.911 262.088 81.8224 261.906 81.813 261.692L81.785 260.838C81.4677 261.379 81.0384 261.799 80.497 262.098C79.965 262.396 79.3817 262.546 78.747 262.546C77.9817 262.546 77.403 262.289 77.011 261.776C76.619 261.253 76.423 260.488 76.423 259.48ZM87.4072 262.546C86.8006 262.546 86.2312 262.448 85.6992 262.252C85.1672 262.046 84.7099 261.743 84.3272 261.342L84.8032 260.474C85.2232 260.866 85.6432 261.146 86.0632 261.314C86.4832 261.482 86.9126 261.566 87.3512 261.566C87.8552 261.566 88.2659 261.472 88.5832 261.286C88.9006 261.09 89.0592 260.805 89.0592 260.432C89.0592 260.161 88.9752 259.96 88.8072 259.83C88.6486 259.699 88.4199 259.592 88.1212 259.508C87.8226 259.414 87.4679 259.312 87.0572 259.2C86.5532 259.05 86.1286 258.892 85.7832 258.724C85.4379 258.556 85.1766 258.346 84.9992 258.094C84.8219 257.842 84.7332 257.524 84.7332 257.142C84.7332 256.675 84.8546 256.283 85.0972 255.966C85.3399 255.639 85.6712 255.392 86.0912 255.224C86.5206 255.056 87.0059 254.972 87.5472 254.972C88.0886 254.972 88.5786 255.056 89.0172 255.224C89.4559 255.392 89.8339 255.639 90.1512 255.966L89.5912 256.82C89.3019 256.521 88.9846 256.302 88.6392 256.162C88.2939 256.012 87.9066 255.938 87.4772 255.938C87.2252 255.938 86.9779 255.97 86.7352 256.036C86.4926 256.092 86.2919 256.199 86.1332 256.358C85.9746 256.507 85.8952 256.722 85.8952 257.002C85.8952 257.235 85.9559 257.422 86.0772 257.562C86.2079 257.692 86.3946 257.804 86.6372 257.898C86.8892 257.991 87.1926 258.094 87.5472 258.206C88.0979 258.364 88.5739 258.523 88.9752 258.682C89.3859 258.84 89.7032 259.046 89.9272 259.298C90.1512 259.55 90.2632 259.9 90.2632 260.348C90.2632 261.038 90.0019 261.58 89.4792 261.972C88.9566 262.354 88.2659 262.546 87.4072 262.546ZM102.755 262.406H101.523V258.318C101.523 257.552 101.397 256.988 101.145 256.624C100.902 256.26 100.538 256.078 100.053 256.078C99.5585 256.078 99.1105 256.26 98.7092 256.624C98.3078 256.978 98.0232 257.44 97.8552 258.01V262.406H96.6232V258.318C96.6232 257.543 96.5018 256.978 96.2592 256.624C96.0165 256.26 95.6525 256.078 95.1672 256.078C94.6818 256.078 94.2338 256.255 93.8232 256.61C93.4218 256.955 93.1372 257.417 92.9692 257.996V262.406H91.7372V255.098H92.8572V256.666C93.1558 256.124 93.5432 255.709 94.0192 255.42C94.4952 255.121 95.0318 254.972 95.6292 254.972C96.2358 254.972 96.7212 255.14 97.0852 255.476C97.4492 255.802 97.6732 256.227 97.7572 256.75C98.0838 256.171 98.4805 255.732 98.9472 255.434C99.4138 255.126 99.9458 254.972 100.543 254.972C100.963 254.972 101.313 255.051 101.593 255.21C101.882 255.359 102.111 255.574 102.279 255.854C102.447 256.124 102.568 256.446 102.643 256.82C102.718 257.193 102.755 257.599 102.755 258.038V262.406ZM107.863 262.546C107.312 262.546 106.813 262.448 106.365 262.252C105.917 262.046 105.529 261.771 105.203 261.426C104.876 261.071 104.624 260.665 104.447 260.208C104.269 259.75 104.181 259.27 104.181 258.766C104.181 258.252 104.269 257.767 104.447 257.31C104.624 256.852 104.876 256.451 105.203 256.106C105.529 255.751 105.917 255.476 106.365 255.28C106.822 255.074 107.321 254.972 107.863 254.972C108.413 254.972 108.913 255.074 109.361 255.28C109.809 255.476 110.196 255.751 110.523 256.106C110.859 256.451 111.115 256.852 111.293 257.31C111.47 257.767 111.559 258.252 111.559 258.766C111.559 259.27 111.47 259.75 111.293 260.208C111.115 260.665 110.863 261.071 110.537 261.426C110.21 261.771 109.818 262.046 109.361 262.252C108.913 262.448 108.413 262.546 107.863 262.546ZM105.441 258.78C105.441 259.284 105.548 259.741 105.763 260.152C105.987 260.562 106.281 260.889 106.645 261.132C107.009 261.365 107.415 261.482 107.863 261.482C108.311 261.482 108.717 261.36 109.081 261.118C109.454 260.875 109.748 260.548 109.963 260.138C110.187 259.718 110.299 259.256 110.299 258.752C110.299 258.248 110.187 257.79 109.963 257.38C109.748 256.969 109.454 256.642 109.081 256.4C108.717 256.157 108.311 256.036 107.863 256.036C107.415 256.036 107.009 256.162 106.645 256.414C106.281 256.656 105.987 256.983 105.763 257.394C105.548 257.804 105.441 258.266 105.441 258.78ZM112.576 258.766C112.576 258.075 112.716 257.445 112.996 256.876C113.285 256.297 113.677 255.835 114.172 255.49C114.676 255.144 115.25 254.972 115.894 254.972C116.482 254.972 117.009 255.126 117.476 255.434C117.942 255.742 118.306 256.115 118.568 256.554V252.186H119.8V261.006C119.8 261.155 119.828 261.267 119.884 261.342C119.949 261.407 120.052 261.444 120.192 261.454V262.406C119.958 262.443 119.776 262.462 119.646 262.462C119.403 262.462 119.188 262.378 119.002 262.21C118.824 262.042 118.736 261.855 118.736 261.65V261.034C118.446 261.5 118.059 261.869 117.574 262.14C117.088 262.41 116.584 262.546 116.062 262.546C115.558 262.546 115.091 262.448 114.662 262.252C114.242 262.046 113.873 261.766 113.556 261.412C113.248 261.057 113.005 260.656 112.828 260.208C112.66 259.75 112.576 259.27 112.576 258.766ZM118.568 259.844V257.744C118.456 257.426 118.274 257.142 118.022 256.89C117.77 256.628 117.485 256.423 117.168 256.274C116.86 256.115 116.552 256.036 116.244 256.036C115.88 256.036 115.548 256.115 115.25 256.274C114.96 256.423 114.708 256.628 114.494 256.89C114.288 257.142 114.13 257.431 114.018 257.758C113.906 258.084 113.85 258.425 113.85 258.78C113.85 259.144 113.91 259.489 114.032 259.816C114.162 260.142 114.34 260.432 114.564 260.684C114.797 260.936 115.063 261.132 115.362 261.272C115.67 261.412 116.001 261.482 116.356 261.482C116.58 261.482 116.808 261.44 117.042 261.356C117.284 261.272 117.513 261.155 117.728 261.006C117.942 260.856 118.124 260.684 118.274 260.488C118.423 260.282 118.521 260.068 118.568 259.844ZM129.177 262.042C129.075 262.088 128.935 262.149 128.757 262.224C128.58 262.298 128.375 262.364 128.141 262.42C127.908 262.476 127.661 262.504 127.399 262.504C127.101 262.504 126.825 262.452 126.573 262.35C126.321 262.238 126.121 262.07 125.971 261.846C125.822 261.612 125.747 261.323 125.747 260.978V256.064H124.753V255.098H125.747V252.662H126.979V255.098H128.617V256.064H126.979V260.6C126.998 260.861 127.087 261.057 127.245 261.188C127.404 261.309 127.591 261.37 127.805 261.37C128.048 261.37 128.272 261.328 128.477 261.244C128.683 261.16 128.818 261.099 128.883 261.062L129.177 262.042ZM133.457 262.546C132.907 262.546 132.403 262.448 131.945 262.252C131.497 262.046 131.105 261.771 130.769 261.426C130.443 261.071 130.186 260.665 129.999 260.208C129.822 259.75 129.733 259.265 129.733 258.752C129.733 258.061 129.892 257.431 130.209 256.862C130.527 256.292 130.965 255.835 131.525 255.49C132.095 255.144 132.743 254.972 133.471 254.972C134.209 254.972 134.848 255.149 135.389 255.504C135.94 255.849 136.365 256.306 136.663 256.876C136.971 257.436 137.125 258.042 137.125 258.696C137.125 258.789 137.121 258.882 137.111 258.976C137.111 259.06 137.107 259.125 137.097 259.172H131.035C131.073 259.648 131.203 260.072 131.427 260.446C131.661 260.81 131.959 261.099 132.323 261.314C132.687 261.519 133.079 261.622 133.499 261.622C133.947 261.622 134.367 261.51 134.759 261.286C135.161 261.062 135.436 260.768 135.585 260.404L136.649 260.698C136.491 261.052 136.253 261.37 135.935 261.65C135.627 261.93 135.259 262.149 134.829 262.308C134.409 262.466 133.952 262.546 133.457 262.546ZM130.993 258.318H135.977C135.94 257.842 135.805 257.422 135.571 257.058C135.338 256.694 135.039 256.409 134.675 256.204C134.311 255.998 133.91 255.896 133.471 255.896C133.042 255.896 132.645 255.998 132.281 256.204C131.917 256.409 131.619 256.694 131.385 257.058C131.161 257.422 131.031 257.842 130.993 258.318ZM149.513 262.406H148.281V258.318C148.281 257.552 148.155 256.988 147.903 256.624C147.66 256.26 147.296 256.078 146.811 256.078C146.316 256.078 145.868 256.26 145.467 256.624C145.066 256.978 144.781 257.44 144.613 258.01V262.406H143.381V258.318C143.381 257.543 143.26 256.978 143.017 256.624C142.774 256.26 142.41 256.078 141.925 256.078C141.44 256.078 140.992 256.255 140.581 256.61C140.18 256.955 139.895 257.417 139.727 257.996V262.406H138.495V255.098H139.615V256.666C139.914 256.124 140.301 255.709 140.777 255.42C141.253 255.121 141.79 254.972 142.387 254.972C142.994 254.972 143.479 255.14 143.843 255.476C144.207 255.802 144.431 256.227 144.515 256.75C144.842 256.171 145.238 255.732 145.705 255.434C146.172 255.126 146.704 254.972 147.301 254.972C147.721 254.972 148.071 255.051 148.351 255.21C148.64 255.359 148.869 255.574 149.037 255.854C149.205 256.124 149.326 256.446 149.401 256.82C149.476 257.193 149.513 257.599 149.513 258.038V262.406ZM155.363 262.546C154.765 262.546 154.233 262.396 153.767 262.098C153.3 261.799 152.931 261.421 152.661 260.964V265.388H151.429V255.098H152.521V256.47C152.81 256.022 153.188 255.662 153.655 255.392C154.121 255.112 154.63 254.972 155.181 254.972C155.685 254.972 156.147 255.074 156.567 255.28C156.987 255.485 157.351 255.765 157.659 256.12C157.967 256.474 158.205 256.88 158.373 257.338C158.55 257.786 158.639 258.257 158.639 258.752C158.639 259.442 158.499 260.077 158.219 260.656C157.948 261.234 157.565 261.696 157.071 262.042C156.576 262.378 156.007 262.546 155.363 262.546ZM154.985 261.482C155.349 261.482 155.675 261.407 155.965 261.258C156.263 261.099 156.515 260.894 156.721 260.642C156.935 260.38 157.099 260.086 157.211 259.76C157.323 259.433 157.379 259.097 157.379 258.752C157.379 258.388 157.313 258.042 157.183 257.716C157.061 257.389 156.884 257.1 156.651 256.848C156.427 256.596 156.161 256.4 155.853 256.26C155.554 256.11 155.227 256.036 154.873 256.036C154.649 256.036 154.415 256.078 154.173 256.162C153.939 256.246 153.715 256.367 153.501 256.526C153.286 256.675 153.104 256.848 152.955 257.044C152.805 257.24 152.707 257.45 152.661 257.674V259.76C152.801 260.077 152.987 260.366 153.221 260.628C153.454 260.889 153.725 261.099 154.033 261.258C154.341 261.407 154.658 261.482 154.985 261.482ZM163.343 262.546C162.793 262.546 162.293 262.448 161.845 262.252C161.397 262.046 161.01 261.771 160.683 261.426C160.357 261.071 160.105 260.665 159.927 260.208C159.75 259.75 159.661 259.27 159.661 258.766C159.661 258.252 159.75 257.767 159.927 257.31C160.105 256.852 160.357 256.451 160.683 256.106C161.01 255.751 161.397 255.476 161.845 255.28C162.303 255.074 162.802 254.972 163.343 254.972C163.894 254.972 164.393 255.074 164.841 255.28C165.289 255.476 165.677 255.751 166.003 256.106C166.339 256.451 166.596 256.852 166.773 257.31C166.951 257.767 167.039 258.252 167.039 258.766C167.039 259.27 166.951 259.75 166.773 260.208C166.596 260.665 166.344 261.071 166.017 261.426C165.691 261.771 165.299 262.046 164.841 262.252C164.393 262.448 163.894 262.546 163.343 262.546ZM160.921 258.78C160.921 259.284 161.029 259.741 161.243 260.152C161.467 260.562 161.761 260.889 162.125 261.132C162.489 261.365 162.895 261.482 163.343 261.482C163.791 261.482 164.197 261.36 164.561 261.118C164.935 260.875 165.229 260.548 165.443 260.138C165.667 259.718 165.779 259.256 165.779 258.752C165.779 258.248 165.667 257.79 165.443 257.38C165.229 256.969 164.935 256.642 164.561 256.4C164.197 256.157 163.791 256.036 163.343 256.036C162.895 256.036 162.489 256.162 162.125 256.414C161.761 256.656 161.467 256.983 161.243 257.394C161.029 257.804 160.921 258.266 160.921 258.78ZM172.396 256.176C171.78 256.185 171.234 256.344 170.758 256.652C170.291 256.95 169.96 257.366 169.764 257.898V262.406H168.532V255.098H169.68V256.792C169.932 256.288 170.263 255.882 170.674 255.574C171.094 255.256 171.533 255.079 171.99 255.042C172.083 255.042 172.163 255.042 172.228 255.042C172.293 255.042 172.349 255.046 172.396 255.056V256.176ZM172.03 262.406V260.838H173.066V262.406H172.03ZM174.86 262.406V260.838H175.896V262.406H174.86ZM177.69 262.406V260.838H178.726V262.406H177.69Z" fill="#777777"/>
<path d="M47.0544 304.436L46.9284 301.664L53.5344 294.806H56.1624L50.6724 300.638L49.3764 302.06L47.0544 304.436ZM44.9664 307.406V294.806H47.3064V307.406H44.9664ZM53.7504 307.406L48.9264 301.664L50.4744 299.954L56.4864 307.406H53.7504ZM63.1595 297.686C63.9275 297.686 64.6115 297.836 65.2115 298.136C65.8235 298.436 66.3035 298.898 66.6515 299.522C66.9995 300.134 67.1735 300.926 67.1735 301.898V307.406H64.9235V302.186C64.9235 301.334 64.7195 300.698 64.3115 300.278C63.9155 299.858 63.3575 299.648 62.6375 299.648C62.1095 299.648 61.6415 299.756 61.2335 299.972C60.8255 300.188 60.5075 300.512 60.2795 300.944C60.0635 301.364 59.9555 301.898 59.9555 302.546V307.406H57.7055V297.794H59.8475V300.386L59.4695 299.594C59.8055 298.982 60.2915 298.514 60.9275 298.19C61.5755 297.854 62.3195 297.686 63.1595 297.686ZM74.3653 307.532C73.3813 307.532 72.5053 307.322 71.7373 306.902C70.9693 306.47 70.3633 305.882 69.9193 305.138C69.4753 304.394 69.2533 303.548 69.2533 302.6C69.2533 301.64 69.4753 300.794 69.9193 300.062C70.3633 299.318 70.9693 298.736 71.7373 298.316C72.5053 297.896 73.3813 297.686 74.3653 297.686C75.3613 297.686 76.2433 297.896 77.0113 298.316C77.7913 298.736 78.3973 299.312 78.8293 300.044C79.2733 300.776 79.4953 301.628 79.4953 302.6C79.4953 303.548 79.2733 304.394 78.8293 305.138C78.3973 305.882 77.7913 306.47 77.0113 306.902C76.2433 307.322 75.3613 307.532 74.3653 307.532ZM74.3653 305.606C74.9173 305.606 75.4093 305.486 75.8413 305.246C76.2733 305.006 76.6093 304.658 76.8493 304.202C77.1013 303.746 77.2273 303.212 77.2273 302.6C77.2273 301.976 77.1013 301.442 76.8493 300.998C76.6093 300.542 76.2733 300.194 75.8413 299.954C75.4093 299.714 74.9233 299.594 74.3833 299.594C73.8313 299.594 73.3393 299.714 72.9073 299.954C72.4873 300.194 72.1513 300.542 71.8993 300.998C71.6473 301.442 71.5213 301.976 71.5213 302.6C71.5213 303.212 71.6473 303.746 71.8993 304.202C72.1513 304.658 72.4873 305.006 72.9073 305.246C73.3393 305.486 73.8253 305.606 74.3653 305.606ZM83.5072 307.406L79.9792 297.794H82.1032L85.1272 306.272H84.1192L87.2872 297.794H89.1772L92.2552 306.272H91.2652L94.3792 297.794H96.3772L92.8312 307.406H90.6712L87.8632 299.9H88.5292L85.6672 307.406H83.5072ZM103.115 307.406V294.806H105.041L110.549 304.004H109.541L114.959 294.806H116.885L116.903 307.406H114.689L114.671 298.28H115.139L110.531 305.966H109.487L104.807 298.28H105.347V307.406H103.115ZM124.41 307.532C123.426 307.532 122.55 307.322 121.782 306.902C121.014 306.47 120.408 305.882 119.964 305.138C119.52 304.394 119.298 303.548 119.298 302.6C119.298 301.64 119.52 300.794 119.964 300.062C120.408 299.318 121.014 298.736 121.782 298.316C122.55 297.896 123.426 297.686 124.41 297.686C125.406 297.686 126.288 297.896 127.056 298.316C127.836 298.736 128.442 299.312 128.874 300.044C129.318 300.776 129.54 301.628 129.54 302.6C129.54 303.548 129.318 304.394 128.874 305.138C128.442 305.882 127.836 306.47 127.056 306.902C126.288 307.322 125.406 307.532 124.41 307.532ZM124.41 305.606C124.962 305.606 125.454 305.486 125.886 305.246C126.318 305.006 126.654 304.658 126.894 304.202C127.146 303.746 127.272 303.212 127.272 302.6C127.272 301.976 127.146 301.442 126.894 300.998C126.654 300.542 126.318 300.194 125.886 299.954C125.454 299.714 124.968 299.594 124.428 299.594C123.876 299.594 123.384 299.714 122.952 299.954C122.532 300.194 122.196 300.542 121.944 300.998C121.692 301.442 121.566 301.976 121.566 302.6C121.566 303.212 121.692 303.746 121.944 304.202C122.196 304.658 122.532 305.006 122.952 305.246C123.384 305.486 123.87 305.606 124.41 305.606ZM131.692 307.406V297.794H133.834V300.44L133.582 299.666C133.87 299.018 134.32 298.526 134.932 298.19C135.556 297.854 136.33 297.686 137.254 297.686V299.828C137.158 299.804 137.068 299.792 136.984 299.792C136.9 299.78 136.816 299.774 136.732 299.774C135.88 299.774 135.202 300.026 134.698 300.53C134.194 301.022 133.942 301.76 133.942 302.744V307.406H131.692ZM143.593 307.532C142.525 307.532 141.589 307.322 140.785 306.902C139.993 306.47 139.375 305.882 138.931 305.138C138.499 304.394 138.283 303.548 138.283 302.6C138.283 301.64 138.493 300.794 138.913 300.062C139.345 299.318 139.933 298.736 140.677 298.316C141.433 297.896 142.291 297.686 143.251 297.686C144.187 297.686 145.021 297.89 145.753 298.298C146.485 298.706 147.061 299.282 147.481 300.026C147.901 300.77 148.111 301.646 148.111 302.654C148.111 302.75 148.105 302.858 148.093 302.978C148.093 303.098 148.087 303.212 148.075 303.32H140.065V301.826H146.887L146.005 302.294C146.017 301.742 145.903 301.256 145.663 300.836C145.423 300.416 145.093 300.086 144.673 299.846C144.265 299.606 143.791 299.486 143.251 299.486C142.699 299.486 142.213 299.606 141.793 299.846C141.385 300.086 141.061 300.422 140.821 300.854C140.593 301.274 140.479 301.772 140.479 302.348V302.708C140.479 303.284 140.611 303.794 140.875 304.238C141.139 304.682 141.511 305.024 141.991 305.264C142.471 305.504 143.023 305.624 143.647 305.624C144.187 305.624 144.673 305.54 145.105 305.372C145.537 305.204 145.921 304.94 146.257 304.58L147.463 305.966C147.031 306.47 146.485 306.86 145.825 307.136C145.177 307.4 144.433 307.532 143.593 307.532Z" fill="#4A60A1"/>
<path d="M164.665 294.955C164.394 295.222 164.369 295.643 164.59 295.938L164.657 296.016L169.233 300.656L157.524 300.656C157.11 300.656 156.774 300.991 156.774 301.406C156.774 301.788 157.061 302.104 157.43 302.15L157.524 302.156H169.233L164.657 306.796C164.39 307.066 164.371 307.488 164.597 307.78L164.665 307.856C164.935 308.123 165.356 308.142 165.649 307.917L165.725 307.849L171.558 301.932C171.822 301.665 171.844 301.248 171.624 300.956L171.558 300.879L165.725 294.962C165.434 294.667 164.959 294.664 164.665 294.955Z" fill="#00B377"/>
<path d="M51.9229 147.768V97.2144H79.8309V147.768H74.7567V143.172H56.997V147.768H51.9229ZM91.2478 147.768V132.602L96.7025 127.891L95.3706 121.917C93.7215 123.64 91.7231 124.933 89.3754 125.796C87.0278 126.658 84.6919 127.089 82.368 127.087V122.491C84.3976 122.491 86.3639 122.051 88.2667 121.17C90.1695 120.289 91.7341 118.949 92.9603 117.149L94.8631 114.334C95.4974 113.376 96.4277 112.725 97.6539 112.38C98.8802 112.036 100.043 112.074 101.142 112.495L112.813 116.976V128.236H107.739V120.021L104.124 118.642L110.276 147.768H105.075L101.206 131.338L96.322 135.474V147.768H91.2478ZM62.0712 124.789L70.951 120.193L62.0712 115.598V124.789ZM95.0534 111.002C93.658 111.002 92.4631 110.551 91.4685 109.651C90.474 108.75 89.9776 107.668 89.9792 106.406C89.9792 105.142 90.4765 104.06 91.4711 103.159C92.4656 102.258 93.6597 101.809 95.0534 101.81C96.4488 101.81 97.6438 102.261 98.6383 103.161C99.6329 104.062 100.129 105.144 100.128 106.406C100.128 107.67 99.6303 108.752 98.6358 109.653C97.6413 110.554 96.4471 111.003 95.0534 111.002Z" fill="#0B1C98"/>
<defs>
<filter id="filter0_d_773_469" x="0.274414" y="0.405762" width="290" height="377.979" filterUnits="userSpaceOnUse" color-interpolation-filters="sRGB">
<feFlood flood-opacity="0" result="BackgroundImageFix"/>
<feColorMatrix in="SourceAlpha" type="matrix" values="0 0 0 0 0 0 0 0 0 0 0 0 0 0 0 0 0 0 127 0" result="hardAlpha"/>
<feOffset/>
<feGaussianBlur stdDeviation="10"/>
<feComposite in2="hardAlpha" operator="out"/>
<feColorMatrix type="matrix" values="0 0 0 0 0.768627 0 0 0 0 0.768627 0 0 0 0 0.768627 0 0 0 0.15 0"/>
<feBlend mode="normal" in2="BackgroundImageFix" result="effect1_dropShadow_773_469"/>
<feBlend mode="normal" in="SourceGraphic" in2="effect1_dropShadow_773_469" result="shape"/>
</filter>
</defs>
</svg>
