<svg width="291" height="379" viewBox="0 0 291 379" fill="none" xmlns="http://www.w3.org/2000/svg">
<g filter="url(#filter0_d_773_487)">
<rect x="20.4317" y="20.6108" width="250" height="337.979" rx="12" fill="white"/>
<rect x="20.9317" y="21.1108" width="249" height="336.979" rx="11.5" stroke="black"/>
</g>
<path d="M46.1717 192.771C45.7984 192.771 45.5117 192.664 45.3117 192.451C45.1117 192.238 45.0117 191.944 45.0117 191.571V179.551C45.0117 179.164 45.1184 178.871 45.3317 178.671C45.545 178.458 45.8384 178.351 46.2117 178.351C46.545 178.351 46.805 178.418 46.9917 178.551C47.1917 178.671 47.3717 178.884 47.5317 179.191L52.4717 188.331H51.8317L56.7717 179.191C56.9317 178.884 57.105 178.671 57.2917 178.551C57.4784 178.418 57.7384 178.351 58.0717 178.351C58.445 178.351 58.7317 178.458 58.9317 178.671C59.1317 178.871 59.2317 179.164 59.2317 179.551V191.571C59.2317 191.944 59.1317 192.238 58.9317 192.451C58.745 192.664 58.4584 192.771 58.0717 192.771C57.6984 192.771 57.4117 192.664 57.2117 192.451C57.0117 192.238 56.9117 191.944 56.9117 191.571V182.311H57.3517L53.1517 189.971C53.0184 190.198 52.8784 190.364 52.7317 190.471C52.585 190.578 52.385 190.631 52.1317 190.631C51.8784 190.631 51.6717 190.578 51.5117 190.471C51.3517 190.351 51.2117 190.184 51.0917 189.971L46.8517 182.291H47.3317V191.571C47.3317 191.944 47.2317 192.238 47.0317 192.451C46.845 192.664 46.5584 192.771 46.1717 192.771ZM66.915 192.811C65.8083 192.811 64.855 192.604 64.055 192.191C63.255 191.778 62.635 191.191 62.195 190.431C61.7683 189.671 61.555 188.771 61.555 187.731C61.555 186.718 61.7616 185.831 62.175 185.071C62.6016 184.311 63.1816 183.718 63.915 183.291C64.6616 182.851 65.5083 182.631 66.455 182.631C67.1483 182.631 67.7683 182.744 68.315 182.971C68.875 183.198 69.3483 183.524 69.735 183.951C70.135 184.378 70.435 184.898 70.635 185.511C70.8483 186.111 70.955 186.791 70.955 187.551C70.955 187.791 70.8683 187.978 70.695 188.111C70.535 188.231 70.3016 188.291 69.995 188.291H63.575V186.851H69.195L68.875 187.151C68.875 186.538 68.7816 186.024 68.595 185.611C68.4216 185.198 68.1616 184.884 67.815 184.671C67.4816 184.444 67.0616 184.331 66.555 184.331C65.995 184.331 65.515 184.464 65.115 184.731C64.7283 184.984 64.4283 185.351 64.215 185.831C64.015 186.298 63.915 186.858 63.915 187.511V187.651C63.915 188.744 64.1683 189.564 64.675 190.111C65.195 190.644 65.955 190.911 66.955 190.911C67.3017 190.911 67.6883 190.871 68.115 190.791C68.555 190.698 68.9683 190.544 69.355 190.331C69.635 190.171 69.8817 190.104 70.095 190.131C70.3083 190.144 70.475 190.218 70.595 190.351C70.7283 190.484 70.8083 190.651 70.835 190.851C70.8616 191.038 70.8216 191.231 70.715 191.431C70.6217 191.631 70.455 191.804 70.215 191.951C69.7483 192.244 69.2083 192.464 68.595 192.611C67.995 192.744 67.435 192.811 66.915 192.811ZM76.6948 192.811C75.8415 192.811 75.0882 192.604 74.4348 192.191C73.7948 191.778 73.2948 191.191 72.9348 190.431C72.5748 189.658 72.3948 188.751 72.3948 187.711C72.3948 186.658 72.5748 185.758 72.9348 185.011C73.2948 184.251 73.7948 183.664 74.4348 183.251C75.0882 182.838 75.8415 182.631 76.6948 182.631C77.5082 182.631 78.2148 182.831 78.8148 183.231C79.4282 183.631 79.8415 184.158 80.0548 184.811H79.8348V179.611C79.8348 179.198 79.9415 178.884 80.1548 178.671C80.3682 178.458 80.6748 178.351 81.0748 178.351C81.4748 178.351 81.7815 178.458 81.9948 178.671C82.2215 178.884 82.3348 179.198 82.3348 179.611V191.491C82.3348 191.904 82.2282 192.224 82.0148 192.451C81.8015 192.664 81.4948 192.771 81.0948 192.771C80.6948 192.771 80.3882 192.664 80.1748 192.451C79.9615 192.224 79.8548 191.904 79.8548 191.491V189.931L80.0748 190.531C79.8748 191.224 79.4682 191.778 78.8548 192.191C78.2415 192.604 77.5215 192.811 76.6948 192.811ZM77.3948 190.911C77.8882 190.911 78.3215 190.791 78.6948 190.551C79.0682 190.311 79.3548 189.958 79.5548 189.491C79.7682 189.011 79.8748 188.418 79.8748 187.711C79.8748 186.644 79.6482 185.851 79.1948 185.331C78.7415 184.798 78.1415 184.531 77.3948 184.531C76.9015 184.531 76.4682 184.651 76.0948 184.891C75.7215 185.118 75.4282 185.471 75.2148 185.951C75.0148 186.418 74.9148 187.004 74.9148 187.711C74.9148 188.764 75.1415 189.564 75.5948 190.111C76.0482 190.644 76.6482 190.911 77.3948 190.911ZM86.167 192.751C85.767 192.751 85.4603 192.631 85.247 192.391C85.0337 192.151 84.927 191.818 84.927 191.391V184.051C84.927 183.611 85.0337 183.278 85.247 183.051C85.4603 182.811 85.767 182.691 86.167 182.691C86.567 182.691 86.8737 182.811 87.087 183.051C87.3137 183.278 87.427 183.611 87.427 184.051V191.391C87.427 191.818 87.3203 192.151 87.107 192.391C86.8937 192.631 86.5803 192.751 86.167 192.751ZM86.167 180.831C85.7003 180.831 85.3337 180.718 85.067 180.491C84.8137 180.251 84.687 179.924 84.687 179.511C84.687 179.084 84.8137 178.758 85.067 178.531C85.3337 178.304 85.7003 178.191 86.167 178.191C86.647 178.191 87.0137 178.304 87.267 178.531C87.5203 178.758 87.647 179.084 87.647 179.511C87.647 179.924 87.5203 180.251 87.267 180.491C87.0137 180.718 86.647 180.831 86.167 180.831ZM93.2447 192.811C92.538 192.811 91.9047 192.678 91.3447 192.411C90.798 192.131 90.3647 191.758 90.0447 191.291C89.738 190.824 89.5847 190.298 89.5847 189.711C89.5847 188.991 89.7713 188.424 90.1447 188.011C90.518 187.584 91.1247 187.278 91.9647 187.091C92.8047 186.904 93.9313 186.811 95.3447 186.811H96.3447V188.251H95.3647C94.538 188.251 93.878 188.291 93.3847 188.371C92.8913 188.451 92.538 188.591 92.3247 188.791C92.1247 188.978 92.0247 189.244 92.0247 189.591C92.0247 190.031 92.178 190.391 92.4847 190.671C92.7913 190.951 93.218 191.091 93.7647 191.091C94.2047 191.091 94.5913 190.991 94.9247 190.791C95.2713 190.578 95.5447 190.291 95.7447 189.931C95.9447 189.571 96.0447 189.158 96.0447 188.691V186.391C96.0447 185.724 95.898 185.244 95.6047 184.951C95.3113 184.658 94.818 184.511 94.1247 184.511C93.738 184.511 93.318 184.558 92.8647 184.651C92.4247 184.744 91.958 184.904 91.4647 185.131C91.2113 185.251 90.9847 185.284 90.7847 185.231C90.598 185.178 90.4513 185.071 90.3447 184.911C90.238 184.738 90.1847 184.551 90.1847 184.351C90.1847 184.151 90.238 183.958 90.3447 183.771C90.4513 183.571 90.6313 183.424 90.8847 183.331C91.498 183.078 92.0847 182.898 92.6447 182.791C93.218 182.684 93.738 182.631 94.2047 182.631C95.1647 182.631 95.9513 182.778 96.5647 183.071C97.1913 183.364 97.658 183.811 97.9647 184.411C98.2713 184.998 98.4247 185.758 98.4247 186.691V191.491C98.4247 191.904 98.3247 192.224 98.1247 192.451C97.9247 192.664 97.638 192.771 97.2647 192.771C96.8913 192.771 96.598 192.664 96.3847 192.451C96.1847 192.224 96.0847 191.904 96.0847 191.491V190.531H96.2447C96.1513 190.998 95.9647 191.404 95.6847 191.751C95.418 192.084 95.078 192.344 94.6647 192.531C94.2513 192.718 93.778 192.811 93.2447 192.811ZM111.112 192.811C110.112 192.811 109.245 192.651 108.512 192.331C107.779 192.011 107.212 191.571 106.812 191.011C106.425 190.438 106.232 189.771 106.232 189.011C106.232 188.558 106.292 188.138 106.412 187.751C106.545 187.351 106.732 186.984 106.972 186.651C107.225 186.304 107.525 185.984 107.872 185.691C108.232 185.384 108.639 185.098 109.092 184.831L109.772 184.431L109.412 184.971C108.825 184.384 108.399 183.831 108.132 183.311C107.879 182.778 107.752 182.231 107.752 181.671C107.752 181.004 107.912 180.418 108.232 179.911C108.552 179.404 109.005 179.011 109.592 178.731C110.179 178.451 110.865 178.311 111.652 178.311C112.745 178.311 113.612 178.591 114.252 179.151C114.892 179.698 115.212 180.444 115.212 181.391C115.212 181.898 115.112 182.378 114.912 182.831C114.712 183.284 114.392 183.718 113.952 184.131C113.512 184.544 112.925 184.951 112.192 185.351L112.212 184.751L115.612 188.371H115.072C115.245 188.078 115.399 187.758 115.532 187.411C115.665 187.051 115.779 186.671 115.872 186.271C115.979 185.858 116.059 185.431 116.112 184.991C116.165 184.658 116.279 184.411 116.452 184.251C116.625 184.078 116.872 183.991 117.192 183.991C117.539 183.991 117.799 184.091 117.972 184.291C118.145 184.478 118.212 184.751 118.172 185.111C118.105 185.738 117.992 186.338 117.832 186.911C117.685 187.471 117.499 187.998 117.272 188.491C117.045 188.971 116.792 189.418 116.512 189.831L116.492 189.211L118.392 191.131C118.645 191.384 118.772 191.638 118.772 191.891C118.772 192.144 118.672 192.358 118.472 192.531C118.285 192.691 118.025 192.771 117.692 192.771C117.399 192.771 117.159 192.718 116.972 192.611C116.785 192.491 116.579 192.318 116.352 192.091L115.112 190.791H115.692C115.105 191.418 114.412 191.911 113.612 192.271C112.825 192.631 111.992 192.811 111.112 192.811ZM111.252 190.831C111.892 190.831 112.459 190.711 112.952 190.471C113.459 190.218 113.919 189.844 114.332 189.351L114.272 189.991L110.152 185.731L111.192 185.831L110.612 186.171C110.159 186.438 109.792 186.704 109.512 186.971C109.232 187.224 109.025 187.504 108.892 187.811C108.772 188.104 108.712 188.438 108.712 188.811C108.712 189.438 108.932 189.931 109.372 190.291C109.812 190.651 110.439 190.831 111.252 190.831ZM111.652 180.091C111.172 180.091 110.785 180.231 110.492 180.511C110.199 180.778 110.052 181.144 110.052 181.611C110.052 181.864 110.092 182.104 110.172 182.331C110.252 182.544 110.392 182.784 110.592 183.051C110.792 183.304 111.065 183.618 111.412 183.991L110.852 183.951C111.412 183.631 111.852 183.344 112.172 183.091C112.505 182.838 112.745 182.584 112.892 182.331C113.039 182.078 113.112 181.798 113.112 181.491C113.112 181.038 112.979 180.691 112.712 180.451C112.445 180.211 112.092 180.091 111.652 180.091ZM127.933 192.611C127.493 192.611 127.153 192.498 126.913 192.271C126.687 192.031 126.573 191.691 126.573 191.251V179.871C126.573 179.431 126.687 179.098 126.913 178.871C127.153 178.631 127.493 178.511 127.933 178.511H135.073C135.407 178.511 135.66 178.598 135.833 178.771C136.02 178.944 136.113 179.191 136.113 179.511C136.113 179.844 136.02 180.104 135.833 180.291C135.66 180.464 135.407 180.551 135.073 180.551H129.033V184.431H134.633C134.98 184.431 135.24 184.518 135.413 184.691C135.587 184.864 135.673 185.118 135.673 185.451C135.673 185.784 135.587 186.038 135.413 186.211C135.24 186.384 134.98 186.471 134.633 186.471H129.033V190.571H135.073C135.407 190.571 135.66 190.658 135.833 190.831C136.02 191.004 136.113 191.258 136.113 191.591C136.113 191.924 136.02 192.178 135.833 192.351C135.66 192.524 135.407 192.611 135.073 192.611H127.933ZM139.507 192.771C139.107 192.771 138.8 192.664 138.587 192.451C138.374 192.224 138.267 191.904 138.267 191.491V183.931C138.267 183.518 138.374 183.204 138.587 182.991C138.8 182.778 139.1 182.671 139.487 182.671C139.874 182.671 140.174 182.778 140.387 182.991C140.6 183.204 140.707 183.518 140.707 183.931V185.291L140.487 184.791C140.78 184.084 141.234 183.551 141.847 183.191C142.474 182.818 143.18 182.631 143.967 182.631C144.754 182.631 145.4 182.778 145.907 183.071C146.414 183.364 146.794 183.811 147.047 184.411C147.3 184.998 147.427 185.744 147.427 186.651V191.491C147.427 191.904 147.32 192.224 147.107 192.451C146.894 192.664 146.587 192.771 146.187 192.771C145.787 192.771 145.474 192.664 145.247 192.451C145.034 192.224 144.927 191.904 144.927 191.491V186.771C144.927 186.011 144.78 185.458 144.487 185.111C144.207 184.764 143.767 184.591 143.167 184.591C142.434 184.591 141.847 184.824 141.407 185.291C140.98 185.744 140.767 186.351 140.767 187.111V191.491C140.767 192.344 140.347 192.771 139.507 192.771ZM154.446 192.811C153.579 192.811 152.853 192.664 152.266 192.371C151.693 192.078 151.266 191.651 150.986 191.091C150.706 190.518 150.566 189.811 150.566 188.971V184.711H149.526C149.206 184.711 148.959 184.631 148.786 184.471C148.613 184.298 148.526 184.064 148.526 183.771C148.526 183.464 148.613 183.231 148.786 183.071C148.959 182.911 149.206 182.831 149.526 182.831H150.566V181.011C150.566 180.598 150.673 180.284 150.886 180.071C151.113 179.858 151.426 179.751 151.826 179.751C152.226 179.751 152.533 179.858 152.746 180.071C152.959 180.284 153.066 180.598 153.066 181.011V182.831H155.186C155.506 182.831 155.753 182.911 155.926 183.071C156.099 183.231 156.186 183.464 156.186 183.771C156.186 184.064 156.099 184.298 155.926 184.471C155.753 184.631 155.506 184.711 155.186 184.711H153.066V188.831C153.066 189.471 153.206 189.951 153.486 190.271C153.766 190.591 154.219 190.751 154.846 190.751C155.073 190.751 155.273 190.731 155.446 190.691C155.619 190.651 155.773 190.624 155.906 190.611C156.066 190.598 156.199 190.651 156.306 190.771C156.413 190.878 156.466 191.104 156.466 191.451C156.466 191.718 156.419 191.958 156.326 192.171C156.246 192.371 156.093 192.511 155.866 192.591C155.693 192.644 155.466 192.691 155.186 192.731C154.906 192.784 154.659 192.811 154.446 192.811ZM162.364 192.811C161.258 192.811 160.304 192.604 159.504 192.191C158.704 191.778 158.084 191.191 157.644 190.431C157.218 189.671 157.004 188.771 157.004 187.731C157.004 186.718 157.211 185.831 157.624 185.071C158.051 184.311 158.631 183.718 159.364 183.291C160.111 182.851 160.958 182.631 161.904 182.631C162.598 182.631 163.218 182.744 163.764 182.971C164.324 183.198 164.798 183.524 165.184 183.951C165.584 184.378 165.884 184.898 166.084 185.511C166.298 186.111 166.404 186.791 166.404 187.551C166.404 187.791 166.318 187.978 166.144 188.111C165.984 188.231 165.751 188.291 165.444 188.291H159.024V186.851H164.644L164.324 187.151C164.324 186.538 164.231 186.024 164.044 185.611C163.871 185.198 163.611 184.884 163.264 184.671C162.931 184.444 162.511 184.331 162.004 184.331C161.444 184.331 160.964 184.464 160.564 184.731C160.178 184.984 159.878 185.351 159.664 185.831C159.464 186.298 159.364 186.858 159.364 187.511V187.651C159.364 188.744 159.618 189.564 160.124 190.111C160.644 190.644 161.404 190.911 162.404 190.911C162.751 190.911 163.138 190.871 163.564 190.791C164.004 190.698 164.418 190.544 164.804 190.331C165.084 190.171 165.331 190.104 165.544 190.131C165.758 190.144 165.924 190.218 166.044 190.351C166.178 190.484 166.258 190.651 166.284 190.851C166.311 191.038 166.271 191.231 166.164 191.431C166.071 191.631 165.904 191.804 165.664 191.951C165.198 192.244 164.658 192.464 164.044 192.611C163.444 192.744 162.884 192.811 162.364 192.811ZM169.664 192.771C169.251 192.771 168.931 192.664 168.704 192.451C168.491 192.224 168.384 191.904 168.384 191.491V183.931C168.384 183.518 168.491 183.204 168.704 182.991C168.917 182.778 169.217 182.671 169.604 182.671C169.991 182.671 170.291 182.778 170.504 182.991C170.717 183.204 170.824 183.518 170.824 183.931V185.191H170.624C170.811 184.391 171.177 183.784 171.724 183.371C172.271 182.958 172.997 182.711 173.904 182.631C174.184 182.604 174.404 182.678 174.564 182.851C174.737 183.011 174.837 183.264 174.864 183.611C174.891 183.944 174.811 184.218 174.624 184.431C174.451 184.631 174.184 184.751 173.824 184.791L173.384 184.831C172.571 184.911 171.957 185.164 171.544 185.591C171.131 186.004 170.924 186.591 170.924 187.351V191.491C170.924 191.904 170.817 192.224 170.604 192.451C170.391 192.664 170.077 192.771 169.664 192.771ZM181.262 192.811C180.396 192.811 179.669 192.664 179.082 192.371C178.509 192.078 178.082 191.651 177.802 191.091C177.522 190.518 177.382 189.811 177.382 188.971V184.711H176.342C176.022 184.711 175.776 184.631 175.602 184.471C175.429 184.298 175.342 184.064 175.342 183.771C175.342 183.464 175.429 183.231 175.602 183.071C175.776 182.911 176.022 182.831 176.342 182.831H177.382V181.011C177.382 180.598 177.489 180.284 177.702 180.071C177.929 179.858 178.242 179.751 178.642 179.751C179.042 179.751 179.349 179.858 179.562 180.071C179.776 180.284 179.882 180.598 179.882 181.011V182.831H182.002C182.322 182.831 182.569 182.911 182.742 183.071C182.916 183.231 183.002 183.464 183.002 183.771C183.002 184.064 182.916 184.298 182.742 184.471C182.569 184.631 182.322 184.711 182.002 184.711H179.882V188.831C179.882 189.471 180.022 189.951 180.302 190.271C180.582 190.591 181.036 190.751 181.662 190.751C181.889 190.751 182.089 190.731 182.262 190.691C182.436 190.651 182.589 190.624 182.722 190.611C182.882 190.598 183.016 190.651 183.122 190.771C183.229 190.878 183.282 191.104 183.282 191.451C183.282 191.718 183.236 191.958 183.142 192.171C183.062 192.371 182.909 192.511 182.682 192.591C182.509 192.644 182.282 192.691 182.002 192.731C181.722 192.784 181.476 192.811 181.262 192.811ZM187.678 192.811C186.972 192.811 186.338 192.678 185.778 192.411C185.232 192.131 184.798 191.758 184.478 191.291C184.172 190.824 184.018 190.298 184.018 189.711C184.018 188.991 184.205 188.424 184.578 188.011C184.952 187.584 185.558 187.278 186.398 187.091C187.238 186.904 188.365 186.811 189.778 186.811H190.778V188.251H189.798C188.972 188.251 188.312 188.291 187.818 188.371C187.325 188.451 186.972 188.591 186.758 188.791C186.558 188.978 186.458 189.244 186.458 189.591C186.458 190.031 186.612 190.391 186.918 190.671C187.225 190.951 187.652 191.091 188.198 191.091C188.638 191.091 189.025 190.991 189.358 190.791C189.705 190.578 189.978 190.291 190.178 189.931C190.378 189.571 190.478 189.158 190.478 188.691V186.391C190.478 185.724 190.332 185.244 190.038 184.951C189.745 184.658 189.252 184.511 188.558 184.511C188.172 184.511 187.752 184.558 187.298 184.651C186.858 184.744 186.392 184.904 185.898 185.131C185.645 185.251 185.418 185.284 185.218 185.231C185.032 185.178 184.885 185.071 184.778 184.911C184.672 184.738 184.618 184.551 184.618 184.351C184.618 184.151 184.672 183.958 184.778 183.771C184.885 183.571 185.065 183.424 185.318 183.331C185.932 183.078 186.518 182.898 187.078 182.791C187.652 182.684 188.172 182.631 188.638 182.631C189.598 182.631 190.385 182.778 190.998 183.071C191.625 183.364 192.092 183.811 192.398 184.411C192.705 184.998 192.858 185.758 192.858 186.691V191.491C192.858 191.904 192.758 192.224 192.558 192.451C192.358 192.664 192.072 192.771 191.698 192.771C191.325 192.771 191.032 192.664 190.818 192.451C190.618 192.224 190.518 191.904 190.518 191.491V190.531H190.678C190.585 190.998 190.398 191.404 190.118 191.751C189.852 192.084 189.512 192.344 189.098 192.531C188.685 192.718 188.212 192.811 187.678 192.811ZM196.636 192.751C196.236 192.751 195.929 192.631 195.716 192.391C195.502 192.151 195.396 191.818 195.396 191.391V184.051C195.396 183.611 195.502 183.278 195.716 183.051C195.929 182.811 196.236 182.691 196.636 182.691C197.036 182.691 197.342 182.811 197.556 183.051C197.782 183.278 197.896 183.611 197.896 184.051V191.391C197.896 191.818 197.789 192.151 197.576 192.391C197.362 192.631 197.049 192.751 196.636 192.751ZM196.636 180.831C196.169 180.831 195.802 180.718 195.536 180.491C195.282 180.251 195.156 179.924 195.156 179.511C195.156 179.084 195.282 178.758 195.536 178.531C195.802 178.304 196.169 178.191 196.636 178.191C197.116 178.191 197.482 178.304 197.736 178.531C197.989 178.758 198.116 179.084 198.116 179.511C198.116 179.924 197.989 180.251 197.736 180.491C197.482 180.718 197.116 180.831 196.636 180.831ZM201.733 192.771C201.333 192.771 201.027 192.664 200.813 192.451C200.6 192.224 200.493 191.904 200.493 191.491V183.931C200.493 183.518 200.6 183.204 200.813 182.991C201.027 182.778 201.327 182.671 201.713 182.671C202.1 182.671 202.4 182.778 202.613 182.991C202.827 183.204 202.933 183.518 202.933 183.931V185.291L202.713 184.791C203.007 184.084 203.46 183.551 204.073 183.191C204.7 182.818 205.407 182.631 206.193 182.631C206.98 182.631 207.627 182.778 208.133 183.071C208.64 183.364 209.02 183.811 209.273 184.411C209.527 184.998 209.653 185.744 209.653 186.651V191.491C209.653 191.904 209.547 192.224 209.333 192.451C209.12 192.664 208.813 192.771 208.413 192.771C208.013 192.771 207.7 192.664 207.473 192.451C207.26 192.224 207.153 191.904 207.153 191.491V186.771C207.153 186.011 207.007 185.458 206.713 185.111C206.433 184.764 205.993 184.591 205.393 184.591C204.66 184.591 204.073 184.824 203.633 185.291C203.207 185.744 202.993 186.351 202.993 187.111V191.491C202.993 192.344 202.573 192.771 201.733 192.771ZM213.473 192.771C213.073 192.771 212.766 192.664 212.553 192.451C212.339 192.224 212.233 191.904 212.233 191.491V183.931C212.233 183.518 212.339 183.204 212.553 182.991C212.766 182.778 213.066 182.671 213.453 182.671C213.839 182.671 214.139 182.778 214.353 182.991C214.566 183.204 214.673 183.518 214.673 183.931V185.391L214.453 184.791C214.719 184.124 215.133 183.598 215.693 183.211C216.253 182.824 216.919 182.631 217.693 182.631C218.479 182.631 219.126 182.818 219.633 183.191C220.139 183.564 220.493 184.138 220.693 184.911H220.413C220.679 184.204 221.119 183.651 221.733 183.251C222.346 182.838 223.053 182.631 223.853 182.631C224.599 182.631 225.213 182.778 225.693 183.071C226.186 183.364 226.553 183.811 226.793 184.411C227.033 184.998 227.153 185.744 227.153 186.651V191.491C227.153 191.904 227.039 192.224 226.813 192.451C226.599 192.664 226.293 192.771 225.893 192.771C225.493 192.771 225.186 192.664 224.973 192.451C224.759 192.224 224.653 191.904 224.653 191.491V186.751C224.653 186.004 224.526 185.458 224.273 185.111C224.033 184.764 223.619 184.591 223.033 184.591C222.379 184.591 221.866 184.824 221.493 185.291C221.119 185.744 220.933 186.378 220.933 187.191V191.491C220.933 191.904 220.826 192.224 220.613 192.451C220.399 192.664 220.093 192.771 219.693 192.771C219.293 192.771 218.979 192.664 218.753 192.451C218.539 192.224 218.433 191.904 218.433 191.491V186.751C218.433 186.004 218.306 185.458 218.053 185.111C217.813 184.764 217.406 184.591 216.833 184.591C216.179 184.591 215.666 184.824 215.293 185.291C214.919 185.744 214.733 186.378 214.733 187.191V191.491C214.733 192.344 214.313 192.771 213.473 192.771ZM234.552 192.811C233.445 192.811 232.492 192.604 231.692 192.191C230.892 191.778 230.272 191.191 229.832 190.431C229.405 189.671 229.192 188.771 229.192 187.731C229.192 186.718 229.398 185.831 229.812 185.071C230.238 184.311 230.818 183.718 231.552 183.291C232.298 182.851 233.145 182.631 234.092 182.631C234.785 182.631 235.405 182.744 235.952 182.971C236.512 183.198 236.985 183.524 237.372 183.951C237.772 184.378 238.072 184.898 238.272 185.511C238.485 186.111 238.592 186.791 238.592 187.551C238.592 187.791 238.505 187.978 238.332 188.111C238.172 188.231 237.938 188.291 237.632 188.291H231.212V186.851H236.832L236.512 187.151C236.512 186.538 236.418 186.024 236.232 185.611C236.058 185.198 235.798 184.884 235.452 184.671C235.118 184.444 234.698 184.331 234.192 184.331C233.632 184.331 233.152 184.464 232.752 184.731C232.365 184.984 232.065 185.351 231.852 185.831C231.652 186.298 231.552 186.858 231.552 187.511V187.651C231.552 188.744 231.805 189.564 232.312 190.111C232.832 190.644 233.592 190.911 234.592 190.911C234.938 190.911 235.325 190.871 235.752 190.791C236.192 190.698 236.605 190.544 236.992 190.331C237.272 190.171 237.518 190.104 237.732 190.131C237.945 190.144 238.112 190.218 238.232 190.351C238.365 190.484 238.445 190.651 238.472 190.851C238.498 191.038 238.458 191.231 238.352 191.431C238.258 191.631 238.092 191.804 237.852 191.951C237.385 192.244 236.845 192.464 236.232 192.611C235.632 192.744 235.072 192.811 234.552 192.811ZM241.812 192.771C241.412 192.771 241.105 192.664 240.892 192.451C240.678 192.224 240.572 191.904 240.572 191.491V183.931C240.572 183.518 240.678 183.204 240.892 182.991C241.105 182.778 241.405 182.671 241.792 182.671C242.178 182.671 242.478 182.778 242.692 182.991C242.905 183.204 243.012 183.518 243.012 183.931V185.291L242.792 184.791C243.085 184.084 243.538 183.551 244.152 183.191C244.778 182.818 245.485 182.631 246.272 182.631C247.058 182.631 247.705 182.778 248.212 183.071C248.718 183.364 249.098 183.811 249.352 184.411C249.605 184.998 249.732 185.744 249.732 186.651V191.491C249.732 191.904 249.625 192.224 249.412 192.451C249.198 192.664 248.892 192.771 248.492 192.771C248.092 192.771 247.778 192.664 247.552 192.451C247.338 192.224 247.232 191.904 247.232 191.491V186.771C247.232 186.011 247.085 185.458 246.792 185.111C246.512 184.764 246.072 184.591 245.472 184.591C244.738 184.591 244.152 184.824 243.712 185.291C243.285 185.744 243.072 186.351 243.072 187.111V191.491C243.072 192.344 242.652 192.771 241.812 192.771ZM256.751 192.811C255.884 192.811 255.157 192.664 254.571 192.371C253.997 192.078 253.571 191.651 253.291 191.091C253.011 190.518 252.871 189.811 252.871 188.971V184.711H251.831C251.511 184.711 251.264 184.631 251.091 184.471C250.917 184.298 250.831 184.064 250.831 183.771C250.831 183.464 250.917 183.231 251.091 183.071C251.264 182.911 251.511 182.831 251.831 182.831H252.871V181.011C252.871 180.598 252.977 180.284 253.191 180.071C253.417 179.858 253.731 179.751 254.131 179.751C254.531 179.751 254.837 179.858 255.051 180.071C255.264 180.284 255.371 180.598 255.371 181.011V182.831H257.491C257.811 182.831 258.057 182.911 258.231 183.071C258.404 183.231 258.491 183.464 258.491 183.771C258.491 184.064 258.404 184.298 258.231 184.471C258.057 184.631 257.811 184.711 257.491 184.711H255.371V188.831C255.371 189.471 255.511 189.951 255.791 190.271C256.071 190.591 256.524 190.751 257.151 190.751C257.377 190.751 257.577 190.731 257.751 190.691C257.924 190.651 258.077 190.624 258.211 190.611C258.371 190.598 258.504 190.651 258.611 190.771C258.717 190.878 258.771 191.104 258.771 191.451C258.771 191.718 258.724 191.958 258.631 192.171C258.551 192.371 258.397 192.511 258.171 192.591C257.997 192.644 257.771 192.691 257.491 192.731C257.211 192.784 256.964 192.811 256.751 192.811Z" fill="#212D4D"/>
<path d="M44.6217 220.611V210.671H45.8817V219.491H51.4257V220.611H44.6217ZM55.6841 220.751C55.1334 220.751 54.6341 220.653 54.1861 220.457C53.7381 220.252 53.3508 219.976 53.0241 219.631C52.6974 219.276 52.4454 218.87 52.2681 218.413C52.0908 217.956 52.0021 217.475 52.0021 216.971C52.0021 216.458 52.0908 215.972 52.2681 215.515C52.4454 215.058 52.6974 214.656 53.0241 214.311C53.3508 213.956 53.7381 213.681 54.1861 213.485C54.6434 213.28 55.1428 213.177 55.6841 213.177C56.2348 213.177 56.7341 213.28 57.1821 213.485C57.6301 213.681 58.0174 213.956 58.3441 214.311C58.6801 214.656 58.9368 215.058 59.1141 215.515C59.2914 215.972 59.3801 216.458 59.3801 216.971C59.3801 217.475 59.2914 217.956 59.1141 218.413C58.9368 218.87 58.6848 219.276 58.3581 219.631C58.0314 219.976 57.6394 220.252 57.1821 220.457C56.7341 220.653 56.2348 220.751 55.6841 220.751ZM53.2621 216.985C53.2621 217.489 53.3694 217.946 53.5841 218.357C53.8081 218.768 54.1021 219.094 54.4661 219.337C54.8301 219.57 55.2361 219.687 55.6841 219.687C56.1321 219.687 56.5381 219.566 56.9021 219.323C57.2754 219.08 57.5694 218.754 57.7841 218.343C58.0081 217.923 58.1201 217.461 58.1201 216.957C58.1201 216.453 58.0081 215.996 57.7841 215.585C57.5694 215.174 57.2754 214.848 56.9021 214.605C56.5381 214.362 56.1321 214.241 55.6841 214.241C55.2361 214.241 54.8301 214.367 54.4661 214.619C54.1021 214.862 53.8081 215.188 53.5841 215.599C53.3694 216.01 53.2621 216.472 53.2621 216.985ZM64.737 214.381C64.121 214.39 63.575 214.549 63.099 214.857C62.6323 215.156 62.301 215.571 62.105 216.103V220.611H60.873V213.303H62.021V214.997C62.273 214.493 62.6043 214.087 63.015 213.779C63.435 213.462 63.8736 213.284 64.331 213.247C64.4243 213.247 64.5036 213.247 64.569 213.247C64.6343 213.247 64.6903 213.252 64.737 213.261V214.381ZM69.0152 220.751C68.4645 220.751 67.9605 220.653 67.5032 220.457C67.0552 220.252 66.6632 219.976 66.3272 219.631C66.0005 219.276 65.7438 218.87 65.5572 218.413C65.3798 217.956 65.2912 217.47 65.2912 216.957C65.2912 216.266 65.4498 215.636 65.7672 215.067C66.0845 214.498 66.5232 214.04 67.0832 213.695C67.6525 213.35 68.3012 213.177 69.0292 213.177C69.7665 213.177 70.4058 213.354 70.9472 213.709C71.4978 214.054 71.9225 214.512 72.2212 215.081C72.5292 215.641 72.6832 216.248 72.6832 216.901C72.6832 216.994 72.6785 217.088 72.6692 217.181C72.6692 217.265 72.6645 217.33 72.6552 217.377H66.5932C66.6305 217.853 66.7612 218.278 66.9852 218.651C67.2185 219.015 67.5172 219.304 67.8812 219.519C68.2452 219.724 68.6372 219.827 69.0572 219.827C69.5052 219.827 69.9252 219.715 70.3172 219.491C70.7185 219.267 70.9938 218.973 71.1432 218.609L72.2072 218.903C72.0485 219.258 71.8105 219.575 71.4932 219.855C71.1852 220.135 70.8165 220.354 70.3872 220.513C69.9672 220.672 69.5098 220.751 69.0152 220.751ZM66.5512 216.523H71.5352C71.4978 216.047 71.3625 215.627 71.1292 215.263C70.8958 214.899 70.5972 214.614 70.2332 214.409C69.8692 214.204 69.4678 214.101 69.0292 214.101C68.5998 214.101 68.2032 214.204 67.8392 214.409C67.4752 214.614 67.1765 214.899 66.9432 215.263C66.7192 215.627 66.5885 216.047 66.5512 216.523ZM85.0707 220.611H83.8387V216.523C83.8387 215.758 83.7127 215.193 83.4607 214.829C83.218 214.465 82.854 214.283 82.3687 214.283C81.874 214.283 81.426 214.465 81.0247 214.829C80.6233 215.184 80.3387 215.646 80.1707 216.215V220.611H78.9387V216.523C78.9387 215.748 78.8173 215.184 78.5747 214.829C78.332 214.465 77.968 214.283 77.4827 214.283C76.9973 214.283 76.5493 214.46 76.1387 214.815C75.7373 215.16 75.4527 215.622 75.2847 216.201V220.611H74.0527V213.303H75.1727V214.871C75.4713 214.33 75.8587 213.914 76.3347 213.625C76.8107 213.326 77.3473 213.177 77.9447 213.177C78.5513 213.177 79.0367 213.345 79.4007 213.681C79.7647 214.008 79.9887 214.432 80.0727 214.955C80.3993 214.376 80.796 213.938 81.2627 213.639C81.7293 213.331 82.2613 213.177 82.8587 213.177C83.2787 213.177 83.6287 213.256 83.9087 213.415C84.198 213.564 84.4267 213.779 84.5947 214.059C84.7627 214.33 84.884 214.652 84.9587 215.025C85.0333 215.398 85.0707 215.804 85.0707 216.243V220.611ZM90.5273 220.611V213.303H91.7593V220.611H90.5273ZM90.5273 211.931V210.391H91.7593V211.931H90.5273ZM97.6878 220.751C97.0905 220.751 96.5585 220.602 96.0918 220.303C95.6252 220.004 95.2565 219.626 94.9858 219.169V223.593H93.7538V213.303H94.8458V214.675C95.1352 214.227 95.5132 213.868 95.9798 213.597C96.4465 213.317 96.9552 213.177 97.5058 213.177C98.0098 213.177 98.4718 213.28 98.8918 213.485C99.3118 213.69 99.6758 213.97 99.9838 214.325C100.292 214.68 100.53 215.086 100.698 215.543C100.875 215.991 100.964 216.462 100.964 216.957C100.964 217.648 100.824 218.282 100.544 218.861C100.273 219.44 99.8905 219.902 99.3958 220.247C98.9012 220.583 98.3318 220.751 97.6878 220.751ZM97.3098 219.687C97.6738 219.687 98.0005 219.612 98.2898 219.463C98.5885 219.304 98.8405 219.099 99.0458 218.847C99.2605 218.586 99.4238 218.292 99.5358 217.965C99.6478 217.638 99.7038 217.302 99.7038 216.957C99.7038 216.593 99.6385 216.248 99.5078 215.921C99.3865 215.594 99.2092 215.305 98.9758 215.053C98.7518 214.801 98.4858 214.605 98.1778 214.465C97.8792 214.316 97.5525 214.241 97.1978 214.241C96.9738 214.241 96.7405 214.283 96.4978 214.367C96.2645 214.451 96.0405 214.572 95.8258 214.731C95.6112 214.88 95.4292 215.053 95.2798 215.249C95.1305 215.445 95.0325 215.655 94.9858 215.879V217.965C95.1258 218.282 95.3125 218.572 95.5458 218.833C95.7792 219.094 96.0498 219.304 96.3578 219.463C96.6658 219.612 96.9832 219.687 97.3098 219.687ZM104.982 220.751C104.376 220.751 103.806 220.653 103.274 220.457C102.742 220.252 102.285 219.948 101.902 219.547L102.378 218.679C102.798 219.071 103.218 219.351 103.638 219.519C104.058 219.687 104.488 219.771 104.926 219.771C105.43 219.771 105.841 219.678 106.158 219.491C106.476 219.295 106.634 219.01 106.634 218.637C106.634 218.366 106.55 218.166 106.382 218.035C106.224 217.904 105.995 217.797 105.696 217.713C105.398 217.62 105.043 217.517 104.632 217.405C104.128 217.256 103.704 217.097 103.358 216.929C103.013 216.761 102.752 216.551 102.574 216.299C102.397 216.047 102.308 215.73 102.308 215.347C102.308 214.88 102.43 214.488 102.672 214.171C102.915 213.844 103.246 213.597 103.666 213.429C104.096 213.261 104.581 213.177 105.122 213.177C105.664 213.177 106.154 213.261 106.592 213.429C107.031 213.597 107.409 213.844 107.726 214.171L107.166 215.025C106.877 214.726 106.56 214.507 106.214 214.367C105.869 214.218 105.482 214.143 105.052 214.143C104.8 214.143 104.553 214.176 104.31 214.241C104.068 214.297 103.867 214.404 103.708 214.563C103.55 214.712 103.47 214.927 103.47 215.207C103.47 215.44 103.531 215.627 103.652 215.767C103.783 215.898 103.97 216.01 104.212 216.103C104.464 216.196 104.768 216.299 105.122 216.411C105.673 216.57 106.149 216.728 106.55 216.887C106.961 217.046 107.278 217.251 107.502 217.503C107.726 217.755 107.838 218.105 107.838 218.553C107.838 219.244 107.577 219.785 107.054 220.177C106.532 220.56 105.841 220.751 104.982 220.751ZM109.242 217.685V213.303H110.474V217.447C110.474 218.194 110.605 218.754 110.866 219.127C111.128 219.5 111.515 219.687 112.028 219.687C112.364 219.687 112.686 219.617 112.994 219.477C113.312 219.328 113.596 219.118 113.848 218.847C114.1 218.576 114.296 218.254 114.436 217.881V213.303H115.668V219.211C115.668 219.36 115.696 219.472 115.752 219.547C115.818 219.612 115.92 219.65 116.06 219.659V220.611C115.92 220.63 115.808 220.639 115.724 220.639C115.65 220.648 115.575 220.653 115.5 220.653C115.267 220.653 115.066 220.583 114.898 220.443C114.73 220.294 114.642 220.112 114.632 219.897L114.604 219.043C114.287 219.584 113.858 220.004 113.316 220.303C112.784 220.602 112.201 220.751 111.566 220.751C110.801 220.751 110.222 220.494 109.83 219.981C109.438 219.458 109.242 218.693 109.242 217.685ZM128.739 220.611H127.507V216.523C127.507 215.758 127.381 215.193 127.129 214.829C126.886 214.465 126.522 214.283 126.037 214.283C125.542 214.283 125.094 214.465 124.693 214.829C124.291 215.184 124.007 215.646 123.839 216.215V220.611H122.607V216.523C122.607 215.748 122.485 215.184 122.243 214.829C122 214.465 121.636 214.283 121.151 214.283C120.665 214.283 120.217 214.46 119.807 214.815C119.405 215.16 119.121 215.622 118.953 216.201V220.611H117.721V213.303H118.841V214.871C119.139 214.33 119.527 213.914 120.003 213.625C120.479 213.326 121.015 213.177 121.613 213.177C122.219 213.177 122.705 213.345 123.069 213.681C123.433 214.008 123.657 214.432 123.741 214.955C124.067 214.376 124.464 213.938 124.931 213.639C125.397 213.331 125.929 213.177 126.527 213.177C126.947 213.177 127.297 213.256 127.577 213.415C127.866 213.564 128.095 213.779 128.263 214.059C128.431 214.33 128.552 214.652 128.627 215.025C128.701 215.398 128.739 215.804 128.739 216.243V220.611ZM133.719 216.971C133.719 216.28 133.859 215.65 134.139 215.081C134.429 214.502 134.821 214.04 135.315 213.695C135.819 213.35 136.393 213.177 137.037 213.177C137.625 213.177 138.153 213.331 138.619 213.639C139.086 213.947 139.45 214.32 139.711 214.759V210.391H140.943V219.211C140.943 219.36 140.971 219.472 141.027 219.547C141.093 219.612 141.195 219.65 141.335 219.659V220.611C141.102 220.648 140.92 220.667 140.789 220.667C140.547 220.667 140.332 220.583 140.145 220.415C139.968 220.247 139.879 220.06 139.879 219.855V219.239C139.59 219.706 139.203 220.074 138.717 220.345C138.232 220.616 137.728 220.751 137.205 220.751C136.701 220.751 136.235 220.653 135.805 220.457C135.385 220.252 135.017 219.972 134.699 219.617C134.391 219.262 134.149 218.861 133.971 218.413C133.803 217.956 133.719 217.475 133.719 216.971ZM139.711 218.049V215.949C139.599 215.632 139.417 215.347 139.165 215.095C138.913 214.834 138.629 214.628 138.311 214.479C138.003 214.32 137.695 214.241 137.387 214.241C137.023 214.241 136.692 214.32 136.393 214.479C136.104 214.628 135.852 214.834 135.637 215.095C135.432 215.347 135.273 215.636 135.161 215.963C135.049 216.29 134.993 216.63 134.993 216.985C134.993 217.349 135.054 217.694 135.175 218.021C135.306 218.348 135.483 218.637 135.707 218.889C135.941 219.141 136.207 219.337 136.505 219.477C136.813 219.617 137.145 219.687 137.499 219.687C137.723 219.687 137.952 219.645 138.185 219.561C138.428 219.477 138.657 219.36 138.871 219.211C139.086 219.062 139.268 218.889 139.417 218.693C139.567 218.488 139.665 218.273 139.711 218.049ZM146.192 220.751C145.641 220.751 145.142 220.653 144.694 220.457C144.246 220.252 143.859 219.976 143.532 219.631C143.205 219.276 142.953 218.87 142.776 218.413C142.599 217.956 142.51 217.475 142.51 216.971C142.51 216.458 142.599 215.972 142.776 215.515C142.953 215.058 143.205 214.656 143.532 214.311C143.859 213.956 144.246 213.681 144.694 213.485C145.151 213.28 145.651 213.177 146.192 213.177C146.743 213.177 147.242 213.28 147.69 213.485C148.138 213.681 148.525 213.956 148.852 214.311C149.188 214.656 149.445 215.058 149.622 215.515C149.799 215.972 149.888 216.458 149.888 216.971C149.888 217.475 149.799 217.956 149.622 218.413C149.445 218.87 149.193 219.276 148.866 219.631C148.539 219.976 148.147 220.252 147.69 220.457C147.242 220.653 146.743 220.751 146.192 220.751ZM143.77 216.985C143.77 217.489 143.877 217.946 144.092 218.357C144.316 218.768 144.61 219.094 144.974 219.337C145.338 219.57 145.744 219.687 146.192 219.687C146.64 219.687 147.046 219.566 147.41 219.323C147.783 219.08 148.077 218.754 148.292 218.343C148.516 217.923 148.628 217.461 148.628 216.957C148.628 216.453 148.516 215.996 148.292 215.585C148.077 215.174 147.783 214.848 147.41 214.605C147.046 214.362 146.64 214.241 146.192 214.241C145.744 214.241 145.338 214.367 144.974 214.619C144.61 214.862 144.316 215.188 144.092 215.599C143.877 216.01 143.77 216.472 143.77 216.985ZM151.409 210.391H152.641V218.721C152.641 219.122 152.697 219.37 152.809 219.463C152.921 219.556 153.056 219.603 153.215 219.603C153.411 219.603 153.597 219.584 153.775 219.547C153.952 219.5 154.101 219.454 154.223 219.407L154.419 220.415C154.213 220.499 153.971 220.569 153.691 220.625C153.411 220.681 153.163 220.709 152.949 220.709C152.473 220.709 152.095 220.574 151.815 220.303C151.544 220.032 151.409 219.654 151.409 219.169V210.391ZM158.579 220.751C158.028 220.751 157.529 220.653 157.081 220.457C156.633 220.252 156.245 219.976 155.919 219.631C155.592 219.276 155.34 218.87 155.163 218.413C154.985 217.956 154.897 217.475 154.897 216.971C154.897 216.458 154.985 215.972 155.163 215.515C155.34 215.058 155.592 214.656 155.919 214.311C156.245 213.956 156.633 213.681 157.081 213.485C157.538 213.28 158.037 213.177 158.579 213.177C159.129 213.177 159.629 213.28 160.077 213.485C160.525 213.681 160.912 213.956 161.239 214.311C161.575 214.656 161.831 215.058 162.009 215.515C162.186 215.972 162.275 216.458 162.275 216.971C162.275 217.475 162.186 217.956 162.009 218.413C161.831 218.87 161.579 219.276 161.253 219.631C160.926 219.976 160.534 220.252 160.077 220.457C159.629 220.653 159.129 220.751 158.579 220.751ZM156.157 216.985C156.157 217.489 156.264 217.946 156.479 218.357C156.703 218.768 156.997 219.094 157.361 219.337C157.725 219.57 158.131 219.687 158.579 219.687C159.027 219.687 159.433 219.566 159.797 219.323C160.17 219.08 160.464 218.754 160.679 218.343C160.903 217.923 161.015 217.461 161.015 216.957C161.015 216.453 160.903 215.996 160.679 215.585C160.464 215.174 160.17 214.848 159.797 214.605C159.433 214.362 159.027 214.241 158.579 214.241C158.131 214.241 157.725 214.367 157.361 214.619C156.997 214.862 156.703 215.188 156.479 215.599C156.264 216.01 156.157 216.472 156.157 216.985ZM167.631 214.381C167.015 214.39 166.469 214.549 165.993 214.857C165.527 215.156 165.195 215.571 164.999 216.103V220.611H163.767V213.303H164.915V214.997C165.167 214.493 165.499 214.087 165.909 213.779C166.329 213.462 166.768 213.284 167.225 213.247C167.319 213.247 167.398 213.247 167.463 213.247C167.529 213.247 167.585 213.252 167.631 213.261V214.381ZM174.572 220.751C173.966 220.751 173.396 220.653 172.864 220.457C172.332 220.252 171.875 219.948 171.492 219.547L171.968 218.679C172.388 219.071 172.808 219.351 173.228 219.519C173.648 219.687 174.078 219.771 174.516 219.771C175.02 219.771 175.431 219.678 175.748 219.491C176.066 219.295 176.224 219.01 176.224 218.637C176.224 218.366 176.14 218.166 175.972 218.035C175.814 217.904 175.585 217.797 175.286 217.713C174.988 217.62 174.633 217.517 174.222 217.405C173.718 217.256 173.294 217.097 172.948 216.929C172.603 216.761 172.342 216.551 172.164 216.299C171.987 216.047 171.898 215.73 171.898 215.347C171.898 214.88 172.02 214.488 172.262 214.171C172.505 213.844 172.836 213.597 173.256 213.429C173.686 213.261 174.171 213.177 174.712 213.177C175.254 213.177 175.744 213.261 176.182 213.429C176.621 213.597 176.999 213.844 177.316 214.171L176.756 215.025C176.467 214.726 176.15 214.507 175.804 214.367C175.459 214.218 175.072 214.143 174.642 214.143C174.39 214.143 174.143 214.176 173.9 214.241C173.658 214.297 173.457 214.404 173.298 214.563C173.14 214.712 173.06 214.927 173.06 215.207C173.06 215.44 173.121 215.627 173.242 215.767C173.373 215.898 173.56 216.01 173.802 216.103C174.054 216.196 174.358 216.299 174.712 216.411C175.263 216.57 175.739 216.728 176.14 216.887C176.551 217.046 176.868 217.251 177.092 217.503C177.316 217.755 177.428 218.105 177.428 218.553C177.428 219.244 177.167 219.785 176.644 220.177C176.122 220.56 175.431 220.751 174.572 220.751ZM178.902 220.611V213.303H180.134V220.611H178.902ZM178.902 211.931V210.391H180.134V211.931H178.902ZM185.909 220.247C185.806 220.294 185.666 220.354 185.489 220.429C185.311 220.504 185.106 220.569 184.873 220.625C184.639 220.681 184.392 220.709 184.131 220.709C183.832 220.709 183.557 220.658 183.305 220.555C183.053 220.443 182.852 220.275 182.703 220.051C182.553 219.818 182.479 219.528 182.479 219.183V214.269H181.485V213.303H182.479V210.867H183.711V213.303H185.349V214.269H183.711V218.805C183.729 219.066 183.818 219.262 183.977 219.393C184.135 219.514 184.322 219.575 184.537 219.575C184.779 219.575 185.003 219.533 185.209 219.449C185.414 219.365 185.549 219.304 185.615 219.267L185.909 220.247ZM190.018 218.497C190.018 218.03 190.148 217.629 190.41 217.293C190.68 216.948 191.049 216.682 191.516 216.495C191.982 216.308 192.524 216.215 193.14 216.215C193.466 216.215 193.812 216.243 194.176 216.299C194.54 216.346 194.862 216.42 195.142 216.523V215.991C195.142 215.431 194.974 214.992 194.638 214.675C194.302 214.348 193.826 214.185 193.21 214.185C192.808 214.185 192.421 214.26 192.048 214.409C191.684 214.549 191.296 214.754 190.886 215.025L190.438 214.157C190.914 213.83 191.39 213.588 191.866 213.429C192.342 213.261 192.836 213.177 193.35 213.177C194.283 213.177 195.02 213.438 195.562 213.961C196.103 214.474 196.374 215.193 196.374 216.117V219.211C196.374 219.36 196.402 219.472 196.458 219.547C196.523 219.612 196.626 219.65 196.766 219.659V220.611C196.644 220.63 196.537 220.644 196.444 220.653C196.36 220.662 196.29 220.667 196.234 220.667C195.944 220.667 195.725 220.588 195.576 220.429C195.436 220.27 195.356 220.102 195.338 219.925L195.31 219.463C194.992 219.874 194.577 220.191 194.064 220.415C193.55 220.639 193.042 220.751 192.538 220.751C192.052 220.751 191.618 220.653 191.236 220.457C190.853 220.252 190.554 219.981 190.34 219.645C190.125 219.3 190.018 218.917 190.018 218.497ZM194.778 219.015C194.89 218.884 194.978 218.754 195.044 218.623C195.109 218.483 195.142 218.366 195.142 218.273V217.363C194.852 217.251 194.549 217.167 194.232 217.111C193.914 217.046 193.602 217.013 193.294 217.013C192.668 217.013 192.16 217.139 191.768 217.391C191.385 217.634 191.194 217.97 191.194 218.399C191.194 218.632 191.254 218.861 191.376 219.085C191.506 219.3 191.693 219.477 191.936 219.617C192.188 219.757 192.496 219.827 192.86 219.827C193.242 219.827 193.606 219.752 193.952 219.603C194.297 219.444 194.572 219.248 194.778 219.015ZM209.362 220.611H208.13V216.523C208.13 215.758 208.004 215.193 207.752 214.829C207.509 214.465 207.145 214.283 206.66 214.283C206.165 214.283 205.717 214.465 205.316 214.829C204.914 215.184 204.63 215.646 204.462 216.215V220.611H203.23V216.523C203.23 215.748 203.108 215.184 202.866 214.829C202.623 214.465 202.259 214.283 201.774 214.283C201.288 214.283 200.84 214.46 200.43 214.815C200.028 215.16 199.744 215.622 199.576 216.201V220.611H198.344V213.303H199.464V214.871C199.762 214.33 200.15 213.914 200.626 213.625C201.102 213.326 201.638 213.177 202.236 213.177C202.842 213.177 203.328 213.345 203.692 213.681C204.056 214.008 204.28 214.432 204.364 214.955C204.69 214.376 205.087 213.938 205.554 213.639C206.02 213.331 206.552 213.177 207.15 213.177C207.57 213.177 207.92 213.256 208.2 213.415C208.489 213.564 208.718 213.779 208.886 214.059C209.054 214.33 209.175 214.652 209.25 215.025C209.324 215.398 209.362 215.804 209.362 216.243V220.611ZM214.511 220.751C213.961 220.751 213.457 220.653 212.999 220.457C212.551 220.252 212.159 219.976 211.823 219.631C211.497 219.276 211.24 218.87 211.053 218.413C210.876 217.956 210.787 217.47 210.787 216.957C210.787 216.266 210.946 215.636 211.263 215.067C211.581 214.498 212.019 214.04 212.579 213.695C213.149 213.35 213.797 213.177 214.525 213.177C215.263 213.177 215.902 213.354 216.443 213.709C216.994 214.054 217.419 214.512 217.717 215.081C218.025 215.641 218.179 216.248 218.179 216.901C218.179 216.994 218.175 217.088 218.165 217.181C218.165 217.265 218.161 217.33 218.151 217.377H212.089C212.127 217.853 212.257 218.278 212.481 218.651C212.715 219.015 213.013 219.304 213.377 219.519C213.741 219.724 214.133 219.827 214.553 219.827C215.001 219.827 215.421 219.715 215.813 219.491C216.215 219.267 216.49 218.973 216.639 218.609L217.703 218.903C217.545 219.258 217.307 219.575 216.989 219.855C216.681 220.135 216.313 220.354 215.883 220.513C215.463 220.672 215.006 220.751 214.511 220.751ZM212.047 216.523H217.031C216.994 216.047 216.859 215.627 216.625 215.263C216.392 214.899 216.093 214.614 215.729 214.409C215.365 214.204 214.964 214.101 214.525 214.101C214.096 214.101 213.699 214.204 213.335 214.409C212.971 214.614 212.673 214.899 212.439 215.263C212.215 215.627 212.085 216.047 212.047 216.523ZM223.26 220.247C223.158 220.294 223.018 220.354 222.84 220.429C222.663 220.504 222.458 220.569 222.224 220.625C221.991 220.681 221.744 220.709 221.482 220.709C221.184 220.709 220.908 220.658 220.656 220.555C220.404 220.443 220.204 220.275 220.054 220.051C219.905 219.818 219.83 219.528 219.83 219.183V214.269H218.836V213.303H219.83V210.867H221.062V213.303H222.7V214.269H221.062V218.805C221.081 219.066 221.17 219.262 221.328 219.393C221.487 219.514 221.674 219.575 221.888 219.575C222.131 219.575 222.355 219.533 222.56 219.449C222.766 219.365 222.901 219.304 222.966 219.267L223.26 220.247ZM224.444 221.745L224.724 220.499H224.304V219.043H225.466V220.499L225.046 221.745H224.444ZM47.6597 241.751C47.109 241.751 46.605 241.653 46.1477 241.457C45.6997 241.252 45.3077 240.972 44.9717 240.617C44.645 240.262 44.3884 239.856 44.2017 239.399C44.0244 238.942 43.9357 238.456 43.9357 237.943C43.9357 237.252 44.0897 236.622 44.3977 236.053C44.7057 235.484 45.1397 235.031 45.6997 234.695C46.2597 234.35 46.9084 234.177 47.6457 234.177C48.3644 234.177 48.9897 234.34 49.5217 234.667C50.063 234.984 50.4644 235.414 50.7257 235.955L49.5217 236.333C49.335 235.988 49.0737 235.722 48.7377 235.535C48.4017 235.339 48.0284 235.241 47.6177 235.241C47.1697 235.241 46.759 235.358 46.3857 235.591C46.0217 235.824 45.7324 236.146 45.5177 236.557C45.303 236.958 45.1957 237.42 45.1957 237.943C45.1957 238.456 45.303 238.923 45.5177 239.343C45.7417 239.754 46.0357 240.08 46.3997 240.323C46.773 240.566 47.1837 240.687 47.6317 240.687C47.921 240.687 48.1964 240.636 48.4577 240.533C48.7284 240.43 48.9617 240.295 49.1577 240.127C49.363 239.95 49.503 239.758 49.5777 239.553L50.7817 239.917C50.6324 240.272 50.4037 240.589 50.0957 240.869C49.797 241.14 49.4377 241.354 49.0177 241.513C48.607 241.672 48.1544 241.751 47.6597 241.751ZM55.3013 241.751C54.7506 241.751 54.2513 241.653 53.8033 241.457C53.3553 241.252 52.968 240.976 52.6413 240.631C52.3146 240.276 52.0626 239.87 51.8853 239.413C51.708 238.956 51.6193 238.475 51.6193 237.971C51.6193 237.458 51.708 236.972 51.8853 236.515C52.0626 236.058 52.3146 235.656 52.6413 235.311C52.968 234.956 53.3553 234.681 53.8033 234.485C54.2606 234.28 54.76 234.177 55.3013 234.177C55.852 234.177 56.3513 234.28 56.7993 234.485C57.2473 234.681 57.6346 234.956 57.9613 235.311C58.2973 235.656 58.554 236.058 58.7313 236.515C58.9086 236.972 58.9973 237.458 58.9973 237.971C58.9973 238.475 58.9086 238.956 58.7313 239.413C58.554 239.87 58.302 240.276 57.9753 240.631C57.6486 240.976 57.2566 241.252 56.7993 241.457C56.3513 241.653 55.852 241.751 55.3013 241.751ZM52.8793 237.985C52.8793 238.489 52.9866 238.946 53.2013 239.357C53.4253 239.768 53.7193 240.094 54.0833 240.337C54.4473 240.57 54.8533 240.687 55.3013 240.687C55.7493 240.687 56.1553 240.566 56.5193 240.323C56.8926 240.08 57.1866 239.754 57.4013 239.343C57.6253 238.923 57.7373 238.461 57.7373 237.957C57.7373 237.453 57.6253 236.996 57.4013 236.585C57.1866 236.174 56.8926 235.848 56.5193 235.605C56.1553 235.362 55.7493 235.241 55.3013 235.241C54.8533 235.241 54.4473 235.367 54.0833 235.619C53.7193 235.862 53.4253 236.188 53.2013 236.599C52.9866 237.01 52.8793 237.472 52.8793 237.985ZM66.8322 241.611H65.6002V237.523C65.6002 236.748 65.4788 236.184 65.2362 235.829C65.0028 235.465 64.6435 235.283 64.1582 235.283C63.8222 235.283 63.4862 235.367 63.1502 235.535C62.8235 235.703 62.5295 235.932 62.2682 236.221C62.0162 236.501 61.8342 236.828 61.7222 237.201V241.611H60.4902V234.303H61.6102V235.871C61.8062 235.526 62.0582 235.227 62.3662 234.975C62.6742 234.723 63.0242 234.527 63.4162 234.387C63.8082 234.247 64.2188 234.177 64.6482 234.177C65.0682 234.177 65.4182 234.256 65.6982 234.415C65.9875 234.564 66.2115 234.779 66.3702 235.059C66.5382 235.33 66.6548 235.652 66.7202 236.025C66.7948 236.398 66.8322 236.804 66.8322 237.243V241.611ZM71.254 241.751C70.6473 241.751 70.078 241.653 69.546 241.457C69.014 241.252 68.5566 240.948 68.174 240.547L68.65 239.679C69.07 240.071 69.49 240.351 69.91 240.519C70.33 240.687 70.7593 240.771 71.198 240.771C71.702 240.771 72.1126 240.678 72.43 240.491C72.7473 240.295 72.906 240.01 72.906 239.637C72.906 239.366 72.822 239.166 72.654 239.035C72.4953 238.904 72.2666 238.797 71.968 238.713C71.6693 238.62 71.3146 238.517 70.904 238.405C70.4 238.256 69.9753 238.097 69.63 237.929C69.2846 237.761 69.0233 237.551 68.846 237.299C68.6686 237.047 68.58 236.73 68.58 236.347C68.58 235.88 68.7013 235.488 68.944 235.171C69.1866 234.844 69.518 234.597 69.938 234.429C70.3673 234.261 70.8526 234.177 71.394 234.177C71.9353 234.177 72.4253 234.261 72.864 234.429C73.3026 234.597 73.6806 234.844 73.998 235.171L73.438 236.025C73.1486 235.726 72.8313 235.507 72.486 235.367C72.1406 235.218 71.7533 235.143 71.324 235.143C71.072 235.143 70.8246 235.176 70.582 235.241C70.3393 235.297 70.1386 235.404 69.98 235.563C69.8213 235.712 69.742 235.927 69.742 236.207C69.742 236.44 69.8026 236.627 69.924 236.767C70.0546 236.898 70.2413 237.01 70.484 237.103C70.736 237.196 71.0393 237.299 71.394 237.411C71.9446 237.57 72.4206 237.728 72.822 237.887C73.2326 238.046 73.55 238.251 73.774 238.503C73.998 238.755 74.11 239.105 74.11 239.553C74.11 240.244 73.8486 240.785 73.326 241.177C72.8033 241.56 72.1126 241.751 71.254 241.751ZM78.8179 241.751C78.2672 241.751 77.7632 241.653 77.3059 241.457C76.8579 241.252 76.4659 240.976 76.1299 240.631C75.8032 240.276 75.5466 239.87 75.3599 239.413C75.1826 238.956 75.0939 238.47 75.0939 237.957C75.0939 237.266 75.2526 236.636 75.5699 236.067C75.8872 235.498 76.3259 235.04 76.8859 234.695C77.4552 234.35 78.1039 234.177 78.8319 234.177C79.5692 234.177 80.2086 234.354 80.7499 234.709C81.3006 235.054 81.7252 235.512 82.0239 236.081C82.3319 236.641 82.4859 237.248 82.4859 237.901C82.4859 237.994 82.4812 238.088 82.4719 238.181C82.4719 238.265 82.4672 238.33 82.4579 238.377H76.3959C76.4332 238.853 76.5639 239.278 76.7879 239.651C77.0212 240.015 77.3199 240.304 77.6839 240.519C78.0479 240.724 78.4399 240.827 78.8599 240.827C79.3079 240.827 79.7279 240.715 80.1199 240.491C80.5212 240.267 80.7966 239.973 80.9459 239.609L82.0099 239.903C81.8512 240.258 81.6132 240.575 81.2959 240.855C80.9879 241.135 80.6192 241.354 80.1899 241.513C79.7699 241.672 79.3126 241.751 78.8179 241.751ZM76.3539 237.523H81.3379C81.3006 237.047 81.1652 236.627 80.9319 236.263C80.6986 235.899 80.3999 235.614 80.0359 235.409C79.6719 235.204 79.2706 235.101 78.8319 235.101C78.4026 235.101 78.0059 235.204 77.6419 235.409C77.2779 235.614 76.9792 235.899 76.7459 236.263C76.5219 236.627 76.3912 237.047 76.3539 237.523ZM87.0894 241.751C86.5387 241.751 86.0347 241.653 85.5774 241.457C85.1294 241.252 84.7374 240.972 84.4014 240.617C84.0747 240.262 83.8181 239.856 83.6314 239.399C83.4541 238.942 83.3654 238.456 83.3654 237.943C83.3654 237.252 83.5194 236.622 83.8274 236.053C84.1354 235.484 84.5694 235.031 85.1294 234.695C85.6894 234.35 86.3381 234.177 87.0754 234.177C87.7941 234.177 88.4194 234.34 88.9514 234.667C89.4927 234.984 89.8941 235.414 90.1554 235.955L88.9514 236.333C88.7647 235.988 88.5034 235.722 88.1674 235.535C87.8314 235.339 87.4581 235.241 87.0474 235.241C86.5994 235.241 86.1887 235.358 85.8154 235.591C85.4514 235.824 85.1621 236.146 84.9474 236.557C84.7327 236.958 84.6254 237.42 84.6254 237.943C84.6254 238.456 84.7327 238.923 84.9474 239.343C85.1714 239.754 85.4654 240.08 85.8294 240.323C86.2027 240.566 86.6134 240.687 87.0614 240.687C87.3507 240.687 87.6261 240.636 87.8874 240.533C88.1581 240.43 88.3914 240.295 88.5874 240.127C88.7927 239.95 88.9327 239.758 89.0074 239.553L90.2114 239.917C90.0621 240.272 89.8334 240.589 89.5254 240.869C89.2267 241.14 88.8674 241.354 88.4474 241.513C88.0367 241.672 87.5841 241.751 87.0894 241.751ZM95.3873 241.247C95.2847 241.294 95.1447 241.354 94.9673 241.429C94.79 241.504 94.5847 241.569 94.3513 241.625C94.118 241.681 93.8707 241.709 93.6093 241.709C93.3107 241.709 93.0353 241.658 92.7833 241.555C92.5313 241.443 92.3307 241.275 92.1813 241.051C92.032 240.818 91.9573 240.528 91.9573 240.183V235.269H90.9633V234.303H91.9573V231.867H93.1893V234.303H94.8273V235.269H93.1893V239.805C93.208 240.066 93.2967 240.262 93.4553 240.393C93.614 240.514 93.8007 240.575 94.0153 240.575C94.258 240.575 94.482 240.533 94.6873 240.449C94.8927 240.365 95.028 240.304 95.0933 240.267L95.3873 241.247ZM99.6675 241.751C99.1168 241.751 98.6128 241.653 98.1555 241.457C97.7075 241.252 97.3155 240.976 96.9795 240.631C96.6528 240.276 96.3962 239.87 96.2095 239.413C96.0322 238.956 95.9435 238.47 95.9435 237.957C95.9435 237.266 96.1022 236.636 96.4195 236.067C96.7368 235.498 97.1755 235.04 97.7355 234.695C98.3048 234.35 98.9535 234.177 99.6815 234.177C100.419 234.177 101.058 234.354 101.6 234.709C102.15 235.054 102.575 235.512 102.874 236.081C103.182 236.641 103.336 237.248 103.336 237.901C103.336 237.994 103.331 238.088 103.322 238.181C103.322 238.265 103.317 238.33 103.308 238.377H97.2455C97.2828 238.853 97.4135 239.278 97.6375 239.651C97.8708 240.015 98.1695 240.304 98.5335 240.519C98.8975 240.724 99.2895 240.827 99.7095 240.827C100.158 240.827 100.578 240.715 100.97 240.491C101.371 240.267 101.646 239.973 101.796 239.609L102.86 239.903C102.701 240.258 102.463 240.575 102.146 240.855C101.838 241.135 101.469 241.354 101.04 241.513C100.62 241.672 100.162 241.751 99.6675 241.751ZM97.2035 237.523H102.188C102.15 237.047 102.015 236.627 101.782 236.263C101.548 235.899 101.25 235.614 100.886 235.409C100.522 235.204 100.12 235.101 99.6815 235.101C99.2522 235.101 98.8555 235.204 98.4915 235.409C98.1275 235.614 97.8288 235.899 97.5955 236.263C97.3715 236.627 97.2408 237.047 97.2035 237.523ZM108.417 241.247C108.314 241.294 108.174 241.354 107.997 241.429C107.819 241.504 107.614 241.569 107.381 241.625C107.147 241.681 106.9 241.709 106.639 241.709C106.34 241.709 106.065 241.658 105.813 241.555C105.561 241.443 105.36 241.275 105.211 241.051C105.061 240.818 104.987 240.528 104.987 240.183V235.269H103.993V234.303H104.987V231.867H106.219V234.303H107.857V235.269H106.219V239.805C106.237 240.066 106.326 240.262 106.485 240.393C106.643 240.514 106.83 240.575 107.045 240.575C107.287 240.575 107.511 240.533 107.717 240.449C107.922 240.365 108.057 240.304 108.123 240.267L108.417 241.247ZM109.489 238.685V234.303H110.721V238.447C110.721 239.194 110.851 239.754 111.113 240.127C111.374 240.5 111.761 240.687 112.275 240.687C112.611 240.687 112.933 240.617 113.241 240.477C113.558 240.328 113.843 240.118 114.095 239.847C114.347 239.576 114.543 239.254 114.683 238.881V234.303H115.915V240.211C115.915 240.36 115.943 240.472 115.999 240.547C116.064 240.612 116.167 240.65 116.307 240.659V241.611C116.167 241.63 116.055 241.639 115.971 241.639C115.896 241.648 115.821 241.653 115.747 241.653C115.513 241.653 115.313 241.583 115.145 241.443C114.977 241.294 114.888 241.112 114.879 240.897L114.851 240.043C114.533 240.584 114.104 241.004 113.563 241.303C113.031 241.602 112.447 241.751 111.813 241.751C111.047 241.751 110.469 241.494 110.077 240.981C109.685 240.458 109.489 239.693 109.489 238.685ZM121.831 235.381C121.215 235.39 120.669 235.549 120.193 235.857C119.726 236.156 119.395 236.571 119.199 237.103V241.611H117.967V234.303H119.115V235.997C119.367 235.493 119.698 235.087 120.109 234.779C120.529 234.462 120.967 234.284 121.425 234.247C121.518 234.247 121.597 234.247 121.663 234.247C121.728 234.247 121.784 234.252 121.831 234.261V235.381ZM125.692 239.497C125.692 239.03 125.822 238.629 126.084 238.293C126.354 237.948 126.723 237.682 127.19 237.495C127.656 237.308 128.198 237.215 128.814 237.215C129.14 237.215 129.486 237.243 129.85 237.299C130.214 237.346 130.536 237.42 130.816 237.523V236.991C130.816 236.431 130.648 235.992 130.312 235.675C129.976 235.348 129.5 235.185 128.884 235.185C128.482 235.185 128.095 235.26 127.722 235.409C127.358 235.549 126.97 235.754 126.56 236.025L126.112 235.157C126.588 234.83 127.064 234.588 127.54 234.429C128.016 234.261 128.51 234.177 129.024 234.177C129.957 234.177 130.694 234.438 131.236 234.961C131.777 235.474 132.048 236.193 132.048 237.117V240.211C132.048 240.36 132.076 240.472 132.132 240.547C132.197 240.612 132.3 240.65 132.44 240.659V241.611C132.318 241.63 132.211 241.644 132.118 241.653C132.034 241.662 131.964 241.667 131.908 241.667C131.618 241.667 131.399 241.588 131.25 241.429C131.11 241.27 131.03 241.102 131.012 240.925L130.984 240.463C130.666 240.874 130.251 241.191 129.738 241.415C129.224 241.639 128.716 241.751 128.212 241.751C127.726 241.751 127.292 241.653 126.91 241.457C126.527 241.252 126.228 240.981 126.014 240.645C125.799 240.3 125.692 239.917 125.692 239.497ZM130.452 240.015C130.564 239.884 130.652 239.754 130.718 239.623C130.783 239.483 130.816 239.366 130.816 239.273V238.363C130.526 238.251 130.223 238.167 129.906 238.111C129.588 238.046 129.276 238.013 128.968 238.013C128.342 238.013 127.834 238.139 127.442 238.391C127.059 238.634 126.868 238.97 126.868 239.399C126.868 239.632 126.928 239.861 127.05 240.085C127.18 240.3 127.367 240.477 127.61 240.617C127.862 240.757 128.17 240.827 128.534 240.827C128.916 240.827 129.28 240.752 129.626 240.603C129.971 240.444 130.246 240.248 130.452 240.015ZM133.541 237.971C133.541 237.28 133.681 236.65 133.961 236.081C134.251 235.502 134.643 235.04 135.137 234.695C135.641 234.35 136.215 234.177 136.859 234.177C137.447 234.177 137.975 234.331 138.441 234.639C138.908 234.947 139.272 235.32 139.533 235.759V231.391H140.765V240.211C140.765 240.36 140.793 240.472 140.849 240.547C140.915 240.612 141.017 240.65 141.157 240.659V241.611C140.924 241.648 140.742 241.667 140.611 241.667C140.369 241.667 140.154 241.583 139.967 241.415C139.79 241.247 139.701 241.06 139.701 240.855V240.239C139.412 240.706 139.025 241.074 138.539 241.345C138.054 241.616 137.55 241.751 137.027 241.751C136.523 241.751 136.057 241.653 135.627 241.457C135.207 241.252 134.839 240.972 134.521 240.617C134.213 240.262 133.971 239.861 133.793 239.413C133.625 238.956 133.541 238.475 133.541 237.971ZM139.533 239.049V236.949C139.421 236.632 139.239 236.347 138.987 236.095C138.735 235.834 138.451 235.628 138.133 235.479C137.825 235.32 137.517 235.241 137.209 235.241C136.845 235.241 136.514 235.32 136.215 235.479C135.926 235.628 135.674 235.834 135.459 236.095C135.254 236.347 135.095 236.636 134.983 236.963C134.871 237.29 134.815 237.63 134.815 237.985C134.815 238.349 134.876 238.694 134.997 239.021C135.128 239.348 135.305 239.637 135.529 239.889C135.763 240.141 136.029 240.337 136.327 240.477C136.635 240.617 136.967 240.687 137.321 240.687C137.545 240.687 137.774 240.645 138.007 240.561C138.25 240.477 138.479 240.36 138.693 240.211C138.908 240.062 139.09 239.889 139.239 239.693C139.389 239.488 139.487 239.273 139.533 239.049ZM142.822 241.611V234.303H144.054V241.611H142.822ZM142.822 232.931V231.391H144.054V232.931H142.822ZM149.983 241.751C149.385 241.751 148.853 241.602 148.387 241.303C147.92 241.004 147.551 240.626 147.281 240.169V244.593H146.049V234.303H147.141V235.675C147.43 235.227 147.808 234.868 148.275 234.597C148.741 234.317 149.25 234.177 149.801 234.177C150.305 234.177 150.767 234.28 151.187 234.485C151.607 234.69 151.971 234.97 152.279 235.325C152.587 235.68 152.825 236.086 152.993 236.543C153.17 236.991 153.259 237.462 153.259 237.957C153.259 238.648 153.119 239.282 152.839 239.861C152.568 240.44 152.185 240.902 151.691 241.247C151.196 241.583 150.627 241.751 149.983 241.751ZM149.605 240.687C149.969 240.687 150.295 240.612 150.585 240.463C150.883 240.304 151.135 240.099 151.341 239.847C151.555 239.586 151.719 239.292 151.831 238.965C151.943 238.638 151.999 238.302 151.999 237.957C151.999 237.593 151.933 237.248 151.803 236.921C151.681 236.594 151.504 236.305 151.271 236.053C151.047 235.801 150.781 235.605 150.473 235.465C150.174 235.316 149.847 235.241 149.493 235.241C149.269 235.241 149.035 235.283 148.793 235.367C148.559 235.451 148.335 235.572 148.121 235.731C147.906 235.88 147.724 236.053 147.575 236.249C147.425 236.445 147.327 236.655 147.281 236.879V238.965C147.421 239.282 147.607 239.572 147.841 239.833C148.074 240.094 148.345 240.304 148.653 240.463C148.961 240.612 149.278 240.687 149.605 240.687ZM154.771 241.611V234.303H156.003V241.611H154.771ZM154.771 232.931V231.391H156.003V232.931H154.771ZM160.504 241.751C159.897 241.751 159.328 241.653 158.796 241.457C158.264 241.252 157.807 240.948 157.424 240.547L157.9 239.679C158.32 240.071 158.74 240.351 159.16 240.519C159.58 240.687 160.009 240.771 160.448 240.771C160.952 240.771 161.363 240.678 161.68 240.491C161.997 240.295 162.156 240.01 162.156 239.637C162.156 239.366 162.072 239.166 161.904 239.035C161.745 238.904 161.517 238.797 161.218 238.713C160.919 238.62 160.565 238.517 160.154 238.405C159.65 238.256 159.225 238.097 158.88 237.929C158.535 237.761 158.273 237.551 158.096 237.299C157.919 237.047 157.83 236.73 157.83 236.347C157.83 235.88 157.951 235.488 158.194 235.171C158.437 234.844 158.768 234.597 159.188 234.429C159.617 234.261 160.103 234.177 160.644 234.177C161.185 234.177 161.675 234.261 162.114 234.429C162.553 234.597 162.931 234.844 163.248 235.171L162.688 236.025C162.399 235.726 162.081 235.507 161.736 235.367C161.391 235.218 161.003 235.143 160.574 235.143C160.322 235.143 160.075 235.176 159.832 235.241C159.589 235.297 159.389 235.404 159.23 235.563C159.071 235.712 158.992 235.927 158.992 236.207C158.992 236.44 159.053 236.627 159.174 236.767C159.305 236.898 159.491 237.01 159.734 237.103C159.986 237.196 160.289 237.299 160.644 237.411C161.195 237.57 161.671 237.728 162.072 237.887C162.483 238.046 162.8 238.251 163.024 238.503C163.248 238.755 163.36 239.105 163.36 239.553C163.36 240.244 163.099 240.785 162.576 241.177C162.053 241.56 161.363 241.751 160.504 241.751ZM168.068 241.751C167.517 241.751 167.013 241.653 166.556 241.457C166.108 241.252 165.716 240.972 165.38 240.617C165.053 240.262 164.797 239.856 164.61 239.399C164.433 238.942 164.344 238.456 164.344 237.943C164.344 237.252 164.498 236.622 164.806 236.053C165.114 235.484 165.548 235.031 166.108 234.695C166.668 234.35 167.317 234.177 168.054 234.177C168.773 234.177 169.398 234.34 169.93 234.667C170.471 234.984 170.873 235.414 171.134 235.955L169.93 236.333C169.743 235.988 169.482 235.722 169.146 235.535C168.81 235.339 168.437 235.241 168.026 235.241C167.578 235.241 167.167 235.358 166.794 235.591C166.43 235.824 166.141 236.146 165.926 236.557C165.711 236.958 165.604 237.42 165.604 237.943C165.604 238.456 165.711 238.923 165.926 239.343C166.15 239.754 166.444 240.08 166.808 240.323C167.181 240.566 167.592 240.687 168.04 240.687C168.329 240.687 168.605 240.636 168.866 240.533C169.137 240.43 169.37 240.295 169.566 240.127C169.771 239.95 169.911 239.758 169.986 239.553L171.19 239.917C171.041 240.272 170.812 240.589 170.504 240.869C170.205 241.14 169.846 241.354 169.426 241.513C169.015 241.672 168.563 241.751 168.068 241.751ZM172.586 241.611V234.303H173.818V241.611H172.586ZM172.586 232.931V231.391H173.818V232.931H172.586ZM182.154 241.611H180.922V237.523C180.922 236.748 180.801 236.184 180.558 235.829C180.325 235.465 179.966 235.283 179.48 235.283C179.144 235.283 178.808 235.367 178.472 235.535C178.146 235.703 177.852 235.932 177.59 236.221C177.338 236.501 177.156 236.828 177.044 237.201V241.611H175.812V234.303H176.932V235.871C177.128 235.526 177.38 235.227 177.688 234.975C177.996 234.723 178.346 234.527 178.738 234.387C179.13 234.247 179.541 234.177 179.97 234.177C180.39 234.177 180.74 234.256 181.02 234.415C181.31 234.564 181.534 234.779 181.692 235.059C181.86 235.33 181.977 235.652 182.042 236.025C182.117 236.398 182.154 236.804 182.154 237.243V241.611ZM186.982 241.695C186.488 241.695 186.03 241.597 185.61 241.401C185.2 241.196 184.845 240.92 184.546 240.575C184.248 240.22 184.014 239.819 183.846 239.371C183.688 238.923 183.608 238.456 183.608 237.971C183.608 237.458 183.688 236.972 183.846 236.515C184.014 236.058 184.248 235.656 184.546 235.311C184.854 234.956 185.214 234.681 185.624 234.485C186.035 234.28 186.492 234.177 186.996 234.177C187.603 234.177 188.13 234.326 188.578 234.625C189.036 234.924 189.418 235.302 189.726 235.759V234.303H190.818V241.527C190.818 242.218 190.65 242.801 190.314 243.277C189.988 243.753 189.54 244.112 188.97 244.355C188.41 244.607 187.785 244.733 187.094 244.733C186.273 244.733 185.601 244.588 185.078 244.299C184.556 244.01 184.122 243.618 183.776 243.123L184.49 242.493C184.78 242.922 185.153 243.244 185.61 243.459C186.077 243.674 186.572 243.781 187.094 243.781C187.542 243.781 187.953 243.697 188.326 243.529C188.709 243.37 189.012 243.123 189.236 242.787C189.47 242.451 189.586 242.031 189.586 241.527V240.239C189.316 240.687 188.942 241.042 188.466 241.303C188 241.564 187.505 241.695 186.982 241.695ZM187.36 240.687C187.622 240.687 187.874 240.64 188.116 240.547C188.359 240.454 188.583 240.332 188.788 240.183C188.994 240.024 189.166 239.847 189.306 239.651C189.446 239.455 189.54 239.254 189.586 239.049V236.949C189.456 236.613 189.269 236.319 189.026 236.067C188.784 235.806 188.508 235.605 188.2 235.465C187.892 235.316 187.575 235.241 187.248 235.241C186.875 235.241 186.539 235.32 186.24 235.479C185.951 235.638 185.704 235.852 185.498 236.123C185.293 236.384 185.134 236.678 185.022 237.005C184.91 237.332 184.854 237.663 184.854 237.999C184.854 238.363 184.92 238.708 185.05 239.035C185.181 239.352 185.358 239.637 185.582 239.889C185.806 240.141 186.072 240.337 186.38 240.477C186.688 240.617 187.015 240.687 187.36 240.687ZM199.582 241.751C199.031 241.751 198.527 241.653 198.07 241.457C197.622 241.252 197.23 240.976 196.894 240.631C196.567 240.276 196.31 239.87 196.124 239.413C195.946 238.956 195.858 238.47 195.858 237.957C195.858 237.266 196.016 236.636 196.334 236.067C196.651 235.498 197.09 235.04 197.65 234.695C198.219 234.35 198.868 234.177 199.596 234.177C200.333 234.177 200.972 234.354 201.514 234.709C202.064 235.054 202.489 235.512 202.788 236.081C203.096 236.641 203.25 237.248 203.25 237.901C203.25 237.994 203.245 238.088 203.236 238.181C203.236 238.265 203.231 238.33 203.222 238.377H197.16C197.197 238.853 197.328 239.278 197.552 239.651C197.785 240.015 198.084 240.304 198.448 240.519C198.812 240.724 199.204 240.827 199.624 240.827C200.072 240.827 200.492 240.715 200.884 240.491C201.285 240.267 201.56 239.973 201.71 239.609L202.774 239.903C202.615 240.258 202.377 240.575 202.06 240.855C201.752 241.135 201.383 241.354 200.954 241.513C200.534 241.672 200.076 241.751 199.582 241.751ZM197.118 237.523H202.102C202.064 237.047 201.929 236.627 201.696 236.263C201.462 235.899 201.164 235.614 200.8 235.409C200.436 235.204 200.034 235.101 199.596 235.101C199.166 235.101 198.77 235.204 198.406 235.409C198.042 235.614 197.743 235.899 197.51 236.263C197.286 236.627 197.155 237.047 197.118 237.523ZM204.647 231.391H205.879V239.721C205.879 240.122 205.935 240.37 206.047 240.463C206.159 240.556 206.294 240.603 206.453 240.603C206.649 240.603 206.836 240.584 207.013 240.547C207.19 240.5 207.34 240.454 207.461 240.407L207.657 241.415C207.452 241.499 207.209 241.569 206.929 241.625C206.649 241.681 206.402 241.709 206.187 241.709C205.711 241.709 205.333 241.574 205.053 241.303C204.782 241.032 204.647 240.654 204.647 240.169V231.391ZM208.625 241.611V234.303H209.857V241.611H208.625ZM208.625 232.931V231.391H209.857V232.931H208.625ZM215.631 241.247C215.529 241.294 215.389 241.354 215.211 241.429C215.034 241.504 214.829 241.569 214.595 241.625C214.362 241.681 214.115 241.709 213.853 241.709C213.555 241.709 213.279 241.658 213.027 241.555C212.775 241.443 212.575 241.275 212.425 241.051C212.276 240.818 212.201 240.528 212.201 240.183V235.269H211.207V234.303H212.201V231.867H213.433V234.303H215.071V235.269H213.433V239.805C213.452 240.066 213.541 240.262 213.699 240.393C213.858 240.514 214.045 240.575 214.259 240.575C214.502 240.575 214.726 240.533 214.931 240.449C215.137 240.365 215.272 240.304 215.337 240.267L215.631 241.247ZM216.815 242.745L217.095 241.499H216.675V240.043H217.837V241.499L217.417 242.745H216.815ZM225.773 241.751C225.167 241.751 224.597 241.653 224.065 241.457C223.533 241.252 223.076 240.948 222.693 240.547L223.169 239.679C223.589 240.071 224.009 240.351 224.429 240.519C224.849 240.687 225.279 240.771 225.717 240.771C226.221 240.771 226.632 240.678 226.949 240.491C227.267 240.295 227.425 240.01 227.425 239.637C227.425 239.366 227.341 239.166 227.173 239.035C227.015 238.904 226.786 238.797 226.487 238.713C226.189 238.62 225.834 238.517 225.423 238.405C224.919 238.256 224.495 238.097 224.149 237.929C223.804 237.761 223.543 237.551 223.365 237.299C223.188 237.047 223.099 236.73 223.099 236.347C223.099 235.88 223.221 235.488 223.463 235.171C223.706 234.844 224.037 234.597 224.457 234.429C224.887 234.261 225.372 234.177 225.913 234.177C226.455 234.177 226.945 234.261 227.383 234.429C227.822 234.597 228.2 234.844 228.517 235.171L227.957 236.025C227.668 235.726 227.351 235.507 227.005 235.367C226.66 235.218 226.273 235.143 225.843 235.143C225.591 235.143 225.344 235.176 225.101 235.241C224.859 235.297 224.658 235.404 224.499 235.563C224.341 235.712 224.261 235.927 224.261 236.207C224.261 236.44 224.322 236.627 224.443 236.767C224.574 236.898 224.761 237.01 225.003 237.103C225.255 237.196 225.559 237.299 225.913 237.411C226.464 237.57 226.94 237.728 227.341 237.887C227.752 238.046 228.069 238.251 228.293 238.503C228.517 238.755 228.629 239.105 228.629 239.553C228.629 240.244 228.368 240.785 227.845 241.177C227.323 241.56 226.632 241.751 225.773 241.751ZM233.337 241.751C232.787 241.751 232.283 241.653 231.825 241.457C231.377 241.252 230.985 240.976 230.649 240.631C230.323 240.276 230.066 239.87 229.879 239.413C229.702 238.956 229.613 238.47 229.613 237.957C229.613 237.266 229.772 236.636 230.089 236.067C230.407 235.498 230.845 235.04 231.405 234.695C231.975 234.35 232.623 234.177 233.351 234.177C234.089 234.177 234.728 234.354 235.269 234.709C235.82 235.054 236.245 235.512 236.543 236.081C236.851 236.641 237.005 237.248 237.005 237.901C237.005 237.994 237.001 238.088 236.991 238.181C236.991 238.265 236.987 238.33 236.977 238.377H230.915C230.953 238.853 231.083 239.278 231.307 239.651C231.541 240.015 231.839 240.304 232.203 240.519C232.567 240.724 232.959 240.827 233.379 240.827C233.827 240.827 234.247 240.715 234.639 240.491C235.041 240.267 235.316 239.973 235.465 239.609L236.529 239.903C236.371 240.258 236.133 240.575 235.815 240.855C235.507 241.135 235.139 241.354 234.709 241.513C234.289 241.672 233.832 241.751 233.337 241.751ZM230.873 237.523H235.857C235.82 237.047 235.685 236.627 235.451 236.263C235.218 235.899 234.919 235.614 234.555 235.409C234.191 235.204 233.79 235.101 233.351 235.101C232.922 235.101 232.525 235.204 232.161 235.409C231.797 235.614 231.499 235.899 231.265 236.263C231.041 236.627 230.911 237.047 230.873 237.523ZM237.899 237.971C237.899 237.28 238.039 236.65 238.319 236.081C238.608 235.502 239 235.04 239.495 234.695C239.999 234.35 240.573 234.177 241.217 234.177C241.805 234.177 242.332 234.331 242.799 234.639C243.266 234.947 243.63 235.32 243.891 235.759V231.391H245.123V240.211C245.123 240.36 245.151 240.472 245.207 240.547C245.272 240.612 245.375 240.65 245.515 240.659V241.611C245.282 241.648 245.1 241.667 244.969 241.667C244.726 241.667 244.512 241.583 244.325 241.415C244.148 241.247 244.059 241.06 244.059 240.855V240.239C243.77 240.706 243.382 241.074 242.897 241.345C242.412 241.616 241.908 241.751 241.385 241.751C240.881 241.751 240.414 241.653 239.985 241.457C239.565 241.252 239.196 240.972 238.879 240.617C238.571 240.262 238.328 239.861 238.151 239.413C237.983 238.956 237.899 238.475 237.899 237.971ZM243.891 239.049V236.949C243.779 236.632 243.597 236.347 243.345 236.095C243.093 235.834 242.808 235.628 242.491 235.479C242.183 235.32 241.875 235.241 241.567 235.241C241.203 235.241 240.872 235.32 240.573 235.479C240.284 235.628 240.032 235.834 239.817 236.095C239.612 236.347 239.453 236.636 239.341 236.963C239.229 237.29 239.173 237.63 239.173 237.985C239.173 238.349 239.234 238.694 239.355 239.021C239.486 239.348 239.663 239.637 239.887 239.889C240.12 240.141 240.386 240.337 240.685 240.477C240.993 240.617 241.324 240.687 241.679 240.687C241.903 240.687 242.132 240.645 242.365 240.561C242.608 240.477 242.836 240.36 243.051 240.211C243.266 240.062 243.448 239.889 243.597 239.693C243.746 239.488 243.844 239.273 243.891 239.049ZM43.9497 258.971C43.9497 258.28 44.0897 257.65 44.3697 257.081C44.659 256.502 45.051 256.04 45.5457 255.695C46.0497 255.35 46.6237 255.177 47.2677 255.177C47.8557 255.177 48.383 255.331 48.8497 255.639C49.3164 255.947 49.6804 256.32 49.9417 256.759V252.391H51.1737V261.211C51.1737 261.36 51.2017 261.472 51.2577 261.547C51.323 261.612 51.4257 261.65 51.5657 261.659V262.611C51.3324 262.648 51.1504 262.667 51.0197 262.667C50.777 262.667 50.5624 262.583 50.3757 262.415C50.1984 262.247 50.1097 262.06 50.1097 261.855V261.239C49.8204 261.706 49.433 262.074 48.9477 262.345C48.4624 262.616 47.9584 262.751 47.4357 262.751C46.9317 262.751 46.465 262.653 46.0357 262.457C45.6157 262.252 45.247 261.972 44.9297 261.617C44.6217 261.262 44.379 260.861 44.2017 260.413C44.0337 259.956 43.9497 259.475 43.9497 258.971ZM49.9417 260.049V257.949C49.8297 257.632 49.6477 257.347 49.3957 257.095C49.1437 256.834 48.859 256.628 48.5417 256.479C48.2337 256.32 47.9257 256.241 47.6177 256.241C47.2537 256.241 46.9224 256.32 46.6237 256.479C46.3344 256.628 46.0824 256.834 45.8677 257.095C45.6624 257.347 45.5037 257.636 45.3917 257.963C45.2797 258.29 45.2237 258.63 45.2237 258.985C45.2237 259.349 45.2844 259.694 45.4057 260.021C45.5364 260.348 45.7137 260.637 45.9377 260.889C46.171 261.141 46.437 261.337 46.7357 261.477C47.0437 261.617 47.375 261.687 47.7297 261.687C47.9537 261.687 48.1824 261.645 48.4157 261.561C48.6584 261.477 48.887 261.36 49.1017 261.211C49.3164 261.062 49.4984 260.889 49.6477 260.693C49.797 260.488 49.895 260.273 49.9417 260.049ZM56.4224 262.751C55.8717 262.751 55.3724 262.653 54.9244 262.457C54.4764 262.252 54.0891 261.976 53.7624 261.631C53.4357 261.276 53.1837 260.87 53.0064 260.413C52.8291 259.956 52.7404 259.475 52.7404 258.971C52.7404 258.458 52.8291 257.972 53.0064 257.515C53.1837 257.058 53.4357 256.656 53.7624 256.311C54.0891 255.956 54.4764 255.681 54.9244 255.485C55.3817 255.28 55.8811 255.177 56.4224 255.177C56.9731 255.177 57.4724 255.28 57.9204 255.485C58.3684 255.681 58.7557 255.956 59.0824 256.311C59.4184 256.656 59.6751 257.058 59.8524 257.515C60.0297 257.972 60.1184 258.458 60.1184 258.971C60.1184 259.475 60.0297 259.956 59.8524 260.413C59.6751 260.87 59.4231 261.276 59.0964 261.631C58.7697 261.976 58.3777 262.252 57.9204 262.457C57.4724 262.653 56.9731 262.751 56.4224 262.751ZM54.0004 258.985C54.0004 259.489 54.1077 259.946 54.3224 260.357C54.5464 260.768 54.8404 261.094 55.2044 261.337C55.5684 261.57 55.9744 261.687 56.4224 261.687C56.8704 261.687 57.2764 261.566 57.6404 261.323C58.0137 261.08 58.3077 260.754 58.5224 260.343C58.7464 259.923 58.8584 259.461 58.8584 258.957C58.8584 258.453 58.7464 257.996 58.5224 257.585C58.3077 257.174 58.0137 256.848 57.6404 256.605C57.2764 256.362 56.8704 256.241 56.4224 256.241C55.9744 256.241 55.5684 256.367 55.2044 256.619C54.8404 256.862 54.5464 257.188 54.3224 257.599C54.1077 258.01 54.0004 258.472 54.0004 258.985ZM68.3863 262.751C67.8356 262.751 67.3316 262.653 66.8743 262.457C66.4263 262.252 66.0343 261.976 65.6983 261.631C65.3716 261.276 65.1149 260.87 64.9283 260.413C64.7509 259.956 64.6623 259.47 64.6623 258.957C64.6623 258.266 64.8209 257.636 65.1383 257.067C65.4556 256.498 65.8943 256.04 66.4543 255.695C67.0236 255.35 67.6723 255.177 68.4003 255.177C69.1376 255.177 69.7769 255.354 70.3183 255.709C70.8689 256.054 71.2936 256.512 71.5923 257.081C71.9003 257.641 72.0543 258.248 72.0543 258.901C72.0543 258.994 72.0496 259.088 72.0403 259.181C72.0403 259.265 72.0356 259.33 72.0263 259.377H65.9643C66.0016 259.853 66.1323 260.278 66.3563 260.651C66.5896 261.015 66.8883 261.304 67.2523 261.519C67.6163 261.724 68.0083 261.827 68.4283 261.827C68.8763 261.827 69.2963 261.715 69.6883 261.491C70.0896 261.267 70.3649 260.973 70.5143 260.609L71.5783 260.903C71.4196 261.258 71.1816 261.575 70.8643 261.855C70.5563 262.135 70.1876 262.354 69.7583 262.513C69.3383 262.672 68.8809 262.751 68.3863 262.751ZM65.9223 258.523H70.9063C70.8689 258.047 70.7336 257.627 70.5003 257.263C70.2669 256.899 69.9683 256.614 69.6043 256.409C69.2403 256.204 68.8389 256.101 68.4003 256.101C67.9709 256.101 67.5743 256.204 67.2103 256.409C66.8463 256.614 66.5476 256.899 66.3143 257.263C66.0903 257.627 65.9596 258.047 65.9223 258.523ZM73.4237 262.611V255.303H74.6557V262.611H73.4237ZM73.4237 253.931V252.391H74.6557V253.931H73.4237ZM76.5803 259.685V255.303H77.8123V259.447C77.8123 260.194 77.943 260.754 78.2043 261.127C78.4656 261.5 78.853 261.687 79.3663 261.687C79.7023 261.687 80.0243 261.617 80.3323 261.477C80.6496 261.328 80.9343 261.118 81.1863 260.847C81.4383 260.576 81.6343 260.254 81.7743 259.881V255.303H83.0063V261.211C83.0063 261.36 83.0343 261.472 83.0903 261.547C83.1556 261.612 83.2583 261.65 83.3983 261.659V262.611C83.2583 262.63 83.1463 262.639 83.0623 262.639C82.9876 262.648 82.913 262.653 82.8383 262.653C82.605 262.653 82.4043 262.583 82.2363 262.443C82.0683 262.294 81.9796 262.112 81.9703 261.897L81.9423 261.043C81.625 261.584 81.1956 262.004 80.6543 262.303C80.1223 262.602 79.539 262.751 78.9043 262.751C78.139 262.751 77.5603 262.494 77.1683 261.981C76.7763 261.458 76.5803 260.693 76.5803 259.685ZM87.5645 262.751C86.9578 262.751 86.3885 262.653 85.8565 262.457C85.3245 262.252 84.8672 261.948 84.4845 261.547L84.9605 260.679C85.3805 261.071 85.8005 261.351 86.2205 261.519C86.6405 261.687 87.0698 261.771 87.5085 261.771C88.0125 261.771 88.4232 261.678 88.7405 261.491C89.0578 261.295 89.2165 261.01 89.2165 260.637C89.2165 260.366 89.1325 260.166 88.9645 260.035C88.8058 259.904 88.5772 259.797 88.2785 259.713C87.9798 259.62 87.6252 259.517 87.2145 259.405C86.7105 259.256 86.2858 259.097 85.9405 258.929C85.5952 258.761 85.3338 258.551 85.1565 258.299C84.9792 258.047 84.8905 257.73 84.8905 257.347C84.8905 256.88 85.0118 256.488 85.2545 256.171C85.4972 255.844 85.8285 255.597 86.2485 255.429C86.6778 255.261 87.1632 255.177 87.7045 255.177C88.2458 255.177 88.7358 255.261 89.1745 255.429C89.6132 255.597 89.9912 255.844 90.3085 256.171L89.7485 257.025C89.4592 256.726 89.1418 256.507 88.7965 256.367C88.4512 256.218 88.0638 256.143 87.6345 256.143C87.3825 256.143 87.1352 256.176 86.8925 256.241C86.6498 256.297 86.4492 256.404 86.2905 256.563C86.1318 256.712 86.0525 256.927 86.0525 257.207C86.0525 257.44 86.1132 257.627 86.2345 257.767C86.3652 257.898 86.5518 258.01 86.7945 258.103C87.0465 258.196 87.3498 258.299 87.7045 258.411C88.2552 258.57 88.7312 258.728 89.1325 258.887C89.5432 259.046 89.8605 259.251 90.0845 259.503C90.3085 259.755 90.4205 260.105 90.4205 260.553C90.4205 261.244 90.1592 261.785 89.6365 262.177C89.1138 262.56 88.4232 262.751 87.5645 262.751ZM102.912 262.611H101.68V258.523C101.68 257.758 101.554 257.193 101.302 256.829C101.06 256.465 100.696 256.283 100.21 256.283C99.7158 256.283 99.2678 256.465 98.8665 256.829C98.4651 257.184 98.1805 257.646 98.0125 258.215V262.611H96.7805V258.523C96.7805 257.748 96.6591 257.184 96.4165 256.829C96.1738 256.465 95.8098 256.283 95.3245 256.283C94.8391 256.283 94.3911 256.46 93.9805 256.815C93.5791 257.16 93.2945 257.622 93.1265 258.201V262.611H91.8945V255.303H93.0145V256.871C93.3131 256.33 93.7005 255.914 94.1765 255.625C94.6525 255.326 95.1891 255.177 95.7865 255.177C96.3931 255.177 96.8785 255.345 97.2425 255.681C97.6065 256.008 97.8305 256.432 97.9145 256.955C98.2411 256.376 98.6378 255.938 99.1045 255.639C99.5711 255.331 100.103 255.177 100.7 255.177C101.12 255.177 101.47 255.256 101.75 255.415C102.04 255.564 102.268 255.779 102.436 256.059C102.604 256.33 102.726 256.652 102.8 257.025C102.875 257.398 102.912 257.804 102.912 258.243V262.611ZM108.02 262.751C107.469 262.751 106.97 262.653 106.522 262.457C106.074 262.252 105.687 261.976 105.36 261.631C105.033 261.276 104.781 260.87 104.604 260.413C104.427 259.956 104.338 259.475 104.338 258.971C104.338 258.458 104.427 257.972 104.604 257.515C104.781 257.058 105.033 256.656 105.36 256.311C105.687 255.956 106.074 255.681 106.522 255.485C106.979 255.28 107.479 255.177 108.02 255.177C108.571 255.177 109.07 255.28 109.518 255.485C109.966 255.681 110.353 255.956 110.68 256.311C111.016 256.656 111.273 257.058 111.45 257.515C111.627 257.972 111.716 258.458 111.716 258.971C111.716 259.475 111.627 259.956 111.45 260.413C111.273 260.87 111.021 261.276 110.694 261.631C110.367 261.976 109.975 262.252 109.518 262.457C109.07 262.653 108.571 262.751 108.02 262.751ZM105.598 258.985C105.598 259.489 105.705 259.946 105.92 260.357C106.144 260.768 106.438 261.094 106.802 261.337C107.166 261.57 107.572 261.687 108.02 261.687C108.468 261.687 108.874 261.566 109.238 261.323C109.611 261.08 109.905 260.754 110.12 260.343C110.344 259.923 110.456 259.461 110.456 258.957C110.456 258.453 110.344 257.996 110.12 257.585C109.905 257.174 109.611 256.848 109.238 256.605C108.874 256.362 108.468 256.241 108.02 256.241C107.572 256.241 107.166 256.367 106.802 256.619C106.438 256.862 106.144 257.188 105.92 257.599C105.705 258.01 105.598 258.472 105.598 258.985ZM112.733 258.971C112.733 258.28 112.873 257.65 113.153 257.081C113.442 256.502 113.834 256.04 114.329 255.695C114.833 255.35 115.407 255.177 116.051 255.177C116.639 255.177 117.166 255.331 117.633 255.639C118.1 255.947 118.464 256.32 118.725 256.759V252.391H119.957V261.211C119.957 261.36 119.985 261.472 120.041 261.547C120.106 261.612 120.209 261.65 120.349 261.659V262.611C120.116 262.648 119.934 262.667 119.803 262.667C119.56 262.667 119.346 262.583 119.159 262.415C118.982 262.247 118.893 262.06 118.893 261.855V261.239C118.604 261.706 118.216 262.074 117.731 262.345C117.246 262.616 116.742 262.751 116.219 262.751C115.715 262.751 115.248 262.653 114.819 262.457C114.399 262.252 114.03 261.972 113.713 261.617C113.405 261.262 113.162 260.861 112.985 260.413C112.817 259.956 112.733 259.475 112.733 258.971ZM118.725 260.049V257.949C118.613 257.632 118.431 257.347 118.179 257.095C117.927 256.834 117.642 256.628 117.325 256.479C117.017 256.32 116.709 256.241 116.401 256.241C116.037 256.241 115.706 256.32 115.407 256.479C115.118 256.628 114.866 256.834 114.651 257.095C114.446 257.347 114.287 257.636 114.175 257.963C114.063 258.29 114.007 258.63 114.007 258.985C114.007 259.349 114.068 259.694 114.189 260.021C114.32 260.348 114.497 260.637 114.721 260.889C114.954 261.141 115.22 261.337 115.519 261.477C115.827 261.617 116.158 261.687 116.513 261.687C116.737 261.687 116.966 261.645 117.199 261.561C117.442 261.477 117.67 261.36 117.885 261.211C118.1 261.062 118.282 260.889 118.431 260.693C118.58 260.488 118.678 260.273 118.725 260.049ZM129.335 262.247C129.232 262.294 129.092 262.354 128.915 262.429C128.737 262.504 128.532 262.569 128.299 262.625C128.065 262.681 127.818 262.709 127.557 262.709C127.258 262.709 126.983 262.658 126.731 262.555C126.479 262.443 126.278 262.275 126.129 262.051C125.979 261.818 125.905 261.528 125.905 261.183V256.269H124.911V255.303H125.905V252.867H127.137V255.303H128.775V256.269H127.137V260.805C127.155 261.066 127.244 261.262 127.403 261.393C127.561 261.514 127.748 261.575 127.963 261.575C128.205 261.575 128.429 261.533 128.635 261.449C128.84 261.365 128.975 261.304 129.041 261.267L129.335 262.247ZM133.615 262.751C133.064 262.751 132.56 262.653 132.103 262.457C131.655 262.252 131.263 261.976 130.927 261.631C130.6 261.276 130.343 260.87 130.157 260.413C129.979 259.956 129.891 259.47 129.891 258.957C129.891 258.266 130.049 257.636 130.367 257.067C130.684 256.498 131.123 256.04 131.683 255.695C132.252 255.35 132.901 255.177 133.629 255.177C134.366 255.177 135.005 255.354 135.547 255.709C136.097 256.054 136.522 256.512 136.821 257.081C137.129 257.641 137.283 258.248 137.283 258.901C137.283 258.994 137.278 259.088 137.269 259.181C137.269 259.265 137.264 259.33 137.255 259.377H131.193C131.23 259.853 131.361 260.278 131.585 260.651C131.818 261.015 132.117 261.304 132.481 261.519C132.845 261.724 133.237 261.827 133.657 261.827C134.105 261.827 134.525 261.715 134.917 261.491C135.318 261.267 135.593 260.973 135.743 260.609L136.807 260.903C136.648 261.258 136.41 261.575 136.093 261.855C135.785 262.135 135.416 262.354 134.987 262.513C134.567 262.672 134.109 262.751 133.615 262.751ZM131.151 258.523H136.135C136.097 258.047 135.962 257.627 135.729 257.263C135.495 256.899 135.197 256.614 134.833 256.409C134.469 256.204 134.067 256.101 133.629 256.101C133.199 256.101 132.803 256.204 132.439 256.409C132.075 256.614 131.776 256.899 131.543 257.263C131.319 257.627 131.188 258.047 131.151 258.523ZM149.67 262.611H148.438V258.523C148.438 257.758 148.312 257.193 148.06 256.829C147.818 256.465 147.454 256.283 146.968 256.283C146.474 256.283 146.026 256.465 145.624 256.829C145.223 257.184 144.938 257.646 144.77 258.215V262.611H143.538V258.523C143.538 257.748 143.417 257.184 143.174 256.829C142.932 256.465 142.568 256.283 142.082 256.283C141.597 256.283 141.149 256.46 140.738 256.815C140.337 257.16 140.052 257.622 139.884 258.201V262.611H138.652V255.303H139.772V256.871C140.071 256.33 140.458 255.914 140.934 255.625C141.41 255.326 141.947 255.177 142.544 255.177C143.151 255.177 143.636 255.345 144 255.681C144.364 256.008 144.588 256.432 144.672 256.955C144.999 256.376 145.396 255.938 145.862 255.639C146.329 255.331 146.861 255.177 147.458 255.177C147.878 255.177 148.228 255.256 148.508 255.415C148.798 255.564 149.026 255.779 149.194 256.059C149.362 256.33 149.484 256.652 149.558 257.025C149.633 257.398 149.67 257.804 149.67 258.243V262.611ZM155.52 262.751C154.923 262.751 154.391 262.602 153.924 262.303C153.457 262.004 153.089 261.626 152.818 261.169V265.593H151.586V255.303H152.678V256.675C152.967 256.227 153.345 255.868 153.812 255.597C154.279 255.317 154.787 255.177 155.338 255.177C155.842 255.177 156.304 255.28 156.724 255.485C157.144 255.69 157.508 255.97 157.816 256.325C158.124 256.68 158.362 257.086 158.53 257.543C158.707 257.991 158.796 258.462 158.796 258.957C158.796 259.648 158.656 260.282 158.376 260.861C158.105 261.44 157.723 261.902 157.228 262.247C156.733 262.583 156.164 262.751 155.52 262.751ZM155.142 261.687C155.506 261.687 155.833 261.612 156.122 261.463C156.421 261.304 156.673 261.099 156.878 260.847C157.093 260.586 157.256 260.292 157.368 259.965C157.48 259.638 157.536 259.302 157.536 258.957C157.536 258.593 157.471 258.248 157.34 257.921C157.219 257.594 157.041 257.305 156.808 257.053C156.584 256.801 156.318 256.605 156.01 256.465C155.711 256.316 155.385 256.241 155.03 256.241C154.806 256.241 154.573 256.283 154.33 256.367C154.097 256.451 153.873 256.572 153.658 256.731C153.443 256.88 153.261 257.053 153.112 257.249C152.963 257.445 152.865 257.655 152.818 257.879V259.965C152.958 260.282 153.145 260.572 153.378 260.833C153.611 261.094 153.882 261.304 154.19 261.463C154.498 261.612 154.815 261.687 155.142 261.687ZM163.501 262.751C162.95 262.751 162.451 262.653 162.003 262.457C161.555 262.252 161.167 261.976 160.841 261.631C160.514 261.276 160.262 260.87 160.085 260.413C159.907 259.956 159.819 259.475 159.819 258.971C159.819 258.458 159.907 257.972 160.085 257.515C160.262 257.058 160.514 256.656 160.841 256.311C161.167 255.956 161.555 255.681 162.003 255.485C162.46 255.28 162.959 255.177 163.501 255.177C164.051 255.177 164.551 255.28 164.999 255.485C165.447 255.681 165.834 255.956 166.161 256.311C166.497 256.656 166.753 257.058 166.931 257.515C167.108 257.972 167.197 258.458 167.197 258.971C167.197 259.475 167.108 259.956 166.931 260.413C166.753 260.87 166.501 261.276 166.175 261.631C165.848 261.976 165.456 262.252 164.999 262.457C164.551 262.653 164.051 262.751 163.501 262.751ZM161.079 258.985C161.079 259.489 161.186 259.946 161.401 260.357C161.625 260.768 161.919 261.094 162.283 261.337C162.647 261.57 163.053 261.687 163.501 261.687C163.949 261.687 164.355 261.566 164.719 261.323C165.092 261.08 165.386 260.754 165.601 260.343C165.825 259.923 165.937 259.461 165.937 258.957C165.937 258.453 165.825 257.996 165.601 257.585C165.386 257.174 165.092 256.848 164.719 256.605C164.355 256.362 163.949 256.241 163.501 256.241C163.053 256.241 162.647 256.367 162.283 256.619C161.919 256.862 161.625 257.188 161.401 257.599C161.186 258.01 161.079 258.472 161.079 258.985ZM172.553 256.381C171.937 256.39 171.391 256.549 170.915 256.857C170.449 257.156 170.117 257.571 169.921 258.103V262.611H168.689V255.303H169.837V256.997C170.089 256.493 170.421 256.087 170.831 255.779C171.251 255.462 171.69 255.284 172.147 255.247C172.241 255.247 172.32 255.247 172.385 255.247C172.451 255.247 172.507 255.252 172.553 255.261V256.381ZM172.187 262.611V261.043H173.223V262.611H172.187ZM175.017 262.611V261.043H176.053V262.611H175.017ZM177.847 262.611V261.043H178.883V262.611H177.847Z" fill="#777777"/>
<path d="M47.2117 304.641L47.0857 301.869L53.6917 295.011H56.3197L50.8297 300.843L49.5337 302.265L47.2117 304.641ZM45.1237 307.611V295.011H47.4637V307.611H45.1237ZM53.9077 307.611L49.0837 301.869L50.6317 300.159L56.6437 307.611H53.9077ZM63.3168 297.891C64.0848 297.891 64.7688 298.041 65.3688 298.341C65.9808 298.641 66.4608 299.103 66.8088 299.727C67.1568 300.339 67.3308 301.131 67.3308 302.103V307.611H65.0808V302.391C65.0808 301.539 64.8768 300.903 64.4688 300.483C64.0728 300.063 63.5148 299.853 62.7948 299.853C62.2668 299.853 61.7988 299.961 61.3908 300.177C60.9828 300.393 60.6648 300.717 60.4368 301.149C60.2208 301.569 60.1128 302.103 60.1128 302.751V307.611H57.8628V297.999H60.0048V300.591L59.6268 299.799C59.9628 299.187 60.4488 298.719 61.0848 298.395C61.7328 298.059 62.4768 297.891 63.3168 297.891ZM74.5226 307.737C73.5386 307.737 72.6626 307.527 71.8946 307.107C71.1266 306.675 70.5206 306.087 70.0766 305.343C69.6326 304.599 69.4106 303.753 69.4106 302.805C69.4106 301.845 69.6326 300.999 70.0766 300.267C70.5206 299.523 71.1266 298.941 71.8946 298.521C72.6626 298.101 73.5386 297.891 74.5226 297.891C75.5186 297.891 76.4006 298.101 77.1686 298.521C77.9486 298.941 78.5546 299.517 78.9866 300.249C79.4306 300.981 79.6526 301.833 79.6526 302.805C79.6526 303.753 79.4306 304.599 78.9866 305.343C78.5546 306.087 77.9486 306.675 77.1686 307.107C76.4006 307.527 75.5186 307.737 74.5226 307.737ZM74.5226 305.811C75.0746 305.811 75.5666 305.691 75.9986 305.451C76.4306 305.211 76.7666 304.863 77.0066 304.407C77.2586 303.951 77.3846 303.417 77.3846 302.805C77.3846 302.181 77.2586 301.647 77.0066 301.203C76.7666 300.747 76.4306 300.399 75.9986 300.159C75.5666 299.919 75.0806 299.799 74.5406 299.799C73.9886 299.799 73.4966 299.919 73.0646 300.159C72.6446 300.399 72.3086 300.747 72.0566 301.203C71.8046 301.647 71.6786 302.181 71.6786 302.805C71.6786 303.417 71.8046 303.951 72.0566 304.407C72.3086 304.863 72.6446 305.211 73.0646 305.451C73.4966 305.691 73.9826 305.811 74.5226 305.811ZM83.6645 307.611L80.1365 297.999H82.2605L85.2845 306.477H84.2765L87.4445 297.999H89.3345L92.4125 306.477H91.4225L94.5365 297.999H96.5345L92.9885 307.611H90.8285L88.0205 300.105H88.6865L85.8245 307.611H83.6645ZM103.272 307.611V295.011H105.198L110.706 304.209H109.698L115.116 295.011H117.042L117.06 307.611H114.846L114.828 298.485H115.296L110.688 306.171H109.644L104.964 298.485H105.504V307.611H103.272ZM124.568 307.737C123.584 307.737 122.708 307.527 121.94 307.107C121.172 306.675 120.566 306.087 120.122 305.343C119.678 304.599 119.456 303.753 119.456 302.805C119.456 301.845 119.678 300.999 120.122 300.267C120.566 299.523 121.172 298.941 121.94 298.521C122.708 298.101 123.584 297.891 124.568 297.891C125.564 297.891 126.446 298.101 127.214 298.521C127.994 298.941 128.6 299.517 129.032 300.249C129.476 300.981 129.698 301.833 129.698 302.805C129.698 303.753 129.476 304.599 129.032 305.343C128.6 306.087 127.994 306.675 127.214 307.107C126.446 307.527 125.564 307.737 124.568 307.737ZM124.568 305.811C125.12 305.811 125.612 305.691 126.044 305.451C126.476 305.211 126.812 304.863 127.052 304.407C127.304 303.951 127.43 303.417 127.43 302.805C127.43 302.181 127.304 301.647 127.052 301.203C126.812 300.747 126.476 300.399 126.044 300.159C125.612 299.919 125.126 299.799 124.586 299.799C124.034 299.799 123.542 299.919 123.11 300.159C122.69 300.399 122.354 300.747 122.102 301.203C121.85 301.647 121.724 302.181 121.724 302.805C121.724 303.417 121.85 303.951 122.102 304.407C122.354 304.863 122.69 305.211 123.11 305.451C123.542 305.691 124.028 305.811 124.568 305.811ZM131.849 307.611V297.999H133.991V300.645L133.739 299.871C134.027 299.223 134.477 298.731 135.089 298.395C135.713 298.059 136.487 297.891 137.411 297.891V300.033C137.315 300.009 137.225 299.997 137.141 299.997C137.057 299.985 136.973 299.979 136.889 299.979C136.037 299.979 135.359 300.231 134.855 300.735C134.351 301.227 134.099 301.965 134.099 302.949V307.611H131.849ZM143.75 307.737C142.682 307.737 141.746 307.527 140.942 307.107C140.15 306.675 139.532 306.087 139.088 305.343C138.656 304.599 138.44 303.753 138.44 302.805C138.44 301.845 138.65 300.999 139.07 300.267C139.502 299.523 140.09 298.941 140.834 298.521C141.59 298.101 142.448 297.891 143.408 297.891C144.344 297.891 145.178 298.095 145.91 298.503C146.642 298.911 147.218 299.487 147.638 300.231C148.058 300.975 148.268 301.851 148.268 302.859C148.268 302.955 148.262 303.063 148.25 303.183C148.25 303.303 148.244 303.417 148.232 303.525H140.222V302.031H147.044L146.162 302.499C146.174 301.947 146.06 301.461 145.82 301.041C145.58 300.621 145.25 300.291 144.83 300.051C144.422 299.811 143.948 299.691 143.408 299.691C142.856 299.691 142.37 299.811 141.95 300.051C141.542 300.291 141.218 300.627 140.978 301.059C140.75 301.479 140.636 301.977 140.636 302.553V302.913C140.636 303.489 140.768 303.999 141.032 304.443C141.296 304.887 141.668 305.229 142.148 305.469C142.628 305.709 143.18 305.829 143.804 305.829C144.344 305.829 144.83 305.745 145.262 305.577C145.694 305.409 146.078 305.145 146.414 304.785L147.62 306.171C147.188 306.675 146.642 307.065 145.982 307.341C145.334 307.605 144.59 307.737 143.75 307.737Z" fill="#4A60A1"/>
<path d="M164.822 295.16C164.551 295.427 164.526 295.848 164.748 296.143L164.814 296.221L169.39 300.861L157.682 300.861C157.267 300.861 156.932 301.197 156.932 301.611C156.932 301.993 157.218 302.309 157.588 302.355L157.682 302.361H169.39L164.814 307.001C164.548 307.271 164.528 307.693 164.754 307.985L164.822 308.062C165.092 308.328 165.514 308.347 165.806 308.122L165.882 308.054L171.716 302.137C171.98 301.87 172.002 301.453 171.782 301.161L171.716 301.084L165.882 295.168C165.592 294.873 165.117 294.869 164.822 295.16Z" fill="#00B377"/>
<mask id="mask0_773_487" style="mask-type:luminance" maskUnits="userSpaceOnUse" x="50" y="109" width="39" height="45">
<path d="M62.1113 131.104C67.4758 131.104 71.8242 126.816 71.8242 121.527C71.8242 116.238 67.4758 111.951 62.1113 111.951C56.7469 111.951 52.3985 116.238 52.3985 121.527C52.3985 126.816 56.7469 131.104 62.1113 131.104Z" fill="white" stroke="white" stroke-width="4" stroke-linejoin="round"/>
<path d="M71.8242 122.678C71.8378 122.692 76.4116 128.363 85.5446 139.69C85.6993 139.873 85.7789 140.107 85.7677 140.346C85.7566 140.584 85.6555 140.81 85.4844 140.979L81.5176 144.89C81.3464 145.059 81.1175 145.158 80.8756 145.169C80.6338 145.18 80.3965 145.102 80.2103 144.949L63.881 131.104M72.2807 131.554L75.0285 134.263" stroke="white" stroke-width="4" stroke-linecap="round" stroke-linejoin="round"/>
<path d="M63.0826 150.338C64.9446 147.946 67.2077 146.75 69.8719 146.75C73.8697 146.75 78.5873 151.701 82.6113 151.02C86.6363 150.338 87.7882 146.425 85.3115 144.259" stroke="white" stroke-width="4" stroke-linecap="round" stroke-linejoin="round"/>
</mask>
<g mask="url(#mask0_773_487)">
<path d="M46.5708 108.121H93.1925V154.087H46.5708V108.121Z" fill="#0B1C98"/>
</g>
<defs>
<filter id="filter0_d_773_487" x="0.431702" y="0.61084" width="290" height="377.979" filterUnits="userSpaceOnUse" color-interpolation-filters="sRGB">
<feFlood flood-opacity="0" result="BackgroundImageFix"/>
<feColorMatrix in="SourceAlpha" type="matrix" values="0 0 0 0 0 0 0 0 0 0 0 0 0 0 0 0 0 0 127 0" result="hardAlpha"/>
<feOffset/>
<feGaussianBlur stdDeviation="10"/>
<feComposite in2="hardAlpha" operator="out"/>
<feColorMatrix type="matrix" values="0 0 0 0 0.768627 0 0 0 0 0.768627 0 0 0 0 0.768627 0 0 0 0.15 0"/>
<feBlend mode="normal" in2="BackgroundImageFix" result="effect1_dropShadow_773_487"/>
<feBlend mode="normal" in="SourceGraphic" in2="effect1_dropShadow_773_487" result="shape"/>
</filter>
</defs>
</svg>
