<svg width="21" height="21" viewBox="0 0 21 21" fill="none" xmlns="http://www.w3.org/2000/svg">
<path d="M11.3501 4.07432C11.0797 4.3409 11.0543 4.76213 11.276 5.05768L11.3425 5.13495L15.9183 9.77506L4.20996 9.77507C3.79575 9.77507 3.45996 10.1109 3.45996 10.5251C3.45996 10.9074 3.74607 11.2229 4.11588 11.2692L4.20996 11.2751H15.9183L11.3425 15.9152C11.076 16.1856 11.0566 16.6071 11.2824 16.8995L11.3501 16.9758C11.6205 17.2424 12.042 17.2618 12.3344 17.036L12.4107 16.9683L18.244 11.0516C18.5079 10.7839 18.5299 10.3675 18.31 10.075L18.244 9.99851L12.4107 4.08184C12.1199 3.78688 11.645 3.78351 11.3501 4.07432Z" fill="white"/>
</svg>
