<svg width="27" height="27" viewBox="0 0 27 27" fill="none" xmlns="http://www.w3.org/2000/svg">
<path d="M10.7582 3.03308C9.87381 2.81423 8.76837 2.59537 7.88402 2.59537C6.99966 2.59537 5.89422 2.81423 5.00987 3.03308C4.23606 3.14251 3.68334 3.79908 3.57279 4.56507C3.46225 5.44049 3.13062 7.19133 3.13062 8.39504C3.13062 9.59874 3.3517 11.1307 3.46225 12.225C3.57279 12.991 4.12551 13.6476 4.89932 13.757C5.67313 13.9758 6.88912 14.0853 7.77347 14.0853C8.65783 14.0853 9.76327 13.8664 10.6476 13.757C11.4214 13.6476 11.9742 12.991 12.0847 12.225C12.3058 11.1307 12.4163 9.59874 12.4163 8.39504C12.4163 7.19133 12.1952 5.44049 12.0847 4.56507C12.0847 3.79908 11.532 3.14251 10.7582 3.03308Z" fill="white"/>
<path d="M22.918 12.8814C22.1442 12.6626 20.9282 12.5531 20.0439 12.5531C19.1595 12.5531 18.0541 12.772 17.1697 12.8814C16.3959 12.9908 15.8432 13.6474 15.7327 14.4134C15.5116 15.5077 15.401 17.0397 15.401 18.2434C15.401 19.4471 15.6221 20.9791 15.7327 22.0733C15.8432 22.8393 16.3959 23.4959 17.1697 23.6053C17.9435 23.8242 19.1595 23.9336 20.0439 23.9336C20.9282 23.9336 22.0337 23.7147 22.918 23.6053C23.6918 23.4959 24.2446 22.8393 24.3551 22.0733C24.5762 20.9791 24.6867 19.4471 24.6867 18.2434C24.6867 17.0397 24.5762 15.5077 24.3551 14.4134C24.2446 13.6474 23.6918 12.9908 22.918 12.8814Z" fill="white"/>
<path d="M10.8687 17.2585C9.98436 17.0397 8.87892 16.9302 7.88402 16.9302C6.88912 16.9302 5.78368 17.1491 4.89932 17.2585C4.23606 17.3679 3.68334 17.9151 3.46225 18.5716C3.24116 19.3376 3.13062 19.9942 3.13062 20.5413C3.13062 21.0885 3.24116 21.6356 3.46225 22.511C3.68334 23.1676 4.23606 23.6053 4.89932 23.8242C5.78368 24.043 6.88912 24.1525 7.88402 24.1525C8.87892 24.1525 9.98436 23.9336 10.8687 23.8242C11.532 23.7147 12.0847 23.1676 12.3058 22.511C12.5269 21.745 12.6374 21.0885 12.6374 20.5413C12.6374 19.9942 12.5269 19.4471 12.3058 18.5716C12.0847 17.8057 11.532 17.3679 10.8687 17.2585Z" fill="white"/>
<path d="M17.0592 9.37978C17.9435 9.59863 19.049 9.70806 20.0439 9.70806C21.0388 9.70806 22.1442 9.48921 23.0286 9.37978C23.6918 9.27035 24.2446 8.72321 24.4657 8.06665C24.6867 7.30066 24.7973 6.64409 24.7973 6.09695C24.7973 5.54981 24.6867 5.00268 24.4657 4.12725C24.2446 3.47069 23.6918 3.03298 23.0286 2.81412C22.1442 2.59527 21.0388 2.48584 20.0439 2.48584C19.049 2.48584 17.9435 2.7047 17.0592 2.81412C16.3959 2.92355 15.8432 3.47069 15.6221 4.12725C15.401 4.89325 15.2905 5.54981 15.2905 6.09695C15.2905 6.64409 15.401 7.19123 15.6221 8.06665C15.8432 8.83264 16.3959 9.27035 17.0592 9.37978Z" fill="white"/>
</svg>
