<svg width="291" height="379" viewBox="0 0 291 379" fill="none" xmlns="http://www.w3.org/2000/svg">
<g filter="url(#filter0_d_773_492)">
<rect x="20.2744" y="20.2134" width="250" height="337.979" rx="12" fill="white"/>
<rect x="20.7744" y="20.7134" width="249" height="336.979" rx="11.5" stroke="black"/>
</g>
<path d="M46.0944 192.373C45.6811 192.373 45.3611 192.26 45.1344 192.033C44.9211 191.793 44.8144 191.467 44.8144 191.053V179.273C44.8144 178.847 44.9211 178.52 45.1344 178.293C45.3611 178.067 45.6811 177.953 46.0944 177.953C46.5077 177.953 46.8211 178.067 47.0344 178.293C47.2611 178.52 47.3744 178.847 47.3744 179.273V183.993H54.6344V179.273C54.6344 178.847 54.7411 178.52 54.9544 178.293C55.1811 178.067 55.5011 177.953 55.9144 177.953C56.3277 177.953 56.6411 178.067 56.8544 178.293C57.0811 178.52 57.1944 178.847 57.1944 179.273V191.053C57.1944 191.467 57.0811 191.793 56.8544 192.033C56.6411 192.26 56.3277 192.373 55.9144 192.373C55.5011 192.373 55.1811 192.26 54.9544 192.033C54.7411 191.793 54.6344 191.467 54.6344 191.053V186.133H47.3744V191.053C47.3744 191.467 47.2677 191.793 47.0544 192.033C46.8411 192.26 46.5211 192.373 46.0944 192.373ZM64.8632 192.413C63.7565 192.413 62.8032 192.207 62.0032 191.793C61.2032 191.38 60.5832 190.793 60.1432 190.033C59.7165 189.273 59.5032 188.373 59.5032 187.333C59.5032 186.32 59.7098 185.433 60.1232 184.673C60.5498 183.913 61.1298 183.32 61.8632 182.893C62.6098 182.453 63.4565 182.233 64.4032 182.233C65.0965 182.233 65.7165 182.347 66.2632 182.573C66.8232 182.8 67.2965 183.127 67.6832 183.553C68.0832 183.98 68.3832 184.5 68.5832 185.113C68.7965 185.713 68.9032 186.393 68.9032 187.153C68.9032 187.393 68.8165 187.58 68.6432 187.713C68.4832 187.833 68.2498 187.893 67.9432 187.893H61.5232V186.453H67.1432L66.8232 186.753C66.8232 186.14 66.7298 185.627 66.5432 185.213C66.3698 184.8 66.1098 184.487 65.7632 184.273C65.4298 184.047 65.0098 183.933 64.5032 183.933C63.9432 183.933 63.4632 184.067 63.0632 184.333C62.6765 184.587 62.3765 184.953 62.1632 185.433C61.9632 185.9 61.8632 186.46 61.8632 187.113V187.253C61.8632 188.347 62.1165 189.167 62.6232 189.713C63.1432 190.247 63.9032 190.513 64.9032 190.513C65.2498 190.513 65.6365 190.473 66.0632 190.393C66.5032 190.3 66.9165 190.147 67.3032 189.933C67.5832 189.773 67.8298 189.707 68.0432 189.733C68.2565 189.747 68.4232 189.82 68.5432 189.953C68.6765 190.087 68.7565 190.253 68.7832 190.453C68.8098 190.64 68.7698 190.833 68.6632 191.033C68.5698 191.233 68.4032 191.407 68.1632 191.553C67.6965 191.847 67.1565 192.067 66.5432 192.213C65.9432 192.347 65.3832 192.413 64.8632 192.413ZM74.103 192.413C73.3963 192.413 72.763 192.28 72.203 192.013C71.6563 191.733 71.223 191.36 70.903 190.893C70.5963 190.427 70.443 189.9 70.443 189.313C70.443 188.593 70.6297 188.027 71.003 187.613C71.3763 187.187 71.983 186.88 72.823 186.693C73.663 186.507 74.7897 186.413 76.203 186.413H77.203V187.853H76.223C75.3963 187.853 74.7363 187.893 74.243 187.973C73.7497 188.053 73.3963 188.193 73.183 188.393C72.983 188.58 72.883 188.847 72.883 189.193C72.883 189.633 73.0363 189.993 73.343 190.273C73.6497 190.553 74.0763 190.693 74.623 190.693C75.063 190.693 75.4497 190.593 75.783 190.393C76.1297 190.18 76.403 189.893 76.603 189.533C76.803 189.173 76.903 188.76 76.903 188.293V185.993C76.903 185.327 76.7563 184.847 76.463 184.553C76.1697 184.26 75.6763 184.113 74.983 184.113C74.5963 184.113 74.1763 184.16 73.723 184.253C73.283 184.347 72.8163 184.507 72.323 184.733C72.0697 184.853 71.843 184.887 71.643 184.833C71.4563 184.78 71.3097 184.673 71.203 184.513C71.0963 184.34 71.043 184.153 71.043 183.953C71.043 183.753 71.0963 183.56 71.203 183.373C71.3097 183.173 71.4897 183.027 71.743 182.933C72.3563 182.68 72.943 182.5 73.503 182.393C74.0763 182.287 74.5963 182.233 75.063 182.233C76.023 182.233 76.8097 182.38 77.423 182.673C78.0497 182.967 78.5163 183.413 78.823 184.013C79.1297 184.6 79.283 185.36 79.283 186.293V191.093C79.283 191.507 79.183 191.827 78.983 192.053C78.783 192.267 78.4963 192.373 78.123 192.373C77.7497 192.373 77.4563 192.267 77.243 192.053C77.043 191.827 76.943 191.507 76.943 191.093V190.133H77.103C77.0097 190.6 76.823 191.007 76.543 191.353C76.2763 191.687 75.9363 191.947 75.523 192.133C75.1097 192.32 74.6363 192.413 74.103 192.413ZM85.1605 192.413C84.0538 192.413 83.2205 192.1 82.6605 191.473C82.1005 190.833 81.8205 189.9 81.8205 188.673V179.213C81.8205 178.8 81.9272 178.487 82.1405 178.273C82.3538 178.06 82.6605 177.953 83.0605 177.953C83.4605 177.953 83.7672 178.06 83.9805 178.273C84.2072 178.487 84.3205 178.8 84.3205 179.213V188.553C84.3205 189.167 84.4472 189.62 84.7005 189.913C84.9672 190.207 85.3405 190.353 85.8205 190.353C85.9272 190.353 86.0272 190.353 86.1205 190.353C86.2138 190.34 86.3072 190.327 86.4005 190.313C86.5872 190.287 86.7138 190.34 86.7805 190.473C86.8472 190.593 86.8805 190.847 86.8805 191.233C86.8805 191.567 86.8138 191.827 86.6805 192.013C86.5472 192.2 86.3272 192.313 86.0205 192.353C85.8872 192.367 85.7472 192.38 85.6005 192.393C85.4538 192.407 85.3072 192.413 85.1605 192.413ZM92.4333 192.413C91.5667 192.413 90.84 192.267 90.2533 191.973C89.68 191.68 89.2533 191.253 88.9733 190.693C88.6933 190.12 88.5533 189.413 88.5533 188.573V184.313H87.5133C87.1933 184.313 86.9467 184.233 86.7733 184.073C86.6 183.9 86.5133 183.667 86.5133 183.373C86.5133 183.067 86.6 182.833 86.7733 182.673C86.9467 182.513 87.1933 182.433 87.5133 182.433H88.5533V180.613C88.5533 180.2 88.66 179.887 88.8733 179.673C89.1 179.46 89.4133 179.353 89.8133 179.353C90.2133 179.353 90.52 179.46 90.7333 179.673C90.9467 179.887 91.0533 180.2 91.0533 180.613V182.433H93.1733C93.4933 182.433 93.74 182.513 93.9133 182.673C94.0867 182.833 94.1733 183.067 94.1733 183.373C94.1733 183.667 94.0867 183.9 93.9133 184.073C93.74 184.233 93.4933 184.313 93.1733 184.313H91.0533V188.433C91.0533 189.073 91.1933 189.553 91.4733 189.873C91.7533 190.193 92.2067 190.353 92.8333 190.353C93.06 190.353 93.26 190.333 93.4333 190.293C93.6067 190.253 93.76 190.227 93.8933 190.213C94.0533 190.2 94.1867 190.253 94.2933 190.373C94.4 190.48 94.4533 190.707 94.4533 191.053C94.4533 191.32 94.4067 191.56 94.3133 191.773C94.2333 191.973 94.08 192.113 93.8533 192.193C93.68 192.247 93.4533 192.293 93.1733 192.333C92.8933 192.387 92.6467 192.413 92.4333 192.413ZM97.123 192.373C96.723 192.373 96.4163 192.267 96.203 192.053C95.9897 191.827 95.883 191.507 95.883 191.093V179.213C95.883 178.8 95.9897 178.487 96.203 178.273C96.4163 178.06 96.723 177.953 97.123 177.953C97.523 177.953 97.8297 178.06 98.043 178.273C98.2697 178.487 98.383 178.8 98.383 179.213V184.393H98.103C98.3963 183.687 98.8497 183.153 99.463 182.793C100.09 182.42 100.796 182.233 101.583 182.233C102.37 182.233 103.016 182.38 103.523 182.673C104.03 182.967 104.41 183.413 104.663 184.013C104.916 184.6 105.043 185.347 105.043 186.253V191.093C105.043 191.507 104.936 191.827 104.723 192.053C104.51 192.267 104.203 192.373 103.803 192.373C103.403 192.373 103.09 192.267 102.863 192.053C102.65 191.827 102.543 191.507 102.543 191.093V186.373C102.543 185.613 102.396 185.06 102.103 184.713C101.823 184.367 101.383 184.193 100.783 184.193C100.05 184.193 99.463 184.427 99.023 184.893C98.5963 185.347 98.383 185.953 98.383 186.713V191.093C98.383 191.947 97.963 192.373 97.123 192.373ZM119.812 192.413C118.345 192.413 117.085 192.12 116.032 191.533C114.992 190.933 114.192 190.093 113.632 189.013C113.072 187.92 112.792 186.633 112.792 185.153C112.792 184.047 112.952 183.053 113.272 182.173C113.592 181.28 114.052 180.52 114.652 179.893C115.252 179.253 115.985 178.767 116.852 178.433C117.732 178.087 118.719 177.913 119.812 177.913C120.545 177.913 121.265 178.007 121.972 178.193C122.679 178.38 123.299 178.647 123.832 178.993C124.112 179.167 124.299 179.38 124.392 179.633C124.485 179.873 124.505 180.113 124.452 180.353C124.399 180.58 124.285 180.773 124.112 180.933C123.952 181.093 123.745 181.187 123.492 181.213C123.252 181.227 122.985 181.14 122.692 180.953C122.279 180.687 121.832 180.493 121.352 180.373C120.872 180.253 120.385 180.193 119.892 180.193C118.945 180.193 118.145 180.387 117.492 180.773C116.839 181.16 116.345 181.72 116.012 182.453C115.679 183.187 115.512 184.087 115.512 185.153C115.512 186.207 115.679 187.107 116.012 187.853C116.345 188.6 116.839 189.167 117.492 189.553C118.145 189.94 118.945 190.133 119.892 190.133C120.399 190.133 120.899 190.073 121.392 189.953C121.885 189.82 122.352 189.62 122.792 189.353C123.085 189.18 123.345 189.107 123.572 189.133C123.812 189.147 124.012 189.227 124.172 189.373C124.332 189.52 124.439 189.707 124.492 189.933C124.545 190.147 124.532 190.373 124.452 190.613C124.372 190.84 124.212 191.04 123.972 191.213C123.439 191.6 122.799 191.9 122.052 192.113C121.319 192.313 120.572 192.413 119.812 192.413ZM129.474 192.413C128.767 192.413 128.134 192.28 127.574 192.013C127.027 191.733 126.594 191.36 126.274 190.893C125.967 190.427 125.814 189.9 125.814 189.313C125.814 188.593 126.001 188.027 126.374 187.613C126.747 187.187 127.354 186.88 128.194 186.693C129.034 186.507 130.161 186.413 131.574 186.413H132.574V187.853H131.594C130.767 187.853 130.107 187.893 129.614 187.973C129.121 188.053 128.767 188.193 128.554 188.393C128.354 188.58 128.254 188.847 128.254 189.193C128.254 189.633 128.407 189.993 128.714 190.273C129.021 190.553 129.447 190.693 129.994 190.693C130.434 190.693 130.821 190.593 131.154 190.393C131.501 190.18 131.774 189.893 131.974 189.533C132.174 189.173 132.274 188.76 132.274 188.293V185.993C132.274 185.327 132.127 184.847 131.834 184.553C131.541 184.26 131.047 184.113 130.354 184.113C129.967 184.113 129.547 184.16 129.094 184.253C128.654 184.347 128.187 184.507 127.694 184.733C127.441 184.853 127.214 184.887 127.014 184.833C126.827 184.78 126.681 184.673 126.574 184.513C126.467 184.34 126.414 184.153 126.414 183.953C126.414 183.753 126.467 183.56 126.574 183.373C126.681 183.173 126.861 183.027 127.114 182.933C127.727 182.68 128.314 182.5 128.874 182.393C129.447 182.287 129.967 182.233 130.434 182.233C131.394 182.233 132.181 182.38 132.794 182.673C133.421 182.967 133.887 183.413 134.194 184.013C134.501 184.6 134.654 185.36 134.654 186.293V191.093C134.654 191.507 134.554 191.827 134.354 192.053C134.154 192.267 133.867 192.373 133.494 192.373C133.121 192.373 132.827 192.267 132.614 192.053C132.414 191.827 132.314 191.507 132.314 191.093V190.133H132.474C132.381 190.6 132.194 191.007 131.914 191.353C131.647 191.687 131.307 191.947 130.894 192.133C130.481 192.32 130.007 192.413 129.474 192.413ZM138.472 192.373C138.058 192.373 137.738 192.267 137.512 192.053C137.298 191.827 137.192 191.507 137.192 191.093V183.533C137.192 183.12 137.298 182.807 137.512 182.593C137.725 182.38 138.025 182.273 138.412 182.273C138.798 182.273 139.098 182.38 139.312 182.593C139.525 182.807 139.632 183.12 139.632 183.533V184.793H139.432C139.618 183.993 139.985 183.387 140.532 182.973C141.078 182.56 141.805 182.313 142.712 182.233C142.992 182.207 143.212 182.28 143.372 182.453C143.545 182.613 143.645 182.867 143.672 183.213C143.698 183.547 143.618 183.82 143.432 184.033C143.258 184.233 142.992 184.353 142.632 184.393L142.192 184.433C141.378 184.513 140.765 184.767 140.352 185.193C139.938 185.607 139.732 186.193 139.732 186.953V191.093C139.732 191.507 139.625 191.827 139.412 192.053C139.198 192.267 138.885 192.373 138.472 192.373ZM149.687 192.413C148.581 192.413 147.627 192.207 146.827 191.793C146.027 191.38 145.407 190.793 144.967 190.033C144.541 189.273 144.327 188.373 144.327 187.333C144.327 186.32 144.534 185.433 144.947 184.673C145.374 183.913 145.954 183.32 146.687 182.893C147.434 182.453 148.281 182.233 149.227 182.233C149.921 182.233 150.541 182.347 151.087 182.573C151.647 182.8 152.121 183.127 152.507 183.553C152.907 183.98 153.207 184.5 153.407 185.113C153.621 185.713 153.727 186.393 153.727 187.153C153.727 187.393 153.641 187.58 153.467 187.713C153.307 187.833 153.074 187.893 152.767 187.893H146.347V186.453H151.967L151.647 186.753C151.647 186.14 151.554 185.627 151.367 185.213C151.194 184.8 150.934 184.487 150.587 184.273C150.254 184.047 149.834 183.933 149.327 183.933C148.767 183.933 148.287 184.067 147.887 184.333C147.501 184.587 147.201 184.953 146.987 185.433C146.787 185.9 146.687 186.46 146.687 187.113V187.253C146.687 188.347 146.941 189.167 147.447 189.713C147.967 190.247 148.727 190.513 149.727 190.513C150.074 190.513 150.461 190.473 150.887 190.393C151.327 190.3 151.741 190.147 152.127 189.933C152.407 189.773 152.654 189.707 152.867 189.733C153.081 189.747 153.247 189.82 153.367 189.953C153.501 190.087 153.581 190.253 153.607 190.453C153.634 190.64 153.594 190.833 153.487 191.033C153.394 191.233 153.227 191.407 152.987 191.553C152.521 191.847 151.981 192.067 151.367 192.213C150.767 192.347 150.207 192.413 149.687 192.413Z" fill="#212D4D"/>
<path d="M44.4644 220.213V210.273H45.7244V219.093H51.2684V220.213H44.4644ZM55.5268 220.353C54.9762 220.353 54.4768 220.255 54.0288 220.059C53.5808 219.854 53.1935 219.579 52.8668 219.233C52.5402 218.879 52.2882 218.473 52.1108 218.015C51.9335 217.558 51.8448 217.077 51.8448 216.573C51.8448 216.06 51.9335 215.575 52.1108 215.117C52.2882 214.66 52.5402 214.259 52.8668 213.913C53.1935 213.559 53.5808 213.283 54.0288 213.087C54.4862 212.882 54.9855 212.779 55.5268 212.779C56.0775 212.779 56.5768 212.882 57.0248 213.087C57.4728 213.283 57.8602 213.559 58.1868 213.913C58.5228 214.259 58.7795 214.66 58.9568 215.117C59.1342 215.575 59.2228 216.06 59.2228 216.573C59.2228 217.077 59.1342 217.558 58.9568 218.015C58.7795 218.473 58.5275 218.879 58.2008 219.233C57.8742 219.579 57.4822 219.854 57.0248 220.059C56.5768 220.255 56.0775 220.353 55.5268 220.353ZM53.1048 216.587C53.1048 217.091 53.2122 217.549 53.4268 217.959C53.6508 218.37 53.9448 218.697 54.3088 218.939C54.6728 219.173 55.0788 219.289 55.5268 219.289C55.9748 219.289 56.3808 219.168 56.7448 218.925C57.1182 218.683 57.4122 218.356 57.6268 217.945C57.8508 217.525 57.9628 217.063 57.9628 216.559C57.9628 216.055 57.8508 215.598 57.6268 215.187C57.4122 214.777 57.1182 214.45 56.7448 214.207C56.3808 213.965 55.9748 213.843 55.5268 213.843C55.0788 213.843 54.6728 213.969 54.3088 214.221C53.9448 214.464 53.6508 214.791 53.4268 215.201C53.2122 215.612 53.1048 216.074 53.1048 216.587ZM64.5797 213.983C63.9637 213.993 63.4177 214.151 62.9417 214.459C62.475 214.758 62.1437 215.173 61.9477 215.705V220.213H60.7157V212.905H61.8637V214.599C62.1157 214.095 62.447 213.689 62.8577 213.381C63.2777 213.064 63.7163 212.887 64.1737 212.849C64.267 212.849 64.3463 212.849 64.4117 212.849C64.477 212.849 64.533 212.854 64.5797 212.863V213.983ZM68.8579 220.353C68.3072 220.353 67.8032 220.255 67.3459 220.059C66.8979 219.854 66.5059 219.579 66.1699 219.233C65.8432 218.879 65.5865 218.473 65.3999 218.015C65.2225 217.558 65.1339 217.073 65.1339 216.559C65.1339 215.869 65.2925 215.239 65.6099 214.669C65.9272 214.1 66.3659 213.643 66.9259 213.297C67.4952 212.952 68.1439 212.779 68.8719 212.779C69.6092 212.779 70.2485 212.957 70.7899 213.311C71.3405 213.657 71.7652 214.114 72.0639 214.683C72.3719 215.243 72.5259 215.85 72.5259 216.503C72.5259 216.597 72.5212 216.69 72.5119 216.783C72.5119 216.867 72.5072 216.933 72.4979 216.979H66.4359C66.4732 217.455 66.6039 217.88 66.8279 218.253C67.0612 218.617 67.3599 218.907 67.7239 219.121C68.0879 219.327 68.4799 219.429 68.8999 219.429C69.3479 219.429 69.7679 219.317 70.1599 219.093C70.5612 218.869 70.8365 218.575 70.9859 218.211L72.0499 218.505C71.8912 218.86 71.6532 219.177 71.3359 219.457C71.0279 219.737 70.6592 219.957 70.2299 220.115C69.8099 220.274 69.3525 220.353 68.8579 220.353ZM66.3939 216.125H71.3779C71.3405 215.649 71.2052 215.229 70.9719 214.865C70.7385 214.501 70.4399 214.217 70.0759 214.011C69.7119 213.806 69.3105 213.703 68.8719 213.703C68.4425 213.703 68.0459 213.806 67.6819 214.011C67.3179 214.217 67.0192 214.501 66.7859 214.865C66.5619 215.229 66.4312 215.649 66.3939 216.125ZM84.9134 220.213H83.6814V216.125C83.6814 215.36 83.5554 214.795 83.3034 214.431C83.0607 214.067 82.6967 213.885 82.2114 213.885C81.7167 213.885 81.2687 214.067 80.8674 214.431C80.466 214.786 80.1814 215.248 80.0134 215.817V220.213H78.7814V216.125C78.7814 215.351 78.66 214.786 78.4174 214.431C78.1747 214.067 77.8107 213.885 77.3254 213.885C76.84 213.885 76.392 214.063 75.9814 214.417C75.58 214.763 75.2954 215.225 75.1274 215.803V220.213H73.8954V212.905H75.0154V214.473C75.314 213.932 75.7014 213.517 76.1774 213.227C76.6534 212.929 77.19 212.779 77.7874 212.779C78.394 212.779 78.8794 212.947 79.2434 213.283C79.6074 213.61 79.8314 214.035 79.9154 214.557C80.242 213.979 80.6387 213.54 81.1054 213.241C81.572 212.933 82.104 212.779 82.7014 212.779C83.1214 212.779 83.4714 212.859 83.7514 213.017C84.0407 213.167 84.2694 213.381 84.4374 213.661C84.6054 213.932 84.7267 214.254 84.8014 214.627C84.876 215.001 84.9134 215.407 84.9134 215.845V220.213ZM90.37 220.213V212.905H91.602V220.213H90.37ZM90.37 211.533V209.993H91.602V211.533H90.37ZM97.5305 220.353C96.9332 220.353 96.4012 220.204 95.9345 219.905C95.4679 219.607 95.0992 219.229 94.8285 218.771V223.195H93.5965V212.905H94.6885V214.277C94.9779 213.829 95.3559 213.47 95.8225 213.199C96.2892 212.919 96.7979 212.779 97.3485 212.779C97.8525 212.779 98.3145 212.882 98.7345 213.087C99.1545 213.293 99.5185 213.573 99.8265 213.927C100.135 214.282 100.373 214.688 100.541 215.145C100.718 215.593 100.807 216.065 100.807 216.559C100.807 217.25 100.667 217.885 100.387 218.463C100.116 219.042 99.7332 219.504 99.2385 219.849C98.7439 220.185 98.1745 220.353 97.5305 220.353ZM97.1525 219.289C97.5165 219.289 97.8432 219.215 98.1325 219.065C98.4312 218.907 98.6832 218.701 98.8885 218.449C99.1032 218.188 99.2665 217.894 99.3785 217.567C99.4905 217.241 99.5465 216.905 99.5465 216.559C99.5465 216.195 99.4812 215.85 99.3505 215.523C99.2292 215.197 99.0519 214.907 98.8185 214.655C98.5945 214.403 98.3285 214.207 98.0205 214.067C97.7219 213.918 97.3952 213.843 97.0405 213.843C96.8165 213.843 96.5832 213.885 96.3405 213.969C96.1072 214.053 95.8832 214.175 95.6685 214.333C95.4539 214.483 95.2719 214.655 95.1225 214.851C94.9732 215.047 94.8752 215.257 94.8285 215.481V217.567C94.9685 217.885 95.1552 218.174 95.3885 218.435C95.6219 218.697 95.8925 218.907 96.2005 219.065C96.5085 219.215 96.8259 219.289 97.1525 219.289ZM104.825 220.353C104.219 220.353 103.649 220.255 103.117 220.059C102.585 219.854 102.128 219.551 101.745 219.149L102.221 218.281C102.641 218.673 103.061 218.953 103.481 219.121C103.901 219.289 104.331 219.373 104.769 219.373C105.273 219.373 105.684 219.28 106.001 219.093C106.319 218.897 106.477 218.613 106.477 218.239C106.477 217.969 106.393 217.768 106.225 217.637C106.067 217.507 105.838 217.399 105.539 217.315C105.241 217.222 104.886 217.119 104.475 217.007C103.971 216.858 103.547 216.699 103.201 216.531C102.856 216.363 102.595 216.153 102.417 215.901C102.24 215.649 102.151 215.332 102.151 214.949C102.151 214.483 102.273 214.091 102.515 213.773C102.758 213.447 103.089 213.199 103.509 213.031C103.939 212.863 104.424 212.779 104.965 212.779C105.507 212.779 105.997 212.863 106.435 213.031C106.874 213.199 107.252 213.447 107.569 213.773L107.009 214.627C106.72 214.329 106.403 214.109 106.057 213.969C105.712 213.82 105.325 213.745 104.895 213.745C104.643 213.745 104.396 213.778 104.153 213.843C103.911 213.899 103.71 214.007 103.551 214.165C103.393 214.315 103.313 214.529 103.313 214.809C103.313 215.043 103.374 215.229 103.495 215.369C103.626 215.5 103.813 215.612 104.055 215.705C104.307 215.799 104.611 215.901 104.965 216.013C105.516 216.172 105.992 216.331 106.393 216.489C106.804 216.648 107.121 216.853 107.345 217.105C107.569 217.357 107.681 217.707 107.681 218.155C107.681 218.846 107.42 219.387 106.897 219.779C106.375 220.162 105.684 220.353 104.825 220.353ZM109.085 217.287V212.905H110.317V217.049C110.317 217.796 110.448 218.356 110.709 218.729C110.97 219.103 111.358 219.289 111.871 219.289C112.207 219.289 112.529 219.219 112.837 219.079C113.154 218.93 113.439 218.72 113.691 218.449C113.943 218.179 114.139 217.857 114.279 217.483V212.905H115.511V218.813C115.511 218.963 115.539 219.075 115.595 219.149C115.66 219.215 115.763 219.252 115.903 219.261V220.213C115.763 220.232 115.651 220.241 115.567 220.241C115.492 220.251 115.418 220.255 115.343 220.255C115.11 220.255 114.909 220.185 114.741 220.045C114.573 219.896 114.484 219.714 114.475 219.499L114.447 218.645C114.13 219.187 113.7 219.607 113.159 219.905C112.627 220.204 112.044 220.353 111.409 220.353C110.644 220.353 110.065 220.097 109.673 219.583C109.281 219.061 109.085 218.295 109.085 217.287ZM128.581 220.213H127.349V216.125C127.349 215.36 127.223 214.795 126.971 214.431C126.729 214.067 126.365 213.885 125.879 213.885C125.385 213.885 124.937 214.067 124.535 214.431C124.134 214.786 123.849 215.248 123.681 215.817V220.213H122.449V216.125C122.449 215.351 122.328 214.786 122.085 214.431C121.843 214.067 121.479 213.885 120.993 213.885C120.508 213.885 120.06 214.063 119.649 214.417C119.248 214.763 118.963 215.225 118.795 215.803V220.213H117.563V212.905H118.683V214.473C118.982 213.932 119.369 213.517 119.845 213.227C120.321 212.929 120.858 212.779 121.455 212.779C122.062 212.779 122.547 212.947 122.911 213.283C123.275 213.61 123.499 214.035 123.583 214.557C123.91 213.979 124.307 213.54 124.773 213.241C125.24 212.933 125.772 212.779 126.369 212.779C126.789 212.779 127.139 212.859 127.419 213.017C127.709 213.167 127.937 213.381 128.105 213.661C128.273 213.932 128.395 214.254 128.469 214.627C128.544 215.001 128.581 215.407 128.581 215.845V220.213ZM133.562 216.573C133.562 215.883 133.702 215.253 133.982 214.683C134.271 214.105 134.663 213.643 135.158 213.297C135.662 212.952 136.236 212.779 136.88 212.779C137.468 212.779 137.995 212.933 138.462 213.241C138.929 213.549 139.293 213.923 139.554 214.361V209.993H140.786V218.813C140.786 218.963 140.814 219.075 140.87 219.149C140.935 219.215 141.038 219.252 141.178 219.261V220.213C140.945 220.251 140.763 220.269 140.632 220.269C140.389 220.269 140.175 220.185 139.988 220.017C139.811 219.849 139.722 219.663 139.722 219.457V218.841C139.433 219.308 139.045 219.677 138.56 219.947C138.075 220.218 137.571 220.353 137.048 220.353C136.544 220.353 136.077 220.255 135.648 220.059C135.228 219.854 134.859 219.574 134.542 219.219C134.234 218.865 133.991 218.463 133.814 218.015C133.646 217.558 133.562 217.077 133.562 216.573ZM139.554 217.651V215.551C139.442 215.234 139.26 214.949 139.008 214.697C138.756 214.436 138.471 214.231 138.154 214.081C137.846 213.923 137.538 213.843 137.23 213.843C136.866 213.843 136.535 213.923 136.236 214.081C135.947 214.231 135.695 214.436 135.48 214.697C135.275 214.949 135.116 215.239 135.004 215.565C134.892 215.892 134.836 216.233 134.836 216.587C134.836 216.951 134.897 217.297 135.018 217.623C135.149 217.95 135.326 218.239 135.55 218.491C135.783 218.743 136.049 218.939 136.348 219.079C136.656 219.219 136.987 219.289 137.342 219.289C137.566 219.289 137.795 219.247 138.028 219.163C138.271 219.079 138.499 218.963 138.714 218.813C138.929 218.664 139.111 218.491 139.26 218.295C139.409 218.09 139.507 217.875 139.554 217.651ZM146.035 220.353C145.484 220.353 144.985 220.255 144.537 220.059C144.089 219.854 143.701 219.579 143.375 219.233C143.048 218.879 142.796 218.473 142.619 218.015C142.441 217.558 142.353 217.077 142.353 216.573C142.353 216.06 142.441 215.575 142.619 215.117C142.796 214.66 143.048 214.259 143.375 213.913C143.701 213.559 144.089 213.283 144.537 213.087C144.994 212.882 145.493 212.779 146.035 212.779C146.585 212.779 147.085 212.882 147.533 213.087C147.981 213.283 148.368 213.559 148.695 213.913C149.031 214.259 149.287 214.66 149.465 215.117C149.642 215.575 149.731 216.06 149.731 216.573C149.731 217.077 149.642 217.558 149.465 218.015C149.287 218.473 149.035 218.879 148.709 219.233C148.382 219.579 147.99 219.854 147.533 220.059C147.085 220.255 146.585 220.353 146.035 220.353ZM143.613 216.587C143.613 217.091 143.72 217.549 143.935 217.959C144.159 218.37 144.453 218.697 144.817 218.939C145.181 219.173 145.587 219.289 146.035 219.289C146.483 219.289 146.889 219.168 147.253 218.925C147.626 218.683 147.92 218.356 148.135 217.945C148.359 217.525 148.471 217.063 148.471 216.559C148.471 216.055 148.359 215.598 148.135 215.187C147.92 214.777 147.626 214.45 147.253 214.207C146.889 213.965 146.483 213.843 146.035 213.843C145.587 213.843 145.181 213.969 144.817 214.221C144.453 214.464 144.159 214.791 143.935 215.201C143.72 215.612 143.613 216.074 143.613 216.587ZM151.251 209.993H152.483V218.323C152.483 218.725 152.539 218.972 152.651 219.065C152.763 219.159 152.899 219.205 153.057 219.205C153.253 219.205 153.44 219.187 153.617 219.149C153.795 219.103 153.944 219.056 154.065 219.009L154.261 220.017C154.056 220.101 153.813 220.171 153.533 220.227C153.253 220.283 153.006 220.311 152.791 220.311C152.315 220.311 151.937 220.176 151.657 219.905C151.387 219.635 151.251 219.257 151.251 218.771V209.993ZM158.421 220.353C157.871 220.353 157.371 220.255 156.923 220.059C156.475 219.854 156.088 219.579 155.761 219.233C155.435 218.879 155.183 218.473 155.005 218.015C154.828 217.558 154.739 217.077 154.739 216.573C154.739 216.06 154.828 215.575 155.005 215.117C155.183 214.66 155.435 214.259 155.761 213.913C156.088 213.559 156.475 213.283 156.923 213.087C157.381 212.882 157.88 212.779 158.421 212.779C158.972 212.779 159.471 212.882 159.919 213.087C160.367 213.283 160.755 213.559 161.081 213.913C161.417 214.259 161.674 214.66 161.851 215.117C162.029 215.575 162.117 216.06 162.117 216.573C162.117 217.077 162.029 217.558 161.851 218.015C161.674 218.473 161.422 218.879 161.095 219.233C160.769 219.579 160.377 219.854 159.919 220.059C159.471 220.255 158.972 220.353 158.421 220.353ZM155.999 216.587C155.999 217.091 156.107 217.549 156.321 217.959C156.545 218.37 156.839 218.697 157.203 218.939C157.567 219.173 157.973 219.289 158.421 219.289C158.869 219.289 159.275 219.168 159.639 218.925C160.013 218.683 160.307 218.356 160.521 217.945C160.745 217.525 160.857 217.063 160.857 216.559C160.857 216.055 160.745 215.598 160.521 215.187C160.307 214.777 160.013 214.45 159.639 214.207C159.275 213.965 158.869 213.843 158.421 213.843C157.973 213.843 157.567 213.969 157.203 214.221C156.839 214.464 156.545 214.791 156.321 215.201C156.107 215.612 155.999 216.074 155.999 216.587ZM167.474 213.983C166.858 213.993 166.312 214.151 165.836 214.459C165.37 214.758 165.038 215.173 164.842 215.705V220.213H163.61V212.905H164.758V214.599C165.01 214.095 165.342 213.689 165.752 213.381C166.172 213.064 166.611 212.887 167.068 212.849C167.162 212.849 167.241 212.849 167.306 212.849C167.372 212.849 167.428 212.854 167.474 212.863V213.983ZM174.415 220.353C173.808 220.353 173.239 220.255 172.707 220.059C172.175 219.854 171.718 219.551 171.335 219.149L171.811 218.281C172.231 218.673 172.651 218.953 173.071 219.121C173.491 219.289 173.92 219.373 174.359 219.373C174.863 219.373 175.274 219.28 175.591 219.093C175.908 218.897 176.067 218.613 176.067 218.239C176.067 217.969 175.983 217.768 175.815 217.637C175.656 217.507 175.428 217.399 175.129 217.315C174.83 217.222 174.476 217.119 174.065 217.007C173.561 216.858 173.136 216.699 172.791 216.531C172.446 216.363 172.184 216.153 172.007 215.901C171.83 215.649 171.741 215.332 171.741 214.949C171.741 214.483 171.862 214.091 172.105 213.773C172.348 213.447 172.679 213.199 173.099 213.031C173.528 212.863 174.014 212.779 174.555 212.779C175.096 212.779 175.586 212.863 176.025 213.031C176.464 213.199 176.842 213.447 177.159 213.773L176.599 214.627C176.31 214.329 175.992 214.109 175.647 213.969C175.302 213.82 174.914 213.745 174.485 213.745C174.233 213.745 173.986 213.778 173.743 213.843C173.5 213.899 173.3 214.007 173.141 214.165C172.982 214.315 172.903 214.529 172.903 214.809C172.903 215.043 172.964 215.229 173.085 215.369C173.216 215.5 173.402 215.612 173.645 215.705C173.897 215.799 174.2 215.901 174.555 216.013C175.106 216.172 175.582 216.331 175.983 216.489C176.394 216.648 176.711 216.853 176.935 217.105C177.159 217.357 177.271 217.707 177.271 218.155C177.271 218.846 177.01 219.387 176.487 219.779C175.964 220.162 175.274 220.353 174.415 220.353ZM178.745 220.213V212.905H179.977V220.213H178.745ZM178.745 211.533V209.993H179.977V211.533H178.745ZM185.752 219.849C185.649 219.896 185.509 219.957 185.332 220.031C185.154 220.106 184.949 220.171 184.716 220.227C184.482 220.283 184.235 220.311 183.974 220.311C183.675 220.311 183.4 220.26 183.148 220.157C182.896 220.045 182.695 219.877 182.546 219.653C182.396 219.42 182.322 219.131 182.322 218.785V213.871H181.328V212.905H182.322V210.469H183.554V212.905H185.192V213.871H183.554V218.407C183.572 218.669 183.661 218.865 183.82 218.995C183.978 219.117 184.165 219.177 184.38 219.177C184.622 219.177 184.846 219.135 185.052 219.051C185.257 218.967 185.392 218.907 185.458 218.869L185.752 219.849ZM189.86 218.099C189.86 217.633 189.991 217.231 190.252 216.895C190.523 216.55 190.892 216.284 191.358 216.097C191.825 215.911 192.366 215.817 192.982 215.817C193.309 215.817 193.654 215.845 194.018 215.901C194.382 215.948 194.704 216.023 194.984 216.125V215.593C194.984 215.033 194.816 214.595 194.48 214.277C194.144 213.951 193.668 213.787 193.052 213.787C192.651 213.787 192.264 213.862 191.89 214.011C191.526 214.151 191.139 214.357 190.728 214.627L190.28 213.759C190.756 213.433 191.232 213.19 191.708 213.031C192.184 212.863 192.679 212.779 193.192 212.779C194.126 212.779 194.863 213.041 195.404 213.563C195.946 214.077 196.216 214.795 196.216 215.719V218.813C196.216 218.963 196.244 219.075 196.3 219.149C196.366 219.215 196.468 219.252 196.608 219.261V220.213C196.487 220.232 196.38 220.246 196.286 220.255C196.202 220.265 196.132 220.269 196.076 220.269C195.787 220.269 195.568 220.19 195.418 220.031C195.278 219.873 195.199 219.705 195.18 219.527L195.152 219.065C194.835 219.476 194.42 219.793 193.906 220.017C193.393 220.241 192.884 220.353 192.38 220.353C191.895 220.353 191.461 220.255 191.078 220.059C190.696 219.854 190.397 219.583 190.182 219.247C189.968 218.902 189.86 218.519 189.86 218.099ZM194.62 218.617C194.732 218.487 194.821 218.356 194.886 218.225C194.952 218.085 194.984 217.969 194.984 217.875V216.965C194.695 216.853 194.392 216.769 194.074 216.713C193.757 216.648 193.444 216.615 193.136 216.615C192.511 216.615 192.002 216.741 191.61 216.993C191.228 217.236 191.036 217.572 191.036 218.001C191.036 218.235 191.097 218.463 191.218 218.687C191.349 218.902 191.536 219.079 191.778 219.219C192.03 219.359 192.338 219.429 192.702 219.429C193.085 219.429 193.449 219.355 193.794 219.205C194.14 219.047 194.415 218.851 194.62 218.617ZM209.204 220.213H207.972V216.125C207.972 215.36 207.846 214.795 207.594 214.431C207.352 214.067 206.988 213.885 206.502 213.885C206.008 213.885 205.56 214.067 205.158 214.431C204.757 214.786 204.472 215.248 204.304 215.817V220.213H203.072V216.125C203.072 215.351 202.951 214.786 202.708 214.431C202.466 214.067 202.102 213.885 201.616 213.885C201.131 213.885 200.683 214.063 200.272 214.417C199.871 214.763 199.586 215.225 199.418 215.803V220.213H198.186V212.905H199.306V214.473C199.605 213.932 199.992 213.517 200.468 213.227C200.944 212.929 201.481 212.779 202.078 212.779C202.685 212.779 203.17 212.947 203.534 213.283C203.898 213.61 204.122 214.035 204.206 214.557C204.533 213.979 204.93 213.54 205.396 213.241C205.863 212.933 206.395 212.779 206.992 212.779C207.412 212.779 207.762 212.859 208.042 213.017C208.332 213.167 208.56 213.381 208.728 213.661C208.896 213.932 209.018 214.254 209.092 214.627C209.167 215.001 209.204 215.407 209.204 215.845V220.213ZM214.354 220.353C213.803 220.353 213.299 220.255 212.842 220.059C212.394 219.854 212.002 219.579 211.666 219.233C211.339 218.879 211.083 218.473 210.896 218.015C210.719 217.558 210.63 217.073 210.63 216.559C210.63 215.869 210.789 215.239 211.106 214.669C211.423 214.1 211.862 213.643 212.422 213.297C212.991 212.952 213.64 212.779 214.368 212.779C215.105 212.779 215.745 212.957 216.286 213.311C216.837 213.657 217.261 214.114 217.56 214.683C217.868 215.243 218.022 215.85 218.022 216.503C218.022 216.597 218.017 216.69 218.008 216.783C218.008 216.867 218.003 216.933 217.994 216.979H211.932C211.969 217.455 212.1 217.88 212.324 218.253C212.557 218.617 212.856 218.907 213.22 219.121C213.584 219.327 213.976 219.429 214.396 219.429C214.844 219.429 215.264 219.317 215.656 219.093C216.057 218.869 216.333 218.575 216.482 218.211L217.546 218.505C217.387 218.86 217.149 219.177 216.832 219.457C216.524 219.737 216.155 219.957 215.726 220.115C215.306 220.274 214.849 220.353 214.354 220.353ZM211.89 216.125H216.874C216.837 215.649 216.701 215.229 216.468 214.865C216.235 214.501 215.936 214.217 215.572 214.011C215.208 213.806 214.807 213.703 214.368 213.703C213.939 213.703 213.542 213.806 213.178 214.011C212.814 214.217 212.515 214.501 212.282 214.865C212.058 215.229 211.927 215.649 211.89 216.125ZM223.103 219.849C223 219.896 222.86 219.957 222.683 220.031C222.506 220.106 222.3 220.171 222.067 220.227C221.834 220.283 221.586 220.311 221.325 220.311C221.026 220.311 220.751 220.26 220.499 220.157C220.247 220.045 220.046 219.877 219.897 219.653C219.748 219.42 219.673 219.131 219.673 218.785V213.871H218.679V212.905H219.673V210.469H220.905V212.905H222.543V213.871H220.905V218.407C220.924 218.669 221.012 218.865 221.171 218.995C221.33 219.117 221.516 219.177 221.731 219.177C221.974 219.177 222.198 219.135 222.403 219.051C222.608 218.967 222.744 218.907 222.809 218.869L223.103 219.849ZM224.287 221.347L224.567 220.101H224.147V218.645H225.309V220.101L224.889 221.347H224.287ZM47.5024 241.353C46.9517 241.353 46.4477 241.255 45.9904 241.059C45.5424 240.854 45.1504 240.574 44.8144 240.219C44.4877 239.865 44.2311 239.459 44.0444 239.001C43.8671 238.544 43.7784 238.059 43.7784 237.545C43.7784 236.855 43.9324 236.225 44.2404 235.655C44.5484 235.086 44.9824 234.633 45.5424 234.297C46.1024 233.952 46.7511 233.779 47.4884 233.779C48.2071 233.779 48.8324 233.943 49.3644 234.269C49.9057 234.587 50.3071 235.016 50.5684 235.557L49.3644 235.935C49.1777 235.59 48.9164 235.324 48.5804 235.137C48.2444 234.941 47.8711 234.843 47.4604 234.843C47.0124 234.843 46.6017 234.96 46.2284 235.193C45.8644 235.427 45.5751 235.749 45.3604 236.159C45.1457 236.561 45.0384 237.023 45.0384 237.545C45.0384 238.059 45.1457 238.525 45.3604 238.945C45.5844 239.356 45.8784 239.683 46.2424 239.925C46.6157 240.168 47.0264 240.289 47.4744 240.289C47.7637 240.289 48.0391 240.238 48.3004 240.135C48.5711 240.033 48.8044 239.897 49.0004 239.729C49.2057 239.552 49.3457 239.361 49.4204 239.155L50.6244 239.519C50.4751 239.874 50.2464 240.191 49.9384 240.471C49.6397 240.742 49.2804 240.957 48.8604 241.115C48.4497 241.274 47.9971 241.353 47.5024 241.353ZM55.144 241.353C54.5933 241.353 54.094 241.255 53.646 241.059C53.198 240.854 52.8107 240.579 52.484 240.233C52.1573 239.879 51.9053 239.473 51.728 239.015C51.5507 238.558 51.462 238.077 51.462 237.573C51.462 237.06 51.5507 236.575 51.728 236.117C51.9053 235.66 52.1573 235.259 52.484 234.913C52.8107 234.559 53.198 234.283 53.646 234.087C54.1033 233.882 54.6027 233.779 55.144 233.779C55.6947 233.779 56.194 233.882 56.642 234.087C57.09 234.283 57.4773 234.559 57.804 234.913C58.14 235.259 58.3967 235.66 58.574 236.117C58.7513 236.575 58.84 237.06 58.84 237.573C58.84 238.077 58.7513 238.558 58.574 239.015C58.3967 239.473 58.1447 239.879 57.818 240.233C57.4913 240.579 57.0993 240.854 56.642 241.059C56.194 241.255 55.6947 241.353 55.144 241.353ZM52.722 237.587C52.722 238.091 52.8293 238.549 53.044 238.959C53.268 239.37 53.562 239.697 53.926 239.939C54.29 240.173 54.696 240.289 55.144 240.289C55.592 240.289 55.998 240.168 56.362 239.925C56.7353 239.683 57.0293 239.356 57.244 238.945C57.468 238.525 57.58 238.063 57.58 237.559C57.58 237.055 57.468 236.598 57.244 236.187C57.0293 235.777 56.7353 235.45 56.362 235.207C55.998 234.965 55.592 234.843 55.144 234.843C54.696 234.843 54.29 234.969 53.926 235.221C53.562 235.464 53.268 235.791 53.044 236.201C52.8293 236.612 52.722 237.074 52.722 237.587ZM66.6749 241.213H65.4429V237.125C65.4429 236.351 65.3215 235.786 65.0789 235.431C64.8455 235.067 64.4862 234.885 64.0009 234.885C63.6649 234.885 63.3289 234.969 62.9929 235.137C62.6662 235.305 62.3722 235.534 62.1109 235.823C61.8589 236.103 61.6769 236.43 61.5649 236.803V241.213H60.3329V233.905H61.4529V235.473C61.6489 235.128 61.9009 234.829 62.2089 234.577C62.5169 234.325 62.8669 234.129 63.2589 233.989C63.6509 233.849 64.0615 233.779 64.4909 233.779C64.9109 233.779 65.2609 233.859 65.5409 234.017C65.8302 234.167 66.0542 234.381 66.2129 234.661C66.3809 234.932 66.4975 235.254 66.5629 235.627C66.6375 236.001 66.6749 236.407 66.6749 236.845V241.213ZM71.0967 241.353C70.49 241.353 69.9207 241.255 69.3887 241.059C68.8567 240.854 68.3993 240.551 68.0167 240.149L68.4927 239.281C68.9127 239.673 69.3327 239.953 69.7527 240.121C70.1727 240.289 70.602 240.373 71.0407 240.373C71.5447 240.373 71.9553 240.28 72.2727 240.093C72.59 239.897 72.7487 239.613 72.7487 239.239C72.7487 238.969 72.6647 238.768 72.4967 238.637C72.338 238.507 72.1093 238.399 71.8107 238.315C71.512 238.222 71.1573 238.119 70.7467 238.007C70.2427 237.858 69.818 237.699 69.4727 237.531C69.1273 237.363 68.866 237.153 68.6887 236.901C68.5113 236.649 68.4227 236.332 68.4227 235.949C68.4227 235.483 68.544 235.091 68.7867 234.773C69.0293 234.447 69.3607 234.199 69.7807 234.031C70.21 233.863 70.6953 233.779 71.2367 233.779C71.778 233.779 72.268 233.863 72.7067 234.031C73.1453 234.199 73.5233 234.447 73.8407 234.773L73.2807 235.627C72.9913 235.329 72.674 235.109 72.3287 234.969C71.9833 234.82 71.596 234.745 71.1667 234.745C70.9147 234.745 70.6673 234.778 70.4247 234.843C70.182 234.899 69.9813 235.007 69.8227 235.165C69.664 235.315 69.5847 235.529 69.5847 235.809C69.5847 236.043 69.6453 236.229 69.7667 236.369C69.8973 236.5 70.084 236.612 70.3267 236.705C70.5787 236.799 70.882 236.901 71.2367 237.013C71.7873 237.172 72.2633 237.331 72.6647 237.489C73.0753 237.648 73.3927 237.853 73.6167 238.105C73.8407 238.357 73.9527 238.707 73.9527 239.155C73.9527 239.846 73.6913 240.387 73.1687 240.779C72.646 241.162 71.9553 241.353 71.0967 241.353ZM78.6606 241.353C78.11 241.353 77.606 241.255 77.1486 241.059C76.7006 240.854 76.3086 240.579 75.9726 240.233C75.646 239.879 75.3893 239.473 75.2026 239.015C75.0253 238.558 74.9366 238.073 74.9366 237.559C74.9366 236.869 75.0953 236.239 75.4126 235.669C75.73 235.1 76.1686 234.643 76.7286 234.297C77.298 233.952 77.9466 233.779 78.6746 233.779C79.412 233.779 80.0513 233.957 80.5926 234.311C81.1433 234.657 81.568 235.114 81.8666 235.683C82.1746 236.243 82.3286 236.85 82.3286 237.503C82.3286 237.597 82.324 237.69 82.3146 237.783C82.3146 237.867 82.31 237.933 82.3006 237.979H76.2386C76.276 238.455 76.4066 238.88 76.6306 239.253C76.864 239.617 77.1626 239.907 77.5266 240.121C77.8906 240.327 78.2826 240.429 78.7026 240.429C79.1506 240.429 79.5706 240.317 79.9626 240.093C80.364 239.869 80.6393 239.575 80.7886 239.211L81.8526 239.505C81.694 239.86 81.456 240.177 81.1386 240.457C80.8306 240.737 80.462 240.957 80.0326 241.115C79.6126 241.274 79.1553 241.353 78.6606 241.353ZM76.1966 237.125H81.1806C81.1433 236.649 81.008 236.229 80.7746 235.865C80.5413 235.501 80.2426 235.217 79.8786 235.011C79.5146 234.806 79.1133 234.703 78.6746 234.703C78.2453 234.703 77.8486 234.806 77.4846 235.011C77.1206 235.217 76.822 235.501 76.5886 235.865C76.3646 236.229 76.234 236.649 76.1966 237.125ZM86.9321 241.353C86.3814 241.353 85.8774 241.255 85.4201 241.059C84.9721 240.854 84.5801 240.574 84.2441 240.219C83.9174 239.865 83.6608 239.459 83.4741 239.001C83.2968 238.544 83.2081 238.059 83.2081 237.545C83.2081 236.855 83.3621 236.225 83.6701 235.655C83.9781 235.086 84.4121 234.633 84.9721 234.297C85.5321 233.952 86.1808 233.779 86.9181 233.779C87.6368 233.779 88.2621 233.943 88.7941 234.269C89.3354 234.587 89.7368 235.016 89.9981 235.557L88.7941 235.935C88.6074 235.59 88.3461 235.324 88.0101 235.137C87.6741 234.941 87.3008 234.843 86.8901 234.843C86.4421 234.843 86.0314 234.96 85.6581 235.193C85.2941 235.427 85.0048 235.749 84.7901 236.159C84.5754 236.561 84.4681 237.023 84.4681 237.545C84.4681 238.059 84.5754 238.525 84.7901 238.945C85.0141 239.356 85.3081 239.683 85.6721 239.925C86.0454 240.168 86.4561 240.289 86.9041 240.289C87.1934 240.289 87.4688 240.238 87.7301 240.135C88.0008 240.033 88.2341 239.897 88.4301 239.729C88.6354 239.552 88.7754 239.361 88.8501 239.155L90.0541 239.519C89.9048 239.874 89.6761 240.191 89.3681 240.471C89.0694 240.742 88.7101 240.957 88.2901 241.115C87.8794 241.274 87.4268 241.353 86.9321 241.353ZM95.2301 240.849C95.1274 240.896 94.9874 240.957 94.8101 241.031C94.6327 241.106 94.4274 241.171 94.1941 241.227C93.9607 241.283 93.7134 241.311 93.4521 241.311C93.1534 241.311 92.8781 241.26 92.6261 241.157C92.3741 241.045 92.1734 240.877 92.0241 240.653C91.8747 240.42 91.8001 240.131 91.8001 239.785V234.871H90.8061V233.905H91.8001V231.469H93.0321V233.905H94.6701V234.871H93.0321V239.407C93.0507 239.669 93.1394 239.865 93.2981 239.995C93.4567 240.117 93.6434 240.177 93.8581 240.177C94.1007 240.177 94.3247 240.135 94.5301 240.051C94.7354 239.967 94.8707 239.907 94.9361 239.869L95.2301 240.849ZM99.5102 241.353C98.9596 241.353 98.4556 241.255 97.9982 241.059C97.5502 240.854 97.1582 240.579 96.8222 240.233C96.4956 239.879 96.2389 239.473 96.0522 239.015C95.8749 238.558 95.7862 238.073 95.7862 237.559C95.7862 236.869 95.9449 236.239 96.2622 235.669C96.5796 235.1 97.0182 234.643 97.5782 234.297C98.1476 233.952 98.7962 233.779 99.5242 233.779C100.262 233.779 100.901 233.957 101.442 234.311C101.993 234.657 102.418 235.114 102.716 235.683C103.024 236.243 103.178 236.85 103.178 237.503C103.178 237.597 103.174 237.69 103.164 237.783C103.164 237.867 103.16 237.933 103.15 237.979H97.0882C97.1256 238.455 97.2562 238.88 97.4802 239.253C97.7136 239.617 98.0122 239.907 98.3762 240.121C98.7402 240.327 99.1322 240.429 99.5522 240.429C100 240.429 100.42 240.317 100.812 240.093C101.214 239.869 101.489 239.575 101.638 239.211L102.702 239.505C102.544 239.86 102.306 240.177 101.988 240.457C101.68 240.737 101.312 240.957 100.882 241.115C100.462 241.274 100.005 241.353 99.5102 241.353ZM97.0462 237.125H102.03C101.993 236.649 101.858 236.229 101.624 235.865C101.391 235.501 101.092 235.217 100.728 235.011C100.364 234.806 99.9629 234.703 99.5242 234.703C99.0949 234.703 98.6982 234.806 98.3342 235.011C97.9702 235.217 97.6716 235.501 97.4382 235.865C97.2142 236.229 97.0836 236.649 97.0462 237.125ZM108.259 240.849C108.157 240.896 108.017 240.957 107.839 241.031C107.662 241.106 107.457 241.171 107.223 241.227C106.99 241.283 106.743 241.311 106.481 241.311C106.183 241.311 105.907 241.26 105.655 241.157C105.403 241.045 105.203 240.877 105.053 240.653C104.904 240.42 104.829 240.131 104.829 239.785V234.871H103.835V233.905H104.829V231.469H106.061V233.905H107.699V234.871H106.061V239.407C106.08 239.669 106.169 239.865 106.327 239.995C106.486 240.117 106.673 240.177 106.887 240.177C107.13 240.177 107.354 240.135 107.559 240.051C107.765 239.967 107.9 239.907 107.965 239.869L108.259 240.849ZM109.331 238.287V233.905H110.563V238.049C110.563 238.796 110.694 239.356 110.955 239.729C111.217 240.103 111.604 240.289 112.117 240.289C112.453 240.289 112.775 240.219 113.083 240.079C113.401 239.93 113.685 239.72 113.937 239.449C114.189 239.179 114.385 238.857 114.525 238.483V233.905H115.757V239.813C115.757 239.963 115.785 240.075 115.841 240.149C115.907 240.215 116.009 240.252 116.149 240.261V241.213C116.009 241.232 115.897 241.241 115.813 241.241C115.739 241.251 115.664 241.255 115.589 241.255C115.356 241.255 115.155 241.185 114.987 241.045C114.819 240.896 114.731 240.714 114.721 240.499L114.693 239.645C114.376 240.187 113.947 240.607 113.405 240.905C112.873 241.204 112.29 241.353 111.655 241.353C110.89 241.353 110.311 241.097 109.919 240.583C109.527 240.061 109.331 239.295 109.331 238.287ZM121.673 234.983C121.057 234.993 120.511 235.151 120.035 235.459C119.569 235.758 119.237 236.173 119.041 236.705V241.213H117.809V233.905H118.957V235.599C119.209 235.095 119.541 234.689 119.951 234.381C120.371 234.064 120.81 233.887 121.267 233.849C121.361 233.849 121.44 233.849 121.505 233.849C121.571 233.849 121.627 233.854 121.673 233.863V234.983ZM125.534 239.099C125.534 238.633 125.665 238.231 125.926 237.895C126.197 237.55 126.566 237.284 127.032 237.097C127.499 236.911 128.04 236.817 128.656 236.817C128.983 236.817 129.328 236.845 129.692 236.901C130.056 236.948 130.378 237.023 130.658 237.125V236.593C130.658 236.033 130.49 235.595 130.154 235.277C129.818 234.951 129.342 234.787 128.726 234.787C128.325 234.787 127.938 234.862 127.564 235.011C127.2 235.151 126.813 235.357 126.402 235.627L125.954 234.759C126.43 234.433 126.906 234.19 127.382 234.031C127.858 233.863 128.353 233.779 128.866 233.779C129.8 233.779 130.537 234.041 131.078 234.563C131.62 235.077 131.89 235.795 131.89 236.719V239.813C131.89 239.963 131.918 240.075 131.974 240.149C132.04 240.215 132.142 240.252 132.282 240.261V241.213C132.161 241.232 132.054 241.246 131.96 241.255C131.876 241.265 131.806 241.269 131.75 241.269C131.461 241.269 131.242 241.19 131.092 241.031C130.952 240.873 130.873 240.705 130.854 240.527L130.826 240.065C130.509 240.476 130.094 240.793 129.58 241.017C129.067 241.241 128.558 241.353 128.054 241.353C127.569 241.353 127.135 241.255 126.752 241.059C126.37 240.854 126.071 240.583 125.856 240.247C125.642 239.902 125.534 239.519 125.534 239.099ZM130.294 239.617C130.406 239.487 130.495 239.356 130.56 239.225C130.626 239.085 130.658 238.969 130.658 238.875V237.965C130.369 237.853 130.066 237.769 129.748 237.713C129.431 237.648 129.118 237.615 128.81 237.615C128.185 237.615 127.676 237.741 127.284 237.993C126.902 238.236 126.71 238.572 126.71 239.001C126.71 239.235 126.771 239.463 126.892 239.687C127.023 239.902 127.21 240.079 127.452 240.219C127.704 240.359 128.012 240.429 128.376 240.429C128.759 240.429 129.123 240.355 129.468 240.205C129.814 240.047 130.089 239.851 130.294 239.617ZM133.384 237.573C133.384 236.883 133.524 236.253 133.804 235.683C134.094 235.105 134.486 234.643 134.98 234.297C135.484 233.952 136.058 233.779 136.702 233.779C137.29 233.779 137.818 233.933 138.284 234.241C138.751 234.549 139.115 234.923 139.376 235.361V230.993H140.608V239.813C140.608 239.963 140.636 240.075 140.692 240.149C140.758 240.215 140.86 240.252 141 240.261V241.213C140.767 241.251 140.585 241.269 140.454 241.269C140.212 241.269 139.997 241.185 139.81 241.017C139.633 240.849 139.544 240.663 139.544 240.457V239.841C139.255 240.308 138.868 240.677 138.382 240.947C137.897 241.218 137.393 241.353 136.87 241.353C136.366 241.353 135.9 241.255 135.47 241.059C135.05 240.854 134.682 240.574 134.364 240.219C134.056 239.865 133.814 239.463 133.636 239.015C133.468 238.558 133.384 238.077 133.384 237.573ZM139.376 238.651V236.551C139.264 236.234 139.082 235.949 138.83 235.697C138.578 235.436 138.294 235.231 137.976 235.081C137.668 234.923 137.36 234.843 137.052 234.843C136.688 234.843 136.357 234.923 136.058 235.081C135.769 235.231 135.517 235.436 135.302 235.697C135.097 235.949 134.938 236.239 134.826 236.565C134.714 236.892 134.658 237.233 134.658 237.587C134.658 237.951 134.719 238.297 134.84 238.623C134.971 238.95 135.148 239.239 135.372 239.491C135.606 239.743 135.872 239.939 136.17 240.079C136.478 240.219 136.81 240.289 137.164 240.289C137.388 240.289 137.617 240.247 137.85 240.163C138.093 240.079 138.322 239.963 138.536 239.813C138.751 239.664 138.933 239.491 139.082 239.295C139.232 239.09 139.33 238.875 139.376 238.651ZM142.665 241.213V233.905H143.897V241.213H142.665ZM142.665 232.533V230.993H143.897V232.533H142.665ZM149.825 241.353C149.228 241.353 148.696 241.204 148.229 240.905C147.763 240.607 147.394 240.229 147.123 239.771V244.195H145.891V233.905H146.983V235.277C147.273 234.829 147.651 234.47 148.117 234.199C148.584 233.919 149.093 233.779 149.643 233.779C150.147 233.779 150.609 233.882 151.029 234.087C151.449 234.293 151.813 234.573 152.121 234.927C152.429 235.282 152.667 235.688 152.835 236.145C153.013 236.593 153.101 237.065 153.101 237.559C153.101 238.25 152.961 238.885 152.681 239.463C152.411 240.042 152.028 240.504 151.533 240.849C151.039 241.185 150.469 241.353 149.825 241.353ZM149.447 240.289C149.811 240.289 150.138 240.215 150.427 240.065C150.726 239.907 150.978 239.701 151.183 239.449C151.398 239.188 151.561 238.894 151.673 238.567C151.785 238.241 151.841 237.905 151.841 237.559C151.841 237.195 151.776 236.85 151.645 236.523C151.524 236.197 151.347 235.907 151.113 235.655C150.889 235.403 150.623 235.207 150.315 235.067C150.017 234.918 149.69 234.843 149.335 234.843C149.111 234.843 148.878 234.885 148.635 234.969C148.402 235.053 148.178 235.175 147.963 235.333C147.749 235.483 147.567 235.655 147.417 235.851C147.268 236.047 147.17 236.257 147.123 236.481V238.567C147.263 238.885 147.45 239.174 147.683 239.435C147.917 239.697 148.187 239.907 148.495 240.065C148.803 240.215 149.121 240.289 149.447 240.289ZM154.614 241.213V233.905H155.846V241.213H154.614ZM154.614 232.533V230.993H155.846V232.533H154.614ZM160.347 241.353C159.74 241.353 159.171 241.255 158.639 241.059C158.107 240.854 157.649 240.551 157.267 240.149L157.743 239.281C158.163 239.673 158.583 239.953 159.003 240.121C159.423 240.289 159.852 240.373 160.291 240.373C160.795 240.373 161.205 240.28 161.523 240.093C161.84 239.897 161.999 239.613 161.999 239.239C161.999 238.969 161.915 238.768 161.747 238.637C161.588 238.507 161.359 238.399 161.061 238.315C160.762 238.222 160.407 238.119 159.997 238.007C159.493 237.858 159.068 237.699 158.723 237.531C158.377 237.363 158.116 237.153 157.939 236.901C157.761 236.649 157.673 236.332 157.673 235.949C157.673 235.483 157.794 235.091 158.037 234.773C158.279 234.447 158.611 234.199 159.031 234.031C159.46 233.863 159.945 233.779 160.487 233.779C161.028 233.779 161.518 233.863 161.957 234.031C162.395 234.199 162.773 234.447 163.091 234.773L162.531 235.627C162.241 235.329 161.924 235.109 161.579 234.969C161.233 234.82 160.846 234.745 160.417 234.745C160.165 234.745 159.917 234.778 159.675 234.843C159.432 234.899 159.231 235.007 159.073 235.165C158.914 235.315 158.835 235.529 158.835 235.809C158.835 236.043 158.895 236.229 159.017 236.369C159.147 236.5 159.334 236.612 159.577 236.705C159.829 236.799 160.132 236.901 160.487 237.013C161.037 237.172 161.513 237.331 161.915 237.489C162.325 237.648 162.643 237.853 162.867 238.105C163.091 238.357 163.203 238.707 163.203 239.155C163.203 239.846 162.941 240.387 162.419 240.779C161.896 241.162 161.205 241.353 160.347 241.353ZM167.911 241.353C167.36 241.353 166.856 241.255 166.399 241.059C165.951 240.854 165.559 240.574 165.223 240.219C164.896 239.865 164.639 239.459 164.453 239.001C164.275 238.544 164.187 238.059 164.187 237.545C164.187 236.855 164.341 236.225 164.649 235.655C164.957 235.086 165.391 234.633 165.951 234.297C166.511 233.952 167.159 233.779 167.897 233.779C168.615 233.779 169.241 233.943 169.773 234.269C170.314 234.587 170.715 235.016 170.977 235.557L169.773 235.935C169.586 235.59 169.325 235.324 168.989 235.137C168.653 234.941 168.279 234.843 167.869 234.843C167.421 234.843 167.01 234.96 166.637 235.193C166.273 235.427 165.983 235.749 165.769 236.159C165.554 236.561 165.447 237.023 165.447 237.545C165.447 238.059 165.554 238.525 165.769 238.945C165.993 239.356 166.287 239.683 166.651 239.925C167.024 240.168 167.435 240.289 167.883 240.289C168.172 240.289 168.447 240.238 168.709 240.135C168.979 240.033 169.213 239.897 169.409 239.729C169.614 239.552 169.754 239.361 169.829 239.155L171.033 239.519C170.883 239.874 170.655 240.191 170.347 240.471C170.048 240.742 169.689 240.957 169.269 241.115C168.858 241.274 168.405 241.353 167.911 241.353ZM172.429 241.213V233.905H173.661V241.213H172.429ZM172.429 232.533V230.993H173.661V232.533H172.429ZM181.997 241.213H180.765V237.125C180.765 236.351 180.644 235.786 180.401 235.431C180.168 235.067 179.808 234.885 179.323 234.885C178.987 234.885 178.651 234.969 178.315 235.137C177.988 235.305 177.694 235.534 177.433 235.823C177.181 236.103 176.999 236.43 176.887 236.803V241.213H175.655V233.905H176.775V235.473C176.971 235.128 177.223 234.829 177.531 234.577C177.839 234.325 178.189 234.129 178.581 233.989C178.973 233.849 179.384 233.779 179.813 233.779C180.233 233.779 180.583 233.859 180.863 234.017C181.152 234.167 181.376 234.381 181.535 234.661C181.703 234.932 181.82 235.254 181.885 235.627C181.96 236.001 181.997 236.407 181.997 236.845V241.213ZM186.825 241.297C186.33 241.297 185.873 241.199 185.453 241.003C185.042 240.798 184.688 240.523 184.389 240.177C184.09 239.823 183.857 239.421 183.689 238.973C183.53 238.525 183.451 238.059 183.451 237.573C183.451 237.06 183.53 236.575 183.689 236.117C183.857 235.66 184.09 235.259 184.389 234.913C184.697 234.559 185.056 234.283 185.467 234.087C185.878 233.882 186.335 233.779 186.839 233.779C187.446 233.779 187.973 233.929 188.421 234.227C188.878 234.526 189.261 234.904 189.569 235.361V233.905H190.661V241.129C190.661 241.82 190.493 242.403 190.157 242.879C189.83 243.355 189.382 243.715 188.813 243.957C188.253 244.209 187.628 244.335 186.937 244.335C186.116 244.335 185.444 244.191 184.921 243.901C184.398 243.612 183.964 243.22 183.619 242.725L184.333 242.095C184.622 242.525 184.996 242.847 185.453 243.061C185.92 243.276 186.414 243.383 186.937 243.383C187.385 243.383 187.796 243.299 188.169 243.131C188.552 242.973 188.855 242.725 189.079 242.389C189.312 242.053 189.429 241.633 189.429 241.129V239.841C189.158 240.289 188.785 240.644 188.309 240.905C187.842 241.167 187.348 241.297 186.825 241.297ZM187.203 240.289C187.464 240.289 187.716 240.243 187.959 240.149C188.202 240.056 188.426 239.935 188.631 239.785C188.836 239.627 189.009 239.449 189.149 239.253C189.289 239.057 189.382 238.857 189.429 238.651V236.551C189.298 236.215 189.112 235.921 188.869 235.669C188.626 235.408 188.351 235.207 188.043 235.067C187.735 234.918 187.418 234.843 187.091 234.843C186.718 234.843 186.382 234.923 186.083 235.081C185.794 235.24 185.546 235.455 185.341 235.725C185.136 235.987 184.977 236.281 184.865 236.607C184.753 236.934 184.697 237.265 184.697 237.601C184.697 237.965 184.762 238.311 184.893 238.637C185.024 238.955 185.201 239.239 185.425 239.491C185.649 239.743 185.915 239.939 186.223 240.079C186.531 240.219 186.858 240.289 187.203 240.289ZM199.424 241.353C198.874 241.353 198.37 241.255 197.912 241.059C197.464 240.854 197.072 240.579 196.736 240.233C196.41 239.879 196.153 239.473 195.966 239.015C195.789 238.558 195.7 238.073 195.7 237.559C195.7 236.869 195.859 236.239 196.176 235.669C196.494 235.1 196.932 234.643 197.492 234.297C198.062 233.952 198.71 233.779 199.438 233.779C200.176 233.779 200.815 233.957 201.356 234.311C201.907 234.657 202.332 235.114 202.63 235.683C202.938 236.243 203.092 236.85 203.092 237.503C203.092 237.597 203.088 237.69 203.078 237.783C203.078 237.867 203.074 237.933 203.064 237.979H197.002C197.04 238.455 197.17 238.88 197.394 239.253C197.628 239.617 197.926 239.907 198.29 240.121C198.654 240.327 199.046 240.429 199.466 240.429C199.914 240.429 200.334 240.317 200.726 240.093C201.128 239.869 201.403 239.575 201.552 239.211L202.616 239.505C202.458 239.86 202.22 240.177 201.902 240.457C201.594 240.737 201.226 240.957 200.796 241.115C200.376 241.274 199.919 241.353 199.424 241.353ZM196.96 237.125H201.944C201.907 236.649 201.772 236.229 201.538 235.865C201.305 235.501 201.006 235.217 200.642 235.011C200.278 234.806 199.877 234.703 199.438 234.703C199.009 234.703 198.612 234.806 198.248 235.011C197.884 235.217 197.586 235.501 197.352 235.865C197.128 236.229 196.998 236.649 196.96 237.125ZM204.49 230.993H205.722V239.323C205.722 239.725 205.778 239.972 205.89 240.065C206.002 240.159 206.137 240.205 206.296 240.205C206.492 240.205 206.678 240.187 206.856 240.149C207.033 240.103 207.182 240.056 207.304 240.009L207.5 241.017C207.294 241.101 207.052 241.171 206.772 241.227C206.492 241.283 206.244 241.311 206.03 241.311C205.554 241.311 205.176 241.176 204.896 240.905C204.625 240.635 204.49 240.257 204.49 239.771V230.993ZM208.468 241.213V233.905H209.7V241.213H208.468ZM208.468 232.533V230.993H209.7V232.533H208.468ZM215.474 240.849C215.372 240.896 215.232 240.957 215.054 241.031C214.877 241.106 214.672 241.171 214.438 241.227C214.205 241.283 213.958 241.311 213.696 241.311C213.398 241.311 213.122 241.26 212.87 241.157C212.618 241.045 212.418 240.877 212.268 240.653C212.119 240.42 212.044 240.131 212.044 239.785V234.871H211.05V233.905H212.044V231.469H213.276V233.905H214.914V234.871H213.276V239.407C213.295 239.669 213.384 239.865 213.542 239.995C213.701 240.117 213.888 240.177 214.102 240.177C214.345 240.177 214.569 240.135 214.774 240.051C214.98 239.967 215.115 239.907 215.18 239.869L215.474 240.849ZM216.658 242.347L216.938 241.101H216.518V239.645H217.68V241.101L217.26 242.347H216.658ZM225.616 241.353C225.01 241.353 224.44 241.255 223.908 241.059C223.376 240.854 222.919 240.551 222.536 240.149L223.012 239.281C223.432 239.673 223.852 239.953 224.272 240.121C224.692 240.289 225.122 240.373 225.56 240.373C226.064 240.373 226.475 240.28 226.792 240.093C227.11 239.897 227.268 239.613 227.268 239.239C227.268 238.969 227.184 238.768 227.016 238.637C226.858 238.507 226.629 238.399 226.33 238.315C226.032 238.222 225.677 238.119 225.266 238.007C224.762 237.858 224.338 237.699 223.992 237.531C223.647 237.363 223.386 237.153 223.208 236.901C223.031 236.649 222.942 236.332 222.942 235.949C222.942 235.483 223.064 235.091 223.306 234.773C223.549 234.447 223.88 234.199 224.3 234.031C224.73 233.863 225.215 233.779 225.756 233.779C226.298 233.779 226.788 233.863 227.226 234.031C227.665 234.199 228.043 234.447 228.36 234.773L227.8 235.627C227.511 235.329 227.194 235.109 226.848 234.969C226.503 234.82 226.116 234.745 225.686 234.745C225.434 234.745 225.187 234.778 224.944 234.843C224.702 234.899 224.501 235.007 224.342 235.165C224.184 235.315 224.104 235.529 224.104 235.809C224.104 236.043 224.165 236.229 224.286 236.369C224.417 236.5 224.604 236.612 224.846 236.705C225.098 236.799 225.402 236.901 225.756 237.013C226.307 237.172 226.783 237.331 227.184 237.489C227.595 237.648 227.912 237.853 228.136 238.105C228.36 238.357 228.472 238.707 228.472 239.155C228.472 239.846 228.211 240.387 227.688 240.779C227.166 241.162 226.475 241.353 225.616 241.353ZM233.18 241.353C232.629 241.353 232.125 241.255 231.668 241.059C231.22 240.854 230.828 240.579 230.492 240.233C230.165 239.879 229.909 239.473 229.722 239.015C229.545 238.558 229.456 238.073 229.456 237.559C229.456 236.869 229.615 236.239 229.932 235.669C230.249 235.1 230.688 234.643 231.248 234.297C231.817 233.952 232.466 233.779 233.194 233.779C233.931 233.779 234.571 233.957 235.112 234.311C235.663 234.657 236.087 235.114 236.386 235.683C236.694 236.243 236.848 236.85 236.848 237.503C236.848 237.597 236.843 237.69 236.834 237.783C236.834 237.867 236.829 237.933 236.82 237.979H230.758C230.795 238.455 230.926 238.88 231.15 239.253C231.383 239.617 231.682 239.907 232.046 240.121C232.41 240.327 232.802 240.429 233.222 240.429C233.67 240.429 234.09 240.317 234.482 240.093C234.883 239.869 235.159 239.575 235.308 239.211L236.372 239.505C236.213 239.86 235.975 240.177 235.658 240.457C235.35 240.737 234.981 240.957 234.552 241.115C234.132 241.274 233.675 241.353 233.18 241.353ZM230.716 237.125H235.7C235.663 236.649 235.527 236.229 235.294 235.865C235.061 235.501 234.762 235.217 234.398 235.011C234.034 234.806 233.633 234.703 233.194 234.703C232.765 234.703 232.368 234.806 232.004 235.011C231.64 235.217 231.341 235.501 231.108 235.865C230.884 236.229 230.753 236.649 230.716 237.125ZM237.742 237.573C237.742 236.883 237.882 236.253 238.162 235.683C238.451 235.105 238.843 234.643 239.338 234.297C239.842 233.952 240.416 233.779 241.06 233.779C241.648 233.779 242.175 233.933 242.642 234.241C243.108 234.549 243.472 234.923 243.734 235.361V230.993H244.966V239.813C244.966 239.963 244.994 240.075 245.05 240.149C245.115 240.215 245.218 240.252 245.358 240.261V241.213C245.124 241.251 244.942 241.269 244.812 241.269C244.569 241.269 244.354 241.185 244.168 241.017C243.99 240.849 243.902 240.663 243.902 240.457V239.841C243.612 240.308 243.225 240.677 242.74 240.947C242.254 241.218 241.75 241.353 241.228 241.353C240.724 241.353 240.257 241.255 239.828 241.059C239.408 240.854 239.039 240.574 238.722 240.219C238.414 239.865 238.171 239.463 237.994 239.015C237.826 238.558 237.742 238.077 237.742 237.573ZM243.734 238.651V236.551C243.622 236.234 243.44 235.949 243.188 235.697C242.936 235.436 242.651 235.231 242.334 235.081C242.026 234.923 241.718 234.843 241.41 234.843C241.046 234.843 240.714 234.923 240.416 235.081C240.126 235.231 239.874 235.436 239.66 235.697C239.454 235.949 239.296 236.239 239.184 236.565C239.072 236.892 239.016 237.233 239.016 237.587C239.016 237.951 239.076 238.297 239.198 238.623C239.328 238.95 239.506 239.239 239.73 239.491C239.963 239.743 240.229 239.939 240.528 240.079C240.836 240.219 241.167 240.289 241.522 240.289C241.746 240.289 241.974 240.247 242.208 240.163C242.45 240.079 242.679 239.963 242.894 239.813C243.108 239.664 243.29 239.491 243.44 239.295C243.589 239.09 243.687 238.875 243.734 238.651ZM43.7924 258.573C43.7924 257.883 43.9324 257.253 44.2124 256.683C44.5017 256.105 44.8937 255.643 45.3884 255.297C45.8924 254.952 46.4664 254.779 47.1104 254.779C47.6984 254.779 48.2257 254.933 48.6924 255.241C49.1591 255.549 49.5231 255.923 49.7844 256.361V251.993H51.0164V260.813C51.0164 260.963 51.0444 261.075 51.1004 261.149C51.1657 261.215 51.2684 261.252 51.4084 261.261V262.213C51.1751 262.251 50.9931 262.269 50.8624 262.269C50.6197 262.269 50.4051 262.185 50.2184 262.017C50.0411 261.849 49.9524 261.663 49.9524 261.457V260.841C49.6631 261.308 49.2757 261.677 48.7904 261.947C48.3051 262.218 47.8011 262.353 47.2784 262.353C46.7744 262.353 46.3077 262.255 45.8784 262.059C45.4584 261.854 45.0897 261.574 44.7724 261.219C44.4644 260.865 44.2217 260.463 44.0444 260.015C43.8764 259.558 43.7924 259.077 43.7924 258.573ZM49.7844 259.651V257.551C49.6724 257.234 49.4904 256.949 49.2384 256.697C48.9864 256.436 48.7017 256.231 48.3844 256.081C48.0764 255.923 47.7684 255.843 47.4604 255.843C47.0964 255.843 46.7651 255.923 46.4664 256.081C46.1771 256.231 45.9251 256.436 45.7104 256.697C45.5051 256.949 45.3464 257.239 45.2344 257.565C45.1224 257.892 45.0664 258.233 45.0664 258.587C45.0664 258.951 45.1271 259.297 45.2484 259.623C45.3791 259.95 45.5564 260.239 45.7804 260.491C46.0137 260.743 46.2797 260.939 46.5784 261.079C46.8864 261.219 47.2177 261.289 47.5724 261.289C47.7964 261.289 48.0251 261.247 48.2584 261.163C48.5011 261.079 48.7297 260.963 48.9444 260.813C49.1591 260.664 49.3411 260.491 49.4904 260.295C49.6397 260.09 49.7377 259.875 49.7844 259.651ZM56.2651 262.353C55.7144 262.353 55.2151 262.255 54.7671 262.059C54.3191 261.854 53.9318 261.579 53.6051 261.233C53.2784 260.879 53.0264 260.473 52.8491 260.015C52.6718 259.558 52.5831 259.077 52.5831 258.573C52.5831 258.06 52.6718 257.575 52.8491 257.117C53.0264 256.66 53.2784 256.259 53.6051 255.913C53.9318 255.559 54.3191 255.283 54.7671 255.087C55.2244 254.882 55.7238 254.779 56.2651 254.779C56.8158 254.779 57.3151 254.882 57.7631 255.087C58.2111 255.283 58.5984 255.559 58.9251 255.913C59.2611 256.259 59.5178 256.66 59.6951 257.117C59.8724 257.575 59.9611 258.06 59.9611 258.573C59.9611 259.077 59.8724 259.558 59.6951 260.015C59.5178 260.473 59.2658 260.879 58.9391 261.233C58.6124 261.579 58.2204 261.854 57.7631 262.059C57.3151 262.255 56.8158 262.353 56.2651 262.353ZM53.8431 258.587C53.8431 259.091 53.9504 259.549 54.1651 259.959C54.3891 260.37 54.6831 260.697 55.0471 260.939C55.4111 261.173 55.8171 261.289 56.2651 261.289C56.7131 261.289 57.1191 261.168 57.4831 260.925C57.8564 260.683 58.1504 260.356 58.3651 259.945C58.5891 259.525 58.7011 259.063 58.7011 258.559C58.7011 258.055 58.5891 257.598 58.3651 257.187C58.1504 256.777 57.8564 256.45 57.4831 256.207C57.1191 255.965 56.7131 255.843 56.2651 255.843C55.8171 255.843 55.4111 255.969 55.0471 256.221C54.6831 256.464 54.3891 256.791 54.1651 257.201C53.9504 257.612 53.8431 258.074 53.8431 258.587ZM68.229 262.353C67.6783 262.353 67.1743 262.255 66.717 262.059C66.269 261.854 65.877 261.579 65.541 261.233C65.2143 260.879 64.9576 260.473 64.771 260.015C64.5936 259.558 64.505 259.073 64.505 258.559C64.505 257.869 64.6636 257.239 64.981 256.669C65.2983 256.1 65.737 255.643 66.297 255.297C66.8663 254.952 67.515 254.779 68.243 254.779C68.9803 254.779 69.6196 254.957 70.161 255.311C70.7116 255.657 71.1363 256.114 71.435 256.683C71.743 257.243 71.897 257.85 71.897 258.503C71.897 258.597 71.8923 258.69 71.883 258.783C71.883 258.867 71.8783 258.933 71.869 258.979H65.807C65.8443 259.455 65.975 259.88 66.199 260.253C66.4323 260.617 66.731 260.907 67.095 261.121C67.459 261.327 67.851 261.429 68.271 261.429C68.719 261.429 69.139 261.317 69.531 261.093C69.9323 260.869 70.2076 260.575 70.357 260.211L71.421 260.505C71.2623 260.86 71.0243 261.177 70.707 261.457C70.399 261.737 70.0303 261.957 69.601 262.115C69.181 262.274 68.7236 262.353 68.229 262.353ZM65.765 258.125H70.749C70.7116 257.649 70.5763 257.229 70.343 256.865C70.1096 256.501 69.811 256.217 69.447 256.011C69.083 255.806 68.6816 255.703 68.243 255.703C67.8136 255.703 67.417 255.806 67.053 256.011C66.689 256.217 66.3903 256.501 66.157 256.865C65.933 257.229 65.8023 257.649 65.765 258.125ZM73.2665 262.213V254.905H74.4985V262.213H73.2665ZM73.2665 253.533V251.993H74.4985V253.533H73.2665ZM76.423 259.287V254.905H77.655V259.049C77.655 259.796 77.7857 260.356 78.047 260.729C78.3084 261.103 78.6957 261.289 79.209 261.289C79.545 261.289 79.867 261.219 80.175 261.079C80.4924 260.93 80.777 260.72 81.029 260.449C81.281 260.179 81.477 259.857 81.617 259.483V254.905H82.849V260.813C82.849 260.963 82.877 261.075 82.933 261.149C82.9984 261.215 83.101 261.252 83.241 261.261V262.213C83.101 262.232 82.989 262.241 82.905 262.241C82.8304 262.251 82.7557 262.255 82.681 262.255C82.4477 262.255 82.247 262.185 82.079 262.045C81.911 261.896 81.8224 261.714 81.813 261.499L81.785 260.645C81.4677 261.187 81.0384 261.607 80.497 261.905C79.965 262.204 79.3817 262.353 78.747 262.353C77.9817 262.353 77.403 262.097 77.011 261.583C76.619 261.061 76.423 260.295 76.423 259.287ZM87.4072 262.353C86.8006 262.353 86.2312 262.255 85.6992 262.059C85.1672 261.854 84.7099 261.551 84.3272 261.149L84.8032 260.281C85.2232 260.673 85.6432 260.953 86.0632 261.121C86.4832 261.289 86.9126 261.373 87.3512 261.373C87.8552 261.373 88.2659 261.28 88.5832 261.093C88.9006 260.897 89.0592 260.613 89.0592 260.239C89.0592 259.969 88.9752 259.768 88.8072 259.637C88.6486 259.507 88.4199 259.399 88.1212 259.315C87.8226 259.222 87.4679 259.119 87.0572 259.007C86.5532 258.858 86.1286 258.699 85.7832 258.531C85.4379 258.363 85.1766 258.153 84.9992 257.901C84.8219 257.649 84.7332 257.332 84.7332 256.949C84.7332 256.483 84.8546 256.091 85.0972 255.773C85.3399 255.447 85.6712 255.199 86.0912 255.031C86.5206 254.863 87.0059 254.779 87.5472 254.779C88.0886 254.779 88.5786 254.863 89.0172 255.031C89.4559 255.199 89.8339 255.447 90.1512 255.773L89.5912 256.627C89.3019 256.329 88.9846 256.109 88.6392 255.969C88.2939 255.82 87.9066 255.745 87.4772 255.745C87.2252 255.745 86.9779 255.778 86.7352 255.843C86.4926 255.899 86.2919 256.007 86.1332 256.165C85.9746 256.315 85.8952 256.529 85.8952 256.809C85.8952 257.043 85.9559 257.229 86.0772 257.369C86.2079 257.5 86.3946 257.612 86.6372 257.705C86.8892 257.799 87.1926 257.901 87.5472 258.013C88.0979 258.172 88.5739 258.331 88.9752 258.489C89.3859 258.648 89.7032 258.853 89.9272 259.105C90.1512 259.357 90.2632 259.707 90.2632 260.155C90.2632 260.846 90.0019 261.387 89.4792 261.779C88.9566 262.162 88.2659 262.353 87.4072 262.353ZM102.755 262.213H101.523V258.125C101.523 257.36 101.397 256.795 101.145 256.431C100.902 256.067 100.538 255.885 100.053 255.885C99.5585 255.885 99.1105 256.067 98.7092 256.431C98.3078 256.786 98.0232 257.248 97.8552 257.817V262.213H96.6232V258.125C96.6232 257.351 96.5018 256.786 96.2592 256.431C96.0165 256.067 95.6525 255.885 95.1672 255.885C94.6818 255.885 94.2338 256.063 93.8232 256.417C93.4218 256.763 93.1372 257.225 92.9692 257.803V262.213H91.7372V254.905H92.8572V256.473C93.1558 255.932 93.5432 255.517 94.0192 255.227C94.4952 254.929 95.0318 254.779 95.6292 254.779C96.2358 254.779 96.7212 254.947 97.0852 255.283C97.4492 255.61 97.6732 256.035 97.7572 256.557C98.0838 255.979 98.4805 255.54 98.9472 255.241C99.4138 254.933 99.9458 254.779 100.543 254.779C100.963 254.779 101.313 254.859 101.593 255.017C101.882 255.167 102.111 255.381 102.279 255.661C102.447 255.932 102.568 256.254 102.643 256.627C102.718 257.001 102.755 257.407 102.755 257.845V262.213ZM107.863 262.353C107.312 262.353 106.813 262.255 106.365 262.059C105.917 261.854 105.529 261.579 105.203 261.233C104.876 260.879 104.624 260.473 104.447 260.015C104.269 259.558 104.181 259.077 104.181 258.573C104.181 258.06 104.269 257.575 104.447 257.117C104.624 256.66 104.876 256.259 105.203 255.913C105.529 255.559 105.917 255.283 106.365 255.087C106.822 254.882 107.321 254.779 107.863 254.779C108.413 254.779 108.913 254.882 109.361 255.087C109.809 255.283 110.196 255.559 110.523 255.913C110.859 256.259 111.115 256.66 111.293 257.117C111.47 257.575 111.559 258.06 111.559 258.573C111.559 259.077 111.47 259.558 111.293 260.015C111.115 260.473 110.863 260.879 110.537 261.233C110.21 261.579 109.818 261.854 109.361 262.059C108.913 262.255 108.413 262.353 107.863 262.353ZM105.441 258.587C105.441 259.091 105.548 259.549 105.763 259.959C105.987 260.37 106.281 260.697 106.645 260.939C107.009 261.173 107.415 261.289 107.863 261.289C108.311 261.289 108.717 261.168 109.081 260.925C109.454 260.683 109.748 260.356 109.963 259.945C110.187 259.525 110.299 259.063 110.299 258.559C110.299 258.055 110.187 257.598 109.963 257.187C109.748 256.777 109.454 256.45 109.081 256.207C108.717 255.965 108.311 255.843 107.863 255.843C107.415 255.843 107.009 255.969 106.645 256.221C106.281 256.464 105.987 256.791 105.763 257.201C105.548 257.612 105.441 258.074 105.441 258.587ZM112.576 258.573C112.576 257.883 112.716 257.253 112.996 256.683C113.285 256.105 113.677 255.643 114.172 255.297C114.676 254.952 115.25 254.779 115.894 254.779C116.482 254.779 117.009 254.933 117.476 255.241C117.942 255.549 118.306 255.923 118.568 256.361V251.993H119.8V260.813C119.8 260.963 119.828 261.075 119.884 261.149C119.949 261.215 120.052 261.252 120.192 261.261V262.213C119.958 262.251 119.776 262.269 119.646 262.269C119.403 262.269 119.188 262.185 119.002 262.017C118.824 261.849 118.736 261.663 118.736 261.457V260.841C118.446 261.308 118.059 261.677 117.574 261.947C117.088 262.218 116.584 262.353 116.062 262.353C115.558 262.353 115.091 262.255 114.662 262.059C114.242 261.854 113.873 261.574 113.556 261.219C113.248 260.865 113.005 260.463 112.828 260.015C112.66 259.558 112.576 259.077 112.576 258.573ZM118.568 259.651V257.551C118.456 257.234 118.274 256.949 118.022 256.697C117.77 256.436 117.485 256.231 117.168 256.081C116.86 255.923 116.552 255.843 116.244 255.843C115.88 255.843 115.548 255.923 115.25 256.081C114.96 256.231 114.708 256.436 114.494 256.697C114.288 256.949 114.13 257.239 114.018 257.565C113.906 257.892 113.85 258.233 113.85 258.587C113.85 258.951 113.91 259.297 114.032 259.623C114.162 259.95 114.34 260.239 114.564 260.491C114.797 260.743 115.063 260.939 115.362 261.079C115.67 261.219 116.001 261.289 116.356 261.289C116.58 261.289 116.808 261.247 117.042 261.163C117.284 261.079 117.513 260.963 117.728 260.813C117.942 260.664 118.124 260.491 118.274 260.295C118.423 260.09 118.521 259.875 118.568 259.651ZM129.177 261.849C129.075 261.896 128.935 261.957 128.757 262.031C128.58 262.106 128.375 262.171 128.141 262.227C127.908 262.283 127.661 262.311 127.399 262.311C127.101 262.311 126.825 262.26 126.573 262.157C126.321 262.045 126.121 261.877 125.971 261.653C125.822 261.42 125.747 261.131 125.747 260.785V255.871H124.753V254.905H125.747V252.469H126.979V254.905H128.617V255.871H126.979V260.407C126.998 260.669 127.087 260.865 127.245 260.995C127.404 261.117 127.591 261.177 127.805 261.177C128.048 261.177 128.272 261.135 128.477 261.051C128.683 260.967 128.818 260.907 128.883 260.869L129.177 261.849ZM133.457 262.353C132.907 262.353 132.403 262.255 131.945 262.059C131.497 261.854 131.105 261.579 130.769 261.233C130.443 260.879 130.186 260.473 129.999 260.015C129.822 259.558 129.733 259.073 129.733 258.559C129.733 257.869 129.892 257.239 130.209 256.669C130.527 256.1 130.965 255.643 131.525 255.297C132.095 254.952 132.743 254.779 133.471 254.779C134.209 254.779 134.848 254.957 135.389 255.311C135.94 255.657 136.365 256.114 136.663 256.683C136.971 257.243 137.125 257.85 137.125 258.503C137.125 258.597 137.121 258.69 137.111 258.783C137.111 258.867 137.107 258.933 137.097 258.979H131.035C131.073 259.455 131.203 259.88 131.427 260.253C131.661 260.617 131.959 260.907 132.323 261.121C132.687 261.327 133.079 261.429 133.499 261.429C133.947 261.429 134.367 261.317 134.759 261.093C135.161 260.869 135.436 260.575 135.585 260.211L136.649 260.505C136.491 260.86 136.253 261.177 135.935 261.457C135.627 261.737 135.259 261.957 134.829 262.115C134.409 262.274 133.952 262.353 133.457 262.353ZM130.993 258.125H135.977C135.94 257.649 135.805 257.229 135.571 256.865C135.338 256.501 135.039 256.217 134.675 256.011C134.311 255.806 133.91 255.703 133.471 255.703C133.042 255.703 132.645 255.806 132.281 256.011C131.917 256.217 131.619 256.501 131.385 256.865C131.161 257.229 131.031 257.649 130.993 258.125ZM149.513 262.213H148.281V258.125C148.281 257.36 148.155 256.795 147.903 256.431C147.66 256.067 147.296 255.885 146.811 255.885C146.316 255.885 145.868 256.067 145.467 256.431C145.066 256.786 144.781 257.248 144.613 257.817V262.213H143.381V258.125C143.381 257.351 143.26 256.786 143.017 256.431C142.774 256.067 142.41 255.885 141.925 255.885C141.44 255.885 140.992 256.063 140.581 256.417C140.18 256.763 139.895 257.225 139.727 257.803V262.213H138.495V254.905H139.615V256.473C139.914 255.932 140.301 255.517 140.777 255.227C141.253 254.929 141.79 254.779 142.387 254.779C142.994 254.779 143.479 254.947 143.843 255.283C144.207 255.61 144.431 256.035 144.515 256.557C144.842 255.979 145.238 255.54 145.705 255.241C146.172 254.933 146.704 254.779 147.301 254.779C147.721 254.779 148.071 254.859 148.351 255.017C148.64 255.167 148.869 255.381 149.037 255.661C149.205 255.932 149.326 256.254 149.401 256.627C149.476 257.001 149.513 257.407 149.513 257.845V262.213ZM155.363 262.353C154.765 262.353 154.233 262.204 153.767 261.905C153.3 261.607 152.931 261.229 152.661 260.771V265.195H151.429V254.905H152.521V256.277C152.81 255.829 153.188 255.47 153.655 255.199C154.121 254.919 154.63 254.779 155.181 254.779C155.685 254.779 156.147 254.882 156.567 255.087C156.987 255.293 157.351 255.573 157.659 255.927C157.967 256.282 158.205 256.688 158.373 257.145C158.55 257.593 158.639 258.065 158.639 258.559C158.639 259.25 158.499 259.885 158.219 260.463C157.948 261.042 157.565 261.504 157.071 261.849C156.576 262.185 156.007 262.353 155.363 262.353ZM154.985 261.289C155.349 261.289 155.675 261.215 155.965 261.065C156.263 260.907 156.515 260.701 156.721 260.449C156.935 260.188 157.099 259.894 157.211 259.567C157.323 259.241 157.379 258.905 157.379 258.559C157.379 258.195 157.313 257.85 157.183 257.523C157.061 257.197 156.884 256.907 156.651 256.655C156.427 256.403 156.161 256.207 155.853 256.067C155.554 255.918 155.227 255.843 154.873 255.843C154.649 255.843 154.415 255.885 154.173 255.969C153.939 256.053 153.715 256.175 153.501 256.333C153.286 256.483 153.104 256.655 152.955 256.851C152.805 257.047 152.707 257.257 152.661 257.481V259.567C152.801 259.885 152.987 260.174 153.221 260.435C153.454 260.697 153.725 260.907 154.033 261.065C154.341 261.215 154.658 261.289 154.985 261.289ZM163.343 262.353C162.793 262.353 162.293 262.255 161.845 262.059C161.397 261.854 161.01 261.579 160.683 261.233C160.357 260.879 160.105 260.473 159.927 260.015C159.75 259.558 159.661 259.077 159.661 258.573C159.661 258.06 159.75 257.575 159.927 257.117C160.105 256.66 160.357 256.259 160.683 255.913C161.01 255.559 161.397 255.283 161.845 255.087C162.303 254.882 162.802 254.779 163.343 254.779C163.894 254.779 164.393 254.882 164.841 255.087C165.289 255.283 165.677 255.559 166.003 255.913C166.339 256.259 166.596 256.66 166.773 257.117C166.951 257.575 167.039 258.06 167.039 258.573C167.039 259.077 166.951 259.558 166.773 260.015C166.596 260.473 166.344 260.879 166.017 261.233C165.691 261.579 165.299 261.854 164.841 262.059C164.393 262.255 163.894 262.353 163.343 262.353ZM160.921 258.587C160.921 259.091 161.029 259.549 161.243 259.959C161.467 260.37 161.761 260.697 162.125 260.939C162.489 261.173 162.895 261.289 163.343 261.289C163.791 261.289 164.197 261.168 164.561 260.925C164.935 260.683 165.229 260.356 165.443 259.945C165.667 259.525 165.779 259.063 165.779 258.559C165.779 258.055 165.667 257.598 165.443 257.187C165.229 256.777 164.935 256.45 164.561 256.207C164.197 255.965 163.791 255.843 163.343 255.843C162.895 255.843 162.489 255.969 162.125 256.221C161.761 256.464 161.467 256.791 161.243 257.201C161.029 257.612 160.921 258.074 160.921 258.587ZM172.396 255.983C171.78 255.993 171.234 256.151 170.758 256.459C170.291 256.758 169.96 257.173 169.764 257.705V262.213H168.532V254.905H169.68V256.599C169.932 256.095 170.263 255.689 170.674 255.381C171.094 255.064 171.533 254.887 171.99 254.849C172.083 254.849 172.163 254.849 172.228 254.849C172.293 254.849 172.349 254.854 172.396 254.863V255.983ZM172.03 262.213V260.645H173.066V262.213H172.03ZM174.86 262.213V260.645H175.896V262.213H174.86ZM177.69 262.213V260.645H178.726V262.213H177.69Z" fill="#777777"/>
<path d="M47.0544 304.243L46.9284 301.471L53.5344 294.613H56.1624L50.6724 300.445L49.3764 301.867L47.0544 304.243ZM44.9664 307.213V294.613H47.3064V307.213H44.9664ZM53.7504 307.213L48.9264 301.471L50.4744 299.761L56.4864 307.213H53.7504ZM63.1595 297.493C63.9275 297.493 64.6115 297.643 65.2115 297.943C65.8235 298.243 66.3035 298.705 66.6515 299.329C66.9995 299.941 67.1735 300.733 67.1735 301.705V307.213H64.9235V301.993C64.9235 301.141 64.7195 300.505 64.3115 300.085C63.9155 299.665 63.3575 299.455 62.6375 299.455C62.1095 299.455 61.6415 299.563 61.2335 299.779C60.8255 299.995 60.5075 300.319 60.2795 300.751C60.0635 301.171 59.9555 301.705 59.9555 302.353V307.213H57.7055V297.601H59.8475V300.193L59.4695 299.401C59.8055 298.789 60.2915 298.321 60.9275 297.997C61.5755 297.661 62.3195 297.493 63.1595 297.493ZM74.3653 307.339C73.3813 307.339 72.5053 307.129 71.7373 306.709C70.9693 306.277 70.3633 305.689 69.9193 304.945C69.4753 304.201 69.2533 303.355 69.2533 302.407C69.2533 301.447 69.4753 300.601 69.9193 299.869C70.3633 299.125 70.9693 298.543 71.7373 298.123C72.5053 297.703 73.3813 297.493 74.3653 297.493C75.3613 297.493 76.2433 297.703 77.0113 298.123C77.7913 298.543 78.3973 299.119 78.8293 299.851C79.2733 300.583 79.4953 301.435 79.4953 302.407C79.4953 303.355 79.2733 304.201 78.8293 304.945C78.3973 305.689 77.7913 306.277 77.0113 306.709C76.2433 307.129 75.3613 307.339 74.3653 307.339ZM74.3653 305.413C74.9173 305.413 75.4093 305.293 75.8413 305.053C76.2733 304.813 76.6093 304.465 76.8493 304.009C77.1013 303.553 77.2273 303.019 77.2273 302.407C77.2273 301.783 77.1013 301.249 76.8493 300.805C76.6093 300.349 76.2733 300.001 75.8413 299.761C75.4093 299.521 74.9233 299.401 74.3833 299.401C73.8313 299.401 73.3393 299.521 72.9073 299.761C72.4873 300.001 72.1513 300.349 71.8993 300.805C71.6473 301.249 71.5213 301.783 71.5213 302.407C71.5213 303.019 71.6473 303.553 71.8993 304.009C72.1513 304.465 72.4873 304.813 72.9073 305.053C73.3393 305.293 73.8253 305.413 74.3653 305.413ZM83.5072 307.213L79.9792 297.601H82.1032L85.1272 306.079H84.1192L87.2872 297.601H89.1772L92.2552 306.079H91.2652L94.3792 297.601H96.3772L92.8312 307.213H90.6712L87.8632 299.707H88.5292L85.6672 307.213H83.5072ZM103.115 307.213V294.613H105.041L110.549 303.811H109.541L114.959 294.613H116.885L116.903 307.213H114.689L114.671 298.087H115.139L110.531 305.773H109.487L104.807 298.087H105.347V307.213H103.115ZM124.41 307.339C123.426 307.339 122.55 307.129 121.782 306.709C121.014 306.277 120.408 305.689 119.964 304.945C119.52 304.201 119.298 303.355 119.298 302.407C119.298 301.447 119.52 300.601 119.964 299.869C120.408 299.125 121.014 298.543 121.782 298.123C122.55 297.703 123.426 297.493 124.41 297.493C125.406 297.493 126.288 297.703 127.056 298.123C127.836 298.543 128.442 299.119 128.874 299.851C129.318 300.583 129.54 301.435 129.54 302.407C129.54 303.355 129.318 304.201 128.874 304.945C128.442 305.689 127.836 306.277 127.056 306.709C126.288 307.129 125.406 307.339 124.41 307.339ZM124.41 305.413C124.962 305.413 125.454 305.293 125.886 305.053C126.318 304.813 126.654 304.465 126.894 304.009C127.146 303.553 127.272 303.019 127.272 302.407C127.272 301.783 127.146 301.249 126.894 300.805C126.654 300.349 126.318 300.001 125.886 299.761C125.454 299.521 124.968 299.401 124.428 299.401C123.876 299.401 123.384 299.521 122.952 299.761C122.532 300.001 122.196 300.349 121.944 300.805C121.692 301.249 121.566 301.783 121.566 302.407C121.566 303.019 121.692 303.553 121.944 304.009C122.196 304.465 122.532 304.813 122.952 305.053C123.384 305.293 123.87 305.413 124.41 305.413ZM131.692 307.213V297.601H133.834V300.247L133.582 299.473C133.87 298.825 134.32 298.333 134.932 297.997C135.556 297.661 136.33 297.493 137.254 297.493V299.635C137.158 299.611 137.068 299.599 136.984 299.599C136.9 299.587 136.816 299.581 136.732 299.581C135.88 299.581 135.202 299.833 134.698 300.337C134.194 300.829 133.942 301.567 133.942 302.551V307.213H131.692ZM143.593 307.339C142.525 307.339 141.589 307.129 140.785 306.709C139.993 306.277 139.375 305.689 138.931 304.945C138.499 304.201 138.283 303.355 138.283 302.407C138.283 301.447 138.493 300.601 138.913 299.869C139.345 299.125 139.933 298.543 140.677 298.123C141.433 297.703 142.291 297.493 143.251 297.493C144.187 297.493 145.021 297.697 145.753 298.105C146.485 298.513 147.061 299.089 147.481 299.833C147.901 300.577 148.111 301.453 148.111 302.461C148.111 302.557 148.105 302.665 148.093 302.785C148.093 302.905 148.087 303.019 148.075 303.127H140.065V301.633H146.887L146.005 302.101C146.017 301.549 145.903 301.063 145.663 300.643C145.423 300.223 145.093 299.893 144.673 299.653C144.265 299.413 143.791 299.293 143.251 299.293C142.699 299.293 142.213 299.413 141.793 299.653C141.385 299.893 141.061 300.229 140.821 300.661C140.593 301.081 140.479 301.579 140.479 302.155V302.515C140.479 303.091 140.611 303.601 140.875 304.045C141.139 304.489 141.511 304.831 141.991 305.071C142.471 305.311 143.023 305.431 143.647 305.431C144.187 305.431 144.673 305.347 145.105 305.179C145.537 305.011 145.921 304.747 146.257 304.387L147.463 305.773C147.031 306.277 146.485 306.667 145.825 306.943C145.177 307.207 144.433 307.339 143.593 307.339Z" fill="#4A60A1"/>
<path d="M164.665 294.763C164.394 295.029 164.369 295.451 164.59 295.746L164.657 295.823L169.233 300.464L157.524 300.464C157.11 300.464 156.774 300.799 156.774 301.214C156.774 301.596 157.061 301.911 157.43 301.958L157.524 301.964H169.233L164.657 306.604C164.39 306.874 164.371 307.296 164.597 307.588L164.665 307.664C164.935 307.931 165.356 307.95 165.649 307.724L165.725 307.657L171.558 301.74C171.822 301.472 171.844 301.056 171.624 300.763L171.558 300.687L165.725 294.77C165.434 294.475 164.959 294.472 164.665 294.763Z" fill="#00B377"/>
<g clip-path="url(#clip0_773_492)">
<path d="M71.1247 119.385C72.5197 119.385 73.8283 119.653 75.0504 120.19C76.2725 120.726 77.3342 121.467 78.2354 122.412C79.1366 123.357 79.8526 124.461 80.3834 125.725C80.9142 126.99 81.1797 128.343 81.1797 129.786C81.1797 130.527 81.1056 131.261 80.9574 131.989C80.8093 132.717 80.5871 133.419 80.2908 134.096H71.7173L68.1619 130.265L62.2364 136.394L53.9406 127.813L48.015 134.096H44.1819C43.8856 133.419 43.6634 132.717 43.5153 131.989C43.3672 131.261 43.2931 130.527 43.2931 129.786C43.2931 128.343 43.5523 126.99 44.0708 125.725C44.5893 124.461 45.3053 123.363 46.2188 122.431C47.1324 121.499 48.2002 120.758 49.4223 120.209C50.6445 119.66 51.9531 119.385 53.348 119.385C54.6936 119.385 55.9775 119.647 57.1996 120.171C58.4218 120.694 59.5143 121.448 60.4772 122.431L62.2364 124.27L63.9955 122.431C64.9461 121.448 66.0324 120.694 67.2546 120.171C68.4767 119.647 69.7668 119.385 71.1247 119.385ZM69.347 136.548H78.7909L78.5317 136.854C78.4453 136.956 78.3527 137.065 78.2539 137.18L62.2364 153.729L46.2188 137.18C46.1201 137.078 46.0275 136.976 45.9411 136.873C45.8547 136.771 45.7682 136.663 45.6818 136.548H50.3852L53.9406 133.023L62.2364 141.605L68.1619 135.475L69.347 136.548Z" fill="#0B1C98"/>
</g>
<defs>
<filter id="filter0_d_773_492" x="0.274414" y="0.213379" width="290" height="377.979" filterUnits="userSpaceOnUse" color-interpolation-filters="sRGB">
<feFlood flood-opacity="0" result="BackgroundImageFix"/>
<feColorMatrix in="SourceAlpha" type="matrix" values="0 0 0 0 0 0 0 0 0 0 0 0 0 0 0 0 0 0 127 0" result="hardAlpha"/>
<feOffset/>
<feGaussianBlur stdDeviation="10"/>
<feComposite in2="hardAlpha" operator="out"/>
<feColorMatrix type="matrix" values="0 0 0 0 0.768627 0 0 0 0 0.768627 0 0 0 0 0.768627 0 0 0 0.15 0"/>
<feBlend mode="normal" in2="BackgroundImageFix" result="effect1_dropShadow_773_492"/>
<feBlend mode="normal" in="SourceGraphic" in2="effect1_dropShadow_773_492" result="shape"/>
</filter>
<clipPath id="clip0_773_492">
<rect width="37.9236" height="39.2285" fill="white" transform="translate(43.2744 116.933)"/>
</clipPath>
</defs>
</svg>
