<svg width="66" height="65" viewBox="0 0 66 65" fill="none" xmlns="http://www.w3.org/2000/svg">
<path d="M31.9613 2.46997C21.6828 2.46997 13.3156 10.677 13.3156 20.8511C13.3156 26.6107 15.3161 29.3081 17.5447 32.8227C19.0307 35.1667 20.5619 37.8603 21.4204 41.7294H42.3792C43.2333 37.7676 44.7798 35.0244 46.2789 32.6571C48.5106 29.133 50.5081 26.4833 50.5081 20.8513C50.5081 10.6701 42.2402 2.47022 31.9615 2.47022L31.9613 2.46997ZM19.2943 18.6146L22.2417 21.1943L27.2642 25.5885L31.2235 21.2812L32.0842 20.3423L32.9611 21.2693L36.8648 25.3993L41.939 21.1746L44.8189 18.7764L43.8471 22.3856L39.2927 39.2795L36.9996 38.6683L40.5821 25.3834L37.5313 27.9236L36.6705 28.6376L35.9046 27.8247L32.1081 23.8133L28.2282 28.034L27.4427 28.8897L26.5699 28.1246L23.6183 25.545L27.1653 38.6996L24.8721 39.307L20.3099 22.3852L19.2943 18.6143V18.6146ZM22.1625 44.088V49.2789L40.5939 44.088H22.1623H22.1625ZM41.6611 46.2417L22.1623 51.7362V55.4519L41.6611 49.9612V46.2414V46.2417ZM41.6611 52.4108L26.4987 56.6826H41.6611V52.4108ZM24.8323 59.0413V61.633H39.2135V59.0417H24.8326L24.8323 59.0413Z" fill="#9747FF"/>
</svg>
