<svg width="101" height="154" viewBox="0 0 101 154" fill="none" xmlns="http://www.w3.org/2000/svg">
<path d="M65.7206 138.371L63.0966 153.376L57.7832 152.363C56.7336 152.16 55.9464 151.822 55.2904 151.349C54.7 150.875 54.2408 150.335 54.044 149.659C53.7816 148.983 53.7816 148.307 53.9128 147.564C54.044 146.955 54.2408 146.414 54.5032 146.076C54.7656 145.739 55.1592 145.401 55.5528 145.198C55.9464 144.995 56.4056 144.927 56.8648 144.86V144.725C56.4056 144.589 55.9464 144.387 55.5528 143.981C55.1592 143.576 54.8312 143.102 54.6344 142.494C54.4376 141.886 54.372 141.21 54.5032 140.466C54.6344 139.723 54.9624 139.047 55.356 138.506C55.8152 137.965 56.4056 137.56 57.1928 137.357C57.98 137.154 58.9639 137.154 60.0791 137.357L65.7206 138.371ZM62.0471 146.482L59.0951 145.941C58.5703 145.874 58.1111 145.874 57.7176 146.009C57.324 146.144 56.9304 146.347 56.6024 146.685C56.2744 147.023 56.1432 147.361 56.012 147.901C55.8808 148.51 56.012 149.051 56.4056 149.591C56.7992 150.132 57.3896 150.402 58.2423 150.605L61.2599 151.146L62.0471 146.482ZM63.1622 139.858L60.0135 139.25C58.9639 139.047 58.1767 139.115 57.652 139.453C57.1272 139.79 56.7992 140.264 56.668 140.872C56.6024 141.345 56.6024 141.818 56.7992 142.224C56.9304 142.629 57.2584 143.035 57.652 143.373C58.0456 143.711 58.5047 143.914 59.0951 143.981L62.3751 144.589L63.1622 139.858Z" fill="#F58A07"/>
<path d="M47.9427 133.234C48.9267 133.639 49.7139 134.248 50.2387 135.059C50.7635 135.802 51.0915 136.681 51.1571 137.695C51.2227 138.709 51.0259 139.723 50.5667 140.804C50.1075 141.886 49.5171 142.764 48.7955 143.373C48.0739 144.048 47.2211 144.454 46.3683 144.589C45.45 144.724 44.5316 144.589 43.6132 144.184C43.0228 143.913 42.498 143.575 42.0388 143.17C41.5796 142.764 41.2516 142.223 40.9892 141.615C40.7268 141.007 40.5956 140.331 40.6612 139.52C40.6612 138.709 40.9236 137.898 41.3172 136.951L41.6452 136.208L49.7795 139.723L49.1235 141.277L42.9572 138.573C42.7604 139.114 42.6292 139.655 42.6948 140.128C42.7604 140.669 42.8916 141.074 43.154 141.48C43.4164 141.886 43.81 142.223 44.3348 142.426C44.9252 142.697 45.45 142.764 45.9748 142.629C46.4995 142.561 46.9587 142.291 47.3523 141.953C47.7459 141.615 48.0739 141.142 48.2707 140.669L48.7955 139.452C49.0579 138.776 49.1891 138.1 49.1891 137.492C49.1235 136.884 48.9923 136.343 48.6643 135.937C48.3363 135.532 47.8771 135.126 47.2867 134.856C46.8931 134.721 46.5651 134.586 46.1715 134.586C45.8436 134.586 45.45 134.586 45.1876 134.721C44.9252 134.856 44.5972 135.059 44.3348 135.329L42.5636 134.18C42.9572 133.707 43.4164 133.301 44.0068 133.031C44.5972 132.761 45.1876 132.625 45.8436 132.693C46.4995 132.761 47.2211 132.896 47.9427 133.234Z" fill="#F58A07"/>
<path d="M29.2471 132.152L31.0839 133.031C31.0183 133.301 30.9527 133.571 31.0183 133.842C31.0183 134.112 31.1495 134.45 31.2807 134.72C31.4775 134.991 31.7399 135.329 32.0679 135.531C32.5927 135.869 33.0519 136.072 33.5767 136.072C34.0359 136.072 34.4294 135.869 34.6918 135.531C34.8886 135.194 34.9542 134.856 34.8886 134.518C34.823 134.18 34.5606 133.774 34.1014 133.301L32.8551 131.949C32.1335 131.138 31.7399 130.395 31.6087 129.719C31.4775 129.043 31.6087 128.299 32.0679 127.623C32.4615 127.083 32.9207 126.677 33.5767 126.474C34.167 126.271 34.823 126.204 35.6102 126.407C36.3318 126.542 37.0534 126.88 37.8406 127.42C38.8902 128.164 39.5461 128.975 39.8741 129.854C40.2021 130.732 40.2021 131.679 39.7429 132.625L37.8406 131.679C38.0374 131.138 38.0374 130.665 37.9062 130.192C37.7094 129.719 37.3814 129.313 36.8566 128.907C36.2662 128.502 35.7414 128.299 35.2166 128.299C34.6918 128.299 34.2982 128.502 34.1014 128.84C33.9047 129.11 33.8391 129.448 33.9047 129.786C33.9703 130.124 34.2326 130.53 34.5606 130.935L35.8726 132.355C36.5942 133.166 36.9878 133.909 37.119 134.653C37.2502 135.396 37.0534 136.072 36.5942 136.748C36.2006 137.289 35.7414 137.694 35.151 137.897C34.5606 138.1 33.9047 138.1 33.2487 137.965C32.5927 137.83 31.8711 137.492 31.2151 137.018C30.2311 136.343 29.5751 135.531 29.3127 134.72C28.9192 133.909 28.9191 133.031 29.2471 132.152Z" fill="#F58A07"/>
<path d="M21.3756 132.355L19.8013 130.8L27.0827 123.027C27.3451 122.689 27.5419 122.419 27.6075 122.216C27.6731 121.946 27.6731 121.743 27.5419 121.54C27.4763 121.338 27.3451 121.135 27.1483 121C27.0171 120.864 26.8859 120.797 26.8203 120.729C26.7547 120.662 26.6235 120.594 26.5579 120.527L27.5419 118.904C27.6731 118.972 27.8043 119.039 28.0011 119.175C28.1979 119.31 28.4603 119.513 28.6571 119.715C29.0507 120.121 29.3787 120.594 29.5755 121.067C29.7723 121.54 29.8379 122.081 29.7723 122.622C29.7067 123.163 29.3787 123.703 28.9195 124.176L21.3756 132.355ZM19.9981 127.218L21.1788 125.934L25.5083 130.26L24.3276 131.544L19.9981 127.218Z" fill="#F58A07"/>
<path d="M20.3261 108.36C20.6541 108.968 20.8509 109.644 20.9165 110.252C20.9821 110.928 20.8509 111.469 20.5885 112.01C20.3261 112.55 19.8669 113.024 19.2109 113.429C18.6861 113.767 18.1614 113.902 17.7022 113.902C17.243 113.902 16.7838 113.767 16.3902 113.497C15.9966 113.226 15.603 112.956 15.275 112.55C14.947 112.145 14.5534 111.739 14.291 111.334C13.8974 110.793 13.5694 110.32 13.3071 109.982C13.0447 109.644 12.8479 109.441 12.6511 109.306C12.4543 109.171 12.2575 109.238 11.9951 109.374H11.9295C11.4047 109.712 11.0767 110.117 10.9455 110.59C10.8143 111.063 10.9455 111.672 11.2735 112.28C11.6671 112.956 12.0607 113.362 12.5199 113.564C12.9791 113.767 13.4383 113.835 13.8974 113.767L14.4878 115.795C13.7662 115.93 13.1103 115.862 12.5199 115.66C11.9295 115.457 11.4047 115.119 10.9455 114.713C10.4863 114.24 10.0927 113.767 9.76472 113.159C9.56793 112.753 9.37113 112.348 9.17434 111.807C9.04314 111.334 8.97754 110.793 8.97754 110.252C8.97754 109.712 9.17434 109.171 9.43673 108.698C9.69913 108.225 10.2239 107.751 10.9455 107.278L17.3086 103.493L18.3582 105.386L17.0462 106.197L17.1118 106.264C17.4398 106.264 17.7678 106.264 18.1614 106.4C18.555 106.535 18.8829 106.738 19.2765 107.008C19.6701 107.413 19.9981 107.819 20.3261 108.36ZM18.555 108.833C18.227 108.292 17.899 107.887 17.5054 107.616C17.1118 107.346 16.6526 107.211 16.1934 107.211C15.7342 107.211 15.3406 107.346 14.947 107.549L13.7006 108.292C13.8318 108.292 13.963 108.427 14.0942 108.563C14.2254 108.698 14.4222 108.9 14.619 109.171C14.8158 109.374 14.947 109.644 15.1438 109.847C15.275 110.05 15.4718 110.252 15.5374 110.388C15.7998 110.725 16.0622 111.063 16.3246 111.266C16.587 111.537 16.915 111.672 17.1774 111.739C17.5054 111.807 17.8334 111.739 18.1614 111.537C18.6205 111.266 18.8829 110.861 18.8829 110.388C19.0141 109.914 18.8829 109.374 18.555 108.833Z" fill="#F58A07"/>
<path d="M18.6866 94.368C18.949 95.2467 19.0802 95.9902 19.0146 96.7337C19.0146 97.4096 18.8834 98.0179 18.621 98.5587C18.3586 99.0994 18.0962 99.5049 17.7026 99.8429L16.3907 98.2883C16.5219 98.0855 16.7186 97.8827 16.8498 97.5448C16.981 97.2744 17.1122 96.8689 17.1778 96.4633C17.2434 96.0578 17.1778 95.517 16.981 94.9763C16.7187 94.1652 16.3251 93.5569 15.8003 93.1513C15.2755 92.7458 14.5539 92.6782 13.7667 92.9485L11.6676 93.6245L11.7332 93.7596C11.9955 93.8272 12.3235 93.8948 12.6515 94.03C12.9795 94.1652 13.3075 94.4356 13.7011 94.7735C14.0947 95.1115 14.2915 95.6522 14.4883 96.3281C14.7507 97.2068 14.8163 98.0179 14.6195 98.829C14.4227 99.6401 14.0291 100.384 13.3731 101.06C12.7171 101.735 11.8643 102.209 10.7492 102.614C9.63399 102.952 8.58441 103.087 7.66603 102.952C6.74765 102.817 5.96047 102.479 5.30448 101.938C4.64849 101.398 4.1893 100.654 3.92691 99.7753C3.73011 99.0994 3.66451 98.4911 3.73011 98.0179C3.79571 97.5448 3.99251 97.1392 4.1893 96.8013C4.3861 96.4633 4.58289 96.1929 4.77969 95.9902L4.71409 95.855L3.00853 96.3957L2.35254 94.3004L13.1763 90.7856C14.0947 90.5152 14.8819 90.4476 15.6035 90.718C16.3251 90.9884 16.9154 91.3939 17.4402 92.0698C17.965 92.7458 18.4242 93.4217 18.6866 94.368ZM12.6515 96.3281C12.4547 95.7198 12.1923 95.2467 11.7332 94.9087C11.274 94.5707 10.8148 94.368 10.2244 94.368C9.63399 94.3004 8.97801 94.4356 8.25642 94.6383C7.53483 94.8411 6.94445 95.1791 6.48526 95.5846C6.02607 95.9902 5.69807 96.4633 5.50128 96.9364C5.30448 97.4772 5.30448 98.0179 5.50128 98.6262C5.69807 99.2346 6.02607 99.7753 6.48526 100.046C6.94445 100.384 7.46924 100.519 8.05962 100.586C8.65001 100.654 9.306 100.519 9.96199 100.316C10.6836 100.113 11.2084 99.7753 11.6676 99.3698C12.1267 98.9642 12.4547 98.4911 12.5859 98.0179C12.8483 97.5448 12.8483 97.004 12.6515 96.3281Z" fill="#F58A07"/>
<path d="M12.1255 82.2693C12.2566 83.4183 12.0599 84.3646 11.6663 85.2433C11.2727 86.122 10.6823 86.7979 9.8295 87.2711C9.04231 87.8118 8.05833 88.0822 6.87756 88.2174C5.76238 88.3525 4.7128 88.2174 3.86002 87.8118C2.94164 87.4738 2.22005 86.9331 1.69526 86.1896C1.17047 85.4461 0.842479 84.5674 0.711282 83.4859C0.645683 82.81 0.711282 82.2017 0.842479 81.5934C0.973676 80.985 1.30167 80.3767 1.69526 79.9036C2.08885 79.3628 2.61364 78.9573 3.33523 78.6193C3.99122 78.2814 4.844 78.0786 5.82798 77.9434L6.61516 77.8758L7.40235 86.9331L5.76238 87.0683L5.17199 80.1739C4.5816 80.2415 4.12241 80.3767 3.72882 80.6471C3.33523 80.9175 3.00724 81.323 2.81044 81.7286C2.61364 82.1341 2.48245 82.6748 2.54804 83.2832C2.61364 83.8915 2.81044 84.4322 3.13843 84.8378C3.46643 85.2433 3.86002 85.5813 4.38481 85.7841C4.9096 85.9868 5.43439 86.0544 5.95918 85.9868L7.20555 85.8516C7.92714 85.7841 8.58312 85.5813 9.04231 85.2433C9.5015 84.9054 9.8951 84.4998 10.1575 84.0267C10.3543 83.4859 10.4855 82.9452 10.4199 82.2693C10.3543 81.8637 10.2887 81.4582 10.1575 81.1202C10.0263 80.7823 9.8295 80.5119 9.5671 80.2415C9.30471 80.0388 8.97671 79.836 8.64872 79.7684L8.84552 77.6055C9.43591 77.7407 10.0263 77.9434 10.4855 78.349C10.9447 78.7545 11.3383 79.2277 11.6663 79.9036C11.9943 80.5795 12.0599 81.4582 12.1255 82.2693Z" fill="#F58A07"/>
<path d="M5.23824 71.2511L11.7981 72.0622L11.5357 74.2927L0.515137 72.9409L0.777531 70.8455L2.5487 71.0483V70.9131C2.02391 70.5752 1.56472 70.102 1.30232 69.4937C1.03993 68.8854 0.908729 68.1419 1.03993 67.3308C1.10552 66.5873 1.36792 65.9113 1.76151 65.3706C2.1551 64.8299 2.67989 64.4243 3.33588 64.2215C3.99187 63.9512 4.77905 63.8836 5.69743 64.0188L12.7165 64.8975L12.4541 67.128L5.63183 66.1817C4.84465 66.1141 4.18866 66.2493 3.66387 66.5873C3.13908 66.9928 2.87669 67.5335 2.81109 68.277C2.74549 68.8178 2.81109 69.2233 3.00789 69.6965C3.20468 70.102 3.46708 70.44 3.86067 70.7779C4.18866 70.9807 4.64785 71.1835 5.23824 71.2511Z" fill="#F58A07"/>
<path d="M15.144 56.7197C14.816 57.7336 14.2912 58.6122 13.5696 59.153C12.848 59.7613 11.9952 60.0993 11.0769 60.2344C10.1585 60.3696 9.10889 60.2344 8.05931 59.8289C7.00973 59.4233 6.09135 58.8826 5.43537 58.2067C4.77938 57.5308 4.32019 56.7197 4.12339 55.7734C3.9266 54.8271 3.9922 53.8808 4.32019 52.8669C4.58258 52.0558 4.97618 51.3799 5.50097 50.8392C6.02575 50.2985 6.61614 49.8929 7.27213 49.6901C7.92812 49.4874 8.6497 49.4874 9.37129 49.6225L8.7153 51.6503C8.19051 51.5827 7.66572 51.7179 7.20653 51.9882C6.74734 52.2586 6.35375 52.7318 6.15695 53.4077C5.96016 54.016 5.96016 54.5567 6.09135 55.0975C6.22255 55.6382 6.55054 56.1113 7.00973 56.5845C7.46893 57.0576 8.05931 57.3956 8.8465 57.666C9.63368 57.9363 10.2897 58.0715 10.9457 58.0039C11.6016 57.9363 12.1264 57.8011 12.5856 57.4632C13.0448 57.1252 13.3728 56.6521 13.5696 56.0438C13.7008 55.6382 13.7664 55.2327 13.7008 54.8947C13.6352 54.4891 13.5696 54.1512 13.3728 53.8808C13.176 53.6104 12.9136 53.2725 12.5856 53.0697L13.2416 51.042C13.8976 51.3799 14.4224 51.7855 14.816 52.3938C15.2096 52.9345 15.472 53.6105 15.5376 54.354C15.5376 55.0975 15.472 55.9086 15.144 56.7197Z" fill="#F58A07"/>
<path d="M22.032 50.4338C21.8352 50.7041 21.704 50.9745 21.5072 51.1773C21.3104 51.38 21.1792 51.5152 21.048 51.6504L19.8016 50.231C20.064 49.9606 20.3264 49.6227 20.4576 49.3523C20.5888 49.0819 20.6544 48.744 20.5888 48.4736C20.5232 48.1356 20.3264 47.7977 19.9984 47.3245L19.4736 46.7162L7.73145 44.4181L8.91222 42.3903L17.768 44.4181L17.8336 44.2829L11.8642 37.2533L13.0449 35.2256L21.5072 45.8375C21.9008 46.3107 22.1632 46.8514 22.36 47.3245C22.5568 47.7977 22.6223 48.3384 22.5568 48.8115C22.4912 49.2847 22.2944 49.893 22.032 50.4338Z" fill="#F58A07"/>
<path d="M28.3945 33.8738L27.3449 32.5895L27.6729 25.1544C27.6729 24.3433 27.7385 23.6674 27.6729 23.1267C27.6729 22.5859 27.6073 22.0452 27.4761 21.6396C27.3449 21.2341 27.1481 20.8285 26.8857 20.4906C26.5578 20.085 26.1642 19.8823 25.7706 19.7471C25.377 19.6119 24.9178 19.6119 24.5242 19.7471C24.1306 19.8823 23.6714 20.085 23.3434 20.423C22.9498 20.761 22.6874 21.1665 22.4906 21.6396C22.3594 22.0452 22.2938 22.5183 22.425 22.9915C22.5562 23.4646 22.753 23.8702 23.081 24.2757L21.5067 25.7627C20.9163 25.0868 20.5227 24.3433 20.3915 23.5322C20.2603 22.7211 20.3259 21.91 20.6539 21.1665C20.9819 20.3554 21.4411 19.6795 22.1626 19.0712C22.8842 18.4628 23.6058 18.0573 24.393 17.8545C25.1802 17.6517 25.9018 17.6517 26.6234 17.9221C27.3449 18.1249 27.9353 18.5304 28.4601 19.2063C28.8537 19.6119 29.1161 20.085 29.3129 20.6934C29.5097 21.2341 29.6409 21.91 29.6409 22.7887C29.6409 23.6674 29.6409 24.6813 29.5753 26.0331L29.3785 30.2238L29.4441 30.2914L34.4296 25.7627L35.676 27.2498L28.3945 33.8738Z" fill="#F58A07"/>
<path d="M43.155 22.9915C42.171 23.5323 41.1214 23.7351 40.1374 23.5999C39.1534 23.4647 38.1695 22.9915 37.2511 22.1128C36.3327 21.3017 35.4799 20.1527 34.7583 18.6657C33.9711 17.1786 33.5119 15.8944 33.3807 14.6102C33.2495 13.3935 33.3807 12.312 33.7743 11.3657C34.2335 10.4195 34.8895 9.67594 35.9391 9.13521C36.9231 8.59447 37.9071 8.3917 38.9566 8.52688C40.0062 8.66207 40.9246 9.13521 41.843 9.94631C42.7614 10.7574 43.6141 11.9065 44.3357 13.3259C45.1229 14.8129 45.5821 16.1648 45.7133 17.3814C45.9101 18.5981 45.7789 19.7471 45.3197 20.6258C44.8605 21.6397 44.1389 22.3832 43.155 22.9915ZM42.2366 21.2342C43.0894 20.761 43.5485 19.9499 43.6141 18.7333C43.6797 17.5842 43.2206 16.1648 42.3678 14.475C41.7774 13.3935 41.187 12.5148 40.531 11.8389C39.875 11.163 39.2846 10.7574 38.6286 10.6222C37.9727 10.487 37.3823 10.5546 36.7919 10.8926C35.9391 11.3657 35.4799 12.1768 35.4143 13.3935C35.3487 14.5426 35.8079 15.962 36.6607 17.6518C37.2511 18.8008 37.8415 19.6795 38.4974 20.2879C39.1534 20.9638 39.7438 21.3017 40.3998 21.5045C40.9902 21.6397 41.6462 21.5721 42.2366 21.2342Z" fill="#F58A07"/>
<path d="M50.7636 18.936L50.3044 17.3138L53.7156 10.7574C54.1092 10.0815 54.3716 9.4056 54.5684 8.93245C54.7652 8.39172 54.962 7.91858 55.0276 7.51303C55.0931 7.10747 55.0931 6.63433 54.962 6.22878C54.8308 5.75564 54.634 5.35009 54.306 5.07972C53.978 4.80935 53.5844 4.60658 53.1908 4.53898C52.7316 4.47139 52.2724 4.47139 51.8132 4.60658C51.2884 4.74176 50.8948 5.01213 50.5668 5.28249C50.2388 5.62045 50.042 6.02601 49.9109 6.43156C49.7797 6.83711 49.8453 7.37784 49.9764 7.91858L47.9429 8.5269C47.6805 7.64821 47.6805 6.76952 47.9429 6.026C48.1397 5.2149 48.5989 4.53898 49.1893 3.99825C49.7797 3.45752 50.5012 3.05196 51.4196 2.7816C52.338 2.51123 53.1252 2.51123 53.9124 2.64641C54.6996 2.7816 55.3555 3.18715 55.9459 3.66029C56.4707 4.20103 56.8643 4.80935 57.1267 5.62045C57.2579 6.16119 57.3235 6.70192 57.2579 7.31025C57.1923 7.91858 56.9955 8.59449 56.6675 9.33801C56.3395 10.0815 55.8803 11.0954 55.2899 12.2445L53.2564 16.0972V16.2324L59.6851 14.4074L60.2098 16.3L50.7636 18.936Z" fill="#F58A07"/>
<path d="M68.6067 15.6914C67.4915 15.759 66.5075 15.4887 65.6547 14.8803C64.8019 14.272 64.146 13.4609 63.6868 12.3119C63.2276 11.1628 62.9652 9.74336 62.834 8.12116C62.7684 6.49895 62.8996 5.07953 63.2932 3.86287C63.6868 2.64622 64.2772 1.76753 65.0643 1.09161C65.8515 0.41569 66.8355 0.0777306 67.9507 0.0101388C69.0659 -0.0574531 70.0498 0.212914 70.9026 0.821241C71.7554 1.42957 72.4114 2.24067 72.8706 3.38973C73.3298 4.53879 73.6578 5.95822 73.7234 7.58042C73.789 9.27022 73.6578 10.6896 73.2642 11.8387C72.8706 12.9878 72.2802 13.9341 71.5586 14.61C70.7058 15.2859 69.7874 15.6239 68.6067 15.6914ZM68.5411 13.7313C69.525 13.6637 70.3122 13.123 70.837 12.1091C71.3618 11.0952 71.5586 9.60818 71.493 7.71561C71.4274 6.43136 71.2306 5.41748 70.9682 4.53879C70.7058 3.6601 70.2466 3.05177 69.7874 2.57863C69.2626 2.17308 68.7379 1.9703 68.0819 1.9703C67.0979 2.03789 66.3107 2.57863 65.7859 3.59251C65.2611 4.60638 65.0643 6.0934 65.1299 7.98597C65.1955 9.27022 65.3923 10.3517 65.6547 11.1628C65.9171 11.9739 66.3763 12.6498 66.8355 13.123C67.2947 13.5961 67.8851 13.7313 68.5411 13.7313Z" fill="#F58A07"/>
<path d="M92.0914 10.0142L91.6321 11.9068L85.269 10.1494L85.7282 8.25684L92.0914 10.0142Z" fill="#F58A07"/>
<path d="M99.1763 22.2479L100.029 20.8285L107.048 19.0711C107.77 18.8683 108.426 18.6655 108.95 18.5303C109.475 18.3951 109.934 18.1248 110.262 17.922C110.59 17.7192 110.918 17.3813 111.115 16.9757C111.378 16.5702 111.509 16.097 111.509 15.6915C111.509 15.2183 111.378 14.8128 111.181 14.4748C110.918 14.0693 110.59 13.7313 110.197 13.4609C109.738 13.1906 109.278 12.9878 108.819 12.9878C108.36 12.9878 107.967 13.0554 107.573 13.2582C107.179 13.4609 106.851 13.7989 106.589 14.272L104.818 13.123C105.277 12.3119 105.867 11.7712 106.589 11.4332C107.311 11.0952 108.032 10.96 108.885 11.0276C109.672 11.0952 110.459 11.3656 111.246 11.9063C112.034 12.4471 112.624 13.0554 113.018 13.7313C113.411 14.4748 113.608 15.2183 113.608 15.9618C113.608 16.7054 113.411 17.4489 112.952 18.1248C112.69 18.5979 112.296 19.0035 111.837 19.3414C111.378 19.6794 110.787 20.0174 110 20.2877C109.213 20.5581 108.229 20.8285 106.983 21.1664L102.85 22.2479L102.784 22.3155L108.426 25.9654L107.376 27.6552L99.1763 22.2479Z" fill="#F58A07"/>
<path d="M100.815 138.1L98.1254 131.882L100.093 130.936L104.685 141.345L102.783 142.223L102.061 140.534L101.93 140.601C101.93 141.277 101.799 141.885 101.405 142.426C101.077 142.967 100.487 143.44 99.7654 143.778C99.0438 144.116 98.3878 144.251 97.7319 144.184C97.0759 144.116 96.4855 143.846 95.9607 143.44C95.4359 143.034 94.9767 142.359 94.5831 141.48L91.6968 134.856L93.6647 133.91L96.4855 140.263C96.8135 141.007 97.2727 141.547 97.863 141.75C98.4534 142.021 99.0438 141.953 99.6998 141.683C100.159 141.48 100.487 141.209 100.749 140.804C101.012 140.466 101.143 139.993 101.209 139.52C101.209 139.182 101.077 138.709 100.815 138.1Z" fill="#F58A07"/>
</svg>
