<svg width="35" height="37" viewBox="0 0 35 37" fill="none" xmlns="http://www.w3.org/2000/svg">
<path d="M31.2472 14.0383C31.2472 16.5056 30.2353 18.6644 28.6452 20.3606L17.8033 31.6174C17.5142 31.7716 17.3697 31.9258 17.0805 31.9258C16.7914 31.9258 16.5023 31.7716 16.3578 31.6174L5.51592 20.2064C3.92578 18.5102 2.91388 16.1972 2.91388 13.7299C2.91388 11.4169 3.92578 9.25805 5.51592 7.56183C7.25061 5.86561 9.41898 4.78619 11.7319 4.94039C13.6112 4.94039 15.3459 5.7114 16.7914 6.94502C20.2608 4.01518 25.1758 4.32358 28.3561 7.71603C30.2353 9.25805 31.2472 11.5711 31.2472 14.0383Z" fill="white"/>
</svg>
