<svg width="291" height="379" viewBox="0 0 291 379" fill="none" xmlns="http://www.w3.org/2000/svg">
<g filter="url(#filter0_d_773_468)">
<rect x="20.4317" y="20.4058" width="250" height="337.979" rx="12" fill="white"/>
<rect x="20.9317" y="20.9058" width="249" height="336.979" rx="11.5" stroke="black"/>
</g>
<path d="M51.5317 192.606C50.065 192.606 48.805 192.312 47.7517 191.726C46.7117 191.126 45.9117 190.286 45.3517 189.206C44.7917 188.112 44.5117 186.826 44.5117 185.346C44.5117 184.239 44.6717 183.246 44.9917 182.366C45.3117 181.472 45.7717 180.712 46.3717 180.086C46.9717 179.446 47.705 178.959 48.5717 178.626C49.4517 178.279 50.4384 178.106 51.5317 178.106C52.265 178.106 52.985 178.199 53.6917 178.386C54.3984 178.572 55.0184 178.839 55.5517 179.186C55.8317 179.359 56.0184 179.572 56.1117 179.826C56.205 180.066 56.225 180.306 56.1717 180.546C56.1184 180.772 56.005 180.966 55.8317 181.126C55.6717 181.286 55.465 181.379 55.2117 181.406C54.9717 181.419 54.705 181.332 54.4117 181.146C53.9984 180.879 53.5517 180.686 53.0717 180.566C52.5917 180.446 52.105 180.386 51.6117 180.386C50.665 180.386 49.865 180.579 49.2117 180.966C48.5584 181.352 48.065 181.912 47.7317 182.646C47.3984 183.379 47.2317 184.279 47.2317 185.346C47.2317 186.399 47.3984 187.299 47.7317 188.046C48.065 188.792 48.5584 189.359 49.2117 189.746C49.865 190.132 50.665 190.326 51.6117 190.326C52.1184 190.326 52.6184 190.266 53.1117 190.146C53.605 190.012 54.0717 189.812 54.5117 189.546C54.805 189.372 55.065 189.299 55.2917 189.326C55.5317 189.339 55.7317 189.419 55.8917 189.566C56.0517 189.712 56.1584 189.899 56.2117 190.126C56.265 190.339 56.2517 190.566 56.1717 190.806C56.0917 191.032 55.9317 191.232 55.6917 191.406C55.1584 191.792 54.5184 192.092 53.7717 192.306C53.0384 192.506 52.2917 192.606 51.5317 192.606ZM62.0823 192.606C61.069 192.606 60.189 192.399 59.4423 191.986C58.6957 191.572 58.1157 190.986 57.7023 190.226C57.289 189.452 57.0823 188.546 57.0823 187.506C57.0823 186.719 57.1957 186.019 57.4223 185.406C57.6623 184.779 58.0023 184.246 58.4423 183.806C58.8823 183.352 59.409 183.012 60.0223 182.786C60.6357 182.546 61.3223 182.426 62.0823 182.426C63.0957 182.426 63.9757 182.632 64.7223 183.046C65.469 183.459 66.049 184.046 66.4623 184.806C66.8757 185.566 67.0823 186.466 67.0823 187.506C67.0823 188.292 66.9623 188.999 66.7223 189.626C66.4957 190.252 66.1623 190.792 65.7223 191.246C65.2823 191.686 64.7557 192.026 64.1423 192.266C63.529 192.492 62.8423 192.606 62.0823 192.606ZM62.0823 190.706C62.5757 190.706 63.009 190.586 63.3823 190.346C63.7557 190.106 64.0423 189.752 64.2423 189.286C64.4557 188.806 64.5623 188.212 64.5623 187.506C64.5623 186.439 64.3357 185.646 63.8823 185.126C63.429 184.592 62.829 184.326 62.0823 184.326C61.589 184.326 61.1557 184.446 60.7823 184.686C60.409 184.912 60.1157 185.266 59.9023 185.746C59.7023 186.212 59.6023 186.799 59.6023 187.506C59.6023 188.559 59.829 189.359 60.2823 189.906C60.7357 190.439 61.3357 190.706 62.0823 190.706ZM70.3858 192.566C69.9858 192.566 69.6791 192.459 69.4658 192.246C69.2524 192.019 69.1458 191.699 69.1458 191.286V183.726C69.1458 183.312 69.2524 182.999 69.4658 182.786C69.6791 182.572 69.9791 182.466 70.3658 182.466C70.7524 182.466 71.0524 182.572 71.2658 182.786C71.4791 182.999 71.5858 183.312 71.5858 183.726V185.086L71.3658 184.586C71.6591 183.879 72.1124 183.346 72.7258 182.986C73.3524 182.612 74.0591 182.426 74.8458 182.426C75.6324 182.426 76.2791 182.572 76.7858 182.866C77.2924 183.159 77.6724 183.606 77.9258 184.206C78.1791 184.792 78.3058 185.539 78.3058 186.446V191.286C78.3058 191.699 78.1991 192.019 77.9858 192.246C77.7724 192.459 77.4658 192.566 77.0658 192.566C76.6658 192.566 76.3524 192.459 76.1258 192.246C75.9124 192.019 75.8058 191.699 75.8058 191.286V186.566C75.8058 185.806 75.6591 185.252 75.3658 184.906C75.0858 184.559 74.6458 184.386 74.0458 184.386C73.3124 184.386 72.7258 184.619 72.2858 185.086C71.8591 185.539 71.6458 186.146 71.6458 186.906V191.286C71.6458 192.139 71.2258 192.566 70.3858 192.566ZM84.425 192.606C83.8516 192.606 83.245 192.546 82.605 192.426C81.965 192.306 81.3916 192.099 80.885 191.806C80.6716 191.672 80.5183 191.519 80.425 191.346C80.345 191.159 80.3116 190.979 80.325 190.806C80.3516 190.619 80.4183 190.459 80.525 190.326C80.645 190.192 80.7916 190.106 80.965 190.066C81.1516 190.026 81.3516 190.059 81.565 190.166C82.0983 190.419 82.5983 190.599 83.065 190.706C83.5316 190.799 83.9916 190.846 84.445 190.846C85.085 190.846 85.5583 190.739 85.865 190.526C86.185 190.299 86.345 190.006 86.345 189.646C86.345 189.339 86.2383 189.106 86.025 188.946C85.825 188.772 85.5183 188.646 85.105 188.566L83.105 188.186C82.2783 188.026 81.645 187.726 81.205 187.286C80.7783 186.832 80.565 186.252 80.565 185.546C80.565 184.906 80.7383 184.352 81.085 183.886C81.445 183.419 81.9383 183.059 82.565 182.806C83.1916 182.552 83.9116 182.426 84.725 182.426C85.3116 182.426 85.8583 182.492 86.365 182.626C86.885 182.746 87.385 182.939 87.865 183.206C88.065 183.312 88.1983 183.452 88.265 183.626C88.345 183.799 88.365 183.979 88.325 184.166C88.285 184.339 88.205 184.499 88.085 184.646C87.965 184.779 87.8116 184.866 87.625 184.906C87.4517 184.932 87.2517 184.892 87.025 184.786C86.6116 184.572 86.2116 184.419 85.825 184.326C85.4516 184.232 85.0916 184.186 84.745 184.186C84.0916 184.186 83.605 184.299 83.285 184.526C82.9783 184.752 82.825 185.052 82.825 185.426C82.825 185.706 82.9183 185.939 83.105 186.126C83.2916 186.312 83.5783 186.439 83.965 186.506L85.965 186.886C86.8316 187.046 87.485 187.339 87.925 187.766C88.3783 188.192 88.605 188.766 88.605 189.486C88.605 190.459 88.225 191.226 87.465 191.786C86.705 192.332 85.6916 192.606 84.425 192.606ZM94.1506 192.606C93.3373 192.606 92.6639 192.459 92.1306 192.166C91.5973 191.859 91.1973 191.406 90.9306 190.806C90.6773 190.206 90.5506 189.459 90.5506 188.566V183.726C90.5506 183.299 90.6573 182.986 90.8706 182.786C91.0839 182.572 91.3906 182.466 91.7906 182.466C92.1906 182.466 92.4973 182.572 92.7106 182.786C92.9373 182.986 93.0506 183.299 93.0506 183.726V188.606C93.0506 189.299 93.1906 189.812 93.4706 190.146C93.7506 190.479 94.1973 190.646 94.8106 190.646C95.4773 190.646 96.0239 190.419 96.4506 189.966C96.8773 189.499 97.0906 188.886 97.0906 188.126V183.726C97.0906 183.299 97.1973 182.986 97.4106 182.786C97.6239 182.572 97.9306 182.466 98.3306 182.466C98.7306 182.466 99.0373 182.572 99.2506 182.786C99.4773 182.986 99.5906 183.299 99.5906 183.726V191.286C99.5906 192.139 99.1839 192.566 98.3706 192.566C97.9839 192.566 97.6839 192.459 97.4706 192.246C97.2573 192.019 97.1506 191.699 97.1506 191.286V189.766L97.4306 190.366C97.1506 191.086 96.7239 191.639 96.1506 192.026C95.5906 192.412 94.9239 192.606 94.1506 192.606ZM103.473 192.566C103.073 192.566 102.766 192.459 102.553 192.246C102.339 192.019 102.233 191.699 102.233 191.286V183.726C102.233 183.312 102.339 182.999 102.553 182.786C102.766 182.572 103.066 182.466 103.453 182.466C103.839 182.466 104.139 182.572 104.353 182.786C104.566 182.999 104.673 183.312 104.673 183.726V185.186L104.453 184.586C104.719 183.919 105.133 183.392 105.693 183.006C106.253 182.619 106.919 182.426 107.693 182.426C108.479 182.426 109.126 182.612 109.633 182.986C110.139 183.359 110.493 183.932 110.693 184.706H110.413C110.679 183.999 111.119 183.446 111.733 183.046C112.346 182.632 113.053 182.426 113.853 182.426C114.599 182.426 115.213 182.572 115.693 182.866C116.186 183.159 116.553 183.606 116.793 184.206C117.033 184.792 117.153 185.539 117.153 186.446V191.286C117.153 191.699 117.039 192.019 116.813 192.246C116.599 192.459 116.293 192.566 115.893 192.566C115.493 192.566 115.186 192.459 114.973 192.246C114.759 192.019 114.653 191.699 114.653 191.286V186.546C114.653 185.799 114.526 185.252 114.273 184.906C114.033 184.559 113.619 184.386 113.033 184.386C112.379 184.386 111.866 184.619 111.493 185.086C111.119 185.539 110.933 186.172 110.933 186.986V191.286C110.933 191.699 110.826 192.019 110.613 192.246C110.399 192.459 110.093 192.566 109.693 192.566C109.293 192.566 108.979 192.459 108.753 192.246C108.539 192.019 108.433 191.699 108.433 191.286V186.546C108.433 185.799 108.306 185.252 108.053 184.906C107.813 184.559 107.406 184.386 106.833 184.386C106.179 184.386 105.666 184.619 105.293 185.086C104.919 185.539 104.733 186.172 104.733 186.986V191.286C104.733 192.139 104.313 192.566 103.473 192.566ZM124.552 192.606C123.445 192.606 122.492 192.399 121.692 191.986C120.892 191.572 120.272 190.986 119.832 190.226C119.405 189.466 119.192 188.566 119.192 187.526C119.192 186.512 119.398 185.626 119.812 184.866C120.238 184.106 120.818 183.512 121.552 183.086C122.298 182.646 123.145 182.426 124.092 182.426C124.785 182.426 125.405 182.539 125.952 182.766C126.512 182.992 126.985 183.319 127.372 183.746C127.772 184.172 128.072 184.692 128.272 185.306C128.485 185.906 128.592 186.586 128.592 187.346C128.592 187.586 128.505 187.772 128.332 187.906C128.172 188.026 127.938 188.086 127.632 188.086H121.212V186.646H126.832L126.512 186.946C126.512 186.332 126.418 185.819 126.232 185.406C126.058 184.992 125.798 184.679 125.452 184.466C125.118 184.239 124.698 184.126 124.192 184.126C123.632 184.126 123.152 184.259 122.752 184.526C122.365 184.779 122.065 185.146 121.852 185.626C121.652 186.092 121.552 186.652 121.552 187.306V187.446C121.552 188.539 121.805 189.359 122.312 189.906C122.832 190.439 123.592 190.706 124.592 190.706C124.938 190.706 125.325 190.666 125.752 190.586C126.192 190.492 126.605 190.339 126.992 190.126C127.272 189.966 127.518 189.899 127.732 189.926C127.945 189.939 128.112 190.012 128.232 190.146C128.365 190.279 128.445 190.446 128.472 190.646C128.498 190.832 128.458 191.026 128.352 191.226C128.258 191.426 128.092 191.599 127.852 191.746C127.385 192.039 126.845 192.259 126.232 192.406C125.632 192.539 125.072 192.606 124.552 192.606ZM131.852 192.566C131.438 192.566 131.118 192.459 130.892 192.246C130.678 192.019 130.572 191.699 130.572 191.286V183.726C130.572 183.312 130.678 182.999 130.892 182.786C131.105 182.572 131.405 182.466 131.792 182.466C132.178 182.466 132.478 182.572 132.692 182.786C132.905 182.999 133.012 183.312 133.012 183.726V184.986H132.812C132.998 184.186 133.365 183.579 133.912 183.166C134.458 182.752 135.185 182.506 136.092 182.426C136.372 182.399 136.592 182.472 136.752 182.646C136.925 182.806 137.025 183.059 137.052 183.406C137.078 183.739 136.998 184.012 136.812 184.226C136.638 184.426 136.372 184.546 136.012 184.586L135.572 184.626C134.758 184.706 134.145 184.959 133.732 185.386C133.318 185.799 133.112 186.386 133.112 187.146V191.286C133.112 191.699 133.005 192.019 132.792 192.246C132.578 192.459 132.265 192.566 131.852 192.566ZM145.433 192.406C144.993 192.406 144.653 192.292 144.413 192.066C144.187 191.826 144.073 191.486 144.073 191.046V179.666C144.073 179.226 144.187 178.892 144.413 178.666C144.653 178.426 144.993 178.306 145.433 178.306H152.573C152.907 178.306 153.16 178.392 153.333 178.566C153.52 178.739 153.613 178.986 153.613 179.306C153.613 179.639 153.52 179.899 153.333 180.086C153.16 180.259 152.907 180.346 152.573 180.346H146.533V184.226H152.133C152.48 184.226 152.74 184.312 152.913 184.486C153.087 184.659 153.173 184.912 153.173 185.246C153.173 185.579 153.087 185.832 152.913 186.006C152.74 186.179 152.48 186.266 152.133 186.266H146.533V190.366H152.573C152.907 190.366 153.16 190.452 153.333 190.626C153.52 190.799 153.613 191.052 153.613 191.386C153.613 191.719 153.52 191.972 153.333 192.146C153.16 192.319 152.907 192.406 152.573 192.406H145.433ZM159.107 192.606C158 192.606 157.167 192.292 156.607 191.666C156.047 191.026 155.767 190.092 155.767 188.866V179.406C155.767 178.992 155.874 178.679 156.087 178.466C156.3 178.252 156.607 178.146 157.007 178.146C157.407 178.146 157.714 178.252 157.927 178.466C158.154 178.679 158.267 178.992 158.267 179.406V188.746C158.267 189.359 158.394 189.812 158.647 190.106C158.914 190.399 159.287 190.546 159.767 190.546C159.874 190.546 159.974 190.546 160.067 190.546C160.16 190.532 160.254 190.519 160.347 190.506C160.534 190.479 160.66 190.532 160.727 190.666C160.794 190.786 160.827 191.039 160.827 191.426C160.827 191.759 160.76 192.019 160.627 192.206C160.494 192.392 160.274 192.506 159.967 192.546C159.834 192.559 159.694 192.572 159.547 192.586C159.4 192.599 159.254 192.606 159.107 192.606ZM166.876 192.606C165.769 192.606 164.816 192.399 164.016 191.986C163.216 191.572 162.596 190.986 162.156 190.226C161.729 189.466 161.516 188.566 161.516 187.526C161.516 186.512 161.723 185.626 162.136 184.866C162.563 184.106 163.143 183.512 163.876 183.086C164.623 182.646 165.469 182.426 166.416 182.426C167.109 182.426 167.729 182.539 168.276 182.766C168.836 182.992 169.309 183.319 169.696 183.746C170.096 184.172 170.396 184.692 170.596 185.306C170.809 185.906 170.916 186.586 170.916 187.346C170.916 187.586 170.829 187.772 170.656 187.906C170.496 188.026 170.263 188.086 169.956 188.086H163.536V186.646H169.156L168.836 186.946C168.836 186.332 168.743 185.819 168.556 185.406C168.383 184.992 168.123 184.679 167.776 184.466C167.443 184.239 167.023 184.126 166.516 184.126C165.956 184.126 165.476 184.259 165.076 184.526C164.689 184.779 164.389 185.146 164.176 185.626C163.976 186.092 163.876 186.652 163.876 187.306V187.446C163.876 188.539 164.129 189.359 164.636 189.906C165.156 190.439 165.916 190.706 166.916 190.706C167.263 190.706 167.649 190.666 168.076 190.586C168.516 190.492 168.929 190.339 169.316 190.126C169.596 189.966 169.843 189.899 170.056 189.926C170.269 189.939 170.436 190.012 170.556 190.146C170.689 190.279 170.769 190.446 170.796 190.646C170.823 190.832 170.783 191.026 170.676 191.226C170.583 191.426 170.416 191.599 170.176 191.746C169.709 192.039 169.169 192.259 168.556 192.406C167.956 192.539 167.396 192.606 166.876 192.606ZM177.416 192.606C176.389 192.606 175.496 192.399 174.736 191.986C173.976 191.559 173.389 190.959 172.976 190.186C172.562 189.412 172.356 188.506 172.356 187.466C172.356 186.679 172.469 185.979 172.696 185.366C172.936 184.739 173.276 184.212 173.716 183.786C174.156 183.346 174.689 183.012 175.316 182.786C175.942 182.546 176.642 182.426 177.416 182.426C177.856 182.426 178.329 182.486 178.836 182.606C179.356 182.726 179.842 182.926 180.296 183.206C180.509 183.339 180.649 183.499 180.716 183.686C180.782 183.872 180.796 184.066 180.756 184.266C180.716 184.452 180.629 184.619 180.496 184.766C180.376 184.899 180.222 184.986 180.036 185.026C179.849 185.052 179.642 185.006 179.416 184.886C179.122 184.712 178.822 184.586 178.516 184.506C178.209 184.412 177.916 184.366 177.636 184.366C177.196 184.366 176.809 184.439 176.476 184.586C176.142 184.719 175.856 184.919 175.616 185.186C175.389 185.439 175.216 185.759 175.096 186.146C174.976 186.532 174.916 186.979 174.916 187.486C174.916 188.472 175.149 189.252 175.616 189.826C176.096 190.386 176.769 190.666 177.636 190.666C177.916 190.666 178.202 190.626 178.496 190.546C178.802 190.466 179.109 190.339 179.416 190.166C179.642 190.046 179.842 190.006 180.016 190.046C180.202 190.086 180.356 190.179 180.476 190.326C180.596 190.459 180.669 190.626 180.696 190.826C180.722 191.012 180.696 191.199 180.616 191.386C180.549 191.572 180.416 191.726 180.216 191.846C179.776 192.112 179.309 192.306 178.816 192.426C178.322 192.546 177.856 192.606 177.416 192.606ZM186.848 192.606C185.982 192.606 185.255 192.459 184.668 192.166C184.095 191.872 183.668 191.446 183.388 190.886C183.108 190.312 182.968 189.606 182.968 188.766V184.506H181.928C181.608 184.506 181.362 184.426 181.188 184.266C181.015 184.092 180.928 183.859 180.928 183.566C180.928 183.259 181.015 183.026 181.188 182.866C181.362 182.706 181.608 182.626 181.928 182.626H182.968V180.806C182.968 180.392 183.075 180.079 183.288 179.866C183.515 179.652 183.828 179.546 184.228 179.546C184.628 179.546 184.935 179.652 185.148 179.866C185.362 180.079 185.468 180.392 185.468 180.806V182.626H187.588C187.908 182.626 188.155 182.706 188.328 182.866C188.502 183.026 188.588 183.259 188.588 183.566C188.588 183.859 188.502 184.092 188.328 184.266C188.155 184.426 187.908 184.506 187.588 184.506H185.468V188.626C185.468 189.266 185.608 189.746 185.888 190.066C186.168 190.386 186.622 190.546 187.248 190.546C187.475 190.546 187.675 190.526 187.848 190.486C188.022 190.446 188.175 190.419 188.308 190.406C188.468 190.392 188.602 190.446 188.708 190.566C188.815 190.672 188.868 190.899 188.868 191.246C188.868 191.512 188.822 191.752 188.728 191.966C188.648 192.166 188.495 192.306 188.268 192.386C188.095 192.439 187.868 192.486 187.588 192.526C187.308 192.579 187.062 192.606 186.848 192.606ZM191.324 192.566C190.911 192.566 190.591 192.459 190.364 192.246C190.151 192.019 190.044 191.699 190.044 191.286V183.726C190.044 183.312 190.151 182.999 190.364 182.786C190.578 182.572 190.878 182.466 191.264 182.466C191.651 182.466 191.951 182.572 192.164 182.786C192.378 182.999 192.484 183.312 192.484 183.726V184.986H192.284C192.471 184.186 192.838 183.579 193.384 183.166C193.931 182.752 194.658 182.506 195.564 182.426C195.844 182.399 196.064 182.472 196.224 182.646C196.398 182.806 196.498 183.059 196.524 183.406C196.551 183.739 196.471 184.012 196.284 184.226C196.111 184.426 195.844 184.546 195.484 184.586L195.044 184.626C194.231 184.706 193.618 184.959 193.204 185.386C192.791 185.799 192.584 186.386 192.584 187.146V191.286C192.584 191.699 192.478 192.019 192.264 192.246C192.051 192.459 191.738 192.566 191.324 192.566ZM202.18 192.606C201.167 192.606 200.287 192.399 199.54 191.986C198.793 191.572 198.213 190.986 197.8 190.226C197.387 189.452 197.18 188.546 197.18 187.506C197.18 186.719 197.293 186.019 197.52 185.406C197.76 184.779 198.1 184.246 198.54 183.806C198.98 183.352 199.507 183.012 200.12 182.786C200.733 182.546 201.42 182.426 202.18 182.426C203.193 182.426 204.073 182.632 204.82 183.046C205.567 183.459 206.147 184.046 206.56 184.806C206.973 185.566 207.18 186.466 207.18 187.506C207.18 188.292 207.06 188.999 206.82 189.626C206.593 190.252 206.26 190.792 205.82 191.246C205.38 191.686 204.853 192.026 204.24 192.266C203.627 192.492 202.94 192.606 202.18 192.606ZM202.18 190.706C202.673 190.706 203.107 190.586 203.48 190.346C203.853 190.106 204.14 189.752 204.34 189.286C204.553 188.806 204.66 188.212 204.66 187.506C204.66 186.439 204.433 185.646 203.98 185.126C203.527 184.592 202.927 184.326 202.18 184.326C201.687 184.326 201.253 184.446 200.88 184.686C200.507 184.912 200.213 185.266 200 185.746C199.8 186.212 199.7 186.799 199.7 187.506C199.7 188.559 199.927 189.359 200.38 189.906C200.833 190.439 201.433 190.706 202.18 190.706ZM210.483 192.566C210.083 192.566 209.777 192.459 209.563 192.246C209.35 192.019 209.243 191.699 209.243 191.286V183.726C209.243 183.312 209.35 182.999 209.563 182.786C209.777 182.572 210.077 182.466 210.463 182.466C210.85 182.466 211.15 182.572 211.363 182.786C211.577 182.999 211.683 183.312 211.683 183.726V185.086L211.463 184.586C211.757 183.879 212.21 183.346 212.823 182.986C213.45 182.612 214.157 182.426 214.943 182.426C215.73 182.426 216.377 182.572 216.883 182.866C217.39 183.159 217.77 183.606 218.023 184.206C218.277 184.792 218.403 185.539 218.403 186.446V191.286C218.403 191.699 218.297 192.019 218.083 192.246C217.87 192.459 217.563 192.566 217.163 192.566C216.763 192.566 216.45 192.459 216.223 192.246C216.01 192.019 215.903 191.699 215.903 191.286V186.566C215.903 185.806 215.757 185.252 215.463 184.906C215.183 184.559 214.743 184.386 214.143 184.386C213.41 184.386 212.823 184.619 212.383 185.086C211.957 185.539 211.743 186.146 211.743 186.906V191.286C211.743 192.139 211.323 192.566 210.483 192.566ZM222.183 192.546C221.783 192.546 221.476 192.426 221.263 192.186C221.049 191.946 220.943 191.612 220.943 191.186V183.846C220.943 183.406 221.049 183.072 221.263 182.846C221.476 182.606 221.783 182.486 222.183 182.486C222.583 182.486 222.889 182.606 223.103 182.846C223.329 183.072 223.443 183.406 223.443 183.846V191.186C223.443 191.612 223.336 191.946 223.123 192.186C222.909 192.426 222.596 192.546 222.183 192.546ZM222.183 180.626C221.716 180.626 221.349 180.512 221.083 180.286C220.829 180.046 220.703 179.719 220.703 179.306C220.703 178.879 220.829 178.552 221.083 178.326C221.349 178.099 221.716 177.986 222.183 177.986C222.663 177.986 223.029 178.099 223.283 178.326C223.536 178.552 223.663 178.879 223.663 179.306C223.663 179.719 223.536 180.046 223.283 180.286C223.029 180.512 222.663 180.626 222.183 180.626ZM230.56 192.606C229.534 192.606 228.64 192.399 227.88 191.986C227.12 191.559 226.534 190.959 226.12 190.186C225.707 189.412 225.5 188.506 225.5 187.466C225.5 186.679 225.614 185.979 225.84 185.366C226.08 184.739 226.42 184.212 226.86 183.786C227.3 183.346 227.834 183.012 228.46 182.786C229.087 182.546 229.787 182.426 230.56 182.426C231 182.426 231.474 182.486 231.98 182.606C232.5 182.726 232.987 182.926 233.44 183.206C233.654 183.339 233.794 183.499 233.86 183.686C233.927 183.872 233.94 184.066 233.9 184.266C233.86 184.452 233.774 184.619 233.64 184.766C233.52 184.899 233.367 184.986 233.18 185.026C232.994 185.052 232.787 185.006 232.56 184.886C232.267 184.712 231.967 184.586 231.66 184.506C231.354 184.412 231.06 184.366 230.78 184.366C230.34 184.366 229.954 184.439 229.62 184.586C229.287 184.719 229 184.919 228.76 185.186C228.534 185.439 228.36 185.759 228.24 186.146C228.12 186.532 228.06 186.979 228.06 187.486C228.06 188.472 228.294 189.252 228.76 189.826C229.24 190.386 229.914 190.666 230.78 190.666C231.06 190.666 231.347 190.626 231.64 190.546C231.947 190.466 232.254 190.339 232.56 190.166C232.787 190.046 232.987 190.006 233.16 190.046C233.347 190.086 233.5 190.179 233.62 190.326C233.74 190.459 233.814 190.626 233.84 190.826C233.867 191.012 233.84 191.199 233.76 191.386C233.694 191.572 233.56 191.726 233.36 191.846C232.92 192.112 232.454 192.306 231.96 192.426C231.467 192.546 231 192.606 230.56 192.606ZM239.054 192.606C238.481 192.606 237.874 192.546 237.234 192.426C236.594 192.306 236.021 192.099 235.514 191.806C235.301 191.672 235.147 191.519 235.054 191.346C234.974 191.159 234.941 190.979 234.954 190.806C234.981 190.619 235.047 190.459 235.154 190.326C235.274 190.192 235.421 190.106 235.594 190.066C235.781 190.026 235.981 190.059 236.194 190.166C236.727 190.419 237.227 190.599 237.694 190.706C238.161 190.799 238.621 190.846 239.074 190.846C239.714 190.846 240.187 190.739 240.494 190.526C240.814 190.299 240.974 190.006 240.974 189.646C240.974 189.339 240.867 189.106 240.654 188.946C240.454 188.772 240.147 188.646 239.734 188.566L237.734 188.186C236.907 188.026 236.274 187.726 235.834 187.286C235.407 186.832 235.194 186.252 235.194 185.546C235.194 184.906 235.367 184.352 235.714 183.886C236.074 183.419 236.567 183.059 237.194 182.806C237.821 182.552 238.541 182.426 239.354 182.426C239.941 182.426 240.487 182.492 240.994 182.626C241.514 182.746 242.014 182.939 242.494 183.206C242.694 183.312 242.827 183.452 242.894 183.626C242.974 183.799 242.994 183.979 242.954 184.166C242.914 184.339 242.834 184.499 242.714 184.646C242.594 184.779 242.441 184.866 242.254 184.906C242.081 184.932 241.881 184.892 241.654 184.786C241.241 184.572 240.841 184.419 240.454 184.326C240.081 184.232 239.721 184.186 239.374 184.186C238.721 184.186 238.234 184.299 237.914 184.526C237.607 184.752 237.454 185.052 237.454 185.426C237.454 185.706 237.547 185.939 237.734 186.126C237.921 186.312 238.207 186.439 238.594 186.506L240.594 186.886C241.461 187.046 242.114 187.339 242.554 187.766C243.007 188.192 243.234 188.766 243.234 189.486C243.234 190.459 242.854 191.226 242.094 191.786C241.334 192.332 240.321 192.606 239.054 192.606Z" fill="#212D4D"/>
<path d="M44.6217 220.406V210.466H45.8817V219.286H51.4257V220.406H44.6217ZM55.6841 220.546C55.1334 220.546 54.6341 220.448 54.1861 220.252C53.7381 220.046 53.3508 219.771 53.0241 219.426C52.6974 219.071 52.4454 218.665 52.2681 218.208C52.0908 217.75 52.0021 217.27 52.0021 216.766C52.0021 216.252 52.0908 215.767 52.2681 215.31C52.4454 214.852 52.6974 214.451 53.0241 214.106C53.3508 213.751 53.7381 213.476 54.1861 213.28C54.6434 213.074 55.1428 212.972 55.6841 212.972C56.2348 212.972 56.7341 213.074 57.1821 213.28C57.6301 213.476 58.0174 213.751 58.3441 214.106C58.6801 214.451 58.9368 214.852 59.1141 215.31C59.2914 215.767 59.3801 216.252 59.3801 216.766C59.3801 217.27 59.2914 217.75 59.1141 218.208C58.9368 218.665 58.6848 219.071 58.3581 219.426C58.0314 219.771 57.6394 220.046 57.1821 220.252C56.7341 220.448 56.2348 220.546 55.6841 220.546ZM53.2621 216.78C53.2621 217.284 53.3694 217.741 53.5841 218.152C53.8081 218.562 54.1021 218.889 54.4661 219.132C54.8301 219.365 55.2361 219.482 55.6841 219.482C56.1321 219.482 56.5381 219.36 56.9021 219.118C57.2754 218.875 57.5694 218.548 57.7841 218.138C58.0081 217.718 58.1201 217.256 58.1201 216.752C58.1201 216.248 58.0081 215.79 57.7841 215.38C57.5694 214.969 57.2754 214.642 56.9021 214.4C56.5381 214.157 56.1321 214.036 55.6841 214.036C55.2361 214.036 54.8301 214.162 54.4661 214.414C54.1021 214.656 53.8081 214.983 53.5841 215.394C53.3694 215.804 53.2621 216.266 53.2621 216.78ZM64.737 214.176C64.121 214.185 63.575 214.344 63.099 214.652C62.6323 214.95 62.301 215.366 62.105 215.898V220.406H60.873V213.098H62.021V214.792C62.273 214.288 62.6043 213.882 63.015 213.574C63.435 213.256 63.8736 213.079 64.331 213.042C64.4243 213.042 64.5036 213.042 64.569 213.042C64.6343 213.042 64.6903 213.046 64.737 213.056V214.176ZM69.0152 220.546C68.4645 220.546 67.9605 220.448 67.5032 220.252C67.0552 220.046 66.6632 219.771 66.3272 219.426C66.0005 219.071 65.7438 218.665 65.5572 218.208C65.3798 217.75 65.2912 217.265 65.2912 216.752C65.2912 216.061 65.4498 215.431 65.7672 214.862C66.0845 214.292 66.5232 213.835 67.0832 213.49C67.6525 213.144 68.3012 212.972 69.0292 212.972C69.7665 212.972 70.4058 213.149 70.9472 213.504C71.4978 213.849 71.9225 214.306 72.2212 214.876C72.5292 215.436 72.6832 216.042 72.6832 216.696C72.6832 216.789 72.6785 216.882 72.6692 216.976C72.6692 217.06 72.6645 217.125 72.6552 217.172H66.5932C66.6305 217.648 66.7612 218.072 66.9852 218.446C67.2185 218.81 67.5172 219.099 67.8812 219.314C68.2452 219.519 68.6372 219.622 69.0572 219.622C69.5052 219.622 69.9252 219.51 70.3172 219.286C70.7185 219.062 70.9938 218.768 71.1432 218.404L72.2072 218.698C72.0485 219.052 71.8105 219.37 71.4932 219.65C71.1852 219.93 70.8165 220.149 70.3872 220.308C69.9672 220.466 69.5098 220.546 69.0152 220.546ZM66.5512 216.318H71.5352C71.4978 215.842 71.3625 215.422 71.1292 215.058C70.8958 214.694 70.5972 214.409 70.2332 214.204C69.8692 213.998 69.4678 213.896 69.0292 213.896C68.5998 213.896 68.2032 213.998 67.8392 214.204C67.4752 214.409 67.1765 214.694 66.9432 215.058C66.7192 215.422 66.5885 215.842 66.5512 216.318ZM85.0707 220.406H83.8387V216.318C83.8387 215.552 83.7127 214.988 83.4607 214.624C83.218 214.26 82.854 214.078 82.3687 214.078C81.874 214.078 81.426 214.26 81.0247 214.624C80.6233 214.978 80.3387 215.44 80.1707 216.01V220.406H78.9387V216.318C78.9387 215.543 78.8173 214.978 78.5747 214.624C78.332 214.26 77.968 214.078 77.4827 214.078C76.9973 214.078 76.5493 214.255 76.1387 214.61C75.7373 214.955 75.4527 215.417 75.2847 215.996V220.406H74.0527V213.098H75.1727V214.666C75.4713 214.124 75.8587 213.709 76.3347 213.42C76.8107 213.121 77.3473 212.972 77.9447 212.972C78.5513 212.972 79.0367 213.14 79.4007 213.476C79.7647 213.802 79.9887 214.227 80.0727 214.75C80.3993 214.171 80.796 213.732 81.2627 213.434C81.7293 213.126 82.2613 212.972 82.8587 212.972C83.2787 212.972 83.6287 213.051 83.9087 213.21C84.198 213.359 84.4267 213.574 84.5947 213.854C84.7627 214.124 84.884 214.446 84.9587 214.82C85.0333 215.193 85.0707 215.599 85.0707 216.038V220.406ZM90.5273 220.406V213.098H91.7593V220.406H90.5273ZM90.5273 211.726V210.186H91.7593V211.726H90.5273ZM97.6878 220.546C97.0905 220.546 96.5585 220.396 96.0918 220.098C95.6252 219.799 95.2565 219.421 94.9858 218.964V223.388H93.7538V213.098H94.8458V214.47C95.1352 214.022 95.5132 213.662 95.9798 213.392C96.4465 213.112 96.9552 212.972 97.5058 212.972C98.0098 212.972 98.4718 213.074 98.8918 213.28C99.3118 213.485 99.6758 213.765 99.9838 214.12C100.292 214.474 100.53 214.88 100.698 215.338C100.875 215.786 100.964 216.257 100.964 216.752C100.964 217.442 100.824 218.077 100.544 218.656C100.273 219.234 99.8905 219.696 99.3958 220.042C98.9012 220.378 98.3318 220.546 97.6878 220.546ZM97.3098 219.482C97.6738 219.482 98.0005 219.407 98.2898 219.258C98.5885 219.099 98.8405 218.894 99.0458 218.642C99.2605 218.38 99.4238 218.086 99.5358 217.76C99.6478 217.433 99.7038 217.097 99.7038 216.752C99.7038 216.388 99.6385 216.042 99.5078 215.716C99.3865 215.389 99.2092 215.1 98.9758 214.848C98.7518 214.596 98.4858 214.4 98.1778 214.26C97.8792 214.11 97.5525 214.036 97.1978 214.036C96.9738 214.036 96.7405 214.078 96.4978 214.162C96.2645 214.246 96.0405 214.367 95.8258 214.526C95.6112 214.675 95.4292 214.848 95.2798 215.044C95.1305 215.24 95.0325 215.45 94.9858 215.674V217.76C95.1258 218.077 95.3125 218.366 95.5458 218.628C95.7792 218.889 96.0498 219.099 96.3578 219.258C96.6658 219.407 96.9832 219.482 97.3098 219.482ZM104.982 220.546C104.376 220.546 103.806 220.448 103.274 220.252C102.742 220.046 102.285 219.743 101.902 219.342L102.378 218.474C102.798 218.866 103.218 219.146 103.638 219.314C104.058 219.482 104.488 219.566 104.926 219.566C105.43 219.566 105.841 219.472 106.158 219.286C106.476 219.09 106.634 218.805 106.634 218.432C106.634 218.161 106.55 217.96 106.382 217.83C106.224 217.699 105.995 217.592 105.696 217.508C105.398 217.414 105.043 217.312 104.632 217.2C104.128 217.05 103.704 216.892 103.358 216.724C103.013 216.556 102.752 216.346 102.574 216.094C102.397 215.842 102.308 215.524 102.308 215.142C102.308 214.675 102.43 214.283 102.672 213.966C102.915 213.639 103.246 213.392 103.666 213.224C104.096 213.056 104.581 212.972 105.122 212.972C105.664 212.972 106.154 213.056 106.592 213.224C107.031 213.392 107.409 213.639 107.726 213.966L107.166 214.82C106.877 214.521 106.56 214.302 106.214 214.162C105.869 214.012 105.482 213.938 105.052 213.938C104.8 213.938 104.553 213.97 104.31 214.036C104.068 214.092 103.867 214.199 103.708 214.358C103.55 214.507 103.47 214.722 103.47 215.002C103.47 215.235 103.531 215.422 103.652 215.562C103.783 215.692 103.97 215.804 104.212 215.898C104.464 215.991 104.768 216.094 105.122 216.206C105.673 216.364 106.149 216.523 106.55 216.682C106.961 216.84 107.278 217.046 107.502 217.298C107.726 217.55 107.838 217.9 107.838 218.348C107.838 219.038 107.577 219.58 107.054 219.972C106.532 220.354 105.841 220.546 104.982 220.546ZM109.242 217.48V213.098H110.474V217.242C110.474 217.988 110.605 218.548 110.866 218.922C111.128 219.295 111.515 219.482 112.028 219.482C112.364 219.482 112.686 219.412 112.994 219.272C113.312 219.122 113.596 218.912 113.848 218.642C114.1 218.371 114.296 218.049 114.436 217.676V213.098H115.668V219.006C115.668 219.155 115.696 219.267 115.752 219.342C115.818 219.407 115.92 219.444 116.06 219.454V220.406C115.92 220.424 115.808 220.434 115.724 220.434C115.65 220.443 115.575 220.448 115.5 220.448C115.267 220.448 115.066 220.378 114.898 220.238C114.73 220.088 114.642 219.906 114.632 219.692L114.604 218.838C114.287 219.379 113.858 219.799 113.316 220.098C112.784 220.396 112.201 220.546 111.566 220.546C110.801 220.546 110.222 220.289 109.83 219.776C109.438 219.253 109.242 218.488 109.242 217.48ZM128.739 220.406H127.507V216.318C127.507 215.552 127.381 214.988 127.129 214.624C126.886 214.26 126.522 214.078 126.037 214.078C125.542 214.078 125.094 214.26 124.693 214.624C124.291 214.978 124.007 215.44 123.839 216.01V220.406H122.607V216.318C122.607 215.543 122.485 214.978 122.243 214.624C122 214.26 121.636 214.078 121.151 214.078C120.665 214.078 120.217 214.255 119.807 214.61C119.405 214.955 119.121 215.417 118.953 215.996V220.406H117.721V213.098H118.841V214.666C119.139 214.124 119.527 213.709 120.003 213.42C120.479 213.121 121.015 212.972 121.613 212.972C122.219 212.972 122.705 213.14 123.069 213.476C123.433 213.802 123.657 214.227 123.741 214.75C124.067 214.171 124.464 213.732 124.931 213.434C125.397 213.126 125.929 212.972 126.527 212.972C126.947 212.972 127.297 213.051 127.577 213.21C127.866 213.359 128.095 213.574 128.263 213.854C128.431 214.124 128.552 214.446 128.627 214.82C128.701 215.193 128.739 215.599 128.739 216.038V220.406ZM133.719 216.766C133.719 216.075 133.859 215.445 134.139 214.876C134.429 214.297 134.821 213.835 135.315 213.49C135.819 213.144 136.393 212.972 137.037 212.972C137.625 212.972 138.153 213.126 138.619 213.434C139.086 213.742 139.45 214.115 139.711 214.554V210.186H140.943V219.006C140.943 219.155 140.971 219.267 141.027 219.342C141.093 219.407 141.195 219.444 141.335 219.454V220.406C141.102 220.443 140.92 220.462 140.789 220.462C140.547 220.462 140.332 220.378 140.145 220.21C139.968 220.042 139.879 219.855 139.879 219.65V219.034C139.59 219.5 139.203 219.869 138.717 220.14C138.232 220.41 137.728 220.546 137.205 220.546C136.701 220.546 136.235 220.448 135.805 220.252C135.385 220.046 135.017 219.766 134.699 219.412C134.391 219.057 134.149 218.656 133.971 218.208C133.803 217.75 133.719 217.27 133.719 216.766ZM139.711 217.844V215.744C139.599 215.426 139.417 215.142 139.165 214.89C138.913 214.628 138.629 214.423 138.311 214.274C138.003 214.115 137.695 214.036 137.387 214.036C137.023 214.036 136.692 214.115 136.393 214.274C136.104 214.423 135.852 214.628 135.637 214.89C135.432 215.142 135.273 215.431 135.161 215.758C135.049 216.084 134.993 216.425 134.993 216.78C134.993 217.144 135.054 217.489 135.175 217.816C135.306 218.142 135.483 218.432 135.707 218.684C135.941 218.936 136.207 219.132 136.505 219.272C136.813 219.412 137.145 219.482 137.499 219.482C137.723 219.482 137.952 219.44 138.185 219.356C138.428 219.272 138.657 219.155 138.871 219.006C139.086 218.856 139.268 218.684 139.417 218.488C139.567 218.282 139.665 218.068 139.711 217.844ZM146.192 220.546C145.641 220.546 145.142 220.448 144.694 220.252C144.246 220.046 143.859 219.771 143.532 219.426C143.205 219.071 142.953 218.665 142.776 218.208C142.599 217.75 142.51 217.27 142.51 216.766C142.51 216.252 142.599 215.767 142.776 215.31C142.953 214.852 143.205 214.451 143.532 214.106C143.859 213.751 144.246 213.476 144.694 213.28C145.151 213.074 145.651 212.972 146.192 212.972C146.743 212.972 147.242 213.074 147.69 213.28C148.138 213.476 148.525 213.751 148.852 214.106C149.188 214.451 149.445 214.852 149.622 215.31C149.799 215.767 149.888 216.252 149.888 216.766C149.888 217.27 149.799 217.75 149.622 218.208C149.445 218.665 149.193 219.071 148.866 219.426C148.539 219.771 148.147 220.046 147.69 220.252C147.242 220.448 146.743 220.546 146.192 220.546ZM143.77 216.78C143.77 217.284 143.877 217.741 144.092 218.152C144.316 218.562 144.61 218.889 144.974 219.132C145.338 219.365 145.744 219.482 146.192 219.482C146.64 219.482 147.046 219.36 147.41 219.118C147.783 218.875 148.077 218.548 148.292 218.138C148.516 217.718 148.628 217.256 148.628 216.752C148.628 216.248 148.516 215.79 148.292 215.38C148.077 214.969 147.783 214.642 147.41 214.4C147.046 214.157 146.64 214.036 146.192 214.036C145.744 214.036 145.338 214.162 144.974 214.414C144.61 214.656 144.316 214.983 144.092 215.394C143.877 215.804 143.77 216.266 143.77 216.78ZM151.409 210.186H152.641V218.516C152.641 218.917 152.697 219.164 152.809 219.258C152.921 219.351 153.056 219.398 153.215 219.398C153.411 219.398 153.597 219.379 153.775 219.342C153.952 219.295 154.101 219.248 154.223 219.202L154.419 220.21C154.213 220.294 153.971 220.364 153.691 220.42C153.411 220.476 153.163 220.504 152.949 220.504C152.473 220.504 152.095 220.368 151.815 220.098C151.544 219.827 151.409 219.449 151.409 218.964V210.186ZM158.579 220.546C158.028 220.546 157.529 220.448 157.081 220.252C156.633 220.046 156.245 219.771 155.919 219.426C155.592 219.071 155.34 218.665 155.163 218.208C154.985 217.75 154.897 217.27 154.897 216.766C154.897 216.252 154.985 215.767 155.163 215.31C155.34 214.852 155.592 214.451 155.919 214.106C156.245 213.751 156.633 213.476 157.081 213.28C157.538 213.074 158.037 212.972 158.579 212.972C159.129 212.972 159.629 213.074 160.077 213.28C160.525 213.476 160.912 213.751 161.239 214.106C161.575 214.451 161.831 214.852 162.009 215.31C162.186 215.767 162.275 216.252 162.275 216.766C162.275 217.27 162.186 217.75 162.009 218.208C161.831 218.665 161.579 219.071 161.253 219.426C160.926 219.771 160.534 220.046 160.077 220.252C159.629 220.448 159.129 220.546 158.579 220.546ZM156.157 216.78C156.157 217.284 156.264 217.741 156.479 218.152C156.703 218.562 156.997 218.889 157.361 219.132C157.725 219.365 158.131 219.482 158.579 219.482C159.027 219.482 159.433 219.36 159.797 219.118C160.17 218.875 160.464 218.548 160.679 218.138C160.903 217.718 161.015 217.256 161.015 216.752C161.015 216.248 160.903 215.79 160.679 215.38C160.464 214.969 160.17 214.642 159.797 214.4C159.433 214.157 159.027 214.036 158.579 214.036C158.131 214.036 157.725 214.162 157.361 214.414C156.997 214.656 156.703 214.983 156.479 215.394C156.264 215.804 156.157 216.266 156.157 216.78ZM167.631 214.176C167.015 214.185 166.469 214.344 165.993 214.652C165.527 214.95 165.195 215.366 164.999 215.898V220.406H163.767V213.098H164.915V214.792C165.167 214.288 165.499 213.882 165.909 213.574C166.329 213.256 166.768 213.079 167.225 213.042C167.319 213.042 167.398 213.042 167.463 213.042C167.529 213.042 167.585 213.046 167.631 213.056V214.176ZM174.572 220.546C173.966 220.546 173.396 220.448 172.864 220.252C172.332 220.046 171.875 219.743 171.492 219.342L171.968 218.474C172.388 218.866 172.808 219.146 173.228 219.314C173.648 219.482 174.078 219.566 174.516 219.566C175.02 219.566 175.431 219.472 175.748 219.286C176.066 219.09 176.224 218.805 176.224 218.432C176.224 218.161 176.14 217.96 175.972 217.83C175.814 217.699 175.585 217.592 175.286 217.508C174.988 217.414 174.633 217.312 174.222 217.2C173.718 217.05 173.294 216.892 172.948 216.724C172.603 216.556 172.342 216.346 172.164 216.094C171.987 215.842 171.898 215.524 171.898 215.142C171.898 214.675 172.02 214.283 172.262 213.966C172.505 213.639 172.836 213.392 173.256 213.224C173.686 213.056 174.171 212.972 174.712 212.972C175.254 212.972 175.744 213.056 176.182 213.224C176.621 213.392 176.999 213.639 177.316 213.966L176.756 214.82C176.467 214.521 176.15 214.302 175.804 214.162C175.459 214.012 175.072 213.938 174.642 213.938C174.39 213.938 174.143 213.97 173.9 214.036C173.658 214.092 173.457 214.199 173.298 214.358C173.14 214.507 173.06 214.722 173.06 215.002C173.06 215.235 173.121 215.422 173.242 215.562C173.373 215.692 173.56 215.804 173.802 215.898C174.054 215.991 174.358 216.094 174.712 216.206C175.263 216.364 175.739 216.523 176.14 216.682C176.551 216.84 176.868 217.046 177.092 217.298C177.316 217.55 177.428 217.9 177.428 218.348C177.428 219.038 177.167 219.58 176.644 219.972C176.122 220.354 175.431 220.546 174.572 220.546ZM178.902 220.406V213.098H180.134V220.406H178.902ZM178.902 211.726V210.186H180.134V211.726H178.902ZM185.909 220.042C185.806 220.088 185.666 220.149 185.489 220.224C185.311 220.298 185.106 220.364 184.873 220.42C184.639 220.476 184.392 220.504 184.131 220.504C183.832 220.504 183.557 220.452 183.305 220.35C183.053 220.238 182.852 220.07 182.703 219.846C182.553 219.612 182.479 219.323 182.479 218.978V214.064H181.485V213.098H182.479V210.662H183.711V213.098H185.349V214.064H183.711V218.6C183.729 218.861 183.818 219.057 183.977 219.188C184.135 219.309 184.322 219.37 184.537 219.37C184.779 219.37 185.003 219.328 185.209 219.244C185.414 219.16 185.549 219.099 185.615 219.062L185.909 220.042ZM190.018 218.292C190.018 217.825 190.148 217.424 190.41 217.088C190.68 216.742 191.049 216.476 191.516 216.29C191.982 216.103 192.524 216.01 193.14 216.01C193.466 216.01 193.812 216.038 194.176 216.094C194.54 216.14 194.862 216.215 195.142 216.318V215.786C195.142 215.226 194.974 214.787 194.638 214.47C194.302 214.143 193.826 213.98 193.21 213.98C192.808 213.98 192.421 214.054 192.048 214.204C191.684 214.344 191.296 214.549 190.886 214.82L190.438 213.952C190.914 213.625 191.39 213.382 191.866 213.224C192.342 213.056 192.836 212.972 193.35 212.972C194.283 212.972 195.02 213.233 195.562 213.756C196.103 214.269 196.374 214.988 196.374 215.912V219.006C196.374 219.155 196.402 219.267 196.458 219.342C196.523 219.407 196.626 219.444 196.766 219.454V220.406C196.644 220.424 196.537 220.438 196.444 220.448C196.36 220.457 196.29 220.462 196.234 220.462C195.944 220.462 195.725 220.382 195.576 220.224C195.436 220.065 195.356 219.897 195.338 219.72L195.31 219.258C194.992 219.668 194.577 219.986 194.064 220.21C193.55 220.434 193.042 220.546 192.538 220.546C192.052 220.546 191.618 220.448 191.236 220.252C190.853 220.046 190.554 219.776 190.34 219.44C190.125 219.094 190.018 218.712 190.018 218.292ZM194.778 218.81C194.89 218.679 194.978 218.548 195.044 218.418C195.109 218.278 195.142 218.161 195.142 218.068V217.158C194.852 217.046 194.549 216.962 194.232 216.906C193.914 216.84 193.602 216.808 193.294 216.808C192.668 216.808 192.16 216.934 191.768 217.186C191.385 217.428 191.194 217.764 191.194 218.194C191.194 218.427 191.254 218.656 191.376 218.88C191.506 219.094 191.693 219.272 191.936 219.412C192.188 219.552 192.496 219.622 192.86 219.622C193.242 219.622 193.606 219.547 193.952 219.398C194.297 219.239 194.572 219.043 194.778 218.81ZM209.362 220.406H208.13V216.318C208.13 215.552 208.004 214.988 207.752 214.624C207.509 214.26 207.145 214.078 206.66 214.078C206.165 214.078 205.717 214.26 205.316 214.624C204.914 214.978 204.63 215.44 204.462 216.01V220.406H203.23V216.318C203.23 215.543 203.108 214.978 202.866 214.624C202.623 214.26 202.259 214.078 201.774 214.078C201.288 214.078 200.84 214.255 200.43 214.61C200.028 214.955 199.744 215.417 199.576 215.996V220.406H198.344V213.098H199.464V214.666C199.762 214.124 200.15 213.709 200.626 213.42C201.102 213.121 201.638 212.972 202.236 212.972C202.842 212.972 203.328 213.14 203.692 213.476C204.056 213.802 204.28 214.227 204.364 214.75C204.69 214.171 205.087 213.732 205.554 213.434C206.02 213.126 206.552 212.972 207.15 212.972C207.57 212.972 207.92 213.051 208.2 213.21C208.489 213.359 208.718 213.574 208.886 213.854C209.054 214.124 209.175 214.446 209.25 214.82C209.324 215.193 209.362 215.599 209.362 216.038V220.406ZM214.511 220.546C213.961 220.546 213.457 220.448 212.999 220.252C212.551 220.046 212.159 219.771 211.823 219.426C211.497 219.071 211.24 218.665 211.053 218.208C210.876 217.75 210.787 217.265 210.787 216.752C210.787 216.061 210.946 215.431 211.263 214.862C211.581 214.292 212.019 213.835 212.579 213.49C213.149 213.144 213.797 212.972 214.525 212.972C215.263 212.972 215.902 213.149 216.443 213.504C216.994 213.849 217.419 214.306 217.717 214.876C218.025 215.436 218.179 216.042 218.179 216.696C218.179 216.789 218.175 216.882 218.165 216.976C218.165 217.06 218.161 217.125 218.151 217.172H212.089C212.127 217.648 212.257 218.072 212.481 218.446C212.715 218.81 213.013 219.099 213.377 219.314C213.741 219.519 214.133 219.622 214.553 219.622C215.001 219.622 215.421 219.51 215.813 219.286C216.215 219.062 216.49 218.768 216.639 218.404L217.703 218.698C217.545 219.052 217.307 219.37 216.989 219.65C216.681 219.93 216.313 220.149 215.883 220.308C215.463 220.466 215.006 220.546 214.511 220.546ZM212.047 216.318H217.031C216.994 215.842 216.859 215.422 216.625 215.058C216.392 214.694 216.093 214.409 215.729 214.204C215.365 213.998 214.964 213.896 214.525 213.896C214.096 213.896 213.699 213.998 213.335 214.204C212.971 214.409 212.673 214.694 212.439 215.058C212.215 215.422 212.085 215.842 212.047 216.318ZM223.26 220.042C223.158 220.088 223.018 220.149 222.84 220.224C222.663 220.298 222.458 220.364 222.224 220.42C221.991 220.476 221.744 220.504 221.482 220.504C221.184 220.504 220.908 220.452 220.656 220.35C220.404 220.238 220.204 220.07 220.054 219.846C219.905 219.612 219.83 219.323 219.83 218.978V214.064H218.836V213.098H219.83V210.662H221.062V213.098H222.7V214.064H221.062V218.6C221.081 218.861 221.17 219.057 221.328 219.188C221.487 219.309 221.674 219.37 221.888 219.37C222.131 219.37 222.355 219.328 222.56 219.244C222.766 219.16 222.901 219.099 222.966 219.062L223.26 220.042ZM224.444 221.54L224.724 220.294H224.304V218.838H225.466V220.294L225.046 221.54H224.444ZM47.6597 241.546C47.109 241.546 46.605 241.448 46.1477 241.252C45.6997 241.046 45.3077 240.766 44.9717 240.412C44.645 240.057 44.3884 239.651 44.2017 239.194C44.0244 238.736 43.9357 238.251 43.9357 237.738C43.9357 237.047 44.0897 236.417 44.3977 235.848C44.7057 235.278 45.1397 234.826 45.6997 234.49C46.2597 234.144 46.9084 233.972 47.6457 233.972C48.3644 233.972 48.9897 234.135 49.5217 234.462C50.063 234.779 50.4644 235.208 50.7257 235.75L49.5217 236.128C49.335 235.782 49.0737 235.516 48.7377 235.33C48.4017 235.134 48.0284 235.036 47.6177 235.036C47.1697 235.036 46.759 235.152 46.3857 235.386C46.0217 235.619 45.7324 235.941 45.5177 236.352C45.303 236.753 45.1957 237.215 45.1957 237.738C45.1957 238.251 45.303 238.718 45.5177 239.138C45.7417 239.548 46.0357 239.875 46.3997 240.118C46.773 240.36 47.1837 240.482 47.6317 240.482C47.921 240.482 48.1964 240.43 48.4577 240.328C48.7284 240.225 48.9617 240.09 49.1577 239.922C49.363 239.744 49.503 239.553 49.5777 239.348L50.7817 239.712C50.6324 240.066 50.4037 240.384 50.0957 240.664C49.797 240.934 49.4377 241.149 49.0177 241.308C48.607 241.466 48.1544 241.546 47.6597 241.546ZM55.3013 241.546C54.7506 241.546 54.2513 241.448 53.8033 241.252C53.3553 241.046 52.968 240.771 52.6413 240.426C52.3146 240.071 52.0626 239.665 51.8853 239.208C51.708 238.75 51.6193 238.27 51.6193 237.766C51.6193 237.252 51.708 236.767 51.8853 236.31C52.0626 235.852 52.3146 235.451 52.6413 235.106C52.968 234.751 53.3553 234.476 53.8033 234.28C54.2606 234.074 54.76 233.972 55.3013 233.972C55.852 233.972 56.3513 234.074 56.7993 234.28C57.2473 234.476 57.6346 234.751 57.9613 235.106C58.2973 235.451 58.554 235.852 58.7313 236.31C58.9086 236.767 58.9973 237.252 58.9973 237.766C58.9973 238.27 58.9086 238.75 58.7313 239.208C58.554 239.665 58.302 240.071 57.9753 240.426C57.6486 240.771 57.2566 241.046 56.7993 241.252C56.3513 241.448 55.852 241.546 55.3013 241.546ZM52.8793 237.78C52.8793 238.284 52.9866 238.741 53.2013 239.152C53.4253 239.562 53.7193 239.889 54.0833 240.132C54.4473 240.365 54.8533 240.482 55.3013 240.482C55.7493 240.482 56.1553 240.36 56.5193 240.118C56.8926 239.875 57.1866 239.548 57.4013 239.138C57.6253 238.718 57.7373 238.256 57.7373 237.752C57.7373 237.248 57.6253 236.79 57.4013 236.38C57.1866 235.969 56.8926 235.642 56.5193 235.4C56.1553 235.157 55.7493 235.036 55.3013 235.036C54.8533 235.036 54.4473 235.162 54.0833 235.414C53.7193 235.656 53.4253 235.983 53.2013 236.394C52.9866 236.804 52.8793 237.266 52.8793 237.78ZM66.8322 241.406H65.6002V237.318C65.6002 236.543 65.4788 235.978 65.2362 235.624C65.0028 235.26 64.6435 235.078 64.1582 235.078C63.8222 235.078 63.4862 235.162 63.1502 235.33C62.8235 235.498 62.5295 235.726 62.2682 236.016C62.0162 236.296 61.8342 236.622 61.7222 236.996V241.406H60.4902V234.098H61.6102V235.666C61.8062 235.32 62.0582 235.022 62.3662 234.77C62.6742 234.518 63.0242 234.322 63.4162 234.182C63.8082 234.042 64.2188 233.972 64.6482 233.972C65.0682 233.972 65.4182 234.051 65.6982 234.21C65.9875 234.359 66.2115 234.574 66.3702 234.854C66.5382 235.124 66.6548 235.446 66.7202 235.82C66.7948 236.193 66.8322 236.599 66.8322 237.038V241.406ZM71.254 241.546C70.6473 241.546 70.078 241.448 69.546 241.252C69.014 241.046 68.5566 240.743 68.174 240.342L68.65 239.474C69.07 239.866 69.49 240.146 69.91 240.314C70.33 240.482 70.7593 240.566 71.198 240.566C71.702 240.566 72.1126 240.472 72.43 240.286C72.7473 240.09 72.906 239.805 72.906 239.432C72.906 239.161 72.822 238.96 72.654 238.83C72.4953 238.699 72.2666 238.592 71.968 238.508C71.6693 238.414 71.3146 238.312 70.904 238.2C70.4 238.05 69.9753 237.892 69.63 237.724C69.2846 237.556 69.0233 237.346 68.846 237.094C68.6686 236.842 68.58 236.524 68.58 236.142C68.58 235.675 68.7013 235.283 68.944 234.966C69.1866 234.639 69.518 234.392 69.938 234.224C70.3673 234.056 70.8526 233.972 71.394 233.972C71.9353 233.972 72.4253 234.056 72.864 234.224C73.3026 234.392 73.6806 234.639 73.998 234.966L73.438 235.82C73.1486 235.521 72.8313 235.302 72.486 235.162C72.1406 235.012 71.7533 234.938 71.324 234.938C71.072 234.938 70.8246 234.97 70.582 235.036C70.3393 235.092 70.1386 235.199 69.98 235.358C69.8213 235.507 69.742 235.722 69.742 236.002C69.742 236.235 69.8026 236.422 69.924 236.562C70.0546 236.692 70.2413 236.804 70.484 236.898C70.736 236.991 71.0393 237.094 71.394 237.206C71.9446 237.364 72.4206 237.523 72.822 237.682C73.2326 237.84 73.55 238.046 73.774 238.298C73.998 238.55 74.11 238.9 74.11 239.348C74.11 240.038 73.8486 240.58 73.326 240.972C72.8033 241.354 72.1126 241.546 71.254 241.546ZM78.8179 241.546C78.2672 241.546 77.7632 241.448 77.3059 241.252C76.8579 241.046 76.4659 240.771 76.1299 240.426C75.8032 240.071 75.5466 239.665 75.3599 239.208C75.1826 238.75 75.0939 238.265 75.0939 237.752C75.0939 237.061 75.2526 236.431 75.5699 235.862C75.8872 235.292 76.3259 234.835 76.8859 234.49C77.4552 234.144 78.1039 233.972 78.8319 233.972C79.5692 233.972 80.2086 234.149 80.7499 234.504C81.3006 234.849 81.7252 235.306 82.0239 235.876C82.3319 236.436 82.4859 237.042 82.4859 237.696C82.4859 237.789 82.4812 237.882 82.4719 237.976C82.4719 238.06 82.4672 238.125 82.4579 238.172H76.3959C76.4332 238.648 76.5639 239.072 76.7879 239.446C77.0212 239.81 77.3199 240.099 77.6839 240.314C78.0479 240.519 78.4399 240.622 78.8599 240.622C79.3079 240.622 79.7279 240.51 80.1199 240.286C80.5212 240.062 80.7966 239.768 80.9459 239.404L82.0099 239.698C81.8512 240.052 81.6132 240.37 81.2959 240.65C80.9879 240.93 80.6192 241.149 80.1899 241.308C79.7699 241.466 79.3126 241.546 78.8179 241.546ZM76.3539 237.318H81.3379C81.3006 236.842 81.1652 236.422 80.9319 236.058C80.6986 235.694 80.3999 235.409 80.0359 235.204C79.6719 234.998 79.2706 234.896 78.8319 234.896C78.4026 234.896 78.0059 234.998 77.6419 235.204C77.2779 235.409 76.9792 235.694 76.7459 236.058C76.5219 236.422 76.3912 236.842 76.3539 237.318ZM87.0894 241.546C86.5387 241.546 86.0347 241.448 85.5774 241.252C85.1294 241.046 84.7374 240.766 84.4014 240.412C84.0747 240.057 83.8181 239.651 83.6314 239.194C83.4541 238.736 83.3654 238.251 83.3654 237.738C83.3654 237.047 83.5194 236.417 83.8274 235.848C84.1354 235.278 84.5694 234.826 85.1294 234.49C85.6894 234.144 86.3381 233.972 87.0754 233.972C87.7941 233.972 88.4194 234.135 88.9514 234.462C89.4927 234.779 89.8941 235.208 90.1554 235.75L88.9514 236.128C88.7647 235.782 88.5034 235.516 88.1674 235.33C87.8314 235.134 87.4581 235.036 87.0474 235.036C86.5994 235.036 86.1887 235.152 85.8154 235.386C85.4514 235.619 85.1621 235.941 84.9474 236.352C84.7327 236.753 84.6254 237.215 84.6254 237.738C84.6254 238.251 84.7327 238.718 84.9474 239.138C85.1714 239.548 85.4654 239.875 85.8294 240.118C86.2027 240.36 86.6134 240.482 87.0614 240.482C87.3507 240.482 87.6261 240.43 87.8874 240.328C88.1581 240.225 88.3914 240.09 88.5874 239.922C88.7927 239.744 88.9327 239.553 89.0074 239.348L90.2114 239.712C90.0621 240.066 89.8334 240.384 89.5254 240.664C89.2267 240.934 88.8674 241.149 88.4474 241.308C88.0367 241.466 87.5841 241.546 87.0894 241.546ZM95.3873 241.042C95.2847 241.088 95.1447 241.149 94.9673 241.224C94.79 241.298 94.5847 241.364 94.3513 241.42C94.118 241.476 93.8707 241.504 93.6093 241.504C93.3107 241.504 93.0353 241.452 92.7833 241.35C92.5313 241.238 92.3307 241.07 92.1813 240.846C92.032 240.612 91.9573 240.323 91.9573 239.978V235.064H90.9633V234.098H91.9573V231.662H93.1893V234.098H94.8273V235.064H93.1893V239.6C93.208 239.861 93.2967 240.057 93.4553 240.188C93.614 240.309 93.8007 240.37 94.0153 240.37C94.258 240.37 94.482 240.328 94.6873 240.244C94.8927 240.16 95.028 240.099 95.0933 240.062L95.3873 241.042ZM99.6675 241.546C99.1168 241.546 98.6128 241.448 98.1555 241.252C97.7075 241.046 97.3155 240.771 96.9795 240.426C96.6528 240.071 96.3962 239.665 96.2095 239.208C96.0322 238.75 95.9435 238.265 95.9435 237.752C95.9435 237.061 96.1022 236.431 96.4195 235.862C96.7368 235.292 97.1755 234.835 97.7355 234.49C98.3048 234.144 98.9535 233.972 99.6815 233.972C100.419 233.972 101.058 234.149 101.6 234.504C102.15 234.849 102.575 235.306 102.874 235.876C103.182 236.436 103.336 237.042 103.336 237.696C103.336 237.789 103.331 237.882 103.322 237.976C103.322 238.06 103.317 238.125 103.308 238.172H97.2455C97.2828 238.648 97.4135 239.072 97.6375 239.446C97.8708 239.81 98.1695 240.099 98.5335 240.314C98.8975 240.519 99.2895 240.622 99.7095 240.622C100.158 240.622 100.578 240.51 100.97 240.286C101.371 240.062 101.646 239.768 101.796 239.404L102.86 239.698C102.701 240.052 102.463 240.37 102.146 240.65C101.838 240.93 101.469 241.149 101.04 241.308C100.62 241.466 100.162 241.546 99.6675 241.546ZM97.2035 237.318H102.188C102.15 236.842 102.015 236.422 101.782 236.058C101.548 235.694 101.25 235.409 100.886 235.204C100.522 234.998 100.12 234.896 99.6815 234.896C99.2522 234.896 98.8555 234.998 98.4915 235.204C98.1275 235.409 97.8288 235.694 97.5955 236.058C97.3715 236.422 97.2408 236.842 97.2035 237.318ZM108.417 241.042C108.314 241.088 108.174 241.149 107.997 241.224C107.819 241.298 107.614 241.364 107.381 241.42C107.147 241.476 106.9 241.504 106.639 241.504C106.34 241.504 106.065 241.452 105.813 241.35C105.561 241.238 105.36 241.07 105.211 240.846C105.061 240.612 104.987 240.323 104.987 239.978V235.064H103.993V234.098H104.987V231.662H106.219V234.098H107.857V235.064H106.219V239.6C106.237 239.861 106.326 240.057 106.485 240.188C106.643 240.309 106.83 240.37 107.045 240.37C107.287 240.37 107.511 240.328 107.717 240.244C107.922 240.16 108.057 240.099 108.123 240.062L108.417 241.042ZM109.489 238.48V234.098H110.721V238.242C110.721 238.988 110.851 239.548 111.113 239.922C111.374 240.295 111.761 240.482 112.275 240.482C112.611 240.482 112.933 240.412 113.241 240.272C113.558 240.122 113.843 239.912 114.095 239.642C114.347 239.371 114.543 239.049 114.683 238.676V234.098H115.915V240.006C115.915 240.155 115.943 240.267 115.999 240.342C116.064 240.407 116.167 240.444 116.307 240.454V241.406C116.167 241.424 116.055 241.434 115.971 241.434C115.896 241.443 115.821 241.448 115.747 241.448C115.513 241.448 115.313 241.378 115.145 241.238C114.977 241.088 114.888 240.906 114.879 240.692L114.851 239.838C114.533 240.379 114.104 240.799 113.563 241.098C113.031 241.396 112.447 241.546 111.813 241.546C111.047 241.546 110.469 241.289 110.077 240.776C109.685 240.253 109.489 239.488 109.489 238.48ZM121.831 235.176C121.215 235.185 120.669 235.344 120.193 235.652C119.726 235.95 119.395 236.366 119.199 236.898V241.406H117.967V234.098H119.115V235.792C119.367 235.288 119.698 234.882 120.109 234.574C120.529 234.256 120.967 234.079 121.425 234.042C121.518 234.042 121.597 234.042 121.663 234.042C121.728 234.042 121.784 234.046 121.831 234.056V235.176ZM125.692 239.292C125.692 238.825 125.822 238.424 126.084 238.088C126.354 237.742 126.723 237.476 127.19 237.29C127.656 237.103 128.198 237.01 128.814 237.01C129.14 237.01 129.486 237.038 129.85 237.094C130.214 237.14 130.536 237.215 130.816 237.318V236.786C130.816 236.226 130.648 235.787 130.312 235.47C129.976 235.143 129.5 234.98 128.884 234.98C128.482 234.98 128.095 235.054 127.722 235.204C127.358 235.344 126.97 235.549 126.56 235.82L126.112 234.952C126.588 234.625 127.064 234.382 127.54 234.224C128.016 234.056 128.51 233.972 129.024 233.972C129.957 233.972 130.694 234.233 131.236 234.756C131.777 235.269 132.048 235.988 132.048 236.912V240.006C132.048 240.155 132.076 240.267 132.132 240.342C132.197 240.407 132.3 240.444 132.44 240.454V241.406C132.318 241.424 132.211 241.438 132.118 241.448C132.034 241.457 131.964 241.462 131.908 241.462C131.618 241.462 131.399 241.382 131.25 241.224C131.11 241.065 131.03 240.897 131.012 240.72L130.984 240.258C130.666 240.668 130.251 240.986 129.738 241.21C129.224 241.434 128.716 241.546 128.212 241.546C127.726 241.546 127.292 241.448 126.91 241.252C126.527 241.046 126.228 240.776 126.014 240.44C125.799 240.094 125.692 239.712 125.692 239.292ZM130.452 239.81C130.564 239.679 130.652 239.548 130.718 239.418C130.783 239.278 130.816 239.161 130.816 239.068V238.158C130.526 238.046 130.223 237.962 129.906 237.906C129.588 237.84 129.276 237.808 128.968 237.808C128.342 237.808 127.834 237.934 127.442 238.186C127.059 238.428 126.868 238.764 126.868 239.194C126.868 239.427 126.928 239.656 127.05 239.88C127.18 240.094 127.367 240.272 127.61 240.412C127.862 240.552 128.17 240.622 128.534 240.622C128.916 240.622 129.28 240.547 129.626 240.398C129.971 240.239 130.246 240.043 130.452 239.81ZM133.541 237.766C133.541 237.075 133.681 236.445 133.961 235.876C134.251 235.297 134.643 234.835 135.137 234.49C135.641 234.144 136.215 233.972 136.859 233.972C137.447 233.972 137.975 234.126 138.441 234.434C138.908 234.742 139.272 235.115 139.533 235.554V231.186H140.765V240.006C140.765 240.155 140.793 240.267 140.849 240.342C140.915 240.407 141.017 240.444 141.157 240.454V241.406C140.924 241.443 140.742 241.462 140.611 241.462C140.369 241.462 140.154 241.378 139.967 241.21C139.79 241.042 139.701 240.855 139.701 240.65V240.034C139.412 240.5 139.025 240.869 138.539 241.14C138.054 241.41 137.55 241.546 137.027 241.546C136.523 241.546 136.057 241.448 135.627 241.252C135.207 241.046 134.839 240.766 134.521 240.412C134.213 240.057 133.971 239.656 133.793 239.208C133.625 238.75 133.541 238.27 133.541 237.766ZM139.533 238.844V236.744C139.421 236.426 139.239 236.142 138.987 235.89C138.735 235.628 138.451 235.423 138.133 235.274C137.825 235.115 137.517 235.036 137.209 235.036C136.845 235.036 136.514 235.115 136.215 235.274C135.926 235.423 135.674 235.628 135.459 235.89C135.254 236.142 135.095 236.431 134.983 236.758C134.871 237.084 134.815 237.425 134.815 237.78C134.815 238.144 134.876 238.489 134.997 238.816C135.128 239.142 135.305 239.432 135.529 239.684C135.763 239.936 136.029 240.132 136.327 240.272C136.635 240.412 136.967 240.482 137.321 240.482C137.545 240.482 137.774 240.44 138.007 240.356C138.25 240.272 138.479 240.155 138.693 240.006C138.908 239.856 139.09 239.684 139.239 239.488C139.389 239.282 139.487 239.068 139.533 238.844ZM142.822 241.406V234.098H144.054V241.406H142.822ZM142.822 232.726V231.186H144.054V232.726H142.822ZM149.983 241.546C149.385 241.546 148.853 241.396 148.387 241.098C147.92 240.799 147.551 240.421 147.281 239.964V244.388H146.049V234.098H147.141V235.47C147.43 235.022 147.808 234.662 148.275 234.392C148.741 234.112 149.25 233.972 149.801 233.972C150.305 233.972 150.767 234.074 151.187 234.28C151.607 234.485 151.971 234.765 152.279 235.12C152.587 235.474 152.825 235.88 152.993 236.338C153.17 236.786 153.259 237.257 153.259 237.752C153.259 238.442 153.119 239.077 152.839 239.656C152.568 240.234 152.185 240.696 151.691 241.042C151.196 241.378 150.627 241.546 149.983 241.546ZM149.605 240.482C149.969 240.482 150.295 240.407 150.585 240.258C150.883 240.099 151.135 239.894 151.341 239.642C151.555 239.38 151.719 239.086 151.831 238.76C151.943 238.433 151.999 238.097 151.999 237.752C151.999 237.388 151.933 237.042 151.803 236.716C151.681 236.389 151.504 236.1 151.271 235.848C151.047 235.596 150.781 235.4 150.473 235.26C150.174 235.11 149.847 235.036 149.493 235.036C149.269 235.036 149.035 235.078 148.793 235.162C148.559 235.246 148.335 235.367 148.121 235.526C147.906 235.675 147.724 235.848 147.575 236.044C147.425 236.24 147.327 236.45 147.281 236.674V238.76C147.421 239.077 147.607 239.366 147.841 239.628C148.074 239.889 148.345 240.099 148.653 240.258C148.961 240.407 149.278 240.482 149.605 240.482ZM154.771 241.406V234.098H156.003V241.406H154.771ZM154.771 232.726V231.186H156.003V232.726H154.771ZM160.504 241.546C159.897 241.546 159.328 241.448 158.796 241.252C158.264 241.046 157.807 240.743 157.424 240.342L157.9 239.474C158.32 239.866 158.74 240.146 159.16 240.314C159.58 240.482 160.009 240.566 160.448 240.566C160.952 240.566 161.363 240.472 161.68 240.286C161.997 240.09 162.156 239.805 162.156 239.432C162.156 239.161 162.072 238.96 161.904 238.83C161.745 238.699 161.517 238.592 161.218 238.508C160.919 238.414 160.565 238.312 160.154 238.2C159.65 238.05 159.225 237.892 158.88 237.724C158.535 237.556 158.273 237.346 158.096 237.094C157.919 236.842 157.83 236.524 157.83 236.142C157.83 235.675 157.951 235.283 158.194 234.966C158.437 234.639 158.768 234.392 159.188 234.224C159.617 234.056 160.103 233.972 160.644 233.972C161.185 233.972 161.675 234.056 162.114 234.224C162.553 234.392 162.931 234.639 163.248 234.966L162.688 235.82C162.399 235.521 162.081 235.302 161.736 235.162C161.391 235.012 161.003 234.938 160.574 234.938C160.322 234.938 160.075 234.97 159.832 235.036C159.589 235.092 159.389 235.199 159.23 235.358C159.071 235.507 158.992 235.722 158.992 236.002C158.992 236.235 159.053 236.422 159.174 236.562C159.305 236.692 159.491 236.804 159.734 236.898C159.986 236.991 160.289 237.094 160.644 237.206C161.195 237.364 161.671 237.523 162.072 237.682C162.483 237.84 162.8 238.046 163.024 238.298C163.248 238.55 163.36 238.9 163.36 239.348C163.36 240.038 163.099 240.58 162.576 240.972C162.053 241.354 161.363 241.546 160.504 241.546ZM168.068 241.546C167.517 241.546 167.013 241.448 166.556 241.252C166.108 241.046 165.716 240.766 165.38 240.412C165.053 240.057 164.797 239.651 164.61 239.194C164.433 238.736 164.344 238.251 164.344 237.738C164.344 237.047 164.498 236.417 164.806 235.848C165.114 235.278 165.548 234.826 166.108 234.49C166.668 234.144 167.317 233.972 168.054 233.972C168.773 233.972 169.398 234.135 169.93 234.462C170.471 234.779 170.873 235.208 171.134 235.75L169.93 236.128C169.743 235.782 169.482 235.516 169.146 235.33C168.81 235.134 168.437 235.036 168.026 235.036C167.578 235.036 167.167 235.152 166.794 235.386C166.43 235.619 166.141 235.941 165.926 236.352C165.711 236.753 165.604 237.215 165.604 237.738C165.604 238.251 165.711 238.718 165.926 239.138C166.15 239.548 166.444 239.875 166.808 240.118C167.181 240.36 167.592 240.482 168.04 240.482C168.329 240.482 168.605 240.43 168.866 240.328C169.137 240.225 169.37 240.09 169.566 239.922C169.771 239.744 169.911 239.553 169.986 239.348L171.19 239.712C171.041 240.066 170.812 240.384 170.504 240.664C170.205 240.934 169.846 241.149 169.426 241.308C169.015 241.466 168.563 241.546 168.068 241.546ZM172.586 241.406V234.098H173.818V241.406H172.586ZM172.586 232.726V231.186H173.818V232.726H172.586ZM182.154 241.406H180.922V237.318C180.922 236.543 180.801 235.978 180.558 235.624C180.325 235.26 179.966 235.078 179.48 235.078C179.144 235.078 178.808 235.162 178.472 235.33C178.146 235.498 177.852 235.726 177.59 236.016C177.338 236.296 177.156 236.622 177.044 236.996V241.406H175.812V234.098H176.932V235.666C177.128 235.32 177.38 235.022 177.688 234.77C177.996 234.518 178.346 234.322 178.738 234.182C179.13 234.042 179.541 233.972 179.97 233.972C180.39 233.972 180.74 234.051 181.02 234.21C181.31 234.359 181.534 234.574 181.692 234.854C181.86 235.124 181.977 235.446 182.042 235.82C182.117 236.193 182.154 236.599 182.154 237.038V241.406ZM186.982 241.49C186.488 241.49 186.03 241.392 185.61 241.196C185.2 240.99 184.845 240.715 184.546 240.37C184.248 240.015 184.014 239.614 183.846 239.166C183.688 238.718 183.608 238.251 183.608 237.766C183.608 237.252 183.688 236.767 183.846 236.31C184.014 235.852 184.248 235.451 184.546 235.106C184.854 234.751 185.214 234.476 185.624 234.28C186.035 234.074 186.492 233.972 186.996 233.972C187.603 233.972 188.13 234.121 188.578 234.42C189.036 234.718 189.418 235.096 189.726 235.554V234.098H190.818V241.322C190.818 242.012 190.65 242.596 190.314 243.072C189.988 243.548 189.54 243.907 188.97 244.15C188.41 244.402 187.785 244.528 187.094 244.528C186.273 244.528 185.601 244.383 185.078 244.094C184.556 243.804 184.122 243.412 183.776 242.918L184.49 242.288C184.78 242.717 185.153 243.039 185.61 243.254C186.077 243.468 186.572 243.576 187.094 243.576C187.542 243.576 187.953 243.492 188.326 243.324C188.709 243.165 189.012 242.918 189.236 242.582C189.47 242.246 189.586 241.826 189.586 241.322V240.034C189.316 240.482 188.942 240.836 188.466 241.098C188 241.359 187.505 241.49 186.982 241.49ZM187.36 240.482C187.622 240.482 187.874 240.435 188.116 240.342C188.359 240.248 188.583 240.127 188.788 239.978C188.994 239.819 189.166 239.642 189.306 239.446C189.446 239.25 189.54 239.049 189.586 238.844V236.744C189.456 236.408 189.269 236.114 189.026 235.862C188.784 235.6 188.508 235.4 188.2 235.26C187.892 235.11 187.575 235.036 187.248 235.036C186.875 235.036 186.539 235.115 186.24 235.274C185.951 235.432 185.704 235.647 185.498 235.918C185.293 236.179 185.134 236.473 185.022 236.8C184.91 237.126 184.854 237.458 184.854 237.794C184.854 238.158 184.92 238.503 185.05 238.83C185.181 239.147 185.358 239.432 185.582 239.684C185.806 239.936 186.072 240.132 186.38 240.272C186.688 240.412 187.015 240.482 187.36 240.482ZM199.582 241.546C199.031 241.546 198.527 241.448 198.07 241.252C197.622 241.046 197.23 240.771 196.894 240.426C196.567 240.071 196.31 239.665 196.124 239.208C195.946 238.75 195.858 238.265 195.858 237.752C195.858 237.061 196.016 236.431 196.334 235.862C196.651 235.292 197.09 234.835 197.65 234.49C198.219 234.144 198.868 233.972 199.596 233.972C200.333 233.972 200.972 234.149 201.514 234.504C202.064 234.849 202.489 235.306 202.788 235.876C203.096 236.436 203.25 237.042 203.25 237.696C203.25 237.789 203.245 237.882 203.236 237.976C203.236 238.06 203.231 238.125 203.222 238.172H197.16C197.197 238.648 197.328 239.072 197.552 239.446C197.785 239.81 198.084 240.099 198.448 240.314C198.812 240.519 199.204 240.622 199.624 240.622C200.072 240.622 200.492 240.51 200.884 240.286C201.285 240.062 201.56 239.768 201.71 239.404L202.774 239.698C202.615 240.052 202.377 240.37 202.06 240.65C201.752 240.93 201.383 241.149 200.954 241.308C200.534 241.466 200.076 241.546 199.582 241.546ZM197.118 237.318H202.102C202.064 236.842 201.929 236.422 201.696 236.058C201.462 235.694 201.164 235.409 200.8 235.204C200.436 234.998 200.034 234.896 199.596 234.896C199.166 234.896 198.77 234.998 198.406 235.204C198.042 235.409 197.743 235.694 197.51 236.058C197.286 236.422 197.155 236.842 197.118 237.318ZM204.647 231.186H205.879V239.516C205.879 239.917 205.935 240.164 206.047 240.258C206.159 240.351 206.294 240.398 206.453 240.398C206.649 240.398 206.836 240.379 207.013 240.342C207.19 240.295 207.34 240.248 207.461 240.202L207.657 241.21C207.452 241.294 207.209 241.364 206.929 241.42C206.649 241.476 206.402 241.504 206.187 241.504C205.711 241.504 205.333 241.368 205.053 241.098C204.782 240.827 204.647 240.449 204.647 239.964V231.186ZM208.625 241.406V234.098H209.857V241.406H208.625ZM208.625 232.726V231.186H209.857V232.726H208.625ZM215.631 241.042C215.529 241.088 215.389 241.149 215.211 241.224C215.034 241.298 214.829 241.364 214.595 241.42C214.362 241.476 214.115 241.504 213.853 241.504C213.555 241.504 213.279 241.452 213.027 241.35C212.775 241.238 212.575 241.07 212.425 240.846C212.276 240.612 212.201 240.323 212.201 239.978V235.064H211.207V234.098H212.201V231.662H213.433V234.098H215.071V235.064H213.433V239.6C213.452 239.861 213.541 240.057 213.699 240.188C213.858 240.309 214.045 240.37 214.259 240.37C214.502 240.37 214.726 240.328 214.931 240.244C215.137 240.16 215.272 240.099 215.337 240.062L215.631 241.042ZM216.815 242.54L217.095 241.294H216.675V239.838H217.837V241.294L217.417 242.54H216.815ZM225.773 241.546C225.167 241.546 224.597 241.448 224.065 241.252C223.533 241.046 223.076 240.743 222.693 240.342L223.169 239.474C223.589 239.866 224.009 240.146 224.429 240.314C224.849 240.482 225.279 240.566 225.717 240.566C226.221 240.566 226.632 240.472 226.949 240.286C227.267 240.09 227.425 239.805 227.425 239.432C227.425 239.161 227.341 238.96 227.173 238.83C227.015 238.699 226.786 238.592 226.487 238.508C226.189 238.414 225.834 238.312 225.423 238.2C224.919 238.05 224.495 237.892 224.149 237.724C223.804 237.556 223.543 237.346 223.365 237.094C223.188 236.842 223.099 236.524 223.099 236.142C223.099 235.675 223.221 235.283 223.463 234.966C223.706 234.639 224.037 234.392 224.457 234.224C224.887 234.056 225.372 233.972 225.913 233.972C226.455 233.972 226.945 234.056 227.383 234.224C227.822 234.392 228.2 234.639 228.517 234.966L227.957 235.82C227.668 235.521 227.351 235.302 227.005 235.162C226.66 235.012 226.273 234.938 225.843 234.938C225.591 234.938 225.344 234.97 225.101 235.036C224.859 235.092 224.658 235.199 224.499 235.358C224.341 235.507 224.261 235.722 224.261 236.002C224.261 236.235 224.322 236.422 224.443 236.562C224.574 236.692 224.761 236.804 225.003 236.898C225.255 236.991 225.559 237.094 225.913 237.206C226.464 237.364 226.94 237.523 227.341 237.682C227.752 237.84 228.069 238.046 228.293 238.298C228.517 238.55 228.629 238.9 228.629 239.348C228.629 240.038 228.368 240.58 227.845 240.972C227.323 241.354 226.632 241.546 225.773 241.546ZM233.337 241.546C232.787 241.546 232.283 241.448 231.825 241.252C231.377 241.046 230.985 240.771 230.649 240.426C230.323 240.071 230.066 239.665 229.879 239.208C229.702 238.75 229.613 238.265 229.613 237.752C229.613 237.061 229.772 236.431 230.089 235.862C230.407 235.292 230.845 234.835 231.405 234.49C231.975 234.144 232.623 233.972 233.351 233.972C234.089 233.972 234.728 234.149 235.269 234.504C235.82 234.849 236.245 235.306 236.543 235.876C236.851 236.436 237.005 237.042 237.005 237.696C237.005 237.789 237.001 237.882 236.991 237.976C236.991 238.06 236.987 238.125 236.977 238.172H230.915C230.953 238.648 231.083 239.072 231.307 239.446C231.541 239.81 231.839 240.099 232.203 240.314C232.567 240.519 232.959 240.622 233.379 240.622C233.827 240.622 234.247 240.51 234.639 240.286C235.041 240.062 235.316 239.768 235.465 239.404L236.529 239.698C236.371 240.052 236.133 240.37 235.815 240.65C235.507 240.93 235.139 241.149 234.709 241.308C234.289 241.466 233.832 241.546 233.337 241.546ZM230.873 237.318H235.857C235.82 236.842 235.685 236.422 235.451 236.058C235.218 235.694 234.919 235.409 234.555 235.204C234.191 234.998 233.79 234.896 233.351 234.896C232.922 234.896 232.525 234.998 232.161 235.204C231.797 235.409 231.499 235.694 231.265 236.058C231.041 236.422 230.911 236.842 230.873 237.318ZM237.899 237.766C237.899 237.075 238.039 236.445 238.319 235.876C238.608 235.297 239 234.835 239.495 234.49C239.999 234.144 240.573 233.972 241.217 233.972C241.805 233.972 242.332 234.126 242.799 234.434C243.266 234.742 243.63 235.115 243.891 235.554V231.186H245.123V240.006C245.123 240.155 245.151 240.267 245.207 240.342C245.272 240.407 245.375 240.444 245.515 240.454V241.406C245.282 241.443 245.1 241.462 244.969 241.462C244.726 241.462 244.512 241.378 244.325 241.21C244.148 241.042 244.059 240.855 244.059 240.65V240.034C243.77 240.5 243.382 240.869 242.897 241.14C242.412 241.41 241.908 241.546 241.385 241.546C240.881 241.546 240.414 241.448 239.985 241.252C239.565 241.046 239.196 240.766 238.879 240.412C238.571 240.057 238.328 239.656 238.151 239.208C237.983 238.75 237.899 238.27 237.899 237.766ZM243.891 238.844V236.744C243.779 236.426 243.597 236.142 243.345 235.89C243.093 235.628 242.808 235.423 242.491 235.274C242.183 235.115 241.875 235.036 241.567 235.036C241.203 235.036 240.872 235.115 240.573 235.274C240.284 235.423 240.032 235.628 239.817 235.89C239.612 236.142 239.453 236.431 239.341 236.758C239.229 237.084 239.173 237.425 239.173 237.78C239.173 238.144 239.234 238.489 239.355 238.816C239.486 239.142 239.663 239.432 239.887 239.684C240.12 239.936 240.386 240.132 240.685 240.272C240.993 240.412 241.324 240.482 241.679 240.482C241.903 240.482 242.132 240.44 242.365 240.356C242.608 240.272 242.836 240.155 243.051 240.006C243.266 239.856 243.448 239.684 243.597 239.488C243.746 239.282 243.844 239.068 243.891 238.844ZM43.9497 258.766C43.9497 258.075 44.0897 257.445 44.3697 256.876C44.659 256.297 45.051 255.835 45.5457 255.49C46.0497 255.144 46.6237 254.972 47.2677 254.972C47.8557 254.972 48.383 255.126 48.8497 255.434C49.3164 255.742 49.6804 256.115 49.9417 256.554V252.186H51.1737V261.006C51.1737 261.155 51.2017 261.267 51.2577 261.342C51.323 261.407 51.4257 261.444 51.5657 261.454V262.406C51.3324 262.443 51.1504 262.462 51.0197 262.462C50.777 262.462 50.5624 262.378 50.3757 262.21C50.1984 262.042 50.1097 261.855 50.1097 261.65V261.034C49.8204 261.5 49.433 261.869 48.9477 262.14C48.4624 262.41 47.9584 262.546 47.4357 262.546C46.9317 262.546 46.465 262.448 46.0357 262.252C45.6157 262.046 45.247 261.766 44.9297 261.412C44.6217 261.057 44.379 260.656 44.2017 260.208C44.0337 259.75 43.9497 259.27 43.9497 258.766ZM49.9417 259.844V257.744C49.8297 257.426 49.6477 257.142 49.3957 256.89C49.1437 256.628 48.859 256.423 48.5417 256.274C48.2337 256.115 47.9257 256.036 47.6177 256.036C47.2537 256.036 46.9224 256.115 46.6237 256.274C46.3344 256.423 46.0824 256.628 45.8677 256.89C45.6624 257.142 45.5037 257.431 45.3917 257.758C45.2797 258.084 45.2237 258.425 45.2237 258.78C45.2237 259.144 45.2844 259.489 45.4057 259.816C45.5364 260.142 45.7137 260.432 45.9377 260.684C46.171 260.936 46.437 261.132 46.7357 261.272C47.0437 261.412 47.375 261.482 47.7297 261.482C47.9537 261.482 48.1824 261.44 48.4157 261.356C48.6584 261.272 48.887 261.155 49.1017 261.006C49.3164 260.856 49.4984 260.684 49.6477 260.488C49.797 260.282 49.895 260.068 49.9417 259.844ZM56.4224 262.546C55.8717 262.546 55.3724 262.448 54.9244 262.252C54.4764 262.046 54.0891 261.771 53.7624 261.426C53.4357 261.071 53.1837 260.665 53.0064 260.208C52.8291 259.75 52.7404 259.27 52.7404 258.766C52.7404 258.252 52.8291 257.767 53.0064 257.31C53.1837 256.852 53.4357 256.451 53.7624 256.106C54.0891 255.751 54.4764 255.476 54.9244 255.28C55.3817 255.074 55.8811 254.972 56.4224 254.972C56.9731 254.972 57.4724 255.074 57.9204 255.28C58.3684 255.476 58.7557 255.751 59.0824 256.106C59.4184 256.451 59.6751 256.852 59.8524 257.31C60.0297 257.767 60.1184 258.252 60.1184 258.766C60.1184 259.27 60.0297 259.75 59.8524 260.208C59.6751 260.665 59.4231 261.071 59.0964 261.426C58.7697 261.771 58.3777 262.046 57.9204 262.252C57.4724 262.448 56.9731 262.546 56.4224 262.546ZM54.0004 258.78C54.0004 259.284 54.1077 259.741 54.3224 260.152C54.5464 260.562 54.8404 260.889 55.2044 261.132C55.5684 261.365 55.9744 261.482 56.4224 261.482C56.8704 261.482 57.2764 261.36 57.6404 261.118C58.0137 260.875 58.3077 260.548 58.5224 260.138C58.7464 259.718 58.8584 259.256 58.8584 258.752C58.8584 258.248 58.7464 257.79 58.5224 257.38C58.3077 256.969 58.0137 256.642 57.6404 256.4C57.2764 256.157 56.8704 256.036 56.4224 256.036C55.9744 256.036 55.5684 256.162 55.2044 256.414C54.8404 256.656 54.5464 256.983 54.3224 257.394C54.1077 257.804 54.0004 258.266 54.0004 258.78ZM68.3863 262.546C67.8356 262.546 67.3316 262.448 66.8743 262.252C66.4263 262.046 66.0343 261.771 65.6983 261.426C65.3716 261.071 65.1149 260.665 64.9283 260.208C64.7509 259.75 64.6623 259.265 64.6623 258.752C64.6623 258.061 64.8209 257.431 65.1383 256.862C65.4556 256.292 65.8943 255.835 66.4543 255.49C67.0236 255.144 67.6723 254.972 68.4003 254.972C69.1376 254.972 69.7769 255.149 70.3183 255.504C70.8689 255.849 71.2936 256.306 71.5923 256.876C71.9003 257.436 72.0543 258.042 72.0543 258.696C72.0543 258.789 72.0496 258.882 72.0403 258.976C72.0403 259.06 72.0356 259.125 72.0263 259.172H65.9643C66.0016 259.648 66.1323 260.072 66.3563 260.446C66.5896 260.81 66.8883 261.099 67.2523 261.314C67.6163 261.519 68.0083 261.622 68.4283 261.622C68.8763 261.622 69.2963 261.51 69.6883 261.286C70.0896 261.062 70.3649 260.768 70.5143 260.404L71.5783 260.698C71.4196 261.052 71.1816 261.37 70.8643 261.65C70.5563 261.93 70.1876 262.149 69.7583 262.308C69.3383 262.466 68.8809 262.546 68.3863 262.546ZM65.9223 258.318H70.9063C70.8689 257.842 70.7336 257.422 70.5003 257.058C70.2669 256.694 69.9683 256.409 69.6043 256.204C69.2403 255.998 68.8389 255.896 68.4003 255.896C67.9709 255.896 67.5743 255.998 67.2103 256.204C66.8463 256.409 66.5476 256.694 66.3143 257.058C66.0903 257.422 65.9596 257.842 65.9223 258.318ZM73.4237 262.406V255.098H74.6557V262.406H73.4237ZM73.4237 253.726V252.186H74.6557V253.726H73.4237ZM76.5803 259.48V255.098H77.8123V259.242C77.8123 259.988 77.943 260.548 78.2043 260.922C78.4656 261.295 78.853 261.482 79.3663 261.482C79.7023 261.482 80.0243 261.412 80.3323 261.272C80.6496 261.122 80.9343 260.912 81.1863 260.642C81.4383 260.371 81.6343 260.049 81.7743 259.676V255.098H83.0063V261.006C83.0063 261.155 83.0343 261.267 83.0903 261.342C83.1556 261.407 83.2583 261.444 83.3983 261.454V262.406C83.2583 262.424 83.1463 262.434 83.0623 262.434C82.9876 262.443 82.913 262.448 82.8383 262.448C82.605 262.448 82.4043 262.378 82.2363 262.238C82.0683 262.088 81.9796 261.906 81.9703 261.692L81.9423 260.838C81.625 261.379 81.1956 261.799 80.6543 262.098C80.1223 262.396 79.539 262.546 78.9043 262.546C78.139 262.546 77.5603 262.289 77.1683 261.776C76.7763 261.253 76.5803 260.488 76.5803 259.48ZM87.5645 262.546C86.9578 262.546 86.3885 262.448 85.8565 262.252C85.3245 262.046 84.8672 261.743 84.4845 261.342L84.9605 260.474C85.3805 260.866 85.8005 261.146 86.2205 261.314C86.6405 261.482 87.0698 261.566 87.5085 261.566C88.0125 261.566 88.4232 261.472 88.7405 261.286C89.0578 261.09 89.2165 260.805 89.2165 260.432C89.2165 260.161 89.1325 259.96 88.9645 259.83C88.8058 259.699 88.5772 259.592 88.2785 259.508C87.9798 259.414 87.6252 259.312 87.2145 259.2C86.7105 259.05 86.2858 258.892 85.9405 258.724C85.5952 258.556 85.3338 258.346 85.1565 258.094C84.9792 257.842 84.8905 257.524 84.8905 257.142C84.8905 256.675 85.0118 256.283 85.2545 255.966C85.4972 255.639 85.8285 255.392 86.2485 255.224C86.6778 255.056 87.1632 254.972 87.7045 254.972C88.2458 254.972 88.7358 255.056 89.1745 255.224C89.6132 255.392 89.9912 255.639 90.3085 255.966L89.7485 256.82C89.4592 256.521 89.1418 256.302 88.7965 256.162C88.4512 256.012 88.0638 255.938 87.6345 255.938C87.3825 255.938 87.1352 255.97 86.8925 256.036C86.6498 256.092 86.4492 256.199 86.2905 256.358C86.1318 256.507 86.0525 256.722 86.0525 257.002C86.0525 257.235 86.1132 257.422 86.2345 257.562C86.3652 257.692 86.5518 257.804 86.7945 257.898C87.0465 257.991 87.3498 258.094 87.7045 258.206C88.2552 258.364 88.7312 258.523 89.1325 258.682C89.5432 258.84 89.8605 259.046 90.0845 259.298C90.3085 259.55 90.4205 259.9 90.4205 260.348C90.4205 261.038 90.1592 261.58 89.6365 261.972C89.1138 262.354 88.4232 262.546 87.5645 262.546ZM102.912 262.406H101.68V258.318C101.68 257.552 101.554 256.988 101.302 256.624C101.06 256.26 100.696 256.078 100.21 256.078C99.7158 256.078 99.2678 256.26 98.8665 256.624C98.4651 256.978 98.1805 257.44 98.0125 258.01V262.406H96.7805V258.318C96.7805 257.543 96.6591 256.978 96.4165 256.624C96.1738 256.26 95.8098 256.078 95.3245 256.078C94.8391 256.078 94.3911 256.255 93.9805 256.61C93.5791 256.955 93.2945 257.417 93.1265 257.996V262.406H91.8945V255.098H93.0145V256.666C93.3131 256.124 93.7005 255.709 94.1765 255.42C94.6525 255.121 95.1891 254.972 95.7865 254.972C96.3931 254.972 96.8785 255.14 97.2425 255.476C97.6065 255.802 97.8305 256.227 97.9145 256.75C98.2411 256.171 98.6378 255.732 99.1045 255.434C99.5711 255.126 100.103 254.972 100.7 254.972C101.12 254.972 101.47 255.051 101.75 255.21C102.04 255.359 102.268 255.574 102.436 255.854C102.604 256.124 102.726 256.446 102.8 256.82C102.875 257.193 102.912 257.599 102.912 258.038V262.406ZM108.02 262.546C107.469 262.546 106.97 262.448 106.522 262.252C106.074 262.046 105.687 261.771 105.36 261.426C105.033 261.071 104.781 260.665 104.604 260.208C104.427 259.75 104.338 259.27 104.338 258.766C104.338 258.252 104.427 257.767 104.604 257.31C104.781 256.852 105.033 256.451 105.36 256.106C105.687 255.751 106.074 255.476 106.522 255.28C106.979 255.074 107.479 254.972 108.02 254.972C108.571 254.972 109.07 255.074 109.518 255.28C109.966 255.476 110.353 255.751 110.68 256.106C111.016 256.451 111.273 256.852 111.45 257.31C111.627 257.767 111.716 258.252 111.716 258.766C111.716 259.27 111.627 259.75 111.45 260.208C111.273 260.665 111.021 261.071 110.694 261.426C110.367 261.771 109.975 262.046 109.518 262.252C109.07 262.448 108.571 262.546 108.02 262.546ZM105.598 258.78C105.598 259.284 105.705 259.741 105.92 260.152C106.144 260.562 106.438 260.889 106.802 261.132C107.166 261.365 107.572 261.482 108.02 261.482C108.468 261.482 108.874 261.36 109.238 261.118C109.611 260.875 109.905 260.548 110.12 260.138C110.344 259.718 110.456 259.256 110.456 258.752C110.456 258.248 110.344 257.79 110.12 257.38C109.905 256.969 109.611 256.642 109.238 256.4C108.874 256.157 108.468 256.036 108.02 256.036C107.572 256.036 107.166 256.162 106.802 256.414C106.438 256.656 106.144 256.983 105.92 257.394C105.705 257.804 105.598 258.266 105.598 258.78ZM112.733 258.766C112.733 258.075 112.873 257.445 113.153 256.876C113.442 256.297 113.834 255.835 114.329 255.49C114.833 255.144 115.407 254.972 116.051 254.972C116.639 254.972 117.166 255.126 117.633 255.434C118.1 255.742 118.464 256.115 118.725 256.554V252.186H119.957V261.006C119.957 261.155 119.985 261.267 120.041 261.342C120.106 261.407 120.209 261.444 120.349 261.454V262.406C120.116 262.443 119.934 262.462 119.803 262.462C119.56 262.462 119.346 262.378 119.159 262.21C118.982 262.042 118.893 261.855 118.893 261.65V261.034C118.604 261.5 118.216 261.869 117.731 262.14C117.246 262.41 116.742 262.546 116.219 262.546C115.715 262.546 115.248 262.448 114.819 262.252C114.399 262.046 114.03 261.766 113.713 261.412C113.405 261.057 113.162 260.656 112.985 260.208C112.817 259.75 112.733 259.27 112.733 258.766ZM118.725 259.844V257.744C118.613 257.426 118.431 257.142 118.179 256.89C117.927 256.628 117.642 256.423 117.325 256.274C117.017 256.115 116.709 256.036 116.401 256.036C116.037 256.036 115.706 256.115 115.407 256.274C115.118 256.423 114.866 256.628 114.651 256.89C114.446 257.142 114.287 257.431 114.175 257.758C114.063 258.084 114.007 258.425 114.007 258.78C114.007 259.144 114.068 259.489 114.189 259.816C114.32 260.142 114.497 260.432 114.721 260.684C114.954 260.936 115.22 261.132 115.519 261.272C115.827 261.412 116.158 261.482 116.513 261.482C116.737 261.482 116.966 261.44 117.199 261.356C117.442 261.272 117.67 261.155 117.885 261.006C118.1 260.856 118.282 260.684 118.431 260.488C118.58 260.282 118.678 260.068 118.725 259.844ZM129.335 262.042C129.232 262.088 129.092 262.149 128.915 262.224C128.737 262.298 128.532 262.364 128.299 262.42C128.065 262.476 127.818 262.504 127.557 262.504C127.258 262.504 126.983 262.452 126.731 262.35C126.479 262.238 126.278 262.07 126.129 261.846C125.979 261.612 125.905 261.323 125.905 260.978V256.064H124.911V255.098H125.905V252.662H127.137V255.098H128.775V256.064H127.137V260.6C127.155 260.861 127.244 261.057 127.403 261.188C127.561 261.309 127.748 261.37 127.963 261.37C128.205 261.37 128.429 261.328 128.635 261.244C128.84 261.16 128.975 261.099 129.041 261.062L129.335 262.042ZM133.615 262.546C133.064 262.546 132.56 262.448 132.103 262.252C131.655 262.046 131.263 261.771 130.927 261.426C130.6 261.071 130.343 260.665 130.157 260.208C129.979 259.75 129.891 259.265 129.891 258.752C129.891 258.061 130.049 257.431 130.367 256.862C130.684 256.292 131.123 255.835 131.683 255.49C132.252 255.144 132.901 254.972 133.629 254.972C134.366 254.972 135.005 255.149 135.547 255.504C136.097 255.849 136.522 256.306 136.821 256.876C137.129 257.436 137.283 258.042 137.283 258.696C137.283 258.789 137.278 258.882 137.269 258.976C137.269 259.06 137.264 259.125 137.255 259.172H131.193C131.23 259.648 131.361 260.072 131.585 260.446C131.818 260.81 132.117 261.099 132.481 261.314C132.845 261.519 133.237 261.622 133.657 261.622C134.105 261.622 134.525 261.51 134.917 261.286C135.318 261.062 135.593 260.768 135.743 260.404L136.807 260.698C136.648 261.052 136.41 261.37 136.093 261.65C135.785 261.93 135.416 262.149 134.987 262.308C134.567 262.466 134.109 262.546 133.615 262.546ZM131.151 258.318H136.135C136.097 257.842 135.962 257.422 135.729 257.058C135.495 256.694 135.197 256.409 134.833 256.204C134.469 255.998 134.067 255.896 133.629 255.896C133.199 255.896 132.803 255.998 132.439 256.204C132.075 256.409 131.776 256.694 131.543 257.058C131.319 257.422 131.188 257.842 131.151 258.318ZM149.67 262.406H148.438V258.318C148.438 257.552 148.312 256.988 148.06 256.624C147.818 256.26 147.454 256.078 146.968 256.078C146.474 256.078 146.026 256.26 145.624 256.624C145.223 256.978 144.938 257.44 144.77 258.01V262.406H143.538V258.318C143.538 257.543 143.417 256.978 143.174 256.624C142.932 256.26 142.568 256.078 142.082 256.078C141.597 256.078 141.149 256.255 140.738 256.61C140.337 256.955 140.052 257.417 139.884 257.996V262.406H138.652V255.098H139.772V256.666C140.071 256.124 140.458 255.709 140.934 255.42C141.41 255.121 141.947 254.972 142.544 254.972C143.151 254.972 143.636 255.14 144 255.476C144.364 255.802 144.588 256.227 144.672 256.75C144.999 256.171 145.396 255.732 145.862 255.434C146.329 255.126 146.861 254.972 147.458 254.972C147.878 254.972 148.228 255.051 148.508 255.21C148.798 255.359 149.026 255.574 149.194 255.854C149.362 256.124 149.484 256.446 149.558 256.82C149.633 257.193 149.67 257.599 149.67 258.038V262.406ZM155.52 262.546C154.923 262.546 154.391 262.396 153.924 262.098C153.457 261.799 153.089 261.421 152.818 260.964V265.388H151.586V255.098H152.678V256.47C152.967 256.022 153.345 255.662 153.812 255.392C154.279 255.112 154.787 254.972 155.338 254.972C155.842 254.972 156.304 255.074 156.724 255.28C157.144 255.485 157.508 255.765 157.816 256.12C158.124 256.474 158.362 256.88 158.53 257.338C158.707 257.786 158.796 258.257 158.796 258.752C158.796 259.442 158.656 260.077 158.376 260.656C158.105 261.234 157.723 261.696 157.228 262.042C156.733 262.378 156.164 262.546 155.52 262.546ZM155.142 261.482C155.506 261.482 155.833 261.407 156.122 261.258C156.421 261.099 156.673 260.894 156.878 260.642C157.093 260.38 157.256 260.086 157.368 259.76C157.48 259.433 157.536 259.097 157.536 258.752C157.536 258.388 157.471 258.042 157.34 257.716C157.219 257.389 157.041 257.1 156.808 256.848C156.584 256.596 156.318 256.4 156.01 256.26C155.711 256.11 155.385 256.036 155.03 256.036C154.806 256.036 154.573 256.078 154.33 256.162C154.097 256.246 153.873 256.367 153.658 256.526C153.443 256.675 153.261 256.848 153.112 257.044C152.963 257.24 152.865 257.45 152.818 257.674V259.76C152.958 260.077 153.145 260.366 153.378 260.628C153.611 260.889 153.882 261.099 154.19 261.258C154.498 261.407 154.815 261.482 155.142 261.482ZM163.501 262.546C162.95 262.546 162.451 262.448 162.003 262.252C161.555 262.046 161.167 261.771 160.841 261.426C160.514 261.071 160.262 260.665 160.085 260.208C159.907 259.75 159.819 259.27 159.819 258.766C159.819 258.252 159.907 257.767 160.085 257.31C160.262 256.852 160.514 256.451 160.841 256.106C161.167 255.751 161.555 255.476 162.003 255.28C162.46 255.074 162.959 254.972 163.501 254.972C164.051 254.972 164.551 255.074 164.999 255.28C165.447 255.476 165.834 255.751 166.161 256.106C166.497 256.451 166.753 256.852 166.931 257.31C167.108 257.767 167.197 258.252 167.197 258.766C167.197 259.27 167.108 259.75 166.931 260.208C166.753 260.665 166.501 261.071 166.175 261.426C165.848 261.771 165.456 262.046 164.999 262.252C164.551 262.448 164.051 262.546 163.501 262.546ZM161.079 258.78C161.079 259.284 161.186 259.741 161.401 260.152C161.625 260.562 161.919 260.889 162.283 261.132C162.647 261.365 163.053 261.482 163.501 261.482C163.949 261.482 164.355 261.36 164.719 261.118C165.092 260.875 165.386 260.548 165.601 260.138C165.825 259.718 165.937 259.256 165.937 258.752C165.937 258.248 165.825 257.79 165.601 257.38C165.386 256.969 165.092 256.642 164.719 256.4C164.355 256.157 163.949 256.036 163.501 256.036C163.053 256.036 162.647 256.162 162.283 256.414C161.919 256.656 161.625 256.983 161.401 257.394C161.186 257.804 161.079 258.266 161.079 258.78ZM172.553 256.176C171.937 256.185 171.391 256.344 170.915 256.652C170.449 256.95 170.117 257.366 169.921 257.898V262.406H168.689V255.098H169.837V256.792C170.089 256.288 170.421 255.882 170.831 255.574C171.251 255.256 171.69 255.079 172.147 255.042C172.241 255.042 172.32 255.042 172.385 255.042C172.451 255.042 172.507 255.046 172.553 255.056V256.176ZM172.187 262.406V260.838H173.223V262.406H172.187ZM175.017 262.406V260.838H176.053V262.406H175.017ZM177.847 262.406V260.838H178.883V262.406H177.847Z" fill="#777777"/>
<path d="M47.2117 304.436L47.0857 301.664L53.6917 294.806H56.3197L50.8297 300.638L49.5337 302.06L47.2117 304.436ZM45.1237 307.406V294.806H47.4637V307.406H45.1237ZM53.9077 307.406L49.0837 301.664L50.6317 299.954L56.6437 307.406H53.9077ZM63.3168 297.686C64.0848 297.686 64.7688 297.836 65.3688 298.136C65.9808 298.436 66.4608 298.898 66.8088 299.522C67.1568 300.134 67.3308 300.926 67.3308 301.898V307.406H65.0808V302.186C65.0808 301.334 64.8768 300.698 64.4688 300.278C64.0728 299.858 63.5148 299.648 62.7948 299.648C62.2668 299.648 61.7988 299.756 61.3908 299.972C60.9828 300.188 60.6648 300.512 60.4368 300.944C60.2208 301.364 60.1128 301.898 60.1128 302.546V307.406H57.8628V297.794H60.0048V300.386L59.6268 299.594C59.9628 298.982 60.4488 298.514 61.0848 298.19C61.7328 297.854 62.4768 297.686 63.3168 297.686ZM74.5226 307.532C73.5386 307.532 72.6626 307.322 71.8946 306.902C71.1266 306.47 70.5206 305.882 70.0766 305.138C69.6326 304.394 69.4106 303.548 69.4106 302.6C69.4106 301.64 69.6326 300.794 70.0766 300.062C70.5206 299.318 71.1266 298.736 71.8946 298.316C72.6626 297.896 73.5386 297.686 74.5226 297.686C75.5186 297.686 76.4006 297.896 77.1686 298.316C77.9486 298.736 78.5546 299.312 78.9866 300.044C79.4306 300.776 79.6526 301.628 79.6526 302.6C79.6526 303.548 79.4306 304.394 78.9866 305.138C78.5546 305.882 77.9486 306.47 77.1686 306.902C76.4006 307.322 75.5186 307.532 74.5226 307.532ZM74.5226 305.606C75.0746 305.606 75.5666 305.486 75.9986 305.246C76.4306 305.006 76.7666 304.658 77.0066 304.202C77.2586 303.746 77.3846 303.212 77.3846 302.6C77.3846 301.976 77.2586 301.442 77.0066 300.998C76.7666 300.542 76.4306 300.194 75.9986 299.954C75.5666 299.714 75.0806 299.594 74.5406 299.594C73.9886 299.594 73.4966 299.714 73.0646 299.954C72.6446 300.194 72.3086 300.542 72.0566 300.998C71.8046 301.442 71.6786 301.976 71.6786 302.6C71.6786 303.212 71.8046 303.746 72.0566 304.202C72.3086 304.658 72.6446 305.006 73.0646 305.246C73.4966 305.486 73.9826 305.606 74.5226 305.606ZM83.6645 307.406L80.1365 297.794H82.2605L85.2845 306.272H84.2765L87.4445 297.794H89.3345L92.4125 306.272H91.4225L94.5365 297.794H96.5345L92.9885 307.406H90.8285L88.0205 299.9H88.6865L85.8245 307.406H83.6645ZM103.272 307.406V294.806H105.198L110.706 304.004H109.698L115.116 294.806H117.042L117.06 307.406H114.846L114.828 298.28H115.296L110.688 305.966H109.644L104.964 298.28H105.504V307.406H103.272ZM124.568 307.532C123.584 307.532 122.708 307.322 121.94 306.902C121.172 306.47 120.566 305.882 120.122 305.138C119.678 304.394 119.456 303.548 119.456 302.6C119.456 301.64 119.678 300.794 120.122 300.062C120.566 299.318 121.172 298.736 121.94 298.316C122.708 297.896 123.584 297.686 124.568 297.686C125.564 297.686 126.446 297.896 127.214 298.316C127.994 298.736 128.6 299.312 129.032 300.044C129.476 300.776 129.698 301.628 129.698 302.6C129.698 303.548 129.476 304.394 129.032 305.138C128.6 305.882 127.994 306.47 127.214 306.902C126.446 307.322 125.564 307.532 124.568 307.532ZM124.568 305.606C125.12 305.606 125.612 305.486 126.044 305.246C126.476 305.006 126.812 304.658 127.052 304.202C127.304 303.746 127.43 303.212 127.43 302.6C127.43 301.976 127.304 301.442 127.052 300.998C126.812 300.542 126.476 300.194 126.044 299.954C125.612 299.714 125.126 299.594 124.586 299.594C124.034 299.594 123.542 299.714 123.11 299.954C122.69 300.194 122.354 300.542 122.102 300.998C121.85 301.442 121.724 301.976 121.724 302.6C121.724 303.212 121.85 303.746 122.102 304.202C122.354 304.658 122.69 305.006 123.11 305.246C123.542 305.486 124.028 305.606 124.568 305.606ZM131.849 307.406V297.794H133.991V300.44L133.739 299.666C134.027 299.018 134.477 298.526 135.089 298.19C135.713 297.854 136.487 297.686 137.411 297.686V299.828C137.315 299.804 137.225 299.792 137.141 299.792C137.057 299.78 136.973 299.774 136.889 299.774C136.037 299.774 135.359 300.026 134.855 300.53C134.351 301.022 134.099 301.76 134.099 302.744V307.406H131.849ZM143.75 307.532C142.682 307.532 141.746 307.322 140.942 306.902C140.15 306.47 139.532 305.882 139.088 305.138C138.656 304.394 138.44 303.548 138.44 302.6C138.44 301.64 138.65 300.794 139.07 300.062C139.502 299.318 140.09 298.736 140.834 298.316C141.59 297.896 142.448 297.686 143.408 297.686C144.344 297.686 145.178 297.89 145.91 298.298C146.642 298.706 147.218 299.282 147.638 300.026C148.058 300.77 148.268 301.646 148.268 302.654C148.268 302.75 148.262 302.858 148.25 302.978C148.25 303.098 148.244 303.212 148.232 303.32H140.222V301.826H147.044L146.162 302.294C146.174 301.742 146.06 301.256 145.82 300.836C145.58 300.416 145.25 300.086 144.83 299.846C144.422 299.606 143.948 299.486 143.408 299.486C142.856 299.486 142.37 299.606 141.95 299.846C141.542 300.086 141.218 300.422 140.978 300.854C140.75 301.274 140.636 301.772 140.636 302.348V302.708C140.636 303.284 140.768 303.794 141.032 304.238C141.296 304.682 141.668 305.024 142.148 305.264C142.628 305.504 143.18 305.624 143.804 305.624C144.344 305.624 144.83 305.54 145.262 305.372C145.694 305.204 146.078 304.94 146.414 304.58L147.62 305.966C147.188 306.47 146.642 306.86 145.982 307.136C145.334 307.4 144.59 307.532 143.75 307.532Z" fill="#4A60A1"/>
<path d="M164.822 294.955C164.551 295.222 164.526 295.643 164.748 295.938L164.814 296.016L169.39 300.656L157.682 300.656C157.267 300.656 156.932 300.991 156.932 301.406C156.932 301.788 157.218 302.104 157.588 302.15L157.682 302.156H169.39L164.814 306.796C164.548 307.066 164.528 307.488 164.754 307.78L164.822 307.856C165.092 308.123 165.514 308.142 165.806 307.917L165.882 307.849L171.716 301.932C171.98 301.665 172.002 301.248 171.782 300.956L171.716 300.879L165.882 294.962C165.592 294.667 165.117 294.664 164.822 294.955Z" fill="#00B377"/>
<mask id="mask0_773_468" style="mask-type:luminance" maskUnits="userSpaceOnUse" x="49" y="95" width="70" height="55">
<path d="M102.46 117.436H66.1245C64.1177 117.436 62.4909 118.945 62.4909 120.806V144.398C62.4909 146.259 64.1177 147.768 66.1245 147.768H102.46C104.467 147.768 106.094 146.259 106.094 144.398V120.806C106.094 118.945 104.467 117.436 102.46 117.436Z" fill="white" stroke="white" stroke-width="4" stroke-linejoin="round"/>
<path d="M73.3917 117.436V107.325C73.3917 101.12 78.2716 97.2144 84.2925 97.2144C87.6536 97.2144 90.6568 98.431 92.6571 100.585C93.566 101.569 94.2475 102.716 94.6592 103.955" stroke="white" stroke-width="4" stroke-linecap="round" stroke-linejoin="round"/>
<path d="M84.2925 130.917V134.287" stroke="black" stroke-width="4" stroke-linecap="round" stroke-linejoin="round"/>
<path d="M51.5901 114.065V134.287M116.995 114.065V134.287" stroke="white" stroke-width="4" stroke-linecap="round" stroke-linejoin="round"/>
</mask>
<g mask="url(#mask0_773_468)">
<path d="M40.6894 83.7339H127.896V164.619H40.6894V83.7339Z" fill="#0B1C98"/>
</g>
<defs>
<filter id="filter0_d_773_468" x="0.431702" y="0.405762" width="290" height="377.979" filterUnits="userSpaceOnUse" color-interpolation-filters="sRGB">
<feFlood flood-opacity="0" result="BackgroundImageFix"/>
<feColorMatrix in="SourceAlpha" type="matrix" values="0 0 0 0 0 0 0 0 0 0 0 0 0 0 0 0 0 0 127 0" result="hardAlpha"/>
<feOffset/>
<feGaussianBlur stdDeviation="10"/>
<feComposite in2="hardAlpha" operator="out"/>
<feColorMatrix type="matrix" values="0 0 0 0 0.768627 0 0 0 0 0.768627 0 0 0 0 0.768627 0 0 0 0.15 0"/>
<feBlend mode="normal" in2="BackgroundImageFix" result="effect1_dropShadow_773_468"/>
<feBlend mode="normal" in="SourceGraphic" in2="effect1_dropShadow_773_468" result="shape"/>
</filter>
</defs>
</svg>
