<svg width="291" height="379" viewBox="0 0 291 379" fill="none" xmlns="http://www.w3.org/2000/svg">
<g filter="url(#filter0_d_773_488)">
<rect x="20.2744" y="20.6108" width="250" height="337.979" rx="12" fill="white"/>
<rect x="20.7744" y="21.1108" width="249" height="336.979" rx="11.5" stroke="black"/>
</g>
<path d="M46.0144 192.771C45.6411 192.771 45.3544 192.664 45.1544 192.451C44.9544 192.238 44.8544 191.944 44.8544 191.571V179.551C44.8544 179.164 44.9611 178.871 45.1744 178.671C45.3877 178.458 45.6811 178.351 46.0544 178.351C46.3877 178.351 46.6477 178.418 46.8344 178.551C47.0344 178.671 47.2144 178.884 47.3744 179.191L52.3144 188.331H51.6744L56.6144 179.191C56.7744 178.884 56.9477 178.671 57.1344 178.551C57.3211 178.418 57.5811 178.351 57.9144 178.351C58.2877 178.351 58.5744 178.458 58.7744 178.671C58.9744 178.871 59.0744 179.164 59.0744 179.551V191.571C59.0744 191.944 58.9744 192.238 58.7744 192.451C58.5877 192.664 58.3011 192.771 57.9144 192.771C57.5411 192.771 57.2544 192.664 57.0544 192.451C56.8544 192.238 56.7544 191.944 56.7544 191.571V182.311H57.1944L52.9944 189.971C52.8611 190.198 52.7211 190.364 52.5744 190.471C52.4277 190.578 52.2277 190.631 51.9744 190.631C51.7211 190.631 51.5144 190.578 51.3544 190.471C51.1944 190.351 51.0544 190.184 50.9344 189.971L46.6944 182.291H47.1744V191.571C47.1744 191.944 47.0744 192.238 46.8744 192.451C46.6877 192.664 46.4011 192.771 46.0144 192.771ZM65.1577 192.811C64.451 192.811 63.8177 192.678 63.2577 192.411C62.711 192.131 62.2777 191.758 61.9577 191.291C61.651 190.824 61.4977 190.298 61.4977 189.711C61.4977 188.991 61.6844 188.424 62.0577 188.011C62.431 187.584 63.0377 187.278 63.8777 187.091C64.7177 186.904 65.8444 186.811 67.2577 186.811H68.2577V188.251H67.2777C66.451 188.251 65.791 188.291 65.2977 188.371C64.8044 188.451 64.451 188.591 64.2377 188.791C64.0377 188.978 63.9377 189.244 63.9377 189.591C63.9377 190.031 64.091 190.391 64.3977 190.671C64.7044 190.951 65.131 191.091 65.6777 191.091C66.1177 191.091 66.5044 190.991 66.8377 190.791C67.1844 190.578 67.4577 190.291 67.6577 189.931C67.8577 189.571 67.9577 189.158 67.9577 188.691V186.391C67.9577 185.724 67.811 185.244 67.5177 184.951C67.2244 184.658 66.731 184.511 66.0377 184.511C65.651 184.511 65.231 184.558 64.7777 184.651C64.3377 184.744 63.871 184.904 63.3777 185.131C63.1244 185.251 62.8977 185.284 62.6977 185.231C62.511 185.178 62.3644 185.071 62.2577 184.911C62.151 184.738 62.0977 184.551 62.0977 184.351C62.0977 184.151 62.151 183.958 62.2577 183.771C62.3644 183.571 62.5444 183.424 62.7977 183.331C63.411 183.078 63.9977 182.898 64.5577 182.791C65.131 182.684 65.651 182.631 66.1177 182.631C67.0777 182.631 67.8644 182.778 68.4777 183.071C69.1044 183.364 69.571 183.811 69.8777 184.411C70.1844 184.998 70.3377 185.758 70.3377 186.691V191.491C70.3377 191.904 70.2377 192.224 70.0377 192.451C69.8377 192.664 69.551 192.771 69.1777 192.771C68.8044 192.771 68.511 192.664 68.2977 192.451C68.0977 192.224 67.9977 191.904 67.9977 191.491V190.531H68.1577C68.0644 190.998 67.8777 191.404 67.5977 191.751C67.331 192.084 66.991 192.344 66.5777 192.531C66.1644 192.718 65.691 192.811 65.1577 192.811ZM74.1152 192.771C73.7152 192.771 73.4085 192.664 73.1952 192.451C72.9819 192.224 72.8752 191.904 72.8752 191.491V183.931C72.8752 183.518 72.9819 183.204 73.1952 182.991C73.4085 182.778 73.7085 182.671 74.0952 182.671C74.4819 182.671 74.7819 182.778 74.9952 182.991C75.2085 183.204 75.3152 183.518 75.3152 183.931V185.291L75.0952 184.791C75.3885 184.084 75.8419 183.551 76.4552 183.191C77.0819 182.818 77.7885 182.631 78.5752 182.631C79.3619 182.631 80.0085 182.778 80.5152 183.071C81.0219 183.364 81.4019 183.811 81.6552 184.411C81.9085 184.998 82.0352 185.744 82.0352 186.651V191.491C82.0352 191.904 81.9285 192.224 81.7152 192.451C81.5019 192.664 81.1952 192.771 80.7952 192.771C80.3952 192.771 80.0819 192.664 79.8552 192.451C79.6419 192.224 79.5352 191.904 79.5352 191.491V186.771C79.5352 186.011 79.3885 185.458 79.0952 185.111C78.8152 184.764 78.3752 184.591 77.7752 184.591C77.0419 184.591 76.4552 184.824 76.0152 185.291C75.5885 185.744 75.3752 186.351 75.3752 187.111V191.491C75.3752 192.344 74.9552 192.771 74.1152 192.771ZM88.1144 192.811C87.3011 192.811 86.6277 192.664 86.0944 192.371C85.5611 192.064 85.1611 191.611 84.8944 191.011C84.6411 190.411 84.5144 189.664 84.5144 188.771V183.931C84.5144 183.504 84.6211 183.191 84.8344 182.991C85.0477 182.778 85.3544 182.671 85.7544 182.671C86.1544 182.671 86.4611 182.778 86.6744 182.991C86.9011 183.191 87.0144 183.504 87.0144 183.931V188.811C87.0144 189.504 87.1544 190.018 87.4344 190.351C87.7144 190.684 88.1611 190.851 88.7744 190.851C89.4411 190.851 89.9877 190.624 90.4144 190.171C90.8411 189.704 91.0544 189.091 91.0544 188.331V183.931C91.0544 183.504 91.1611 183.191 91.3744 182.991C91.5877 182.778 91.8944 182.671 92.2944 182.671C92.6944 182.671 93.0011 182.778 93.2144 182.991C93.4411 183.191 93.5544 183.504 93.5544 183.931V191.491C93.5544 192.344 93.1477 192.771 92.3344 192.771C91.9477 192.771 91.6477 192.664 91.4344 192.451C91.2211 192.224 91.1144 191.904 91.1144 191.491V189.971L91.3944 190.571C91.1144 191.291 90.6877 191.844 90.1144 192.231C89.5544 192.618 88.8877 192.811 88.1144 192.811ZM98.0764 192.771C97.6764 192.771 97.3631 192.664 97.1364 192.451C96.9231 192.224 96.8164 191.904 96.8164 191.491V184.711H95.8964C95.5764 184.711 95.3298 184.631 95.1564 184.471C94.9831 184.298 94.8964 184.064 94.8964 183.771C94.8964 183.464 94.9831 183.231 95.1564 183.071C95.3298 182.911 95.5764 182.831 95.8964 182.831H97.5364L96.8164 183.491V182.811C96.8164 181.438 97.1631 180.411 97.8564 179.731C98.5498 179.038 99.5498 178.631 100.856 178.511L101.536 178.451C101.803 178.424 102.016 178.471 102.176 178.591C102.336 178.698 102.443 178.844 102.496 179.031C102.55 179.204 102.556 179.384 102.516 179.571C102.476 179.758 102.39 179.924 102.256 180.071C102.136 180.204 101.976 180.278 101.776 180.291L101.496 180.311C100.736 180.364 100.183 180.558 99.8364 180.891C99.4898 181.224 99.3164 181.731 99.3164 182.411V183.151L98.9964 182.831H101.016C101.336 182.831 101.583 182.911 101.756 183.071C101.93 183.231 102.016 183.464 102.016 183.771C102.016 184.064 101.93 184.298 101.756 184.471C101.583 184.631 101.336 184.711 101.016 184.711H99.3164V191.491C99.3164 192.344 98.9031 192.771 98.0764 192.771ZM106.564 192.811C105.857 192.811 105.224 192.678 104.664 192.411C104.117 192.131 103.684 191.758 103.364 191.291C103.057 190.824 102.904 190.298 102.904 189.711C102.904 188.991 103.091 188.424 103.464 188.011C103.837 187.584 104.444 187.278 105.284 187.091C106.124 186.904 107.251 186.811 108.664 186.811H109.664V188.251H108.684C107.857 188.251 107.197 188.291 106.704 188.371C106.211 188.451 105.857 188.591 105.644 188.791C105.444 188.978 105.344 189.244 105.344 189.591C105.344 190.031 105.497 190.391 105.804 190.671C106.111 190.951 106.537 191.091 107.084 191.091C107.524 191.091 107.911 190.991 108.244 190.791C108.591 190.578 108.864 190.291 109.064 189.931C109.264 189.571 109.364 189.158 109.364 188.691V186.391C109.364 185.724 109.217 185.244 108.924 184.951C108.631 184.658 108.137 184.511 107.444 184.511C107.057 184.511 106.637 184.558 106.184 184.651C105.744 184.744 105.277 184.904 104.784 185.131C104.531 185.251 104.304 185.284 104.104 185.231C103.917 185.178 103.771 185.071 103.664 184.911C103.557 184.738 103.504 184.551 103.504 184.351C103.504 184.151 103.557 183.958 103.664 183.771C103.771 183.571 103.951 183.424 104.204 183.331C104.817 183.078 105.404 182.898 105.964 182.791C106.537 182.684 107.057 182.631 107.524 182.631C108.484 182.631 109.271 182.778 109.884 183.071C110.511 183.364 110.977 183.811 111.284 184.411C111.591 184.998 111.744 185.758 111.744 186.691V191.491C111.744 191.904 111.644 192.224 111.444 192.451C111.244 192.664 110.957 192.771 110.584 192.771C110.211 192.771 109.917 192.664 109.704 192.451C109.504 192.224 109.404 191.904 109.404 191.491V190.531H109.564C109.471 190.998 109.284 191.404 109.004 191.751C108.737 192.084 108.397 192.344 107.984 192.531C107.571 192.718 107.097 192.811 106.564 192.811ZM118.801 192.811C117.775 192.811 116.881 192.604 116.121 192.191C115.361 191.764 114.775 191.164 114.361 190.391C113.948 189.618 113.741 188.711 113.741 187.671C113.741 186.884 113.855 186.184 114.081 185.571C114.321 184.944 114.661 184.418 115.101 183.991C115.541 183.551 116.075 183.218 116.701 182.991C117.328 182.751 118.028 182.631 118.801 182.631C119.241 182.631 119.715 182.691 120.221 182.811C120.741 182.931 121.228 183.131 121.681 183.411C121.895 183.544 122.035 183.704 122.101 183.891C122.168 184.078 122.181 184.271 122.141 184.471C122.101 184.658 122.015 184.824 121.881 184.971C121.761 185.104 121.608 185.191 121.421 185.231C121.235 185.258 121.028 185.211 120.801 185.091C120.508 184.918 120.208 184.791 119.901 184.711C119.595 184.618 119.301 184.571 119.021 184.571C118.581 184.571 118.195 184.644 117.861 184.791C117.528 184.924 117.241 185.124 117.001 185.391C116.775 185.644 116.601 185.964 116.481 186.351C116.361 186.738 116.301 187.184 116.301 187.691C116.301 188.678 116.535 189.458 117.001 190.031C117.481 190.591 118.155 190.871 119.021 190.871C119.301 190.871 119.588 190.831 119.881 190.751C120.188 190.671 120.495 190.544 120.801 190.371C121.028 190.251 121.228 190.211 121.401 190.251C121.588 190.291 121.741 190.384 121.861 190.531C121.981 190.664 122.055 190.831 122.081 191.031C122.108 191.218 122.081 191.404 122.001 191.591C121.935 191.778 121.801 191.931 121.601 192.051C121.161 192.318 120.695 192.511 120.201 192.631C119.708 192.751 119.241 192.811 118.801 192.811ZM128.234 192.811C127.367 192.811 126.641 192.664 126.054 192.371C125.481 192.078 125.054 191.651 124.774 191.091C124.494 190.518 124.354 189.811 124.354 188.971V184.711H123.314C122.994 184.711 122.747 184.631 122.574 184.471C122.401 184.298 122.314 184.064 122.314 183.771C122.314 183.464 122.401 183.231 122.574 183.071C122.747 182.911 122.994 182.831 123.314 182.831H124.354V181.011C124.354 180.598 124.461 180.284 124.674 180.071C124.901 179.858 125.214 179.751 125.614 179.751C126.014 179.751 126.321 179.858 126.534 180.071C126.747 180.284 126.854 180.598 126.854 181.011V182.831H128.974C129.294 182.831 129.541 182.911 129.714 183.071C129.887 183.231 129.974 183.464 129.974 183.771C129.974 184.064 129.887 184.298 129.714 184.471C129.541 184.631 129.294 184.711 128.974 184.711H126.854V188.831C126.854 189.471 126.994 189.951 127.274 190.271C127.554 190.591 128.007 190.751 128.634 190.751C128.861 190.751 129.061 190.731 129.234 190.691C129.407 190.651 129.561 190.624 129.694 190.611C129.854 190.598 129.987 190.651 130.094 190.771C130.201 190.878 130.254 191.104 130.254 191.451C130.254 191.718 130.207 191.958 130.114 192.171C130.034 192.371 129.881 192.511 129.654 192.591C129.481 192.644 129.254 192.691 128.974 192.731C128.694 192.784 128.447 192.811 128.234 192.811ZM134.97 192.811C134.157 192.811 133.483 192.664 132.95 192.371C132.417 192.064 132.017 191.611 131.75 191.011C131.497 190.411 131.37 189.664 131.37 188.771V183.931C131.37 183.504 131.477 183.191 131.69 182.991C131.903 182.778 132.21 182.671 132.61 182.671C133.01 182.671 133.317 182.778 133.53 182.991C133.757 183.191 133.87 183.504 133.87 183.931V188.811C133.87 189.504 134.01 190.018 134.29 190.351C134.57 190.684 135.017 190.851 135.63 190.851C136.297 190.851 136.843 190.624 137.27 190.171C137.697 189.704 137.91 189.091 137.91 188.331V183.931C137.91 183.504 138.017 183.191 138.23 182.991C138.443 182.778 138.75 182.671 139.15 182.671C139.55 182.671 139.857 182.778 140.07 182.991C140.297 183.191 140.41 183.504 140.41 183.931V191.491C140.41 192.344 140.003 192.771 139.19 192.771C138.803 192.771 138.503 192.664 138.29 192.451C138.077 192.224 137.97 191.904 137.97 191.491V189.971L138.25 190.571C137.97 191.291 137.543 191.844 136.97 192.231C136.41 192.618 135.743 192.811 134.97 192.811ZM144.292 192.771C143.879 192.771 143.559 192.664 143.332 192.451C143.119 192.224 143.012 191.904 143.012 191.491V183.931C143.012 183.518 143.119 183.204 143.332 182.991C143.545 182.778 143.845 182.671 144.232 182.671C144.619 182.671 144.919 182.778 145.132 182.991C145.345 183.204 145.452 183.518 145.452 183.931V185.191H145.252C145.439 184.391 145.805 183.784 146.352 183.371C146.899 182.958 147.625 182.711 148.532 182.631C148.812 182.604 149.032 182.678 149.192 182.851C149.365 183.011 149.465 183.264 149.492 183.611C149.519 183.944 149.439 184.218 149.252 184.431C149.079 184.631 148.812 184.751 148.452 184.791L148.012 184.831C147.199 184.911 146.585 185.164 146.172 185.591C145.759 186.004 145.552 186.591 145.552 187.351V191.491C145.552 191.904 145.445 192.224 145.232 192.451C145.019 192.664 144.705 192.771 144.292 192.771ZM152.084 192.751C151.684 192.751 151.377 192.631 151.164 192.391C150.951 192.151 150.844 191.818 150.844 191.391V184.051C150.844 183.611 150.951 183.278 151.164 183.051C151.377 182.811 151.684 182.691 152.084 182.691C152.484 182.691 152.791 182.811 153.004 183.051C153.231 183.278 153.344 183.611 153.344 184.051V191.391C153.344 191.818 153.237 192.151 153.024 192.391C152.811 192.631 152.497 192.751 152.084 192.751ZM152.084 180.831C151.617 180.831 151.251 180.718 150.984 180.491C150.731 180.251 150.604 179.924 150.604 179.511C150.604 179.084 150.731 178.758 150.984 178.531C151.251 178.304 151.617 178.191 152.084 178.191C152.564 178.191 152.931 178.304 153.184 178.531C153.437 178.758 153.564 179.084 153.564 179.511C153.564 179.924 153.437 180.251 153.184 180.491C152.931 180.718 152.564 180.831 152.084 180.831ZM157.182 192.771C156.782 192.771 156.475 192.664 156.262 192.451C156.048 192.224 155.942 191.904 155.942 191.491V183.931C155.942 183.518 156.048 183.204 156.262 182.991C156.475 182.778 156.775 182.671 157.162 182.671C157.548 182.671 157.848 182.778 158.062 182.991C158.275 183.204 158.382 183.518 158.382 183.931V185.291L158.162 184.791C158.455 184.084 158.908 183.551 159.522 183.191C160.148 182.818 160.855 182.631 161.642 182.631C162.428 182.631 163.075 182.778 163.582 183.071C164.088 183.364 164.468 183.811 164.722 184.411C164.975 184.998 165.102 185.744 165.102 186.651V191.491C165.102 191.904 164.995 192.224 164.782 192.451C164.568 192.664 164.262 192.771 163.862 192.771C163.462 192.771 163.148 192.664 162.922 192.451C162.708 192.224 162.602 191.904 162.602 191.491V186.771C162.602 186.011 162.455 185.458 162.162 185.111C161.882 184.764 161.442 184.591 160.842 184.591C160.108 184.591 159.522 184.824 159.082 185.291C158.655 185.744 158.442 186.351 158.442 187.111V191.491C158.442 192.344 158.022 192.771 157.182 192.771ZM172.201 196.411C171.481 196.411 170.781 196.344 170.101 196.211C169.434 196.078 168.827 195.871 168.281 195.591C168.027 195.458 167.854 195.298 167.761 195.111C167.681 194.924 167.654 194.731 167.681 194.531C167.721 194.344 167.801 194.178 167.921 194.031C168.054 193.884 168.214 193.784 168.401 193.731C168.587 193.678 168.781 193.704 168.981 193.811C169.567 194.104 170.121 194.291 170.641 194.371C171.174 194.464 171.627 194.511 172.001 194.511C172.894 194.511 173.561 194.291 174.001 193.851C174.454 193.424 174.681 192.784 174.681 191.931V190.131H174.861C174.661 190.811 174.241 191.358 173.601 191.771C172.974 192.171 172.261 192.371 171.461 192.371C170.581 192.371 169.814 192.171 169.161 191.771C168.507 191.358 168.001 190.784 167.641 190.051C167.281 189.318 167.101 188.464 167.101 187.491C167.101 186.758 167.201 186.098 167.401 185.511C167.614 184.911 167.907 184.398 168.281 183.971C168.667 183.544 169.127 183.218 169.661 182.991C170.207 182.751 170.807 182.631 171.461 182.631C172.287 182.631 173.007 182.838 173.621 183.251C174.247 183.651 174.654 184.184 174.841 184.851L174.641 185.351V183.931C174.641 183.518 174.747 183.204 174.961 182.991C175.187 182.778 175.494 182.671 175.881 182.671C176.281 182.671 176.587 182.778 176.801 182.991C177.014 183.204 177.121 183.518 177.121 183.931V191.631C177.121 193.218 176.701 194.411 175.861 195.211C175.021 196.011 173.801 196.411 172.201 196.411ZM172.141 190.471C172.661 190.471 173.107 190.351 173.481 190.111C173.854 189.871 174.141 189.531 174.341 189.091C174.554 188.638 174.661 188.104 174.661 187.491C174.661 186.571 174.434 185.851 173.981 185.331C173.527 184.798 172.914 184.531 172.141 184.531C171.621 184.531 171.174 184.651 170.801 184.891C170.427 185.131 170.134 185.471 169.921 185.911C169.721 186.351 169.621 186.878 169.621 187.491C169.621 188.411 169.847 189.138 170.301 189.671C170.754 190.204 171.367 190.471 172.141 190.471Z" fill="#212D4D"/>
<path d="M44.4644 220.611V210.671H45.7244V219.491H51.2684V220.611H44.4644ZM55.5268 220.751C54.9762 220.751 54.4768 220.653 54.0288 220.457C53.5808 220.252 53.1935 219.976 52.8668 219.631C52.5402 219.276 52.2882 218.87 52.1108 218.413C51.9335 217.956 51.8448 217.475 51.8448 216.971C51.8448 216.458 51.9335 215.972 52.1108 215.515C52.2882 215.058 52.5402 214.656 52.8668 214.311C53.1935 213.956 53.5808 213.681 54.0288 213.485C54.4862 213.28 54.9855 213.177 55.5268 213.177C56.0775 213.177 56.5768 213.28 57.0248 213.485C57.4728 213.681 57.8602 213.956 58.1868 214.311C58.5228 214.656 58.7795 215.058 58.9568 215.515C59.1342 215.972 59.2228 216.458 59.2228 216.971C59.2228 217.475 59.1342 217.956 58.9568 218.413C58.7795 218.87 58.5275 219.276 58.2008 219.631C57.8742 219.976 57.4822 220.252 57.0248 220.457C56.5768 220.653 56.0775 220.751 55.5268 220.751ZM53.1048 216.985C53.1048 217.489 53.2122 217.946 53.4268 218.357C53.6508 218.768 53.9448 219.094 54.3088 219.337C54.6728 219.57 55.0788 219.687 55.5268 219.687C55.9748 219.687 56.3808 219.566 56.7448 219.323C57.1182 219.08 57.4122 218.754 57.6268 218.343C57.8508 217.923 57.9628 217.461 57.9628 216.957C57.9628 216.453 57.8508 215.996 57.6268 215.585C57.4122 215.174 57.1182 214.848 56.7448 214.605C56.3808 214.362 55.9748 214.241 55.5268 214.241C55.0788 214.241 54.6728 214.367 54.3088 214.619C53.9448 214.862 53.6508 215.188 53.4268 215.599C53.2122 216.01 53.1048 216.472 53.1048 216.985ZM64.5797 214.381C63.9637 214.39 63.4177 214.549 62.9417 214.857C62.475 215.156 62.1437 215.571 61.9477 216.103V220.611H60.7157V213.303H61.8637V214.997C62.1157 214.493 62.447 214.087 62.8577 213.779C63.2777 213.462 63.7163 213.284 64.1737 213.247C64.267 213.247 64.3463 213.247 64.4117 213.247C64.477 213.247 64.533 213.252 64.5797 213.261V214.381ZM68.8579 220.751C68.3072 220.751 67.8032 220.653 67.3459 220.457C66.8979 220.252 66.5059 219.976 66.1699 219.631C65.8432 219.276 65.5865 218.87 65.3999 218.413C65.2225 217.956 65.1339 217.47 65.1339 216.957C65.1339 216.266 65.2925 215.636 65.6099 215.067C65.9272 214.498 66.3659 214.04 66.9259 213.695C67.4952 213.35 68.1439 213.177 68.8719 213.177C69.6092 213.177 70.2485 213.354 70.7899 213.709C71.3405 214.054 71.7652 214.512 72.0639 215.081C72.3719 215.641 72.5259 216.248 72.5259 216.901C72.5259 216.994 72.5212 217.088 72.5119 217.181C72.5119 217.265 72.5072 217.33 72.4979 217.377H66.4359C66.4732 217.853 66.6039 218.278 66.8279 218.651C67.0612 219.015 67.3599 219.304 67.7239 219.519C68.0879 219.724 68.4799 219.827 68.8999 219.827C69.3479 219.827 69.7679 219.715 70.1599 219.491C70.5612 219.267 70.8365 218.973 70.9859 218.609L72.0499 218.903C71.8912 219.258 71.6532 219.575 71.3359 219.855C71.0279 220.135 70.6592 220.354 70.2299 220.513C69.8099 220.672 69.3525 220.751 68.8579 220.751ZM66.3939 216.523H71.3779C71.3405 216.047 71.2052 215.627 70.9719 215.263C70.7385 214.899 70.4399 214.614 70.0759 214.409C69.7119 214.204 69.3105 214.101 68.8719 214.101C68.4425 214.101 68.0459 214.204 67.6819 214.409C67.3179 214.614 67.0192 214.899 66.7859 215.263C66.5619 215.627 66.4312 216.047 66.3939 216.523ZM84.9134 220.611H83.6814V216.523C83.6814 215.758 83.5554 215.193 83.3034 214.829C83.0607 214.465 82.6967 214.283 82.2114 214.283C81.7167 214.283 81.2687 214.465 80.8674 214.829C80.466 215.184 80.1814 215.646 80.0134 216.215V220.611H78.7814V216.523C78.7814 215.748 78.66 215.184 78.4174 214.829C78.1747 214.465 77.8107 214.283 77.3254 214.283C76.84 214.283 76.392 214.46 75.9814 214.815C75.58 215.16 75.2954 215.622 75.1274 216.201V220.611H73.8954V213.303H75.0154V214.871C75.314 214.33 75.7014 213.914 76.1774 213.625C76.6534 213.326 77.19 213.177 77.7874 213.177C78.394 213.177 78.8794 213.345 79.2434 213.681C79.6074 214.008 79.8314 214.432 79.9154 214.955C80.242 214.376 80.6387 213.938 81.1054 213.639C81.572 213.331 82.104 213.177 82.7014 213.177C83.1214 213.177 83.4714 213.256 83.7514 213.415C84.0407 213.564 84.2694 213.779 84.4374 214.059C84.6054 214.33 84.7267 214.652 84.8014 215.025C84.876 215.398 84.9134 215.804 84.9134 216.243V220.611ZM90.37 220.611V213.303H91.602V220.611H90.37ZM90.37 211.931V210.391H91.602V211.931H90.37ZM97.5305 220.751C96.9332 220.751 96.4012 220.602 95.9345 220.303C95.4679 220.004 95.0992 219.626 94.8285 219.169V223.593H93.5965V213.303H94.6885V214.675C94.9779 214.227 95.3559 213.868 95.8225 213.597C96.2892 213.317 96.7979 213.177 97.3485 213.177C97.8525 213.177 98.3145 213.28 98.7345 213.485C99.1545 213.69 99.5185 213.97 99.8265 214.325C100.135 214.68 100.373 215.086 100.541 215.543C100.718 215.991 100.807 216.462 100.807 216.957C100.807 217.648 100.667 218.282 100.387 218.861C100.116 219.44 99.7332 219.902 99.2385 220.247C98.7439 220.583 98.1745 220.751 97.5305 220.751ZM97.1525 219.687C97.5165 219.687 97.8432 219.612 98.1325 219.463C98.4312 219.304 98.6832 219.099 98.8885 218.847C99.1032 218.586 99.2665 218.292 99.3785 217.965C99.4905 217.638 99.5465 217.302 99.5465 216.957C99.5465 216.593 99.4812 216.248 99.3505 215.921C99.2292 215.594 99.0519 215.305 98.8185 215.053C98.5945 214.801 98.3285 214.605 98.0205 214.465C97.7219 214.316 97.3952 214.241 97.0405 214.241C96.8165 214.241 96.5832 214.283 96.3405 214.367C96.1072 214.451 95.8832 214.572 95.6685 214.731C95.4539 214.88 95.2719 215.053 95.1225 215.249C94.9732 215.445 94.8752 215.655 94.8285 215.879V217.965C94.9685 218.282 95.1552 218.572 95.3885 218.833C95.6219 219.094 95.8925 219.304 96.2005 219.463C96.5085 219.612 96.8259 219.687 97.1525 219.687ZM104.825 220.751C104.219 220.751 103.649 220.653 103.117 220.457C102.585 220.252 102.128 219.948 101.745 219.547L102.221 218.679C102.641 219.071 103.061 219.351 103.481 219.519C103.901 219.687 104.331 219.771 104.769 219.771C105.273 219.771 105.684 219.678 106.001 219.491C106.319 219.295 106.477 219.01 106.477 218.637C106.477 218.366 106.393 218.166 106.225 218.035C106.067 217.904 105.838 217.797 105.539 217.713C105.241 217.62 104.886 217.517 104.475 217.405C103.971 217.256 103.547 217.097 103.201 216.929C102.856 216.761 102.595 216.551 102.417 216.299C102.24 216.047 102.151 215.73 102.151 215.347C102.151 214.88 102.273 214.488 102.515 214.171C102.758 213.844 103.089 213.597 103.509 213.429C103.939 213.261 104.424 213.177 104.965 213.177C105.507 213.177 105.997 213.261 106.435 213.429C106.874 213.597 107.252 213.844 107.569 214.171L107.009 215.025C106.72 214.726 106.403 214.507 106.057 214.367C105.712 214.218 105.325 214.143 104.895 214.143C104.643 214.143 104.396 214.176 104.153 214.241C103.911 214.297 103.71 214.404 103.551 214.563C103.393 214.712 103.313 214.927 103.313 215.207C103.313 215.44 103.374 215.627 103.495 215.767C103.626 215.898 103.813 216.01 104.055 216.103C104.307 216.196 104.611 216.299 104.965 216.411C105.516 216.57 105.992 216.728 106.393 216.887C106.804 217.046 107.121 217.251 107.345 217.503C107.569 217.755 107.681 218.105 107.681 218.553C107.681 219.244 107.42 219.785 106.897 220.177C106.375 220.56 105.684 220.751 104.825 220.751ZM109.085 217.685V213.303H110.317V217.447C110.317 218.194 110.448 218.754 110.709 219.127C110.97 219.5 111.358 219.687 111.871 219.687C112.207 219.687 112.529 219.617 112.837 219.477C113.154 219.328 113.439 219.118 113.691 218.847C113.943 218.576 114.139 218.254 114.279 217.881V213.303H115.511V219.211C115.511 219.36 115.539 219.472 115.595 219.547C115.66 219.612 115.763 219.65 115.903 219.659V220.611C115.763 220.63 115.651 220.639 115.567 220.639C115.492 220.648 115.418 220.653 115.343 220.653C115.11 220.653 114.909 220.583 114.741 220.443C114.573 220.294 114.484 220.112 114.475 219.897L114.447 219.043C114.13 219.584 113.7 220.004 113.159 220.303C112.627 220.602 112.044 220.751 111.409 220.751C110.644 220.751 110.065 220.494 109.673 219.981C109.281 219.458 109.085 218.693 109.085 217.685ZM128.581 220.611H127.349V216.523C127.349 215.758 127.223 215.193 126.971 214.829C126.729 214.465 126.365 214.283 125.879 214.283C125.385 214.283 124.937 214.465 124.535 214.829C124.134 215.184 123.849 215.646 123.681 216.215V220.611H122.449V216.523C122.449 215.748 122.328 215.184 122.085 214.829C121.843 214.465 121.479 214.283 120.993 214.283C120.508 214.283 120.06 214.46 119.649 214.815C119.248 215.16 118.963 215.622 118.795 216.201V220.611H117.563V213.303H118.683V214.871C118.982 214.33 119.369 213.914 119.845 213.625C120.321 213.326 120.858 213.177 121.455 213.177C122.062 213.177 122.547 213.345 122.911 213.681C123.275 214.008 123.499 214.432 123.583 214.955C123.91 214.376 124.307 213.938 124.773 213.639C125.24 213.331 125.772 213.177 126.369 213.177C126.789 213.177 127.139 213.256 127.419 213.415C127.709 213.564 127.937 213.779 128.105 214.059C128.273 214.33 128.395 214.652 128.469 215.025C128.544 215.398 128.581 215.804 128.581 216.243V220.611ZM133.562 216.971C133.562 216.28 133.702 215.65 133.982 215.081C134.271 214.502 134.663 214.04 135.158 213.695C135.662 213.35 136.236 213.177 136.88 213.177C137.468 213.177 137.995 213.331 138.462 213.639C138.929 213.947 139.293 214.32 139.554 214.759V210.391H140.786V219.211C140.786 219.36 140.814 219.472 140.87 219.547C140.935 219.612 141.038 219.65 141.178 219.659V220.611C140.945 220.648 140.763 220.667 140.632 220.667C140.389 220.667 140.175 220.583 139.988 220.415C139.811 220.247 139.722 220.06 139.722 219.855V219.239C139.433 219.706 139.045 220.074 138.56 220.345C138.075 220.616 137.571 220.751 137.048 220.751C136.544 220.751 136.077 220.653 135.648 220.457C135.228 220.252 134.859 219.972 134.542 219.617C134.234 219.262 133.991 218.861 133.814 218.413C133.646 217.956 133.562 217.475 133.562 216.971ZM139.554 218.049V215.949C139.442 215.632 139.26 215.347 139.008 215.095C138.756 214.834 138.471 214.628 138.154 214.479C137.846 214.32 137.538 214.241 137.23 214.241C136.866 214.241 136.535 214.32 136.236 214.479C135.947 214.628 135.695 214.834 135.48 215.095C135.275 215.347 135.116 215.636 135.004 215.963C134.892 216.29 134.836 216.63 134.836 216.985C134.836 217.349 134.897 217.694 135.018 218.021C135.149 218.348 135.326 218.637 135.55 218.889C135.783 219.141 136.049 219.337 136.348 219.477C136.656 219.617 136.987 219.687 137.342 219.687C137.566 219.687 137.795 219.645 138.028 219.561C138.271 219.477 138.499 219.36 138.714 219.211C138.929 219.062 139.111 218.889 139.26 218.693C139.409 218.488 139.507 218.273 139.554 218.049ZM146.035 220.751C145.484 220.751 144.985 220.653 144.537 220.457C144.089 220.252 143.701 219.976 143.375 219.631C143.048 219.276 142.796 218.87 142.619 218.413C142.441 217.956 142.353 217.475 142.353 216.971C142.353 216.458 142.441 215.972 142.619 215.515C142.796 215.058 143.048 214.656 143.375 214.311C143.701 213.956 144.089 213.681 144.537 213.485C144.994 213.28 145.493 213.177 146.035 213.177C146.585 213.177 147.085 213.28 147.533 213.485C147.981 213.681 148.368 213.956 148.695 214.311C149.031 214.656 149.287 215.058 149.465 215.515C149.642 215.972 149.731 216.458 149.731 216.971C149.731 217.475 149.642 217.956 149.465 218.413C149.287 218.87 149.035 219.276 148.709 219.631C148.382 219.976 147.99 220.252 147.533 220.457C147.085 220.653 146.585 220.751 146.035 220.751ZM143.613 216.985C143.613 217.489 143.72 217.946 143.935 218.357C144.159 218.768 144.453 219.094 144.817 219.337C145.181 219.57 145.587 219.687 146.035 219.687C146.483 219.687 146.889 219.566 147.253 219.323C147.626 219.08 147.92 218.754 148.135 218.343C148.359 217.923 148.471 217.461 148.471 216.957C148.471 216.453 148.359 215.996 148.135 215.585C147.92 215.174 147.626 214.848 147.253 214.605C146.889 214.362 146.483 214.241 146.035 214.241C145.587 214.241 145.181 214.367 144.817 214.619C144.453 214.862 144.159 215.188 143.935 215.599C143.72 216.01 143.613 216.472 143.613 216.985ZM151.251 210.391H152.483V218.721C152.483 219.122 152.539 219.37 152.651 219.463C152.763 219.556 152.899 219.603 153.057 219.603C153.253 219.603 153.44 219.584 153.617 219.547C153.795 219.5 153.944 219.454 154.065 219.407L154.261 220.415C154.056 220.499 153.813 220.569 153.533 220.625C153.253 220.681 153.006 220.709 152.791 220.709C152.315 220.709 151.937 220.574 151.657 220.303C151.387 220.032 151.251 219.654 151.251 219.169V210.391ZM158.421 220.751C157.871 220.751 157.371 220.653 156.923 220.457C156.475 220.252 156.088 219.976 155.761 219.631C155.435 219.276 155.183 218.87 155.005 218.413C154.828 217.956 154.739 217.475 154.739 216.971C154.739 216.458 154.828 215.972 155.005 215.515C155.183 215.058 155.435 214.656 155.761 214.311C156.088 213.956 156.475 213.681 156.923 213.485C157.381 213.28 157.88 213.177 158.421 213.177C158.972 213.177 159.471 213.28 159.919 213.485C160.367 213.681 160.755 213.956 161.081 214.311C161.417 214.656 161.674 215.058 161.851 215.515C162.029 215.972 162.117 216.458 162.117 216.971C162.117 217.475 162.029 217.956 161.851 218.413C161.674 218.87 161.422 219.276 161.095 219.631C160.769 219.976 160.377 220.252 159.919 220.457C159.471 220.653 158.972 220.751 158.421 220.751ZM155.999 216.985C155.999 217.489 156.107 217.946 156.321 218.357C156.545 218.768 156.839 219.094 157.203 219.337C157.567 219.57 157.973 219.687 158.421 219.687C158.869 219.687 159.275 219.566 159.639 219.323C160.013 219.08 160.307 218.754 160.521 218.343C160.745 217.923 160.857 217.461 160.857 216.957C160.857 216.453 160.745 215.996 160.521 215.585C160.307 215.174 160.013 214.848 159.639 214.605C159.275 214.362 158.869 214.241 158.421 214.241C157.973 214.241 157.567 214.367 157.203 214.619C156.839 214.862 156.545 215.188 156.321 215.599C156.107 216.01 155.999 216.472 155.999 216.985ZM167.474 214.381C166.858 214.39 166.312 214.549 165.836 214.857C165.37 215.156 165.038 215.571 164.842 216.103V220.611H163.61V213.303H164.758V214.997C165.01 214.493 165.342 214.087 165.752 213.779C166.172 213.462 166.611 213.284 167.068 213.247C167.162 213.247 167.241 213.247 167.306 213.247C167.372 213.247 167.428 213.252 167.474 213.261V214.381ZM174.415 220.751C173.808 220.751 173.239 220.653 172.707 220.457C172.175 220.252 171.718 219.948 171.335 219.547L171.811 218.679C172.231 219.071 172.651 219.351 173.071 219.519C173.491 219.687 173.92 219.771 174.359 219.771C174.863 219.771 175.274 219.678 175.591 219.491C175.908 219.295 176.067 219.01 176.067 218.637C176.067 218.366 175.983 218.166 175.815 218.035C175.656 217.904 175.428 217.797 175.129 217.713C174.83 217.62 174.476 217.517 174.065 217.405C173.561 217.256 173.136 217.097 172.791 216.929C172.446 216.761 172.184 216.551 172.007 216.299C171.83 216.047 171.741 215.73 171.741 215.347C171.741 214.88 171.862 214.488 172.105 214.171C172.348 213.844 172.679 213.597 173.099 213.429C173.528 213.261 174.014 213.177 174.555 213.177C175.096 213.177 175.586 213.261 176.025 213.429C176.464 213.597 176.842 213.844 177.159 214.171L176.599 215.025C176.31 214.726 175.992 214.507 175.647 214.367C175.302 214.218 174.914 214.143 174.485 214.143C174.233 214.143 173.986 214.176 173.743 214.241C173.5 214.297 173.3 214.404 173.141 214.563C172.982 214.712 172.903 214.927 172.903 215.207C172.903 215.44 172.964 215.627 173.085 215.767C173.216 215.898 173.402 216.01 173.645 216.103C173.897 216.196 174.2 216.299 174.555 216.411C175.106 216.57 175.582 216.728 175.983 216.887C176.394 217.046 176.711 217.251 176.935 217.503C177.159 217.755 177.271 218.105 177.271 218.553C177.271 219.244 177.01 219.785 176.487 220.177C175.964 220.56 175.274 220.751 174.415 220.751ZM178.745 220.611V213.303H179.977V220.611H178.745ZM178.745 211.931V210.391H179.977V211.931H178.745ZM185.752 220.247C185.649 220.294 185.509 220.354 185.332 220.429C185.154 220.504 184.949 220.569 184.716 220.625C184.482 220.681 184.235 220.709 183.974 220.709C183.675 220.709 183.4 220.658 183.148 220.555C182.896 220.443 182.695 220.275 182.546 220.051C182.396 219.818 182.322 219.528 182.322 219.183V214.269H181.328V213.303H182.322V210.867H183.554V213.303H185.192V214.269H183.554V218.805C183.572 219.066 183.661 219.262 183.82 219.393C183.978 219.514 184.165 219.575 184.38 219.575C184.622 219.575 184.846 219.533 185.052 219.449C185.257 219.365 185.392 219.304 185.458 219.267L185.752 220.247ZM189.86 218.497C189.86 218.03 189.991 217.629 190.252 217.293C190.523 216.948 190.892 216.682 191.358 216.495C191.825 216.308 192.366 216.215 192.982 216.215C193.309 216.215 193.654 216.243 194.018 216.299C194.382 216.346 194.704 216.42 194.984 216.523V215.991C194.984 215.431 194.816 214.992 194.48 214.675C194.144 214.348 193.668 214.185 193.052 214.185C192.651 214.185 192.264 214.26 191.89 214.409C191.526 214.549 191.139 214.754 190.728 215.025L190.28 214.157C190.756 213.83 191.232 213.588 191.708 213.429C192.184 213.261 192.679 213.177 193.192 213.177C194.126 213.177 194.863 213.438 195.404 213.961C195.946 214.474 196.216 215.193 196.216 216.117V219.211C196.216 219.36 196.244 219.472 196.3 219.547C196.366 219.612 196.468 219.65 196.608 219.659V220.611C196.487 220.63 196.38 220.644 196.286 220.653C196.202 220.662 196.132 220.667 196.076 220.667C195.787 220.667 195.568 220.588 195.418 220.429C195.278 220.27 195.199 220.102 195.18 219.925L195.152 219.463C194.835 219.874 194.42 220.191 193.906 220.415C193.393 220.639 192.884 220.751 192.38 220.751C191.895 220.751 191.461 220.653 191.078 220.457C190.696 220.252 190.397 219.981 190.182 219.645C189.968 219.3 189.86 218.917 189.86 218.497ZM194.62 219.015C194.732 218.884 194.821 218.754 194.886 218.623C194.952 218.483 194.984 218.366 194.984 218.273V217.363C194.695 217.251 194.392 217.167 194.074 217.111C193.757 217.046 193.444 217.013 193.136 217.013C192.511 217.013 192.002 217.139 191.61 217.391C191.228 217.634 191.036 217.97 191.036 218.399C191.036 218.632 191.097 218.861 191.218 219.085C191.349 219.3 191.536 219.477 191.778 219.617C192.03 219.757 192.338 219.827 192.702 219.827C193.085 219.827 193.449 219.752 193.794 219.603C194.14 219.444 194.415 219.248 194.62 219.015ZM209.204 220.611H207.972V216.523C207.972 215.758 207.846 215.193 207.594 214.829C207.352 214.465 206.988 214.283 206.502 214.283C206.008 214.283 205.56 214.465 205.158 214.829C204.757 215.184 204.472 215.646 204.304 216.215V220.611H203.072V216.523C203.072 215.748 202.951 215.184 202.708 214.829C202.466 214.465 202.102 214.283 201.616 214.283C201.131 214.283 200.683 214.46 200.272 214.815C199.871 215.16 199.586 215.622 199.418 216.201V220.611H198.186V213.303H199.306V214.871C199.605 214.33 199.992 213.914 200.468 213.625C200.944 213.326 201.481 213.177 202.078 213.177C202.685 213.177 203.17 213.345 203.534 213.681C203.898 214.008 204.122 214.432 204.206 214.955C204.533 214.376 204.93 213.938 205.396 213.639C205.863 213.331 206.395 213.177 206.992 213.177C207.412 213.177 207.762 213.256 208.042 213.415C208.332 213.564 208.56 213.779 208.728 214.059C208.896 214.33 209.018 214.652 209.092 215.025C209.167 215.398 209.204 215.804 209.204 216.243V220.611ZM214.354 220.751C213.803 220.751 213.299 220.653 212.842 220.457C212.394 220.252 212.002 219.976 211.666 219.631C211.339 219.276 211.083 218.87 210.896 218.413C210.719 217.956 210.63 217.47 210.63 216.957C210.63 216.266 210.789 215.636 211.106 215.067C211.423 214.498 211.862 214.04 212.422 213.695C212.991 213.35 213.64 213.177 214.368 213.177C215.105 213.177 215.745 213.354 216.286 213.709C216.837 214.054 217.261 214.512 217.56 215.081C217.868 215.641 218.022 216.248 218.022 216.901C218.022 216.994 218.017 217.088 218.008 217.181C218.008 217.265 218.003 217.33 217.994 217.377H211.932C211.969 217.853 212.1 218.278 212.324 218.651C212.557 219.015 212.856 219.304 213.22 219.519C213.584 219.724 213.976 219.827 214.396 219.827C214.844 219.827 215.264 219.715 215.656 219.491C216.057 219.267 216.333 218.973 216.482 218.609L217.546 218.903C217.387 219.258 217.149 219.575 216.832 219.855C216.524 220.135 216.155 220.354 215.726 220.513C215.306 220.672 214.849 220.751 214.354 220.751ZM211.89 216.523H216.874C216.837 216.047 216.701 215.627 216.468 215.263C216.235 214.899 215.936 214.614 215.572 214.409C215.208 214.204 214.807 214.101 214.368 214.101C213.939 214.101 213.542 214.204 213.178 214.409C212.814 214.614 212.515 214.899 212.282 215.263C212.058 215.627 211.927 216.047 211.89 216.523ZM223.103 220.247C223 220.294 222.86 220.354 222.683 220.429C222.506 220.504 222.3 220.569 222.067 220.625C221.834 220.681 221.586 220.709 221.325 220.709C221.026 220.709 220.751 220.658 220.499 220.555C220.247 220.443 220.046 220.275 219.897 220.051C219.748 219.818 219.673 219.528 219.673 219.183V214.269H218.679V213.303H219.673V210.867H220.905V213.303H222.543V214.269H220.905V218.805C220.924 219.066 221.012 219.262 221.171 219.393C221.33 219.514 221.516 219.575 221.731 219.575C221.974 219.575 222.198 219.533 222.403 219.449C222.608 219.365 222.744 219.304 222.809 219.267L223.103 220.247ZM224.287 221.745L224.567 220.499H224.147V219.043H225.309V220.499L224.889 221.745H224.287ZM47.5024 241.751C46.9517 241.751 46.4477 241.653 45.9904 241.457C45.5424 241.252 45.1504 240.972 44.8144 240.617C44.4877 240.262 44.2311 239.856 44.0444 239.399C43.8671 238.942 43.7784 238.456 43.7784 237.943C43.7784 237.252 43.9324 236.622 44.2404 236.053C44.5484 235.484 44.9824 235.031 45.5424 234.695C46.1024 234.35 46.7511 234.177 47.4884 234.177C48.2071 234.177 48.8324 234.34 49.3644 234.667C49.9057 234.984 50.3071 235.414 50.5684 235.955L49.3644 236.333C49.1777 235.988 48.9164 235.722 48.5804 235.535C48.2444 235.339 47.8711 235.241 47.4604 235.241C47.0124 235.241 46.6017 235.358 46.2284 235.591C45.8644 235.824 45.5751 236.146 45.3604 236.557C45.1457 236.958 45.0384 237.42 45.0384 237.943C45.0384 238.456 45.1457 238.923 45.3604 239.343C45.5844 239.754 45.8784 240.08 46.2424 240.323C46.6157 240.566 47.0264 240.687 47.4744 240.687C47.7637 240.687 48.0391 240.636 48.3004 240.533C48.5711 240.43 48.8044 240.295 49.0004 240.127C49.2057 239.95 49.3457 239.758 49.4204 239.553L50.6244 239.917C50.4751 240.272 50.2464 240.589 49.9384 240.869C49.6397 241.14 49.2804 241.354 48.8604 241.513C48.4497 241.672 47.9971 241.751 47.5024 241.751ZM55.144 241.751C54.5933 241.751 54.094 241.653 53.646 241.457C53.198 241.252 52.8107 240.976 52.484 240.631C52.1573 240.276 51.9053 239.87 51.728 239.413C51.5507 238.956 51.462 238.475 51.462 237.971C51.462 237.458 51.5507 236.972 51.728 236.515C51.9053 236.058 52.1573 235.656 52.484 235.311C52.8107 234.956 53.198 234.681 53.646 234.485C54.1033 234.28 54.6027 234.177 55.144 234.177C55.6947 234.177 56.194 234.28 56.642 234.485C57.09 234.681 57.4773 234.956 57.804 235.311C58.14 235.656 58.3967 236.058 58.574 236.515C58.7513 236.972 58.84 237.458 58.84 237.971C58.84 238.475 58.7513 238.956 58.574 239.413C58.3967 239.87 58.1447 240.276 57.818 240.631C57.4913 240.976 57.0993 241.252 56.642 241.457C56.194 241.653 55.6947 241.751 55.144 241.751ZM52.722 237.985C52.722 238.489 52.8293 238.946 53.044 239.357C53.268 239.768 53.562 240.094 53.926 240.337C54.29 240.57 54.696 240.687 55.144 240.687C55.592 240.687 55.998 240.566 56.362 240.323C56.7353 240.08 57.0293 239.754 57.244 239.343C57.468 238.923 57.58 238.461 57.58 237.957C57.58 237.453 57.468 236.996 57.244 236.585C57.0293 236.174 56.7353 235.848 56.362 235.605C55.998 235.362 55.592 235.241 55.144 235.241C54.696 235.241 54.29 235.367 53.926 235.619C53.562 235.862 53.268 236.188 53.044 236.599C52.8293 237.01 52.722 237.472 52.722 237.985ZM66.6749 241.611H65.4429V237.523C65.4429 236.748 65.3215 236.184 65.0789 235.829C64.8455 235.465 64.4862 235.283 64.0009 235.283C63.6649 235.283 63.3289 235.367 62.9929 235.535C62.6662 235.703 62.3722 235.932 62.1109 236.221C61.8589 236.501 61.6769 236.828 61.5649 237.201V241.611H60.3329V234.303H61.4529V235.871C61.6489 235.526 61.9009 235.227 62.2089 234.975C62.5169 234.723 62.8669 234.527 63.2589 234.387C63.6509 234.247 64.0615 234.177 64.4909 234.177C64.9109 234.177 65.2609 234.256 65.5409 234.415C65.8302 234.564 66.0542 234.779 66.2129 235.059C66.3809 235.33 66.4975 235.652 66.5629 236.025C66.6375 236.398 66.6749 236.804 66.6749 237.243V241.611ZM71.0967 241.751C70.49 241.751 69.9207 241.653 69.3887 241.457C68.8567 241.252 68.3993 240.948 68.0167 240.547L68.4927 239.679C68.9127 240.071 69.3327 240.351 69.7527 240.519C70.1727 240.687 70.602 240.771 71.0407 240.771C71.5447 240.771 71.9553 240.678 72.2727 240.491C72.59 240.295 72.7487 240.01 72.7487 239.637C72.7487 239.366 72.6647 239.166 72.4967 239.035C72.338 238.904 72.1093 238.797 71.8107 238.713C71.512 238.62 71.1573 238.517 70.7467 238.405C70.2427 238.256 69.818 238.097 69.4727 237.929C69.1273 237.761 68.866 237.551 68.6887 237.299C68.5113 237.047 68.4227 236.73 68.4227 236.347C68.4227 235.88 68.544 235.488 68.7867 235.171C69.0293 234.844 69.3607 234.597 69.7807 234.429C70.21 234.261 70.6953 234.177 71.2367 234.177C71.778 234.177 72.268 234.261 72.7067 234.429C73.1453 234.597 73.5233 234.844 73.8407 235.171L73.2807 236.025C72.9913 235.726 72.674 235.507 72.3287 235.367C71.9833 235.218 71.596 235.143 71.1667 235.143C70.9147 235.143 70.6673 235.176 70.4247 235.241C70.182 235.297 69.9813 235.404 69.8227 235.563C69.664 235.712 69.5847 235.927 69.5847 236.207C69.5847 236.44 69.6453 236.627 69.7667 236.767C69.8973 236.898 70.084 237.01 70.3267 237.103C70.5787 237.196 70.882 237.299 71.2367 237.411C71.7873 237.57 72.2633 237.728 72.6647 237.887C73.0753 238.046 73.3927 238.251 73.6167 238.503C73.8407 238.755 73.9527 239.105 73.9527 239.553C73.9527 240.244 73.6913 240.785 73.1687 241.177C72.646 241.56 71.9553 241.751 71.0967 241.751ZM78.6606 241.751C78.11 241.751 77.606 241.653 77.1486 241.457C76.7006 241.252 76.3086 240.976 75.9726 240.631C75.646 240.276 75.3893 239.87 75.2026 239.413C75.0253 238.956 74.9366 238.47 74.9366 237.957C74.9366 237.266 75.0953 236.636 75.4126 236.067C75.73 235.498 76.1686 235.04 76.7286 234.695C77.298 234.35 77.9466 234.177 78.6746 234.177C79.412 234.177 80.0513 234.354 80.5926 234.709C81.1433 235.054 81.568 235.512 81.8666 236.081C82.1746 236.641 82.3286 237.248 82.3286 237.901C82.3286 237.994 82.324 238.088 82.3146 238.181C82.3146 238.265 82.31 238.33 82.3006 238.377H76.2386C76.276 238.853 76.4066 239.278 76.6306 239.651C76.864 240.015 77.1626 240.304 77.5266 240.519C77.8906 240.724 78.2826 240.827 78.7026 240.827C79.1506 240.827 79.5706 240.715 79.9626 240.491C80.364 240.267 80.6393 239.973 80.7886 239.609L81.8526 239.903C81.694 240.258 81.456 240.575 81.1386 240.855C80.8306 241.135 80.462 241.354 80.0326 241.513C79.6126 241.672 79.1553 241.751 78.6606 241.751ZM76.1966 237.523H81.1806C81.1433 237.047 81.008 236.627 80.7746 236.263C80.5413 235.899 80.2426 235.614 79.8786 235.409C79.5146 235.204 79.1133 235.101 78.6746 235.101C78.2453 235.101 77.8486 235.204 77.4846 235.409C77.1206 235.614 76.822 235.899 76.5886 236.263C76.3646 236.627 76.234 237.047 76.1966 237.523ZM86.9321 241.751C86.3814 241.751 85.8774 241.653 85.4201 241.457C84.9721 241.252 84.5801 240.972 84.2441 240.617C83.9174 240.262 83.6608 239.856 83.4741 239.399C83.2968 238.942 83.2081 238.456 83.2081 237.943C83.2081 237.252 83.3621 236.622 83.6701 236.053C83.9781 235.484 84.4121 235.031 84.9721 234.695C85.5321 234.35 86.1808 234.177 86.9181 234.177C87.6368 234.177 88.2621 234.34 88.7941 234.667C89.3354 234.984 89.7368 235.414 89.9981 235.955L88.7941 236.333C88.6074 235.988 88.3461 235.722 88.0101 235.535C87.6741 235.339 87.3008 235.241 86.8901 235.241C86.4421 235.241 86.0314 235.358 85.6581 235.591C85.2941 235.824 85.0048 236.146 84.7901 236.557C84.5754 236.958 84.4681 237.42 84.4681 237.943C84.4681 238.456 84.5754 238.923 84.7901 239.343C85.0141 239.754 85.3081 240.08 85.6721 240.323C86.0454 240.566 86.4561 240.687 86.9041 240.687C87.1934 240.687 87.4688 240.636 87.7301 240.533C88.0008 240.43 88.2341 240.295 88.4301 240.127C88.6354 239.95 88.7754 239.758 88.8501 239.553L90.0541 239.917C89.9048 240.272 89.6761 240.589 89.3681 240.869C89.0694 241.14 88.7101 241.354 88.2901 241.513C87.8794 241.672 87.4268 241.751 86.9321 241.751ZM95.2301 241.247C95.1274 241.294 94.9874 241.354 94.8101 241.429C94.6327 241.504 94.4274 241.569 94.1941 241.625C93.9607 241.681 93.7134 241.709 93.4521 241.709C93.1534 241.709 92.8781 241.658 92.6261 241.555C92.3741 241.443 92.1734 241.275 92.0241 241.051C91.8747 240.818 91.8001 240.528 91.8001 240.183V235.269H90.8061V234.303H91.8001V231.867H93.0321V234.303H94.6701V235.269H93.0321V239.805C93.0507 240.066 93.1394 240.262 93.2981 240.393C93.4567 240.514 93.6434 240.575 93.8581 240.575C94.1007 240.575 94.3247 240.533 94.5301 240.449C94.7354 240.365 94.8707 240.304 94.9361 240.267L95.2301 241.247ZM99.5102 241.751C98.9596 241.751 98.4556 241.653 97.9982 241.457C97.5502 241.252 97.1582 240.976 96.8222 240.631C96.4956 240.276 96.2389 239.87 96.0522 239.413C95.8749 238.956 95.7862 238.47 95.7862 237.957C95.7862 237.266 95.9449 236.636 96.2622 236.067C96.5796 235.498 97.0182 235.04 97.5782 234.695C98.1476 234.35 98.7962 234.177 99.5242 234.177C100.262 234.177 100.901 234.354 101.442 234.709C101.993 235.054 102.418 235.512 102.716 236.081C103.024 236.641 103.178 237.248 103.178 237.901C103.178 237.994 103.174 238.088 103.164 238.181C103.164 238.265 103.16 238.33 103.15 238.377H97.0882C97.1256 238.853 97.2562 239.278 97.4802 239.651C97.7136 240.015 98.0122 240.304 98.3762 240.519C98.7402 240.724 99.1322 240.827 99.5522 240.827C100 240.827 100.42 240.715 100.812 240.491C101.214 240.267 101.489 239.973 101.638 239.609L102.702 239.903C102.544 240.258 102.306 240.575 101.988 240.855C101.68 241.135 101.312 241.354 100.882 241.513C100.462 241.672 100.005 241.751 99.5102 241.751ZM97.0462 237.523H102.03C101.993 237.047 101.858 236.627 101.624 236.263C101.391 235.899 101.092 235.614 100.728 235.409C100.364 235.204 99.9629 235.101 99.5242 235.101C99.0949 235.101 98.6982 235.204 98.3342 235.409C97.9702 235.614 97.6716 235.899 97.4382 236.263C97.2142 236.627 97.0836 237.047 97.0462 237.523ZM108.259 241.247C108.157 241.294 108.017 241.354 107.839 241.429C107.662 241.504 107.457 241.569 107.223 241.625C106.99 241.681 106.743 241.709 106.481 241.709C106.183 241.709 105.907 241.658 105.655 241.555C105.403 241.443 105.203 241.275 105.053 241.051C104.904 240.818 104.829 240.528 104.829 240.183V235.269H103.835V234.303H104.829V231.867H106.061V234.303H107.699V235.269H106.061V239.805C106.08 240.066 106.169 240.262 106.327 240.393C106.486 240.514 106.673 240.575 106.887 240.575C107.13 240.575 107.354 240.533 107.559 240.449C107.765 240.365 107.9 240.304 107.965 240.267L108.259 241.247ZM109.331 238.685V234.303H110.563V238.447C110.563 239.194 110.694 239.754 110.955 240.127C111.217 240.5 111.604 240.687 112.117 240.687C112.453 240.687 112.775 240.617 113.083 240.477C113.401 240.328 113.685 240.118 113.937 239.847C114.189 239.576 114.385 239.254 114.525 238.881V234.303H115.757V240.211C115.757 240.36 115.785 240.472 115.841 240.547C115.907 240.612 116.009 240.65 116.149 240.659V241.611C116.009 241.63 115.897 241.639 115.813 241.639C115.739 241.648 115.664 241.653 115.589 241.653C115.356 241.653 115.155 241.583 114.987 241.443C114.819 241.294 114.731 241.112 114.721 240.897L114.693 240.043C114.376 240.584 113.947 241.004 113.405 241.303C112.873 241.602 112.29 241.751 111.655 241.751C110.89 241.751 110.311 241.494 109.919 240.981C109.527 240.458 109.331 239.693 109.331 238.685ZM121.673 235.381C121.057 235.39 120.511 235.549 120.035 235.857C119.569 236.156 119.237 236.571 119.041 237.103V241.611H117.809V234.303H118.957V235.997C119.209 235.493 119.541 235.087 119.951 234.779C120.371 234.462 120.81 234.284 121.267 234.247C121.361 234.247 121.44 234.247 121.505 234.247C121.571 234.247 121.627 234.252 121.673 234.261V235.381ZM125.534 239.497C125.534 239.03 125.665 238.629 125.926 238.293C126.197 237.948 126.566 237.682 127.032 237.495C127.499 237.308 128.04 237.215 128.656 237.215C128.983 237.215 129.328 237.243 129.692 237.299C130.056 237.346 130.378 237.42 130.658 237.523V236.991C130.658 236.431 130.49 235.992 130.154 235.675C129.818 235.348 129.342 235.185 128.726 235.185C128.325 235.185 127.938 235.26 127.564 235.409C127.2 235.549 126.813 235.754 126.402 236.025L125.954 235.157C126.43 234.83 126.906 234.588 127.382 234.429C127.858 234.261 128.353 234.177 128.866 234.177C129.8 234.177 130.537 234.438 131.078 234.961C131.62 235.474 131.89 236.193 131.89 237.117V240.211C131.89 240.36 131.918 240.472 131.974 240.547C132.04 240.612 132.142 240.65 132.282 240.659V241.611C132.161 241.63 132.054 241.644 131.96 241.653C131.876 241.662 131.806 241.667 131.75 241.667C131.461 241.667 131.242 241.588 131.092 241.429C130.952 241.27 130.873 241.102 130.854 240.925L130.826 240.463C130.509 240.874 130.094 241.191 129.58 241.415C129.067 241.639 128.558 241.751 128.054 241.751C127.569 241.751 127.135 241.653 126.752 241.457C126.37 241.252 126.071 240.981 125.856 240.645C125.642 240.3 125.534 239.917 125.534 239.497ZM130.294 240.015C130.406 239.884 130.495 239.754 130.56 239.623C130.626 239.483 130.658 239.366 130.658 239.273V238.363C130.369 238.251 130.066 238.167 129.748 238.111C129.431 238.046 129.118 238.013 128.81 238.013C128.185 238.013 127.676 238.139 127.284 238.391C126.902 238.634 126.71 238.97 126.71 239.399C126.71 239.632 126.771 239.861 126.892 240.085C127.023 240.3 127.21 240.477 127.452 240.617C127.704 240.757 128.012 240.827 128.376 240.827C128.759 240.827 129.123 240.752 129.468 240.603C129.814 240.444 130.089 240.248 130.294 240.015ZM133.384 237.971C133.384 237.28 133.524 236.65 133.804 236.081C134.094 235.502 134.486 235.04 134.98 234.695C135.484 234.35 136.058 234.177 136.702 234.177C137.29 234.177 137.818 234.331 138.284 234.639C138.751 234.947 139.115 235.32 139.376 235.759V231.391H140.608V240.211C140.608 240.36 140.636 240.472 140.692 240.547C140.758 240.612 140.86 240.65 141 240.659V241.611C140.767 241.648 140.585 241.667 140.454 241.667C140.212 241.667 139.997 241.583 139.81 241.415C139.633 241.247 139.544 241.06 139.544 240.855V240.239C139.255 240.706 138.868 241.074 138.382 241.345C137.897 241.616 137.393 241.751 136.87 241.751C136.366 241.751 135.9 241.653 135.47 241.457C135.05 241.252 134.682 240.972 134.364 240.617C134.056 240.262 133.814 239.861 133.636 239.413C133.468 238.956 133.384 238.475 133.384 237.971ZM139.376 239.049V236.949C139.264 236.632 139.082 236.347 138.83 236.095C138.578 235.834 138.294 235.628 137.976 235.479C137.668 235.32 137.36 235.241 137.052 235.241C136.688 235.241 136.357 235.32 136.058 235.479C135.769 235.628 135.517 235.834 135.302 236.095C135.097 236.347 134.938 236.636 134.826 236.963C134.714 237.29 134.658 237.63 134.658 237.985C134.658 238.349 134.719 238.694 134.84 239.021C134.971 239.348 135.148 239.637 135.372 239.889C135.606 240.141 135.872 240.337 136.17 240.477C136.478 240.617 136.81 240.687 137.164 240.687C137.388 240.687 137.617 240.645 137.85 240.561C138.093 240.477 138.322 240.36 138.536 240.211C138.751 240.062 138.933 239.889 139.082 239.693C139.232 239.488 139.33 239.273 139.376 239.049ZM142.665 241.611V234.303H143.897V241.611H142.665ZM142.665 232.931V231.391H143.897V232.931H142.665ZM149.825 241.751C149.228 241.751 148.696 241.602 148.229 241.303C147.763 241.004 147.394 240.626 147.123 240.169V244.593H145.891V234.303H146.983V235.675C147.273 235.227 147.651 234.868 148.117 234.597C148.584 234.317 149.093 234.177 149.643 234.177C150.147 234.177 150.609 234.28 151.029 234.485C151.449 234.69 151.813 234.97 152.121 235.325C152.429 235.68 152.667 236.086 152.835 236.543C153.013 236.991 153.101 237.462 153.101 237.957C153.101 238.648 152.961 239.282 152.681 239.861C152.411 240.44 152.028 240.902 151.533 241.247C151.039 241.583 150.469 241.751 149.825 241.751ZM149.447 240.687C149.811 240.687 150.138 240.612 150.427 240.463C150.726 240.304 150.978 240.099 151.183 239.847C151.398 239.586 151.561 239.292 151.673 238.965C151.785 238.638 151.841 238.302 151.841 237.957C151.841 237.593 151.776 237.248 151.645 236.921C151.524 236.594 151.347 236.305 151.113 236.053C150.889 235.801 150.623 235.605 150.315 235.465C150.017 235.316 149.69 235.241 149.335 235.241C149.111 235.241 148.878 235.283 148.635 235.367C148.402 235.451 148.178 235.572 147.963 235.731C147.749 235.88 147.567 236.053 147.417 236.249C147.268 236.445 147.17 236.655 147.123 236.879V238.965C147.263 239.282 147.45 239.572 147.683 239.833C147.917 240.094 148.187 240.304 148.495 240.463C148.803 240.612 149.121 240.687 149.447 240.687ZM154.614 241.611V234.303H155.846V241.611H154.614ZM154.614 232.931V231.391H155.846V232.931H154.614ZM160.347 241.751C159.74 241.751 159.171 241.653 158.639 241.457C158.107 241.252 157.649 240.948 157.267 240.547L157.743 239.679C158.163 240.071 158.583 240.351 159.003 240.519C159.423 240.687 159.852 240.771 160.291 240.771C160.795 240.771 161.205 240.678 161.523 240.491C161.84 240.295 161.999 240.01 161.999 239.637C161.999 239.366 161.915 239.166 161.747 239.035C161.588 238.904 161.359 238.797 161.061 238.713C160.762 238.62 160.407 238.517 159.997 238.405C159.493 238.256 159.068 238.097 158.723 237.929C158.377 237.761 158.116 237.551 157.939 237.299C157.761 237.047 157.673 236.73 157.673 236.347C157.673 235.88 157.794 235.488 158.037 235.171C158.279 234.844 158.611 234.597 159.031 234.429C159.46 234.261 159.945 234.177 160.487 234.177C161.028 234.177 161.518 234.261 161.957 234.429C162.395 234.597 162.773 234.844 163.091 235.171L162.531 236.025C162.241 235.726 161.924 235.507 161.579 235.367C161.233 235.218 160.846 235.143 160.417 235.143C160.165 235.143 159.917 235.176 159.675 235.241C159.432 235.297 159.231 235.404 159.073 235.563C158.914 235.712 158.835 235.927 158.835 236.207C158.835 236.44 158.895 236.627 159.017 236.767C159.147 236.898 159.334 237.01 159.577 237.103C159.829 237.196 160.132 237.299 160.487 237.411C161.037 237.57 161.513 237.728 161.915 237.887C162.325 238.046 162.643 238.251 162.867 238.503C163.091 238.755 163.203 239.105 163.203 239.553C163.203 240.244 162.941 240.785 162.419 241.177C161.896 241.56 161.205 241.751 160.347 241.751ZM167.911 241.751C167.36 241.751 166.856 241.653 166.399 241.457C165.951 241.252 165.559 240.972 165.223 240.617C164.896 240.262 164.639 239.856 164.453 239.399C164.275 238.942 164.187 238.456 164.187 237.943C164.187 237.252 164.341 236.622 164.649 236.053C164.957 235.484 165.391 235.031 165.951 234.695C166.511 234.35 167.159 234.177 167.897 234.177C168.615 234.177 169.241 234.34 169.773 234.667C170.314 234.984 170.715 235.414 170.977 235.955L169.773 236.333C169.586 235.988 169.325 235.722 168.989 235.535C168.653 235.339 168.279 235.241 167.869 235.241C167.421 235.241 167.01 235.358 166.637 235.591C166.273 235.824 165.983 236.146 165.769 236.557C165.554 236.958 165.447 237.42 165.447 237.943C165.447 238.456 165.554 238.923 165.769 239.343C165.993 239.754 166.287 240.08 166.651 240.323C167.024 240.566 167.435 240.687 167.883 240.687C168.172 240.687 168.447 240.636 168.709 240.533C168.979 240.43 169.213 240.295 169.409 240.127C169.614 239.95 169.754 239.758 169.829 239.553L171.033 239.917C170.883 240.272 170.655 240.589 170.347 240.869C170.048 241.14 169.689 241.354 169.269 241.513C168.858 241.672 168.405 241.751 167.911 241.751ZM172.429 241.611V234.303H173.661V241.611H172.429ZM172.429 232.931V231.391H173.661V232.931H172.429ZM181.997 241.611H180.765V237.523C180.765 236.748 180.644 236.184 180.401 235.829C180.168 235.465 179.808 235.283 179.323 235.283C178.987 235.283 178.651 235.367 178.315 235.535C177.988 235.703 177.694 235.932 177.433 236.221C177.181 236.501 176.999 236.828 176.887 237.201V241.611H175.655V234.303H176.775V235.871C176.971 235.526 177.223 235.227 177.531 234.975C177.839 234.723 178.189 234.527 178.581 234.387C178.973 234.247 179.384 234.177 179.813 234.177C180.233 234.177 180.583 234.256 180.863 234.415C181.152 234.564 181.376 234.779 181.535 235.059C181.703 235.33 181.82 235.652 181.885 236.025C181.96 236.398 181.997 236.804 181.997 237.243V241.611ZM186.825 241.695C186.33 241.695 185.873 241.597 185.453 241.401C185.042 241.196 184.688 240.92 184.389 240.575C184.09 240.22 183.857 239.819 183.689 239.371C183.53 238.923 183.451 238.456 183.451 237.971C183.451 237.458 183.53 236.972 183.689 236.515C183.857 236.058 184.09 235.656 184.389 235.311C184.697 234.956 185.056 234.681 185.467 234.485C185.878 234.28 186.335 234.177 186.839 234.177C187.446 234.177 187.973 234.326 188.421 234.625C188.878 234.924 189.261 235.302 189.569 235.759V234.303H190.661V241.527C190.661 242.218 190.493 242.801 190.157 243.277C189.83 243.753 189.382 244.112 188.813 244.355C188.253 244.607 187.628 244.733 186.937 244.733C186.116 244.733 185.444 244.588 184.921 244.299C184.398 244.01 183.964 243.618 183.619 243.123L184.333 242.493C184.622 242.922 184.996 243.244 185.453 243.459C185.92 243.674 186.414 243.781 186.937 243.781C187.385 243.781 187.796 243.697 188.169 243.529C188.552 243.37 188.855 243.123 189.079 242.787C189.312 242.451 189.429 242.031 189.429 241.527V240.239C189.158 240.687 188.785 241.042 188.309 241.303C187.842 241.564 187.348 241.695 186.825 241.695ZM187.203 240.687C187.464 240.687 187.716 240.64 187.959 240.547C188.202 240.454 188.426 240.332 188.631 240.183C188.836 240.024 189.009 239.847 189.149 239.651C189.289 239.455 189.382 239.254 189.429 239.049V236.949C189.298 236.613 189.112 236.319 188.869 236.067C188.626 235.806 188.351 235.605 188.043 235.465C187.735 235.316 187.418 235.241 187.091 235.241C186.718 235.241 186.382 235.32 186.083 235.479C185.794 235.638 185.546 235.852 185.341 236.123C185.136 236.384 184.977 236.678 184.865 237.005C184.753 237.332 184.697 237.663 184.697 237.999C184.697 238.363 184.762 238.708 184.893 239.035C185.024 239.352 185.201 239.637 185.425 239.889C185.649 240.141 185.915 240.337 186.223 240.477C186.531 240.617 186.858 240.687 187.203 240.687ZM199.424 241.751C198.874 241.751 198.37 241.653 197.912 241.457C197.464 241.252 197.072 240.976 196.736 240.631C196.41 240.276 196.153 239.87 195.966 239.413C195.789 238.956 195.7 238.47 195.7 237.957C195.7 237.266 195.859 236.636 196.176 236.067C196.494 235.498 196.932 235.04 197.492 234.695C198.062 234.35 198.71 234.177 199.438 234.177C200.176 234.177 200.815 234.354 201.356 234.709C201.907 235.054 202.332 235.512 202.63 236.081C202.938 236.641 203.092 237.248 203.092 237.901C203.092 237.994 203.088 238.088 203.078 238.181C203.078 238.265 203.074 238.33 203.064 238.377H197.002C197.04 238.853 197.17 239.278 197.394 239.651C197.628 240.015 197.926 240.304 198.29 240.519C198.654 240.724 199.046 240.827 199.466 240.827C199.914 240.827 200.334 240.715 200.726 240.491C201.128 240.267 201.403 239.973 201.552 239.609L202.616 239.903C202.458 240.258 202.22 240.575 201.902 240.855C201.594 241.135 201.226 241.354 200.796 241.513C200.376 241.672 199.919 241.751 199.424 241.751ZM196.96 237.523H201.944C201.907 237.047 201.772 236.627 201.538 236.263C201.305 235.899 201.006 235.614 200.642 235.409C200.278 235.204 199.877 235.101 199.438 235.101C199.009 235.101 198.612 235.204 198.248 235.409C197.884 235.614 197.586 235.899 197.352 236.263C197.128 236.627 196.998 237.047 196.96 237.523ZM204.49 231.391H205.722V239.721C205.722 240.122 205.778 240.37 205.89 240.463C206.002 240.556 206.137 240.603 206.296 240.603C206.492 240.603 206.678 240.584 206.856 240.547C207.033 240.5 207.182 240.454 207.304 240.407L207.5 241.415C207.294 241.499 207.052 241.569 206.772 241.625C206.492 241.681 206.244 241.709 206.03 241.709C205.554 241.709 205.176 241.574 204.896 241.303C204.625 241.032 204.49 240.654 204.49 240.169V231.391ZM208.468 241.611V234.303H209.7V241.611H208.468ZM208.468 232.931V231.391H209.7V232.931H208.468ZM215.474 241.247C215.372 241.294 215.232 241.354 215.054 241.429C214.877 241.504 214.672 241.569 214.438 241.625C214.205 241.681 213.958 241.709 213.696 241.709C213.398 241.709 213.122 241.658 212.87 241.555C212.618 241.443 212.418 241.275 212.268 241.051C212.119 240.818 212.044 240.528 212.044 240.183V235.269H211.05V234.303H212.044V231.867H213.276V234.303H214.914V235.269H213.276V239.805C213.295 240.066 213.384 240.262 213.542 240.393C213.701 240.514 213.888 240.575 214.102 240.575C214.345 240.575 214.569 240.533 214.774 240.449C214.98 240.365 215.115 240.304 215.18 240.267L215.474 241.247ZM216.658 242.745L216.938 241.499H216.518V240.043H217.68V241.499L217.26 242.745H216.658ZM225.616 241.751C225.01 241.751 224.44 241.653 223.908 241.457C223.376 241.252 222.919 240.948 222.536 240.547L223.012 239.679C223.432 240.071 223.852 240.351 224.272 240.519C224.692 240.687 225.122 240.771 225.56 240.771C226.064 240.771 226.475 240.678 226.792 240.491C227.11 240.295 227.268 240.01 227.268 239.637C227.268 239.366 227.184 239.166 227.016 239.035C226.858 238.904 226.629 238.797 226.33 238.713C226.032 238.62 225.677 238.517 225.266 238.405C224.762 238.256 224.338 238.097 223.992 237.929C223.647 237.761 223.386 237.551 223.208 237.299C223.031 237.047 222.942 236.73 222.942 236.347C222.942 235.88 223.064 235.488 223.306 235.171C223.549 234.844 223.88 234.597 224.3 234.429C224.73 234.261 225.215 234.177 225.756 234.177C226.298 234.177 226.788 234.261 227.226 234.429C227.665 234.597 228.043 234.844 228.36 235.171L227.8 236.025C227.511 235.726 227.194 235.507 226.848 235.367C226.503 235.218 226.116 235.143 225.686 235.143C225.434 235.143 225.187 235.176 224.944 235.241C224.702 235.297 224.501 235.404 224.342 235.563C224.184 235.712 224.104 235.927 224.104 236.207C224.104 236.44 224.165 236.627 224.286 236.767C224.417 236.898 224.604 237.01 224.846 237.103C225.098 237.196 225.402 237.299 225.756 237.411C226.307 237.57 226.783 237.728 227.184 237.887C227.595 238.046 227.912 238.251 228.136 238.503C228.36 238.755 228.472 239.105 228.472 239.553C228.472 240.244 228.211 240.785 227.688 241.177C227.166 241.56 226.475 241.751 225.616 241.751ZM233.18 241.751C232.629 241.751 232.125 241.653 231.668 241.457C231.22 241.252 230.828 240.976 230.492 240.631C230.165 240.276 229.909 239.87 229.722 239.413C229.545 238.956 229.456 238.47 229.456 237.957C229.456 237.266 229.615 236.636 229.932 236.067C230.249 235.498 230.688 235.04 231.248 234.695C231.817 234.35 232.466 234.177 233.194 234.177C233.931 234.177 234.571 234.354 235.112 234.709C235.663 235.054 236.087 235.512 236.386 236.081C236.694 236.641 236.848 237.248 236.848 237.901C236.848 237.994 236.843 238.088 236.834 238.181C236.834 238.265 236.829 238.33 236.82 238.377H230.758C230.795 238.853 230.926 239.278 231.15 239.651C231.383 240.015 231.682 240.304 232.046 240.519C232.41 240.724 232.802 240.827 233.222 240.827C233.67 240.827 234.09 240.715 234.482 240.491C234.883 240.267 235.159 239.973 235.308 239.609L236.372 239.903C236.213 240.258 235.975 240.575 235.658 240.855C235.35 241.135 234.981 241.354 234.552 241.513C234.132 241.672 233.675 241.751 233.18 241.751ZM230.716 237.523H235.7C235.663 237.047 235.527 236.627 235.294 236.263C235.061 235.899 234.762 235.614 234.398 235.409C234.034 235.204 233.633 235.101 233.194 235.101C232.765 235.101 232.368 235.204 232.004 235.409C231.64 235.614 231.341 235.899 231.108 236.263C230.884 236.627 230.753 237.047 230.716 237.523ZM237.742 237.971C237.742 237.28 237.882 236.65 238.162 236.081C238.451 235.502 238.843 235.04 239.338 234.695C239.842 234.35 240.416 234.177 241.06 234.177C241.648 234.177 242.175 234.331 242.642 234.639C243.108 234.947 243.472 235.32 243.734 235.759V231.391H244.966V240.211C244.966 240.36 244.994 240.472 245.05 240.547C245.115 240.612 245.218 240.65 245.358 240.659V241.611C245.124 241.648 244.942 241.667 244.812 241.667C244.569 241.667 244.354 241.583 244.168 241.415C243.99 241.247 243.902 241.06 243.902 240.855V240.239C243.612 240.706 243.225 241.074 242.74 241.345C242.254 241.616 241.75 241.751 241.228 241.751C240.724 241.751 240.257 241.653 239.828 241.457C239.408 241.252 239.039 240.972 238.722 240.617C238.414 240.262 238.171 239.861 237.994 239.413C237.826 238.956 237.742 238.475 237.742 237.971ZM243.734 239.049V236.949C243.622 236.632 243.44 236.347 243.188 236.095C242.936 235.834 242.651 235.628 242.334 235.479C242.026 235.32 241.718 235.241 241.41 235.241C241.046 235.241 240.714 235.32 240.416 235.479C240.126 235.628 239.874 235.834 239.66 236.095C239.454 236.347 239.296 236.636 239.184 236.963C239.072 237.29 239.016 237.63 239.016 237.985C239.016 238.349 239.076 238.694 239.198 239.021C239.328 239.348 239.506 239.637 239.73 239.889C239.963 240.141 240.229 240.337 240.528 240.477C240.836 240.617 241.167 240.687 241.522 240.687C241.746 240.687 241.974 240.645 242.208 240.561C242.45 240.477 242.679 240.36 242.894 240.211C243.108 240.062 243.29 239.889 243.44 239.693C243.589 239.488 243.687 239.273 243.734 239.049ZM43.7924 258.971C43.7924 258.28 43.9324 257.65 44.2124 257.081C44.5017 256.502 44.8937 256.04 45.3884 255.695C45.8924 255.35 46.4664 255.177 47.1104 255.177C47.6984 255.177 48.2257 255.331 48.6924 255.639C49.1591 255.947 49.5231 256.32 49.7844 256.759V252.391H51.0164V261.211C51.0164 261.36 51.0444 261.472 51.1004 261.547C51.1657 261.612 51.2684 261.65 51.4084 261.659V262.611C51.1751 262.648 50.9931 262.667 50.8624 262.667C50.6197 262.667 50.4051 262.583 50.2184 262.415C50.0411 262.247 49.9524 262.06 49.9524 261.855V261.239C49.6631 261.706 49.2757 262.074 48.7904 262.345C48.3051 262.616 47.8011 262.751 47.2784 262.751C46.7744 262.751 46.3077 262.653 45.8784 262.457C45.4584 262.252 45.0897 261.972 44.7724 261.617C44.4644 261.262 44.2217 260.861 44.0444 260.413C43.8764 259.956 43.7924 259.475 43.7924 258.971ZM49.7844 260.049V257.949C49.6724 257.632 49.4904 257.347 49.2384 257.095C48.9864 256.834 48.7017 256.628 48.3844 256.479C48.0764 256.32 47.7684 256.241 47.4604 256.241C47.0964 256.241 46.7651 256.32 46.4664 256.479C46.1771 256.628 45.9251 256.834 45.7104 257.095C45.5051 257.347 45.3464 257.636 45.2344 257.963C45.1224 258.29 45.0664 258.63 45.0664 258.985C45.0664 259.349 45.1271 259.694 45.2484 260.021C45.3791 260.348 45.5564 260.637 45.7804 260.889C46.0137 261.141 46.2797 261.337 46.5784 261.477C46.8864 261.617 47.2177 261.687 47.5724 261.687C47.7964 261.687 48.0251 261.645 48.2584 261.561C48.5011 261.477 48.7297 261.36 48.9444 261.211C49.1591 261.062 49.3411 260.889 49.4904 260.693C49.6397 260.488 49.7377 260.273 49.7844 260.049ZM56.2651 262.751C55.7144 262.751 55.2151 262.653 54.7671 262.457C54.3191 262.252 53.9318 261.976 53.6051 261.631C53.2784 261.276 53.0264 260.87 52.8491 260.413C52.6718 259.956 52.5831 259.475 52.5831 258.971C52.5831 258.458 52.6718 257.972 52.8491 257.515C53.0264 257.058 53.2784 256.656 53.6051 256.311C53.9318 255.956 54.3191 255.681 54.7671 255.485C55.2244 255.28 55.7238 255.177 56.2651 255.177C56.8158 255.177 57.3151 255.28 57.7631 255.485C58.2111 255.681 58.5984 255.956 58.9251 256.311C59.2611 256.656 59.5178 257.058 59.6951 257.515C59.8724 257.972 59.9611 258.458 59.9611 258.971C59.9611 259.475 59.8724 259.956 59.6951 260.413C59.5178 260.87 59.2658 261.276 58.9391 261.631C58.6124 261.976 58.2204 262.252 57.7631 262.457C57.3151 262.653 56.8158 262.751 56.2651 262.751ZM53.8431 258.985C53.8431 259.489 53.9504 259.946 54.1651 260.357C54.3891 260.768 54.6831 261.094 55.0471 261.337C55.4111 261.57 55.8171 261.687 56.2651 261.687C56.7131 261.687 57.1191 261.566 57.4831 261.323C57.8564 261.08 58.1504 260.754 58.3651 260.343C58.5891 259.923 58.7011 259.461 58.7011 258.957C58.7011 258.453 58.5891 257.996 58.3651 257.585C58.1504 257.174 57.8564 256.848 57.4831 256.605C57.1191 256.362 56.7131 256.241 56.2651 256.241C55.8171 256.241 55.4111 256.367 55.0471 256.619C54.6831 256.862 54.3891 257.188 54.1651 257.599C53.9504 258.01 53.8431 258.472 53.8431 258.985ZM68.229 262.751C67.6783 262.751 67.1743 262.653 66.717 262.457C66.269 262.252 65.877 261.976 65.541 261.631C65.2143 261.276 64.9576 260.87 64.771 260.413C64.5936 259.956 64.505 259.47 64.505 258.957C64.505 258.266 64.6636 257.636 64.981 257.067C65.2983 256.498 65.737 256.04 66.297 255.695C66.8663 255.35 67.515 255.177 68.243 255.177C68.9803 255.177 69.6196 255.354 70.161 255.709C70.7116 256.054 71.1363 256.512 71.435 257.081C71.743 257.641 71.897 258.248 71.897 258.901C71.897 258.994 71.8923 259.088 71.883 259.181C71.883 259.265 71.8783 259.33 71.869 259.377H65.807C65.8443 259.853 65.975 260.278 66.199 260.651C66.4323 261.015 66.731 261.304 67.095 261.519C67.459 261.724 67.851 261.827 68.271 261.827C68.719 261.827 69.139 261.715 69.531 261.491C69.9323 261.267 70.2076 260.973 70.357 260.609L71.421 260.903C71.2623 261.258 71.0243 261.575 70.707 261.855C70.399 262.135 70.0303 262.354 69.601 262.513C69.181 262.672 68.7236 262.751 68.229 262.751ZM65.765 258.523H70.749C70.7116 258.047 70.5763 257.627 70.343 257.263C70.1096 256.899 69.811 256.614 69.447 256.409C69.083 256.204 68.6816 256.101 68.243 256.101C67.8136 256.101 67.417 256.204 67.053 256.409C66.689 256.614 66.3903 256.899 66.157 257.263C65.933 257.627 65.8023 258.047 65.765 258.523ZM73.2665 262.611V255.303H74.4985V262.611H73.2665ZM73.2665 253.931V252.391H74.4985V253.931H73.2665ZM76.423 259.685V255.303H77.655V259.447C77.655 260.194 77.7857 260.754 78.047 261.127C78.3084 261.5 78.6957 261.687 79.209 261.687C79.545 261.687 79.867 261.617 80.175 261.477C80.4924 261.328 80.777 261.118 81.029 260.847C81.281 260.576 81.477 260.254 81.617 259.881V255.303H82.849V261.211C82.849 261.36 82.877 261.472 82.933 261.547C82.9984 261.612 83.101 261.65 83.241 261.659V262.611C83.101 262.63 82.989 262.639 82.905 262.639C82.8304 262.648 82.7557 262.653 82.681 262.653C82.4477 262.653 82.247 262.583 82.079 262.443C81.911 262.294 81.8224 262.112 81.813 261.897L81.785 261.043C81.4677 261.584 81.0384 262.004 80.497 262.303C79.965 262.602 79.3817 262.751 78.747 262.751C77.9817 262.751 77.403 262.494 77.011 261.981C76.619 261.458 76.423 260.693 76.423 259.685ZM87.4072 262.751C86.8006 262.751 86.2312 262.653 85.6992 262.457C85.1672 262.252 84.7099 261.948 84.3272 261.547L84.8032 260.679C85.2232 261.071 85.6432 261.351 86.0632 261.519C86.4832 261.687 86.9126 261.771 87.3512 261.771C87.8552 261.771 88.2659 261.678 88.5832 261.491C88.9006 261.295 89.0592 261.01 89.0592 260.637C89.0592 260.366 88.9752 260.166 88.8072 260.035C88.6486 259.904 88.4199 259.797 88.1212 259.713C87.8226 259.62 87.4679 259.517 87.0572 259.405C86.5532 259.256 86.1286 259.097 85.7832 258.929C85.4379 258.761 85.1766 258.551 84.9992 258.299C84.8219 258.047 84.7332 257.73 84.7332 257.347C84.7332 256.88 84.8546 256.488 85.0972 256.171C85.3399 255.844 85.6712 255.597 86.0912 255.429C86.5206 255.261 87.0059 255.177 87.5472 255.177C88.0886 255.177 88.5786 255.261 89.0172 255.429C89.4559 255.597 89.8339 255.844 90.1512 256.171L89.5912 257.025C89.3019 256.726 88.9846 256.507 88.6392 256.367C88.2939 256.218 87.9066 256.143 87.4772 256.143C87.2252 256.143 86.9779 256.176 86.7352 256.241C86.4926 256.297 86.2919 256.404 86.1332 256.563C85.9746 256.712 85.8952 256.927 85.8952 257.207C85.8952 257.44 85.9559 257.627 86.0772 257.767C86.2079 257.898 86.3946 258.01 86.6372 258.103C86.8892 258.196 87.1926 258.299 87.5472 258.411C88.0979 258.57 88.5739 258.728 88.9752 258.887C89.3859 259.046 89.7032 259.251 89.9272 259.503C90.1512 259.755 90.2632 260.105 90.2632 260.553C90.2632 261.244 90.0019 261.785 89.4792 262.177C88.9566 262.56 88.2659 262.751 87.4072 262.751ZM102.755 262.611H101.523V258.523C101.523 257.758 101.397 257.193 101.145 256.829C100.902 256.465 100.538 256.283 100.053 256.283C99.5585 256.283 99.1105 256.465 98.7092 256.829C98.3078 257.184 98.0232 257.646 97.8552 258.215V262.611H96.6232V258.523C96.6232 257.748 96.5018 257.184 96.2592 256.829C96.0165 256.465 95.6525 256.283 95.1672 256.283C94.6818 256.283 94.2338 256.46 93.8232 256.815C93.4218 257.16 93.1372 257.622 92.9692 258.201V262.611H91.7372V255.303H92.8572V256.871C93.1558 256.33 93.5432 255.914 94.0192 255.625C94.4952 255.326 95.0318 255.177 95.6292 255.177C96.2358 255.177 96.7212 255.345 97.0852 255.681C97.4492 256.008 97.6732 256.432 97.7572 256.955C98.0838 256.376 98.4805 255.938 98.9472 255.639C99.4138 255.331 99.9458 255.177 100.543 255.177C100.963 255.177 101.313 255.256 101.593 255.415C101.882 255.564 102.111 255.779 102.279 256.059C102.447 256.33 102.568 256.652 102.643 257.025C102.718 257.398 102.755 257.804 102.755 258.243V262.611ZM107.863 262.751C107.312 262.751 106.813 262.653 106.365 262.457C105.917 262.252 105.529 261.976 105.203 261.631C104.876 261.276 104.624 260.87 104.447 260.413C104.269 259.956 104.181 259.475 104.181 258.971C104.181 258.458 104.269 257.972 104.447 257.515C104.624 257.058 104.876 256.656 105.203 256.311C105.529 255.956 105.917 255.681 106.365 255.485C106.822 255.28 107.321 255.177 107.863 255.177C108.413 255.177 108.913 255.28 109.361 255.485C109.809 255.681 110.196 255.956 110.523 256.311C110.859 256.656 111.115 257.058 111.293 257.515C111.47 257.972 111.559 258.458 111.559 258.971C111.559 259.475 111.47 259.956 111.293 260.413C111.115 260.87 110.863 261.276 110.537 261.631C110.21 261.976 109.818 262.252 109.361 262.457C108.913 262.653 108.413 262.751 107.863 262.751ZM105.441 258.985C105.441 259.489 105.548 259.946 105.763 260.357C105.987 260.768 106.281 261.094 106.645 261.337C107.009 261.57 107.415 261.687 107.863 261.687C108.311 261.687 108.717 261.566 109.081 261.323C109.454 261.08 109.748 260.754 109.963 260.343C110.187 259.923 110.299 259.461 110.299 258.957C110.299 258.453 110.187 257.996 109.963 257.585C109.748 257.174 109.454 256.848 109.081 256.605C108.717 256.362 108.311 256.241 107.863 256.241C107.415 256.241 107.009 256.367 106.645 256.619C106.281 256.862 105.987 257.188 105.763 257.599C105.548 258.01 105.441 258.472 105.441 258.985ZM112.576 258.971C112.576 258.28 112.716 257.65 112.996 257.081C113.285 256.502 113.677 256.04 114.172 255.695C114.676 255.35 115.25 255.177 115.894 255.177C116.482 255.177 117.009 255.331 117.476 255.639C117.942 255.947 118.306 256.32 118.568 256.759V252.391H119.8V261.211C119.8 261.36 119.828 261.472 119.884 261.547C119.949 261.612 120.052 261.65 120.192 261.659V262.611C119.958 262.648 119.776 262.667 119.646 262.667C119.403 262.667 119.188 262.583 119.002 262.415C118.824 262.247 118.736 262.06 118.736 261.855V261.239C118.446 261.706 118.059 262.074 117.574 262.345C117.088 262.616 116.584 262.751 116.062 262.751C115.558 262.751 115.091 262.653 114.662 262.457C114.242 262.252 113.873 261.972 113.556 261.617C113.248 261.262 113.005 260.861 112.828 260.413C112.66 259.956 112.576 259.475 112.576 258.971ZM118.568 260.049V257.949C118.456 257.632 118.274 257.347 118.022 257.095C117.77 256.834 117.485 256.628 117.168 256.479C116.86 256.32 116.552 256.241 116.244 256.241C115.88 256.241 115.548 256.32 115.25 256.479C114.96 256.628 114.708 256.834 114.494 257.095C114.288 257.347 114.13 257.636 114.018 257.963C113.906 258.29 113.85 258.63 113.85 258.985C113.85 259.349 113.91 259.694 114.032 260.021C114.162 260.348 114.34 260.637 114.564 260.889C114.797 261.141 115.063 261.337 115.362 261.477C115.67 261.617 116.001 261.687 116.356 261.687C116.58 261.687 116.808 261.645 117.042 261.561C117.284 261.477 117.513 261.36 117.728 261.211C117.942 261.062 118.124 260.889 118.274 260.693C118.423 260.488 118.521 260.273 118.568 260.049ZM129.177 262.247C129.075 262.294 128.935 262.354 128.757 262.429C128.58 262.504 128.375 262.569 128.141 262.625C127.908 262.681 127.661 262.709 127.399 262.709C127.101 262.709 126.825 262.658 126.573 262.555C126.321 262.443 126.121 262.275 125.971 262.051C125.822 261.818 125.747 261.528 125.747 261.183V256.269H124.753V255.303H125.747V252.867H126.979V255.303H128.617V256.269H126.979V260.805C126.998 261.066 127.087 261.262 127.245 261.393C127.404 261.514 127.591 261.575 127.805 261.575C128.048 261.575 128.272 261.533 128.477 261.449C128.683 261.365 128.818 261.304 128.883 261.267L129.177 262.247ZM133.457 262.751C132.907 262.751 132.403 262.653 131.945 262.457C131.497 262.252 131.105 261.976 130.769 261.631C130.443 261.276 130.186 260.87 129.999 260.413C129.822 259.956 129.733 259.47 129.733 258.957C129.733 258.266 129.892 257.636 130.209 257.067C130.527 256.498 130.965 256.04 131.525 255.695C132.095 255.35 132.743 255.177 133.471 255.177C134.209 255.177 134.848 255.354 135.389 255.709C135.94 256.054 136.365 256.512 136.663 257.081C136.971 257.641 137.125 258.248 137.125 258.901C137.125 258.994 137.121 259.088 137.111 259.181C137.111 259.265 137.107 259.33 137.097 259.377H131.035C131.073 259.853 131.203 260.278 131.427 260.651C131.661 261.015 131.959 261.304 132.323 261.519C132.687 261.724 133.079 261.827 133.499 261.827C133.947 261.827 134.367 261.715 134.759 261.491C135.161 261.267 135.436 260.973 135.585 260.609L136.649 260.903C136.491 261.258 136.253 261.575 135.935 261.855C135.627 262.135 135.259 262.354 134.829 262.513C134.409 262.672 133.952 262.751 133.457 262.751ZM130.993 258.523H135.977C135.94 258.047 135.805 257.627 135.571 257.263C135.338 256.899 135.039 256.614 134.675 256.409C134.311 256.204 133.91 256.101 133.471 256.101C133.042 256.101 132.645 256.204 132.281 256.409C131.917 256.614 131.619 256.899 131.385 257.263C131.161 257.627 131.031 258.047 130.993 258.523ZM149.513 262.611H148.281V258.523C148.281 257.758 148.155 257.193 147.903 256.829C147.66 256.465 147.296 256.283 146.811 256.283C146.316 256.283 145.868 256.465 145.467 256.829C145.066 257.184 144.781 257.646 144.613 258.215V262.611H143.381V258.523C143.381 257.748 143.26 257.184 143.017 256.829C142.774 256.465 142.41 256.283 141.925 256.283C141.44 256.283 140.992 256.46 140.581 256.815C140.18 257.16 139.895 257.622 139.727 258.201V262.611H138.495V255.303H139.615V256.871C139.914 256.33 140.301 255.914 140.777 255.625C141.253 255.326 141.79 255.177 142.387 255.177C142.994 255.177 143.479 255.345 143.843 255.681C144.207 256.008 144.431 256.432 144.515 256.955C144.842 256.376 145.238 255.938 145.705 255.639C146.172 255.331 146.704 255.177 147.301 255.177C147.721 255.177 148.071 255.256 148.351 255.415C148.64 255.564 148.869 255.779 149.037 256.059C149.205 256.33 149.326 256.652 149.401 257.025C149.476 257.398 149.513 257.804 149.513 258.243V262.611ZM155.363 262.751C154.765 262.751 154.233 262.602 153.767 262.303C153.3 262.004 152.931 261.626 152.661 261.169V265.593H151.429V255.303H152.521V256.675C152.81 256.227 153.188 255.868 153.655 255.597C154.121 255.317 154.63 255.177 155.181 255.177C155.685 255.177 156.147 255.28 156.567 255.485C156.987 255.69 157.351 255.97 157.659 256.325C157.967 256.68 158.205 257.086 158.373 257.543C158.55 257.991 158.639 258.462 158.639 258.957C158.639 259.648 158.499 260.282 158.219 260.861C157.948 261.44 157.565 261.902 157.071 262.247C156.576 262.583 156.007 262.751 155.363 262.751ZM154.985 261.687C155.349 261.687 155.675 261.612 155.965 261.463C156.263 261.304 156.515 261.099 156.721 260.847C156.935 260.586 157.099 260.292 157.211 259.965C157.323 259.638 157.379 259.302 157.379 258.957C157.379 258.593 157.313 258.248 157.183 257.921C157.061 257.594 156.884 257.305 156.651 257.053C156.427 256.801 156.161 256.605 155.853 256.465C155.554 256.316 155.227 256.241 154.873 256.241C154.649 256.241 154.415 256.283 154.173 256.367C153.939 256.451 153.715 256.572 153.501 256.731C153.286 256.88 153.104 257.053 152.955 257.249C152.805 257.445 152.707 257.655 152.661 257.879V259.965C152.801 260.282 152.987 260.572 153.221 260.833C153.454 261.094 153.725 261.304 154.033 261.463C154.341 261.612 154.658 261.687 154.985 261.687ZM163.343 262.751C162.793 262.751 162.293 262.653 161.845 262.457C161.397 262.252 161.01 261.976 160.683 261.631C160.357 261.276 160.105 260.87 159.927 260.413C159.75 259.956 159.661 259.475 159.661 258.971C159.661 258.458 159.75 257.972 159.927 257.515C160.105 257.058 160.357 256.656 160.683 256.311C161.01 255.956 161.397 255.681 161.845 255.485C162.303 255.28 162.802 255.177 163.343 255.177C163.894 255.177 164.393 255.28 164.841 255.485C165.289 255.681 165.677 255.956 166.003 256.311C166.339 256.656 166.596 257.058 166.773 257.515C166.951 257.972 167.039 258.458 167.039 258.971C167.039 259.475 166.951 259.956 166.773 260.413C166.596 260.87 166.344 261.276 166.017 261.631C165.691 261.976 165.299 262.252 164.841 262.457C164.393 262.653 163.894 262.751 163.343 262.751ZM160.921 258.985C160.921 259.489 161.029 259.946 161.243 260.357C161.467 260.768 161.761 261.094 162.125 261.337C162.489 261.57 162.895 261.687 163.343 261.687C163.791 261.687 164.197 261.566 164.561 261.323C164.935 261.08 165.229 260.754 165.443 260.343C165.667 259.923 165.779 259.461 165.779 258.957C165.779 258.453 165.667 257.996 165.443 257.585C165.229 257.174 164.935 256.848 164.561 256.605C164.197 256.362 163.791 256.241 163.343 256.241C162.895 256.241 162.489 256.367 162.125 256.619C161.761 256.862 161.467 257.188 161.243 257.599C161.029 258.01 160.921 258.472 160.921 258.985ZM172.396 256.381C171.78 256.39 171.234 256.549 170.758 256.857C170.291 257.156 169.96 257.571 169.764 258.103V262.611H168.532V255.303H169.68V256.997C169.932 256.493 170.263 256.087 170.674 255.779C171.094 255.462 171.533 255.284 171.99 255.247C172.083 255.247 172.163 255.247 172.228 255.247C172.293 255.247 172.349 255.252 172.396 255.261V256.381ZM172.03 262.611V261.043H173.066V262.611H172.03ZM174.86 262.611V261.043H175.896V262.611H174.86ZM177.69 262.611V261.043H178.726V262.611H177.69Z" fill="#777777"/>
<path d="M47.0544 304.641L46.9284 301.869L53.5344 295.011H56.1624L50.6724 300.843L49.3764 302.265L47.0544 304.641ZM44.9664 307.611V295.011H47.3064V307.611H44.9664ZM53.7504 307.611L48.9264 301.869L50.4744 300.159L56.4864 307.611H53.7504ZM63.1595 297.891C63.9275 297.891 64.6115 298.041 65.2115 298.341C65.8235 298.641 66.3035 299.103 66.6515 299.727C66.9995 300.339 67.1735 301.131 67.1735 302.103V307.611H64.9235V302.391C64.9235 301.539 64.7195 300.903 64.3115 300.483C63.9155 300.063 63.3575 299.853 62.6375 299.853C62.1095 299.853 61.6415 299.961 61.2335 300.177C60.8255 300.393 60.5075 300.717 60.2795 301.149C60.0635 301.569 59.9555 302.103 59.9555 302.751V307.611H57.7055V297.999H59.8475V300.591L59.4695 299.799C59.8055 299.187 60.2915 298.719 60.9275 298.395C61.5755 298.059 62.3195 297.891 63.1595 297.891ZM74.3653 307.737C73.3813 307.737 72.5053 307.527 71.7373 307.107C70.9693 306.675 70.3633 306.087 69.9193 305.343C69.4753 304.599 69.2533 303.753 69.2533 302.805C69.2533 301.845 69.4753 300.999 69.9193 300.267C70.3633 299.523 70.9693 298.941 71.7373 298.521C72.5053 298.101 73.3813 297.891 74.3653 297.891C75.3613 297.891 76.2433 298.101 77.0113 298.521C77.7913 298.941 78.3973 299.517 78.8293 300.249C79.2733 300.981 79.4953 301.833 79.4953 302.805C79.4953 303.753 79.2733 304.599 78.8293 305.343C78.3973 306.087 77.7913 306.675 77.0113 307.107C76.2433 307.527 75.3613 307.737 74.3653 307.737ZM74.3653 305.811C74.9173 305.811 75.4093 305.691 75.8413 305.451C76.2733 305.211 76.6093 304.863 76.8493 304.407C77.1013 303.951 77.2273 303.417 77.2273 302.805C77.2273 302.181 77.1013 301.647 76.8493 301.203C76.6093 300.747 76.2733 300.399 75.8413 300.159C75.4093 299.919 74.9233 299.799 74.3833 299.799C73.8313 299.799 73.3393 299.919 72.9073 300.159C72.4873 300.399 72.1513 300.747 71.8993 301.203C71.6473 301.647 71.5213 302.181 71.5213 302.805C71.5213 303.417 71.6473 303.951 71.8993 304.407C72.1513 304.863 72.4873 305.211 72.9073 305.451C73.3393 305.691 73.8253 305.811 74.3653 305.811ZM83.5072 307.611L79.9792 297.999H82.1032L85.1272 306.477H84.1192L87.2872 297.999H89.1772L92.2552 306.477H91.2652L94.3792 297.999H96.3772L92.8312 307.611H90.6712L87.8632 300.105H88.5292L85.6672 307.611H83.5072ZM103.115 307.611V295.011H105.041L110.549 304.209H109.541L114.959 295.011H116.885L116.903 307.611H114.689L114.671 298.485H115.139L110.531 306.171H109.487L104.807 298.485H105.347V307.611H103.115ZM124.41 307.737C123.426 307.737 122.55 307.527 121.782 307.107C121.014 306.675 120.408 306.087 119.964 305.343C119.52 304.599 119.298 303.753 119.298 302.805C119.298 301.845 119.52 300.999 119.964 300.267C120.408 299.523 121.014 298.941 121.782 298.521C122.55 298.101 123.426 297.891 124.41 297.891C125.406 297.891 126.288 298.101 127.056 298.521C127.836 298.941 128.442 299.517 128.874 300.249C129.318 300.981 129.54 301.833 129.54 302.805C129.54 303.753 129.318 304.599 128.874 305.343C128.442 306.087 127.836 306.675 127.056 307.107C126.288 307.527 125.406 307.737 124.41 307.737ZM124.41 305.811C124.962 305.811 125.454 305.691 125.886 305.451C126.318 305.211 126.654 304.863 126.894 304.407C127.146 303.951 127.272 303.417 127.272 302.805C127.272 302.181 127.146 301.647 126.894 301.203C126.654 300.747 126.318 300.399 125.886 300.159C125.454 299.919 124.968 299.799 124.428 299.799C123.876 299.799 123.384 299.919 122.952 300.159C122.532 300.399 122.196 300.747 121.944 301.203C121.692 301.647 121.566 302.181 121.566 302.805C121.566 303.417 121.692 303.951 121.944 304.407C122.196 304.863 122.532 305.211 122.952 305.451C123.384 305.691 123.87 305.811 124.41 305.811ZM131.692 307.611V297.999H133.834V300.645L133.582 299.871C133.87 299.223 134.32 298.731 134.932 298.395C135.556 298.059 136.33 297.891 137.254 297.891V300.033C137.158 300.009 137.068 299.997 136.984 299.997C136.9 299.985 136.816 299.979 136.732 299.979C135.88 299.979 135.202 300.231 134.698 300.735C134.194 301.227 133.942 301.965 133.942 302.949V307.611H131.692ZM143.593 307.737C142.525 307.737 141.589 307.527 140.785 307.107C139.993 306.675 139.375 306.087 138.931 305.343C138.499 304.599 138.283 303.753 138.283 302.805C138.283 301.845 138.493 300.999 138.913 300.267C139.345 299.523 139.933 298.941 140.677 298.521C141.433 298.101 142.291 297.891 143.251 297.891C144.187 297.891 145.021 298.095 145.753 298.503C146.485 298.911 147.061 299.487 147.481 300.231C147.901 300.975 148.111 301.851 148.111 302.859C148.111 302.955 148.105 303.063 148.093 303.183C148.093 303.303 148.087 303.417 148.075 303.525H140.065V302.031H146.887L146.005 302.499C146.017 301.947 145.903 301.461 145.663 301.041C145.423 300.621 145.093 300.291 144.673 300.051C144.265 299.811 143.791 299.691 143.251 299.691C142.699 299.691 142.213 299.811 141.793 300.051C141.385 300.291 141.061 300.627 140.821 301.059C140.593 301.479 140.479 301.977 140.479 302.553V302.913C140.479 303.489 140.611 303.999 140.875 304.443C141.139 304.887 141.511 305.229 141.991 305.469C142.471 305.709 143.023 305.829 143.647 305.829C144.187 305.829 144.673 305.745 145.105 305.577C145.537 305.409 145.921 305.145 146.257 304.785L147.463 306.171C147.031 306.675 146.485 307.065 145.825 307.341C145.177 307.605 144.433 307.737 143.593 307.737Z" fill="#4A60A1"/>
<path d="M164.665 295.16C164.394 295.427 164.369 295.848 164.59 296.143L164.657 296.221L169.233 300.861L157.524 300.861C157.11 300.861 156.774 301.197 156.774 301.611C156.774 301.993 157.061 302.309 157.43 302.355L157.524 302.361H169.233L164.657 307.001C164.39 307.271 164.371 307.693 164.597 307.985L164.665 308.062C164.935 308.328 165.356 308.347 165.649 308.122L165.725 308.054L171.558 302.137C171.822 301.87 171.844 301.453 171.624 301.161L171.558 301.084L165.725 295.168C165.434 294.873 164.959 294.869 164.665 295.16Z" fill="#00B377"/>
<path d="M62.6368 145.75C59.4097 145.75 56.7803 143.208 56.7803 140.088C56.7803 136.969 59.4097 134.427 62.6368 134.427C65.8878 134.427 68.4933 136.969 68.4933 140.088C68.4933 143.208 65.8878 145.75 62.6368 145.75ZM50.2066 141.66L46.6688 144.34C46.3581 144.594 46.2625 145.01 46.4776 145.38L49.8242 150.972C49.9245 151.139 50.0833 151.265 50.2718 151.329C50.4603 151.393 50.6661 151.389 50.8521 151.319L55.0114 149.701C55.8719 150.348 56.8281 150.88 57.8321 151.295L58.4775 155.57C58.5253 155.963 58.8839 156.264 59.2902 156.264H65.9834C66.4137 156.264 66.7483 155.963 66.82 155.57L67.4415 151.295C68.4694 150.88 69.4017 150.348 70.2622 149.701L74.4455 151.319C74.804 151.457 75.2582 151.319 75.4494 150.972L78.796 145.38C78.8979 145.213 78.9346 145.017 78.8995 144.826C78.8644 144.635 78.7599 144.463 78.6048 144.34L75.067 141.66L75.1865 140.088L75.067 138.494L78.6048 135.837C78.7591 135.713 78.863 135.541 78.898 135.351C78.933 135.16 78.8969 134.964 78.796 134.797L75.4494 129.205C75.2582 128.835 74.804 128.696 74.4455 128.835L70.2622 130.476C69.4017 129.829 68.4694 129.274 67.4415 128.881L66.82 124.583C66.7483 124.213 66.4137 123.913 65.9834 123.913H59.2902C58.8839 123.913 58.5253 124.213 58.4775 124.583L57.8321 128.881C56.8281 129.274 55.8719 129.829 55.0114 130.476L50.8521 128.835C50.4457 128.696 50.0393 128.835 49.8242 129.205L46.4776 134.797C46.2625 135.143 46.3581 135.582 46.6688 135.837L50.2066 138.494L50.0871 140.088L50.2066 141.66ZM84.6526 121.764C82.5729 121.764 80.8996 120.147 80.8996 118.136C80.8996 116.126 82.5729 114.485 84.6526 114.485C85.6542 114.485 86.6149 114.87 87.3232 115.555C88.0315 116.239 88.4294 117.168 88.4294 118.136C88.4294 120.147 86.7322 121.764 84.6526 121.764ZM76.6686 119.153L74.3499 120.863C74.1825 121.025 74.1347 121.302 74.2781 121.533L76.4295 125.138C76.549 125.369 76.8359 125.461 77.0749 125.369L79.7522 124.329L81.5211 125.346L81.9753 128.096C82.0231 128.35 82.2382 128.535 82.5012 128.535H86.8039C87.0908 128.535 87.3059 128.35 87.3537 128.096L87.7362 125.346L89.5529 124.329L92.278 125.369C92.4931 125.461 92.7561 125.369 92.8995 125.138L95.0509 121.533C95.1943 121.302 95.1226 121.025 94.9313 120.863L92.6605 119.153L92.7322 118.136L92.6605 117.119L94.9313 115.409C95.0295 115.329 95.0953 115.218 95.1172 115.095C95.1391 114.973 95.1156 114.847 95.0509 114.739L92.8995 111.135C92.7561 110.904 92.4931 110.811 92.278 110.904L89.5768 111.943L87.7362 110.927L87.3537 108.177C87.3059 107.923 87.0908 107.738 86.8039 107.738H82.5012C82.2382 107.738 82.0231 107.923 81.9753 108.177L81.5211 110.927L79.7522 111.943L77.0749 110.904C76.8359 110.811 76.549 110.904 76.4295 111.135L74.2781 114.739C74.1347 114.97 74.1825 115.248 74.3499 115.409L76.6686 117.119L76.5968 118.136L76.6686 119.153Z" fill="#0B1C98"/>
<defs>
<filter id="filter0_d_773_488" x="0.274414" y="0.61084" width="290" height="377.979" filterUnits="userSpaceOnUse" color-interpolation-filters="sRGB">
<feFlood flood-opacity="0" result="BackgroundImageFix"/>
<feColorMatrix in="SourceAlpha" type="matrix" values="0 0 0 0 0 0 0 0 0 0 0 0 0 0 0 0 0 0 127 0" result="hardAlpha"/>
<feOffset/>
<feGaussianBlur stdDeviation="10"/>
<feComposite in2="hardAlpha" operator="out"/>
<feColorMatrix type="matrix" values="0 0 0 0 0.768627 0 0 0 0 0.768627 0 0 0 0 0.768627 0 0 0 0.15 0"/>
<feBlend mode="normal" in2="BackgroundImageFix" result="effect1_dropShadow_773_488"/>
<feBlend mode="normal" in="SourceGraphic" in2="effect1_dropShadow_773_488" result="shape"/>
</filter>
</defs>
</svg>
