<svg width="291" height="378" viewBox="0 0 291 378" fill="none" xmlns="http://www.w3.org/2000/svg">
<g filter="url(#filter0_d_773_472)">
<rect x="20.4317" y="20.0083" width="250" height="337.979" rx="12" fill="white"/>
<rect x="20.9317" y="20.5083" width="249" height="336.979" rx="11.5" stroke="black"/>
</g>
<path d="M46.2517 192.168C45.8384 192.168 45.5184 192.055 45.2917 191.828C45.0784 191.588 44.9717 191.262 44.9717 190.848V179.068C44.9717 178.642 45.0784 178.315 45.2917 178.088C45.5184 177.862 45.8384 177.748 46.2517 177.748C46.665 177.748 46.9784 177.862 47.1917 178.088C47.4184 178.315 47.5317 178.642 47.5317 179.068V183.788H54.7917V179.068C54.7917 178.642 54.8984 178.315 55.1117 178.088C55.3384 177.862 55.6584 177.748 56.0717 177.748C56.485 177.748 56.7984 177.862 57.0117 178.088C57.2384 178.315 57.3517 178.642 57.3517 179.068V190.848C57.3517 191.262 57.2384 191.588 57.0117 191.828C56.7984 192.055 56.485 192.168 56.0717 192.168C55.6584 192.168 55.3384 192.055 55.1117 191.828C54.8984 191.588 54.7917 191.262 54.7917 190.848V185.928H47.5317V190.848C47.5317 191.262 47.425 191.588 47.2117 191.828C46.9984 192.055 46.6784 192.168 46.2517 192.168ZM64.6605 192.208C63.6471 192.208 62.7671 192.002 62.0205 191.588C61.2738 191.175 60.6938 190.588 60.2805 189.828C59.8671 189.055 59.6605 188.148 59.6605 187.108C59.6605 186.322 59.7738 185.622 60.0005 185.008C60.2405 184.382 60.5805 183.848 61.0205 183.408C61.4605 182.955 61.9871 182.615 62.6005 182.388C63.2138 182.148 63.9005 182.028 64.6605 182.028C65.6738 182.028 66.5538 182.235 67.3005 182.648C68.0471 183.062 68.6271 183.648 69.0405 184.408C69.4538 185.168 69.6605 186.068 69.6605 187.108C69.6605 187.895 69.5405 188.602 69.3005 189.228C69.0738 189.855 68.7405 190.395 68.3005 190.848C67.8605 191.288 67.3338 191.628 66.7205 191.868C66.1071 192.095 65.4205 192.208 64.6605 192.208ZM64.6605 190.308C65.1538 190.308 65.5871 190.188 65.9605 189.948C66.3338 189.708 66.6205 189.355 66.8205 188.888C67.0338 188.408 67.1405 187.815 67.1405 187.108C67.1405 186.042 66.9138 185.248 66.4605 184.728C66.0071 184.195 65.4071 183.928 64.6605 183.928C64.1671 183.928 63.7338 184.048 63.3605 184.288C62.9871 184.515 62.6938 184.868 62.4805 185.348C62.2805 185.815 62.1805 186.402 62.1805 187.108C62.1805 188.162 62.4071 188.962 62.8605 189.508C63.3138 190.042 63.9138 190.308 64.6605 190.308ZM75.3039 192.208C74.7306 192.208 74.1239 192.148 73.4839 192.028C72.8439 191.908 72.2706 191.702 71.7639 191.408C71.5506 191.275 71.3972 191.122 71.3039 190.948C71.2239 190.762 71.1906 190.582 71.2039 190.408C71.2306 190.222 71.2972 190.062 71.4039 189.928C71.5239 189.795 71.6706 189.708 71.8439 189.668C72.0306 189.628 72.2306 189.662 72.4439 189.768C72.9772 190.022 73.4772 190.202 73.9439 190.308C74.4106 190.402 74.8706 190.448 75.3239 190.448C75.9639 190.448 76.4372 190.342 76.7439 190.128C77.0639 189.902 77.2239 189.608 77.2239 189.248C77.2239 188.942 77.1172 188.708 76.9039 188.548C76.7039 188.375 76.3972 188.248 75.9839 188.168L73.9839 187.788C73.1572 187.628 72.5239 187.328 72.0839 186.888C71.6572 186.435 71.4439 185.855 71.4439 185.148C71.4439 184.508 71.6172 183.955 71.9639 183.488C72.3239 183.022 72.8172 182.662 73.4439 182.408C74.0706 182.155 74.7906 182.028 75.6039 182.028C76.1906 182.028 76.7372 182.095 77.2439 182.228C77.7639 182.348 78.2639 182.542 78.7439 182.808C78.9439 182.915 79.0772 183.055 79.1439 183.228C79.2239 183.402 79.2439 183.582 79.2039 183.768C79.1639 183.942 79.0839 184.102 78.9639 184.248C78.8439 184.382 78.6906 184.468 78.5039 184.508C78.3306 184.535 78.1306 184.495 77.9039 184.388C77.4906 184.175 77.0906 184.022 76.7039 183.928C76.3306 183.835 75.9706 183.788 75.6239 183.788C74.9706 183.788 74.4839 183.902 74.1639 184.128C73.8572 184.355 73.7039 184.655 73.7039 185.028C73.7039 185.308 73.7972 185.542 73.9839 185.728C74.1706 185.915 74.4572 186.042 74.8439 186.108L76.8439 186.488C77.7106 186.648 78.3639 186.942 78.8039 187.368C79.2572 187.795 79.4839 188.368 79.4839 189.088C79.4839 190.062 79.1039 190.828 78.3439 191.388C77.5839 191.935 76.5706 192.208 75.3039 192.208ZM82.7295 195.768C82.3295 195.768 82.0228 195.662 81.8095 195.448C81.5962 195.235 81.4895 194.922 81.4895 194.508V183.328C81.4895 182.915 81.5962 182.602 81.8095 182.388C82.0228 182.175 82.3228 182.068 82.7095 182.068C83.1095 182.068 83.4162 182.175 83.6295 182.388C83.8428 182.602 83.9495 182.915 83.9495 183.328V184.888L83.7295 184.288C83.9295 183.608 84.3362 183.062 84.9495 182.648C85.5762 182.235 86.3028 182.028 87.1295 182.028C87.9828 182.028 88.7295 182.235 89.3695 182.648C90.0228 183.062 90.5295 183.648 90.8895 184.408C91.2495 185.155 91.4295 186.055 91.4295 187.108C91.4295 188.148 91.2495 189.055 90.8895 189.828C90.5295 190.588 90.0295 191.175 89.3895 191.588C88.7495 192.002 87.9962 192.208 87.1295 192.208C86.3162 192.208 85.6028 192.008 84.9895 191.608C84.3762 191.195 83.9628 190.662 83.7495 190.008H83.9895V194.508C83.9895 194.922 83.8762 195.235 83.6495 195.448C83.4362 195.662 83.1295 195.768 82.7295 195.768ZM86.4295 190.308C86.9228 190.308 87.3562 190.188 87.7295 189.948C88.1028 189.708 88.3895 189.355 88.5895 188.888C88.8028 188.408 88.9095 187.815 88.9095 187.108C88.9095 186.042 88.6828 185.248 88.2295 184.728C87.7762 184.195 87.1762 183.928 86.4295 183.928C85.9362 183.928 85.5028 184.048 85.1295 184.288C84.7562 184.515 84.4628 184.868 84.2495 185.348C84.0495 185.815 83.9495 186.402 83.9495 187.108C83.9495 188.162 84.1762 188.962 84.6295 189.508C85.0828 190.042 85.6828 190.308 86.4295 190.308ZM94.7217 192.148C94.3217 192.148 94.015 192.028 93.8017 191.788C93.5884 191.548 93.4817 191.215 93.4817 190.788V183.448C93.4817 183.008 93.5884 182.675 93.8017 182.448C94.015 182.208 94.3217 182.088 94.7217 182.088C95.1217 182.088 95.4284 182.208 95.6417 182.448C95.8684 182.675 95.9817 183.008 95.9817 183.448V190.788C95.9817 191.215 95.875 191.548 95.6617 191.788C95.4484 192.028 95.135 192.148 94.7217 192.148ZM94.7217 180.228C94.255 180.228 93.8884 180.115 93.6217 179.888C93.3684 179.648 93.2417 179.322 93.2417 178.908C93.2417 178.482 93.3684 178.155 93.6217 177.928C93.8884 177.702 94.255 177.588 94.7217 177.588C95.2017 177.588 95.5684 177.702 95.8217 177.928C96.075 178.155 96.2017 178.482 96.2017 178.908C96.2017 179.322 96.075 179.648 95.8217 179.888C95.5684 180.115 95.2017 180.228 94.7217 180.228ZM103.059 192.208C102.193 192.208 101.466 192.062 100.879 191.768C100.306 191.475 99.8794 191.048 99.5994 190.488C99.3194 189.915 99.1794 189.208 99.1794 188.368V184.108H98.1394C97.8194 184.108 97.5727 184.028 97.3994 183.868C97.226 183.695 97.1394 183.462 97.1394 183.168C97.1394 182.862 97.226 182.628 97.3994 182.468C97.5727 182.308 97.8194 182.228 98.1394 182.228H99.1794V180.408C99.1794 179.995 99.286 179.682 99.4994 179.468C99.726 179.255 100.039 179.148 100.439 179.148C100.839 179.148 101.146 179.255 101.359 179.468C101.573 179.682 101.679 179.995 101.679 180.408V182.228H103.799C104.119 182.228 104.366 182.308 104.539 182.468C104.713 182.628 104.799 182.862 104.799 183.168C104.799 183.462 104.713 183.695 104.539 183.868C104.366 184.028 104.119 184.108 103.799 184.108H101.679V188.228C101.679 188.868 101.819 189.348 102.099 189.668C102.379 189.988 102.833 190.148 103.459 190.148C103.686 190.148 103.886 190.128 104.059 190.088C104.233 190.048 104.386 190.022 104.519 190.008C104.679 189.995 104.813 190.048 104.919 190.168C105.026 190.275 105.079 190.502 105.079 190.848C105.079 191.115 105.033 191.355 104.939 191.568C104.859 191.768 104.706 191.908 104.479 191.988C104.306 192.042 104.079 192.088 103.799 192.128C103.519 192.182 103.273 192.208 103.059 192.208ZM109.475 192.208C108.768 192.208 108.135 192.075 107.575 191.808C107.028 191.528 106.595 191.155 106.275 190.688C105.968 190.222 105.815 189.695 105.815 189.108C105.815 188.388 106.002 187.822 106.375 187.408C106.748 186.982 107.355 186.675 108.195 186.488C109.035 186.302 110.162 186.208 111.575 186.208H112.575V187.648H111.595C110.768 187.648 110.108 187.688 109.615 187.768C109.122 187.848 108.768 187.988 108.555 188.188C108.355 188.375 108.255 188.642 108.255 188.988C108.255 189.428 108.408 189.788 108.715 190.068C109.022 190.348 109.448 190.488 109.995 190.488C110.435 190.488 110.822 190.388 111.155 190.188C111.502 189.975 111.775 189.688 111.975 189.328C112.175 188.968 112.275 188.555 112.275 188.088V185.788C112.275 185.122 112.128 184.642 111.835 184.348C111.542 184.055 111.048 183.908 110.355 183.908C109.968 183.908 109.548 183.955 109.095 184.048C108.655 184.142 108.188 184.302 107.695 184.528C107.442 184.648 107.215 184.682 107.015 184.628C106.828 184.575 106.682 184.468 106.575 184.308C106.468 184.135 106.415 183.948 106.415 183.748C106.415 183.548 106.468 183.355 106.575 183.168C106.682 182.968 106.862 182.822 107.115 182.728C107.728 182.475 108.315 182.295 108.875 182.188C109.448 182.082 109.968 182.028 110.435 182.028C111.395 182.028 112.182 182.175 112.795 182.468C113.422 182.762 113.888 183.208 114.195 183.808C114.502 184.395 114.655 185.155 114.655 186.088V190.888C114.655 191.302 114.555 191.622 114.355 191.848C114.155 192.062 113.868 192.168 113.495 192.168C113.122 192.168 112.828 192.062 112.615 191.848C112.415 191.622 112.315 191.302 112.315 190.888V189.928H112.475C112.382 190.395 112.195 190.802 111.915 191.148C111.648 191.482 111.308 191.742 110.895 191.928C110.482 192.115 110.008 192.208 109.475 192.208ZM120.533 192.208C119.426 192.208 118.593 191.895 118.033 191.268C117.473 190.628 117.193 189.695 117.193 188.468V179.008C117.193 178.595 117.299 178.282 117.513 178.068C117.726 177.855 118.033 177.748 118.433 177.748C118.833 177.748 119.139 177.855 119.353 178.068C119.579 178.282 119.693 178.595 119.693 179.008V188.348C119.693 188.962 119.819 189.415 120.073 189.708C120.339 190.002 120.713 190.148 121.193 190.148C121.299 190.148 121.399 190.148 121.493 190.148C121.586 190.135 121.679 190.122 121.773 190.108C121.959 190.082 122.086 190.135 122.153 190.268C122.219 190.388 122.253 190.642 122.253 191.028C122.253 191.362 122.186 191.622 122.053 191.808C121.919 191.995 121.699 192.108 121.393 192.148C121.259 192.162 121.119 192.175 120.973 192.188C120.826 192.202 120.679 192.208 120.533 192.208ZM124.819 192.148C124.419 192.148 124.113 192.028 123.899 191.788C123.686 191.548 123.579 191.215 123.579 190.788V183.448C123.579 183.008 123.686 182.675 123.899 182.448C124.113 182.208 124.419 182.088 124.819 182.088C125.219 182.088 125.526 182.208 125.739 182.448C125.966 182.675 126.079 183.008 126.079 183.448V190.788C126.079 191.215 125.973 191.548 125.759 191.788C125.546 192.028 125.233 192.148 124.819 192.148ZM124.819 180.228C124.353 180.228 123.986 180.115 123.719 179.888C123.466 179.648 123.339 179.322 123.339 178.908C123.339 178.482 123.466 178.155 123.719 177.928C123.986 177.702 124.353 177.588 124.819 177.588C125.299 177.588 125.666 177.702 125.919 177.928C126.173 178.155 126.299 178.482 126.299 178.908C126.299 179.322 126.173 179.648 125.919 179.888C125.666 180.115 125.299 180.228 124.819 180.228ZM133.157 192.208C132.29 192.208 131.564 192.062 130.977 191.768C130.404 191.475 129.977 191.048 129.697 190.488C129.417 189.915 129.277 189.208 129.277 188.368V184.108H128.237C127.917 184.108 127.67 184.028 127.497 183.868C127.324 183.695 127.237 183.462 127.237 183.168C127.237 182.862 127.324 182.628 127.497 182.468C127.67 182.308 127.917 182.228 128.237 182.228H129.277V180.408C129.277 179.995 129.384 179.682 129.597 179.468C129.824 179.255 130.137 179.148 130.537 179.148C130.937 179.148 131.244 179.255 131.457 179.468C131.67 179.682 131.777 179.995 131.777 180.408V182.228H133.897C134.217 182.228 134.464 182.308 134.637 182.468C134.81 182.628 134.897 182.862 134.897 183.168C134.897 183.462 134.81 183.695 134.637 183.868C134.464 184.028 134.217 184.108 133.897 184.108H131.777V188.228C131.777 188.868 131.917 189.348 132.197 189.668C132.477 189.988 132.93 190.148 133.557 190.148C133.784 190.148 133.984 190.128 134.157 190.088C134.33 190.048 134.484 190.022 134.617 190.008C134.777 189.995 134.91 190.048 135.017 190.168C135.124 190.275 135.177 190.502 135.177 190.848C135.177 191.115 135.13 191.355 135.037 191.568C134.957 191.768 134.804 191.908 134.577 191.988C134.404 192.042 134.177 192.088 133.897 192.128C133.617 192.182 133.37 192.208 133.157 192.208ZM138.989 195.768C138.696 195.768 138.456 195.688 138.269 195.528C138.082 195.382 137.969 195.182 137.929 194.928C137.902 194.675 137.949 194.408 138.069 194.128L139.429 191.108V192.148L135.789 183.728C135.669 183.435 135.629 183.162 135.669 182.908C135.709 182.655 135.829 182.455 136.029 182.308C136.242 182.148 136.529 182.068 136.889 182.068C137.196 182.068 137.442 182.142 137.629 182.288C137.816 182.422 137.982 182.682 138.129 183.068L140.829 189.808H140.229L142.989 183.048C143.136 182.675 143.309 182.422 143.509 182.288C143.709 182.142 143.976 182.068 144.309 182.068C144.602 182.068 144.836 182.148 145.009 182.308C145.182 182.455 145.289 182.655 145.329 182.908C145.369 183.148 145.322 183.415 145.189 183.708L140.329 194.808C140.156 195.182 139.969 195.435 139.769 195.568C139.569 195.702 139.309 195.768 138.989 195.768Z" fill="#212D4D"/>
<path d="M44.6217 220.008V210.068H45.8817V218.888H51.4257V220.008H44.6217ZM55.6841 220.148C55.1334 220.148 54.6341 220.05 54.1861 219.854C53.7381 219.649 53.3508 219.374 53.0241 219.028C52.6974 218.674 52.4454 218.268 52.2681 217.81C52.0908 217.353 52.0021 216.872 52.0021 216.368C52.0021 215.855 52.0908 215.37 52.2681 214.912C52.4454 214.455 52.6974 214.054 53.0241 213.708C53.3508 213.354 53.7381 213.078 54.1861 212.882C54.6434 212.677 55.1428 212.574 55.6841 212.574C56.2348 212.574 56.7341 212.677 57.1821 212.882C57.6301 213.078 58.0174 213.354 58.3441 213.708C58.6801 214.054 58.9368 214.455 59.1141 214.912C59.2914 215.37 59.3801 215.855 59.3801 216.368C59.3801 216.872 59.2914 217.353 59.1141 217.81C58.9368 218.268 58.6848 218.674 58.3581 219.028C58.0314 219.374 57.6394 219.649 57.1821 219.854C56.7341 220.05 56.2348 220.148 55.6841 220.148ZM53.2621 216.382C53.2621 216.886 53.3694 217.344 53.5841 217.754C53.8081 218.165 54.1021 218.492 54.4661 218.734C54.8301 218.968 55.2361 219.084 55.6841 219.084C56.1321 219.084 56.5381 218.963 56.9021 218.72C57.2754 218.478 57.5694 218.151 57.7841 217.74C58.0081 217.32 58.1201 216.858 58.1201 216.354C58.1201 215.85 58.0081 215.393 57.7841 214.982C57.5694 214.572 57.2754 214.245 56.9021 214.002C56.5381 213.76 56.1321 213.638 55.6841 213.638C55.2361 213.638 54.8301 213.764 54.4661 214.016C54.1021 214.259 53.8081 214.586 53.5841 214.996C53.3694 215.407 53.2621 215.869 53.2621 216.382ZM64.737 213.778C64.121 213.788 63.575 213.946 63.099 214.254C62.6323 214.553 62.301 214.968 62.105 215.5V220.008H60.873V212.7H62.021V214.394C62.273 213.89 62.6043 213.484 63.015 213.176C63.435 212.859 63.8736 212.682 64.331 212.644C64.4243 212.644 64.5036 212.644 64.569 212.644C64.6343 212.644 64.6903 212.649 64.737 212.658V213.778ZM69.0152 220.148C68.4645 220.148 67.9605 220.05 67.5032 219.854C67.0552 219.649 66.6632 219.374 66.3272 219.028C66.0005 218.674 65.7438 218.268 65.5572 217.81C65.3798 217.353 65.2912 216.868 65.2912 216.354C65.2912 215.664 65.4498 215.034 65.7672 214.464C66.0845 213.895 66.5232 213.438 67.0832 213.092C67.6525 212.747 68.3012 212.574 69.0292 212.574C69.7665 212.574 70.4058 212.752 70.9472 213.106C71.4978 213.452 71.9225 213.909 72.2212 214.478C72.5292 215.038 72.6832 215.645 72.6832 216.298C72.6832 216.392 72.6785 216.485 72.6692 216.578C72.6692 216.662 72.6645 216.728 72.6552 216.774H66.5932C66.6305 217.25 66.7612 217.675 66.9852 218.048C67.2185 218.412 67.5172 218.702 67.8812 218.916C68.2452 219.122 68.6372 219.224 69.0572 219.224C69.5052 219.224 69.9252 219.112 70.3172 218.888C70.7185 218.664 70.9938 218.37 71.1432 218.006L72.2072 218.3C72.0485 218.655 71.8105 218.972 71.4932 219.252C71.1852 219.532 70.8165 219.752 70.3872 219.91C69.9672 220.069 69.5098 220.148 69.0152 220.148ZM66.5512 215.92H71.5352C71.4978 215.444 71.3625 215.024 71.1292 214.66C70.8958 214.296 70.5972 214.012 70.2332 213.806C69.8692 213.601 69.4678 213.498 69.0292 213.498C68.5998 213.498 68.2032 213.601 67.8392 213.806C67.4752 214.012 67.1765 214.296 66.9432 214.66C66.7192 215.024 66.5885 215.444 66.5512 215.92ZM85.0707 220.008H83.8387V215.92C83.8387 215.155 83.7127 214.59 83.4607 214.226C83.218 213.862 82.854 213.68 82.3687 213.68C81.874 213.68 81.426 213.862 81.0247 214.226C80.6233 214.581 80.3387 215.043 80.1707 215.612V220.008H78.9387V215.92C78.9387 215.146 78.8173 214.581 78.5747 214.226C78.332 213.862 77.968 213.68 77.4827 213.68C76.9973 213.68 76.5493 213.858 76.1387 214.212C75.7373 214.558 75.4527 215.02 75.2847 215.598V220.008H74.0527V212.7H75.1727V214.268C75.4713 213.727 75.8587 213.312 76.3347 213.022C76.8107 212.724 77.3473 212.574 77.9447 212.574C78.5513 212.574 79.0367 212.742 79.4007 213.078C79.7647 213.405 79.9887 213.83 80.0727 214.352C80.3993 213.774 80.796 213.335 81.2627 213.036C81.7293 212.728 82.2613 212.574 82.8587 212.574C83.2787 212.574 83.6287 212.654 83.9087 212.812C84.198 212.962 84.4267 213.176 84.5947 213.456C84.7627 213.727 84.884 214.049 84.9587 214.422C85.0333 214.796 85.0707 215.202 85.0707 215.64V220.008ZM90.5273 220.008V212.7H91.7593V220.008H90.5273ZM90.5273 211.328V209.788H91.7593V211.328H90.5273ZM97.6878 220.148C97.0905 220.148 96.5585 219.999 96.0918 219.7C95.6252 219.402 95.2565 219.024 94.9858 218.566V222.99H93.7538V212.7H94.8458V214.072C95.1352 213.624 95.5132 213.265 95.9798 212.994C96.4465 212.714 96.9552 212.574 97.5058 212.574C98.0098 212.574 98.4718 212.677 98.8918 212.882C99.3118 213.088 99.6758 213.368 99.9838 213.722C100.292 214.077 100.53 214.483 100.698 214.94C100.875 215.388 100.964 215.86 100.964 216.354C100.964 217.045 100.824 217.68 100.544 218.258C100.273 218.837 99.8905 219.299 99.3958 219.644C98.9012 219.98 98.3318 220.148 97.6878 220.148ZM97.3098 219.084C97.6738 219.084 98.0005 219.01 98.2898 218.86C98.5885 218.702 98.8405 218.496 99.0458 218.244C99.2605 217.983 99.4238 217.689 99.5358 217.362C99.6478 217.036 99.7038 216.7 99.7038 216.354C99.7038 215.99 99.6385 215.645 99.5078 215.318C99.3865 214.992 99.2092 214.702 98.9758 214.45C98.7518 214.198 98.4858 214.002 98.1778 213.862C97.8792 213.713 97.5525 213.638 97.1978 213.638C96.9738 213.638 96.7405 213.68 96.4978 213.764C96.2645 213.848 96.0405 213.97 95.8258 214.128C95.6112 214.278 95.4292 214.45 95.2798 214.646C95.1305 214.842 95.0325 215.052 94.9858 215.276V217.362C95.1258 217.68 95.3125 217.969 95.5458 218.23C95.7792 218.492 96.0498 218.702 96.3578 218.86C96.6658 219.01 96.9832 219.084 97.3098 219.084ZM104.982 220.148C104.376 220.148 103.806 220.05 103.274 219.854C102.742 219.649 102.285 219.346 101.902 218.944L102.378 218.076C102.798 218.468 103.218 218.748 103.638 218.916C104.058 219.084 104.488 219.168 104.926 219.168C105.43 219.168 105.841 219.075 106.158 218.888C106.476 218.692 106.634 218.408 106.634 218.034C106.634 217.764 106.55 217.563 106.382 217.432C106.224 217.302 105.995 217.194 105.696 217.11C105.398 217.017 105.043 216.914 104.632 216.802C104.128 216.653 103.704 216.494 103.358 216.326C103.013 216.158 102.752 215.948 102.574 215.696C102.397 215.444 102.308 215.127 102.308 214.744C102.308 214.278 102.43 213.886 102.672 213.568C102.915 213.242 103.246 212.994 103.666 212.826C104.096 212.658 104.581 212.574 105.122 212.574C105.664 212.574 106.154 212.658 106.592 212.826C107.031 212.994 107.409 213.242 107.726 213.568L107.166 214.422C106.877 214.124 106.56 213.904 106.214 213.764C105.869 213.615 105.482 213.54 105.052 213.54C104.8 213.54 104.553 213.573 104.31 213.638C104.068 213.694 103.867 213.802 103.708 213.96C103.55 214.11 103.47 214.324 103.47 214.604C103.47 214.838 103.531 215.024 103.652 215.164C103.783 215.295 103.97 215.407 104.212 215.5C104.464 215.594 104.768 215.696 105.122 215.808C105.673 215.967 106.149 216.126 106.55 216.284C106.961 216.443 107.278 216.648 107.502 216.9C107.726 217.152 107.838 217.502 107.838 217.95C107.838 218.641 107.577 219.182 107.054 219.574C106.532 219.957 105.841 220.148 104.982 220.148ZM109.242 217.082V212.7H110.474V216.844C110.474 217.591 110.605 218.151 110.866 218.524C111.128 218.898 111.515 219.084 112.028 219.084C112.364 219.084 112.686 219.014 112.994 218.874C113.312 218.725 113.596 218.515 113.848 218.244C114.1 217.974 114.296 217.652 114.436 217.278V212.7H115.668V218.608C115.668 218.758 115.696 218.87 115.752 218.944C115.818 219.01 115.92 219.047 116.06 219.056V220.008C115.92 220.027 115.808 220.036 115.724 220.036C115.65 220.046 115.575 220.05 115.5 220.05C115.267 220.05 115.066 219.98 114.898 219.84C114.73 219.691 114.642 219.509 114.632 219.294L114.604 218.44C114.287 218.982 113.858 219.402 113.316 219.7C112.784 219.999 112.201 220.148 111.566 220.148C110.801 220.148 110.222 219.892 109.83 219.378C109.438 218.856 109.242 218.09 109.242 217.082ZM128.739 220.008H127.507V215.92C127.507 215.155 127.381 214.59 127.129 214.226C126.886 213.862 126.522 213.68 126.037 213.68C125.542 213.68 125.094 213.862 124.693 214.226C124.291 214.581 124.007 215.043 123.839 215.612V220.008H122.607V215.92C122.607 215.146 122.485 214.581 122.243 214.226C122 213.862 121.636 213.68 121.151 213.68C120.665 213.68 120.217 213.858 119.807 214.212C119.405 214.558 119.121 215.02 118.953 215.598V220.008H117.721V212.7H118.841V214.268C119.139 213.727 119.527 213.312 120.003 213.022C120.479 212.724 121.015 212.574 121.613 212.574C122.219 212.574 122.705 212.742 123.069 213.078C123.433 213.405 123.657 213.83 123.741 214.352C124.067 213.774 124.464 213.335 124.931 213.036C125.397 212.728 125.929 212.574 126.527 212.574C126.947 212.574 127.297 212.654 127.577 212.812C127.866 212.962 128.095 213.176 128.263 213.456C128.431 213.727 128.552 214.049 128.627 214.422C128.701 214.796 128.739 215.202 128.739 215.64V220.008ZM133.719 216.368C133.719 215.678 133.859 215.048 134.139 214.478C134.429 213.9 134.821 213.438 135.315 213.092C135.819 212.747 136.393 212.574 137.037 212.574C137.625 212.574 138.153 212.728 138.619 213.036C139.086 213.344 139.45 213.718 139.711 214.156V209.788H140.943V218.608C140.943 218.758 140.971 218.87 141.027 218.944C141.093 219.01 141.195 219.047 141.335 219.056V220.008C141.102 220.046 140.92 220.064 140.789 220.064C140.547 220.064 140.332 219.98 140.145 219.812C139.968 219.644 139.879 219.458 139.879 219.252V218.636C139.59 219.103 139.203 219.472 138.717 219.742C138.232 220.013 137.728 220.148 137.205 220.148C136.701 220.148 136.235 220.05 135.805 219.854C135.385 219.649 135.017 219.369 134.699 219.014C134.391 218.66 134.149 218.258 133.971 217.81C133.803 217.353 133.719 216.872 133.719 216.368ZM139.711 217.446V215.346C139.599 215.029 139.417 214.744 139.165 214.492C138.913 214.231 138.629 214.026 138.311 213.876C138.003 213.718 137.695 213.638 137.387 213.638C137.023 213.638 136.692 213.718 136.393 213.876C136.104 214.026 135.852 214.231 135.637 214.492C135.432 214.744 135.273 215.034 135.161 215.36C135.049 215.687 134.993 216.028 134.993 216.382C134.993 216.746 135.054 217.092 135.175 217.418C135.306 217.745 135.483 218.034 135.707 218.286C135.941 218.538 136.207 218.734 136.505 218.874C136.813 219.014 137.145 219.084 137.499 219.084C137.723 219.084 137.952 219.042 138.185 218.958C138.428 218.874 138.657 218.758 138.871 218.608C139.086 218.459 139.268 218.286 139.417 218.09C139.567 217.885 139.665 217.67 139.711 217.446ZM146.192 220.148C145.641 220.148 145.142 220.05 144.694 219.854C144.246 219.649 143.859 219.374 143.532 219.028C143.205 218.674 142.953 218.268 142.776 217.81C142.599 217.353 142.51 216.872 142.51 216.368C142.51 215.855 142.599 215.37 142.776 214.912C142.953 214.455 143.205 214.054 143.532 213.708C143.859 213.354 144.246 213.078 144.694 212.882C145.151 212.677 145.651 212.574 146.192 212.574C146.743 212.574 147.242 212.677 147.69 212.882C148.138 213.078 148.525 213.354 148.852 213.708C149.188 214.054 149.445 214.455 149.622 214.912C149.799 215.37 149.888 215.855 149.888 216.368C149.888 216.872 149.799 217.353 149.622 217.81C149.445 218.268 149.193 218.674 148.866 219.028C148.539 219.374 148.147 219.649 147.69 219.854C147.242 220.05 146.743 220.148 146.192 220.148ZM143.77 216.382C143.77 216.886 143.877 217.344 144.092 217.754C144.316 218.165 144.61 218.492 144.974 218.734C145.338 218.968 145.744 219.084 146.192 219.084C146.64 219.084 147.046 218.963 147.41 218.72C147.783 218.478 148.077 218.151 148.292 217.74C148.516 217.32 148.628 216.858 148.628 216.354C148.628 215.85 148.516 215.393 148.292 214.982C148.077 214.572 147.783 214.245 147.41 214.002C147.046 213.76 146.64 213.638 146.192 213.638C145.744 213.638 145.338 213.764 144.974 214.016C144.61 214.259 144.316 214.586 144.092 214.996C143.877 215.407 143.77 215.869 143.77 216.382ZM151.409 209.788H152.641V218.118C152.641 218.52 152.697 218.767 152.809 218.86C152.921 218.954 153.056 219 153.215 219C153.411 219 153.597 218.982 153.775 218.944C153.952 218.898 154.101 218.851 154.223 218.804L154.419 219.812C154.213 219.896 153.971 219.966 153.691 220.022C153.411 220.078 153.163 220.106 152.949 220.106C152.473 220.106 152.095 219.971 151.815 219.7C151.544 219.43 151.409 219.052 151.409 218.566V209.788ZM158.579 220.148C158.028 220.148 157.529 220.05 157.081 219.854C156.633 219.649 156.245 219.374 155.919 219.028C155.592 218.674 155.34 218.268 155.163 217.81C154.985 217.353 154.897 216.872 154.897 216.368C154.897 215.855 154.985 215.37 155.163 214.912C155.34 214.455 155.592 214.054 155.919 213.708C156.245 213.354 156.633 213.078 157.081 212.882C157.538 212.677 158.037 212.574 158.579 212.574C159.129 212.574 159.629 212.677 160.077 212.882C160.525 213.078 160.912 213.354 161.239 213.708C161.575 214.054 161.831 214.455 162.009 214.912C162.186 215.37 162.275 215.855 162.275 216.368C162.275 216.872 162.186 217.353 162.009 217.81C161.831 218.268 161.579 218.674 161.253 219.028C160.926 219.374 160.534 219.649 160.077 219.854C159.629 220.05 159.129 220.148 158.579 220.148ZM156.157 216.382C156.157 216.886 156.264 217.344 156.479 217.754C156.703 218.165 156.997 218.492 157.361 218.734C157.725 218.968 158.131 219.084 158.579 219.084C159.027 219.084 159.433 218.963 159.797 218.72C160.17 218.478 160.464 218.151 160.679 217.74C160.903 217.32 161.015 216.858 161.015 216.354C161.015 215.85 160.903 215.393 160.679 214.982C160.464 214.572 160.17 214.245 159.797 214.002C159.433 213.76 159.027 213.638 158.579 213.638C158.131 213.638 157.725 213.764 157.361 214.016C156.997 214.259 156.703 214.586 156.479 214.996C156.264 215.407 156.157 215.869 156.157 216.382ZM167.631 213.778C167.015 213.788 166.469 213.946 165.993 214.254C165.527 214.553 165.195 214.968 164.999 215.5V220.008H163.767V212.7H164.915V214.394C165.167 213.89 165.499 213.484 165.909 213.176C166.329 212.859 166.768 212.682 167.225 212.644C167.319 212.644 167.398 212.644 167.463 212.644C167.529 212.644 167.585 212.649 167.631 212.658V213.778ZM174.572 220.148C173.966 220.148 173.396 220.05 172.864 219.854C172.332 219.649 171.875 219.346 171.492 218.944L171.968 218.076C172.388 218.468 172.808 218.748 173.228 218.916C173.648 219.084 174.078 219.168 174.516 219.168C175.02 219.168 175.431 219.075 175.748 218.888C176.066 218.692 176.224 218.408 176.224 218.034C176.224 217.764 176.14 217.563 175.972 217.432C175.814 217.302 175.585 217.194 175.286 217.11C174.988 217.017 174.633 216.914 174.222 216.802C173.718 216.653 173.294 216.494 172.948 216.326C172.603 216.158 172.342 215.948 172.164 215.696C171.987 215.444 171.898 215.127 171.898 214.744C171.898 214.278 172.02 213.886 172.262 213.568C172.505 213.242 172.836 212.994 173.256 212.826C173.686 212.658 174.171 212.574 174.712 212.574C175.254 212.574 175.744 212.658 176.182 212.826C176.621 212.994 176.999 213.242 177.316 213.568L176.756 214.422C176.467 214.124 176.15 213.904 175.804 213.764C175.459 213.615 175.072 213.54 174.642 213.54C174.39 213.54 174.143 213.573 173.9 213.638C173.658 213.694 173.457 213.802 173.298 213.96C173.14 214.11 173.06 214.324 173.06 214.604C173.06 214.838 173.121 215.024 173.242 215.164C173.373 215.295 173.56 215.407 173.802 215.5C174.054 215.594 174.358 215.696 174.712 215.808C175.263 215.967 175.739 216.126 176.14 216.284C176.551 216.443 176.868 216.648 177.092 216.9C177.316 217.152 177.428 217.502 177.428 217.95C177.428 218.641 177.167 219.182 176.644 219.574C176.122 219.957 175.431 220.148 174.572 220.148ZM178.902 220.008V212.7H180.134V220.008H178.902ZM178.902 211.328V209.788H180.134V211.328H178.902ZM185.909 219.644C185.806 219.691 185.666 219.752 185.489 219.826C185.311 219.901 185.106 219.966 184.873 220.022C184.639 220.078 184.392 220.106 184.131 220.106C183.832 220.106 183.557 220.055 183.305 219.952C183.053 219.84 182.852 219.672 182.703 219.448C182.553 219.215 182.479 218.926 182.479 218.58V213.666H181.485V212.7H182.479V210.264H183.711V212.7H185.349V213.666H183.711V218.202C183.729 218.464 183.818 218.66 183.977 218.79C184.135 218.912 184.322 218.972 184.537 218.972C184.779 218.972 185.003 218.93 185.209 218.846C185.414 218.762 185.549 218.702 185.615 218.664L185.909 219.644ZM190.018 217.894C190.018 217.428 190.148 217.026 190.41 216.69C190.68 216.345 191.049 216.079 191.516 215.892C191.982 215.706 192.524 215.612 193.14 215.612C193.466 215.612 193.812 215.64 194.176 215.696C194.54 215.743 194.862 215.818 195.142 215.92V215.388C195.142 214.828 194.974 214.39 194.638 214.072C194.302 213.746 193.826 213.582 193.21 213.582C192.808 213.582 192.421 213.657 192.048 213.806C191.684 213.946 191.296 214.152 190.886 214.422L190.438 213.554C190.914 213.228 191.39 212.985 191.866 212.826C192.342 212.658 192.836 212.574 193.35 212.574C194.283 212.574 195.02 212.836 195.562 213.358C196.103 213.872 196.374 214.59 196.374 215.514V218.608C196.374 218.758 196.402 218.87 196.458 218.944C196.523 219.01 196.626 219.047 196.766 219.056V220.008C196.644 220.027 196.537 220.041 196.444 220.05C196.36 220.06 196.29 220.064 196.234 220.064C195.944 220.064 195.725 219.985 195.576 219.826C195.436 219.668 195.356 219.5 195.338 219.322L195.31 218.86C194.992 219.271 194.577 219.588 194.064 219.812C193.55 220.036 193.042 220.148 192.538 220.148C192.052 220.148 191.618 220.05 191.236 219.854C190.853 219.649 190.554 219.378 190.34 219.042C190.125 218.697 190.018 218.314 190.018 217.894ZM194.778 218.412C194.89 218.282 194.978 218.151 195.044 218.02C195.109 217.88 195.142 217.764 195.142 217.67V216.76C194.852 216.648 194.549 216.564 194.232 216.508C193.914 216.443 193.602 216.41 193.294 216.41C192.668 216.41 192.16 216.536 191.768 216.788C191.385 217.031 191.194 217.367 191.194 217.796C191.194 218.03 191.254 218.258 191.376 218.482C191.506 218.697 191.693 218.874 191.936 219.014C192.188 219.154 192.496 219.224 192.86 219.224C193.242 219.224 193.606 219.15 193.952 219C194.297 218.842 194.572 218.646 194.778 218.412ZM209.362 220.008H208.13V215.92C208.13 215.155 208.004 214.59 207.752 214.226C207.509 213.862 207.145 213.68 206.66 213.68C206.165 213.68 205.717 213.862 205.316 214.226C204.914 214.581 204.63 215.043 204.462 215.612V220.008H203.23V215.92C203.23 215.146 203.108 214.581 202.866 214.226C202.623 213.862 202.259 213.68 201.774 213.68C201.288 213.68 200.84 213.858 200.43 214.212C200.028 214.558 199.744 215.02 199.576 215.598V220.008H198.344V212.7H199.464V214.268C199.762 213.727 200.15 213.312 200.626 213.022C201.102 212.724 201.638 212.574 202.236 212.574C202.842 212.574 203.328 212.742 203.692 213.078C204.056 213.405 204.28 213.83 204.364 214.352C204.69 213.774 205.087 213.335 205.554 213.036C206.02 212.728 206.552 212.574 207.15 212.574C207.57 212.574 207.92 212.654 208.2 212.812C208.489 212.962 208.718 213.176 208.886 213.456C209.054 213.727 209.175 214.049 209.25 214.422C209.324 214.796 209.362 215.202 209.362 215.64V220.008ZM214.511 220.148C213.961 220.148 213.457 220.05 212.999 219.854C212.551 219.649 212.159 219.374 211.823 219.028C211.497 218.674 211.24 218.268 211.053 217.81C210.876 217.353 210.787 216.868 210.787 216.354C210.787 215.664 210.946 215.034 211.263 214.464C211.581 213.895 212.019 213.438 212.579 213.092C213.149 212.747 213.797 212.574 214.525 212.574C215.263 212.574 215.902 212.752 216.443 213.106C216.994 213.452 217.419 213.909 217.717 214.478C218.025 215.038 218.179 215.645 218.179 216.298C218.179 216.392 218.175 216.485 218.165 216.578C218.165 216.662 218.161 216.728 218.151 216.774H212.089C212.127 217.25 212.257 217.675 212.481 218.048C212.715 218.412 213.013 218.702 213.377 218.916C213.741 219.122 214.133 219.224 214.553 219.224C215.001 219.224 215.421 219.112 215.813 218.888C216.215 218.664 216.49 218.37 216.639 218.006L217.703 218.3C217.545 218.655 217.307 218.972 216.989 219.252C216.681 219.532 216.313 219.752 215.883 219.91C215.463 220.069 215.006 220.148 214.511 220.148ZM212.047 215.92H217.031C216.994 215.444 216.859 215.024 216.625 214.66C216.392 214.296 216.093 214.012 215.729 213.806C215.365 213.601 214.964 213.498 214.525 213.498C214.096 213.498 213.699 213.601 213.335 213.806C212.971 214.012 212.673 214.296 212.439 214.66C212.215 215.024 212.085 215.444 212.047 215.92ZM223.26 219.644C223.158 219.691 223.018 219.752 222.84 219.826C222.663 219.901 222.458 219.966 222.224 220.022C221.991 220.078 221.744 220.106 221.482 220.106C221.184 220.106 220.908 220.055 220.656 219.952C220.404 219.84 220.204 219.672 220.054 219.448C219.905 219.215 219.83 218.926 219.83 218.58V213.666H218.836V212.7H219.83V210.264H221.062V212.7H222.7V213.666H221.062V218.202C221.081 218.464 221.17 218.66 221.328 218.79C221.487 218.912 221.674 218.972 221.888 218.972C222.131 218.972 222.355 218.93 222.56 218.846C222.766 218.762 222.901 218.702 222.966 218.664L223.26 219.644ZM224.444 221.142L224.724 219.896H224.304V218.44H225.466V219.896L225.046 221.142H224.444ZM47.6597 241.148C47.109 241.148 46.605 241.05 46.1477 240.854C45.6997 240.649 45.3077 240.369 44.9717 240.014C44.645 239.66 44.3884 239.254 44.2017 238.796C44.0244 238.339 43.9357 237.854 43.9357 237.34C43.9357 236.65 44.0897 236.02 44.3977 235.45C44.7057 234.881 45.1397 234.428 45.6997 234.092C46.2597 233.747 46.9084 233.574 47.6457 233.574C48.3644 233.574 48.9897 233.738 49.5217 234.064C50.063 234.382 50.4644 234.811 50.7257 235.352L49.5217 235.73C49.335 235.385 49.0737 235.119 48.7377 234.932C48.4017 234.736 48.0284 234.638 47.6177 234.638C47.1697 234.638 46.759 234.755 46.3857 234.988C46.0217 235.222 45.7324 235.544 45.5177 235.954C45.303 236.356 45.1957 236.818 45.1957 237.34C45.1957 237.854 45.303 238.32 45.5177 238.74C45.7417 239.151 46.0357 239.478 46.3997 239.72C46.773 239.963 47.1837 240.084 47.6317 240.084C47.921 240.084 48.1964 240.033 48.4577 239.93C48.7284 239.828 48.9617 239.692 49.1577 239.524C49.363 239.347 49.503 239.156 49.5777 238.95L50.7817 239.314C50.6324 239.669 50.4037 239.986 50.0957 240.266C49.797 240.537 49.4377 240.752 49.0177 240.91C48.607 241.069 48.1544 241.148 47.6597 241.148ZM55.3013 241.148C54.7506 241.148 54.2513 241.05 53.8033 240.854C53.3553 240.649 52.968 240.374 52.6413 240.028C52.3146 239.674 52.0626 239.268 51.8853 238.81C51.708 238.353 51.6193 237.872 51.6193 237.368C51.6193 236.855 51.708 236.37 51.8853 235.912C52.0626 235.455 52.3146 235.054 52.6413 234.708C52.968 234.354 53.3553 234.078 53.8033 233.882C54.2606 233.677 54.76 233.574 55.3013 233.574C55.852 233.574 56.3513 233.677 56.7993 233.882C57.2473 234.078 57.6346 234.354 57.9613 234.708C58.2973 235.054 58.554 235.455 58.7313 235.912C58.9086 236.37 58.9973 236.855 58.9973 237.368C58.9973 237.872 58.9086 238.353 58.7313 238.81C58.554 239.268 58.302 239.674 57.9753 240.028C57.6486 240.374 57.2566 240.649 56.7993 240.854C56.3513 241.05 55.852 241.148 55.3013 241.148ZM52.8793 237.382C52.8793 237.886 52.9866 238.344 53.2013 238.754C53.4253 239.165 53.7193 239.492 54.0833 239.734C54.4473 239.968 54.8533 240.084 55.3013 240.084C55.7493 240.084 56.1553 239.963 56.5193 239.72C56.8926 239.478 57.1866 239.151 57.4013 238.74C57.6253 238.32 57.7373 237.858 57.7373 237.354C57.7373 236.85 57.6253 236.393 57.4013 235.982C57.1866 235.572 56.8926 235.245 56.5193 235.002C56.1553 234.76 55.7493 234.638 55.3013 234.638C54.8533 234.638 54.4473 234.764 54.0833 235.016C53.7193 235.259 53.4253 235.586 53.2013 235.996C52.9866 236.407 52.8793 236.869 52.8793 237.382ZM66.8322 241.008H65.6002V236.92C65.6002 236.146 65.4788 235.581 65.2362 235.226C65.0028 234.862 64.6435 234.68 64.1582 234.68C63.8222 234.68 63.4862 234.764 63.1502 234.932C62.8235 235.1 62.5295 235.329 62.2682 235.618C62.0162 235.898 61.8342 236.225 61.7222 236.598V241.008H60.4902V233.7H61.6102V235.268C61.8062 234.923 62.0582 234.624 62.3662 234.372C62.6742 234.12 63.0242 233.924 63.4162 233.784C63.8082 233.644 64.2188 233.574 64.6482 233.574C65.0682 233.574 65.4182 233.654 65.6982 233.812C65.9875 233.962 66.2115 234.176 66.3702 234.456C66.5382 234.727 66.6548 235.049 66.7202 235.422C66.7948 235.796 66.8322 236.202 66.8322 236.64V241.008ZM71.254 241.148C70.6473 241.148 70.078 241.05 69.546 240.854C69.014 240.649 68.5566 240.346 68.174 239.944L68.65 239.076C69.07 239.468 69.49 239.748 69.91 239.916C70.33 240.084 70.7593 240.168 71.198 240.168C71.702 240.168 72.1126 240.075 72.43 239.888C72.7473 239.692 72.906 239.408 72.906 239.034C72.906 238.764 72.822 238.563 72.654 238.432C72.4953 238.302 72.2666 238.194 71.968 238.11C71.6693 238.017 71.3146 237.914 70.904 237.802C70.4 237.653 69.9753 237.494 69.63 237.326C69.2846 237.158 69.0233 236.948 68.846 236.696C68.6686 236.444 68.58 236.127 68.58 235.744C68.58 235.278 68.7013 234.886 68.944 234.568C69.1866 234.242 69.518 233.994 69.938 233.826C70.3673 233.658 70.8526 233.574 71.394 233.574C71.9353 233.574 72.4253 233.658 72.864 233.826C73.3026 233.994 73.6806 234.242 73.998 234.568L73.438 235.422C73.1486 235.124 72.8313 234.904 72.486 234.764C72.1406 234.615 71.7533 234.54 71.324 234.54C71.072 234.54 70.8246 234.573 70.582 234.638C70.3393 234.694 70.1386 234.802 69.98 234.96C69.8213 235.11 69.742 235.324 69.742 235.604C69.742 235.838 69.8026 236.024 69.924 236.164C70.0546 236.295 70.2413 236.407 70.484 236.5C70.736 236.594 71.0393 236.696 71.394 236.808C71.9446 236.967 72.4206 237.126 72.822 237.284C73.2326 237.443 73.55 237.648 73.774 237.9C73.998 238.152 74.11 238.502 74.11 238.95C74.11 239.641 73.8486 240.182 73.326 240.574C72.8033 240.957 72.1126 241.148 71.254 241.148ZM78.8179 241.148C78.2672 241.148 77.7632 241.05 77.3059 240.854C76.8579 240.649 76.4659 240.374 76.1299 240.028C75.8032 239.674 75.5466 239.268 75.3599 238.81C75.1826 238.353 75.0939 237.868 75.0939 237.354C75.0939 236.664 75.2526 236.034 75.5699 235.464C75.8872 234.895 76.3259 234.438 76.8859 234.092C77.4552 233.747 78.1039 233.574 78.8319 233.574C79.5692 233.574 80.2086 233.752 80.7499 234.106C81.3006 234.452 81.7252 234.909 82.0239 235.478C82.3319 236.038 82.4859 236.645 82.4859 237.298C82.4859 237.392 82.4812 237.485 82.4719 237.578C82.4719 237.662 82.4672 237.728 82.4579 237.774H76.3959C76.4332 238.25 76.5639 238.675 76.7879 239.048C77.0212 239.412 77.3199 239.702 77.6839 239.916C78.0479 240.122 78.4399 240.224 78.8599 240.224C79.3079 240.224 79.7279 240.112 80.1199 239.888C80.5212 239.664 80.7966 239.37 80.9459 239.006L82.0099 239.3C81.8512 239.655 81.6132 239.972 81.2959 240.252C80.9879 240.532 80.6192 240.752 80.1899 240.91C79.7699 241.069 79.3126 241.148 78.8179 241.148ZM76.3539 236.92H81.3379C81.3006 236.444 81.1652 236.024 80.9319 235.66C80.6986 235.296 80.3999 235.012 80.0359 234.806C79.6719 234.601 79.2706 234.498 78.8319 234.498C78.4026 234.498 78.0059 234.601 77.6419 234.806C77.2779 235.012 76.9792 235.296 76.7459 235.66C76.5219 236.024 76.3912 236.444 76.3539 236.92ZM87.0894 241.148C86.5387 241.148 86.0347 241.05 85.5774 240.854C85.1294 240.649 84.7374 240.369 84.4014 240.014C84.0747 239.66 83.8181 239.254 83.6314 238.796C83.4541 238.339 83.3654 237.854 83.3654 237.34C83.3654 236.65 83.5194 236.02 83.8274 235.45C84.1354 234.881 84.5694 234.428 85.1294 234.092C85.6894 233.747 86.3381 233.574 87.0754 233.574C87.7941 233.574 88.4194 233.738 88.9514 234.064C89.4927 234.382 89.8941 234.811 90.1554 235.352L88.9514 235.73C88.7647 235.385 88.5034 235.119 88.1674 234.932C87.8314 234.736 87.4581 234.638 87.0474 234.638C86.5994 234.638 86.1887 234.755 85.8154 234.988C85.4514 235.222 85.1621 235.544 84.9474 235.954C84.7327 236.356 84.6254 236.818 84.6254 237.34C84.6254 237.854 84.7327 238.32 84.9474 238.74C85.1714 239.151 85.4654 239.478 85.8294 239.72C86.2027 239.963 86.6134 240.084 87.0614 240.084C87.3507 240.084 87.6261 240.033 87.8874 239.93C88.1581 239.828 88.3914 239.692 88.5874 239.524C88.7927 239.347 88.9327 239.156 89.0074 238.95L90.2114 239.314C90.0621 239.669 89.8334 239.986 89.5254 240.266C89.2267 240.537 88.8674 240.752 88.4474 240.91C88.0367 241.069 87.5841 241.148 87.0894 241.148ZM95.3873 240.644C95.2847 240.691 95.1447 240.752 94.9673 240.826C94.79 240.901 94.5847 240.966 94.3513 241.022C94.118 241.078 93.8707 241.106 93.6093 241.106C93.3107 241.106 93.0353 241.055 92.7833 240.952C92.5313 240.84 92.3307 240.672 92.1813 240.448C92.032 240.215 91.9573 239.926 91.9573 239.58V234.666H90.9633V233.7H91.9573V231.264H93.1893V233.7H94.8273V234.666H93.1893V239.202C93.208 239.464 93.2967 239.66 93.4553 239.79C93.614 239.912 93.8007 239.972 94.0153 239.972C94.258 239.972 94.482 239.93 94.6873 239.846C94.8927 239.762 95.028 239.702 95.0933 239.664L95.3873 240.644ZM99.6675 241.148C99.1168 241.148 98.6128 241.05 98.1555 240.854C97.7075 240.649 97.3155 240.374 96.9795 240.028C96.6528 239.674 96.3962 239.268 96.2095 238.81C96.0322 238.353 95.9435 237.868 95.9435 237.354C95.9435 236.664 96.1022 236.034 96.4195 235.464C96.7368 234.895 97.1755 234.438 97.7355 234.092C98.3048 233.747 98.9535 233.574 99.6815 233.574C100.419 233.574 101.058 233.752 101.6 234.106C102.15 234.452 102.575 234.909 102.874 235.478C103.182 236.038 103.336 236.645 103.336 237.298C103.336 237.392 103.331 237.485 103.322 237.578C103.322 237.662 103.317 237.728 103.308 237.774H97.2455C97.2828 238.25 97.4135 238.675 97.6375 239.048C97.8708 239.412 98.1695 239.702 98.5335 239.916C98.8975 240.122 99.2895 240.224 99.7095 240.224C100.158 240.224 100.578 240.112 100.97 239.888C101.371 239.664 101.646 239.37 101.796 239.006L102.86 239.3C102.701 239.655 102.463 239.972 102.146 240.252C101.838 240.532 101.469 240.752 101.04 240.91C100.62 241.069 100.162 241.148 99.6675 241.148ZM97.2035 236.92H102.188C102.15 236.444 102.015 236.024 101.782 235.66C101.548 235.296 101.25 235.012 100.886 234.806C100.522 234.601 100.12 234.498 99.6815 234.498C99.2522 234.498 98.8555 234.601 98.4915 234.806C98.1275 235.012 97.8288 235.296 97.5955 235.66C97.3715 236.024 97.2408 236.444 97.2035 236.92ZM108.417 240.644C108.314 240.691 108.174 240.752 107.997 240.826C107.819 240.901 107.614 240.966 107.381 241.022C107.147 241.078 106.9 241.106 106.639 241.106C106.34 241.106 106.065 241.055 105.813 240.952C105.561 240.84 105.36 240.672 105.211 240.448C105.061 240.215 104.987 239.926 104.987 239.58V234.666H103.993V233.7H104.987V231.264H106.219V233.7H107.857V234.666H106.219V239.202C106.237 239.464 106.326 239.66 106.485 239.79C106.643 239.912 106.83 239.972 107.045 239.972C107.287 239.972 107.511 239.93 107.717 239.846C107.922 239.762 108.057 239.702 108.123 239.664L108.417 240.644ZM109.489 238.082V233.7H110.721V237.844C110.721 238.591 110.851 239.151 111.113 239.524C111.374 239.898 111.761 240.084 112.275 240.084C112.611 240.084 112.933 240.014 113.241 239.874C113.558 239.725 113.843 239.515 114.095 239.244C114.347 238.974 114.543 238.652 114.683 238.278V233.7H115.915V239.608C115.915 239.758 115.943 239.87 115.999 239.944C116.064 240.01 116.167 240.047 116.307 240.056V241.008C116.167 241.027 116.055 241.036 115.971 241.036C115.896 241.046 115.821 241.05 115.747 241.05C115.513 241.05 115.313 240.98 115.145 240.84C114.977 240.691 114.888 240.509 114.879 240.294L114.851 239.44C114.533 239.982 114.104 240.402 113.563 240.7C113.031 240.999 112.447 241.148 111.813 241.148C111.047 241.148 110.469 240.892 110.077 240.378C109.685 239.856 109.489 239.09 109.489 238.082ZM121.831 234.778C121.215 234.788 120.669 234.946 120.193 235.254C119.726 235.553 119.395 235.968 119.199 236.5V241.008H117.967V233.7H119.115V235.394C119.367 234.89 119.698 234.484 120.109 234.176C120.529 233.859 120.967 233.682 121.425 233.644C121.518 233.644 121.597 233.644 121.663 233.644C121.728 233.644 121.784 233.649 121.831 233.658V234.778ZM125.692 238.894C125.692 238.428 125.822 238.026 126.084 237.69C126.354 237.345 126.723 237.079 127.19 236.892C127.656 236.706 128.198 236.612 128.814 236.612C129.14 236.612 129.486 236.64 129.85 236.696C130.214 236.743 130.536 236.818 130.816 236.92V236.388C130.816 235.828 130.648 235.39 130.312 235.072C129.976 234.746 129.5 234.582 128.884 234.582C128.482 234.582 128.095 234.657 127.722 234.806C127.358 234.946 126.97 235.152 126.56 235.422L126.112 234.554C126.588 234.228 127.064 233.985 127.54 233.826C128.016 233.658 128.51 233.574 129.024 233.574C129.957 233.574 130.694 233.836 131.236 234.358C131.777 234.872 132.048 235.59 132.048 236.514V239.608C132.048 239.758 132.076 239.87 132.132 239.944C132.197 240.01 132.3 240.047 132.44 240.056V241.008C132.318 241.027 132.211 241.041 132.118 241.05C132.034 241.06 131.964 241.064 131.908 241.064C131.618 241.064 131.399 240.985 131.25 240.826C131.11 240.668 131.03 240.5 131.012 240.322L130.984 239.86C130.666 240.271 130.251 240.588 129.738 240.812C129.224 241.036 128.716 241.148 128.212 241.148C127.726 241.148 127.292 241.05 126.91 240.854C126.527 240.649 126.228 240.378 126.014 240.042C125.799 239.697 125.692 239.314 125.692 238.894ZM130.452 239.412C130.564 239.282 130.652 239.151 130.718 239.02C130.783 238.88 130.816 238.764 130.816 238.67V237.76C130.526 237.648 130.223 237.564 129.906 237.508C129.588 237.443 129.276 237.41 128.968 237.41C128.342 237.41 127.834 237.536 127.442 237.788C127.059 238.031 126.868 238.367 126.868 238.796C126.868 239.03 126.928 239.258 127.05 239.482C127.18 239.697 127.367 239.874 127.61 240.014C127.862 240.154 128.17 240.224 128.534 240.224C128.916 240.224 129.28 240.15 129.626 240C129.971 239.842 130.246 239.646 130.452 239.412ZM133.541 237.368C133.541 236.678 133.681 236.048 133.961 235.478C134.251 234.9 134.643 234.438 135.137 234.092C135.641 233.747 136.215 233.574 136.859 233.574C137.447 233.574 137.975 233.728 138.441 234.036C138.908 234.344 139.272 234.718 139.533 235.156V230.788H140.765V239.608C140.765 239.758 140.793 239.87 140.849 239.944C140.915 240.01 141.017 240.047 141.157 240.056V241.008C140.924 241.046 140.742 241.064 140.611 241.064C140.369 241.064 140.154 240.98 139.967 240.812C139.79 240.644 139.701 240.458 139.701 240.252V239.636C139.412 240.103 139.025 240.472 138.539 240.742C138.054 241.013 137.55 241.148 137.027 241.148C136.523 241.148 136.057 241.05 135.627 240.854C135.207 240.649 134.839 240.369 134.521 240.014C134.213 239.66 133.971 239.258 133.793 238.81C133.625 238.353 133.541 237.872 133.541 237.368ZM139.533 238.446V236.346C139.421 236.029 139.239 235.744 138.987 235.492C138.735 235.231 138.451 235.026 138.133 234.876C137.825 234.718 137.517 234.638 137.209 234.638C136.845 234.638 136.514 234.718 136.215 234.876C135.926 235.026 135.674 235.231 135.459 235.492C135.254 235.744 135.095 236.034 134.983 236.36C134.871 236.687 134.815 237.028 134.815 237.382C134.815 237.746 134.876 238.092 134.997 238.418C135.128 238.745 135.305 239.034 135.529 239.286C135.763 239.538 136.029 239.734 136.327 239.874C136.635 240.014 136.967 240.084 137.321 240.084C137.545 240.084 137.774 240.042 138.007 239.958C138.25 239.874 138.479 239.758 138.693 239.608C138.908 239.459 139.09 239.286 139.239 239.09C139.389 238.885 139.487 238.67 139.533 238.446ZM142.822 241.008V233.7H144.054V241.008H142.822ZM142.822 232.328V230.788H144.054V232.328H142.822ZM149.983 241.148C149.385 241.148 148.853 240.999 148.387 240.7C147.92 240.402 147.551 240.024 147.281 239.566V243.99H146.049V233.7H147.141V235.072C147.43 234.624 147.808 234.265 148.275 233.994C148.741 233.714 149.25 233.574 149.801 233.574C150.305 233.574 150.767 233.677 151.187 233.882C151.607 234.088 151.971 234.368 152.279 234.722C152.587 235.077 152.825 235.483 152.993 235.94C153.17 236.388 153.259 236.86 153.259 237.354C153.259 238.045 153.119 238.68 152.839 239.258C152.568 239.837 152.185 240.299 151.691 240.644C151.196 240.98 150.627 241.148 149.983 241.148ZM149.605 240.084C149.969 240.084 150.295 240.01 150.585 239.86C150.883 239.702 151.135 239.496 151.341 239.244C151.555 238.983 151.719 238.689 151.831 238.362C151.943 238.036 151.999 237.7 151.999 237.354C151.999 236.99 151.933 236.645 151.803 236.318C151.681 235.992 151.504 235.702 151.271 235.45C151.047 235.198 150.781 235.002 150.473 234.862C150.174 234.713 149.847 234.638 149.493 234.638C149.269 234.638 149.035 234.68 148.793 234.764C148.559 234.848 148.335 234.97 148.121 235.128C147.906 235.278 147.724 235.45 147.575 235.646C147.425 235.842 147.327 236.052 147.281 236.276V238.362C147.421 238.68 147.607 238.969 147.841 239.23C148.074 239.492 148.345 239.702 148.653 239.86C148.961 240.01 149.278 240.084 149.605 240.084ZM154.771 241.008V233.7H156.003V241.008H154.771ZM154.771 232.328V230.788H156.003V232.328H154.771ZM160.504 241.148C159.897 241.148 159.328 241.05 158.796 240.854C158.264 240.649 157.807 240.346 157.424 239.944L157.9 239.076C158.32 239.468 158.74 239.748 159.16 239.916C159.58 240.084 160.009 240.168 160.448 240.168C160.952 240.168 161.363 240.075 161.68 239.888C161.997 239.692 162.156 239.408 162.156 239.034C162.156 238.764 162.072 238.563 161.904 238.432C161.745 238.302 161.517 238.194 161.218 238.11C160.919 238.017 160.565 237.914 160.154 237.802C159.65 237.653 159.225 237.494 158.88 237.326C158.535 237.158 158.273 236.948 158.096 236.696C157.919 236.444 157.83 236.127 157.83 235.744C157.83 235.278 157.951 234.886 158.194 234.568C158.437 234.242 158.768 233.994 159.188 233.826C159.617 233.658 160.103 233.574 160.644 233.574C161.185 233.574 161.675 233.658 162.114 233.826C162.553 233.994 162.931 234.242 163.248 234.568L162.688 235.422C162.399 235.124 162.081 234.904 161.736 234.764C161.391 234.615 161.003 234.54 160.574 234.54C160.322 234.54 160.075 234.573 159.832 234.638C159.589 234.694 159.389 234.802 159.23 234.96C159.071 235.11 158.992 235.324 158.992 235.604C158.992 235.838 159.053 236.024 159.174 236.164C159.305 236.295 159.491 236.407 159.734 236.5C159.986 236.594 160.289 236.696 160.644 236.808C161.195 236.967 161.671 237.126 162.072 237.284C162.483 237.443 162.8 237.648 163.024 237.9C163.248 238.152 163.36 238.502 163.36 238.95C163.36 239.641 163.099 240.182 162.576 240.574C162.053 240.957 161.363 241.148 160.504 241.148ZM168.068 241.148C167.517 241.148 167.013 241.05 166.556 240.854C166.108 240.649 165.716 240.369 165.38 240.014C165.053 239.66 164.797 239.254 164.61 238.796C164.433 238.339 164.344 237.854 164.344 237.34C164.344 236.65 164.498 236.02 164.806 235.45C165.114 234.881 165.548 234.428 166.108 234.092C166.668 233.747 167.317 233.574 168.054 233.574C168.773 233.574 169.398 233.738 169.93 234.064C170.471 234.382 170.873 234.811 171.134 235.352L169.93 235.73C169.743 235.385 169.482 235.119 169.146 234.932C168.81 234.736 168.437 234.638 168.026 234.638C167.578 234.638 167.167 234.755 166.794 234.988C166.43 235.222 166.141 235.544 165.926 235.954C165.711 236.356 165.604 236.818 165.604 237.34C165.604 237.854 165.711 238.32 165.926 238.74C166.15 239.151 166.444 239.478 166.808 239.72C167.181 239.963 167.592 240.084 168.04 240.084C168.329 240.084 168.605 240.033 168.866 239.93C169.137 239.828 169.37 239.692 169.566 239.524C169.771 239.347 169.911 239.156 169.986 238.95L171.19 239.314C171.041 239.669 170.812 239.986 170.504 240.266C170.205 240.537 169.846 240.752 169.426 240.91C169.015 241.069 168.563 241.148 168.068 241.148ZM172.586 241.008V233.7H173.818V241.008H172.586ZM172.586 232.328V230.788H173.818V232.328H172.586ZM182.154 241.008H180.922V236.92C180.922 236.146 180.801 235.581 180.558 235.226C180.325 234.862 179.966 234.68 179.48 234.68C179.144 234.68 178.808 234.764 178.472 234.932C178.146 235.1 177.852 235.329 177.59 235.618C177.338 235.898 177.156 236.225 177.044 236.598V241.008H175.812V233.7H176.932V235.268C177.128 234.923 177.38 234.624 177.688 234.372C177.996 234.12 178.346 233.924 178.738 233.784C179.13 233.644 179.541 233.574 179.97 233.574C180.39 233.574 180.74 233.654 181.02 233.812C181.31 233.962 181.534 234.176 181.692 234.456C181.86 234.727 181.977 235.049 182.042 235.422C182.117 235.796 182.154 236.202 182.154 236.64V241.008ZM186.982 241.092C186.488 241.092 186.03 240.994 185.61 240.798C185.2 240.593 184.845 240.318 184.546 239.972C184.248 239.618 184.014 239.216 183.846 238.768C183.688 238.32 183.608 237.854 183.608 237.368C183.608 236.855 183.688 236.37 183.846 235.912C184.014 235.455 184.248 235.054 184.546 234.708C184.854 234.354 185.214 234.078 185.624 233.882C186.035 233.677 186.492 233.574 186.996 233.574C187.603 233.574 188.13 233.724 188.578 234.022C189.036 234.321 189.418 234.699 189.726 235.156V233.7H190.818V240.924C190.818 241.615 190.65 242.198 190.314 242.674C189.988 243.15 189.54 243.51 188.97 243.752C188.41 244.004 187.785 244.13 187.094 244.13C186.273 244.13 185.601 243.986 185.078 243.696C184.556 243.407 184.122 243.015 183.776 242.52L184.49 241.89C184.78 242.32 185.153 242.642 185.61 242.856C186.077 243.071 186.572 243.178 187.094 243.178C187.542 243.178 187.953 243.094 188.326 242.926C188.709 242.768 189.012 242.52 189.236 242.184C189.47 241.848 189.586 241.428 189.586 240.924V239.636C189.316 240.084 188.942 240.439 188.466 240.7C188 240.962 187.505 241.092 186.982 241.092ZM187.36 240.084C187.622 240.084 187.874 240.038 188.116 239.944C188.359 239.851 188.583 239.73 188.788 239.58C188.994 239.422 189.166 239.244 189.306 239.048C189.446 238.852 189.54 238.652 189.586 238.446V236.346C189.456 236.01 189.269 235.716 189.026 235.464C188.784 235.203 188.508 235.002 188.2 234.862C187.892 234.713 187.575 234.638 187.248 234.638C186.875 234.638 186.539 234.718 186.24 234.876C185.951 235.035 185.704 235.25 185.498 235.52C185.293 235.782 185.134 236.076 185.022 236.402C184.91 236.729 184.854 237.06 184.854 237.396C184.854 237.76 184.92 238.106 185.05 238.432C185.181 238.75 185.358 239.034 185.582 239.286C185.806 239.538 186.072 239.734 186.38 239.874C186.688 240.014 187.015 240.084 187.36 240.084ZM199.582 241.148C199.031 241.148 198.527 241.05 198.07 240.854C197.622 240.649 197.23 240.374 196.894 240.028C196.567 239.674 196.31 239.268 196.124 238.81C195.946 238.353 195.858 237.868 195.858 237.354C195.858 236.664 196.016 236.034 196.334 235.464C196.651 234.895 197.09 234.438 197.65 234.092C198.219 233.747 198.868 233.574 199.596 233.574C200.333 233.574 200.972 233.752 201.514 234.106C202.064 234.452 202.489 234.909 202.788 235.478C203.096 236.038 203.25 236.645 203.25 237.298C203.25 237.392 203.245 237.485 203.236 237.578C203.236 237.662 203.231 237.728 203.222 237.774H197.16C197.197 238.25 197.328 238.675 197.552 239.048C197.785 239.412 198.084 239.702 198.448 239.916C198.812 240.122 199.204 240.224 199.624 240.224C200.072 240.224 200.492 240.112 200.884 239.888C201.285 239.664 201.56 239.37 201.71 239.006L202.774 239.3C202.615 239.655 202.377 239.972 202.06 240.252C201.752 240.532 201.383 240.752 200.954 240.91C200.534 241.069 200.076 241.148 199.582 241.148ZM197.118 236.92H202.102C202.064 236.444 201.929 236.024 201.696 235.66C201.462 235.296 201.164 235.012 200.8 234.806C200.436 234.601 200.034 234.498 199.596 234.498C199.166 234.498 198.77 234.601 198.406 234.806C198.042 235.012 197.743 235.296 197.51 235.66C197.286 236.024 197.155 236.444 197.118 236.92ZM204.647 230.788H205.879V239.118C205.879 239.52 205.935 239.767 206.047 239.86C206.159 239.954 206.294 240 206.453 240C206.649 240 206.836 239.982 207.013 239.944C207.19 239.898 207.34 239.851 207.461 239.804L207.657 240.812C207.452 240.896 207.209 240.966 206.929 241.022C206.649 241.078 206.402 241.106 206.187 241.106C205.711 241.106 205.333 240.971 205.053 240.7C204.782 240.43 204.647 240.052 204.647 239.566V230.788ZM208.625 241.008V233.7H209.857V241.008H208.625ZM208.625 232.328V230.788H209.857V232.328H208.625ZM215.631 240.644C215.529 240.691 215.389 240.752 215.211 240.826C215.034 240.901 214.829 240.966 214.595 241.022C214.362 241.078 214.115 241.106 213.853 241.106C213.555 241.106 213.279 241.055 213.027 240.952C212.775 240.84 212.575 240.672 212.425 240.448C212.276 240.215 212.201 239.926 212.201 239.58V234.666H211.207V233.7H212.201V231.264H213.433V233.7H215.071V234.666H213.433V239.202C213.452 239.464 213.541 239.66 213.699 239.79C213.858 239.912 214.045 239.972 214.259 239.972C214.502 239.972 214.726 239.93 214.931 239.846C215.137 239.762 215.272 239.702 215.337 239.664L215.631 240.644ZM216.815 242.142L217.095 240.896H216.675V239.44H217.837V240.896L217.417 242.142H216.815ZM225.773 241.148C225.167 241.148 224.597 241.05 224.065 240.854C223.533 240.649 223.076 240.346 222.693 239.944L223.169 239.076C223.589 239.468 224.009 239.748 224.429 239.916C224.849 240.084 225.279 240.168 225.717 240.168C226.221 240.168 226.632 240.075 226.949 239.888C227.267 239.692 227.425 239.408 227.425 239.034C227.425 238.764 227.341 238.563 227.173 238.432C227.015 238.302 226.786 238.194 226.487 238.11C226.189 238.017 225.834 237.914 225.423 237.802C224.919 237.653 224.495 237.494 224.149 237.326C223.804 237.158 223.543 236.948 223.365 236.696C223.188 236.444 223.099 236.127 223.099 235.744C223.099 235.278 223.221 234.886 223.463 234.568C223.706 234.242 224.037 233.994 224.457 233.826C224.887 233.658 225.372 233.574 225.913 233.574C226.455 233.574 226.945 233.658 227.383 233.826C227.822 233.994 228.2 234.242 228.517 234.568L227.957 235.422C227.668 235.124 227.351 234.904 227.005 234.764C226.66 234.615 226.273 234.54 225.843 234.54C225.591 234.54 225.344 234.573 225.101 234.638C224.859 234.694 224.658 234.802 224.499 234.96C224.341 235.11 224.261 235.324 224.261 235.604C224.261 235.838 224.322 236.024 224.443 236.164C224.574 236.295 224.761 236.407 225.003 236.5C225.255 236.594 225.559 236.696 225.913 236.808C226.464 236.967 226.94 237.126 227.341 237.284C227.752 237.443 228.069 237.648 228.293 237.9C228.517 238.152 228.629 238.502 228.629 238.95C228.629 239.641 228.368 240.182 227.845 240.574C227.323 240.957 226.632 241.148 225.773 241.148ZM233.337 241.148C232.787 241.148 232.283 241.05 231.825 240.854C231.377 240.649 230.985 240.374 230.649 240.028C230.323 239.674 230.066 239.268 229.879 238.81C229.702 238.353 229.613 237.868 229.613 237.354C229.613 236.664 229.772 236.034 230.089 235.464C230.407 234.895 230.845 234.438 231.405 234.092C231.975 233.747 232.623 233.574 233.351 233.574C234.089 233.574 234.728 233.752 235.269 234.106C235.82 234.452 236.245 234.909 236.543 235.478C236.851 236.038 237.005 236.645 237.005 237.298C237.005 237.392 237.001 237.485 236.991 237.578C236.991 237.662 236.987 237.728 236.977 237.774H230.915C230.953 238.25 231.083 238.675 231.307 239.048C231.541 239.412 231.839 239.702 232.203 239.916C232.567 240.122 232.959 240.224 233.379 240.224C233.827 240.224 234.247 240.112 234.639 239.888C235.041 239.664 235.316 239.37 235.465 239.006L236.529 239.3C236.371 239.655 236.133 239.972 235.815 240.252C235.507 240.532 235.139 240.752 234.709 240.91C234.289 241.069 233.832 241.148 233.337 241.148ZM230.873 236.92H235.857C235.82 236.444 235.685 236.024 235.451 235.66C235.218 235.296 234.919 235.012 234.555 234.806C234.191 234.601 233.79 234.498 233.351 234.498C232.922 234.498 232.525 234.601 232.161 234.806C231.797 235.012 231.499 235.296 231.265 235.66C231.041 236.024 230.911 236.444 230.873 236.92ZM237.899 237.368C237.899 236.678 238.039 236.048 238.319 235.478C238.608 234.9 239 234.438 239.495 234.092C239.999 233.747 240.573 233.574 241.217 233.574C241.805 233.574 242.332 233.728 242.799 234.036C243.266 234.344 243.63 234.718 243.891 235.156V230.788H245.123V239.608C245.123 239.758 245.151 239.87 245.207 239.944C245.272 240.01 245.375 240.047 245.515 240.056V241.008C245.282 241.046 245.1 241.064 244.969 241.064C244.726 241.064 244.512 240.98 244.325 240.812C244.148 240.644 244.059 240.458 244.059 240.252V239.636C243.77 240.103 243.382 240.472 242.897 240.742C242.412 241.013 241.908 241.148 241.385 241.148C240.881 241.148 240.414 241.05 239.985 240.854C239.565 240.649 239.196 240.369 238.879 240.014C238.571 239.66 238.328 239.258 238.151 238.81C237.983 238.353 237.899 237.872 237.899 237.368ZM243.891 238.446V236.346C243.779 236.029 243.597 235.744 243.345 235.492C243.093 235.231 242.808 235.026 242.491 234.876C242.183 234.718 241.875 234.638 241.567 234.638C241.203 234.638 240.872 234.718 240.573 234.876C240.284 235.026 240.032 235.231 239.817 235.492C239.612 235.744 239.453 236.034 239.341 236.36C239.229 236.687 239.173 237.028 239.173 237.382C239.173 237.746 239.234 238.092 239.355 238.418C239.486 238.745 239.663 239.034 239.887 239.286C240.12 239.538 240.386 239.734 240.685 239.874C240.993 240.014 241.324 240.084 241.679 240.084C241.903 240.084 242.132 240.042 242.365 239.958C242.608 239.874 242.836 239.758 243.051 239.608C243.266 239.459 243.448 239.286 243.597 239.09C243.746 238.885 243.844 238.67 243.891 238.446ZM43.9497 258.368C43.9497 257.678 44.0897 257.048 44.3697 256.478C44.659 255.9 45.051 255.438 45.5457 255.092C46.0497 254.747 46.6237 254.574 47.2677 254.574C47.8557 254.574 48.383 254.728 48.8497 255.036C49.3164 255.344 49.6804 255.718 49.9417 256.156V251.788H51.1737V260.608C51.1737 260.758 51.2017 260.87 51.2577 260.944C51.323 261.01 51.4257 261.047 51.5657 261.056V262.008C51.3324 262.046 51.1504 262.064 51.0197 262.064C50.777 262.064 50.5624 261.98 50.3757 261.812C50.1984 261.644 50.1097 261.458 50.1097 261.252V260.636C49.8204 261.103 49.433 261.472 48.9477 261.742C48.4624 262.013 47.9584 262.148 47.4357 262.148C46.9317 262.148 46.465 262.05 46.0357 261.854C45.6157 261.649 45.247 261.369 44.9297 261.014C44.6217 260.66 44.379 260.258 44.2017 259.81C44.0337 259.353 43.9497 258.872 43.9497 258.368ZM49.9417 259.446V257.346C49.8297 257.029 49.6477 256.744 49.3957 256.492C49.1437 256.231 48.859 256.026 48.5417 255.876C48.2337 255.718 47.9257 255.638 47.6177 255.638C47.2537 255.638 46.9224 255.718 46.6237 255.876C46.3344 256.026 46.0824 256.231 45.8677 256.492C45.6624 256.744 45.5037 257.034 45.3917 257.36C45.2797 257.687 45.2237 258.028 45.2237 258.382C45.2237 258.746 45.2844 259.092 45.4057 259.418C45.5364 259.745 45.7137 260.034 45.9377 260.286C46.171 260.538 46.437 260.734 46.7357 260.874C47.0437 261.014 47.375 261.084 47.7297 261.084C47.9537 261.084 48.1824 261.042 48.4157 260.958C48.6584 260.874 48.887 260.758 49.1017 260.608C49.3164 260.459 49.4984 260.286 49.6477 260.09C49.797 259.885 49.895 259.67 49.9417 259.446ZM56.4224 262.148C55.8717 262.148 55.3724 262.05 54.9244 261.854C54.4764 261.649 54.0891 261.374 53.7624 261.028C53.4357 260.674 53.1837 260.268 53.0064 259.81C52.8291 259.353 52.7404 258.872 52.7404 258.368C52.7404 257.855 52.8291 257.37 53.0064 256.912C53.1837 256.455 53.4357 256.054 53.7624 255.708C54.0891 255.354 54.4764 255.078 54.9244 254.882C55.3817 254.677 55.8811 254.574 56.4224 254.574C56.9731 254.574 57.4724 254.677 57.9204 254.882C58.3684 255.078 58.7557 255.354 59.0824 255.708C59.4184 256.054 59.6751 256.455 59.8524 256.912C60.0297 257.37 60.1184 257.855 60.1184 258.368C60.1184 258.872 60.0297 259.353 59.8524 259.81C59.6751 260.268 59.4231 260.674 59.0964 261.028C58.7697 261.374 58.3777 261.649 57.9204 261.854C57.4724 262.05 56.9731 262.148 56.4224 262.148ZM54.0004 258.382C54.0004 258.886 54.1077 259.344 54.3224 259.754C54.5464 260.165 54.8404 260.492 55.2044 260.734C55.5684 260.968 55.9744 261.084 56.4224 261.084C56.8704 261.084 57.2764 260.963 57.6404 260.72C58.0137 260.478 58.3077 260.151 58.5224 259.74C58.7464 259.32 58.8584 258.858 58.8584 258.354C58.8584 257.85 58.7464 257.393 58.5224 256.982C58.3077 256.572 58.0137 256.245 57.6404 256.002C57.2764 255.76 56.8704 255.638 56.4224 255.638C55.9744 255.638 55.5684 255.764 55.2044 256.016C54.8404 256.259 54.5464 256.586 54.3224 256.996C54.1077 257.407 54.0004 257.869 54.0004 258.382ZM68.3863 262.148C67.8356 262.148 67.3316 262.05 66.8743 261.854C66.4263 261.649 66.0343 261.374 65.6983 261.028C65.3716 260.674 65.1149 260.268 64.9283 259.81C64.7509 259.353 64.6623 258.868 64.6623 258.354C64.6623 257.664 64.8209 257.034 65.1383 256.464C65.4556 255.895 65.8943 255.438 66.4543 255.092C67.0236 254.747 67.6723 254.574 68.4003 254.574C69.1376 254.574 69.7769 254.752 70.3183 255.106C70.8689 255.452 71.2936 255.909 71.5923 256.478C71.9003 257.038 72.0543 257.645 72.0543 258.298C72.0543 258.392 72.0496 258.485 72.0403 258.578C72.0403 258.662 72.0356 258.728 72.0263 258.774H65.9643C66.0016 259.25 66.1323 259.675 66.3563 260.048C66.5896 260.412 66.8883 260.702 67.2523 260.916C67.6163 261.122 68.0083 261.224 68.4283 261.224C68.8763 261.224 69.2963 261.112 69.6883 260.888C70.0896 260.664 70.3649 260.37 70.5143 260.006L71.5783 260.3C71.4196 260.655 71.1816 260.972 70.8643 261.252C70.5563 261.532 70.1876 261.752 69.7583 261.91C69.3383 262.069 68.8809 262.148 68.3863 262.148ZM65.9223 257.92H70.9063C70.8689 257.444 70.7336 257.024 70.5003 256.66C70.2669 256.296 69.9683 256.012 69.6043 255.806C69.2403 255.601 68.8389 255.498 68.4003 255.498C67.9709 255.498 67.5743 255.601 67.2103 255.806C66.8463 256.012 66.5476 256.296 66.3143 256.66C66.0903 257.024 65.9596 257.444 65.9223 257.92ZM73.4237 262.008V254.7H74.6557V262.008H73.4237ZM73.4237 253.328V251.788H74.6557V253.328H73.4237ZM76.5803 259.082V254.7H77.8123V258.844C77.8123 259.591 77.943 260.151 78.2043 260.524C78.4656 260.898 78.853 261.084 79.3663 261.084C79.7023 261.084 80.0243 261.014 80.3323 260.874C80.6496 260.725 80.9343 260.515 81.1863 260.244C81.4383 259.974 81.6343 259.652 81.7743 259.278V254.7H83.0063V260.608C83.0063 260.758 83.0343 260.87 83.0903 260.944C83.1556 261.01 83.2583 261.047 83.3983 261.056V262.008C83.2583 262.027 83.1463 262.036 83.0623 262.036C82.9876 262.046 82.913 262.05 82.8383 262.05C82.605 262.05 82.4043 261.98 82.2363 261.84C82.0683 261.691 81.9796 261.509 81.9703 261.294L81.9423 260.44C81.625 260.982 81.1956 261.402 80.6543 261.7C80.1223 261.999 79.539 262.148 78.9043 262.148C78.139 262.148 77.5603 261.892 77.1683 261.378C76.7763 260.856 76.5803 260.09 76.5803 259.082ZM87.5645 262.148C86.9578 262.148 86.3885 262.05 85.8565 261.854C85.3245 261.649 84.8672 261.346 84.4845 260.944L84.9605 260.076C85.3805 260.468 85.8005 260.748 86.2205 260.916C86.6405 261.084 87.0698 261.168 87.5085 261.168C88.0125 261.168 88.4232 261.075 88.7405 260.888C89.0578 260.692 89.2165 260.408 89.2165 260.034C89.2165 259.764 89.1325 259.563 88.9645 259.432C88.8058 259.302 88.5772 259.194 88.2785 259.11C87.9798 259.017 87.6252 258.914 87.2145 258.802C86.7105 258.653 86.2858 258.494 85.9405 258.326C85.5952 258.158 85.3338 257.948 85.1565 257.696C84.9792 257.444 84.8905 257.127 84.8905 256.744C84.8905 256.278 85.0118 255.886 85.2545 255.568C85.4972 255.242 85.8285 254.994 86.2485 254.826C86.6778 254.658 87.1632 254.574 87.7045 254.574C88.2458 254.574 88.7358 254.658 89.1745 254.826C89.6132 254.994 89.9912 255.242 90.3085 255.568L89.7485 256.422C89.4592 256.124 89.1418 255.904 88.7965 255.764C88.4512 255.615 88.0638 255.54 87.6345 255.54C87.3825 255.54 87.1352 255.573 86.8925 255.638C86.6498 255.694 86.4492 255.802 86.2905 255.96C86.1318 256.11 86.0525 256.324 86.0525 256.604C86.0525 256.838 86.1132 257.024 86.2345 257.164C86.3652 257.295 86.5518 257.407 86.7945 257.5C87.0465 257.594 87.3498 257.696 87.7045 257.808C88.2552 257.967 88.7312 258.126 89.1325 258.284C89.5432 258.443 89.8605 258.648 90.0845 258.9C90.3085 259.152 90.4205 259.502 90.4205 259.95C90.4205 260.641 90.1592 261.182 89.6365 261.574C89.1138 261.957 88.4232 262.148 87.5645 262.148ZM102.912 262.008H101.68V257.92C101.68 257.155 101.554 256.59 101.302 256.226C101.06 255.862 100.696 255.68 100.21 255.68C99.7158 255.68 99.2678 255.862 98.8665 256.226C98.4651 256.581 98.1805 257.043 98.0125 257.612V262.008H96.7805V257.92C96.7805 257.146 96.6591 256.581 96.4165 256.226C96.1738 255.862 95.8098 255.68 95.3245 255.68C94.8391 255.68 94.3911 255.858 93.9805 256.212C93.5791 256.558 93.2945 257.02 93.1265 257.598V262.008H91.8945V254.7H93.0145V256.268C93.3131 255.727 93.7005 255.312 94.1765 255.022C94.6525 254.724 95.1891 254.574 95.7865 254.574C96.3931 254.574 96.8785 254.742 97.2425 255.078C97.6065 255.405 97.8305 255.83 97.9145 256.352C98.2411 255.774 98.6378 255.335 99.1045 255.036C99.5711 254.728 100.103 254.574 100.7 254.574C101.12 254.574 101.47 254.654 101.75 254.812C102.04 254.962 102.268 255.176 102.436 255.456C102.604 255.727 102.726 256.049 102.8 256.422C102.875 256.796 102.912 257.202 102.912 257.64V262.008ZM108.02 262.148C107.469 262.148 106.97 262.05 106.522 261.854C106.074 261.649 105.687 261.374 105.36 261.028C105.033 260.674 104.781 260.268 104.604 259.81C104.427 259.353 104.338 258.872 104.338 258.368C104.338 257.855 104.427 257.37 104.604 256.912C104.781 256.455 105.033 256.054 105.36 255.708C105.687 255.354 106.074 255.078 106.522 254.882C106.979 254.677 107.479 254.574 108.02 254.574C108.571 254.574 109.07 254.677 109.518 254.882C109.966 255.078 110.353 255.354 110.68 255.708C111.016 256.054 111.273 256.455 111.45 256.912C111.627 257.37 111.716 257.855 111.716 258.368C111.716 258.872 111.627 259.353 111.45 259.81C111.273 260.268 111.021 260.674 110.694 261.028C110.367 261.374 109.975 261.649 109.518 261.854C109.07 262.05 108.571 262.148 108.02 262.148ZM105.598 258.382C105.598 258.886 105.705 259.344 105.92 259.754C106.144 260.165 106.438 260.492 106.802 260.734C107.166 260.968 107.572 261.084 108.02 261.084C108.468 261.084 108.874 260.963 109.238 260.72C109.611 260.478 109.905 260.151 110.12 259.74C110.344 259.32 110.456 258.858 110.456 258.354C110.456 257.85 110.344 257.393 110.12 256.982C109.905 256.572 109.611 256.245 109.238 256.002C108.874 255.76 108.468 255.638 108.02 255.638C107.572 255.638 107.166 255.764 106.802 256.016C106.438 256.259 106.144 256.586 105.92 256.996C105.705 257.407 105.598 257.869 105.598 258.382ZM112.733 258.368C112.733 257.678 112.873 257.048 113.153 256.478C113.442 255.9 113.834 255.438 114.329 255.092C114.833 254.747 115.407 254.574 116.051 254.574C116.639 254.574 117.166 254.728 117.633 255.036C118.1 255.344 118.464 255.718 118.725 256.156V251.788H119.957V260.608C119.957 260.758 119.985 260.87 120.041 260.944C120.106 261.01 120.209 261.047 120.349 261.056V262.008C120.116 262.046 119.934 262.064 119.803 262.064C119.56 262.064 119.346 261.98 119.159 261.812C118.982 261.644 118.893 261.458 118.893 261.252V260.636C118.604 261.103 118.216 261.472 117.731 261.742C117.246 262.013 116.742 262.148 116.219 262.148C115.715 262.148 115.248 262.05 114.819 261.854C114.399 261.649 114.03 261.369 113.713 261.014C113.405 260.66 113.162 260.258 112.985 259.81C112.817 259.353 112.733 258.872 112.733 258.368ZM118.725 259.446V257.346C118.613 257.029 118.431 256.744 118.179 256.492C117.927 256.231 117.642 256.026 117.325 255.876C117.017 255.718 116.709 255.638 116.401 255.638C116.037 255.638 115.706 255.718 115.407 255.876C115.118 256.026 114.866 256.231 114.651 256.492C114.446 256.744 114.287 257.034 114.175 257.36C114.063 257.687 114.007 258.028 114.007 258.382C114.007 258.746 114.068 259.092 114.189 259.418C114.32 259.745 114.497 260.034 114.721 260.286C114.954 260.538 115.22 260.734 115.519 260.874C115.827 261.014 116.158 261.084 116.513 261.084C116.737 261.084 116.966 261.042 117.199 260.958C117.442 260.874 117.67 260.758 117.885 260.608C118.1 260.459 118.282 260.286 118.431 260.09C118.58 259.885 118.678 259.67 118.725 259.446ZM129.335 261.644C129.232 261.691 129.092 261.752 128.915 261.826C128.737 261.901 128.532 261.966 128.299 262.022C128.065 262.078 127.818 262.106 127.557 262.106C127.258 262.106 126.983 262.055 126.731 261.952C126.479 261.84 126.278 261.672 126.129 261.448C125.979 261.215 125.905 260.926 125.905 260.58V255.666H124.911V254.7H125.905V252.264H127.137V254.7H128.775V255.666H127.137V260.202C127.155 260.464 127.244 260.66 127.403 260.79C127.561 260.912 127.748 260.972 127.963 260.972C128.205 260.972 128.429 260.93 128.635 260.846C128.84 260.762 128.975 260.702 129.041 260.664L129.335 261.644ZM133.615 262.148C133.064 262.148 132.56 262.05 132.103 261.854C131.655 261.649 131.263 261.374 130.927 261.028C130.6 260.674 130.343 260.268 130.157 259.81C129.979 259.353 129.891 258.868 129.891 258.354C129.891 257.664 130.049 257.034 130.367 256.464C130.684 255.895 131.123 255.438 131.683 255.092C132.252 254.747 132.901 254.574 133.629 254.574C134.366 254.574 135.005 254.752 135.547 255.106C136.097 255.452 136.522 255.909 136.821 256.478C137.129 257.038 137.283 257.645 137.283 258.298C137.283 258.392 137.278 258.485 137.269 258.578C137.269 258.662 137.264 258.728 137.255 258.774H131.193C131.23 259.25 131.361 259.675 131.585 260.048C131.818 260.412 132.117 260.702 132.481 260.916C132.845 261.122 133.237 261.224 133.657 261.224C134.105 261.224 134.525 261.112 134.917 260.888C135.318 260.664 135.593 260.37 135.743 260.006L136.807 260.3C136.648 260.655 136.41 260.972 136.093 261.252C135.785 261.532 135.416 261.752 134.987 261.91C134.567 262.069 134.109 262.148 133.615 262.148ZM131.151 257.92H136.135C136.097 257.444 135.962 257.024 135.729 256.66C135.495 256.296 135.197 256.012 134.833 255.806C134.469 255.601 134.067 255.498 133.629 255.498C133.199 255.498 132.803 255.601 132.439 255.806C132.075 256.012 131.776 256.296 131.543 256.66C131.319 257.024 131.188 257.444 131.151 257.92ZM149.67 262.008H148.438V257.92C148.438 257.155 148.312 256.59 148.06 256.226C147.818 255.862 147.454 255.68 146.968 255.68C146.474 255.68 146.026 255.862 145.624 256.226C145.223 256.581 144.938 257.043 144.77 257.612V262.008H143.538V257.92C143.538 257.146 143.417 256.581 143.174 256.226C142.932 255.862 142.568 255.68 142.082 255.68C141.597 255.68 141.149 255.858 140.738 256.212C140.337 256.558 140.052 257.02 139.884 257.598V262.008H138.652V254.7H139.772V256.268C140.071 255.727 140.458 255.312 140.934 255.022C141.41 254.724 141.947 254.574 142.544 254.574C143.151 254.574 143.636 254.742 144 255.078C144.364 255.405 144.588 255.83 144.672 256.352C144.999 255.774 145.396 255.335 145.862 255.036C146.329 254.728 146.861 254.574 147.458 254.574C147.878 254.574 148.228 254.654 148.508 254.812C148.798 254.962 149.026 255.176 149.194 255.456C149.362 255.727 149.484 256.049 149.558 256.422C149.633 256.796 149.67 257.202 149.67 257.64V262.008ZM155.52 262.148C154.923 262.148 154.391 261.999 153.924 261.7C153.457 261.402 153.089 261.024 152.818 260.566V264.99H151.586V254.7H152.678V256.072C152.967 255.624 153.345 255.265 153.812 254.994C154.279 254.714 154.787 254.574 155.338 254.574C155.842 254.574 156.304 254.677 156.724 254.882C157.144 255.088 157.508 255.368 157.816 255.722C158.124 256.077 158.362 256.483 158.53 256.94C158.707 257.388 158.796 257.86 158.796 258.354C158.796 259.045 158.656 259.68 158.376 260.258C158.105 260.837 157.723 261.299 157.228 261.644C156.733 261.98 156.164 262.148 155.52 262.148ZM155.142 261.084C155.506 261.084 155.833 261.01 156.122 260.86C156.421 260.702 156.673 260.496 156.878 260.244C157.093 259.983 157.256 259.689 157.368 259.362C157.48 259.036 157.536 258.7 157.536 258.354C157.536 257.99 157.471 257.645 157.34 257.318C157.219 256.992 157.041 256.702 156.808 256.45C156.584 256.198 156.318 256.002 156.01 255.862C155.711 255.713 155.385 255.638 155.03 255.638C154.806 255.638 154.573 255.68 154.33 255.764C154.097 255.848 153.873 255.97 153.658 256.128C153.443 256.278 153.261 256.45 153.112 256.646C152.963 256.842 152.865 257.052 152.818 257.276V259.362C152.958 259.68 153.145 259.969 153.378 260.23C153.611 260.492 153.882 260.702 154.19 260.86C154.498 261.01 154.815 261.084 155.142 261.084ZM163.501 262.148C162.95 262.148 162.451 262.05 162.003 261.854C161.555 261.649 161.167 261.374 160.841 261.028C160.514 260.674 160.262 260.268 160.085 259.81C159.907 259.353 159.819 258.872 159.819 258.368C159.819 257.855 159.907 257.37 160.085 256.912C160.262 256.455 160.514 256.054 160.841 255.708C161.167 255.354 161.555 255.078 162.003 254.882C162.46 254.677 162.959 254.574 163.501 254.574C164.051 254.574 164.551 254.677 164.999 254.882C165.447 255.078 165.834 255.354 166.161 255.708C166.497 256.054 166.753 256.455 166.931 256.912C167.108 257.37 167.197 257.855 167.197 258.368C167.197 258.872 167.108 259.353 166.931 259.81C166.753 260.268 166.501 260.674 166.175 261.028C165.848 261.374 165.456 261.649 164.999 261.854C164.551 262.05 164.051 262.148 163.501 262.148ZM161.079 258.382C161.079 258.886 161.186 259.344 161.401 259.754C161.625 260.165 161.919 260.492 162.283 260.734C162.647 260.968 163.053 261.084 163.501 261.084C163.949 261.084 164.355 260.963 164.719 260.72C165.092 260.478 165.386 260.151 165.601 259.74C165.825 259.32 165.937 258.858 165.937 258.354C165.937 257.85 165.825 257.393 165.601 256.982C165.386 256.572 165.092 256.245 164.719 256.002C164.355 255.76 163.949 255.638 163.501 255.638C163.053 255.638 162.647 255.764 162.283 256.016C161.919 256.259 161.625 256.586 161.401 256.996C161.186 257.407 161.079 257.869 161.079 258.382ZM172.553 255.778C171.937 255.788 171.391 255.946 170.915 256.254C170.449 256.553 170.117 256.968 169.921 257.5V262.008H168.689V254.7H169.837V256.394C170.089 255.89 170.421 255.484 170.831 255.176C171.251 254.859 171.69 254.682 172.147 254.644C172.241 254.644 172.32 254.644 172.385 254.644C172.451 254.644 172.507 254.649 172.553 254.658V255.778ZM172.187 262.008V260.44H173.223V262.008H172.187ZM175.017 262.008V260.44H176.053V262.008H175.017ZM177.847 262.008V260.44H178.883V262.008H177.847Z" fill="#777777"/>
<path d="M47.2117 304.038L47.0857 301.266L53.6917 294.408H56.3197L50.8297 300.24L49.5337 301.662L47.2117 304.038ZM45.1237 307.008V294.408H47.4637V307.008H45.1237ZM53.9077 307.008L49.0837 301.266L50.6317 299.556L56.6437 307.008H53.9077ZM63.3168 297.288C64.0848 297.288 64.7688 297.438 65.3688 297.738C65.9808 298.038 66.4608 298.5 66.8088 299.124C67.1568 299.736 67.3308 300.528 67.3308 301.5V307.008H65.0808V301.788C65.0808 300.936 64.8768 300.3 64.4688 299.88C64.0728 299.46 63.5148 299.25 62.7948 299.25C62.2668 299.25 61.7988 299.358 61.3908 299.574C60.9828 299.79 60.6648 300.114 60.4368 300.546C60.2208 300.966 60.1128 301.5 60.1128 302.148V307.008H57.8628V297.396H60.0048V299.988L59.6268 299.196C59.9628 298.584 60.4488 298.116 61.0848 297.792C61.7328 297.456 62.4768 297.288 63.3168 297.288ZM74.5226 307.134C73.5386 307.134 72.6626 306.924 71.8946 306.504C71.1266 306.072 70.5206 305.484 70.0766 304.74C69.6326 303.996 69.4106 303.15 69.4106 302.202C69.4106 301.242 69.6326 300.396 70.0766 299.664C70.5206 298.92 71.1266 298.338 71.8946 297.918C72.6626 297.498 73.5386 297.288 74.5226 297.288C75.5186 297.288 76.4006 297.498 77.1686 297.918C77.9486 298.338 78.5546 298.914 78.9866 299.646C79.4306 300.378 79.6526 301.23 79.6526 302.202C79.6526 303.15 79.4306 303.996 78.9866 304.74C78.5546 305.484 77.9486 306.072 77.1686 306.504C76.4006 306.924 75.5186 307.134 74.5226 307.134ZM74.5226 305.208C75.0746 305.208 75.5666 305.088 75.9986 304.848C76.4306 304.608 76.7666 304.26 77.0066 303.804C77.2586 303.348 77.3846 302.814 77.3846 302.202C77.3846 301.578 77.2586 301.044 77.0066 300.6C76.7666 300.144 76.4306 299.796 75.9986 299.556C75.5666 299.316 75.0806 299.196 74.5406 299.196C73.9886 299.196 73.4966 299.316 73.0646 299.556C72.6446 299.796 72.3086 300.144 72.0566 300.6C71.8046 301.044 71.6786 301.578 71.6786 302.202C71.6786 302.814 71.8046 303.348 72.0566 303.804C72.3086 304.26 72.6446 304.608 73.0646 304.848C73.4966 305.088 73.9826 305.208 74.5226 305.208ZM83.6645 307.008L80.1365 297.396H82.2605L85.2845 305.874H84.2765L87.4445 297.396H89.3345L92.4125 305.874H91.4225L94.5365 297.396H96.5345L92.9885 307.008H90.8285L88.0205 299.502H88.6865L85.8245 307.008H83.6645ZM103.272 307.008V294.408H105.198L110.706 303.606H109.698L115.116 294.408H117.042L117.06 307.008H114.846L114.828 297.882H115.296L110.688 305.568H109.644L104.964 297.882H105.504V307.008H103.272ZM124.568 307.134C123.584 307.134 122.708 306.924 121.94 306.504C121.172 306.072 120.566 305.484 120.122 304.74C119.678 303.996 119.456 303.15 119.456 302.202C119.456 301.242 119.678 300.396 120.122 299.664C120.566 298.92 121.172 298.338 121.94 297.918C122.708 297.498 123.584 297.288 124.568 297.288C125.564 297.288 126.446 297.498 127.214 297.918C127.994 298.338 128.6 298.914 129.032 299.646C129.476 300.378 129.698 301.23 129.698 302.202C129.698 303.15 129.476 303.996 129.032 304.74C128.6 305.484 127.994 306.072 127.214 306.504C126.446 306.924 125.564 307.134 124.568 307.134ZM124.568 305.208C125.12 305.208 125.612 305.088 126.044 304.848C126.476 304.608 126.812 304.26 127.052 303.804C127.304 303.348 127.43 302.814 127.43 302.202C127.43 301.578 127.304 301.044 127.052 300.6C126.812 300.144 126.476 299.796 126.044 299.556C125.612 299.316 125.126 299.196 124.586 299.196C124.034 299.196 123.542 299.316 123.11 299.556C122.69 299.796 122.354 300.144 122.102 300.6C121.85 301.044 121.724 301.578 121.724 302.202C121.724 302.814 121.85 303.348 122.102 303.804C122.354 304.26 122.69 304.608 123.11 304.848C123.542 305.088 124.028 305.208 124.568 305.208ZM131.849 307.008V297.396H133.991V300.042L133.739 299.268C134.027 298.62 134.477 298.128 135.089 297.792C135.713 297.456 136.487 297.288 137.411 297.288V299.43C137.315 299.406 137.225 299.394 137.141 299.394C137.057 299.382 136.973 299.376 136.889 299.376C136.037 299.376 135.359 299.628 134.855 300.132C134.351 300.624 134.099 301.362 134.099 302.346V307.008H131.849ZM143.75 307.134C142.682 307.134 141.746 306.924 140.942 306.504C140.15 306.072 139.532 305.484 139.088 304.74C138.656 303.996 138.44 303.15 138.44 302.202C138.44 301.242 138.65 300.396 139.07 299.664C139.502 298.92 140.09 298.338 140.834 297.918C141.59 297.498 142.448 297.288 143.408 297.288C144.344 297.288 145.178 297.492 145.91 297.9C146.642 298.308 147.218 298.884 147.638 299.628C148.058 300.372 148.268 301.248 148.268 302.256C148.268 302.352 148.262 302.46 148.25 302.58C148.25 302.7 148.244 302.814 148.232 302.922H140.222V301.428H147.044L146.162 301.896C146.174 301.344 146.06 300.858 145.82 300.438C145.58 300.018 145.25 299.688 144.83 299.448C144.422 299.208 143.948 299.088 143.408 299.088C142.856 299.088 142.37 299.208 141.95 299.448C141.542 299.688 141.218 300.024 140.978 300.456C140.75 300.876 140.636 301.374 140.636 301.95V302.31C140.636 302.886 140.768 303.396 141.032 303.84C141.296 304.284 141.668 304.626 142.148 304.866C142.628 305.106 143.18 305.226 143.804 305.226C144.344 305.226 144.83 305.142 145.262 304.974C145.694 304.806 146.078 304.542 146.414 304.182L147.62 305.568C147.188 306.072 146.642 306.462 145.982 306.738C145.334 307.002 144.59 307.134 143.75 307.134Z" fill="#4A60A1"/>
<path d="M164.822 294.557C164.551 294.824 164.526 295.245 164.748 295.541L164.814 295.618L169.39 300.258L157.682 300.258C157.267 300.258 156.932 300.594 156.932 301.008C156.932 301.391 157.218 301.706 157.588 301.752L157.682 301.758H169.39L164.814 306.398C164.548 306.669 164.528 307.09 164.754 307.383L164.822 307.459C165.092 307.726 165.514 307.745 165.806 307.519L165.882 307.451L171.716 301.535C171.98 301.267 172.002 300.851 171.782 300.558L171.716 300.482L165.882 294.565C165.592 294.27 165.117 294.267 164.822 294.557Z" fill="#00B377"/>
<path d="M64.3619 115.753C63.4649 115.753 62.8669 116.494 62.8669 116.989V123.166H59.8769V116.989C59.8769 116.247 59.2789 115.753 58.3819 115.753C57.4849 115.753 56.8869 116.494 56.8869 116.989V123.166H53.8968V116.989C53.8968 116.247 53.2988 115.753 52.4018 115.753C51.5048 115.753 50.9068 116.494 50.9068 116.989V125.143C50.9068 127.367 52.9998 129.097 55.3918 129.344V146.641C55.3918 148.123 56.5879 149.112 58.3819 149.112C60.1759 149.112 61.3719 148.123 61.3719 146.641V129.344C63.7639 129.097 65.857 127.367 65.857 125.143V116.989C65.857 116.494 65.259 115.753 64.3619 115.753ZM70.342 116.989V131.815H73.332V146.641C73.332 148.123 74.5281 149.112 76.3221 149.112C78.1161 149.112 79.3121 148.123 79.3121 146.641V109.576C74.2291 109.576 70.342 112.788 70.342 116.989ZM91.2722 114.518C87.0862 114.518 83.7972 118.224 83.7972 122.672C83.4982 125.637 85.2922 128.355 88.2822 130.085V146.641C88.2822 148.123 89.4782 149.112 91.2722 149.112C93.0663 149.112 94.2623 148.123 94.2623 146.641V130.085C97.2523 128.355 99.0463 125.637 98.7473 122.672C98.7473 118.224 95.4583 114.518 91.2722 114.518Z" fill="#0B1C98"/>
<defs>
<filter id="filter0_d_773_472" x="0.431702" y="0.00830078" width="290" height="377.979" filterUnits="userSpaceOnUse" color-interpolation-filters="sRGB">
<feFlood flood-opacity="0" result="BackgroundImageFix"/>
<feColorMatrix in="SourceAlpha" type="matrix" values="0 0 0 0 0 0 0 0 0 0 0 0 0 0 0 0 0 0 127 0" result="hardAlpha"/>
<feOffset/>
<feGaussianBlur stdDeviation="10"/>
<feComposite in2="hardAlpha" operator="out"/>
<feColorMatrix type="matrix" values="0 0 0 0 0.768627 0 0 0 0 0.768627 0 0 0 0 0.768627 0 0 0 0.15 0"/>
<feBlend mode="normal" in2="BackgroundImageFix" result="effect1_dropShadow_773_472"/>
<feBlend mode="normal" in="SourceGraphic" in2="effect1_dropShadow_773_472" result="shape"/>
</filter>
</defs>
</svg>
