<svg width="105" height="100" viewBox="0 0 105 100" fill="none" xmlns="http://www.w3.org/2000/svg">
<rect x="0.380127" y="99.8997" width="99.6074" height="104.107" rx="23" transform="rotate(-90 0.380127 99.8997)" fill="#0B1C98"/>
<path d="M66.2858 56.2363L59.2783 61.6253C58.3806 62.3154 57.1711 62.7006 55.9034 62.7006H37.4411C34.8019 62.7006 32.6614 61.0476 32.6614 59.0094V37.6008C32.6614 35.5627 34.8019 33.9097 37.4411 33.9097H62.9109C65.5502 33.9097 67.6907 35.5627 67.6907 37.6008V53.6204C67.6948 54.6025 67.1878 55.543 66.2858 56.2363Z" stroke="white" stroke-width="2.5" stroke-miterlimit="10"/>
<path d="M70.5337 59.6804L63.5262 65.0694C62.6285 65.7595 61.419 66.1447 60.1513 66.1447H41.6932C39.0539 66.1447 36.9134 64.4917 36.9134 62.4535V41.0449C36.9134 39.0067 39.0539 37.3538 41.6932 37.3538H67.163C69.8022 37.3538 71.9427 39.0067 71.9427 41.0449V57.0645C71.9427 58.0466 71.4357 58.9871 70.5337 59.6804Z" fill="#907EFF"/>
<path d="M43.7385 46.08C43.7385 45.6794 44.0632 45.3547 44.4637 45.3547H64.9498C65.3503 45.3547 65.675 45.6794 65.675 46.08C65.675 46.4805 65.3503 46.8052 64.9498 46.8052H44.4637C44.0632 46.8052 43.7385 46.4805 43.7385 46.08Z" fill="white"/>
<path d="M43.7385 49.4645C43.7385 49.064 44.0632 48.7393 44.4637 48.7393H64.9498C65.3503 48.7393 65.675 49.064 65.675 49.4645C65.675 49.865 65.3503 50.1897 64.9498 50.1897H44.4637C44.0632 50.1897 43.7385 49.865 43.7385 49.4645Z" fill="white"/>
<path d="M43.7386 52.849C43.7386 52.4485 44.0633 52.1238 44.4638 52.1238H64.9499C65.3504 52.1238 65.6751 52.4485 65.6751 52.849C65.6751 53.2495 65.3504 53.5742 64.9499 53.5742H44.4638C44.0633 53.5742 43.7386 53.2495 43.7386 52.849Z" fill="white"/>
<path d="M43.7386 56.2333C43.7386 55.8328 44.0633 55.5081 44.4638 55.5081H54.9218C55.3223 55.5081 55.647 55.8328 55.647 56.2333C55.647 56.6338 55.3223 56.9585 54.9218 56.9585H44.4638C44.0633 56.9585 43.7386 56.6338 43.7386 56.2333Z" fill="white"/>
</svg>
