<svg width="81" height="81" viewBox="0 0 81 81" fill="none" xmlns="http://www.w3.org/2000/svg">
<rect opacity="0.2" x="10.2705" y="10.5234" width="70" height="70" rx="10" fill="#1CA2CF"/>
<rect x="0.270508" y="0.523438" width="70" height="70" rx="10" fill="url(#paint0_linear_2581_3187)"/>
<path d="M45.1913 39.9839L44.2199 39.1743C42.1229 37.4266 38.9711 39.1603 39.3244 41.8671L39.773 45.3039C39.8916 46.213 40.4195 47.0179 41.2059 47.4891L41.7287 47.8024C43.7283 49.0004 46.2706 47.56 46.2706 45.2289V42.2884C46.2706 41.3982 45.8752 40.5539 45.1913 39.9839Z" fill="white"/>
<path d="M24.3499 39.9839L25.3213 39.1743C27.4182 37.4266 30.57 39.1603 30.2167 41.8671L29.7681 45.3039C29.6495 46.213 29.1217 47.0179 28.3352 47.4891L27.8124 47.8024C25.8128 49.0004 23.2705 47.56 23.2705 45.2289V42.2884C23.2705 41.3982 23.666 40.5539 24.3499 39.9839Z" fill="white"/>
<path d="M35.8768 44.0965H33.9461C30.7528 44.0965 28.078 41.5905 28.1939 38.3993C28.6328 26.3092 32.6883 20.8172 34.9382 19.5234C39.7616 22.6228 41.2945 31.5597 41.5486 38.4993C41.664 41.6516 39.0312 44.0965 35.8768 44.0965Z" fill="white"/>
<rect x="33.0408" y="30.8647" width="3.78526" height="4.07596" rx="1.89263" transform="rotate(-90 33.0408 30.8647)" fill="#9747FF"/>
<defs>
<linearGradient id="paint0_linear_2581_3187" x1="70.2705" y1="70.5234" x2="-31.7099" y2="36.3357" gradientUnits="userSpaceOnUse">
<stop stop-color="#0099CA"/>
<stop offset="1" stop-color="#ADD2E8"/>
</linearGradient>
</defs>
</svg>
