<svg width="84" height="84" viewBox="0 0 84 84" fill="none" xmlns="http://www.w3.org/2000/svg">
<rect x="0.225098" y="0.115234" width="83" height="83" rx="20" fill="#F563D3"/>
<path d="M21.295 31.1311C21.309 31.2097 21.3203 31.2883 21.325 31.3675C21.3843 32.3847 22.1533 40.5007 31.8213 50.3825C31.8213 50.3825 40.1728 58.8934 48.9625 60.6828C49.0005 60.6907 49.0379 60.6992 49.0759 60.7097C49.6081 60.8545 54.1326 61.9981 56.4649 59.6591L59.7877 56.3959C59.8177 56.3665 59.849 56.3376 59.881 56.3101C60.2125 56.0252 62.5201 53.8932 60.2118 51.6263C57.8755 49.3319 54.9303 46.5344 54.5968 46.2174C54.5808 46.2024 54.5655 46.1873 54.5501 46.1716C54.3694 45.9869 52.6527 44.3258 50.6419 45.8434C50.5838 45.8873 50.5291 45.9364 50.4771 45.9875L47.2238 49.1911C46.4948 49.8821 45.337 49.8729 44.6187 49.1708L33.504 38.2973C32.7577 37.567 32.7771 36.3742 33.5467 35.6675L36.1478 33.2807C36.1478 33.2807 38.9977 30.6896 35.9371 27.8908L31.3938 23.429C31.3658 23.4015 31.3391 23.3734 31.3125 23.3439C31.019 23.019 28.8414 20.7947 26.2864 23.2705C26.2083 23.3459 26.1236 23.414 26.0336 23.4742C25.1666 24.0585 20.61 27.323 21.295 31.1311Z" fill="white"/>
<path d="M51.9178 39.0799C52.6215 39.0796 53.2009 38.506 53.1013 37.8094C52.9782 36.9493 52.7309 36.1092 52.3653 35.3161C51.8213 34.1361 51.0283 33.0879 50.0407 32.2435C49.0531 31.3991 47.8944 30.7785 46.6442 30.4245C45.8039 30.1865 44.9356 30.0727 44.0668 30.0848C43.3632 30.0946 42.8866 30.7561 42.9956 31.4513C43.1046 32.1465 43.7599 32.6084 44.4629 32.6379C44.9647 32.659 45.4638 32.7387 45.9499 32.8763C46.8461 33.1301 47.6767 33.575 48.3847 34.1803C49.0927 34.7856 49.6612 35.537 50.0511 36.3829C50.2626 36.8417 50.4189 37.3223 50.5177 37.8148C50.6561 38.5047 51.2142 39.0803 51.9178 39.0799Z" fill="#F9A1E5"/>
<path d="M57.1793 39.2244C58.0269 39.2908 58.7771 38.6559 58.7454 37.8063C58.6878 36.261 58.3618 34.7335 57.7782 33.2931C57.0013 31.3757 55.7893 29.6653 54.2379 28.2968C52.6864 26.9284 50.838 25.9395 48.8387 25.4081C47.3367 25.009 45.7804 24.8763 44.24 25.012C43.3931 25.0867 42.8569 25.9103 43.0285 26.743C43.2002 27.5757 44.0157 28.0992 44.8647 28.0539C45.9333 27.9969 47.0075 28.1072 48.0479 28.3837C49.5859 28.7924 51.0078 29.5531 52.2013 30.6058C53.3947 31.6585 54.3271 32.9743 54.9247 34.4492C55.3289 35.4469 55.5725 36.4989 55.6493 37.5664C55.7104 38.4143 56.3317 39.1581 57.1793 39.2244Z" fill="#F9A1E5"/>
</svg>
