<svg width="467" height="419" viewBox="0 0 467 419" fill="none" xmlns="http://www.w3.org/2000/svg">
<path d="M0.420898 204.884L232.37 0.65332L466.075 204.884L232.37 418.47L0.420898 204.884Z" fill="#0B1C98"/>
<path d="M222.923 222.399C222.923 220.519 224.447 218.995 226.326 218.995H269.78C271.66 218.995 273.184 220.519 273.184 222.399C273.184 224.278 271.66 225.802 269.78 225.802H226.326C224.447 225.802 222.923 224.278 222.923 222.399Z" fill="white"/>
<path d="M300.192 290.55C308.543 290.55 314.632 282.553 312.649 274.289C305.491 244.511 279.091 222.398 247.625 222.398C216.159 222.398 189.744 244.511 182.602 274.304C180.618 282.569 186.707 290.55 195.058 290.55H300.192Z" stroke="white" stroke-opacity="0.5" stroke-width="2.5" stroke-miterlimit="10"/>
<path d="M247.626 207.509C267.657 207.509 283.895 190.978 283.895 170.586C283.895 150.194 267.657 133.664 247.626 133.664C227.596 133.664 211.357 150.194 211.357 170.586C211.357 190.978 227.596 207.509 247.626 207.509Z" stroke="white" stroke-opacity="0.5" stroke-width="2.5" stroke-miterlimit="10"/>
<path d="M170.842 269.101C176.823 244.212 192.223 224.671 219.258 215.586C188.799 216.627 160.834 236.421 153.847 265.489C151.864 273.753 157.952 281.734 166.303 281.734H173.089C170.734 278.201 169.742 273.69 170.842 269.101Z" fill="#907EFF" fill-opacity="0.5"/>
<path d="M200.496 163.238C200.496 140.4 218.684 121.884 241.118 121.884C249.051 121.884 256.456 124.202 262.7 128.208C255.805 117.688 244.031 110.733 230.66 110.733C209.435 110.733 192.223 128.256 192.223 149.879C192.223 160.273 196.22 169.721 202.711 176.739C201.286 172.497 200.496 167.97 200.496 163.238Z" fill="#907EFF" fill-opacity="0.5"/>
</svg>
