<svg width="466" height="419" viewBox="0 0 466 419" fill="none" xmlns="http://www.w3.org/2000/svg">
<path d="M0.226562 204.547L232.176 0.315918L465.881 204.547L232.176 418.132L0.226562 204.547Z" fill="#0B1C98"/>
<path d="M312.265 176.657C312.265 130.151 273.691 92.8305 227.394 96.1211C188.514 98.8701 156.948 130.859 154.067 170.492C151.534 205.397 170.76 236.012 199.363 249.736C203.653 251.798 206.391 256.192 206.391 261.024V280.164V294.617C206.391 308.571 216.423 320.817 230.03 322.358C246.109 324.17 259.737 311.382 259.737 295.346V261.024C259.737 256.192 262.495 251.798 266.785 249.736C293.652 236.803 312.265 208.958 312.265 176.657Z" stroke="white" stroke-opacity="0.5" stroke-width="4" stroke-miterlimit="10"/>
<path d="M234.094 184.594C223.007 184.594 213.98 193.323 213.98 204.044V215.373C219.867 218.763 226.747 220.726 234.094 220.726C241.441 220.726 248.32 218.777 254.207 215.373V204.044C254.207 193.323 245.18 184.594 234.094 184.594Z" fill="#907EFF" fill-opacity="0.6"/>
<path d="M204.062 204.044C204.062 188.025 217.529 175.002 234.093 175.002C250.657 175.002 264.124 188.025 264.124 204.044V207.25C269.937 200.611 273.443 192.037 273.443 182.672C273.443 161.653 255.828 144.618 234.093 144.618C212.359 144.618 194.743 161.653 194.743 182.672C194.743 192.051 198.249 200.625 204.062 207.25V204.044Z" fill="#907EFF" fill-opacity="0.6"/>
<path d="M207.88 242.088C207.88 238.819 210.53 236.168 213.8 236.168H254.388C257.657 236.168 260.307 238.819 260.307 242.088C260.307 245.357 257.657 248.008 254.388 248.008H213.8C210.53 248.008 207.88 245.357 207.88 242.088Z" fill="white"/>
</svg>
