<svg width="24" height="21" viewBox="0 0 24 21" fill="none" xmlns="http://www.w3.org/2000/svg">
<g clip-path="url(#clip0_436_5084)">
<path d="M5.79999 6.34785V17.616H18.3436V6.34785L12.954 2.39787C12.7051 2.21553 12.3934 2.11592 12.0718 2.11592C11.7502 2.11592 11.4385 2.21553 11.1896 2.39787L5.79999 6.34785ZM13.8363 1.4316L19.4809 5.56884C19.561 5.62732 19.6255 5.701 19.6699 5.78455C19.7142 5.86811 19.7373 5.95946 19.7374 6.05198V18.2402C19.7374 18.4058 19.6639 18.5646 19.5333 18.6816C19.4026 18.7987 19.2253 18.8644 19.0405 18.8644H5.10312C4.9183 18.8644 4.74105 18.7987 4.61036 18.6816C4.47967 18.5646 4.40625 18.4058 4.40625 18.2402V6.05198C4.40618 5.95956 4.42903 5.86827 4.47313 5.78472C4.51724 5.70117 4.58151 5.62744 4.6613 5.56884L10.3059 1.4316C10.804 1.0666 11.4276 0.867187 12.0711 0.867188C12.7146 0.867187 13.3383 1.0666 13.8363 1.4316Z" fill="#797979"/>
<path d="M12.0726 8.87805C12.4423 8.87805 12.7968 8.74652 13.0582 8.5124C13.3195 8.27828 13.4664 7.96074 13.4664 7.62964C13.4664 7.29854 13.3195 6.981 13.0582 6.74688C12.7968 6.51275 12.4423 6.38123 12.0726 6.38123C11.703 6.38123 11.3485 6.51275 11.0871 6.74688C10.8257 6.981 10.6789 7.29854 10.6789 7.62964C10.6789 7.96074 10.8257 8.27828 11.0871 8.5124C11.3485 8.74652 11.703 8.87805 12.0726 8.87805ZM12.0726 10.1265C11.3333 10.1265 10.6243 9.86341 10.1016 9.39516C9.57884 8.92692 9.28516 8.29184 9.28516 7.62964C9.28516 6.96744 9.57884 6.33236 10.1016 5.86412C10.6243 5.39587 11.3333 5.13281 12.0726 5.13281C12.8119 5.13281 13.5209 5.39587 14.0437 5.86412C14.5664 6.33236 14.8601 6.96744 14.8601 7.62964C14.8601 8.29184 14.5664 8.92692 14.0437 9.39516C13.5209 9.86341 12.8119 10.1265 12.0726 10.1265Z" fill="#797979"/>
</g>
<defs>
<clipPath id="clip0_436_5084">
<rect width="22.2998" height="19.9746" fill="white" transform="translate(0.921875 0.138672)"/>
</clipPath>
</defs>
</svg>
