<svg width="466" height="419" viewBox="0 0 466 419" fill="none" xmlns="http://www.w3.org/2000/svg">
<path d="M0.139648 204.632L232.089 0.400879L465.794 204.632L232.089 418.217L0.139648 204.632Z" fill="#0B1C98"/>
<path d="M296.106 240.304L264.467 267.207C260.413 270.652 254.952 272.574 249.229 272.574H165.869C153.953 272.574 144.288 264.323 144.288 254.148V147.275C144.288 137.101 153.953 128.849 165.869 128.849H280.868C292.785 128.849 302.449 137.101 302.449 147.275V227.246C302.468 232.149 300.179 236.843 296.106 240.304Z" stroke="white" stroke-opacity="0.5" stroke-width="2.5" stroke-miterlimit="10"/>
<path d="M315.285 257.499L283.645 284.401C279.592 287.846 274.131 289.769 268.407 289.769H185.066C173.15 289.769 163.485 281.517 163.485 271.342V164.47C163.485 154.295 173.15 146.043 185.066 146.043H300.066C311.982 146.043 321.647 154.295 321.647 164.47V244.44C321.647 249.343 319.357 254.038 315.285 257.499Z" fill="#907EFF" fill-opacity="0.5"/>
<path d="M194.302 189.605C194.302 187.606 195.923 185.985 197.922 185.985H289.727C291.727 185.985 293.348 187.606 293.348 189.605C293.348 191.605 291.727 193.226 289.727 193.226H197.922C195.923 193.226 194.302 191.605 194.302 189.605Z" fill="white"/>
<path d="M194.302 206.5C194.302 204.5 195.923 202.879 197.922 202.879H289.727C291.727 202.879 293.348 204.5 293.348 206.5C293.348 208.499 291.727 210.12 289.727 210.12H197.922C195.923 210.12 194.302 208.499 194.302 206.5Z" fill="white"/>
<path d="M194.302 223.394C194.302 221.395 195.923 219.774 197.922 219.774H289.727C291.727 219.774 293.348 221.395 293.348 223.394C293.348 225.394 291.727 227.015 289.727 227.015H197.922C195.923 227.015 194.302 225.394 194.302 223.394Z" fill="white"/>
<path d="M194.302 240.288C194.302 238.288 195.923 236.667 197.922 236.667H244.449C246.449 236.667 248.07 238.288 248.07 240.288C248.07 242.287 246.449 243.908 244.449 243.908H197.922C195.923 243.908 194.302 242.287 194.302 240.288Z" fill="white"/>
</svg>
