<svg width="466" height="419" viewBox="0 0 466 419" fill="none" xmlns="http://www.w3.org/2000/svg">
<path d="M0.139648 204.754L232.089 0.522949L465.794 204.754L232.089 418.339L0.139648 204.754Z" fill="#0B1C98"/>
<path d="M312.178 176.864C312.178 130.358 273.604 93.0375 227.307 96.3281C188.427 99.0772 156.861 131.066 153.981 170.699C151.447 205.604 170.673 236.219 199.276 249.943C203.567 252.005 206.304 256.399 206.304 261.231V280.371V294.824C206.304 308.778 216.336 321.024 229.943 322.565C246.022 324.377 259.65 311.589 259.65 295.553V261.231C259.65 256.399 262.408 252.005 266.698 249.943C293.565 237.01 312.178 209.165 312.178 176.864Z" stroke="white" stroke-opacity="0.5" stroke-width="4" stroke-miterlimit="10"/>
<path d="M234.007 184.801C222.92 184.801 213.894 193.53 213.894 204.251V215.58C219.78 218.97 226.66 220.933 234.007 220.933C241.354 220.933 248.233 218.984 254.12 215.58V204.251C254.12 193.53 245.093 184.801 234.007 184.801Z" fill="#907EFF" fill-opacity="0.6"/>
<path d="M203.975 204.251C203.975 188.232 217.442 175.209 234.006 175.209C250.57 175.209 264.037 188.232 264.037 204.251V207.457C269.85 200.818 273.356 192.244 273.356 182.879C273.356 161.86 255.741 144.825 234.006 144.825C212.272 144.825 194.656 161.86 194.656 182.879C194.656 192.258 198.162 200.832 203.975 207.457V204.251Z" fill="#907EFF" fill-opacity="0.6"/>
<path d="M207.794 242.295C207.794 239.025 210.444 236.375 213.714 236.375H254.302C257.571 236.375 260.221 239.025 260.221 242.295C260.221 245.564 257.571 248.214 254.302 248.214H213.714C210.444 248.214 207.794 245.564 207.794 242.295Z" fill="white"/>
</svg>
