<svg width="466" height="419" viewBox="0 0 466 419" fill="none" xmlns="http://www.w3.org/2000/svg">
<path d="M0.139648 204.429L232.089 0.198242L465.794 204.429L232.089 418.015L0.139648 204.429Z" fill="#0B1C98"/>
<path d="M216.354 216.297C216.354 214.417 217.877 212.893 219.757 212.893H263.211C265.091 212.893 266.615 214.417 266.615 216.297C266.615 218.176 265.091 219.7 263.211 219.7H219.757C217.877 219.7 216.354 218.176 216.354 216.297Z" fill="white"/>
<path d="M294.05 286.794C302.401 286.794 308.489 278.797 306.506 270.533C299.348 240.755 272.949 218.643 241.483 218.643C210.017 218.643 183.601 240.755 176.459 270.549C174.476 278.813 180.565 286.794 188.915 286.794H294.05Z" stroke="white" stroke-opacity="0.5" stroke-width="2.5" stroke-miterlimit="10"/>
<path d="M241.484 203.753C261.514 203.753 277.752 187.222 277.752 166.83C277.752 146.438 261.514 129.908 241.484 129.908C221.453 129.908 205.215 146.438 205.215 166.83C205.215 187.222 221.453 203.753 241.484 203.753Z" stroke="white" stroke-opacity="0.5" stroke-width="2.5" stroke-miterlimit="10"/>
<path d="M164.7 265.345C170.68 240.456 186.08 220.915 213.115 211.83C182.656 212.871 154.691 232.665 147.704 261.733C145.721 269.998 151.81 277.978 160.16 277.978H166.946C164.591 274.445 163.6 269.935 164.7 265.345Z" fill="#907EFF" fill-opacity="0.5"/>
<path d="M194.353 159.482C194.353 136.644 212.542 118.128 234.976 118.128C242.908 118.128 250.314 120.446 256.557 124.453C249.663 113.933 237.888 106.977 224.518 106.977C203.293 106.977 186.08 124.5 186.08 146.123C186.08 156.517 190.077 165.965 196.569 172.983C195.143 168.741 194.353 164.214 194.353 159.482Z" fill="#907EFF" fill-opacity="0.5"/>
</svg>
