<svg width="467" height="419" viewBox="0 0 467 419" fill="none" xmlns="http://www.w3.org/2000/svg">
<path d="M0.420898 204.473L232.37 0.241699L466.075 204.473L232.37 418.058L0.420898 204.473Z" fill="#0B1C98"/>
<path d="M296.388 240.145L264.748 267.048C260.694 270.493 255.233 272.415 249.51 272.415H166.15C154.234 272.415 144.569 264.164 144.569 253.989V147.116C144.569 136.942 154.234 128.69 166.15 128.69H281.15C293.066 128.69 302.731 136.942 302.731 147.116V227.087C302.749 231.99 300.46 236.684 296.388 240.145Z" stroke="white" stroke-opacity="0.5" stroke-width="2.5" stroke-miterlimit="10"/>
<path d="M315.566 257.34L283.926 284.242C279.873 287.687 274.412 289.61 268.688 289.61H185.348C173.431 289.61 163.767 281.358 163.767 271.183V164.311C163.767 154.136 173.431 145.884 185.348 145.884H300.347C312.263 145.884 321.928 154.136 321.928 164.311V244.281C321.928 249.184 319.638 253.879 315.566 257.34Z" fill="#907EFF" fill-opacity="0.5"/>
<path d="M194.583 189.446C194.583 187.447 196.204 185.826 198.203 185.826H290.008C292.008 185.826 293.629 187.447 293.629 189.446C293.629 191.445 292.008 193.066 290.008 193.066H198.203C196.204 193.066 194.583 191.445 194.583 189.446Z" fill="white"/>
<path d="M194.583 206.341C194.583 204.341 196.204 202.72 198.203 202.72H290.008C292.008 202.72 293.629 204.341 293.629 206.341C293.629 208.34 292.008 209.961 290.008 209.961H198.203C196.204 209.961 194.583 208.34 194.583 206.341Z" fill="white"/>
<path d="M194.583 223.235C194.583 221.236 196.204 219.615 198.203 219.615H290.008C292.008 219.615 293.629 221.236 293.629 223.235C293.629 225.235 292.008 226.855 290.008 226.855H198.203C196.204 226.855 194.583 225.235 194.583 223.235Z" fill="white"/>
<path d="M194.583 240.129C194.583 238.129 196.204 236.508 198.203 236.508H244.73C246.73 236.508 248.351 238.129 248.351 240.129C248.351 242.128 246.73 243.749 244.73 243.749H198.203C196.204 243.749 194.583 242.128 194.583 240.129Z" fill="white"/>
</svg>
