<svg width="97" height="104" viewBox="0 0 97 104" fill="none" xmlns="http://www.w3.org/2000/svg">
<rect x="0.255859" y="0.753418" width="96" height="103" rx="20" fill="#5236FF"/>
<mask id="mask0_436_5961" style="mask-type:alpha" maskUnits="userSpaceOnUse" x="0" y="0" width="97" height="104">
<rect x="0.255859" y="0.753418" width="96" height="103" rx="20" fill="#5236FF"/>
</mask>
<g mask="url(#mask0_436_5961)">
<path d="M77.366 70.4382C77.366 77.2397 65.7241 82.7533 51.3632 82.7533C37.0022 82.7533 25.3604 77.2397 25.3604 70.4382C25.3604 63.6368 37.0022 58.1231 51.3632 58.1231C65.7241 58.1231 77.366 63.6368 77.366 70.4382Z" fill="#22137B"/>
<path d="M77.366 69.7138C77.366 76.5152 65.7241 82.0289 51.3632 82.0289C37.0022 82.0289 25.3604 76.5152 25.3604 69.7138C25.3604 62.9123 37.0022 57.3987 51.3632 57.3987C65.7241 57.3987 77.366 62.9123 77.366 69.7138Z" fill="#22137B"/>
<path d="M77.366 68.9894C77.366 75.7908 65.7241 81.3045 51.3632 81.3045C37.0022 81.3045 25.3604 75.7908 25.3604 68.9894C25.3604 62.1879 37.0022 56.6743 51.3632 56.6743C65.7241 56.6743 77.366 62.1879 77.366 68.9894Z" fill="#22137B"/>
<path d="M77.366 68.265C77.366 75.0664 65.7241 80.5801 51.3632 80.5801C37.0022 80.5801 25.3604 75.0664 25.3604 68.265C25.3604 61.4635 37.0022 55.9498 51.3632 55.9498C65.7241 55.9498 77.366 61.4635 77.366 68.265Z" fill="#22137B"/>
<path d="M77.366 67.5405C77.366 74.342 65.7241 79.8557 51.3632 79.8557C37.0022 79.8557 25.3604 74.342 25.3604 67.5405C25.3604 60.7391 37.0022 55.2254 51.3632 55.2254C65.7241 55.2254 77.366 60.7391 77.366 67.5405Z" fill="#22137B"/>
<path d="M77.366 66.8161C77.366 73.6176 65.7241 79.1312 51.3632 79.1312C37.0022 79.1312 25.3604 73.6176 25.3604 66.8161C25.3604 60.0147 37.0022 54.501 51.3632 54.501C65.7241 54.501 77.366 60.0147 77.366 66.8161Z" fill="#22137B"/>
<path d="M77.366 66.0917C77.366 72.8932 65.7241 78.4068 51.3632 78.4068C37.0022 78.4068 25.3604 72.8932 25.3604 66.0917C25.3604 59.2902 37.0022 53.7766 51.3632 53.7766C65.7241 53.7766 77.366 59.2902 77.366 66.0917Z" fill="#22137B"/>
<path d="M77.366 65.3673C77.366 72.1687 65.7241 77.6824 51.3632 77.6824C37.0022 77.6824 25.3604 72.1687 25.3604 65.3673C25.3604 58.5658 37.0022 53.0522 51.3632 53.0522C65.7241 53.0522 77.366 58.5658 77.366 65.3673Z" fill="#22137B"/>
<path d="M77.366 64.6429C77.366 71.4443 65.7241 76.958 51.3632 76.958C37.0022 76.958 25.3604 71.4443 25.3604 64.6429C25.3604 57.8414 37.0022 52.3277 51.3632 52.3277C65.7241 52.3277 77.366 57.8414 77.366 64.6429Z" fill="#22137B"/>
<path d="M77.366 63.9184C77.366 70.7199 65.7241 76.2336 51.3632 76.2336C37.0022 76.2336 25.3604 70.7199 25.3604 63.9184C25.3604 57.117 37.0022 51.6033 51.3632 51.6033C65.7241 51.6033 77.366 57.117 77.366 63.9184Z" fill="#22137B"/>
<path d="M77.366 63.194C77.366 69.9955 65.7241 75.5091 51.3632 75.5091C37.0022 75.5091 25.3604 69.9955 25.3604 63.194C25.3604 56.3926 37.0022 50.8789 51.3632 50.8789C65.7241 50.8789 77.366 56.3926 77.366 63.194Z" fill="#22137B"/>
<path d="M77.366 68.4382C77.366 75.2397 65.7241 80.7533 51.3632 80.7533C37.0022 80.7533 25.3604 75.2397 25.3604 68.4382C25.3604 61.6368 37.0022 56.1231 51.3632 56.1231C65.7241 56.1231 77.366 61.6368 77.366 68.4382Z" fill="#836FFD"/>
<path d="M77.366 67.7138C77.366 74.5152 65.7241 80.0289 51.3632 80.0289C37.0022 80.0289 25.3604 74.5152 25.3604 67.7138C25.3604 60.9123 37.0022 55.3987 51.3632 55.3987C65.7241 55.3987 77.366 60.9123 77.366 67.7138Z" fill="#836FFD"/>
<path d="M77.366 66.9894C77.366 73.7908 65.7241 79.3045 51.3632 79.3045C37.0022 79.3045 25.3604 73.7908 25.3604 66.9894C25.3604 60.1879 37.0022 54.6743 51.3632 54.6743C65.7241 54.6743 77.366 60.1879 77.366 66.9894Z" fill="#836FFD"/>
<path d="M77.366 66.265C77.366 73.0664 65.7241 78.5801 51.3632 78.5801C37.0022 78.5801 25.3604 73.0664 25.3604 66.265C25.3604 59.4635 37.0022 53.9498 51.3632 53.9498C65.7241 53.9498 77.366 59.4635 77.366 66.265Z" fill="#836FFD"/>
<path d="M77.366 65.5405C77.366 72.342 65.7241 77.8557 51.3632 77.8557C37.0022 77.8557 25.3604 72.342 25.3604 65.5405C25.3604 58.7391 37.0022 53.2254 51.3632 53.2254C65.7241 53.2254 77.366 58.7391 77.366 65.5405Z" fill="#836FFD"/>
<path d="M77.366 64.8161C77.366 71.6176 65.7241 77.1312 51.3632 77.1312C37.0022 77.1312 25.3604 71.6176 25.3604 64.8161C25.3604 58.0147 37.0022 52.501 51.3632 52.501C65.7241 52.501 77.366 58.0147 77.366 64.8161Z" fill="#836FFD"/>
<path d="M77.366 64.0917C77.366 70.8932 65.7241 76.4068 51.3632 76.4068C37.0022 76.4068 25.3604 70.8932 25.3604 64.0917C25.3604 57.2902 37.0022 51.7766 51.3632 51.7766C65.7241 51.7766 77.366 57.2902 77.366 64.0917Z" fill="#836FFD"/>
<path d="M77.366 63.3673C77.366 70.1687 65.7241 75.6824 51.3632 75.6824C37.0022 75.6824 25.3604 70.1687 25.3604 63.3673C25.3604 56.5658 37.0022 51.0522 51.3632 51.0522C65.7241 51.0522 77.366 56.5658 77.366 63.3673Z" fill="#836FFD"/>
<path d="M77.366 62.6429C77.366 69.4443 65.7241 74.958 51.3632 74.958C37.0022 74.958 25.3604 69.4443 25.3604 62.6429C25.3604 55.8414 37.0022 50.3277 51.3632 50.3277C65.7241 50.3277 77.366 55.8414 77.366 62.6429Z" fill="#836FFD"/>
<path d="M77.366 61.9184C77.366 68.7199 65.7241 74.2336 51.3632 74.2336C37.0022 74.2336 25.3604 68.7199 25.3604 61.9184C25.3604 55.117 37.0022 49.6033 51.3632 49.6033C65.7241 49.6033 77.366 55.117 77.366 61.9184Z" fill="#836FFD"/>
<path d="M77.366 61.194C77.366 67.9955 65.7241 73.5091 51.3632 73.5091C37.0022 73.5091 25.3604 67.9955 25.3604 61.194C25.3604 54.3926 37.0022 48.8789 51.3632 48.8789C65.7241 48.8789 77.366 54.3926 77.366 61.194Z" fill="#836FFD"/>
<ellipse cx="51.3632" cy="60.6221" rx="26.0028" ry="11.7432" fill="white"/>
<path d="M57.2344 62.7433C57.2344 63.3664 56.8366 63.8934 56.0409 64.3242C55.2595 64.7473 54.2009 65.0204 52.8653 65.1435V65.8012C52.8653 66.0089 52.7446 66.1743 52.503 66.2974C52.2757 66.4281 51.9702 66.4935 51.5866 66.4935C51.2172 66.4935 50.9117 66.4281 50.6702 66.2974C50.4286 66.1743 50.3078 66.0089 50.3078 65.8012V65.1781C49.5264 65.1396 48.7662 65.0511 48.0274 64.9127C47.3028 64.7742 46.6634 64.5973 46.1093 64.3819C45.8819 64.3049 45.7185 64.2203 45.6191 64.128C45.5338 64.028 45.4912 63.9049 45.4912 63.7588C45.4912 63.5664 45.5978 63.3972 45.8109 63.251C46.0382 63.1049 46.294 63.0318 46.5782 63.0318C46.8481 63.0318 47.182 63.0933 47.5798 63.2164C48.2334 63.4241 48.8515 63.578 49.434 63.678C50.0308 63.7703 50.6488 63.8165 51.2882 63.8165C52.1407 63.8165 52.7943 63.7318 53.249 63.5626C53.7036 63.3857 53.931 63.1395 53.931 62.8241C53.931 62.6318 53.796 62.4741 53.526 62.351C53.2703 62.2279 52.9506 62.1318 52.567 62.0625C52.1833 61.9933 51.6292 61.9048 50.9046 61.7971C49.8532 61.651 48.9865 61.5048 48.3045 61.3586C47.6225 61.2125 47.0328 60.9817 46.5355 60.6663C46.0524 60.3509 45.8109 59.9278 45.8109 59.397C45.8109 58.7739 46.2158 58.2392 47.0257 57.7931C47.8498 57.3469 48.9225 57.0623 50.2439 56.9392V56.2815C50.2439 56.0738 50.3647 55.9084 50.6062 55.7853C50.8478 55.6545 51.1532 55.5891 51.5227 55.5891C51.9063 55.5891 52.2118 55.6545 52.4391 55.7853C52.6806 55.9084 52.8014 56.0738 52.8014 56.2815V56.9161C54.0802 57.0084 55.2808 57.27 56.4032 57.7008C56.6164 57.7777 56.7655 57.8662 56.8508 57.9662C56.9503 58.0662 57 58.1854 57 58.3239C57 58.5162 56.8863 58.6854 56.659 58.8316C56.4459 58.9777 56.1972 59.0508 55.913 59.0508C55.7568 59.0508 55.6076 59.0393 55.4655 59.0162C55.3376 58.9931 55.1529 58.9431 54.9114 58.8662C54.3288 58.6662 53.8031 58.5162 53.3342 58.4162C52.8796 58.3162 52.3183 58.2662 51.6505 58.2662C50.8833 58.2662 50.2652 58.3585 49.7963 58.5431C49.3417 58.7277 49.1143 58.9739 49.1143 59.2816C49.1143 59.497 49.2493 59.6739 49.5193 59.8124C49.7892 59.9432 50.1302 60.047 50.5423 60.124C50.9543 60.2009 51.5298 60.2894 52.2686 60.3894C53.3058 60.5278 54.1512 60.6701 54.8048 60.8163C55.4726 60.9548 56.0409 61.1817 56.5098 61.4971C56.9929 61.8048 57.2344 62.2202 57.2344 62.7433Z" fill="#5236FF"/>
<path d="M77.366 55.0173C77.366 61.8188 65.7241 67.3324 51.3632 67.3324C37.0022 67.3324 25.3604 61.8188 25.3604 55.0173C25.3604 48.2159 37.0022 42.7022 51.3632 42.7022C65.7241 42.7022 77.366 48.2159 77.366 55.0173Z" fill="#836FFD"/>
<path d="M77.366 54.2929C77.366 61.0943 65.7241 66.608 51.3632 66.608C37.0022 66.608 25.3604 61.0943 25.3604 54.2929C25.3604 47.4914 37.0022 41.9778 51.3632 41.9778C65.7241 41.9778 77.366 47.4914 77.366 54.2929Z" fill="#836FFD"/>
<path d="M77.366 53.5685C77.366 60.3699 65.7241 65.8836 51.3632 65.8836C37.0022 65.8836 25.3604 60.3699 25.3604 53.5685C25.3604 46.767 37.0022 41.2534 51.3632 41.2534C65.7241 41.2534 77.366 46.767 77.366 53.5685Z" fill="#836FFD"/>
<path d="M77.366 52.8441C77.366 59.6455 65.7241 65.1592 51.3632 65.1592C37.0022 65.1592 25.3604 59.6455 25.3604 52.8441C25.3604 46.0426 37.0022 40.5289 51.3632 40.5289C65.7241 40.5289 77.366 46.0426 77.366 52.8441Z" fill="#836FFD"/>
<path d="M77.366 52.1196C77.366 58.9211 65.7241 64.4348 51.3632 64.4348C37.0022 64.4348 25.3604 58.9211 25.3604 52.1196C25.3604 45.3182 37.0022 39.8045 51.3632 39.8045C65.7241 39.8045 77.366 45.3182 77.366 52.1196Z" fill="#836FFD"/>
<path d="M77.366 51.3952C77.366 58.1967 65.7241 63.7103 51.3632 63.7103C37.0022 63.7103 25.3604 58.1967 25.3604 51.3952C25.3604 44.5938 37.0022 39.0801 51.3632 39.0801C65.7241 39.0801 77.366 44.5938 77.366 51.3952Z" fill="#836FFD"/>
<path d="M77.366 50.6708C77.366 57.4723 65.7241 62.9859 51.3632 62.9859C37.0022 62.9859 25.3604 57.4723 25.3604 50.6708C25.3604 43.8693 37.0022 38.3557 51.3632 38.3557C65.7241 38.3557 77.366 43.8693 77.366 50.6708Z" fill="#836FFD"/>
<path d="M77.366 49.9464C77.366 56.7478 65.7241 62.2615 51.3632 62.2615C37.0022 62.2615 25.3604 56.7478 25.3604 49.9464C25.3604 43.1449 37.0022 37.6313 51.3632 37.6313C65.7241 37.6313 77.366 43.1449 77.366 49.9464Z" fill="#836FFD"/>
<path d="M77.366 49.222C77.366 56.0234 65.7241 61.5371 51.3632 61.5371C37.0022 61.5371 25.3604 56.0234 25.3604 49.222C25.3604 42.4205 37.0022 36.9068 51.3632 36.9068C65.7241 36.9068 77.366 42.4205 77.366 49.222Z" fill="#836FFD"/>
<path d="M77.366 48.4975C77.366 55.299 65.7241 60.8127 51.3632 60.8127C37.0022 60.8127 25.3604 55.299 25.3604 48.4975C25.3604 41.6961 37.0022 36.1824 51.3632 36.1824C65.7241 36.1824 77.366 41.6961 77.366 48.4975Z" fill="#836FFD"/>
<path d="M77.366 47.7731C77.366 54.5746 65.7241 60.0882 51.3632 60.0882C37.0022 60.0882 25.3604 54.5746 25.3604 47.7731C25.3604 40.9717 37.0022 35.458 51.3632 35.458C65.7241 35.458 77.366 40.9717 77.366 47.7731Z" fill="#836FFD"/>
<ellipse cx="51.3632" cy="47.2012" rx="26.0028" ry="11.7432" fill="white"/>
<path d="M57.2344 49.3224C57.2344 49.9455 56.8366 50.4725 56.0409 50.9033C55.2595 51.3264 54.2009 51.5995 52.8653 51.7226V52.3803C52.8653 52.588 52.7446 52.7534 52.503 52.8765C52.2757 53.0072 51.9702 53.0726 51.5866 53.0726C51.2172 53.0726 50.9117 53.0072 50.6702 52.8765C50.4286 52.7534 50.3078 52.588 50.3078 52.3803V51.7572C49.5264 51.7187 48.7662 51.6302 48.0274 51.4918C47.3028 51.3533 46.6634 51.1764 46.1093 50.961C45.8819 50.884 45.7185 50.7994 45.6191 50.7071C45.5338 50.6071 45.4912 50.484 45.4912 50.3379C45.4912 50.1455 45.5978 49.9763 45.8109 49.8301C46.0382 49.684 46.294 49.6109 46.5782 49.6109C46.8481 49.6109 47.182 49.6724 47.5798 49.7955C48.2334 50.0032 48.8515 50.1571 49.434 50.2571C50.0308 50.3494 50.6488 50.3956 51.2882 50.3956C52.1407 50.3956 52.7943 50.3109 53.249 50.1417C53.7036 49.9648 53.931 49.7186 53.931 49.4032C53.931 49.2109 53.796 49.0532 53.526 48.9301C53.2703 48.807 52.9506 48.7109 52.567 48.6416C52.1833 48.5724 51.6292 48.4839 50.9046 48.3762C49.8532 48.2301 48.9865 48.0839 48.3045 47.9377C47.6225 47.7916 47.0328 47.5608 46.5355 47.2454C46.0524 46.93 45.8109 46.5069 45.8109 45.9761C45.8109 45.353 46.2158 44.8183 47.0257 44.3722C47.8498 43.926 48.9225 43.6414 50.2439 43.5183V42.8606C50.2439 42.6529 50.3647 42.4875 50.6062 42.3644C50.8478 42.2336 51.1532 42.1682 51.5227 42.1682C51.9063 42.1682 52.2118 42.2336 52.4391 42.3644C52.6806 42.4875 52.8014 42.6529 52.8014 42.8606V43.4952C54.0802 43.5875 55.2808 43.8491 56.4032 44.2799C56.6164 44.3568 56.7655 44.4453 56.8508 44.5453C56.9503 44.6453 57 44.7645 57 44.903C57 45.0953 56.8863 45.2645 56.659 45.4107C56.4459 45.5568 56.1972 45.6299 55.913 45.6299C55.7568 45.6299 55.6076 45.6184 55.4655 45.5953C55.3376 45.5722 55.1529 45.5222 54.9114 45.4453C54.3288 45.2453 53.8031 45.0953 53.3342 44.9953C52.8796 44.8953 52.3183 44.8453 51.6505 44.8453C50.8833 44.8453 50.2652 44.9376 49.7963 45.1222C49.3417 45.3068 49.1143 45.553 49.1143 45.8607C49.1143 46.0761 49.2493 46.253 49.5193 46.3915C49.7892 46.5223 50.1302 46.6261 50.5423 46.7031C50.9543 46.78 51.5298 46.8685 52.2686 46.9685C53.3058 47.1069 54.1512 47.2492 54.8048 47.3954C55.4726 47.5339 56.0409 47.7608 56.5098 48.0762C56.9929 48.3839 57.2344 48.7993 57.2344 49.3224Z" fill="#5236FF"/>
<path d="M71.4939 39.0803C71.4939 45.8818 59.8521 51.3954 45.4911 51.3954C31.1301 51.3954 19.4883 45.8818 19.4883 39.0803C19.4883 32.2789 31.1301 26.7652 45.4911 26.7652C59.8521 26.7652 71.4939 32.2789 71.4939 39.0803Z" fill="#836FFD"/>
<path d="M71.4939 38.3559C71.4939 45.1573 59.8521 50.671 45.4911 50.671C31.1301 50.671 19.4883 45.1573 19.4883 38.3559C19.4883 31.5544 31.1301 26.0408 45.4911 26.0408C59.8521 26.0408 71.4939 31.5544 71.4939 38.3559Z" fill="#836FFD"/>
<path d="M71.4939 37.6315C71.4939 44.4329 59.8521 49.9466 45.4911 49.9466C31.1301 49.9466 19.4883 44.4329 19.4883 37.6315C19.4883 30.83 31.1301 25.3163 45.4911 25.3163C59.8521 25.3163 71.4939 30.83 71.4939 37.6315Z" fill="#836FFD"/>
<path d="M71.4939 36.907C71.4939 43.7085 59.8521 49.2222 45.4911 49.2222C31.1301 49.2222 19.4883 43.7085 19.4883 36.907C19.4883 30.1056 31.1301 24.5919 45.4911 24.5919C59.8521 24.5919 71.4939 30.1056 71.4939 36.907Z" fill="#836FFD"/>
<path d="M71.4939 36.1826C71.4939 42.9841 59.8521 48.4977 45.4911 48.4977C31.1301 48.4977 19.4883 42.9841 19.4883 36.1826C19.4883 29.3812 31.1301 23.8675 45.4911 23.8675C59.8521 23.8675 71.4939 29.3812 71.4939 36.1826Z" fill="#836FFD"/>
<path d="M71.4939 35.4582C71.4939 42.2597 59.8521 47.7733 45.4911 47.7733C31.1301 47.7733 19.4883 42.2597 19.4883 35.4582C19.4883 28.6568 31.1301 23.1431 45.4911 23.1431C59.8521 23.1431 71.4939 28.6568 71.4939 35.4582Z" fill="#836FFD"/>
<path d="M71.4939 34.7338C71.4939 41.5352 59.8521 47.0489 45.4911 47.0489C31.1301 47.0489 19.4883 41.5352 19.4883 34.7338C19.4883 27.9323 31.1301 22.4187 45.4911 22.4187C59.8521 22.4187 71.4939 27.9323 71.4939 34.7338Z" fill="#836FFD"/>
<path d="M71.4939 34.0094C71.4939 40.8108 59.8521 46.3245 45.4911 46.3245C31.1301 46.3245 19.4883 40.8108 19.4883 34.0094C19.4883 27.2079 31.1301 21.6943 45.4911 21.6943C59.8521 21.6943 71.4939 27.2079 71.4939 34.0094Z" fill="#836FFD"/>
<path d="M71.4939 33.285C71.4939 40.0864 59.8521 45.6001 45.4911 45.6001C31.1301 45.6001 19.4883 40.0864 19.4883 33.285C19.4883 26.4835 31.1301 20.9698 45.4911 20.9698C59.8521 20.9698 71.4939 26.4835 71.4939 33.285Z" fill="#836FFD"/>
<path d="M71.4939 32.5605C71.4939 39.362 59.8521 44.8757 45.4911 44.8757C31.1301 44.8757 19.4883 39.362 19.4883 32.5605C19.4883 25.7591 31.1301 20.2454 45.4911 20.2454C59.8521 20.2454 71.4939 25.7591 71.4939 32.5605Z" fill="#836FFD"/>
<path d="M71.4939 31.8361C71.4939 38.6376 59.8521 44.1512 45.4911 44.1512C31.1301 44.1512 19.4883 38.6376 19.4883 31.8361C19.4883 25.0347 31.1301 19.521 45.4911 19.521C59.8521 19.521 71.4939 25.0347 71.4939 31.8361Z" fill="#836FFD"/>
<ellipse cx="45.4911" cy="31.2642" rx="26.0028" ry="11.7432" fill="white"/>
<path d="M51.3624 33.3854C51.3624 34.0085 50.9645 34.5355 50.1688 34.9663C49.3874 35.3894 48.3289 35.6625 46.9933 35.7855V36.4433C46.9933 36.651 46.8725 36.8164 46.631 36.9394C46.4036 37.0702 46.0982 37.1356 45.7145 37.1356C45.3451 37.1356 45.0396 37.0702 44.7981 36.9394C44.5565 36.8164 44.4358 36.651 44.4358 36.4433V35.8202C43.6543 35.7817 42.8942 35.6932 42.1553 35.5548C41.4307 35.4163 40.7913 35.2394 40.2372 35.024C40.0099 34.947 39.8465 34.8624 39.747 34.7701C39.6618 34.6701 39.6191 34.547 39.6191 34.4009C39.6191 34.2085 39.7257 34.0393 39.9388 33.8931C40.1662 33.747 40.4219 33.6739 40.7061 33.6739C40.976 33.6739 41.3099 33.7354 41.7078 33.8585C42.3614 34.0662 42.9794 34.2201 43.562 34.3201C44.1587 34.4124 44.7768 34.4585 45.4162 34.4585C46.2687 34.4585 46.9222 34.3739 47.3769 34.2047C47.8316 34.0278 48.0589 33.7816 48.0589 33.4662C48.0589 33.2739 47.9239 33.1162 47.654 32.9931C47.3982 32.87 47.0785 32.7738 46.6949 32.7046C46.3113 32.6354 45.7572 32.5469 45.0325 32.4392C43.9811 32.2931 43.1144 32.1469 42.4324 32.0007C41.7504 31.8546 41.1607 31.6238 40.6635 31.3084C40.1804 30.993 39.9388 30.5699 39.9388 30.0391C39.9388 29.416 40.3438 28.8813 41.1536 28.4352C41.9777 27.989 43.0505 27.7044 44.3718 27.5813V26.9235C44.3718 26.7158 44.4926 26.5504 44.7341 26.4274C44.9757 26.2966 45.2812 26.2312 45.6506 26.2312C46.0342 26.2312 46.3397 26.2966 46.567 26.4274C46.8086 26.5504 46.9293 26.7158 46.9293 26.9235V27.5582C48.2081 27.6505 49.4087 27.9121 50.5312 28.3428C50.7443 28.4198 50.8935 28.5082 50.9787 28.6082C51.0782 28.7083 51.1279 28.8275 51.1279 28.966C51.1279 29.1583 51.0142 29.3275 50.7869 29.4737C50.5738 29.6198 50.3251 29.6929 50.041 29.6929C49.8847 29.6929 49.7355 29.6814 49.5934 29.6583C49.4655 29.6352 49.2808 29.5852 49.0393 29.5083C48.4567 29.3083 47.931 29.1583 47.4622 29.0583C47.0075 28.9583 46.4463 28.9083 45.7785 28.9083C45.0112 28.9083 44.3931 29.0006 43.9243 29.1852C43.4696 29.3698 43.2423 29.616 43.2423 29.9237C43.2423 30.1391 43.3773 30.316 43.6472 30.4545C43.9172 30.5853 44.2582 30.6891 44.6702 30.7661C45.0823 30.843 45.6577 30.9314 46.3965 31.0314C47.4337 31.1699 48.2791 31.3122 48.9327 31.4584C49.6005 31.5969 50.1688 31.8238 50.6377 32.1392C51.1208 32.4469 51.3624 32.8623 51.3624 33.3854Z" fill="#5236FF"/>
</g>
</svg>
