<svg width="82" height="73" viewBox="0 0 82 73" fill="none" xmlns="http://www.w3.org/2000/svg">
<path d="M57.6504 12.3142C56.7638 12.3142 55.9136 11.9974 55.2867 11.4336C54.6598 10.8698 54.3076 10.1051 54.3076 9.30768C54.3076 8.5103 54.6598 7.74557 55.2867 7.18174C55.9136 6.61791 56.7638 6.30115 57.6504 6.30115H71.0215C71.908 6.30115 72.7583 6.61791 73.3852 7.18174C74.0121 7.74557 74.3643 8.5103 74.3643 9.30768V21.3338C74.3643 22.1312 74.0121 22.8959 73.3852 23.4597C72.7583 24.0236 71.908 24.3403 71.0215 24.3403C70.1349 24.3403 69.2847 24.0236 68.6578 23.4597C68.0309 22.8959 67.6787 22.1312 67.6787 21.3338V16.5654L48.314 33.9823C47.6872 34.5459 46.8371 34.8625 45.9507 34.8625C45.0643 34.8625 44.2142 34.5459 43.5873 33.9823L34.251 25.585L16.5577 41.4986C15.9272 42.0463 15.0828 42.3493 14.2064 42.3425C13.3299 42.3356 12.4915 42.0194 11.8717 41.462C11.2519 40.9045 10.9004 40.1505 10.8928 39.3622C10.8851 38.5739 11.2221 37.8144 11.831 37.2474L31.8876 19.2082C32.5145 18.6445 33.3646 18.3279 34.251 18.3279C35.1374 18.3279 35.9874 18.6445 36.6143 19.2082L45.9507 27.6054L62.952 12.3142H57.6504ZM17.5371 54.4056V63.4252C17.5371 64.2226 17.1849 64.9873 16.558 65.5512C15.9311 66.115 15.0809 66.4318 14.1943 66.4318C13.3078 66.4318 12.4575 66.115 11.8306 65.5512C11.2037 64.9873 10.8516 64.2226 10.8516 63.4252V54.4056C10.8516 53.6083 11.2037 52.8435 11.8306 52.2797C12.4575 51.7159 13.3078 51.3991 14.1943 51.3991C15.0809 51.3991 15.9311 51.7159 16.558 52.2797C17.1849 52.8435 17.5371 53.6083 17.5371 54.4056ZM34.251 42.3795C34.251 41.5821 33.8988 40.8174 33.2719 40.2536C32.645 39.6897 31.7948 39.373 30.9082 39.373C30.0216 39.373 29.1714 39.6897 28.5445 40.2536C27.9176 40.8174 27.5654 41.5821 27.5654 42.3795V63.4252C27.5654 64.2226 27.9176 64.9873 28.5445 65.5512C29.1714 66.115 30.0216 66.4318 30.9082 66.4318C31.7948 66.4318 32.645 66.115 33.2719 65.5512C33.8988 64.9873 34.251 64.2226 34.251 63.4252V42.3795ZM47.6221 45.386C48.5086 45.386 49.3589 45.7028 49.9858 46.2666C50.6127 46.8305 50.9648 47.5952 50.9648 48.3926V63.4252C50.9648 64.2226 50.6127 64.9873 49.9858 65.5512C49.3589 66.115 48.5086 66.4318 47.6221 66.4318C46.7355 66.4318 45.8853 66.115 45.2584 65.5512C44.6315 64.9873 44.2793 64.2226 44.2793 63.4252V48.3926C44.2793 47.5952 44.6315 46.8305 45.2584 46.2666C45.8853 45.7028 46.7355 45.386 47.6221 45.386ZM67.6787 33.3599C67.6787 32.5625 67.3265 31.7978 66.6996 31.234C66.0727 30.6702 65.2225 30.3534 64.3359 30.3534C63.4494 30.3534 62.5991 30.6702 61.9722 31.234C61.3453 31.7978 60.9932 32.5625 60.9932 33.3599V63.4252C60.9932 64.2226 61.3453 64.9873 61.9722 65.5512C62.5991 66.115 63.4494 66.4318 64.3359 66.4318C65.2225 66.4318 66.0727 66.115 66.6996 65.5512C67.3265 64.9873 67.6787 64.2226 67.6787 63.4252V33.3599Z" fill="white"/>
</svg>
