<svg width="79" height="78" viewBox="0 0 79 78" fill="none" xmlns="http://www.w3.org/2000/svg">
<path d="M25.2 5.50464C22.6073 5.50464 20.1208 6.51916 18.2874 8.32502C16.4541 10.1309 15.4242 12.5802 15.4242 15.134V26.6941C16.9349 25.8325 18.5905 25.2454 20.3121 24.9608V15.134C20.3121 13.8571 20.827 12.6325 21.7437 11.7295C22.6604 10.8266 23.9036 10.3193 25.2 10.3193H39.8636V22.3561C39.8636 24.2715 40.636 26.1084 42.011 27.4628C43.386 28.8172 45.2509 29.5781 47.1954 29.5781H59.4151V63.281C59.4151 64.5579 58.9001 65.7826 57.9835 66.6855C57.0668 67.5884 55.8236 68.0957 54.5272 68.0957H42.9527C41.9704 69.9146 40.6352 71.5259 39.0229 72.8382L38.9349 72.9104H54.5272C57.1199 72.9104 59.6064 71.8959 61.4397 70.09C63.273 68.2842 64.303 65.8349 64.303 63.281V26.7567C64.3013 24.842 63.5277 23.0062 62.1523 21.6531L47.9139 7.61829C47.2328 6.94776 46.4242 6.41598 45.5344 6.05332C44.6445 5.69065 43.6909 5.50421 42.7279 5.50464H25.2ZM58.4033 24.7634H47.1954C46.5472 24.7634 45.9256 24.5098 45.4673 24.0583C45.0089 23.6069 44.7515 22.9945 44.7515 22.3561V11.316L58.4033 24.7634ZM32.5318 39.2075C32.5318 41.7614 31.5018 44.2107 29.6685 46.0165C27.8352 47.8224 25.3487 48.8369 22.756 48.8369C20.1633 48.8369 17.6768 47.8224 15.8435 46.0165C14.0102 44.2107 12.9803 41.7614 12.9803 39.2075C12.9803 36.6536 14.0102 34.2044 15.8435 32.3985C17.6768 30.5926 20.1633 29.5781 22.756 29.5781C25.3487 29.5781 27.8352 30.5926 29.6685 32.3985C31.5018 34.2044 32.5318 36.6536 32.5318 39.2075ZM39.8636 60.8737C39.8636 66.868 34.9757 72.9104 22.756 72.9104C10.5363 72.9104 5.64844 66.892 5.64844 60.8737C5.64844 58.9583 6.42089 57.1213 7.79588 55.7669C9.17086 54.4125 11.0357 53.6516 12.9803 53.6516H32.5318C34.4763 53.6516 36.3412 54.4125 37.7161 55.7669C39.0911 57.1213 39.8636 58.9583 39.8636 60.8737Z" fill="white"/>
</svg>
