<svg width="92" height="94" viewBox="0 0 92 94" fill="none" xmlns="http://www.w3.org/2000/svg">
<path d="M42.229 54.7407H34.6427C34.6427 45.4321 38.2394 36.5048 44.6416 29.9227C51.0437 23.3405 59.7269 19.6427 68.7809 19.6427V27.4423C54.1015 27.4423 42.229 39.6486 42.229 54.7407ZM68.7809 43.0414V35.2418C58.3119 35.2418 49.8153 43.9773 49.8153 54.7407H57.4015C57.4015 48.2671 62.4843 43.0414 68.7809 43.0414ZM27.0565 15.7429C27.0565 11.4142 23.6806 7.94336 19.4702 7.94336C15.2598 7.94336 11.884 11.4142 11.884 15.7429C11.884 20.0717 15.2598 23.5425 19.4702 23.5425C23.6806 23.5425 27.0565 20.0717 27.0565 15.7429ZM43.9359 17.6928H36.3496C35.9152 20.4197 34.5506 22.8985 32.5001 24.685C30.4497 26.4715 27.8476 27.4489 25.1599 27.4423H13.7805C10.6322 27.4423 8.09082 30.0551 8.09082 33.2919V43.0414H30.8496V34.2279C34.361 33.0831 37.4705 30.908 39.7955 27.9703C42.1204 25.0326 43.5596 21.4603 43.9359 17.6928ZM72.5741 66.4401C76.7844 66.4401 80.1603 62.9693 80.1603 58.6405C80.1603 54.3117 76.7844 50.8409 72.5741 50.8409C68.3637 50.8409 64.9878 54.3117 64.9878 58.6405C64.9878 62.9693 68.3637 66.4401 72.5741 66.4401ZM78.2637 70.3398H66.8844C61.1947 70.3398 56.605 66.1281 55.6946 60.5904H48.1084C48.867 68.3899 54.1394 74.8246 61.1947 77.1255V85.939H83.9534V76.1895C83.9534 72.9527 81.412 70.3398 78.2637 70.3398Z" fill="white"/>
</svg>
