<svg width="25" height="25" viewBox="0 0 25 25" fill="none" xmlns="http://www.w3.org/2000/svg">
<g id="Phone">
<path id="Vector" d="M9.43599 12.4532C10.2079 14.047 11.4968 15.3324 13.0928 16.1001C13.2106 16.1558 13.3408 16.1799 13.4707 16.1701C13.6005 16.1602 13.7256 16.1167 13.8336 16.0438L16.1777 14.4782C16.2813 14.408 16.401 14.3651 16.5256 14.3536C16.6502 14.3422 16.7757 14.3624 16.8903 14.4126L21.2785 16.297C21.4285 16.3594 21.5538 16.4693 21.6351 16.6099C21.7165 16.7505 21.7493 16.914 21.7286 17.0751C21.5895 18.1605 21.0597 19.158 20.2382 19.881C19.4167 20.604 18.3598 21.003 17.2654 21.0032C13.8833 21.0032 10.6398 19.6599 8.2483 17.2688C5.85683 14.8777 4.51331 11.6347 4.51331 8.2532C4.51355 7.15895 4.91257 6.10228 5.6357 5.28091C6.35883 4.45955 7.35651 3.92977 8.44207 3.7907C8.6032 3.77001 8.76666 3.80285 8.90728 3.88416C9.04791 3.96547 9.1579 4.09075 9.22032 4.2407L11.105 8.63758C11.154 8.75041 11.1745 8.87355 11.1647 8.99617C11.1549 9.11878 11.1151 9.2371 11.0487 9.3407L9.48287 11.722C9.41315 11.8297 9.37224 11.9534 9.36403 12.0815C9.35582 12.2095 9.3806 12.3375 9.43599 12.4532V12.4532Z" stroke="white" stroke-width="1.5" stroke-linecap="round" stroke-linejoin="round"/>
</g>
</svg>
