<svg width="18" height="18" viewBox="0 0 18 18" fill="none" xmlns="http://www.w3.org/2000/svg">
<path id="Vector" d="M6.46043 9.316C6.46043 7.73983 7.73804 6.46174 9.31447 6.46174C10.8909 6.46174 12.1692 7.73983 12.1692 9.316C12.1692 10.8922 10.8909 12.1703 9.31447 12.1703C7.73804 12.1703 6.46043 10.8922 6.46043 9.316ZM4.91721 9.316C4.91721 11.7442 6.88584 13.7125 9.31447 13.7125C11.7431 13.7125 13.7117 11.7442 13.7117 9.316C13.7117 6.88777 11.7431 4.91945 9.31447 4.91945C6.88584 4.91945 4.91721 6.88777 4.91721 9.316ZM12.8581 4.74517C12.8581 5.31229 13.3181 5.7729 13.886 5.7729C14.4533 5.7729 14.9139 5.31229 14.9139 4.74517C14.9139 4.17805 14.4539 3.71813 13.886 3.71813C13.3181 3.71813 12.8581 4.17805 12.8581 4.74517ZM5.85449 16.2853C5.01958 16.2473 4.56581 16.1083 4.26422 15.9907C3.86441 15.8351 3.57942 15.6497 3.27921 15.3503C2.9797 15.0508 2.79363 14.7659 2.63868 14.3661C2.52109 14.0646 2.38205 13.6109 2.34401 12.7761C2.3025 11.8736 2.2942 11.6024 2.2942 9.316C2.2942 7.02955 2.3032 6.75913 2.34401 5.85589C2.38205 5.02112 2.52178 4.56812 2.63868 4.26589C2.79432 3.86614 2.9797 3.58119 3.27921 3.28104C3.57873 2.98157 3.86372 2.79553 4.26422 2.64061C4.56581 2.52304 5.01958 2.38402 5.85449 2.34598C6.75718 2.30449 7.02833 2.29619 9.31447 2.29619C11.6013 2.29619 11.8718 2.30518 12.7751 2.34598C13.61 2.38402 14.0631 2.52373 14.3654 2.64061C14.7652 2.79553 15.0502 2.98157 15.3504 3.28104C15.6499 3.5805 15.8353 3.86614 15.9909 4.26589C16.1085 4.56743 16.2476 5.02112 16.2856 5.85589C16.3271 6.75913 16.3354 7.02955 16.3354 9.316C16.3354 11.6018 16.3271 11.8729 16.2856 12.7761C16.2476 13.6109 16.1078 14.0646 15.9909 14.3661C15.8353 14.7659 15.6499 15.0508 15.3504 15.3503C15.0509 15.6497 14.7652 15.8351 14.3654 15.9907C14.0638 16.1083 13.61 16.2473 12.7751 16.2853C11.8724 16.3268 11.6013 16.3351 9.31447 16.3351C7.02833 16.3351 6.75718 16.3268 5.85449 16.2853ZM5.78393 0.805777C4.87224 0.847273 4.2497 0.991819 3.70531 1.20345C3.14225 1.422 2.66497 1.71524 2.18837 2.19107C1.71247 2.66689 1.41918 3.1441 1.20059 3.70776C0.988928 4.25205 0.844359 4.8745 0.802856 5.78604C0.760661 6.69896 0.750977 6.99082 0.750977 9.316C0.750977 11.6412 0.760661 11.933 0.802856 12.846C0.844359 13.7575 0.988928 14.3799 1.20059 14.9242C1.41918 15.4872 1.71178 15.9651 2.18837 16.4409C2.66427 16.9168 3.14156 17.2093 3.70531 17.4285C4.25039 17.6402 4.87224 17.7847 5.78393 17.8262C6.69769 17.8677 6.98891 17.8781 9.31447 17.8781C11.6407 17.8781 11.9319 17.8684 12.845 17.8262C13.7567 17.7847 14.3792 17.6402 14.9236 17.4285C15.4867 17.2093 15.964 16.9168 16.4406 16.4409C16.9165 15.9651 17.2091 15.4872 17.4283 14.9242C17.64 14.3799 17.7853 13.7575 17.8261 12.846C17.8676 11.9323 17.8773 11.6412 17.8773 9.316C17.8773 6.99082 17.8676 6.69896 17.8261 5.78604C17.7846 4.8745 17.64 4.25205 17.4283 3.70776C17.2091 3.14479 16.9165 2.66758 16.4406 2.19107C15.9647 1.71524 15.4867 1.422 14.9243 1.20345C14.3792 0.991819 13.7567 0.846582 12.8457 0.805777C11.9326 0.76428 11.6407 0.753906 9.31516 0.753906C6.98891 0.753906 6.69769 0.763589 5.78393 0.805777Z" fill="white"/>
</svg>
