<svg width="18" height="18" viewBox="0 0 18 18" fill="none" xmlns="http://www.w3.org/2000/svg">
<path id="Vector" d="M0.744751 2.74259C0.744751 2.166 0.937628 1.69033 1.32337 1.31557C1.7091 0.940798 2.21058 0.753418 2.82776 0.753418C3.43394 0.753418 3.92437 0.937909 4.2991 1.30693C4.68483 1.68746 4.87771 2.1833 4.87771 2.79448C4.87771 3.34799 4.69035 3.80923 4.31563 4.17825C3.92989 4.55879 3.42291 4.74905 2.7947 4.74905H2.77817C2.17199 4.74905 1.68156 4.55879 1.30683 4.17825C0.932106 3.79771 0.744751 3.31915 0.744751 2.74259ZM0.959665 17.8776V6.32309H4.62973V17.8776H0.959665ZM6.66315 17.8776H10.3332V11.4257C10.3332 11.0221 10.3773 10.7108 10.4655 10.4917C10.6198 10.0996 10.854 9.76809 11.1681 9.49711C11.4822 9.22612 11.8762 9.09063 12.3501 9.09063C13.5845 9.09063 14.2017 9.96125 14.2017 11.7025V17.8776H17.8717V11.2528C17.8717 9.54612 17.486 8.25172 16.7145 7.36957C15.943 6.48741 14.9236 6.04634 13.6561 6.04634C12.2344 6.04634 11.1267 6.68633 10.3332 7.96632V8.00091H10.3167L10.3332 7.96632V6.32309H6.66315C6.68519 6.69209 6.69621 7.83946 6.69621 9.76522C6.69621 11.691 6.68519 14.3951 6.66315 17.8776Z" fill="white"/>
</svg>
